<svg width="22" height="22" viewBox="0 0 22 22" fill="none" xmlns="http://www.w3.org/2000/svg">
    <path
        d="M12.358 2.10153V1.36858C12.3655 0.619894 11.7645 0.00710213 11.016 6.1209e-05C10.2673 -0.00697971 9.65501 0.594312 9.64844 1.34299V1.36858V2.10153C10.5445 1.94264 11.4617 1.94264 12.358 2.10153Z"
        fill="#3EBEC4" />
    <path
        d="M11.0044 21.9999C12.4003 22.0004 13.5637 20.9311 13.6806 19.54H8.32812C8.445 20.9311 9.60839 22.0004 11.0044 21.9999Z"
        fill="#3EBEC4" />
    <path
        d="M17.9306 13.5919C17.9454 13.591 17.9599 13.5887 17.9742 13.5854V9.88984C17.9742 5.99317 14.8521 2.82336 11.0047 2.82336C7.15756 2.82336 4.03516 5.99317 4.03516 9.88984V13.5854C4.04947 13.5887 4.06402 13.591 4.07881 13.5919H17.9306Z"
        fill="#3EBEC4" />
    <path
        d="M4.06608 14.4331H17.9474C18.793 14.4331 19.4784 15.1187 19.4784 15.964V17.1683C19.4784 18.0136 18.793 18.6989 17.9474 18.6989H4.06608C3.22047 18.6989 2.53516 18.0136 2.53516 17.1683V15.964C2.53516 15.1187 3.22047 14.4331 4.06608 14.4331Z"
        fill="#3EBEC4" />
</svg>
    