<svg width="27" height="26" viewBox="0 0 27 26" fill="none" xmlns="http://www.w3.org/2000/svg">
<path d="M4.47266 12.3296L5.8797 20.4594C5.98978 21.0954 6.56113 21.5615 7.23063 21.5615H19.9806C20.6622 21.5615 21.2401 21.0789 21.3364 20.4291L22.5379 12.3296H4.47266ZM10.0745 18.2644C10.0745 18.6287 9.76798 18.9238 9.38969 18.9238C9.01141 18.9238 8.7049 18.6287 8.7049 18.2644V14.3079C8.7049 13.9436 9.01141 13.6484 9.38969 13.6484C9.76798 13.6484 10.0745 13.9436 10.0745 14.3079V18.2644ZM14.1832 18.2644C14.1832 18.6287 13.8767 18.9238 13.4984 18.9238C13.1201 18.9238 12.8136 18.6287 12.8136 18.2644V14.3079C12.8136 13.9436 13.1201 13.6484 13.4984 13.6484C13.8767 13.6484 14.1832 13.9436 14.1832 14.3079V18.2644ZM18.2919 18.2644C18.2919 18.6287 17.9854 18.9238 17.6071 18.9238C17.2288 18.9238 16.9223 18.6287 16.9223 18.2644V14.3079C16.9223 13.9436 17.2288 13.6484 17.6071 13.6484C17.9854 13.6484 18.2919 13.9436 18.2919 14.3079V18.2644Z" fill="#295365"/>
<path d="M23.3152 8.37326H21.3162L15.3537 2.63168C15.0862 2.37413 14.6529 2.37413 14.3854 2.63168C14.1179 2.88904 14.1179 3.30676 14.3854 3.56416L19.3795 8.37326H7.6205L12.6146 3.56412C12.882 3.30676 12.882 2.88904 12.6146 2.63164C12.3471 2.37409 11.9137 2.37409 11.6462 2.63164L5.68386 8.37326H3.6848C3.30659 8.37326 3 8.66849 3 9.03269V10.3515C3 10.7157 3.30659 11.011 3.6848 11.011H23.3153C23.6934 11.011 24.0001 10.7157 24.0001 10.3515V9.03269C24 8.66849 23.6934 8.37326 23.3152 8.37326Z" fill="#295365"/>
</svg>
