<svg width="16" height="16" viewBox="0 0 16 16" fill="none" xmlns="http://www.w3.org/2000/svg">
    <path
        d="M10.6728 5.27304C10.7996 5.15234 10.9683 5.08561 11.1433 5.08693C11.3184 5.08826 11.4861 5.15753 11.611 5.28014C11.7359 5.40274 11.8084 5.56909 11.813 5.74407C11.8176 5.91906 11.7541 6.089 11.6358 6.21804L8.0448 10.709C7.98305 10.7755 7.90853 10.8289 7.82568 10.866C7.74283 10.903 7.65336 10.923 7.56263 10.9247C7.47189 10.9263 7.38174 10.9097 7.29758 10.8757C7.21342 10.8418 7.13697 10.7912 7.0728 10.727L4.6914 8.34564C4.62508 8.28384 4.57189 8.20932 4.535 8.12652C4.4981 8.04372 4.47827 7.95434 4.47667 7.86371C4.47507 7.77307 4.49174 7.68305 4.52569 7.599C4.55964 7.51495 4.61017 7.4386 4.67427 7.3745C4.73836 7.31041 4.81471 7.25988 4.89876 7.22593C4.98281 7.19198 5.07284 7.17531 5.16347 7.1769C5.2541 7.1785 5.34349 7.19834 5.42628 7.23523C5.50908 7.27213 5.5836 7.32532 5.6454 7.39164L7.53 9.27534L10.6557 5.29284L10.6728 5.27304Z"
        fill="currentColor" />
</svg>
    