<svg width="28" height="28" viewBox="0 0 28 28" fill="none" xmlns="http://www.w3.org/2000/svg">
    <path
        d="M22.6673 6.35348C22.472 6.15822 22.1554 6.15822 21.9602 6.35348L20.8995 7.41414L21.6066 8.12124L22.6673 7.06058C22.8625 6.86532 22.8625 6.54874 22.6673 6.35348Z"
        fill="#3EBEC4" />
    <path
        d="M11.874 16.4396L20.1924 8.12126L20.8995 8.82837L12.5811 17.1467C12.4714 17.2565 12.3375 17.3392 12.1903 17.3883L11.3535 17.6672L11.6324 16.8305C11.6815 16.6832 11.7643 16.5494 11.874 16.4396Z"
        fill="#3EBEC4" />
    <path
        d="M7 9.49992C7 8.6715 7.67157 7.99992 8.5 7.99992L15.5 7.99992C15.7761 7.99992 16 8.22378 16 8.49992C16 8.77607 15.7761 8.99992 15.5 8.99992L8.5 8.99992C8.22386 8.99992 8 9.22378 8 9.49992L8 20.4999C8 20.7761 8.22386 20.9999 8.5 20.9999L19.5 20.9999C19.7761 20.9999 20 20.7761 20 20.4999V13.4999C20 13.2238 20.2239 12.9999 20.5 12.9999C20.7761 12.9999 21 13.2238 21 13.4999V20.4999C21 21.3284 20.3284 21.9999 19.5 21.9999H8.5C7.67157 21.9999 7 21.3284 7 20.4999L7 9.49992Z"
        fill="#3EBEC4" />
</svg>
    