<svg width="34" height="34" viewBox="0 0 34 34" fill="none" xmlns="http://www.w3.org/2000/svg">
    <g clip-path="url(#clip0_838_29072)">
        <path
            d="M26.5118 16.1818H25.9028C25.6866 15.045 25.2392 13.9648 24.5883 13.0081L25.0189 12.5775C25.2463 12.3496 25.374 12.0408 25.374 11.7189C25.374 11.397 25.2463 11.0882 25.0189 10.8603L24.5057 10.3471C24.2778 10.1198 23.969 9.99207 23.6471 9.99207C23.3252 9.99207 23.0164 10.1198 22.7885 10.3471L22.3579 10.7776C21.4012 10.1268 20.321 9.67943 19.1842 9.46322V8.85418C19.1839 8.53224 19.0558 8.22358 18.8282 7.99594C18.6005 7.76829 18.2919 7.64024 17.9699 7.63989H17.2442C16.9223 7.64024 16.6136 7.76829 16.386 7.99594C16.1583 8.22358 16.0303 8.53224 16.0299 8.85418V9.4632C14.8932 9.67941 13.813 10.1268 12.8563 10.7776L12.4257 10.347C12.1978 10.1197 11.889 9.99199 11.5671 9.99201C11.2451 9.99202 10.9363 10.1197 10.7084 10.3471L10.1953 10.8603C9.9679 11.0882 9.8402 11.397 9.84018 11.7189C9.84017 12.0408 9.96783 12.3496 10.1952 12.5775L10.6258 13.0081C9.97496 13.9648 9.52755 15.045 9.31134 16.1818H8.70232C8.38038 16.1821 8.07173 16.3102 7.84408 16.5378C7.61643 16.7655 7.48839 17.0741 7.48804 17.3961V18.1218C7.48839 18.4437 7.61643 18.7524 7.84408 18.9801C8.07173 19.2077 8.38038 19.3357 8.70232 19.3361H9.31134C9.52756 20.4728 9.97493 21.553 10.6257 22.5098L10.1952 22.9403C9.96783 23.1682 9.84017 23.477 9.84019 23.799C9.8402 24.1209 9.96791 24.4297 10.1953 24.6576L10.7084 25.1708C10.9364 25.3981 11.2451 25.5258 11.5671 25.5258C11.889 25.5258 12.1978 25.3981 12.4257 25.1708L12.8563 24.7403C13.813 25.3911 14.8932 25.8385 16.0299 26.0547V26.6637C16.0303 26.9856 16.1583 27.2943 16.386 27.5219C16.6136 27.7496 16.9223 27.8776 17.2442 27.878H17.9699C18.2919 27.8776 18.6005 27.7496 18.8282 27.5219C19.0558 27.2943 19.1839 26.9856 19.1842 26.6637V26.0547C20.321 25.8385 21.4012 25.3911 22.3579 24.7403L22.7885 25.1708C23.0164 25.3982 23.3252 25.5259 23.6471 25.5259C23.969 25.5259 24.2778 25.3981 24.5057 25.1707L25.0189 24.6576C25.2463 24.4297 25.374 24.1209 25.374 23.7989C25.374 23.477 25.2463 23.1682 25.0189 22.9403L24.5884 22.5098C25.2392 21.553 25.6866 20.4728 25.9028 19.3361H26.5118C26.8338 19.3357 27.1424 19.2077 27.3701 18.9801C27.5977 18.7524 27.7258 18.4437 27.7261 18.1218V17.3961C27.7258 17.0741 27.5977 16.7655 27.3701 16.5378C27.1424 16.3102 26.8338 16.1821 26.5118 16.1818ZM26.9166 18.1218C26.9165 18.2291 26.8738 18.332 26.7979 18.4079C26.7221 18.4838 26.6192 18.5265 26.5118 18.5266H25.5604C25.4632 18.5266 25.3692 18.5616 25.2957 18.6251C25.2222 18.6887 25.174 18.7766 25.1599 18.8728C24.9764 20.1194 24.487 21.3011 23.7354 22.3123C23.6774 22.3903 23.6494 22.4865 23.6565 22.5834C23.6635 22.6803 23.7053 22.7714 23.774 22.8401L24.4464 23.5127C24.5222 23.5886 24.5648 23.6916 24.5648 23.7989C24.5649 23.9062 24.5223 24.0092 24.4465 24.0852L23.9334 24.5984C23.8574 24.6741 23.7544 24.7167 23.6471 24.7167C23.5398 24.7167 23.4368 24.6741 23.3608 24.5984L22.6883 23.9258C22.6195 23.8571 22.5284 23.8155 22.4315 23.8084C22.3346 23.8013 22.2384 23.8293 22.1605 23.8873C21.1492 24.6389 19.9675 25.1283 18.721 25.3118C18.6248 25.3258 18.5369 25.374 18.4733 25.4476C18.4097 25.5211 18.3747 25.6151 18.3747 25.7123V26.6637C18.3746 26.771 18.3319 26.8739 18.256 26.9498C18.1802 27.0257 18.0773 27.0684 17.9699 27.0685H17.2442C17.1369 27.0684 17.034 27.0257 16.9581 26.9498C16.8822 26.8739 16.8396 26.771 16.8395 26.6637V25.7123C16.8394 25.6151 16.8045 25.5211 16.7409 25.4476C16.6773 25.374 16.5894 25.3258 16.4932 25.3118C15.2467 25.1283 14.065 24.6389 13.0537 23.8873C12.975 23.8314 12.8792 23.8047 12.7829 23.8117C12.6866 23.8188 12.5957 23.8591 12.5259 23.9258L11.8534 24.5983C11.7774 24.6741 11.6744 24.7167 11.5671 24.7167C11.4598 24.7167 11.3568 24.6742 11.2808 24.5984L10.7676 24.0852C10.6919 24.0092 10.6493 23.9063 10.6493 23.7989C10.6493 23.6916 10.6919 23.5887 10.7676 23.5127L11.4402 22.8401C11.5089 22.7714 11.5506 22.6803 11.5577 22.5834C11.5648 22.4865 11.5367 22.3903 11.4787 22.3123C10.7271 21.3011 10.2377 20.1194 10.0543 18.8728C10.0402 18.7766 9.99199 18.6887 9.91845 18.6251C9.84491 18.5616 9.75095 18.5266 9.65374 18.5266H8.70232C8.59501 18.5265 8.49212 18.4838 8.41623 18.4079C8.34035 18.332 8.29767 18.2291 8.29756 18.1218V17.3961C8.29767 17.2888 8.34035 17.1859 8.41623 17.11C8.49212 17.0341 8.59501 16.9914 8.70232 16.9913H9.65374C9.75095 16.9913 9.84491 16.9563 9.91845 16.8927C9.99199 16.8292 10.0402 16.7412 10.0543 16.645C10.2377 15.3985 10.7271 14.2168 11.4787 13.2056C11.5367 13.1276 11.5648 13.0314 11.5577 12.9345C11.5507 12.8376 11.509 12.7465 11.4403 12.6778L10.7676 12.0051C10.6918 11.9291 10.6493 11.8262 10.6493 11.7189C10.6493 11.6116 10.6918 11.5086 10.7676 11.4327L11.2808 10.9195C11.3568 10.8437 11.4598 10.8012 11.5671 10.8012C11.6744 10.8012 11.7773 10.8437 11.8534 10.9195L12.5259 11.5921C12.5946 11.6607 12.6858 11.7024 12.7826 11.7095C12.8795 11.7166 12.9757 11.6886 13.0537 11.6306C14.065 10.879 15.2467 10.3896 16.4932 10.2061C16.5894 10.1921 16.6773 10.1439 16.7409 10.0703C16.8045 9.99678 16.8394 9.90282 16.8395 9.80561V8.85418C16.8396 8.74686 16.8822 8.64397 16.9581 8.56809C17.034 8.4922 17.1369 8.44952 17.2442 8.44942H17.9699C18.0773 8.44952 18.1802 8.4922 18.256 8.56809C18.3319 8.64397 18.3746 8.74686 18.3747 8.85418V9.80561C18.3747 9.90282 18.4097 9.99678 18.4733 10.0703C18.5369 10.1439 18.6248 10.1921 18.721 10.2061C19.9675 10.3896 21.1492 10.879 22.1605 11.6306C22.2384 11.6886 22.3346 11.7166 22.4315 11.7095C22.5284 11.7024 22.6195 11.6607 22.6882 11.5921L23.3608 10.9196C23.4368 10.8438 23.5397 10.8012 23.6471 10.8012C23.7544 10.8012 23.8574 10.8437 23.9334 10.9195L24.4465 11.4327C24.5223 11.5086 24.5649 11.6116 24.5649 11.7189C24.5649 11.8262 24.5223 11.9292 24.4464 12.0051L23.7739 12.6778C23.7052 12.7465 23.6635 12.8376 23.6564 12.9345C23.6494 13.0314 23.6774 13.1276 23.7354 13.2056C24.487 14.2168 24.9764 15.3985 25.1599 16.6451C25.174 16.7412 25.2222 16.8292 25.2957 16.8927C25.3692 16.9563 25.4632 16.9913 25.5604 16.9913H26.5118C26.6192 16.9914 26.722 17.0341 26.7979 17.11C26.8738 17.1859 26.9165 17.2888 26.9166 17.3961L26.9166 18.1218Z"
            fill="#2D4356" />
        <path
            d="M17.6072 13.4367C17.7145 13.4367 17.8175 13.394 17.8934 13.3181C17.9693 13.2422 18.0119 13.1393 18.0119 13.0319V11.8899C18.0119 11.7825 17.9693 11.6796 17.8934 11.6037C17.8175 11.5278 17.7145 11.4851 17.6072 11.4851C17.4998 11.4851 17.3969 11.5278 17.3209 11.6037C17.245 11.6796 17.2024 11.7825 17.2024 11.8899V13.0319C17.2024 13.1393 17.245 13.2422 17.321 13.3181C17.3969 13.394 17.4998 13.4367 17.6072 13.4367Z"
            fill="#2D4356" />
        <path
            d="M15.0232 12.4738C14.9966 12.4277 14.9612 12.3874 14.9191 12.355C14.8769 12.3226 14.8288 12.2988 14.7774 12.2851C14.7261 12.2713 14.6725 12.2678 14.6198 12.2747C14.5671 12.2816 14.5162 12.2989 14.4702 12.3255C14.4241 12.3521 14.3838 12.3875 14.3514 12.4296C14.3191 12.4718 14.2953 12.52 14.2816 12.5713C14.2678 12.6227 14.2643 12.6763 14.2713 12.729C14.2783 12.7817 14.2956 12.8325 14.3222 12.8786L14.8932 13.8676C14.9488 13.9585 15.0372 14.0245 15.1401 14.0521C15.243 14.0796 15.3525 14.0666 15.4461 14.0158C15.5391 13.9621 15.6069 13.8737 15.6347 13.77C15.6625 13.6663 15.6479 13.5558 15.5943 13.4629L15.0232 12.4738Z"
            fill="#0BCEB2" />
        <path
            d="M13.7158 15.0448L12.7267 14.4738C12.6807 14.4472 12.6298 14.4299 12.5771 14.4229C12.5244 14.416 12.4709 14.4194 12.4195 14.4332C12.3681 14.4469 12.32 14.4707 12.2778 14.503C12.2356 14.5354 12.2002 14.5757 12.1736 14.6218C12.147 14.6678 12.1298 14.7187 12.1228 14.7714C12.1159 14.8241 12.1194 14.8777 12.1332 14.929C12.147 14.9804 12.1707 15.0285 12.2031 15.0707C12.2355 15.1129 12.2759 15.1482 12.3219 15.1748L13.311 15.7459C13.404 15.7995 13.5145 15.8141 13.6181 15.7863C13.7218 15.7585 13.8102 15.6907 13.8639 15.5977C13.9176 15.5048 13.9321 15.3943 13.9044 15.2906C13.8766 15.1869 13.8087 15.0985 13.7158 15.0448Z"
            fill="#2D4356" />
        <path
            d="M13.2848 17.759C13.2848 17.6517 13.2422 17.5487 13.1663 17.4728C13.0904 17.3969 12.9874 17.3543 12.8801 17.3542H11.738C11.6307 17.3542 11.5277 17.3969 11.4518 17.4728C11.3759 17.5487 11.3333 17.6517 11.3333 17.759C11.3333 17.8664 11.3759 17.9693 11.4518 18.0452C11.5277 18.1211 11.6307 18.1638 11.738 18.1638H12.8801C12.9874 18.1638 13.0904 18.1211 13.1663 18.0452C13.2422 17.9693 13.2848 17.8664 13.2848 17.759Z"
            fill="#0BCEB2" />
        <path
            d="M13.3111 19.7719L12.322 20.343C12.229 20.3966 12.1612 20.485 12.1334 20.5887C12.1056 20.6924 12.1202 20.8029 12.1739 20.8958C12.2285 20.9877 12.3169 21.0546 12.4202 21.0823C12.5235 21.11 12.6335 21.0962 12.7268 21.044L13.7158 20.4729C13.8087 20.4192 13.8765 20.3308 13.9042 20.2272C13.932 20.1235 13.9174 20.0131 13.8638 19.9201C13.8101 19.8272 13.7218 19.7594 13.6181 19.7316C13.5145 19.7038 13.404 19.7183 13.3111 19.7719Z"
            fill="#2D4356" />
        <path
            d="M15.446 21.5021C15.4 21.4755 15.3492 21.4582 15.2965 21.4512C15.2438 21.4443 15.1902 21.4478 15.1389 21.4615C15.0875 21.4753 15.0394 21.499 14.9972 21.5314C14.9551 21.5638 14.9197 21.6041 14.8931 21.6502L14.3221 22.6393C14.2684 22.7322 14.2538 22.8427 14.2816 22.9464C14.3094 23.0501 14.3772 23.1385 14.4702 23.1922C14.5635 23.2441 14.6734 23.2577 14.7766 23.2301C14.8798 23.2024 14.9682 23.1357 15.0231 23.044L15.5942 22.055C15.6478 21.962 15.6624 21.8515 15.6346 21.7478C15.6068 21.6442 15.539 21.5557 15.446 21.5021Z"
            fill="#0BCEB2" />
        <path
            d="M17.6072 22.0811C17.4998 22.0811 17.3969 22.1237 17.321 22.1996C17.245 22.2755 17.2024 22.3785 17.2024 22.4858V23.6279C17.2024 23.7352 17.245 23.8382 17.3209 23.9141C17.3969 23.99 17.4998 24.0326 17.6072 24.0326C17.7145 24.0326 17.8175 23.99 17.8934 23.9141C17.9693 23.8382 18.0119 23.7352 18.0119 23.6279V22.4858C18.0119 22.3785 17.9693 22.2755 17.8934 22.1996C17.8175 22.1237 17.7145 22.0811 17.6072 22.0811Z"
            fill="#2D4356" />
        <path
            d="M20.3211 21.6502C20.2674 21.5573 20.179 21.4895 20.0753 21.4618C19.9716 21.434 19.8612 21.4486 19.7683 21.5022C19.6754 21.5559 19.6075 21.6442 19.5797 21.7479C19.5519 21.8515 19.5664 21.962 19.62 22.0549L20.1911 23.044C20.2459 23.1358 20.3343 23.2026 20.4375 23.2303C20.5407 23.2579 20.6507 23.2443 20.744 23.1921C20.837 23.1385 20.9048 23.0501 20.9326 22.9464C20.9604 22.8427 20.9458 22.7322 20.8921 22.6393L20.3211 21.6502Z"
            fill="#0BCEB2" />
        <path
            d="M22.8922 20.343L21.9031 19.7719C21.8101 19.7183 21.6997 19.7038 21.596 19.7316C21.4924 19.7594 21.404 19.8272 21.3504 19.9201C21.2967 20.0131 21.2822 20.1235 21.3099 20.2272C21.3376 20.3308 21.4054 20.4192 21.4983 20.4729L22.4874 21.044C22.5807 21.0962 22.6907 21.11 22.7939 21.0823C22.8972 21.0546 22.9856 20.9877 23.0403 20.8959C23.0669 20.8498 23.0841 20.799 23.0911 20.7463C23.098 20.6936 23.0945 20.6401 23.0807 20.5887C23.067 20.5374 23.0432 20.4893 23.0109 20.4471C22.9785 20.4049 22.9382 20.3695 22.8922 20.343Z"
            fill="#2D4356" />
        <path
            d="M23.4763 17.3542H22.3342C22.2269 17.3542 22.1239 17.3969 22.048 17.4728C21.9721 17.5487 21.9294 17.6517 21.9294 17.759C21.9294 17.8664 21.9721 17.9693 22.048 18.0452C22.1239 18.1211 22.2269 18.1638 22.3342 18.1638H23.4763C23.5836 18.1638 23.6866 18.1211 23.7625 18.0452C23.8384 17.9693 23.881 17.8664 23.881 17.759C23.881 17.6517 23.8384 17.5487 23.7625 17.4728C23.6866 17.3969 23.5836 17.3542 23.4763 17.3542Z"
            fill="#0BCEB2" />
        <path
            d="M21.7909 15.7153C21.864 15.7161 21.9359 15.6967 21.9987 15.6592L23.0106 15.0521C23.0562 15.0247 23.0959 14.9887 23.1276 14.946C23.1592 14.9033 23.1821 14.8547 23.195 14.8032C23.2079 14.7516 23.2105 14.698 23.2027 14.6455C23.1949 14.5929 23.1768 14.5424 23.1494 14.4968C23.1221 14.4512 23.086 14.4115 23.0433 14.3798C23.0006 14.3482 22.9521 14.3253 22.9006 14.3124C22.849 14.2995 22.7954 14.2969 22.7428 14.3047C22.6903 14.3125 22.6397 14.3306 22.5942 14.358L21.5823 14.9651C21.5367 14.9924 21.4969 15.0285 21.4653 15.0712C21.4336 15.1139 21.4107 15.1624 21.3978 15.214C21.3849 15.2655 21.3823 15.3191 21.3901 15.3717C21.398 15.4243 21.4161 15.4748 21.4434 15.5204C21.4799 15.5798 21.531 15.6289 21.5918 15.663C21.6526 15.6971 21.7211 15.7151 21.7909 15.7153Z"
            fill="#2D4356" />
        <path
            d="M20.869 12.2167C20.8234 12.1893 20.7729 12.1712 20.7204 12.1634C20.6678 12.1555 20.6142 12.1581 20.5626 12.171C20.511 12.1839 20.4625 12.2068 20.4198 12.2385C20.3771 12.2701 20.3411 12.3099 20.3138 12.3555L19.7066 13.3674C19.6793 13.413 19.6612 13.4635 19.6533 13.5161C19.6455 13.5686 19.6481 13.6222 19.661 13.6738C19.6739 13.7253 19.6968 13.7739 19.7285 13.8166C19.7601 13.8593 19.7999 13.8953 19.8454 13.9227C19.9379 13.9763 20.0476 13.9918 20.1512 13.9658C20.2549 13.9399 20.3444 13.8746 20.4007 13.7838L21.0079 12.7719C21.0352 12.7263 21.0533 12.6758 21.0611 12.6233C21.0689 12.5707 21.0663 12.5171 21.0534 12.4655C21.0406 12.414 21.0176 12.3655 20.986 12.3228C20.9543 12.2801 20.9146 12.244 20.869 12.2167Z"
            fill="#0BCEB2" />
        <path
            d="M20.4405 17.7588C20.4405 17.6515 20.3978 17.5485 20.3219 17.4726C20.246 17.3967 20.1431 17.3541 20.0357 17.3541H18.0119V14.9255C18.0119 14.8182 17.9693 14.7152 17.8934 14.6393C17.8175 14.5634 17.7145 14.5208 17.6072 14.5208C17.4998 14.5208 17.3969 14.5634 17.3209 14.6393C17.245 14.7152 17.2024 14.8182 17.2024 14.9255V17.7588C17.2024 17.8662 17.245 17.9691 17.321 18.0451C17.3969 18.121 17.4998 18.1636 17.6072 18.1636H20.0357C20.1431 18.1636 20.246 18.121 20.3219 18.0451C20.3978 17.9691 20.4405 17.8662 20.4405 17.7588Z"
            fill="#2D4356" />
        <path
            d="M0.404762 30.7114C0.628306 30.7114 0.809524 30.5302 0.809524 30.3066C0.809524 30.0831 0.628306 29.9019 0.404762 29.9019C0.181218 29.9019 0 30.0831 0 30.3066C0 30.5302 0.181218 30.7114 0.404762 30.7114Z"
            fill="#2D4356" />
        <path
            d="M2.22626 29.9019H1.61912C1.51177 29.9019 1.40882 29.9445 1.33291 30.0204C1.257 30.0963 1.21436 30.1993 1.21436 30.3066C1.21436 30.414 1.257 30.5169 1.33291 30.5928C1.40882 30.6687 1.51177 30.7114 1.61912 30.7114H2.22626C2.33361 30.7114 2.43656 30.6687 2.51247 30.5928C2.58838 30.5169 2.63102 30.414 2.63102 30.3066C2.63102 30.1993 2.58838 30.0963 2.51247 30.0204C2.43656 29.9445 2.33361 29.9019 2.22626 29.9019Z"
            fill="#2D4356" />
        <path
            d="M32.381 29.9019H31.7739C31.6666 29.9019 31.5636 29.9445 31.4877 30.0204C31.4118 30.0963 31.3691 30.1993 31.3691 30.3066C31.3691 30.414 31.4118 30.5169 31.4877 30.5928C31.5636 30.6687 31.6666 30.7114 31.7739 30.7114H32.381C32.4884 30.7114 32.5913 30.6687 32.6673 30.5928C32.7432 30.5169 32.7858 30.414 32.7858 30.3066C32.7858 30.1993 32.7432 30.0963 32.6673 30.0204C32.5913 29.9445 32.4884 29.9019 32.381 29.9019Z"
            fill="#2D4356" />
        <path
            d="M33.5952 30.7114C33.8187 30.7114 34 30.5302 34 30.3066C34 30.0831 33.8187 29.9019 33.5952 29.9019C33.3716 29.9019 33.1904 30.0831 33.1904 30.3066C33.1904 30.5302 33.3716 30.7114 33.5952 30.7114Z"
            fill="#2D4356" />
        <path
            d="M23.9121 31.5208H22.2308C22.1291 31.5289 22.0341 31.5751 21.9649 31.6501C21.8956 31.7251 21.8572 31.8234 21.8572 31.9255C21.8572 32.0276 21.8956 32.1259 21.9649 32.2009C22.0341 32.2759 22.1291 32.3221 22.2308 32.3303H23.9121C24.0139 32.3221 24.1088 32.2759 24.1781 32.2009C24.2473 32.1259 24.2858 32.0276 24.2858 31.9255C24.2858 31.8234 24.2473 31.7251 24.1781 31.6501C24.1088 31.5751 24.0139 31.5289 23.9121 31.5208Z"
            fill="#0BCEB2" />
        <path
            d="M11.7693 31.5208H10.088C9.98623 31.5289 9.89128 31.5751 9.82204 31.6501C9.7528 31.7251 9.71436 31.8234 9.71436 31.9255C9.71436 32.0276 9.7528 32.1259 9.82204 32.2009C9.89128 32.2759 9.98623 32.3221 10.088 32.3303H11.7693C11.8711 32.3221 11.966 32.2759 12.0353 32.2009C12.1045 32.1259 12.1429 32.0276 12.1429 31.9255C12.1429 31.8234 12.1045 31.7251 12.0353 31.6501C11.966 31.5751 11.8711 31.5289 11.7693 31.5208Z"
            fill="#0BCEB2" />
        <path
            d="M21.0476 31.5208H12.9524C12.845 31.5208 12.7421 31.5634 12.6662 31.6393C12.5903 31.7152 12.5476 31.8182 12.5476 31.9255C12.5476 32.0329 12.5903 32.1358 12.6662 32.2117C12.7421 32.2876 12.845 32.3303 12.9524 32.3303H16.1783V32.735H14.5714C14.4641 32.735 14.3611 32.7777 14.2852 32.8536C14.2093 32.9295 14.1667 33.0324 14.1667 33.1398C14.1667 33.2471 14.2093 33.3501 14.2852 33.426C14.3611 33.5019 14.4641 33.5446 14.5714 33.5446H19.6309C19.7383 33.5446 19.8412 33.5019 19.9172 33.426C19.9931 33.3501 20.0357 33.2471 20.0357 33.1398C20.0357 33.0324 19.9931 32.9295 19.9172 32.8536C19.8412 32.7777 19.7383 32.735 19.6309 32.735H17.8217V32.3303H21.0476C21.155 32.3303 21.2579 32.2876 21.3338 32.2117C21.4097 32.1358 21.4524 32.0329 21.4524 31.9255C21.4524 31.8182 21.4097 31.7152 21.3338 31.6393C21.2579 31.5634 21.155 31.5208 21.0476 31.5208Z"
            fill="#0BCEB2" />
        <path
            d="M30.5032 29.9017H17.6267C15.5274 29.8987 13.4648 29.3516 11.6401 28.3137C9.81532 27.2758 8.29083 25.7826 7.21536 23.9797C6.13988 22.1769 5.55016 20.126 5.50374 18.0273C5.45732 15.9286 5.95579 13.8536 6.95051 12.005C7.94522 10.1564 9.4022 8.59719 11.1793 7.47963C12.9563 6.36207 14.9928 5.7243 17.0898 5.62856C19.1869 5.53282 21.273 5.98237 23.1445 6.93336C25.016 7.88434 26.609 9.30427 27.768 11.0546L27.5207 10.9015C27.4755 10.8735 27.4252 10.8547 27.3728 10.8461C27.3203 10.8376 27.2667 10.8394 27.2149 10.8516C27.1632 10.8638 27.1144 10.886 27.0712 10.9171C27.0281 10.9481 26.9915 10.9874 26.9635 11.0326C26.9355 11.0778 26.9167 11.1281 26.9081 11.1805C26.8996 11.233 26.9015 11.2866 26.9136 11.3384C26.9258 11.3901 26.9481 11.439 26.9791 11.4821C27.0102 11.5252 27.0494 11.5619 27.0946 11.5898L28.4619 12.4363C28.5187 12.4705 28.583 12.4906 28.6492 12.4948C28.7155 12.499 28.7818 12.4872 28.8425 12.4605C28.9031 12.433 28.9559 12.3909 28.9964 12.3381C29.0368 12.2853 29.0636 12.2233 29.0743 12.1576L29.34 10.5386C29.3486 10.4861 29.3468 10.4325 29.3346 10.3808C29.3225 10.329 29.3003 10.2801 29.2693 10.237C29.2383 10.1938 29.1991 10.1572 29.1539 10.1291C29.1088 10.1011 29.0585 10.0823 29.0061 10.0737C28.9536 10.0651 28.9 10.0669 28.8482 10.079C28.7965 10.0911 28.7476 10.1133 28.7044 10.1443C28.6613 10.1753 28.6246 10.2145 28.5966 10.2597C28.5686 10.3049 28.5497 10.3551 28.5411 10.4076L28.495 10.6884C27.3778 8.96658 25.8678 7.5346 24.0891 6.51029C22.3104 5.48598 20.314 4.89863 18.264 4.79656C16.214 4.69449 14.1691 5.08061 12.2974 5.92316C10.4258 6.76572 8.78097 8.04062 7.49827 9.64297C6.21556 11.2453 5.33163 13.1293 4.91922 15.14C4.5068 17.1507 4.57768 19.2305 5.12602 21.2085C5.67437 23.1864 6.6845 25.0059 8.07332 26.5172C9.46213 28.0285 11.1899 29.1885 13.1146 29.9017H3.49698C3.4394 29.8941 3.38087 29.899 3.32531 29.9159C3.26975 29.9328 3.21844 29.9613 3.17479 29.9996C3.13115 30.038 3.09619 30.0851 3.07223 30.138C3.04828 30.1909 3.03589 30.2483 3.03589 30.3064C3.03589 30.3645 3.04828 30.4219 3.07223 30.4748C3.09619 30.5277 3.13115 30.5749 3.17479 30.6132C3.21844 30.6515 3.26975 30.6801 3.32531 30.6969C3.38087 30.7138 3.4394 30.7187 3.49698 30.7112H30.5032C30.5608 30.7187 30.6193 30.7138 30.6749 30.6969C30.7304 30.6801 30.7818 30.6515 30.8254 30.6132C30.869 30.5749 30.904 30.5277 30.928 30.4748C30.9519 30.4219 30.9643 30.3645 30.9643 30.3064C30.9643 30.2483 30.9519 30.1909 30.928 30.138C30.904 30.0851 30.869 30.038 30.8254 29.9996C30.7818 29.9613 30.7304 29.9328 30.6749 29.9159C30.6193 29.899 30.5608 29.8941 30.5032 29.9017Z"
            fill="#2D4356" />
        <path
            d="M22.2729 4.85711C22.393 4.85711 22.5104 4.8215 22.6102 4.75479C22.7101 4.68807 22.7879 4.59325 22.8338 4.48231C22.8798 4.37137 22.8918 4.24929 22.8684 4.13152C22.845 4.01374 22.7871 3.90556 22.7022 3.82065C22.6173 3.73574 22.5091 3.67792 22.3914 3.65449C22.2736 3.63106 22.1515 3.64309 22.0406 3.68904C21.9296 3.73499 21.8348 3.81281 21.7681 3.91266C21.7014 4.0125 21.6658 4.12988 21.6658 4.24997C21.666 4.41093 21.73 4.56526 21.8438 4.67908C21.9576 4.7929 22.1119 4.85692 22.2729 4.85711ZM22.2729 3.94639C22.333 3.94639 22.3916 3.9642 22.4416 3.99756C22.4915 4.03091 22.5304 4.07832 22.5534 4.13379C22.5764 4.18926 22.5824 4.2503 22.5707 4.30919C22.5589 4.36808 22.53 4.42217 22.4876 4.46462C22.4451 4.50708 22.391 4.53599 22.3321 4.5477C22.2733 4.55942 22.2122 4.55341 22.1567 4.53043C22.1013 4.50745 22.0539 4.46854 22.0205 4.41862C21.9871 4.3687 21.9693 4.31001 21.9693 4.24997C21.9694 4.16948 22.0014 4.09231 22.0583 4.0354C22.1153 3.97848 22.1924 3.94647 22.2729 3.94639Z"
            fill="#2D4356" />
        <path
            d="M32.3303 3.7439C32.2502 3.7439 32.172 3.76764 32.1054 3.81211C32.0389 3.85659 31.987 3.9198 31.9563 3.99376C31.9257 4.06772 31.9177 4.14911 31.9333 4.22762C31.9489 4.30614 31.9875 4.37826 32.0441 4.43487C32.1007 4.49148 32.1728 4.53003 32.2513 4.54564C32.3298 4.56126 32.4112 4.55325 32.4852 4.52261C32.5592 4.49197 32.6224 4.44009 32.6668 4.37353C32.7113 4.30697 32.7351 4.22871 32.7351 4.14866C32.7349 4.04135 32.6923 3.93847 32.6164 3.86258C32.5405 3.7867 32.4376 3.74402 32.3303 3.7439ZM32.3303 4.35104C32.2903 4.35104 32.2511 4.33917 32.2179 4.31693C32.1846 4.29469 32.1586 4.26309 32.1433 4.22611C32.128 4.18913 32.124 4.14843 32.1318 4.10918C32.1396 4.06992 32.1589 4.03386 32.1872 4.00555C32.2155 3.97725 32.2516 3.95798 32.2908 3.95017C32.3301 3.94236 32.3708 3.94637 32.4077 3.96168C32.4447 3.977 32.4763 4.00294 32.4986 4.03622C32.5208 4.0695 32.5327 4.10863 32.5327 4.14866C32.5326 4.20232 32.5113 4.25376 32.4733 4.2917C32.4354 4.32965 32.384 4.35099 32.3303 4.35104Z"
            fill="#2D4356" />
        <path
            d="M1.6301 2.17554C1.55005 2.17554 1.47179 2.19928 1.40523 2.24375C1.33867 2.28823 1.28679 2.35144 1.25615 2.4254C1.22552 2.49936 1.2175 2.58075 1.23312 2.65926C1.24874 2.73778 1.28729 2.8099 1.34389 2.86651C1.4005 2.92312 1.47262 2.96167 1.55114 2.97728C1.62965 2.9929 1.71104 2.98489 1.785 2.95425C1.85896 2.92361 1.92218 2.87174 1.96665 2.80517C2.01113 2.73861 2.03487 2.66035 2.03487 2.5803C2.03474 2.47299 1.99206 2.37011 1.91618 2.29422C1.8403 2.21834 1.73742 2.17566 1.6301 2.17554ZM1.6301 2.78268C1.59008 2.78268 1.55095 2.77081 1.51767 2.74857C1.48439 2.72633 1.45845 2.69473 1.44313 2.65775C1.42781 2.62077 1.4238 2.58007 1.43161 2.54082C1.43942 2.50156 1.4587 2.4655 1.487 2.43719C1.5153 2.40889 1.55136 2.38962 1.59062 2.38181C1.62988 2.374 1.67057 2.37801 1.70755 2.39332C1.74453 2.40864 1.77614 2.43458 1.79838 2.46786C1.82062 2.50114 1.83248 2.54027 1.83248 2.5803C1.83243 2.63396 1.81109 2.6854 1.77315 2.72334C1.73521 2.76129 1.68376 2.78263 1.6301 2.78268Z"
            fill="#2D4356" />
        <path
            d="M26.5625 0.455322C26.4824 0.455322 26.4042 0.479061 26.3376 0.523537C26.271 0.568013 26.2192 0.631228 26.1885 0.705189C26.1579 0.779149 26.1499 0.860533 26.1655 0.939049C26.1811 1.01757 26.2197 1.08969 26.2763 1.14629C26.3329 1.2029 26.405 1.24145 26.4835 1.25707C26.562 1.27269 26.6434 1.26467 26.7174 1.23404C26.7913 1.2034 26.8545 1.15152 26.899 1.08496C26.9435 1.0184 26.9672 0.940139 26.9672 0.860084C26.9671 0.752772 26.9244 0.649891 26.8486 0.57401C26.7727 0.498129 26.6698 0.455445 26.5625 0.455322ZM26.5625 1.06247C26.5224 1.06247 26.4833 1.0506 26.45 1.02836C26.4168 1.00612 26.3908 0.974512 26.3755 0.937532C26.3602 0.900552 26.3562 0.85986 26.364 0.820602C26.3718 0.781344 26.3911 0.745283 26.4194 0.716979C26.4477 0.688676 26.4837 0.669401 26.523 0.661592C26.5623 0.653783 26.6029 0.657791 26.6399 0.673109C26.6769 0.688426 26.7085 0.714366 26.7307 0.747647C26.753 0.780929 26.7649 0.820057 26.7649 0.860084C26.7648 0.913742 26.7435 0.965188 26.7055 1.00313C26.6676 1.04107 26.6161 1.06241 26.5625 1.06247Z"
            fill="#2D4356" />
        <path
            d="M7.90401 7.08323C7.90401 7.00317 7.88027 6.92492 7.83579 6.85836C7.79132 6.79179 7.7281 6.73991 7.65414 6.70928C7.58018 6.67864 7.4988 6.67063 7.42028 6.68624C7.34176 6.70186 7.26964 6.74041 7.21303 6.79702C7.15643 6.85363 7.11788 6.92575 7.10226 7.00426C7.08664 7.08278 7.09466 7.16416 7.12529 7.23812C7.15593 7.31208 7.20781 7.3753 7.27437 7.41978C7.34093 7.46425 7.41919 7.48799 7.49924 7.48799C7.60656 7.48787 7.70944 7.44518 7.78532 7.3693C7.8612 7.29342 7.90388 7.19054 7.90401 7.08323ZM7.29686 7.08323C7.29686 7.0432 7.30873 7.00407 7.33097 6.97079C7.35321 6.93751 7.38482 6.91157 7.4218 6.89625C7.45878 6.88094 7.49947 6.87693 7.53873 6.88474C7.57799 6.89255 7.61405 6.91182 7.64235 6.94012C7.67065 6.96843 7.68993 7.00449 7.69774 7.04375C7.70555 7.083 7.70154 7.1237 7.68622 7.16068C7.6709 7.19766 7.64496 7.22926 7.61168 7.2515C7.5784 7.27374 7.53927 7.28561 7.49924 7.28561C7.44559 7.28556 7.39414 7.26422 7.3562 7.22627C7.31826 7.18833 7.29692 7.13689 7.29686 7.08323Z"
            fill="#2D4356" />
        <path
            d="M1.69747 10.2226L1.99841 9.82691L1.80838 9.71924L1.6151 10.1625H1.60883L1.41252 9.72227L1.21925 9.83318L1.51695 10.2195V10.2258L1.05127 10.1657V10.381L1.51998 10.3209V10.3272L1.21925 10.7133L1.39957 10.8275L1.60559 10.381H1.61186L1.8019 10.8242L2.00145 10.7103L1.69747 10.3302V10.324L2.1755 10.381V10.1657L1.69747 10.2288V10.2226Z"
            fill="#0BCEB2" />
        <path
            d="M8.42623 1.28445L8.25299 1.50686L8.35681 1.57264L8.47561 1.31541H8.47905L8.58854 1.57081L8.70349 1.50504L8.52843 1.28627V1.28262L8.80367 1.31541V1.19135L8.52843 1.22798V1.22434L8.70167 0.996255L8.59218 0.934326L8.48107 1.18953H8.47723L8.3643 0.936148L8.25299 0.999898L8.4244 1.22252V1.22616L8.15625 1.19135V1.31541L8.42623 1.2808V1.28445Z"
            fill="#0BCEB2" />
        <path
            d="M31.4307 9.60558V9.39449L30.9617 9.45663V9.45035L31.2568 9.06219L31.0704 8.95654L30.881 9.39126H30.8747L30.6822 8.95958L30.4926 9.06846L30.7847 9.44732V9.45359L30.3279 9.39449V9.60558L30.7877 9.54669V9.55296L30.4926 9.93182L30.6697 10.0437L30.8717 9.60558H30.8777L31.0641 10.0405L31.2598 9.92878L30.9617 9.55599V9.54972L31.4307 9.60558Z"
            fill="#0BCEB2" />
        <path
            d="M13.6096 3.10375L13.8642 2.76881L13.7033 2.67773L13.54 3.05275H13.5345L13.3686 2.68037L13.2049 2.77427L13.4568 3.10112V3.10638L13.063 3.05558V3.23772L13.4595 3.18672V3.19219L13.2049 3.51903L13.3577 3.61557L13.5319 3.23772H13.5372L13.6981 3.61273L13.8668 3.5164L13.6096 3.19482V3.18935L14.014 3.23772V3.05558L13.6096 3.10901V3.10375Z"
            fill="#0BCEB2" />
    </g>
    <defs>
        <clipPath id="clip0_838_29072">
            <rect width="34" height="34" fill="white" />
        </clipPath>
    </defs>
</svg>
    