<svg width="23" height="23" viewBox="0 0 23 23" fill="none" xmlns="http://www.w3.org/2000/svg">
<path d="M22.7322 10.7135C22.3826 10.1499 21.7649 9.81299 21.0799 9.81299H5.82609C5.06996 9.81299 4.38227 10.2392 4.07361 10.8992L0.0390625 19.3584C0.191376 19.9778 0.769921 20.4405 1.45902 20.4405H17.6879C18.3818 20.4405 19.0159 20.0482 19.3258 19.4273L22.8131 12.4378C23.0884 11.8847 23.0579 11.2401 22.7322 10.7135Z" fill="white"/>
<path d="M3.25245 9.59784C3.56076 8.93805 4.24863 8.51165 5.00493 8.51165H19.3689V6.67441C19.3689 5.91706 18.73 5.30078 17.9447 5.30078H9.56924C9.55696 5.30078 9.54854 5.29762 9.54538 5.29534L8.04628 3.19928C7.78079 2.82745 7.34227 2.60547 6.87375 2.60547H1.42452C0.638909 2.60547 0 3.22174 0 3.9791V16.4168L3.25245 9.59784Z" fill="white"/>
</svg>
