<svg width="37" height="38" viewBox="0 0 37 38" fill="none" xmlns="http://www.w3.org/2000/svg">
<path d="M5.97135 13.2197H18.5938C18.8149 14.3088 19.4058 15.2879 20.2662 15.9912C21.1267 16.6945 22.2038 17.0787 23.3151 17.0787C24.4264 17.0787 25.5035 16.6945 26.364 15.9912C27.2245 15.2879 27.8153 14.3088 28.0365 13.2197H31.0234C31.279 13.2197 31.5241 13.1182 31.7048 12.9375C31.8855 12.7568 31.987 12.5117 31.987 12.2561C31.987 12.0006 31.8855 11.7555 31.7048 11.5748C31.5241 11.3941 31.279 11.2926 31.0234 11.2926H28.0365C27.8153 10.2035 27.2245 9.22437 26.364 8.52108C25.5035 7.81779 24.4264 7.43359 23.3151 7.43359C22.2038 7.43359 21.1267 7.81779 20.2662 8.52108C19.4058 9.22437 18.8149 10.2035 18.5938 11.2926H5.97135C5.71581 11.2926 5.47073 11.3941 5.29003 11.5748C5.10933 11.7555 5.00781 12.0006 5.00781 12.2561C5.00781 12.5117 5.10933 12.7568 5.29003 12.9375C5.47073 13.1182 5.71581 13.2197 5.97135 13.2197ZM23.3151 9.36551C23.8868 9.36551 24.4457 9.53504 24.921 9.85267C25.3964 10.1703 25.7669 10.6217 25.9857 11.1499C26.2045 11.6781 26.2617 12.2593 26.1502 12.8201C26.0387 13.3808 25.7633 13.8959 25.3591 14.3001C24.9548 14.7044 24.4398 14.9797 23.879 15.0912C23.3183 15.2027 22.7371 15.1455 22.2089 14.9267C21.6807 14.7079 21.2293 14.3374 20.9116 13.8621C20.594 13.3867 20.4245 12.8278 20.4245 12.2561C20.4245 11.4895 20.729 10.7542 21.2711 10.2122C21.8132 9.67005 22.5485 9.36551 23.3151 9.36551ZM31.0234 24.7822H18.401C18.1799 23.6931 17.589 22.714 16.7286 22.0107C15.8681 21.3074 14.791 20.9232 13.6797 20.9232C12.5684 20.9232 11.4912 21.3074 10.6308 22.0107C9.77034 22.714 9.17948 23.6931 8.95833 24.7822H5.97135C5.71581 24.7822 5.47073 24.8837 5.29003 25.0644C5.10933 25.2451 5.00781 25.4902 5.00781 25.7457C5.00781 26.0013 5.10933 26.2463 5.29003 26.427C5.47073 26.6077 5.71581 26.7093 5.97135 26.7093H8.95833C9.17948 27.7983 9.77034 28.7775 10.6308 29.4808C11.4912 30.1841 12.5684 30.5683 13.6797 30.5683C14.791 30.5683 15.8681 30.1841 16.7286 29.4808C17.589 28.7775 18.1799 27.7983 18.401 26.7093H31.0234C31.279 26.7093 31.5241 26.6077 31.7048 26.427C31.8855 26.2463 31.987 26.0013 31.987 25.7457C31.987 25.4902 31.8855 25.2451 31.7048 25.0644C31.5241 24.8837 31.279 24.7822 31.0234 24.7822ZM13.6797 28.6363C13.108 28.6363 12.5491 28.4668 12.0737 28.1492C11.5984 27.8316 11.2279 27.3801 11.0091 26.8519C10.7903 26.3237 10.7331 25.7425 10.8446 25.1818C10.9561 24.6211 11.2314 24.106 11.6357 23.7017C12.04 23.2975 12.555 23.0222 13.1158 22.9106C13.6765 22.7991 14.2577 22.8563 14.7859 23.0751C15.3141 23.2939 15.7655 23.6644 16.0832 24.1398C16.4008 24.6151 16.5703 25.174 16.5703 25.7457C16.5703 26.5124 16.2658 27.2476 15.7237 27.7897C15.1816 28.3318 14.4463 28.6363 13.6797 28.6363Z" fill="black"/>
</svg>
