<svg width="27" height="26" viewBox="0 0 27 26" fill="none" xmlns="http://www.w3.org/2000/svg">
<path d="M18.1804 17.18C16.1589 19.1097 14.0977 20.5144 13.5045 20.9049C12.9079 20.511 10.847 19.1068 8.82584 17.1785C7.67549 16.081 6.55125 14.8262 5.7174 13.5036C4.88148 12.1778 4.35938 10.8187 4.35938 9.50279C4.35938 7.05799 6.43034 5.03711 9.01604 5.03711C10.7005 5.03711 12.2557 5.92664 13.0714 7.31175L13.5027 8.04426L13.9333 7.31131C14.7489 5.92311 16.3001 5.03711 17.9847 5.03711C20.5744 5.03711 22.6451 7.05822 22.6451 9.50279C22.6451 10.8188 22.1232 12.1781 21.2876 13.5043C20.4541 14.8271 19.3303 16.0823 18.1804 17.18Z" stroke="#295365"/>
</svg>
