<svg width="18" height="22" viewBox="0 0 18 22" fill="none" xmlns="http://www.w3.org/2000/svg">
<g clip-path="url(#clip0_75_5492)">
<path d="M8.51455 22.0013C11.6021 22.0013 14.2766 20.7388 15.5948 18.896C21.2489 12.4749 15.1569 4.47371 15.1569 4.47371C16.6167 10.1804 8.44156 9.83466 11.7875 6.28303C15.1335 2.7314 11.5072 0 11.5072 0C13.843 3.364 7.48535 1.77582 5.93499 4.29546C4.13499 7.2212 4.62112 11.317 2.93353 11.711C1.24594 12.105 1.45761 9.92446 1.45761 9.92446C-2.53217 17.1617 2.93353 20.3595 2.93353 20.3595C4.37003 21.3741 6.34083 22.0013 8.51601 22.0013" fill="#FF3A03"/>
<path d="M8.85564 21.7387C12.5359 21.7387 15.5199 19.2994 15.5199 16.2919C15.5192 15.6397 15.3773 14.9942 15.1024 14.3928C15.1024 14.3928 13.8863 16.8709 10.2732 16.2919C6.47754 15.6821 6.62352 9.86816 6.62352 9.86816C6.48775 11.0369 6.18556 12.5902 5.96659 13.7549C5.8206 14.5094 5.38265 15.8617 4.41768 16.0909C3.45272 16.3201 2.86002 15.4797 2.65564 14.7506C2.62681 14.6478 2.60439 14.5436 2.58849 14.4384C2.32621 15.0267 2.19133 15.6563 2.19141 16.2919C2.19141 19.2994 5.17535 21.7387 8.85564 21.7387Z" fill="#FBB700"/>
<path d="M8.85145 21.3661C11.0047 21.3661 12.7507 19.9401 12.7507 18.1803C12.7508 17.8607 12.6915 17.5435 12.5755 17.2422C11.8266 18.0463 10.7201 18.6427 9.57846 18.5355C8.59305 18.443 7.99305 17.8654 7.53466 17.1631C7.37992 17.8332 7.08794 18.5033 6.42079 18.7365C5.83685 18.9416 5.3405 18.7298 4.96094 18.3666C5.08065 20.0379 6.77699 21.3621 8.85145 21.3621" fill="#FFDFAB"/>
</g>
<defs>
<clipPath id="clip0_75_5492">
<rect width="18" height="22" fill="white"/>
</clipPath>
</defs>
</svg>
