<svg width="25" height="21" viewBox="0 0 25 21" fill="none" xmlns="http://www.w3.org/2000/svg">
<path fill-rule="evenodd" clip-rule="evenodd" d="M4.62447 10.6332V18.536C4.62447 19.3433 5.28152 20 6.08748 20H9.15045C9.13854 19.9661 9.13259 19.9295 9.13259 19.8916V13.8949C9.13259 13.3685 9.56137 12.9403 10.0874 12.9403H14.2382C14.7642 12.9403 15.193 13.3685 15.193 13.8949V19.8916C15.193 19.9295 15.1871 19.966 15.1752 20H18.2381C19.0441 20 19.7011 19.3433 19.7011 18.536V10.6332L12.1618 3.90383L4.62447 10.6332ZM12.3881 3.19676C12.3246 3.13939 12.2432 3.11081 12.1618 3.11081C12.0824 3.11081 12.001 3.13939 11.9375 3.19676L3.86023 10.4077C3.64185 10.6015 3.35999 10.6975 3.0642 10.6791C2.76047 10.6596 2.48258 10.5231 2.28409 10.2944L2.27019 10.2775C1.8692 9.81695 1.92081 9.1079 2.38333 8.69658L12.1618 0L21.9423 8.69662C22.4048 9.10794 22.4564 9.81699 22.0554 10.2775L22.0415 10.2944C21.843 10.5231 21.5651 10.6597 21.2614 10.6791C20.9656 10.6976 20.6837 10.6015 20.4653 10.4078L12.3881 3.19676Z" fill="#295365"/>
</svg>
