<svg width="35" height="35" viewBox="0 0 35 35" fill="none" xmlns="http://www.w3.org/2000/svg">
    <path
        d="M16.2308 14.9615H17.5V26.3846H18.7692M34 17.5C34 21.8761 32.2616 26.0729 29.1673 29.1673C26.0729 32.2616 21.8761 34 17.5 34C13.1239 34 8.92709 32.2616 5.83274 29.1673C2.73839 26.0729 1 21.8761 1 17.5C1 13.1239 2.73839 8.92709 5.83274 5.83274C8.92709 2.73839 13.1239 1 17.5 1C21.8761 1 26.0729 2.73839 29.1673 5.83274C32.2616 8.92709 34 13.1239 34 17.5Z"
        stroke="#3EBEC4" stroke-width="2" stroke-linecap="round" stroke-linejoin="round" />
    <path
        d="M18.7689 9.2497C18.7689 9.58632 18.6352 9.90915 18.3972 10.1472C18.1592 10.3852 17.8363 10.5189 17.4997 10.5189C17.1631 10.5189 16.8402 10.3852 16.6022 10.1472C16.3642 9.90915 16.2305 9.58632 16.2305 9.2497C16.2305 8.91308 16.3642 8.59025 16.6022 8.35222C16.8402 8.11419 17.1631 7.98047 17.4997 7.98047C17.8363 7.98047 18.1592 8.11419 18.3972 8.35222C18.6352 8.59025 18.7689 8.91308 18.7689 9.2497Z"
        fill="black" stroke="#3EBEC4" />
</svg>
    