<svg width="18" height="18" viewBox="0 0 18 18" fill="none" xmlns="http://www.w3.org/2000/svg">
<path d="M8.99824 0C5.03386 0 1.80859 3.13852 1.80859 6.99637C1.80859 7.03744 1.80859 7.08716 1.81051 7.14206C1.81062 7.16467 1.81118 7.18684 1.81208 7.20878C1.83717 8.04184 2.01087 8.8497 2.32891 9.61391V9.64687L2.32981 9.64856V9.65655L2.45693 9.90067C2.53107 10.0432 2.61443 10.1838 2.70443 10.3186C2.96374 10.7062 3.34647 11.2241 3.84237 11.8585L3.89727 11.9288L3.89929 11.9306C5.31466 13.7352 7.32571 16.0831 8.13211 17.0174L8.98024 18L9.83243 17.021C10.6547 16.0764 12.7222 13.682 14.1574 11.8566C14.6554 11.2246 15.0236 10.7302 15.2823 10.3466C15.3551 10.2385 15.4237 10.126 15.4861 10.0119L15.5003 9.98606L15.5131 9.95951C15.925 9.10451 16.1508 8.1891 16.1843 7.23859L16.185 7.21879V7.21451C16.1873 7.14791 16.1886 7.07636 16.1886 6.99637C16.1886 3.13852 12.963 0 8.99824 0ZM15.06 7.1928V7.19887C15.0314 8.00966 14.8338 8.77725 14.4995 9.47126C14.453 9.55609 14.403 9.63832 14.3493 9.71786C14.091 10.1013 13.7128 10.6031 13.273 11.1612C11.8293 12.9975 9.71599 15.4412 8.98396 16.2823C8.25721 15.4404 6.16898 13.007 4.73056 11.1673C4.72966 11.1664 4.72966 11.1664 4.72876 11.1656C4.28359 10.5963 3.90098 10.0839 3.63998 9.69368C3.57293 9.59332 3.51117 9.48949 3.45492 9.38126C3.45492 9.38036 3.45402 9.37957 3.45402 9.37867C3.14116 8.6994 2.95879 7.95172 2.93641 7.16512C2.93551 7.14949 2.93551 7.13396 2.93551 7.11754C2.93371 7.07771 2.93371 7.0371 2.93371 6.99637C2.93359 3.7539 5.64856 1.125 8.99824 1.125C12.3478 1.125 15.0636 3.7539 15.0636 6.99637C15.0636 7.06219 15.0627 7.12789 15.06 7.1928Z" fill="#3EBEC4"/>
<path d="M9 3.92188C7.29405 3.92188 5.90625 5.30967 5.90625 7.01562C5.90625 8.72157 7.29405 10.1094 9 10.1094C10.7059 10.1094 12.0938 8.72157 12.0938 7.01562C12.0938 5.30979 10.7059 3.92188 9 3.92188ZM9 8.98438C7.91269 8.98438 7.03125 8.10294 7.03125 7.01562C7.03125 5.92831 7.91269 5.04688 9 5.04688C10.0873 5.04688 10.9688 5.92831 10.9688 7.01562C10.9688 8.10294 10.0873 8.98438 9 8.98438Z" fill="#3EBEC4"/>
</svg>
