<svg width="18" height="21" viewBox="0 0 18 21" fill="none" xmlns="http://www.w3.org/2000/svg">
<path d="M4.91575 3.27793C5.56529 2.2263 6.59544 1.46573 7.79169 1.15459C8.98795 0.843451 10.2581 1.00571 11.3377 1.60759C12.4173 2.20947 13.2232 3.20458 13.5875 4.38573C13.9518 5.56688 13.8465 6.84303 13.2935 7.94848L9.25111 16.033C9.22776 16.0798 9.19185 16.1191 9.14741 16.1465C9.10297 16.174 9.05175 16.1886 8.9995 16.1886C8.94725 16.1886 8.89603 16.174 8.85159 16.1465C8.80715 16.1191 8.77124 16.0798 8.74789 16.033L4.70549 7.94848C4.33676 7.21738 4.16242 6.40367 4.19924 5.58568C4.23607 4.76769 4.48282 3.97294 4.91575 3.27793ZM8.9995 8.48375C9.5879 8.4782 10.1615 8.29865 10.6481 7.96771C11.1346 7.63677 11.5123 7.16924 11.7337 6.62402C11.955 6.07881 12.0101 5.48028 11.8919 4.90384C11.7737 4.3274 11.4875 3.79883 11.0695 3.3847C10.6515 2.97057 10.1202 2.68942 9.54272 2.57665C8.9652 2.46387 8.36721 2.52453 7.8241 2.75098C7.28098 2.97743 6.81703 3.35953 6.49067 3.84917C6.16431 4.33881 5.99015 4.91407 5.99012 5.5025C5.99468 6.29665 6.31409 7.05656 6.87828 7.61547C7.44247 8.17439 8.20534 8.48666 8.9995 8.48375Z" fill="#6D6D6D"/>
</svg>
