<svg width="22" height="22" viewBox="0 0 22 22" fill="none" xmlns="http://www.w3.org/2000/svg">
    <path
        d="M11.6868 6.4165C11.6868 6.23417 11.6144 6.0593 11.4855 5.93037C11.3566 5.80144 11.1817 5.729 10.9993 5.729C10.817 5.729 10.6421 5.80144 10.5132 5.93037C10.3843 6.0593 10.3118 6.23417 10.3118 6.4165V10.3123H6.41602C6.23368 10.3123 6.05881 10.3848 5.92988 10.5137C5.80095 10.6426 5.72852 10.8175 5.72852 10.9998C5.72852 11.1822 5.80095 11.357 5.92988 11.486C6.05881 11.6149 6.23368 11.6873 6.41602 11.6873H10.3118V15.5832C10.3118 15.7655 10.3843 15.9404 10.5132 16.0693C10.6421 16.1982 10.817 16.2707 10.9993 16.2707C11.1817 16.2707 11.3566 16.1982 11.4855 16.0693C11.6144 15.9404 11.6868 15.7655 11.6868 15.5832V11.6873H15.5827C15.765 11.6873 15.9399 11.6149 16.0688 11.486C16.1978 11.357 16.2702 11.1822 16.2702 10.9998C16.2702 10.8175 16.1978 10.6426 16.0688 10.5137C15.9399 10.3848 15.765 10.3123 15.5827 10.3123H11.6868V6.4165Z"
        fill="black" />
</svg>
    