<svg width="26" height="26" viewBox="0 0 26 26" fill="none" xmlns="http://www.w3.org/2000/svg">
<g clip-path="url(#clip0_1_3897)">
<path fill-rule="evenodd" clip-rule="evenodd" d="M8.54258 8.42391L11.4926 8.42366C12.0787 8.42391 12.5546 8.89984 12.5548 9.48584C12.5546 10.0718 12.0787 10.5478 11.4926 10.548L7.48065 10.548C6.89415 10.5478 6.41872 10.0723 6.41847 9.48584L6.41847 5.47384C6.41872 4.88784 6.89465 4.41191 7.48065 4.41166C8.06665 4.41191 8.54258 4.88784 8.54283 5.47384L8.54258 8.42391Z" fill="#6D6D6D"/>
<path fill-rule="evenodd" clip-rule="evenodd" d="M5.72501 13.4456C5.82298 15.213 6.54653 16.9511 7.89552 18.3001C10.8035 21.208 15.5232 21.2099 18.4296 18.3035C21.336 15.3971 21.3341 10.6774 18.4262 7.76942C15.5189 4.86218 10.7993 4.8604 7.89288 7.76678C7.69508 7.96459 7.51108 8.16966 7.34009 8.3828C6.97398 8.84075 7.04872 9.50971 7.50638 9.87709C7.96412 10.2429 8.63404 10.1692 9.00015 9.71126C9.12216 9.55913 9.25342 9.41131 9.39541 9.26931C11.472 7.19274 14.8464 7.19379 16.9241 9.27146C19.0025 11.3499 19.0028 14.7236 16.9263 16.8002C14.8497 18.8767 11.476 18.8764 9.39756 16.798C8.434 15.8345 7.9168 14.5917 7.8473 13.3288C7.81526 12.7435 7.3132 12.294 6.72674 12.3264C6.14185 12.3588 5.69298 12.8603 5.72501 13.4456Z" fill="#6D6D6D"/>
</g>
<defs>
<clipPath id="clip0_1_3897">
<rect width="26" height="26" fill="white"/>
</clipPath>
</defs>
</svg>
