<svg width="18" height="18" viewBox="0 0 18 18" fill="none" xmlns="http://www.w3.org/2000/svg">
<path fill-rule="evenodd" clip-rule="evenodd" d="M8.0346 12.8572C5.3718 12.8572 3.21317 10.6986 3.21317 8.03582C3.21317 5.37302 5.3718 3.21439 8.0346 3.21439C10.6974 3.21439 12.856 5.37302 12.856 8.03582C12.856 10.6986 10.6974 12.8572 8.0346 12.8572ZM2.57031 8.03582C2.57031 5.01798 5.01676 2.57153 8.0346 2.57153C11.0524 2.57153 13.4989 5.01798 13.4989 8.03582C13.4989 9.42908 12.9774 10.7005 12.1191 11.6657L15.3333 14.88C15.4588 15.0055 15.4588 15.209 15.3333 15.3345C15.2078 15.4601 15.0043 15.4601 14.8787 15.3345L11.6645 12.1203C10.6993 12.9787 9.42786 13.5001 8.0346 13.5001C5.01676 13.5001 2.57031 11.0537 2.57031 8.03582Z" fill="#6D6D6D"/>
</svg>
