<svg width="27" height="26" viewBox="0 0 27 26" fill="none" xmlns="http://www.w3.org/2000/svg">
<path fill-rule="evenodd" clip-rule="evenodd" d="M18.2283 18.2429C18.115 18.1261 17.9601 18.0619 17.7998 18.0656C17.6402 18.0692 17.4882 18.14 17.3802 18.2623C16.8877 18.8166 16.3137 19.2941 15.6792 19.6742C15.5213 19.7686 15.4151 19.9332 15.3916 20.1196C15.3681 20.306 15.4298 20.493 15.5589 20.6256L18.3158 23.4682C18.6456 23.809 19.0935 24.0002 19.5607 24.0002C20.0279 24.0002 20.4757 23.809 20.8056 23.4682C21.136 23.1281 21.3215 22.6663 21.3215 22.1846C21.3215 21.7029 21.136 21.2411 20.8056 20.901L18.2283 18.2429Z" fill="white"/>
<path fill-rule="evenodd" clip-rule="evenodd" d="M18.3555 7.46786C18.2455 7.3298 18.0197 7.04395 17.8437 7.04395H10.3425C9.88159 7.04395 9.43981 7.22725 9.11441 7.55384C8.78843 7.87986 8.60547 8.32247 8.60547 8.78422V16.3254C8.60547 16.7872 8.78843 17.2298 9.11441 17.5558C9.43981 17.8824 9.88159 18.0657 10.3425 18.0657H17.9836C18.1498 18.0657 18.3078 17.9938 18.4178 17.869C19.698 16.4124 20.475 14.501 20.475 12.4098C20.475 10.4642 19.4793 8.8798 18.3555 7.46786ZM17.9402 8.20413H10.3425C10.189 8.20413 10.0414 8.26504 9.93312 8.37409C9.82427 8.48257 9.76348 8.6305 9.76348 8.78422V16.3254C9.76348 16.4791 9.82427 16.6271 9.93312 16.7355C10.0414 16.8446 10.189 16.9055 10.3425 16.9055H17.7149C18.716 15.6803 19.317 14.1147 19.317 12.4098C19.317 10.8366 18.8058 9.38171 17.9402 8.20413Z" fill="white"/>
<path fill-rule="evenodd" clip-rule="evenodd" d="M9.16547 10.4347H19.0672C19.3764 10.4347 19.6272 10.2448 19.6272 10.0108C19.6272 9.77683 19.3764 9.58691 19.0672 9.58691H9.16547C8.85632 9.58691 8.60547 9.77683 8.60547 10.0108C8.60547 10.2448 8.85632 10.4347 9.16547 10.4347Z" fill="white"/>
<path fill-rule="evenodd" clip-rule="evenodd" d="M11.9978 4.5C7.31813 4.5 3.51953 8.2986 3.51953 12.9783C3.51953 17.6579 7.31813 21.4565 11.9978 21.4565C16.6775 21.4565 20.4761 17.6579 20.4761 12.9783C20.4761 8.2986 16.6775 4.5 11.9978 4.5ZM11.9978 5.68946C16.0203 5.68946 19.2866 8.95577 19.2866 12.9783C19.2866 17.0008 16.0203 20.2671 11.9978 20.2671C7.9753 20.2671 4.70899 17.0008 4.70899 12.9783C4.70899 8.95577 7.9753 5.68946 11.9978 5.68946Z" fill="white"/>
<path fill-rule="evenodd" clip-rule="evenodd" d="M19.1599 10.4346H9.45312V17.2172H19.1599L20.0699 15.318L20.3732 13.6902C20.5516 12.3315 20.6681 11.0016 19.1599 10.4346ZM11.5765 15.8607H15.2165C15.5514 15.8607 15.8232 15.6176 15.8232 15.318C15.8232 15.0185 15.5514 14.7754 15.2165 14.7754H11.5765C11.2416 14.7754 10.9698 15.0185 10.9698 15.318C10.9698 15.6176 11.2416 15.8607 11.5765 15.8607ZM11.5765 13.1476H15.2165C15.5514 13.1476 15.8232 12.9045 15.8232 12.605C15.8232 12.3055 15.5514 12.0624 15.2165 12.0624H11.5765C11.2416 12.0624 10.9698 12.3055 10.9698 12.605C10.9698 12.9045 11.2416 13.1476 11.5765 13.1476Z" fill="white"/>
</svg>
