<svg width="32" height="32" viewBox="0 0 32 32" fill="none" xmlns="http://www.w3.org/2000/svg">
<path d="M21.7516 12.9356H19.51C19.8432 11.5145 20.2808 8.79292 19.2399 7.22936C18.8268 6.60892 18.2373 6.24748 17.4875 6.15511C17.4599 6.15172 17.4321 6.15063 17.4044 6.15186C16.6334 6.18573 16.0807 6.55186 15.7616 7.23979C15.5101 7.78204 15.4199 8.48392 15.3246 9.22692C15.1754 10.3882 15.0073 11.6968 14.2173 12.768L12.1048 12.9358H9.09462C8.62215 12.9363 8.16918 13.1242 7.83508 13.4583C7.50098 13.7924 7.31305 14.2454 7.3125 14.7179V22.6185C7.31305 23.091 7.50098 23.5439 7.83508 23.878C8.16918 24.2121 8.62215 24.4 9.09462 24.4005H12.1087C12.7 24.4397 13.2122 24.7287 13.7544 25.0347C14.4302 25.4159 15.1961 25.8481 16.219 25.8481C17.06 25.8481 17.901 25.8479 18.7421 25.8474C19.7452 25.8469 20.7483 25.8467 21.7515 25.8467H21.7519C22.5296 25.8447 23.2748 25.5349 23.8247 24.985C24.3745 24.4351 24.6843 23.6899 24.6861 22.9122V15.8701C24.6852 15.0921 24.3758 14.3462 23.8256 13.7961C23.2755 13.2459 22.5296 12.9365 21.7516 12.9356ZM8.3125 22.6185V14.7177C8.31275 14.5103 8.39523 14.3115 8.54186 14.1649C8.68848 14.0183 8.88727 13.9358 9.09462 13.9356H10.7063V23.4007H9.09462C8.88724 23.4005 8.68842 23.318 8.54179 23.1714C8.39516 23.0247 8.3127 22.8259 8.3125 22.6185ZM23.6861 22.9122C23.6843 23.4247 23.4799 23.9156 23.1176 24.278C22.7553 24.6404 22.2644 24.8448 21.7519 24.8467C20.7486 24.8467 19.7452 24.847 18.7419 24.8474C17.901 24.8478 17.0601 24.848 16.2193 24.8482C15.459 24.8482 14.8698 24.5157 14.2461 24.1637C13.6247 23.8132 12.9823 23.4507 12.1543 23.4012C12.1444 23.4007 12.1345 23.4004 12.1246 23.4004H11.7065V13.9356H12.1243C12.1376 13.9356 12.1508 13.9351 12.1639 13.934L14.5161 13.7472C14.5833 13.7418 14.6486 13.723 14.7083 13.6918C14.768 13.6605 14.8207 13.6176 14.8634 13.5655C15.9452 12.244 16.1509 10.6417 16.3164 9.35411C16.5188 7.77823 16.6594 7.20561 17.4069 7.15304C17.6099 7.17755 17.805 7.24679 17.978 7.35577C18.151 7.46476 18.2977 7.61077 18.4074 7.78329C19.1994 8.97298 18.8899 11.4989 18.3842 13.3005C18.3634 13.3748 18.36 13.4529 18.3744 13.5288C18.3888 13.6046 18.4205 13.6761 18.4671 13.7376C18.5137 13.7991 18.574 13.849 18.6431 13.8833C18.7122 13.9177 18.7883 13.9356 18.8655 13.9356H21.7514C22.2643 13.9362 22.7561 14.1402 23.1187 14.5028C23.4814 14.8655 23.6854 15.3572 23.686 15.8701L23.6861 22.9122Z" fill="#3EBEC4"/>
</svg>
