<svg width="32" height="32" viewBox="0 0 32 32" fill="none" xmlns="http://www.w3.org/2000/svg">
<path d="M10.2484 19.0644H12.49C12.1568 20.4855 11.7192 23.2071 12.7601 24.7706C13.1732 25.3911 13.7627 25.7525 14.5125 25.8449C14.5401 25.8483 14.5679 25.8494 14.5956 25.8481C15.3666 25.8143 15.9193 25.4481 16.2384 24.7602C16.4899 24.218 16.5801 23.5161 16.6754 22.7731C16.8246 21.6118 16.9927 20.3032 17.7827 19.232L19.8952 19.0642H22.9054C23.3779 19.0637 23.8308 18.8758 24.1649 18.5417C24.499 18.2076 24.687 17.7546 24.6875 17.2821L24.6875 9.38152C24.687 8.90905 24.499 8.45608 24.1649 8.12199C23.8308 7.78791 23.3779 7.59999 22.9054 7.59946H19.8913C19.3 7.56033 18.7878 7.27127 18.2456 6.96533C17.5698 6.58408 16.8039 6.1519 15.781 6.1519C14.94 6.1519 14.099 6.15215 13.2579 6.15265C12.2548 6.1531 11.2517 6.15333 10.2485 6.15333H10.2481C9.47042 6.15527 8.72518 6.46506 8.17532 7.01496C7.62547 7.56486 7.31574 8.31013 7.31387 9.08777L7.31387 16.1299C7.31477 16.9079 7.62423 17.6538 8.17438 18.2039C8.72452 18.7541 9.47042 19.0635 10.2484 19.0644ZM23.6875 9.38152L23.6875 17.2823C23.6873 17.4897 23.6048 17.6885 23.4581 17.8351C23.3115 17.9817 23.1127 18.0642 22.9054 18.0644H21.2937L21.2937 8.59927H22.9054C23.1128 8.5995 23.3116 8.682 23.4582 8.82865C23.6048 8.9753 23.6873 9.17414 23.6875 9.38152ZM8.31387 9.08777C8.3157 8.57533 8.52006 8.08439 8.88239 7.722C9.24471 7.35962 9.73562 7.15518 10.2481 7.15327C11.2514 7.15327 12.2548 7.15304 13.2581 7.15258C14.099 7.15221 14.9399 7.15196 15.7807 7.15183C16.541 7.15183 17.1302 7.48427 17.7539 7.83627C18.3753 8.18683 19.0177 8.54933 19.8457 8.59877C19.8556 8.59933 19.8655 8.59965 19.8754 8.59965H20.2935V18.0644H19.8757C19.8624 18.0644 19.8492 18.0649 19.8361 18.066L17.4839 18.2528C17.4167 18.2582 17.3514 18.277 17.2917 18.3082C17.232 18.3395 17.1793 18.3824 17.1366 18.4345C16.0548 19.756 15.8491 21.3583 15.6836 22.6459C15.4812 24.2218 15.3406 24.7944 14.5931 24.847C14.3901 24.8225 14.195 24.7532 14.022 24.6442C13.849 24.5352 13.7023 24.3892 13.5926 24.2167C12.8006 23.027 13.1101 20.5011 13.6158 18.6995C13.6366 18.6252 13.64 18.5471 13.6256 18.4712C13.6112 18.3954 13.5795 18.3239 13.5329 18.2624C13.4863 18.2009 13.426 18.151 13.3569 18.1167C13.2878 18.0823 13.2117 18.0644 13.1345 18.0644H10.2486C9.73567 18.0638 9.24394 17.8598 8.88126 17.4972C8.51859 17.1345 8.31458 16.6428 8.314 16.1299L8.31387 9.08777Z" fill="#1C1C1E"/>
</svg>
