<svg width="15" height="18" viewBox="0 0 15 18" fill="none" xmlns="http://www.w3.org/2000/svg">
    <path
        d="M11.594 18.0006H3.47875C2.52006 18.0006 1.73989 17.2435 1.73989 16.3131L1.13477 2.24951H13.938L13.3323 16.3368C13.3329 17.2435 12.5527 18.0006 11.594 18.0006ZM2.34385 3.37451L2.89855 16.2895C2.89913 16.6236 3.1588 16.8756 3.47875 16.8756H11.594C11.914 16.8756 12.1736 16.6236 12.1736 16.3131L12.7289 3.37451H2.34385Z"
        fill="#3EBEC4" />
    <path d="M4.63867 5.62427H5.79791V14.6243H4.63867V5.62427Z" fill="#3EBEC4" />
    <path d="M6.95703 5.62427H8.11627V14.6243H6.95703V5.62427Z" fill="#3EBEC4" />
    <path d="M9.27539 5.62451H10.4346V14.6245H9.27539V5.62451Z" fill="#3EBEC4" />
    <path d="M0 2.24927H15V3.37427H0V2.24927Z" fill="#3EBEC4" />
    <path
        d="M11.014 2.81201H9.8548V1.12451H5.21784V2.81201H4.05859V-0.000488281H11.014V2.81201Z"
        fill="#3EBEC4" />
    
</svg>
    