<svg width="18" height="20" viewBox="0 0 18 20" fill="none" xmlns="http://www.w3.org/2000/svg">
<path d="M13.018 8.44661C13.4808 7.6875 13.7285 6.8138 13.7379 5.91146C13.7472 4.6224 13.2564 3.40017 12.3635 2.47396C11.466 1.54774 10.2787 1.03689 9.01651 1.02734C9.00716 1.02734 8.99782 1.02734 8.98847 1.02734C7.72164 1.02734 6.53429 1.52865 5.63676 2.44054C4.73456 3.3572 4.23438 4.57943 4.23438 5.88281C4.23438 6.7947 4.48213 7.68273 4.95427 8.45139C5.55729 9.43967 6.46417 10.151 7.51129 10.4996C7.53466 10.5043 7.55336 10.5139 7.57673 10.5187C7.80111 10.5903 8.03017 10.6428 8.2639 10.681C8.27325 10.681 8.27792 10.681 8.28727 10.6858C8.33402 10.6905 8.38077 10.7001 8.42751 10.7049C8.44154 10.7049 8.45556 10.7096 8.46958 10.7096C8.51165 10.7144 8.55373 10.7192 8.5958 10.7192C8.6145 10.7192 8.62852 10.724 8.64722 10.724C8.68929 10.7287 8.73136 10.7287 8.77343 10.7287H8.82018C8.87628 10.7287 8.93237 10.7335 8.98847 10.7335C9.04456 10.7335 9.10066 10.7335 9.15675 10.7287H9.2035C9.24557 10.7287 9.28764 10.724 9.32971 10.724C9.34841 10.724 9.36244 10.7192 9.38113 10.7192C9.42321 10.7144 9.46528 10.7096 9.50267 10.7096C9.5167 10.7096 9.53072 10.7049 9.54475 10.7049C9.59149 10.7001 9.63824 10.6953 9.68498 10.6858C9.69433 10.6858 9.69901 10.6858 9.70836 10.681C9.94209 10.6428 10.1711 10.5903 10.3955 10.5187C10.4189 10.5139 10.4376 10.5043 10.461 10.4996C11.5081 10.1463 12.415 9.4349 13.018 8.44661Z" fill="#1C9FA5"/>
<path d="M1.01481 16.7454C0.969048 16.9323 1.03145 17.1329 1.17289 17.2423C3.46091 19.0473 6.16909 20 9.00208 20C11.8309 20 14.5391 19.0473 16.8271 17.2423C16.9686 17.1329 17.031 16.9323 16.9852 16.7454C16.7855 15.9432 16.486 15.1728 16.0949 14.4572C14.9842 12.4379 12.7378 11.5262 10.6245 12.2419C10.1003 12.4197 9.55537 12.5108 9.00208 12.5108C8.4488 12.5108 7.90383 12.4197 7.37967 12.2419C6.8971 12.0778 6.40622 12.0003 5.92365 12.0003C4.29708 12.0003 2.76618 12.8983 1.90922 14.4572C1.50985 15.1728 1.21033 15.9432 1.01481 16.7454Z" fill="#1C9FA5"/>
</svg>
