<svg width="60" height="60" viewBox="0 0 60 60" fill="none" xmlns="http://www.w3.org/2000/svg">
    <g clip-path="url(#clip0_715_32262)">
        <path
            d="M33.8892 38.365C30.4306 39.7746 26.306 39.2856 22.6381 39.2856C22.3221 39.2895 22.0175 39.1681 21.7909 38.948C21.5643 38.7278 21.4341 38.4269 21.4289 38.111C21.4463 37.7771 21.5935 37.4633 21.8391 37.2364C22.0847 37.0096 22.4092 36.8877 22.7434 36.8967L24.9937 36.8744C25.1831 36.8725 25.364 36.7954 25.4966 36.6601C25.6293 36.5249 25.7027 36.3424 25.7008 36.153C25.6989 35.9635 25.6218 35.7826 25.4865 35.65C25.3512 35.5174 25.1688 35.4439 24.9794 35.4458C24.9794 35.4458 24.9549 35.4461 24.9461 35.4458L21.1254 35.479C20.7756 35.4806 20.4387 35.3467 20.1855 35.1053C20.0793 35.0008 19.995 34.8761 19.9378 34.7386C19.8806 34.6011 19.8515 34.4535 19.8522 34.3045C19.8697 33.9706 20.0169 33.6568 20.2625 33.43C20.5081 33.2031 20.8326 33.0812 21.1668 33.0903L24.8845 33.0569C25.0739 33.0553 25.255 32.9784 25.3877 32.8433C25.5205 32.7082 25.5942 32.5258 25.5925 32.3364C25.5888 32.1476 25.5113 31.9678 25.3766 31.8354C25.2419 31.7031 25.0608 31.6288 24.8719 31.6284L20.0784 31.6706C19.9048 31.6733 19.7324 31.6417 19.5711 31.5776C19.4098 31.5135 19.2628 31.4181 19.1385 31.2969C19.0323 31.1925 18.948 31.0678 18.8908 30.9303C18.8336 30.7928 18.8045 30.6452 18.8052 30.4963C18.8226 30.1625 18.9697 29.8488 19.2151 29.6219C19.4605 29.3951 19.7848 29.2731 20.1189 29.2819L24.9056 29.2397C24.9996 29.2389 25.0925 29.2196 25.179 29.1829C25.2655 29.1461 25.3439 29.0927 25.4097 29.0256C25.4755 28.9585 25.5275 28.879 25.5625 28.7918C25.5976 28.7046 25.6151 28.6114 25.614 28.5174C25.613 28.4234 25.5934 28.3305 25.5564 28.2441C25.5194 28.1577 25.4657 28.0795 25.3984 28.0139C25.3311 27.9483 25.2515 27.8966 25.1642 27.8618C25.0769 27.827 24.9836 27.8098 24.8896 27.8111L19.2154 27.8388H19.2035C18.5961 27.8388 17.923 27.4951 17.8625 26.853C17.7924 26.1064 18.4947 25.5799 19.1866 25.5748H26.6212C26.7271 25.5735 26.8313 25.5489 26.9267 25.5028C27.022 25.4567 27.1059 25.3902 27.1727 25.308C27.2394 25.2257 27.2872 25.1298 27.3126 25.0271C27.3381 24.9243 27.3407 24.8172 27.3201 24.7133L26.8099 22.2901C26.6409 21.4298 26.7503 20.5381 27.1222 19.7441C27.4942 18.9502 28.1093 18.2954 28.8785 17.8746C28.9228 17.8492 29.0312 17.8489 29.0476 17.9138L30.3248 23.0091C30.5172 23.7562 30.8731 24.4512 31.3668 25.044C31.8605 25.6368 32.4797 26.1126 33.1797 26.437C33.5347 26.6056 33.9121 26.7575 34.2984 26.9011C34.3238 26.4184 34.4311 25.9435 34.616 25.4968C34.3327 25.3867 34.0556 25.2714 33.7921 25.1464C33.2829 24.9121 32.832 24.5677 32.472 24.138C32.112 23.7084 31.8519 23.2041 31.7105 22.6617L30.4333 17.5664C30.3767 17.3416 30.2683 17.1331 30.1169 16.9575C29.9655 16.7819 29.7752 16.6441 29.5612 16.555C29.339 16.4605 29.098 16.4185 28.857 16.4321C28.6159 16.4457 28.3813 16.5146 28.1711 16.6335C27.1386 17.2035 26.3144 18.0877 25.8183 19.1577C25.3222 20.2278 25.1799 21.4281 25.412 22.5845L25.7409 24.1463H19.1814C17.6739 24.1463 16.2952 25.4417 16.4402 26.9868C16.4876 27.4156 16.6462 27.8246 16.9003 28.1732C17.1544 28.5218 17.4951 28.798 17.8888 28.9745C17.5618 29.4109 17.3824 29.9402 17.3766 30.4855C17.3739 30.8239 17.439 31.1594 17.568 31.4722C17.6971 31.785 17.8875 32.0688 18.1281 32.3068C18.35 32.5275 18.6089 32.7077 18.893 32.8391C18.5922 33.265 18.4285 33.7725 18.4237 34.2939C18.4209 34.6322 18.486 34.9677 18.6151 35.2805C18.7441 35.5933 18.9346 35.8771 19.1751 36.1151C19.5058 36.4453 19.9169 36.6834 20.3679 36.8057C20.1316 37.1965 20.0047 37.6436 20.0003 38.1003C20.0063 38.7932 20.2848 39.4558 20.7756 39.9449C21.2663 40.4341 21.9298 40.7104 22.6227 40.7142H22.6433C25.9785 40.7142 29.4685 41.0263 32.7404 40.2297C33.3941 40.0649 34.0349 39.8527 34.6578 39.5947C34.461 39.1526 34.3411 38.68 34.3034 38.1974C34.1737 38.2495 34.038 38.3044 33.8892 38.365Z"
            fill="#2D4356" />
        <path
            d="M39.2863 24.2858H38.572C37.8145 24.2866 37.0883 24.5879 36.5526 25.1235C36.017 25.6592 35.7157 26.3854 35.7148 27.1429V37.857C35.7157 38.6145 36.017 39.3408 36.5526 39.8764C37.0883 40.412 37.8145 40.7133 38.572 40.7142H39.2863C40.0438 40.7133 40.77 40.412 41.3056 39.8764C41.8412 39.3408 42.1425 38.6145 42.1434 37.857V27.1429C42.1425 26.3854 41.8412 25.6592 41.3056 25.1235C40.77 24.5879 40.0438 24.2866 39.2863 24.2858ZM40.7148 37.857C40.7144 38.2358 40.5638 38.5989 40.2959 38.8667C40.0281 39.1345 39.665 39.2852 39.2863 39.2856H38.572C38.1932 39.2852 37.8301 39.1345 37.5623 38.8667C37.2945 38.5989 37.1438 38.2358 37.1434 37.857V27.1429C37.1438 26.7641 37.2945 26.401 37.5623 26.1332C37.8301 25.8654 38.1932 25.7147 38.572 25.7143H39.2863C39.665 25.7147 40.0281 25.8654 40.2959 26.1332C40.5638 26.401 40.7144 26.7641 40.7148 27.1429V37.857Z"
            fill="#0BCEB2" />
        <path
            d="M29.9993 12.8573C26.4676 12.8573 23.0151 13.9047 20.0786 15.8668C17.1421 17.829 14.8533 20.6179 13.5018 23.8808C12.1503 27.1438 11.7967 30.7342 12.4857 34.1981C13.1748 37.662 14.8755 40.8438 17.3728 43.3411C19.8702 45.8384 23.052 47.5391 26.5159 48.2281C29.9798 48.9171 33.5702 48.5634 36.8331 47.2119C40.0961 45.8603 42.8849 43.5716 44.8471 40.635C46.8092 37.6985 47.8565 34.246 47.8565 30.7142C47.8511 25.9799 45.968 21.441 42.6203 18.0933C39.2726 14.7456 34.7337 12.8626 29.9993 12.8573ZM29.9993 47.1426C26.7501 47.1426 23.5739 46.1791 20.8723 44.3739C18.1707 42.5687 16.065 40.0029 14.8216 37.001C13.5782 33.9991 13.2529 30.6959 13.8868 27.5091C14.5207 24.3223 16.0854 21.3951 18.383 19.0976C20.6805 16.8 23.6078 15.2354 26.7946 14.6015C29.9814 13.9676 33.2845 14.293 36.2864 15.5364C39.2883 16.7798 41.8541 18.8855 43.6592 21.5871C45.4644 24.2888 46.4279 27.465 46.4279 30.7142C46.4229 35.0698 44.6905 39.2456 41.6106 42.3254C38.5307 45.4053 34.3549 47.1377 29.9993 47.1426Z"
            fill="#0BCEB2" />
        <path
            d="M0.714286 54.2857C1.10877 54.2857 1.42857 53.966 1.42857 53.5715C1.42857 53.177 1.10877 52.8572 0.714286 52.8572C0.319797 52.8572 0 53.177 0 53.5715C0 53.966 0.319797 54.2857 0.714286 54.2857Z"
            fill="#2D4356" />
        <path
            d="M3.92829 52.8572H2.85686C2.66742 52.8572 2.48574 52.9324 2.35179 53.0664C2.21783 53.2003 2.14258 53.382 2.14258 53.5715C2.14258 53.7609 2.21783 53.9426 2.35179 54.0765C2.48574 54.2105 2.66742 54.2857 2.85686 54.2857H3.92829C4.11773 54.2857 4.29941 54.2105 4.43337 54.0765C4.56732 53.9426 4.64258 53.7609 4.64258 53.5715C4.64258 53.382 4.56732 53.2003 4.43337 53.0664C4.29941 52.9324 4.11773 52.8572 3.92829 52.8572Z"
            fill="#2D4356" />
        <path
            d="M57.1431 52.8572H56.0717C55.8823 52.8572 55.7006 52.9324 55.5666 53.0664C55.4327 53.2003 55.3574 53.382 55.3574 53.5715C55.3574 53.7609 55.4327 53.9426 55.5666 54.0765C55.7006 54.2105 55.8823 54.2857 56.0717 54.2857H57.1431C57.3326 54.2857 57.5143 54.2105 57.6482 54.0765C57.7822 53.9426 57.8574 53.7609 57.8574 53.5715C57.8574 53.382 57.7822 53.2003 57.6482 53.0664C57.5143 52.9324 57.3326 52.8572 57.1431 52.8572Z"
            fill="#2D4356" />
        <path
            d="M59.2866 54.2857C59.681 54.2857 60.0008 53.966 60.0008 53.5715C60.0008 53.177 59.681 52.8572 59.2866 52.8572C58.8921 52.8572 58.5723 53.177 58.5723 53.5715C58.5723 53.966 58.8921 54.2857 59.2866 54.2857Z"
            fill="#2D4356" />
        <path
            d="M42.1987 55.7142H39.2316C39.052 55.7286 38.8845 55.8101 38.7623 55.9425C38.6401 56.0748 38.5723 56.2484 38.5723 56.4285C38.5723 56.6087 38.6401 56.7822 38.7623 56.9146C38.8845 57.0469 39.052 57.1284 39.2316 57.1428H42.1987C42.3782 57.1284 42.5458 57.0469 42.668 56.9146C42.7902 56.7822 42.858 56.6087 42.858 56.4285C42.858 56.2484 42.7902 56.0748 42.668 55.9425C42.5458 55.8101 42.3782 55.7286 42.1987 55.7142Z"
            fill="#0BCEB2" />
        <path
            d="M20.769 55.7142H17.8019C17.6224 55.7286 17.4548 55.8101 17.3326 55.9425C17.2104 56.0748 17.1426 56.2484 17.1426 56.4285C17.1426 56.6087 17.2104 56.7822 17.3326 56.9146C17.4548 57.0469 17.6224 57.1284 17.8019 57.1428H20.769C20.9485 57.1284 21.1161 57.0469 21.2383 56.9146C21.3605 56.7822 21.4283 56.6087 21.4283 56.4285C21.4283 56.2484 21.3605 56.0748 21.2383 55.9425C21.1161 55.8101 20.9485 55.7286 20.769 55.7142Z"
            fill="#0BCEB2" />
        <path
            d="M37.1426 55.7142H22.8569C22.6674 55.7142 22.4857 55.7895 22.3518 55.9234C22.2178 56.0574 22.1426 56.2391 22.1426 56.4285C22.1426 56.618 22.2178 56.7996 22.3518 56.9336C22.4857 57.0676 22.6674 57.1428 22.8569 57.1428H28.5497V57.8571H25.714C25.5246 57.8571 25.3429 57.9323 25.2089 58.0663C25.075 58.2003 24.9997 58.3819 24.9997 58.5714C24.9997 58.7608 25.075 58.9425 25.2089 59.0765C25.3429 59.2104 25.5246 59.2857 25.714 59.2857H34.6426C34.832 59.2857 35.0137 59.2104 35.1477 59.0765C35.2816 58.9425 35.3569 58.7608 35.3569 58.5714C35.3569 58.3819 35.2816 58.2003 35.1477 58.0663C35.0137 57.9323 34.832 57.8571 34.6426 57.8571H31.4497V57.1428H37.1426C37.332 57.1428 37.5137 57.0676 37.6477 56.9336C37.7816 56.7996 37.8569 56.618 37.8569 56.4285C37.8569 56.2391 37.7816 56.0574 37.6477 55.9234C37.5137 55.7895 37.332 55.7142 37.1426 55.7142Z"
            fill="#0BCEB2" />
        <path
            d="M53.8292 52.8571H33.9903C34.142 52.7033 34.2844 52.5409 34.42 52.3838C34.6496 52.1175 34.9644 51.7527 35.1418 51.7087C35.4798 51.7303 35.81 51.8197 36.1127 51.9717C36.7325 52.216 37.4349 52.4933 38.1091 52.2354C38.7889 51.9757 39.1336 51.2958 39.4378 50.6961C39.5625 50.384 39.7477 50.0996 39.9827 49.8594C40.314 49.7991 40.6541 49.8062 40.9826 49.8801C41.6439 49.9677 42.3938 50.0667 42.9879 49.6526C43.5827 49.2384 43.7554 48.4976 43.9076 47.844C43.9548 47.5086 44.0682 47.1858 44.2412 46.8945C44.5477 46.7572 44.8786 46.6828 45.2143 46.6758C45.878 46.6017 46.6303 46.5178 47.1102 45.9727C47.5879 45.4302 47.5805 44.6711 47.5739 44.0013C47.5403 43.6622 47.5747 43.3197 47.6751 42.994C47.9397 42.7878 48.2428 42.6366 48.5667 42.5492C49.1945 42.3176 49.9061 42.0553 50.2434 41.4096C50.5772 40.7701 50.3901 40.0363 50.2248 39.3888C50.1109 39.0657 50.063 38.723 50.0838 38.3811C50.1499 38.2053 50.5491 37.9341 50.8405 37.736C51.3958 37.3588 52.0249 36.9312 52.1983 36.221C52.3687 35.5227 52.0124 34.8574 51.6981 34.2706C51.5075 33.9834 51.3784 33.6598 51.3189 33.3203C51.4571 33.017 51.6537 32.744 51.8975 32.5167C52.3474 32.0157 52.8573 31.4479 52.8573 30.7143C52.8573 29.9806 52.3474 29.4128 51.8975 28.9118C51.6538 28.6846 51.4572 28.4116 51.3189 28.1084C51.3783 27.7689 51.5074 27.4453 51.698 27.1581C52.0124 26.5711 52.3687 25.906 52.1983 25.2079C52.0251 24.4975 51.3959 24.0699 50.8407 23.6927C50.5493 23.4948 50.1501 23.2236 50.084 23.0478C50.0631 22.7059 50.1111 22.3633 50.2251 22.0402C50.3902 21.3927 50.5775 20.6589 50.2438 20.0195C49.9065 19.3737 49.1948 19.1114 48.567 18.88C48.2433 18.7926 47.9402 18.6414 47.6756 18.4353C47.5752 18.1096 47.5408 17.7671 47.5744 17.4279C47.5811 16.7583 47.5884 15.999 47.1107 15.4564C46.6308 14.9114 45.8787 14.8273 45.215 14.7534C44.8792 14.7462 44.5483 14.6718 44.2417 14.5345C44.0689 14.2432 43.9555 13.9205 43.9081 13.585C43.7559 12.9314 43.5833 12.1906 42.9884 11.7763C42.3939 11.3625 41.6443 11.4612 40.9832 11.5488C40.6545 11.6225 40.3144 11.6296 39.9831 11.5695C39.7482 11.3292 39.563 11.045 39.4383 10.733C39.1341 10.1331 38.7894 9.453 38.1094 9.19333C37.4353 8.93611 36.7328 9.21251 36.1129 9.457C35.8101 9.60879 35.4799 9.69822 35.1419 9.71998C34.9646 9.67605 34.65 9.31122 34.4201 9.04476C33.98 8.53451 33.4813 7.95609 32.7549 7.8682C32.0422 7.78136 31.4298 8.21869 30.8885 8.60356C30.6288 8.82623 30.3266 8.99383 30.0001 9.0962C29.6737 8.99383 29.3715 8.82622 29.1118 8.60355C28.5705 8.21833 27.9558 7.78187 27.2454 7.8682C26.5192 7.95608 26.0205 8.5345 25.5803 9.04476C25.3507 9.31105 25.0359 9.67586 24.8585 9.71981C24.5205 9.69818 24.1903 9.60875 23.8876 9.45683C23.2678 9.21234 22.565 8.93559 21.8912 9.19316C21.2114 9.45282 20.8667 10.1327 20.5625 10.7324C20.4378 11.0446 20.2526 11.3289 20.0176 11.5691C19.6862 11.6291 19.3462 11.6221 19.0177 11.5484C18.3564 11.4609 17.6067 11.362 17.0124 11.776C16.4176 12.1901 16.2449 12.9309 16.0927 13.5845C16.0455 13.92 15.9321 14.2427 15.7591 14.534C15.4526 14.6713 15.1217 14.7457 14.786 14.7527C14.1223 14.8268 13.37 14.9107 12.8901 15.4558C12.4124 15.9983 12.4198 16.7574 12.4264 17.4272C12.46 17.7664 12.4256 18.1088 12.3252 18.4345C12.0606 18.6407 11.7575 18.792 11.4336 18.8793C10.8058 19.1109 10.0941 19.3732 9.75689 20.0189C9.42311 20.6584 9.61023 21.3922 9.77555 22.0397C9.88942 22.3628 9.93733 22.7055 9.91645 23.0475C9.85036 23.2233 9.45119 23.4944 9.15979 23.6925C8.60454 24.0697 7.97536 24.4973 7.80202 25.2076C7.63164 25.9058 7.98792 26.5711 8.30216 27.1579C8.49277 27.4451 8.6219 27.7687 8.68144 28.1083C8.54317 28.4115 8.34656 28.6845 8.10283 28.9118C7.65291 29.4128 7.143 29.9806 7.143 30.7143C7.143 31.4479 7.65291 32.0157 8.10282 32.5167C8.3465 32.744 8.54311 33.017 8.68144 33.3201C8.62196 33.6596 8.49288 33.9832 8.30233 34.2705C7.98791 34.8575 7.63164 35.5226 7.80201 36.2206C7.97518 36.9311 8.60436 37.3587 9.15961 37.7358C9.45101 37.9338 9.85018 38.2049 9.91627 38.3807C9.93716 38.7226 9.88919 39.0653 9.7752 39.3883C9.61005 40.0358 9.42276 40.7696 9.75654 41.4091C10.0938 42.0548 10.8055 42.3171 11.4333 42.5485C11.757 42.6359 12.0601 42.7871 12.3247 42.9932C12.4251 43.3189 12.4595 43.6614 12.4259 44.0006C12.4192 44.6702 12.4119 45.4295 12.8896 45.9722C13.3695 46.5171 14.1216 46.6012 14.7853 46.6751C15.1211 46.6823 15.452 46.7567 15.7586 46.894C15.9314 47.1853 16.0448 47.508 16.0922 47.8435C16.2444 48.4971 16.417 49.2379 17.0119 49.6522C17.6064 50.066 18.356 49.9671 19.0171 49.8798C19.3458 49.8062 19.6858 49.7991 20.0172 49.859C20.2521 50.0993 20.4373 50.3836 20.562 50.6956C20.8662 51.2954 21.2109 51.9755 21.8908 52.2352C22.5647 52.4926 23.2675 52.216 23.8874 51.9715C24.1901 51.8195 24.5203 51.73 24.8584 51.7086C25.0357 51.7525 25.3503 52.1173 25.5801 52.3838C25.7157 52.5409 25.8582 52.7033 26.0098 52.8571H6.17111C6.06949 52.8439 5.96621 52.8524 5.86817 52.8822C5.77012 52.9121 5.67957 52.9624 5.60255 53.0301C5.52553 53.0977 5.46383 53.1809 5.42156 53.2743C5.37929 53.3676 5.35742 53.4689 5.35742 53.5714C5.35742 53.6739 5.37929 53.7752 5.42156 53.8685C5.46383 53.9619 5.52553 54.0452 5.60255 54.1128C5.67957 54.1804 5.77012 54.2308 5.86817 54.2606C5.96621 54.2904 6.06949 54.299 6.17111 54.2857H53.8292C53.9308 54.299 54.0341 54.2904 54.1321 54.2606C54.2302 54.2308 54.3207 54.1804 54.3977 54.1128C54.4748 54.0452 54.5365 53.9619 54.5787 53.8685C54.621 53.7752 54.6429 53.6739 54.6429 53.5714C54.6429 53.4689 54.621 53.3676 54.5787 53.2743C54.5365 53.1809 54.4748 53.0977 54.3977 53.0301C54.3207 52.9624 54.2302 52.9121 54.1321 52.8822C54.0341 52.8524 53.9308 52.8438 53.8292 52.8571ZM25.2014 50.3219C25.0681 50.2893 24.9314 50.2732 24.7942 50.2737C24.2986 50.3073 23.8136 50.4324 23.3635 50.6426C23.0618 50.7617 22.5566 50.9604 22.4007 50.9008C22.2358 50.8377 21.9953 50.3634 21.8363 50.0496C21.5621 49.5089 21.2514 48.8961 20.6858 48.5965C20.1147 48.2938 19.4322 48.3843 18.8302 48.4636C18.4868 48.5086 17.9677 48.577 17.8282 48.4798C17.6838 48.3792 17.5631 47.8618 17.4834 47.5193C17.3455 46.9273 17.189 46.2563 16.71 45.8285C16.2289 45.3988 15.546 45.3226 14.9436 45.2555C14.5984 45.2169 14.0766 45.1587 13.9619 45.0283C13.8457 44.8962 13.8509 44.3656 13.8543 44.0145C13.8602 43.4058 13.867 42.7157 13.5024 42.1845C13.1384 41.6544 12.4951 41.4173 11.9275 41.2082C11.6 41.0873 11.1049 40.9049 11.0229 40.7478C10.9422 40.5931 11.073 40.0806 11.1595 39.7414C11.3101 39.151 11.481 38.4815 11.2531 37.8769C11.0275 37.2777 10.4618 36.8934 9.96249 36.5542C9.67196 36.3568 9.23284 36.0584 9.18978 35.8821C9.14898 35.7151 9.3973 35.2517 9.56157 34.945C9.85 34.4065 10.177 33.7961 10.0999 33.1507C10.0244 32.5181 9.56819 32.0103 9.16571 31.5621C8.92908 31.2986 8.57158 30.9005 8.57158 30.7143C8.57158 30.528 8.92908 30.1299 9.16571 29.8664C9.56821 29.4183 10.0244 28.9104 10.0999 28.2776C10.177 27.6324 9.85 27.022 9.56157 26.4835C9.39728 26.1768 9.14897 25.7133 9.18978 25.5462C9.23285 25.3699 9.67196 25.0716 9.96266 24.874C10.4618 24.5348 11.0275 24.1504 11.2533 23.5513C11.4812 22.9465 11.3103 22.2772 11.1596 21.6866C11.0731 21.3474 10.9424 20.8349 11.0233 20.6802C11.1054 20.5231 11.6003 20.3405 11.9278 20.2198C12.4954 20.0106 13.1388 19.7734 13.5027 19.2433C13.8675 18.7123 13.8607 18.0222 13.8548 17.4133C13.8515 17.0622 13.8462 16.5316 13.9622 16.3998C14.0773 16.2691 14.5991 16.2111 14.9443 16.1725C15.5467 16.1054 16.2294 16.0294 16.7105 15.5997C17.1897 15.1719 17.3462 14.5007 17.4841 13.9085C17.5638 13.5662 17.6843 13.049 17.8285 12.9485C17.9682 12.8507 18.487 12.919 18.8307 12.9647C19.4327 13.0439 20.1149 13.1341 20.6862 12.8317C21.2519 12.5321 21.5626 11.9193 21.8368 11.3785C21.9958 11.0648 22.2363 10.5905 22.4011 10.5275C22.5563 10.4677 23.0622 10.6669 23.3637 10.7858C23.9303 11.0092 24.5727 11.2624 25.2016 11.1065C25.8206 10.9536 26.2678 10.4351 26.6622 9.97772C26.8922 9.71091 27.24 9.30772 27.4171 9.28629C27.5774 9.26624 28.0205 9.58013 28.2837 9.7676C28.7826 10.1225 29.3479 10.5248 30.0001 10.5248C30.6523 10.5248 31.2177 10.1225 31.7166 9.7676C31.9801 9.58013 32.4197 9.26781 32.5831 9.28629C32.7605 9.30774 33.1082 9.7111 33.3384 9.97772C33.7329 10.4351 34.1798 10.9536 34.7989 11.1067C35.4286 11.2619 36.0704 11.0092 36.6368 10.786C36.9388 10.667 37.4449 10.4695 37.5995 10.5277C37.7645 10.5908 38.005 11.0652 38.164 11.3789C38.4382 11.9197 38.7489 12.5324 39.3145 12.832C39.8857 13.1348 40.5681 13.0446 41.1701 12.9649C41.5133 12.9196 42.0319 12.8512 42.1721 12.9487C42.3165 13.0493 42.4372 13.5667 42.5169 13.9092C42.6548 14.5012 42.8112 15.1723 43.2903 15.6C43.7714 16.0297 44.4543 16.1059 45.0566 16.173C45.4019 16.2116 45.9237 16.2698 46.0384 16.4003C46.1546 16.5323 46.1493 17.0629 46.146 17.414C46.1401 18.0227 46.1333 18.7128 46.4979 19.244C46.8619 19.7741 47.5052 20.0113 48.0728 20.2203C48.4003 20.3412 48.8954 20.5236 48.9774 20.6807C49.0581 20.8354 48.9273 21.3479 48.8408 21.6871C48.6901 22.2776 48.5192 22.947 48.7472 23.5516C48.9728 24.1508 49.5385 24.5351 50.0378 24.8743C50.3283 25.0717 50.7674 25.3701 50.8105 25.5464C50.8513 25.7135 50.603 26.1768 50.4387 26.4835C50.1503 27.0221 49.8233 27.6324 49.9004 28.2778C49.9759 28.9105 50.4321 29.4183 50.8346 29.8664C51.0712 30.1299 51.4287 30.528 51.4287 30.7143C51.4287 30.9005 51.0712 31.2986 50.8346 31.5621C50.4321 32.0103 49.9759 32.5181 49.9004 33.1509C49.8233 33.7961 50.1503 34.4065 50.4387 34.945C50.603 35.2517 50.8513 35.7152 50.8105 35.8823C50.7674 36.0586 50.3283 36.357 50.0376 36.5546C49.5385 36.8937 48.9728 37.2781 48.747 37.8773C48.5191 38.482 48.69 39.1513 48.8406 39.7419C48.9271 40.0811 49.0579 40.5936 48.977 40.7483C48.8949 40.9054 48.4 41.088 48.0725 41.2087C47.5049 41.418 46.8615 41.6551 46.4976 42.1852C46.1328 42.7163 46.1396 43.4063 46.1455 44.0152C46.1488 44.3663 46.1541 44.8969 46.0381 45.0288C45.923 45.1594 45.4012 45.2175 45.056 45.256C44.4536 45.3231 43.7709 45.3992 43.2898 45.8288C42.8106 46.2566 42.6541 46.9278 42.5162 47.52C42.4365 47.8623 42.316 48.3796 42.1718 48.48C42.0312 48.5775 41.513 48.509 41.1696 48.4638C40.568 48.3846 39.8858 48.2945 39.3141 48.5969C38.7484 48.8965 38.4377 49.5092 38.1635 50.05C38.0045 50.3637 37.764 50.838 37.5992 50.901C37.4447 50.9601 36.9383 50.7617 36.6366 50.6427C36.0702 50.4195 35.4279 50.1667 34.7987 50.322C34.1797 50.475 33.7325 50.9934 33.3381 51.4508C33.1081 51.7176 32.7603 52.1208 32.5832 52.1422C32.2655 52.0404 31.971 51.8768 31.7166 51.6609C31.2177 51.3061 30.6524 50.9038 30.0002 50.9038C29.348 50.9038 28.7826 51.3061 28.2837 51.6609C28.0204 51.8484 27.5774 52.1619 27.4171 52.1422C27.2398 52.1208 26.8921 51.7174 26.6619 51.4508C26.2674 50.9934 25.8205 50.475 25.2014 50.3219ZM29.1118 52.825C29.3715 52.6023 29.6737 52.4347 30.0001 52.3323C30.3266 52.4347 30.6288 52.6023 30.8885 52.825C30.9034 52.8356 30.919 52.8465 30.934 52.8571H29.0663C29.0813 52.8464 29.0969 52.8356 29.1118 52.825Z"
            fill="#2D4356" />
        <path
            d="M24.3937 2.85709C24.6056 2.85709 24.8128 2.79425 24.9889 2.67652C25.1651 2.55879 25.3025 2.39146 25.3836 2.19568C25.4647 1.9999 25.4859 1.78447 25.4445 1.57664C25.4032 1.3688 25.3012 1.17789 25.1513 1.02805C25.0015 0.878206 24.8106 0.776162 24.6027 0.734821C24.3949 0.69348 24.1795 0.714698 23.9837 0.795792C23.7879 0.876885 23.6206 1.01421 23.5028 1.19041C23.3851 1.3666 23.3223 1.57375 23.3223 1.78566C23.3226 2.06972 23.4356 2.34206 23.6364 2.54292C23.8373 2.74378 24.1096 2.85677 24.3937 2.85709ZM24.3937 1.24995C24.4996 1.24995 24.6032 1.28137 24.6913 1.34023C24.7794 1.3991 24.8481 1.48276 24.8886 1.58065C24.9292 1.67854 24.9398 1.78626 24.9191 1.89018C24.8984 1.99409 24.8474 2.08955 24.7725 2.16447C24.6976 2.23939 24.6021 2.29041 24.4982 2.31108C24.3943 2.33175 24.2866 2.32114 24.1887 2.2806C24.0908 2.24005 24.0071 2.17139 23.9483 2.08329C23.8894 1.99519 23.858 1.89162 23.858 1.78566C23.8581 1.64363 23.9146 1.50745 24.015 1.40701C24.1155 1.30657 24.2517 1.25009 24.3937 1.24995Z"
            fill="#2D4356" />
        <path
            d="M56.5365 21.7856C56.3953 21.7856 56.2572 21.8275 56.1397 21.906C56.0223 21.9845 55.9307 22.0961 55.8766 22.2266C55.8226 22.3571 55.8084 22.5007 55.836 22.6393C55.8636 22.7778 55.9316 22.9051 56.0315 23.005C56.1314 23.1049 56.2586 23.1729 56.3972 23.2005C56.5358 23.2281 56.6794 23.2139 56.8099 23.1598C56.9404 23.1058 57.052 23.0142 57.1305 22.8968C57.2089 22.7793 57.2508 22.6412 57.2508 22.4999C57.2506 22.3106 57.1753 22.129 57.0414 21.9951C56.9075 21.8612 56.7259 21.7859 56.5365 21.7856ZM56.5365 22.8571C56.4659 22.8571 56.3969 22.8361 56.3381 22.7969C56.2794 22.7576 56.2336 22.7019 56.2066 22.6366C56.1796 22.5713 56.1725 22.4995 56.1863 22.4303C56.2001 22.361 56.2341 22.2973 56.284 22.2474C56.334 22.1974 56.3976 22.1634 56.4669 22.1496C56.5362 22.1359 56.608 22.1429 56.6732 22.17C56.7385 22.197 56.7943 22.2428 56.8335 22.3015C56.8727 22.3602 56.8937 22.4293 56.8937 22.4999C56.8936 22.5946 56.8559 22.6854 56.789 22.7524C56.722 22.8193 56.6312 22.857 56.5365 22.8571Z"
            fill="#2D4356" />
        <path
            d="M35.1088 5C34.9675 5 34.8294 5.04189 34.712 5.12038C34.5945 5.19887 34.503 5.31042 34.4489 5.44094C34.3948 5.57146 34.3807 5.71508 34.4083 5.85364C34.4358 5.99219 34.5038 6.11947 34.6037 6.21936C34.7036 6.31926 34.8309 6.38729 34.9695 6.41485C35.108 6.44241 35.2516 6.42826 35.3822 6.3742C35.5127 6.32014 35.6242 6.22859 35.7027 6.11112C35.7812 5.99366 35.8231 5.85556 35.8231 5.71429C35.8229 5.52491 35.7476 5.34336 35.6137 5.20945C35.4797 5.07554 35.2982 5.00022 35.1088 5ZM35.1088 6.07143C35.0382 6.07143 34.9691 6.05048 34.9104 6.01124C34.8517 5.972 34.8059 5.91622 34.7789 5.85096C34.7518 5.7857 34.7448 5.71389 34.7585 5.64461C34.7723 5.57533 34.8063 5.51169 34.8563 5.46175C34.9062 5.4118 34.9699 5.37779 35.0391 5.36401C35.1084 5.35022 35.1802 5.3573 35.2455 5.38433C35.3107 5.41136 35.3665 5.45714 35.4058 5.51587C35.445 5.5746 35.466 5.64365 35.466 5.71429C35.4659 5.80898 35.4282 5.89976 35.3613 5.96672C35.2943 6.03368 35.2035 6.07133 35.1088 6.07143Z"
            fill="#2D4356" />
        <path
            d="M56.5365 0.714233C56.3953 0.714233 56.2572 0.756125 56.1397 0.834612C56.0223 0.913099 55.9307 1.02466 55.8766 1.15517C55.8226 1.28569 55.8084 1.42931 55.836 1.56787C55.8636 1.70643 55.9316 1.8337 56.0315 1.9336C56.1314 2.03349 56.2586 2.10152 56.3972 2.12908C56.5358 2.15664 56.6794 2.1425 56.8099 2.08843C56.9404 2.03437 57.052 1.94282 57.1305 1.82535C57.2089 1.70789 57.2508 1.56979 57.2508 1.42852C57.2506 1.23915 57.1753 1.05759 57.0414 0.923682C56.9075 0.789774 56.7259 0.71445 56.5365 0.714233ZM56.5365 1.78566C56.4659 1.78566 56.3969 1.76472 56.3381 1.72547C56.2794 1.68623 56.2336 1.63045 56.2066 1.56519C56.1796 1.49993 56.1725 1.42812 56.1863 1.35884C56.2001 1.28957 56.2341 1.22593 56.284 1.17598C56.334 1.12603 56.3976 1.09202 56.4669 1.07824C56.5362 1.06446 56.608 1.07153 56.6732 1.09856C56.7385 1.12559 56.7943 1.17137 56.8335 1.2301C56.8727 1.28883 56.8937 1.35788 56.8937 1.42852C56.8936 1.52321 56.8559 1.614 56.789 1.68095C56.722 1.74791 56.6312 1.78557 56.5365 1.78566Z"
            fill="#2D4356" />
        <path
            d="M5.10826 2.14275C5.10826 2.00148 5.06637 1.86338 4.98788 1.74592C4.90939 1.62845 4.79784 1.5369 4.66732 1.48284C4.5368 1.42878 4.39318 1.41463 4.25462 1.44219C4.11607 1.46975 3.98879 1.53778 3.8889 1.63768C3.789 1.73757 3.72097 1.86484 3.69341 2.0034C3.66585 2.14196 3.68 2.28558 3.73406 2.4161C3.78812 2.54662 3.87967 2.65817 3.99714 2.73666C4.1146 2.81515 4.2527 2.85704 4.39397 2.85704C4.58335 2.85682 4.7649 2.7815 4.89881 2.64759C5.03272 2.51368 5.10804 2.33213 5.10826 2.14275ZM4.03683 2.14275C4.03683 2.07212 4.05778 2.00307 4.09702 1.94433C4.13626 1.8856 4.19204 1.83983 4.2573 1.8128C4.32256 1.78576 4.39437 1.77869 4.46365 1.79247C4.53293 1.80625 4.59656 1.84027 4.64651 1.89021C4.69646 1.94016 4.73047 2.0038 4.74425 2.07308C4.75803 2.14236 4.75096 2.21417 4.72393 2.27943C4.6969 2.34468 4.65112 2.40046 4.59239 2.43971C4.53366 2.47895 4.46461 2.4999 4.39397 2.4999C4.29928 2.4998 4.2085 2.46214 4.14154 2.39519C4.07458 2.32823 4.03693 2.23744 4.03683 2.14275Z"
            fill="#2D4356" />
        <path
            d="M2.81809 16.7896L3.34916 16.0914L3.01381 15.9014L2.67273 16.6835H2.66166L2.31523 15.9067L1.97416 16.1024L2.49952 16.7842V16.7953L1.67773 16.6892V17.0692L2.50488 16.9632V16.9742L1.97416 17.6557L2.29238 17.8571L2.65595 17.0692H2.66702L3.00238 17.8514L3.35452 17.6503L2.81809 16.9796V16.9685L3.66166 17.0692V16.6892L2.81809 16.8007V16.7896Z"
            fill="#0BCEB2" />
        <path
            d="M13.9569 7.88104L13.6512 8.27354L13.8348 8.38925L14.044 7.93568H14.0501L14.2433 8.38604L14.4462 8.27033L14.1373 7.8839V7.87747L14.623 7.93568V7.71676L14.1373 7.78104V7.77461L14.443 7.37247L14.2501 7.26318L14.0537 7.71354H14.0473L13.8476 7.26604L13.6512 7.3789L13.9537 7.7714V7.77783L13.4805 7.71676V7.93568L13.9569 7.87461V7.88104Z"
            fill="#0BCEB2" />
        <path
            d="M55.4656 14.1832V13.8107L54.6381 13.9203V13.9093L55.1588 13.2243L54.8299 13.0378L54.4956 13.805H54.4845L54.1449 13.0432L53.8102 13.2353L54.3256 13.9039V13.915L53.5195 13.8107V14.1832L54.331 14.0793V14.0903L53.8102 14.7589L54.1227 14.9564L54.4792 14.1832H54.4899L54.8188 14.9507L55.1642 14.7536L54.6381 14.0957V14.0846L55.4656 14.1832Z"
            fill="#0BCEB2" />
        <path
            d="M45.9822 6.99495L46.4315 6.40388L46.1476 6.24316L45.8594 6.90495H45.8497L45.5569 6.24781L45.2679 6.41352L45.7126 6.99031V6.99959L45.0176 6.90995V7.23138L45.7172 7.14138V7.15102L45.2679 7.72781L45.5376 7.89816L45.8451 7.23138H45.8544L46.1383 7.89316L46.4361 7.72316L45.9822 7.15566V7.14602L46.6958 7.23138V6.90995L45.9822 7.00424V6.99495Z"
            fill="#0BCEB2" />
    </g>
    <defs>
        <clipPath id="clip0_715_32262">
            <rect width="60" height="60" fill="white" />
        </clipPath>
    </defs>
</svg>