<svg width="60" height="60" viewBox="0 0 60 60" fill="none" xmlns="http://www.w3.org/2000/svg">
<g clip-path="url(#clip0_2_6929)">
<path d="M33.8892 38.3652C30.4306 39.7747 26.306 39.2857 22.6381 39.2857C22.3221 39.2896 22.0175 39.1682 21.7909 38.9481C21.5643 38.7279 21.4341 38.427 21.4289 38.1111C21.4463 37.7772 21.5935 37.4634 21.8391 37.2366C22.0847 37.0097 22.4092 36.8878 22.7434 36.8968L24.9937 36.8745C25.1831 36.8726 25.364 36.7956 25.4966 36.6603C25.6293 36.525 25.7027 36.3425 25.7008 36.1531C25.6989 35.9637 25.6218 35.7827 25.4865 35.6501C25.3512 35.5175 25.1688 35.4441 24.9794 35.446C24.9794 35.446 24.9549 35.4462 24.9461 35.446L21.1254 35.4791C20.7756 35.4808 20.4387 35.3468 20.1855 35.1054C20.0793 35.0009 19.995 34.8763 19.9378 34.7387C19.8806 34.6012 19.8515 34.4536 19.8522 34.3046C19.8697 33.9708 20.0169 33.6569 20.2625 33.4301C20.5081 33.2033 20.8326 33.0813 21.1668 33.0904L24.8845 33.0571C25.0739 33.0554 25.255 32.9785 25.3877 32.8434C25.5205 32.7083 25.5942 32.5259 25.5925 32.3365C25.5888 32.1477 25.5113 31.9679 25.3766 31.8355C25.2419 31.7032 25.0608 31.6289 24.8719 31.6285L20.0784 31.6707C19.9048 31.6735 19.7324 31.6418 19.5711 31.5777C19.4098 31.5136 19.2628 31.4182 19.1385 31.297C19.0323 31.1926 18.948 31.0679 18.8908 30.9304C18.8336 30.7929 18.8045 30.6453 18.8052 30.4964C18.8226 30.1627 18.9697 29.8489 19.2151 29.6221C19.4605 29.3952 19.7848 29.2732 20.1189 29.282L24.9056 29.2398C24.9996 29.239 25.0925 29.2197 25.179 29.183C25.2655 29.1462 25.3439 29.0928 25.4097 29.0257C25.4755 28.9586 25.5275 28.8791 25.5625 28.7919C25.5976 28.7047 25.6151 28.6115 25.614 28.5175C25.613 28.4235 25.5934 28.3307 25.5564 28.2443C25.5194 28.1579 25.4657 28.0796 25.3984 28.014C25.3311 27.9484 25.2515 27.8967 25.1642 27.8619C25.0769 27.8271 24.9836 27.8099 24.8896 27.8113L19.2154 27.839H19.2035C18.5961 27.839 17.923 27.4953 17.8625 26.8531C17.7924 26.1065 18.4947 25.58 19.1866 25.5749H26.6212C26.7271 25.5736 26.8313 25.5491 26.9267 25.5029C27.022 25.4568 27.1059 25.3903 27.1727 25.3081C27.2394 25.2259 27.2872 25.13 27.3126 25.0272C27.3381 24.9244 27.3407 24.8173 27.3201 24.7135L26.8099 22.2902C26.6409 21.4299 26.7503 20.5382 27.1222 19.7443C27.4942 18.9503 28.1093 18.2955 28.8785 17.8748C28.9228 17.8493 29.0312 17.849 29.0476 17.9139L30.3248 23.0092C30.5172 23.7563 30.8731 24.4513 31.3668 25.0441C31.8605 25.6369 32.4797 26.1127 33.1797 26.4371C33.5347 26.6057 33.9121 26.7576 34.2984 26.9012C34.3238 26.4185 34.4311 25.9436 34.616 25.4969C34.3327 25.3868 34.0556 25.2716 33.7921 25.1465C33.2829 24.9122 32.832 24.5678 32.472 24.1382C32.112 23.7085 31.8519 23.2042 31.7105 22.6618L30.4333 17.5665C30.3767 17.3417 30.2683 17.1332 30.1169 16.9576C29.9655 16.782 29.7752 16.6442 29.5612 16.5551C29.339 16.4606 29.098 16.4186 28.857 16.4322C28.6159 16.4458 28.3813 16.5147 28.1711 16.6336C27.1386 17.2036 26.3144 18.0878 25.8183 19.1579C25.3222 20.2279 25.1799 21.4282 25.412 22.5846L25.7409 24.1464H19.1814C17.6739 24.1464 16.2952 25.4418 16.4402 26.9869C16.4876 27.4157 16.6462 27.8247 16.9003 28.1733C17.1544 28.522 17.4951 28.7982 17.8888 28.9746C17.5618 29.411 17.3824 29.9403 17.3766 30.4856C17.3739 30.824 17.439 31.1595 17.568 31.4723C17.6971 31.7851 17.8875 32.0689 18.1281 32.3069C18.35 32.5277 18.6089 32.7078 18.893 32.8392C18.5922 33.2651 18.4285 33.7726 18.4237 34.294C18.4209 34.6324 18.486 34.9678 18.6151 35.2807C18.7441 35.5935 18.9346 35.8772 19.1751 36.1152C19.5058 36.4454 19.9169 36.6835 20.3679 36.8058C20.1316 37.1967 20.0047 37.6438 20.0003 38.1004C20.0063 38.7933 20.2848 39.4559 20.7756 39.9451C21.2663 40.4342 21.9298 40.7105 22.6227 40.7143H22.6433C25.9785 40.7143 29.4685 41.0264 32.7404 40.2299C33.3941 40.0651 34.0349 39.8528 34.6578 39.5949C34.461 39.1527 34.3411 38.6801 34.3034 38.1976C34.1737 38.2496 34.038 38.3046 33.8892 38.3652Z" fill="#2D4356"/>
<path d="M39.2863 24.2861H38.572C37.8145 24.287 37.0883 24.5883 36.5526 25.1239C36.017 25.6595 35.7157 26.3858 35.7148 27.1432V37.8574C35.7157 38.6149 36.017 39.3411 36.5526 39.8767C37.0883 40.4124 37.8145 40.7137 38.572 40.7145H39.2863C40.0438 40.7137 40.77 40.4124 41.3056 39.8767C41.8412 39.3411 42.1425 38.6149 42.1434 37.8574V27.1432C42.1425 26.3858 41.8412 25.6595 41.3056 25.1239C40.77 24.5883 40.0438 24.287 39.2863 24.2861ZM40.7148 37.8574C40.7144 38.2362 40.5638 38.5993 40.2959 38.8671C40.0281 39.1349 39.665 39.2856 39.2863 39.286H38.572C38.1932 39.2856 37.8301 39.1349 37.5623 38.8671C37.2945 38.5993 37.1438 38.2362 37.1434 37.8574V27.1432C37.1438 26.7645 37.2945 26.4014 37.5623 26.1336C37.8301 25.8658 38.1932 25.7151 38.572 25.7147H39.2863C39.665 25.7151 40.0281 25.8658 40.2959 26.1336C40.5638 26.4014 40.7144 26.7645 40.7148 27.1432V37.8574Z" fill="#4C7DA7"/>
<path d="M29.9974 12.8574C26.4656 12.8575 23.0132 13.9048 20.0766 15.867C17.1401 17.8291 14.8514 20.618 13.4999 23.8809C12.1483 27.1439 11.7947 30.7343 12.4838 34.1982C13.1728 37.6621 14.8735 40.8439 17.3709 43.3412C19.8682 45.8385 23.05 47.5392 26.5139 48.2282C29.9778 48.9172 33.5683 48.5636 36.8312 47.212C40.0941 45.8605 42.883 43.5717 44.8451 40.6351C46.8072 37.6986 47.8545 34.2461 47.8545 30.7144C47.8492 25.98 45.9661 21.4411 42.6184 18.0934C39.2707 14.7458 34.7317 12.8627 29.9974 12.8574ZM29.9974 47.1428C26.7482 47.1427 23.5719 46.1792 20.8703 44.374C18.1687 42.5688 16.0631 40.003 14.8197 37.0011C13.5763 33.9992 13.251 30.696 13.8849 27.5092C14.5188 24.3225 16.0834 21.3952 18.381 19.0977C20.6786 16.8001 23.6058 15.2355 26.7926 14.6016C29.9794 13.9678 33.2826 14.2931 36.2845 15.5365C39.2864 16.78 41.8521 18.8856 43.6573 21.5873C45.4625 24.2889 46.426 27.4651 46.426 30.7144C46.421 35.07 44.6885 39.2457 41.6086 42.3256C38.5287 45.4054 34.353 47.1378 29.9974 47.1428Z" fill="#4C7DA7"/>
<path d="M0.714286 54.286C1.10877 54.286 1.42857 53.9662 1.42857 53.5717C1.42857 53.1772 1.10877 52.8574 0.714286 52.8574C0.319797 52.8574 0 53.1772 0 53.5717C0 53.9662 0.319797 54.286 0.714286 54.286Z" fill="#2D4356"/>
<path d="M3.92634 52.8574H2.85491C2.66547 52.8574 2.48379 52.9327 2.34983 53.0666C2.21588 53.2006 2.14063 53.3823 2.14062 53.5717C2.14063 53.7611 2.21588 53.9428 2.34983 54.0768C2.48379 54.2107 2.66547 54.286 2.85491 54.286H3.92634C4.11578 54.286 4.29746 54.2107 4.43142 54.0768C4.56537 53.9428 4.64062 53.7611 4.64062 53.5717C4.64062 53.3823 4.56537 53.2006 4.43142 53.0666C4.29746 52.9327 4.11578 52.8574 3.92634 52.8574Z" fill="#2D4356"/>
<path d="M57.1451 52.8574H56.0737C55.8842 52.8574 55.7025 52.9327 55.5686 53.0666C55.4346 53.2006 55.3594 53.3823 55.3594 53.5717C55.3594 53.7611 55.4346 53.9428 55.5686 54.0768C55.7025 54.2107 55.8842 54.286 56.0737 54.286H57.1451C57.3345 54.286 57.5162 54.2107 57.6502 54.0768C57.7841 53.9428 57.8594 53.7611 57.8594 53.5717C57.8594 53.3823 57.7841 53.2006 57.6502 53.0666C57.5162 52.9327 57.3345 52.8574 57.1451 52.8574Z" fill="#2D4356"/>
<path d="M59.2846 54.286C59.6791 54.286 59.9989 53.9662 59.9989 53.5717C59.9989 53.1772 59.6791 52.8574 59.2846 52.8574C58.8901 52.8574 58.5703 53.1772 58.5703 53.5717C58.5703 53.9662 58.8901 54.286 59.2846 54.286Z" fill="#2D4356"/>
<path d="M42.1967 55.7139H39.2297C39.0501 55.7283 38.8825 55.8097 38.7603 55.9421C38.6382 56.0745 38.5703 56.248 38.5703 56.4282C38.5703 56.6083 38.6382 56.7818 38.7603 56.9142C38.8825 57.0466 39.0501 57.1281 39.2297 57.1424H42.1967C42.3763 57.1281 42.5438 57.0466 42.666 56.9142C42.7882 56.7818 42.856 56.6083 42.856 56.4282C42.856 56.248 42.7882 56.0745 42.666 55.9421C42.5438 55.8097 42.3763 55.7283 42.1967 55.7139Z" fill="#4C7DA7"/>
<path d="M20.767 55.7139H17.8C17.6204 55.7283 17.4528 55.8097 17.3307 55.9421C17.2085 56.0745 17.1406 56.248 17.1406 56.4282C17.1406 56.6083 17.2085 56.7818 17.3307 56.9142C17.4528 57.0466 17.6204 57.1281 17.8 57.1424H20.767C20.9466 57.1281 21.1141 57.0466 21.2363 56.9142C21.3585 56.7818 21.4264 56.6083 21.4264 56.4282C21.4264 56.248 21.3585 56.0745 21.2363 55.9421C21.1141 55.8097 20.9466 55.7283 20.767 55.7139Z" fill="#4C7DA7"/>
<path d="M37.1406 55.7139H22.8549C22.6655 55.7139 22.4838 55.7891 22.3498 55.9231C22.2159 56.057 22.1406 56.2387 22.1406 56.4282C22.1406 56.6176 22.2159 56.7993 22.3498 56.9332C22.4838 57.0672 22.6655 57.1424 22.8549 57.1424H28.5478V57.8567H25.7121C25.5226 57.8567 25.3409 57.932 25.207 58.0659C25.073 58.1999 24.9978 58.3816 24.9978 58.571C24.9978 58.7605 25.073 58.9421 25.207 59.0761C25.3409 59.21 25.5226 59.2853 25.7121 59.2853H34.6406C34.8301 59.2853 35.0117 59.21 35.1457 59.0761C35.2797 58.9421 35.3549 58.7605 35.3549 58.571C35.3549 58.3816 35.2797 58.1999 35.1457 58.0659C35.0117 57.932 34.8301 57.8567 34.6406 57.8567H31.4478V57.1424H37.1406C37.3301 57.1424 37.5117 57.0672 37.6457 56.9332C37.7797 56.7993 37.8549 56.6176 37.8549 56.4282C37.8549 56.2387 37.7797 56.057 37.6457 55.9231C37.5117 55.7891 37.3301 55.7139 37.1406 55.7139Z" fill="#4C7DA7"/>
<path d="M53.8311 52.8565H33.9923C34.1439 52.7027 34.2863 52.5403 34.4219 52.3832C34.6516 52.1169 34.9664 51.7521 35.1437 51.7081C35.4817 51.7297 35.812 51.8191 36.1147 51.9711C36.7345 52.2154 37.4369 52.4927 38.1111 52.2348C38.7908 51.9751 39.1356 51.2952 39.4397 50.6955C39.5644 50.3834 39.7496 50.099 39.9847 49.8588C40.316 49.7985 40.6561 49.8056 40.9846 49.8795C41.6459 49.9671 42.3957 50.0661 42.9899 49.652C43.5847 49.2378 43.7573 48.497 43.9096 47.8434C43.9568 47.5079 44.0702 47.1852 44.2432 46.8939C44.5496 46.7566 44.8805 46.6822 45.2162 46.6752C45.88 46.6011 46.6323 46.5172 47.1122 45.9721C47.5898 45.4296 47.5825 44.6705 47.5759 44.0007C47.5423 43.6615 47.5766 43.3191 47.677 42.9934C47.9416 42.7872 48.2448 42.636 48.5686 42.5486C49.1964 42.317 49.9081 42.0547 50.2454 41.409C50.5791 40.7695 50.392 40.0357 50.2267 39.3882C50.1128 39.0651 50.0649 38.7224 50.0858 38.3804C50.1519 38.2047 50.5511 37.9335 50.8425 37.7354C51.3977 37.3582 52.0269 36.9306 52.2002 36.2203C52.3706 35.5221 52.0143 34.8568 51.7001 34.27C51.5095 33.9828 51.3803 33.6592 51.3208 33.3196C51.4591 33.0164 51.6557 32.7434 51.8994 32.5161C52.3493 32.0151 52.8592 31.4473 52.8592 30.7137C52.8592 29.98 52.3493 29.4122 51.8994 28.9112C51.6557 28.684 51.4591 28.411 51.3208 28.1078C51.3803 27.7683 51.5094 27.4447 51.6999 27.1574C52.0143 26.5705 52.3706 25.9054 52.2002 25.2073C52.0271 24.4969 51.3979 24.0693 50.8426 23.6921C50.5512 23.4942 50.1521 23.223 50.086 23.0472C50.0651 22.7053 50.1131 22.3626 50.2271 22.0396C50.3922 21.3921 50.5795 20.6583 50.2457 20.0188C49.9084 19.3731 49.1968 19.1108 48.569 18.8794C48.2452 18.792 47.9421 18.6408 47.6775 18.4347C47.5772 18.109 47.5428 17.7665 47.5764 17.4273C47.583 16.7577 47.5903 15.9984 47.1127 15.4557C46.6328 14.9108 45.8807 14.8267 45.2169 14.7528C44.8812 14.7456 44.5502 14.6712 44.2437 14.5339C44.0708 14.2426 43.9574 13.9199 43.9101 13.5844C43.7579 12.9308 43.5852 12.19 42.9904 11.7757C42.3959 11.3619 41.6462 11.4606 40.9851 11.5481C40.6565 11.6219 40.3164 11.629 39.985 11.5689C39.7501 11.3286 39.565 11.0444 39.4402 10.7324C39.1361 10.1325 38.7913 9.45239 38.1114 9.19272C37.4372 8.9355 36.7348 9.2119 36.1149 9.45639C35.8121 9.60818 35.4819 9.69761 35.1439 9.71937C34.9665 9.67544 34.6519 9.31061 34.4221 9.04415C33.9819 8.5339 33.4832 7.95548 32.7569 7.86759C32.0442 7.78075 31.4317 8.21808 30.8904 8.60295C30.6307 8.82562 30.3285 8.99322 30.0021 9.09559C29.6757 8.99322 29.3735 8.82561 29.1138 8.60294C28.5725 8.21772 27.9578 7.78126 27.2473 7.86759C26.5212 7.95547 26.0224 8.53389 25.5823 9.04415C25.3526 9.31044 25.0379 9.67525 24.8605 9.7192C24.5225 9.69757 24.1923 9.60814 23.8895 9.45622C23.2698 9.21173 22.567 8.93498 21.8931 9.19255C21.2134 9.45221 20.8686 10.1321 20.5645 10.7318C20.4398 11.0439 20.2546 11.3283 20.0195 11.5685C19.6882 11.6285 19.3482 11.6215 19.0196 11.5478C18.3583 11.4602 17.6087 11.3614 17.0143 11.7754C16.4195 12.1895 16.2469 12.9303 16.0946 13.5839C16.0474 13.9194 15.934 14.2421 15.761 14.5334C15.4546 14.6707 15.1237 14.7451 14.788 14.7521C14.1242 14.8262 13.3719 14.9101 12.892 15.4552C12.4144 15.9977 12.4217 16.7568 12.4283 17.4266C12.4619 17.7658 12.4276 18.1082 12.3272 18.4339C12.0626 18.6401 11.7594 18.7913 11.4356 18.8787C10.8078 19.1103 10.0961 19.3726 9.75884 20.0183C9.42507 20.6578 9.61218 21.3916 9.7775 22.0391C9.89137 22.3622 9.93929 22.7049 9.9184 23.0469C9.85231 23.2226 9.45314 23.4938 9.16174 23.6919C8.6065 24.0691 7.97731 24.4967 7.80397 25.207C7.6336 25.9052 7.98987 26.5705 8.30411 27.1573C8.49472 27.4445 8.62386 27.7681 8.6834 28.1077C8.54512 28.4109 8.34851 28.6839 8.10478 28.9112C7.65486 29.4122 7.14496 29.98 7.14496 30.7137C7.14496 31.4473 7.65486 32.0151 8.10478 32.5161C8.34846 32.7434 8.54506 33.0163 8.68339 33.3195C8.62391 33.659 8.49483 33.9826 8.30428 34.2699C7.98986 34.8568 7.63359 35.522 7.80397 36.22C7.97713 36.9305 8.60631 37.3581 9.16156 37.7352C9.45296 37.9332 9.85213 38.2043 9.91822 38.3801C9.93912 38.722 9.89115 39.0647 9.77715 39.3877C9.61201 40.0352 9.42471 40.769 9.75849 41.4085C10.0958 42.0542 10.8074 42.3165 11.4352 42.5479C11.759 42.6353 12.0621 42.7865 12.3267 42.9926C12.427 43.3183 12.4614 43.6608 12.4278 44C12.4212 44.6696 12.4139 45.4289 12.8915 45.9716C13.3714 46.5165 14.1235 46.6006 14.7873 46.6745C15.123 46.6817 15.454 46.7561 15.7605 46.8934C15.9334 47.1847 16.0468 47.5074 16.0941 47.8429C16.2463 48.4965 16.419 49.2373 17.0138 49.6516C17.6083 50.0654 18.358 49.9665 19.0191 49.8792C19.3477 49.8056 19.6878 49.7985 20.0192 49.8584C20.2541 50.0987 20.4392 50.383 20.564 50.695C20.8681 51.2948 21.2129 51.9749 21.8928 52.2346C22.5666 52.492 23.2694 52.2154 23.8893 51.9709C24.192 51.8189 24.5223 51.7294 24.8603 51.7079C25.0377 51.7519 25.3523 52.1167 25.5821 52.3832C25.7177 52.5403 25.8601 52.7027 26.0118 52.8565H6.17306C6.07145 52.8432 5.96816 52.8518 5.87012 52.8816C5.77207 52.9114 5.68152 52.9618 5.6045 53.0294C5.52749 53.097 5.46578 53.1803 5.42351 53.2737C5.38124 53.367 5.35938 53.4683 5.35938 53.5708C5.35938 53.6733 5.38124 53.7746 5.42351 53.8679C5.46578 53.9613 5.52749 54.0446 5.6045 54.1122C5.68152 54.1798 5.77207 54.2302 5.87012 54.26C5.96816 54.2898 6.07145 54.2984 6.17306 54.2851H53.8311C53.9328 54.2984 54.036 54.2898 54.1341 54.26C54.2321 54.2302 54.3227 54.1798 54.3997 54.1122C54.4767 54.0446 54.5384 53.9613 54.5807 53.8679C54.623 53.7746 54.6448 53.6733 54.6448 53.5708C54.6448 53.4683 54.623 53.367 54.5807 53.2737C54.5384 53.1803 54.4767 53.097 54.3997 53.0294C54.3227 52.9618 54.2321 52.9114 54.1341 52.8816C54.036 52.8518 53.9328 52.8432 53.8311 52.8565ZM25.2033 50.3212C25.0701 50.2887 24.9333 50.2726 24.7961 50.2731C24.3006 50.3067 23.8155 50.4318 23.3655 50.6419C23.0638 50.761 22.5586 50.9598 22.4027 50.9002C22.2377 50.8371 21.9972 50.3627 21.8382 50.049C21.5641 49.5083 21.2533 48.8955 20.6878 48.5959C20.1167 48.2931 19.4341 48.3837 18.8321 48.463C18.4888 48.508 17.9696 48.5764 17.8301 48.4792C17.6857 48.3786 17.5651 47.8612 17.4854 47.5187C17.3474 46.9267 17.191 46.2556 16.712 45.8279C16.2308 45.3982 15.5479 45.322 14.9456 45.2549C14.6003 45.2163 14.0785 45.1581 13.9638 45.0276C13.8477 44.8956 13.8529 44.365 13.8562 44.0139C13.8621 43.4052 13.8689 42.7151 13.5043 42.1839C13.1404 41.6538 12.4971 41.4167 11.9294 41.2076C11.6019 41.0867 11.1068 40.9043 11.0249 40.7472C10.9441 40.5925 11.0749 40.08 11.1614 39.7408C11.3121 39.1504 11.483 38.4809 11.2551 37.8763C11.0294 37.2771 10.4637 36.8928 9.96444 36.5536C9.67391 36.3562 9.2348 36.0578 9.19174 35.8815C9.15093 35.7145 9.39925 35.2511 9.56352 34.9444C9.85196 34.4059 10.1789 33.7955 10.1019 33.1501C10.0263 32.5175 9.57015 32.0096 9.16766 31.5615C8.93103 31.298 8.57353 30.8999 8.57353 30.7137C8.57353 30.5274 8.93103 30.1293 9.16766 29.8658C9.57016 29.4177 10.0263 28.9098 10.1018 28.277C10.1789 27.6318 9.85195 27.0214 9.56352 26.4829C9.39923 26.1762 9.15092 25.7127 9.19173 25.5456C9.23481 25.3693 9.67391 25.0709 9.96461 24.8734C10.4637 24.5342 11.0294 24.1498 11.2552 23.5507C11.4832 22.9459 11.3123 22.2766 11.1616 21.686C11.0751 21.3468 10.9443 20.8343 11.0252 20.6796C11.1074 20.5225 11.6023 20.3399 11.9298 20.2192C12.4974 20.01 13.1407 19.7728 13.5046 19.2427C13.8695 18.7117 13.8627 18.0216 13.8567 17.4127C13.8534 17.0616 13.8482 16.531 13.9642 16.3991C14.0793 16.2685 14.601 16.2105 14.9463 16.1719C15.5486 16.1048 16.2313 16.0287 16.7125 15.5991C17.1917 15.1713 17.3481 14.5001 17.486 13.9079C17.5657 13.5656 17.6862 13.0484 17.8305 12.9479C17.9701 12.8501 18.4889 12.9184 18.8327 12.9641C19.4346 13.0433 20.1168 13.1335 20.6881 12.8311C21.2538 12.5315 21.5646 11.9187 21.8387 11.3779C21.9978 11.0642 22.2382 10.5899 22.403 10.5269C22.5582 10.4671 23.0641 10.6663 23.3657 10.7852C23.9322 11.0086 24.5747 11.2618 25.2035 11.1059C25.8226 10.953 26.2697 10.4345 26.6642 9.97711C26.8942 9.7103 27.2419 9.30711 27.4191 9.28568C27.5793 9.26563 28.0225 9.57952 28.2856 9.76699C28.7845 10.1218 29.3499 10.5242 30.0021 10.5242C30.6543 10.5242 31.2197 10.1218 31.7186 9.76699C31.9821 9.57952 32.4217 9.2672 32.5851 9.28568C32.7624 9.30713 33.1102 9.71048 33.3404 9.97711C33.7348 10.4345 34.1818 10.953 34.8009 11.1061C35.4306 11.2613 36.0723 11.0086 36.6387 10.7854C36.9407 10.6664 37.4468 10.4689 37.6015 10.5271C37.7665 10.5902 38.0069 11.0646 38.166 11.3783C38.4401 11.9191 38.7509 12.5318 39.3164 12.8314C39.8877 13.1342 40.5701 13.044 41.1721 12.9643C41.5152 12.9189 42.0339 12.8506 42.1741 12.9481C42.3185 13.0487 42.4391 13.5661 42.5188 13.9086C42.6568 14.5006 42.8132 15.1717 43.2922 15.5994C43.7734 16.0291 44.4563 16.1053 45.0586 16.1724C45.4039 16.211 45.9256 16.2692 46.0404 16.3997C46.1565 16.5317 46.1513 17.0623 46.148 17.4134C46.1421 18.0221 46.1353 18.7122 46.4999 19.2434C46.8638 19.7735 47.5071 20.0106 48.0748 20.2197C48.4023 20.3406 48.8973 20.523 48.9793 20.6801C49.06 20.8348 48.9293 21.3473 48.8428 21.6865C48.6921 22.2769 48.5212 22.9464 48.7491 23.551C48.9748 24.1502 49.5405 24.5345 50.0397 24.8737C50.3303 25.0711 50.7694 25.3695 50.8125 25.5458C50.8533 25.7129 50.6049 26.1762 50.4407 26.4829C50.1522 27.0214 49.8253 27.6318 49.9023 28.2772C49.9778 28.9098 50.434 29.4177 50.8365 29.8658C51.0732 30.1293 51.4307 30.5274 51.4307 30.7137C51.4307 30.8999 51.0732 31.298 50.8365 31.5615C50.434 32.0097 49.9779 32.5175 49.9024 33.1503C49.8253 33.7955 50.1522 34.4059 50.4407 34.9444C50.605 35.2511 50.8533 35.7146 50.8125 35.8817C50.7694 36.058 50.3303 36.3564 50.0396 36.554C49.5405 36.8931 48.9748 37.2775 48.749 37.8766C48.521 38.4814 48.6919 39.1507 48.8426 39.7413C48.9291 40.0805 49.0599 40.593 48.979 40.7477C48.8968 40.9048 48.4019 41.0874 48.0744 41.2081C47.5068 41.4174 46.8635 41.6545 46.4996 42.1846C46.1347 42.7156 46.1415 43.4057 46.1475 44.0146C46.1508 44.3657 46.156 44.8963 46.04 45.0282C45.9249 45.1588 45.4032 45.2169 45.0579 45.2554C44.4556 45.3225 43.7729 45.3986 43.2917 45.8282C42.8125 46.256 42.6561 46.9272 42.5181 47.5194C42.4385 47.8617 42.318 48.379 42.1737 48.4794C42.0332 48.5769 41.5149 48.5084 41.1715 48.4632C40.5699 48.384 39.8877 48.2939 39.3161 48.5962C38.7504 48.8958 38.4396 49.5086 38.1655 50.0494C38.0064 50.3631 37.766 50.8374 37.6012 50.9004C37.4466 50.9595 36.9402 50.7611 36.6385 50.6421C36.0721 50.4189 35.4299 50.166 34.8007 50.3214C34.1816 50.4744 33.7345 50.9928 33.34 51.4502C33.11 51.717 32.7623 52.1202 32.5851 52.1416C32.2674 52.0398 31.973 51.8762 31.7186 51.6603C31.2197 51.3054 30.6543 50.9032 30.0021 50.9032C29.3499 50.9032 28.7845 51.3054 28.2856 51.6603C28.0223 51.8478 27.5794 52.1613 27.4191 52.1416C27.2418 52.1202 26.894 51.7168 26.6638 51.4502C26.2694 50.9928 25.8224 50.4744 25.2033 50.3212ZM29.1138 52.8244C29.3735 52.6017 29.6757 52.4341 30.0021 52.3317C30.3285 52.4341 30.6307 52.6017 30.8904 52.8244C30.9054 52.835 30.9209 52.8458 30.936 52.8565H29.0683C29.0833 52.8458 29.0988 52.835 29.1138 52.8244Z" fill="#2D4356"/>
<path d="M24.3917 2.85672C24.6036 2.85672 24.8108 2.79389 24.987 2.67616C25.1632 2.55843 25.3005 2.39109 25.3816 2.19531C25.4627 1.99954 25.4839 1.78411 25.4426 1.57627C25.4012 1.36843 25.2992 1.17752 25.1494 1.02768C24.9995 0.87784 24.8086 0.775796 24.6008 0.734455C24.3929 0.693114 24.1775 0.714331 23.9817 0.795425C23.7859 0.876519 23.6186 1.01385 23.5009 1.19004C23.3832 1.36624 23.3203 1.57339 23.3203 1.7853C23.3206 2.06936 23.4336 2.34169 23.6345 2.54255C23.8353 2.74341 24.1077 2.8564 24.3917 2.85672ZM24.3917 1.24958C24.4977 1.24958 24.6013 1.281 24.6894 1.33987C24.7775 1.39873 24.8461 1.4824 24.8867 1.58029C24.9272 1.67818 24.9378 1.78589 24.9172 1.88981C24.8965 1.99373 24.8455 2.08918 24.7705 2.1641C24.6956 2.23902 24.6002 2.29005 24.4963 2.31072C24.3923 2.33139 24.2846 2.32078 24.1867 2.28023C24.0888 2.23968 24.0052 2.17102 23.9463 2.08292C23.8874 1.99483 23.856 1.89125 23.856 1.7853C23.8562 1.64326 23.9127 1.50708 24.0131 1.40664C24.1135 1.30621 24.2497 1.24972 24.3917 1.24958Z" fill="#2D4356"/>
<path d="M56.5346 21.7852C56.3933 21.7852 56.2552 21.827 56.1378 21.9055C56.0203 21.984 55.9287 22.0956 55.8747 22.2261C55.8206 22.3566 55.8065 22.5002 55.834 22.6388C55.8616 22.7774 55.9296 22.9046 56.0295 23.0045C56.1294 23.1044 56.2567 23.1724 56.3953 23.2C56.5338 23.2276 56.6774 23.2134 56.8079 23.1594C56.9385 23.1053 57.05 23.0137 57.1285 22.8963C57.207 22.7788 57.2489 22.6407 57.2489 22.4994C57.2487 22.3101 57.1733 22.1285 57.0394 21.9946C56.9055 21.8607 56.724 21.7854 56.5346 21.7852ZM56.5346 22.8566C56.464 22.8566 56.3949 22.8356 56.3362 22.7964C56.2775 22.7572 56.2317 22.7014 56.2046 22.6361C56.1776 22.5709 56.1705 22.499 56.1843 22.4298C56.1981 22.3605 56.2321 22.2969 56.2821 22.2469C56.332 22.197 56.3956 22.1629 56.4649 22.1492C56.5342 22.1354 56.606 22.1425 56.6713 22.1695C56.7365 22.1965 56.7923 22.2423 56.8316 22.301C56.8708 22.3598 56.8917 22.4288 56.8917 22.4994C56.8916 22.5941 56.854 22.6849 56.787 22.7519C56.7201 22.8188 56.6293 22.8565 56.5346 22.8566Z" fill="#2D4356"/>
<path d="M35.1088 5C34.9675 5 34.8294 5.04189 34.712 5.12038C34.5945 5.19887 34.503 5.31042 34.4489 5.44094C34.3948 5.57146 34.3807 5.71508 34.4083 5.85364C34.4358 5.99219 34.5038 6.11947 34.6037 6.21936C34.7036 6.31926 34.8309 6.38729 34.9695 6.41485C35.108 6.44241 35.2516 6.42826 35.3822 6.3742C35.5127 6.32014 35.6242 6.22859 35.7027 6.11112C35.7812 5.99366 35.8231 5.85556 35.8231 5.71429C35.8229 5.52491 35.7476 5.34336 35.6137 5.20945C35.4797 5.07554 35.2982 5.00022 35.1088 5ZM35.1088 6.07143C35.0382 6.07143 34.9691 6.05048 34.9104 6.01124C34.8517 5.972 34.8059 5.91622 34.7789 5.85096C34.7518 5.7857 34.7448 5.71389 34.7585 5.64461C34.7723 5.57533 34.8063 5.51169 34.8563 5.46175C34.9062 5.4118 34.9699 5.37779 35.0391 5.36401C35.1084 5.35022 35.1802 5.3573 35.2455 5.38433C35.3107 5.41136 35.3665 5.45714 35.4058 5.51587C35.445 5.5746 35.466 5.64365 35.466 5.71429C35.4659 5.80898 35.4282 5.89976 35.3613 5.96672C35.2943 6.03368 35.2035 6.07133 35.1088 6.07143Z" fill="#2D4356"/>
<path d="M56.5346 0.713867C56.3933 0.713867 56.2552 0.755759 56.1378 0.834246C56.0203 0.912733 55.9287 1.02429 55.8747 1.15481C55.8206 1.28533 55.8065 1.42895 55.834 1.5675C55.8616 1.70606 55.9296 1.83333 56.0295 1.93323C56.1294 2.03312 56.2567 2.10115 56.3953 2.12871C56.5338 2.15627 56.6774 2.14213 56.8079 2.08807C56.9385 2.034 57.05 1.94245 57.1285 1.82499C57.207 1.70752 57.2489 1.56943 57.2489 1.42815C57.2487 1.23878 57.1733 1.05722 57.0394 0.923316C56.9055 0.789408 56.724 0.714084 56.5346 0.713867ZM56.5346 1.7853C56.464 1.7853 56.3949 1.76435 56.3362 1.72511C56.2775 1.68586 56.2317 1.63008 56.2046 1.56483C56.1776 1.49957 56.1705 1.42776 56.1843 1.35848C56.1981 1.2892 56.2321 1.22556 56.2821 1.17561C56.332 1.12567 56.3956 1.09165 56.4649 1.07787C56.5342 1.06409 56.606 1.07116 56.6713 1.0982C56.7365 1.12523 56.7923 1.171 56.8316 1.22973C56.8708 1.28847 56.8917 1.35752 56.8917 1.42815C56.8916 1.52284 56.854 1.61363 56.787 1.68059C56.7201 1.74754 56.6293 1.7852 56.5346 1.7853Z" fill="#2D4356"/>
<path d="M5.10826 2.14202C5.10826 2.00075 5.06637 1.86265 4.98788 1.74518C4.90939 1.62772 4.79784 1.53617 4.66732 1.48211C4.5368 1.42804 4.39318 1.4139 4.25462 1.44146C4.11607 1.46902 3.98879 1.53705 3.8889 1.63694C3.789 1.73684 3.72097 1.86411 3.69341 2.00267C3.66585 2.14123 3.68 2.28485 3.73406 2.41537C3.78812 2.54588 3.87967 2.65744 3.99714 2.73593C4.1146 2.81441 4.2527 2.85631 4.39397 2.85631C4.58335 2.85609 4.7649 2.78077 4.89881 2.64686C5.03272 2.51295 5.10804 2.33139 5.10826 2.14202ZM4.03683 2.14202C4.03683 2.07138 4.05778 2.00233 4.09702 1.9436C4.13626 1.88487 4.19204 1.83909 4.2573 1.81206C4.32256 1.78503 4.39437 1.77796 4.46365 1.79174C4.53293 1.80552 4.59656 1.83954 4.64651 1.88948C4.69646 1.93943 4.73047 2.00307 4.74425 2.07235C4.75803 2.14162 4.75096 2.21343 4.72393 2.27869C4.6969 2.34395 4.65112 2.39973 4.59239 2.43897C4.53366 2.47822 4.46461 2.49916 4.39397 2.49916C4.29928 2.49907 4.2085 2.46141 4.14154 2.39445C4.07458 2.3275 4.03693 2.23671 4.03683 2.14202Z" fill="#2D4356"/>
<path d="M2.82004 16.7896L3.35112 16.0914L3.01576 15.9014L2.67469 16.6835H2.66362L2.31719 15.9067L1.97612 16.1024L2.50147 16.7842V16.7953L1.67969 16.6892V17.0692L2.50683 16.9632V16.9742L1.97612 17.6557L2.29433 17.8571L2.6579 17.0692H2.66897L3.00433 17.8514L3.35647 17.6503L2.82004 16.9796V16.9685L3.66362 17.0692V16.6892L2.82004 16.8007V16.7896Z" fill="#4C7DA7"/>
<path d="M13.9569 7.88153L13.6512 8.27403L13.8348 8.38974L14.044 7.93617H14.0501L14.2433 8.38653L14.4462 8.27081L14.1373 7.88439V7.87796L14.623 7.93617V7.71724L14.1373 7.78153V7.7751L14.443 7.37296L14.2501 7.26367L14.0537 7.71403H14.0473L13.8476 7.26653L13.6512 7.37939L13.9537 7.77189V7.77831L13.4805 7.71724V7.93617L13.9569 7.8751V7.88153Z" fill="#4C7DA7"/>
<path d="M55.4656 14.1834V13.8109L54.6381 13.9206V13.9095L55.1588 13.2245L54.8299 13.0381L54.4956 13.8052H54.4845L54.1449 13.0434L53.8102 13.2356L54.3256 13.9042V13.9152L53.5195 13.8109V14.1834L54.331 14.0795V14.0906L53.8102 14.7592L54.1227 14.9567L54.4792 14.1834H54.4899L54.8188 14.9509L55.1642 14.7538L54.6381 14.0959V14.0849L55.4656 14.1834Z" fill="#4C7DA7"/>
<path d="M45.9803 6.99495L46.4296 6.40388L46.1456 6.24316L45.8574 6.90495H45.8478L45.5549 6.24781L45.266 6.41352L45.7106 6.99031V6.99959L45.0156 6.90995V7.23138L45.7153 7.14138V7.15102L45.266 7.72781L45.5356 7.89816L45.8431 7.23138H45.8524L46.1363 7.89316L46.4342 7.72316L45.9803 7.15566V7.14602L46.6938 7.23138V6.90995L45.9803 7.00424V6.99495Z" fill="#4C7DA7"/>
</g>
<defs>
<clipPath id="clip0_2_6929">
<rect width="60" height="60" fill="white"/>
</clipPath>
</defs>
</svg>
