<svg width="60" height="60" viewBox="0 0 60 60" fill="none" xmlns="http://www.w3.org/2000/svg">
    <g clip-path="url(#clip0_715_32120)">
        <path
            d="M32.1437 2.76786C32.3556 2.76786 32.5628 2.70502 32.7389 2.58729C32.9151 2.46956 33.0525 2.30223 33.1336 2.10645C33.2147 1.91067 33.2359 1.69524 33.1945 1.4874C33.1532 1.27957 33.0512 1.08866 32.9013 0.938815C32.7515 0.788973 32.5606 0.686929 32.3527 0.645588C32.1449 0.604246 31.9295 0.625464 31.7337 0.706558C31.5379 0.787652 31.3706 0.92498 31.2528 1.10118C31.1351 1.27737 31.0723 1.48452 31.0723 1.69643C31.0726 1.98049 31.1856 2.25282 31.3864 2.45368C31.5873 2.65455 31.8596 2.76753 32.1437 2.76786ZM32.1437 1.16071C32.2496 1.16071 32.3532 1.19213 32.4413 1.251C32.5294 1.30986 32.5981 1.39353 32.6386 1.49142C32.6792 1.58931 32.6898 1.69702 32.6691 1.80094C32.6484 1.90486 32.5974 2.00032 32.5225 2.07524C32.4476 2.15016 32.3521 2.20118 32.2482 2.22185C32.1443 2.24252 32.0366 2.23191 31.9387 2.19136C31.8408 2.15082 31.7571 2.08215 31.6983 1.99406C31.6394 1.90596 31.608 1.80238 31.608 1.69643C31.6081 1.55439 31.6646 1.41821 31.765 1.31778C31.8655 1.21734 32.0017 1.16085 32.1437 1.16071Z"
            fill="#2D4356" />
        <path
            d="M56.1811 0.982178C56.0398 0.982178 55.9017 1.02407 55.7842 1.10256C55.6668 1.18104 55.5752 1.2926 55.5212 1.42312C55.4671 1.55364 55.453 1.69726 55.4805 1.83581C55.5081 1.97437 55.5761 2.10164 55.676 2.20154C55.7759 2.30143 55.9032 2.36946 56.0417 2.39702C56.1803 2.42459 56.3239 2.41044 56.4544 2.35638C56.5849 2.30231 56.6965 2.21076 56.775 2.0933C56.8535 1.97584 56.8954 1.83774 56.8954 1.69646C56.8951 1.50709 56.8198 1.32553 56.6859 1.19163C56.552 1.05772 56.3705 0.982394 56.1811 0.982178ZM56.1811 2.05361C56.1104 2.05361 56.0414 2.03266 55.9827 1.99342C55.9239 1.95417 55.8782 1.8984 55.8511 1.83314C55.8241 1.76788 55.817 1.69607 55.8308 1.62679C55.8446 1.55751 55.8786 1.49387 55.9285 1.44393C55.9785 1.39398 56.0421 1.35996 56.1114 1.34618C56.1807 1.3324 56.2525 1.33948 56.3178 1.36651C56.383 1.39354 56.4388 1.43931 56.478 1.49805C56.5173 1.55678 56.5382 1.62583 56.5382 1.69646C56.5381 1.79115 56.5005 1.88194 56.4335 1.9489C56.3666 2.01585 56.2758 2.05351 56.1811 2.05361Z"
            fill="#2D4356" />
        <path
            d="M2.14202 0.982178C2.00075 0.982178 1.86265 1.02407 1.74518 1.10256C1.62772 1.18104 1.53617 1.2926 1.48211 1.42312C1.42804 1.55364 1.4139 1.69726 1.44146 1.83581C1.46902 1.97437 1.53705 2.10164 1.63694 2.20154C1.73684 2.30143 1.86411 2.36946 2.00267 2.39702C2.14123 2.42459 2.28485 2.41044 2.41537 2.35638C2.54588 2.30231 2.65744 2.21076 2.73593 2.0933C2.81441 1.97584 2.85631 1.83774 2.85631 1.69646C2.85609 1.50709 2.78077 1.32553 2.64686 1.19163C2.51295 1.05772 2.33139 0.982394 2.14202 0.982178ZM2.14202 2.05361C2.07138 2.05361 2.00233 2.03266 1.9436 1.99342C1.88487 1.95417 1.83909 1.8984 1.81206 1.83314C1.78503 1.76788 1.77796 1.69607 1.79174 1.62679C1.80552 1.55751 1.83954 1.49387 1.88948 1.44393C1.93943 1.39398 2.00307 1.35996 2.07235 1.34618C2.14162 1.3324 2.21343 1.33948 2.27869 1.36651C2.34395 1.39354 2.39973 1.43931 2.43897 1.49805C2.47822 1.55678 2.49916 1.62583 2.49916 1.69646C2.49907 1.79115 2.46141 1.88194 2.39445 1.9489C2.3275 2.01585 2.23671 2.05351 2.14202 2.05361Z"
            fill="#2D4356" />
        <path
            d="M55.3569 14.375C55.2156 14.375 55.0775 14.4169 54.96 14.4954C54.8426 14.5739 54.751 14.6854 54.6969 14.8159C54.6429 14.9465 54.6287 15.0901 54.6563 15.2286C54.6839 15.3672 54.7519 15.4945 54.8518 15.5944C54.9517 15.6943 55.079 15.7623 55.2175 15.7898C55.3561 15.8174 55.4997 15.8033 55.6302 15.7492C55.7607 15.6951 55.8723 15.6036 55.9508 15.4861C56.0293 15.3687 56.0711 15.2306 56.0711 15.0893C56.0709 14.8999 55.9956 14.7184 55.8617 14.5844C55.7278 14.4505 55.5462 14.3752 55.3569 14.375ZM55.3569 15.4464C55.2862 15.4464 55.2172 15.4255 55.1584 15.3862C55.0997 15.347 55.0539 15.2912 55.0269 15.226C54.9999 15.1607 54.9928 15.0889 55.0066 15.0196C55.0204 14.9503 55.0544 14.8867 55.1043 14.8367C55.1543 14.7868 55.2179 14.7528 55.2872 14.739C55.3565 14.7252 55.4283 14.7323 55.4935 14.7593C55.5588 14.7864 55.6146 14.8321 55.6538 14.8909C55.6931 14.9496 55.714 15.0186 55.714 15.0893C55.7139 15.184 55.6763 15.2748 55.6093 15.3417C55.5423 15.4087 55.4516 15.4463 55.3569 15.4464Z"
            fill="#2D4356" />
        <path
            d="M7.85631 8.6607C7.85631 8.51942 7.81441 8.38132 7.73593 8.26386C7.65744 8.1464 7.54588 8.05485 7.41537 8.00078C7.28485 7.94672 7.14123 7.93258 7.00267 7.96014C6.86411 7.9877 6.73684 8.05573 6.63694 8.15562C6.53705 8.25552 6.46902 8.38279 6.44146 8.52135C6.4139 8.6599 6.42804 8.80352 6.48211 8.93404C6.53617 9.06456 6.62772 9.17612 6.74518 9.2546C6.86265 9.33309 7.00075 9.37498 7.14202 9.37498C7.33139 9.37477 7.51295 9.29944 7.64686 9.16553C7.78077 9.03163 7.85609 8.85007 7.85631 8.6607ZM6.78488 8.6607C6.78488 8.59006 6.80582 8.52101 6.84507 8.46228C6.88431 8.40355 6.94009 8.35777 7.00535 8.33074C7.07061 8.30371 7.14242 8.29664 7.2117 8.31042C7.28097 8.3242 7.34461 8.35821 7.39456 8.40816C7.44451 8.45811 7.47852 8.52174 7.4923 8.59102C7.50608 8.6603 7.49901 8.73211 7.47198 8.79737C7.44495 8.86263 7.39917 8.91841 7.34044 8.95765C7.28171 8.99689 7.21266 9.01784 7.14202 9.01784C7.04733 9.01775 6.95654 8.98009 6.88959 8.91313C6.82263 8.84617 6.78497 8.75539 6.78488 8.6607Z"
            fill="#2D4356" />
        <path
            d="M2.29039 16.2832L2.82146 15.585L2.4861 15.395L2.14539 16.1772H2.13396L1.78789 15.4004L1.44646 15.5961L1.97218 16.2779V16.2889L1.15039 16.1829V16.5629L1.97753 16.4568V16.4679L1.44646 17.1493L1.76503 17.3507L2.1286 16.5629H2.13932L2.47468 17.345L2.82682 17.1439L2.29039 16.4732V16.4622L3.13396 16.5629V16.1829L2.29039 16.2947V16.2832Z"
            fill="#0BCEB2" />
        <path
            d="M58.4761 8.71539L58.1704 9.10789L58.3539 9.22396L58.5632 8.77003H58.5696L58.7625 9.22075L58.9654 9.10468L58.6564 8.71861V8.71218L59.1421 8.77003V8.55146L58.6564 8.61575V8.60932L58.9621 8.20718L58.7693 8.09753L58.5729 8.54789H58.5664L58.3671 8.10075L58.1704 8.21325L58.4732 8.60611V8.61253L58 8.55146V8.77003L58.4761 8.70896V8.71539Z"
            fill="#0BCEB2" />
        <path
            d="M44.5434 5.69138V5.31852L43.7159 5.42816V5.41745L44.2369 4.73209L43.908 4.54602L43.5737 5.31316H43.5627L43.223 4.55138L42.888 4.74316L43.4037 5.41209V5.42281L42.5977 5.31852V5.69138L43.4091 5.58745V5.59816L42.888 6.26673L43.2005 6.46423L43.5573 5.69138H43.568L43.8966 6.45888L44.2423 6.26138L43.7159 5.60352V5.59281L44.5434 5.69138Z"
            fill="#0BCEB2" />
        <path
            d="M21.5545 6.25679L22.0038 5.66608L21.7202 5.505L21.432 6.16679H21.4223L21.1291 5.50965L20.8406 5.67536L21.2852 6.25215V6.26179L20.5898 6.17179V6.49322L21.2898 6.40358V6.41286L20.8406 6.98965L21.1098 7.16001L21.4177 6.49322H21.427L21.7106 7.15501L22.0084 6.98501L21.5545 6.4175V6.40822L22.2684 6.49322V6.17179L21.5545 6.26608V6.25679Z"
            fill="#0BCEB2" />
        <path
            d="M42.1987 55.8036H39.2316C39.052 55.818 38.8845 55.8995 38.7623 56.0318C38.6401 56.1642 38.5723 56.3377 38.5723 56.5179C38.5723 56.698 38.6401 56.8715 38.7623 57.0039C38.8845 57.1363 39.052 57.2178 39.2316 57.2322H42.1987C42.3782 57.2178 42.5458 57.1363 42.668 57.0039C42.7902 56.8715 42.858 56.698 42.858 56.5179C42.858 56.3377 42.7902 56.1642 42.668 56.0318C42.5458 55.8995 42.3782 55.818 42.1987 55.8036Z"
            fill="#0BCEB2" />
        <path
            d="M20.769 55.8036H17.8019C17.6224 55.818 17.4548 55.8995 17.3326 56.0318C17.2104 56.1642 17.1426 56.3377 17.1426 56.5179C17.1426 56.698 17.2104 56.8715 17.3326 57.0039C17.4548 57.1363 17.6224 57.2178 17.8019 57.2322H20.769C20.9485 57.2178 21.1161 57.1363 21.2383 57.0039C21.3605 56.8715 21.4283 56.698 21.4283 56.5179C21.4283 56.3377 21.3605 56.1642 21.2383 56.0318C21.1161 55.8995 20.9485 55.818 20.769 55.8036Z"
            fill="#0BCEB2" />
        <path
            d="M37.1426 55.8036H22.8569C22.6674 55.8036 22.4857 55.8788 22.3518 56.0128C22.2178 56.1468 22.1426 56.3284 22.1426 56.5179C22.1426 56.7073 22.2178 56.889 22.3518 57.023C22.4857 57.1569 22.6674 57.2322 22.8569 57.2322H28.5497V57.9464H25.714C25.5246 57.9464 25.3429 58.0217 25.2089 58.1557C25.075 58.2896 24.9997 58.4713 24.9997 58.6607C24.9997 58.8502 25.075 59.0319 25.2089 59.1658C25.3429 59.2998 25.5246 59.375 25.714 59.375H34.6426C34.832 59.375 35.0137 59.2998 35.1477 59.1658C35.2816 59.0319 35.3569 58.8502 35.3569 58.6607C35.3569 58.4713 35.2816 58.2896 35.1477 58.1557C35.0137 58.0217 34.832 57.9464 34.6426 57.9464H31.4497V57.2322H37.1426C37.332 57.2322 37.5137 57.1569 37.6477 57.023C37.7816 56.889 37.8569 56.7073 37.8569 56.5179C37.8569 56.3284 37.7816 56.1468 37.6477 56.0128C37.5137 55.8788 37.332 55.8036 37.1426 55.8036Z"
            fill="#0BCEB2" />
        <path
            d="M49.2866 13.6608H34.2866C34.0971 13.6608 33.9154 13.736 33.7815 13.87C33.6475 14.0039 33.5723 14.1856 33.5723 14.3751C33.5723 14.5645 33.6475 14.7462 33.7815 14.8801C33.9154 15.0141 34.0971 15.0893 34.2866 15.0893H49.2866C49.476 15.0893 49.6577 15.0141 49.7916 14.8801C49.9256 14.7462 50.0008 14.5645 50.0008 14.3751C50.0008 14.1856 49.9256 14.0039 49.7916 13.87C49.6577 13.736 49.476 13.6608 49.2866 13.6608Z"
            fill="#2D4356" />
        <path
            d="M49.2866 16.5178H34.2866C34.0971 16.5178 33.9154 16.5931 33.7815 16.727C33.6475 16.861 33.5723 17.0427 33.5723 17.2321C33.5723 17.4215 33.6475 17.6032 33.7815 17.7372C33.9154 17.8711 34.0971 17.9464 34.2866 17.9464H49.2866C49.476 17.9464 49.6577 17.8711 49.7916 17.7372C49.9256 17.6032 50.0008 17.4215 50.0008 17.2321C50.0008 17.0427 49.9256 16.861 49.7916 16.727C49.6577 16.5931 49.476 16.5178 49.2866 16.5178Z"
            fill="#0BCEB2" />
        <path
            d="M49.2866 21.5178H34.2866C34.0971 21.5178 33.9154 21.5931 33.7815 21.727C33.6475 21.861 33.5723 22.0427 33.5723 22.2321C33.5723 22.4215 33.6475 22.6032 33.7815 22.7372C33.9154 22.8711 34.0971 22.9464 34.2866 22.9464H49.2866C49.476 22.9464 49.6577 22.8711 49.7916 22.7372C49.9256 22.6032 50.0008 22.4215 50.0008 22.2321C50.0008 22.0427 49.9256 21.861 49.7916 21.727C49.6577 21.5931 49.476 21.5178 49.2866 21.5178Z"
            fill="#2D4356" />
        <path
            d="M49.2866 24.375H34.2866C34.0971 24.375 33.9154 24.4503 33.7815 24.5842C33.6475 24.7182 33.5723 24.8998 33.5723 25.0893C33.5723 25.2787 33.6475 25.4604 33.7815 25.5944C33.9154 25.7283 34.0971 25.8036 34.2866 25.8036H49.2866C49.476 25.8036 49.6577 25.7283 49.7916 25.5944C49.9256 25.4604 50.0008 25.2787 50.0008 25.0893C50.0008 24.8998 49.9256 24.7182 49.7916 24.5842C49.6577 24.4503 49.476 24.375 49.2866 24.375Z"
            fill="#0BCEB2" />
        <path
            d="M49.2866 29.375H34.2866C34.0971 29.375 33.9154 29.4503 33.7815 29.5842C33.6475 29.7182 33.5723 29.8998 33.5723 30.0893C33.5723 30.2787 33.6475 30.4604 33.7815 30.5944C33.9154 30.7283 34.0971 30.8036 34.2866 30.8036H49.2866C49.476 30.8036 49.6577 30.7283 49.7916 30.5944C49.9256 30.4604 50.0008 30.2787 50.0008 30.0893C50.0008 29.8998 49.9256 29.7182 49.7916 29.5842C49.6577 29.4503 49.476 29.375 49.2866 29.375Z"
            fill="#2D4356" />
        <path
            d="M49.2866 32.2322H34.2866C34.0971 32.2322 33.9154 32.3074 33.7815 32.4414C33.6475 32.5753 33.5723 32.757 33.5723 32.9465C33.5723 33.1359 33.6475 33.3176 33.7815 33.4515C33.9154 33.5855 34.0971 33.6607 34.2866 33.6607H49.2866C49.476 33.6607 49.6577 33.5855 49.7916 33.4515C49.9256 33.3176 50.0008 33.1359 50.0008 32.9465C50.0008 32.757 49.9256 32.5753 49.7916 32.4414C49.6577 32.3074 49.476 32.2322 49.2866 32.2322Z"
            fill="#0BCEB2" />
        <path
            d="M24.9994 45.8036C25.3939 45.8036 25.7137 45.4838 25.7137 45.0893C25.7137 44.6948 25.3939 44.375 24.9994 44.375C24.605 44.375 24.2852 44.6948 24.2852 45.0893C24.2852 45.4838 24.605 45.8036 24.9994 45.8036Z"
            fill="#2D4356" />
        <path
            d="M15.3638 21.069C15.4707 21.1291 15.5913 21.1607 15.714 21.1607C15.8367 21.1607 15.9573 21.1291 16.0642 21.069L18.9213 19.4616C19.0318 19.3995 19.1237 19.3091 19.1877 19.1997C19.2517 19.0903 19.2854 18.9658 19.2854 18.8391V15.6252C19.2854 15.4984 19.2517 15.374 19.1877 15.2645C19.1237 15.1551 19.0318 15.0647 18.9213 15.0026L16.0642 13.3953C15.9573 13.3351 15.8367 13.3035 15.714 13.3035C15.5913 13.3035 15.4707 13.3351 15.3638 13.3953L12.5067 15.0026C12.3962 15.0647 12.3043 15.1551 12.2403 15.2645C12.1763 15.3739 12.1426 15.4984 12.1426 15.6252V18.8391C12.1426 18.9658 12.1763 19.0903 12.2403 19.1997C12.3043 19.3091 12.3962 19.3995 12.5067 19.4616L15.3638 21.069ZM13.5711 16.0428L15.714 14.8374L17.8569 16.0428V18.4214L15.714 19.6268L13.5711 18.4214V16.0428Z"
            fill="#0BCEB2" />
        <path
            d="M15.7143 50.8036C16.1088 50.8036 16.4286 50.4838 16.4286 50.0893C16.4286 49.6948 16.1088 49.375 15.7143 49.375C15.3198 49.375 15 49.6948 15 50.0893C15 50.4838 15.3198 50.8036 15.7143 50.8036Z"
            fill="#0BCEB2" />
        <path
            d="M32.1434 13.3035C32.1434 13.1141 32.0681 12.9324 31.9342 12.7985C31.8002 12.6645 31.6186 12.5892 31.4291 12.5892H26.4291C26.2397 12.5892 26.058 12.6645 25.9241 12.7985C25.7901 12.9324 25.7149 13.1141 25.7148 13.3035V18.3035C25.7149 18.493 25.7901 18.6746 25.9241 18.8086C26.058 18.9425 26.2397 19.0178 26.4291 19.0178H31.4291C31.6186 19.0178 31.8002 18.9425 31.9342 18.8086C32.0681 18.6746 32.1434 18.493 32.1434 18.3035V13.3035ZM30.7148 17.5892H27.1434V14.0178H30.7148V17.5892Z"
            fill="#2D4356" />
        <path
            d="M32.1434 21.1607C32.1434 20.9713 32.0681 20.7896 31.9342 20.6556C31.8002 20.5217 31.6186 20.4464 31.4291 20.4464H26.4291C26.2397 20.4464 26.058 20.5217 25.9241 20.6556C25.7901 20.7896 25.7149 20.9713 25.7148 21.1607V26.1607C25.7149 26.3501 25.7901 26.5318 25.9241 26.6658C26.058 26.7997 26.2397 26.875 26.4291 26.875H31.4291C31.6186 26.875 31.8002 26.7997 31.9342 26.6658C32.0681 26.5318 32.1434 26.3501 32.1434 26.1607V21.1607ZM30.7148 22.3312C30.6855 22.3471 30.6573 22.365 30.6304 22.3849L29.31 23.4235L29.0745 23.1904C29.0079 23.1242 28.9289 23.0719 28.8421 23.0363C28.7552 23.0008 28.6622 22.9826 28.5683 22.983C28.4745 22.9834 28.3816 23.0023 28.2951 23.0387C28.2085 23.075 28.13 23.128 28.0639 23.1947C27.9979 23.2614 27.9456 23.3404 27.9101 23.4273C27.8747 23.5142 27.8567 23.6073 27.8572 23.7011C27.8577 23.795 27.8767 23.8878 27.9131 23.9743C27.9495 24.0609 28.0026 24.1393 28.0694 24.2053L28.753 24.8824C28.8767 25.005 29.041 25.0781 29.2148 25.0881C29.3887 25.0981 29.5602 25.0441 29.6971 24.9365L30.7148 24.1361V25.4464H27.1434V21.875H30.7148V22.3312Z"
            fill="#2D4356" />
        <path
            d="M32.1434 29.0179C32.1434 28.8284 32.0681 28.6468 31.9342 28.5128C31.8002 28.3789 31.6186 28.3036 31.4291 28.3036H26.4291C26.2397 28.3036 26.058 28.3789 25.9241 28.5128C25.7901 28.6468 25.7149 28.8284 25.7148 29.0179V34.0179C25.7149 34.2073 25.7901 34.389 25.9241 34.5229C26.058 34.6569 26.2397 34.7322 26.4291 34.7322H31.4291C31.6186 34.7322 31.8002 34.6569 31.9342 34.5229C32.0681 34.389 32.1434 34.2073 32.1434 34.0179V29.0179ZM30.7148 33.3036H27.1434V29.7322H30.7148V33.3036Z"
            fill="#2D4356" />
        <path
            d="M50.0004 10.0893C50.3792 10.0897 50.7423 10.2404 51.0102 10.5082C51.278 10.776 51.4286 11.1392 51.429 11.5179V37.2918C51.9273 37.7934 52.2397 38.4499 52.3147 39.1529C52.3897 39.856 52.2228 40.5636 51.8416 41.159C52.2034 41.2333 52.5481 41.3749 52.8576 41.5765V11.5179C52.8554 10.7608 52.5537 10.0354 52.0183 9.50003C51.483 8.96469 50.7575 8.66296 50.0004 8.66077H22.1433C21.8062 8.66152 21.4719 8.72259 21.1562 8.84108C21.7171 9.20427 22.2404 9.62242 22.7184 10.0893H50.0004Z"
            fill="#2D4356" />
        <path
            d="M47.4992 44.7321C47.4992 43.8845 47.2478 43.0559 46.7769 42.3511C46.306 41.6464 45.6367 41.0971 44.8536 40.7727C44.0705 40.4483 43.2088 40.3634 42.3775 40.5287C41.5461 40.6941 40.7825 41.1022 40.1831 41.7015C39.5837 42.3009 39.1755 43.0645 39.0101 43.8958C38.8447 44.7271 38.9295 45.5888 39.2539 46.372C39.5782 47.1551 40.1274 47.8244 40.8322 48.2954C41.5369 48.7664 42.3655 49.0178 43.2131 49.0178C44.3497 49.0177 45.4398 48.5662 46.2436 47.7625C47.0473 46.9588 47.499 45.8688 47.4992 44.7321ZM43.2131 47.5893C42.648 47.5892 42.0957 47.4216 41.6258 47.1076C41.156 46.7936 40.7899 46.3473 40.5737 45.8253C40.3575 45.3032 40.301 44.7287 40.4113 44.1745C40.5215 43.6203 40.7937 43.1112 41.1933 42.7117C41.5929 42.3122 42.102 42.0401 42.6562 41.9299C43.2104 41.8196 43.7849 41.8762 44.3069 42.0925C44.829 42.3088 45.2752 42.675 45.5891 43.1448C45.903 43.6147 46.0706 44.1671 46.0706 44.7321C46.0698 45.4897 45.7685 46.216 45.2328 46.7517C44.697 47.2873 43.9707 47.5886 43.2131 47.5893Z"
            fill="#0BCEB2" />
        <path
            d="M31.4289 44.375H28.5717C28.3823 44.375 28.2006 44.4503 28.0666 44.5842C27.9327 44.7182 27.8574 44.8998 27.8574 45.0893C27.8574 45.2787 27.9327 45.4604 28.0666 45.5944C28.2006 45.7283 28.3823 45.8036 28.5717 45.8036H31.4289C31.6183 45.8036 31.8 45.7283 31.9339 45.5944C32.0679 45.4604 32.1431 45.2787 32.1431 45.0893C32.1431 44.8998 32.0679 44.7182 31.9339 44.5842C31.8 44.4503 31.6183 44.375 31.4289 44.375Z"
            fill="#0BCEB2" />
        <path
            d="M24.9994 48.6607H31.428C31.6175 48.6607 31.7991 48.5855 31.9331 48.4515C32.067 48.3176 32.1423 48.1359 32.1423 47.9465C32.1423 47.757 32.067 47.5753 31.9331 47.4414C31.7991 47.3074 31.6175 47.2322 31.428 47.2322H24.9994C24.81 47.2322 24.6283 47.3074 24.4944 47.4414C24.3604 47.5753 24.2852 47.757 24.2852 47.9465C24.2852 48.1359 24.3604 48.3176 24.4944 48.4515C24.6283 48.5855 24.81 48.6607 24.9994 48.6607Z"
            fill="#2D4356" />
        <path
            d="M31.428 41.5179H24.9994C24.81 41.5179 24.6283 41.5932 24.4944 41.7272C24.3604 41.8611 24.2852 42.0428 24.2852 42.2322C24.2852 42.4217 24.3604 42.6034 24.4944 42.7373C24.6283 42.8713 24.81 42.9465 24.9994 42.9465H31.428C31.6175 42.9465 31.7991 42.8713 31.9331 42.7373C32.067 42.6034 32.1423 42.4217 32.1423 42.2322C32.1423 42.0428 32.067 41.8611 31.9331 41.7272C31.7991 41.5932 31.6175 41.5179 31.428 41.5179Z"
            fill="#2D4356" />
        <path
            d="M0.714286 54.3751C1.10877 54.3751 1.42857 54.0553 1.42857 53.6608C1.42857 53.2663 1.10877 52.9465 0.714286 52.9465C0.319797 52.9465 0 53.2663 0 53.6608C0 54.0553 0.319797 54.3751 0.714286 54.3751Z"
            fill="#2D4356" />
        <path
            d="M3.92829 52.9465H2.85686C2.66742 52.9465 2.48574 53.0218 2.35179 53.1557C2.21783 53.2897 2.14258 53.4714 2.14258 53.6608C2.14258 53.8503 2.21783 54.0319 2.35179 54.1659C2.48574 54.2999 2.66742 54.3751 2.85686 54.3751H3.92829C4.11773 54.3751 4.29941 54.2999 4.43337 54.1659C4.56732 54.0319 4.64258 53.8503 4.64258 53.6608C4.64258 53.4714 4.56732 53.2897 4.43337 53.1557C4.29941 53.0218 4.11773 52.9465 3.92829 52.9465Z"
            fill="#2D4356" />
        <path
            d="M57.1431 52.9465H56.0717C55.8823 52.9465 55.7006 53.0218 55.5666 53.1557C55.4327 53.2897 55.3574 53.4714 55.3574 53.6608C55.3574 53.8503 55.4327 54.0319 55.5666 54.1659C55.7006 54.2999 55.8823 54.3751 56.0717 54.3751H57.1431C57.3326 54.3751 57.5143 54.2999 57.6482 54.1659C57.7822 54.0319 57.8574 53.8503 57.8574 53.6608C57.8574 53.4714 57.7822 53.2897 57.6482 53.1557C57.5143 53.0218 57.3326 52.9465 57.1431 52.9465Z"
            fill="#2D4356" />
        <path
            d="M59.2866 54.3751C59.681 54.3751 60.0008 54.0553 60.0008 53.6608C60.0008 53.2663 59.681 52.9465 59.2866 52.9465C58.8921 52.9465 58.5723 53.2663 58.5723 53.6608C58.5723 54.0553 58.8921 54.3751 59.2866 54.3751Z"
            fill="#2D4356" />
        <path
            d="M53.8292 52.9465H52.4688C52.7228 52.5132 52.8569 52.0202 52.8573 51.5179V47.8879C52.5477 48.0895 52.2029 48.2311 51.841 48.3054C52.2262 48.9083 52.3922 49.6253 52.3112 50.3362C52.2303 51.047 51.9072 51.7083 51.3963 52.2092L50.6939 52.9113C50.6814 52.9237 50.6676 52.9343 50.6549 52.9465H45.3995C45.4088 52.8912 45.4148 52.8354 45.4176 52.7794V52.0669C45.9118 51.9189 46.3896 51.7207 46.8434 51.4754L47.3484 51.9811C47.4926 52.1239 47.6635 52.2367 47.8515 52.3131C48.0395 52.3895 48.2407 52.4279 48.4436 52.4261C48.9099 52.421 49.3555 52.2324 49.6838 51.9012L50.3848 51.2002C50.7034 50.9 50.8903 50.4859 50.9047 50.0484C50.9192 49.6109 50.76 49.1854 50.462 48.8648L49.9583 48.3608C50.2031 47.9067 50.4013 47.4288 50.5498 46.9347H51.261C51.6987 46.919 52.1124 46.7306 52.4116 46.4106C52.7108 46.0907 52.871 45.6653 52.8573 45.2274V44.2369C52.871 43.7991 52.7108 43.3737 52.4116 43.0538C52.1124 42.7338 51.6987 42.5454 51.261 42.5297H50.5498C50.4014 42.0355 50.2032 41.5577 49.9583 41.1036L50.4622 40.5992C50.7605 40.279 50.9198 39.8537 50.9053 39.4163C50.8908 38.9789 50.7036 38.565 50.3848 38.2653L49.6831 37.5625C49.3547 37.2317 48.9093 37.0434 48.4432 37.0383C48.2402 37.0365 48.0388 37.0751 47.8507 37.1517C47.6627 37.2283 47.4917 37.3415 47.3477 37.4847L46.8437 37.9887C46.3897 37.7435 45.9119 37.5453 45.4176 37.3972V36.685C45.4018 36.2473 45.2133 35.8337 44.8933 35.5346C44.5733 35.2356 44.1478 35.0755 43.71 35.0893H42.7195C42.2817 35.0755 41.8562 35.2355 41.5361 35.5346C41.2161 35.8336 41.0274 36.2472 41.0116 36.685V37.3972C40.5174 37.5452 40.0397 37.7433 39.5858 37.9883L39.0822 37.4844C38.9381 37.3413 38.767 37.2281 38.5789 37.1516C38.3908 37.075 38.1894 37.0365 37.9863 37.0383C37.5196 37.0435 37.0736 37.2324 36.745 37.5639L36.0468 38.2639C35.7152 38.5908 35.5261 39.0354 35.5205 39.501C35.5185 39.7045 35.5569 39.9065 35.6335 40.0952C35.71 40.2838 35.8233 40.4554 35.9666 40.6L36.4709 41.1039C36.2259 41.5579 36.0277 42.0356 35.8794 42.5297H35.1672C34.7296 42.5455 34.316 42.734 34.0169 43.0539C33.7179 43.3739 33.5578 43.7992 33.5716 44.2369V45.2274C33.5578 45.6652 33.7179 46.0905 34.0169 46.4105C34.316 46.7304 34.7296 46.9189 35.1672 46.9347H35.8794C36.0278 47.4289 36.2261 47.9068 36.4712 48.3608L35.9659 48.8652C35.6679 49.186 35.5091 49.6118 35.524 50.0494C35.5389 50.487 35.7263 50.901 36.0454 51.2009L36.7464 51.9019C37.0748 52.2327 37.5202 52.421 37.9863 52.4261C38.1896 52.4277 38.3911 52.3891 38.5794 52.3125C38.7676 52.2359 38.9389 52.1228 39.0832 51.9797L39.5861 51.4757C40.0398 51.7209 40.5175 51.919 41.0116 52.0669V52.7794C41.0144 52.8354 41.0204 52.8912 41.0297 52.9465H22.143C21.9178 52.9459 21.6959 52.892 21.4955 52.7891C21.2951 52.6863 21.122 52.5373 20.9903 52.3546C20.9632 52.5543 20.9232 52.752 20.8705 52.9465H19.3683C19.5354 52.5397 19.6178 52.1031 19.6102 51.6633V24.7746C21.3248 23.8997 22.695 22.4732 23.5002 20.7247C24.3053 18.9763 24.4985 17.0077 24.0486 15.1362C23.5987 13.2646 22.5319 11.5989 21.0201 10.4074C19.5082 9.21591 17.6393 8.56799 15.7144 8.56799C13.7895 8.56799 11.9206 9.21591 10.4088 10.4074C8.89697 11.5989 7.83019 13.2646 7.38029 15.1362C6.93039 17.0077 7.12357 18.9763 7.92869 20.7247C8.73382 22.4732 10.104 23.8997 11.8186 24.7746V51.6633C11.8111 52.1031 11.8934 52.5397 12.0606 52.9465H6.17111C6.06949 52.9332 5.96621 52.9418 5.86817 52.9716C5.77012 53.0014 5.67957 53.0518 5.60255 53.1194C5.52553 53.187 5.46383 53.2703 5.42156 53.3636C5.37929 53.457 5.35742 53.5583 5.35742 53.6608C5.35742 53.7633 5.37929 53.8646 5.42156 53.9579C5.46383 54.0513 5.52553 54.1345 5.60255 54.2021C5.67957 54.2697 5.77012 54.3201 5.86817 54.35C5.96621 54.3798 6.06949 54.3883 6.17111 54.3751H53.8292C53.9308 54.3883 54.0341 54.3798 54.1321 54.35C54.2302 54.3201 54.3207 54.2697 54.3977 54.2021C54.4748 54.1345 54.5365 54.0513 54.5787 53.9579C54.621 53.8646 54.6429 53.7633 54.6429 53.6608C54.6429 53.5583 54.621 53.457 54.5787 53.3636C54.5365 53.2703 54.4748 53.187 54.3977 53.1194C54.3207 53.0518 54.2302 53.0014 54.1321 52.9716C54.0341 52.9418 53.9308 52.9332 53.8292 52.9465ZM8.57158 17.1839C8.56366 15.9126 8.8952 14.6621 9.53197 13.5618C10.1687 12.4614 11.0877 11.5509 12.1939 10.9243C13.3001 10.2977 14.5535 9.97764 15.8247 9.99726C17.0959 10.0169 18.3388 10.3754 19.4251 11.0359C20.5115 11.6963 21.4019 12.6348 22.0044 13.7543C22.6069 14.8738 22.8997 16.1338 22.8525 17.4043C22.8054 18.6748 22.42 19.9097 21.7362 20.9814C21.0523 22.0532 20.0948 22.9231 18.9625 23.5012L18.1816 23.8983V45.8036H13.2472V23.8984L12.4663 23.5012C11.2951 22.913 10.3105 22.0107 9.62274 20.8951C8.93493 19.7794 8.57098 18.4945 8.57158 17.1839ZM14.5453 52.9465C13.6113 52.9465 13.2472 52.5866 13.2472 51.6633V47.2322H18.1816V51.6633C18.1816 52.5866 17.8175 52.9465 16.8835 52.9465H14.5453ZM42.7195 52.9465C42.5514 52.9465 42.4401 52.8461 42.4401 52.7794V50.9393L41.8783 50.8165C41.16 50.66 40.4755 50.3761 39.8572 49.9785L39.3727 49.667L38.0739 50.969C38.0163 51.0251 37.8555 50.9906 37.7561 50.8912L37.0558 50.1905C36.9352 50.0702 36.9289 49.923 36.9763 49.8752L38.2782 48.575L37.9689 48.0909C37.5714 47.4719 37.2873 46.787 37.1301 46.0684L37.0077 45.5061H35.1672C35.0992 45.5061 35.0001 45.3977 35.0001 45.2275V44.237C35.0001 44.0667 35.0992 43.9583 35.1672 43.9583H37.0077L37.1301 43.3961C37.2869 42.6776 37.5709 41.9929 37.9685 41.3742L38.2782 40.8901L36.9773 39.5899C36.9572 39.5658 36.9471 39.5348 36.9491 39.5034C36.9541 39.4161 36.9926 39.334 37.0565 39.2743L37.7551 38.5743C37.8559 38.4731 38.0174 38.439 38.0721 38.4948L39.3727 39.796L39.8568 39.4856C40.4752 39.0882 41.1597 38.8045 41.8779 38.6479L42.4401 38.5254V36.685C42.4401 36.6169 42.549 36.5179 42.7195 36.5179H43.71C43.8802 36.5179 43.989 36.6169 43.989 36.685V38.5254L44.5513 38.6479C45.2698 38.8046 45.9545 39.0884 46.5731 39.4859L47.0569 39.7957L48.3581 38.4944C48.4136 38.4393 48.5747 38.4742 48.6731 38.5729L49.3744 39.2753C49.4937 39.3946 49.5 39.5414 49.4519 39.5896L48.1513 40.8905L48.461 41.3742C48.8583 41.9932 49.1422 42.6779 49.2995 43.3964L49.4222 43.9583H51.261C51.3293 43.9583 51.4287 44.0667 51.4287 44.2369V45.2274C51.4287 45.3977 51.3293 45.5061 51.261 45.5061H49.4222L49.2995 46.068C49.1421 46.7867 48.8581 47.4717 48.4607 48.0909L48.1516 48.5746L49.4515 49.8745C49.5 49.9233 49.4937 50.0708 49.3741 50.1908L48.6741 50.8908C48.6138 50.9546 48.5313 50.9928 48.4436 50.9975C48.4128 50.9996 48.3823 50.99 48.3581 50.9707L47.0569 49.6673L46.5724 49.9781C45.954 50.3759 45.2694 50.6598 44.5509 50.8165L43.9891 50.9393V52.7794C43.9891 52.8461 43.8778 52.9465 43.7101 52.9465L42.7195 52.9465Z"
            fill="#2D4356" />
    </g>
    <defs>
        <clipPath id="clip0_715_32120">
            <rect width="60" height="60" fill="white" />
        </clipPath>
    </defs>
</svg>