<svg width="60" height="60" viewBox="0 0 60 60" fill="none" xmlns="http://www.w3.org/2000/svg">
<g clip-path="url(#clip0_2_6787)">
<path d="M32.1417 2.76786C32.3536 2.76786 32.5608 2.70502 32.737 2.58729C32.9132 2.46956 33.0505 2.30223 33.1316 2.10645C33.2127 1.91067 33.2339 1.69524 33.1926 1.4874C33.1512 1.27957 33.0492 1.08866 32.8994 0.938815C32.7495 0.788973 32.5586 0.686929 32.3508 0.645588C32.1429 0.604246 31.9275 0.625464 31.7317 0.706558C31.5359 0.787652 31.3686 0.92498 31.2509 1.10118C31.1332 1.27737 31.0703 1.48452 31.0703 1.69643C31.0706 1.98049 31.1836 2.25282 31.3845 2.45368C31.5853 2.65455 31.8577 2.76753 32.1417 2.76786ZM32.1417 1.16071C32.2477 1.16071 32.3513 1.19213 32.4394 1.251C32.5275 1.30986 32.5961 1.39353 32.6367 1.49142C32.6772 1.58931 32.6878 1.69702 32.6672 1.80094C32.6465 1.90486 32.5955 2.00032 32.5205 2.07524C32.4456 2.15016 32.3502 2.20118 32.2463 2.22185C32.1423 2.24252 32.0346 2.23191 31.9367 2.19136C31.8388 2.15082 31.7552 2.08215 31.6963 1.99406C31.6374 1.90596 31.606 1.80238 31.606 1.69643C31.6062 1.55439 31.6627 1.41821 31.7631 1.31778C31.8635 1.21734 31.9997 1.16085 32.1417 1.16071Z" fill="#2D4356"/>
<path d="M56.183 0.982422C56.0418 0.982422 55.9037 1.02431 55.7862 1.1028C55.6687 1.18129 55.5772 1.29284 55.5231 1.42336C55.4691 1.55388 55.4549 1.6975 55.4825 1.83606C55.51 1.97462 55.5781 2.10189 55.678 2.20178C55.7779 2.30168 55.9051 2.36971 56.0437 2.39727C56.1822 2.42483 56.3259 2.41068 56.4564 2.35662C56.5869 2.30256 56.6985 2.21101 56.7769 2.09354C56.8554 1.97608 56.8973 1.83798 56.8973 1.69671C56.8971 1.50733 56.8218 1.32578 56.6879 1.19187C56.554 1.05796 56.3724 0.982638 56.183 0.982422ZM56.183 2.05385C56.1124 2.05385 56.0434 2.0329 55.9846 1.99366C55.9259 1.95442 55.8801 1.89864 55.8531 1.83338C55.826 1.76812 55.819 1.69631 55.8328 1.62703C55.8465 1.55775 55.8806 1.49412 55.9305 1.44417C55.9804 1.39422 56.0441 1.36021 56.1134 1.34643C56.1826 1.33265 56.2544 1.33972 56.3197 1.36675C56.385 1.39378 56.4407 1.43956 56.48 1.49829C56.5192 1.55702 56.5402 1.62607 56.5402 1.69671C56.5401 1.7914 56.5024 1.88218 56.4355 1.94914C56.3685 2.0161 56.2777 2.05376 56.183 2.05385Z" fill="#2D4356"/>
<path d="M2.14397 0.982422C2.0027 0.982422 1.8646 1.02431 1.74714 1.1028C1.62967 1.18129 1.53812 1.29284 1.48406 1.42336C1.43 1.55388 1.41585 1.6975 1.44341 1.83606C1.47097 1.97462 1.539 2.10189 1.6389 2.20178C1.73879 2.30168 1.86607 2.36971 2.00462 2.39727C2.14318 2.42483 2.2868 2.41068 2.41732 2.35662C2.54784 2.30256 2.65939 2.21101 2.73788 2.09354C2.81637 1.97608 2.85826 1.83798 2.85826 1.69671C2.85804 1.50733 2.78272 1.32578 2.64881 1.19187C2.5149 1.05796 2.33335 0.982638 2.14397 0.982422ZM2.14397 2.05385C2.07334 2.05385 2.00429 2.0329 1.94556 1.99366C1.88682 1.95442 1.84105 1.89864 1.81402 1.83338C1.78699 1.76812 1.77991 1.69631 1.79369 1.62703C1.80747 1.55775 1.84149 1.49412 1.89144 1.44417C1.94138 1.39422 2.00502 1.36021 2.0743 1.34643C2.14358 1.33265 2.21539 1.33972 2.28065 1.36675C2.34591 1.39378 2.40168 1.43956 2.44093 1.49829C2.48017 1.55702 2.50112 1.62607 2.50112 1.69671C2.50102 1.7914 2.46336 1.88218 2.39641 1.94914C2.32945 2.0161 2.23866 2.05376 2.14397 2.05385Z" fill="#2D4356"/>
<path d="M55.3549 14.375C55.2136 14.375 55.0755 14.4169 54.9581 14.4954C54.8406 14.5739 54.7491 14.6854 54.695 14.8159C54.6409 14.9465 54.6268 15.0901 54.6544 15.2286C54.6819 15.3672 54.7499 15.4945 54.8498 15.5944C54.9497 15.6943 55.077 15.7623 55.2156 15.7898C55.3541 15.8174 55.4977 15.8033 55.6283 15.7492C55.7588 15.6951 55.8703 15.6036 55.9488 15.4861C56.0273 15.3687 56.0692 15.2306 56.0692 15.0893C56.069 14.8999 55.9937 14.7184 55.8597 14.5844C55.7258 14.4505 55.5443 14.3752 55.3549 14.375ZM55.3549 15.4464C55.2843 15.4464 55.2152 15.4255 55.1565 15.3862C55.0978 15.347 55.052 15.2912 55.025 15.226C54.9979 15.1607 54.9908 15.0889 55.0046 15.0196C55.0184 14.9503 55.0524 14.8867 55.1024 14.8367C55.1523 14.7868 55.216 14.7528 55.2852 14.739C55.3545 14.7252 55.4263 14.7323 55.4916 14.7593C55.5568 14.7864 55.6126 14.8321 55.6519 14.8909C55.6911 14.9496 55.7121 15.0186 55.7121 15.0893C55.712 15.184 55.6743 15.2748 55.6073 15.3417C55.5404 15.4087 55.4496 15.4463 55.3549 15.4464Z" fill="#2D4356"/>
<path d="M7.85826 8.66058C7.85826 8.5193 7.81637 8.3812 7.73788 8.26374C7.65939 8.14628 7.54784 8.05472 7.41732 8.00066C7.2868 7.9466 7.14318 7.93245 7.00462 7.96001C6.86607 7.98758 6.73879 8.0556 6.6389 8.1555C6.539 8.25539 6.47097 8.38267 6.44341 8.52122C6.41585 8.65978 6.43 8.8034 6.48406 8.93392C6.53812 9.06444 6.62967 9.176 6.74714 9.25448C6.8646 9.33297 7.0027 9.37486 7.14397 9.37486C7.33335 9.37464 7.5149 9.29932 7.64881 9.16541C7.78272 9.0315 7.85804 8.84995 7.85826 8.66058ZM6.78683 8.66058C6.78683 8.58994 6.80778 8.52089 6.84702 8.46216C6.88626 8.40343 6.94204 8.35765 7.0073 8.33062C7.07256 8.30359 7.14437 8.29651 7.21365 8.31029C7.28293 8.32408 7.34656 8.35809 7.39651 8.40804C7.44646 8.45798 7.48047 8.52162 7.49425 8.5909C7.50803 8.66018 7.50096 8.73199 7.47393 8.79725C7.4469 8.86251 7.40112 8.91829 7.34239 8.95753C7.28366 8.99677 7.21461 9.01772 7.14397 9.01772C7.04928 9.01762 6.9585 8.97997 6.89154 8.91301C6.82458 8.84605 6.78693 8.75527 6.78683 8.66058Z" fill="#2D4356"/>
<path d="M2.28844 16.2827L2.81951 15.5845L2.48415 15.3945L2.14344 16.1767H2.13201L1.78594 15.3999L1.44451 15.5956L1.97022 16.2774V16.2885L1.14844 16.1824V16.5624L1.97558 16.4563V16.4674L1.44451 17.1488L1.76308 17.3502L2.12665 16.5624H2.13737L2.47272 17.3445L2.82487 17.1435L2.28844 16.4727V16.4617L3.13201 16.5624V16.1824L2.28844 16.2942V16.2827Z" fill="#4C7DA7"/>
<path d="M58.4761 8.71551L58.1704 9.10801L58.3539 9.22408L58.5632 8.77016H58.5696L58.7625 9.22087L58.9654 9.1048L58.6564 8.71873V8.7123L59.1421 8.77016V8.55158L58.6564 8.61587V8.60944L58.9621 8.2073L58.7693 8.09766L58.5729 8.54801H58.5664L58.3671 8.10087L58.1704 8.21337L58.4732 8.60623V8.61266L58 8.55158V8.77016L58.4761 8.70908V8.71551Z" fill="#4C7DA7"/>
<path d="M44.5434 5.69126V5.3184L43.7159 5.42804V5.41733L44.2369 4.73197L43.908 4.5459L43.5737 5.31304H43.5627L43.223 4.55126L42.888 4.74304L43.4037 5.41197V5.42268L42.5977 5.3184V5.69126L43.4091 5.58733V5.59804L42.888 6.26661L43.2005 6.46411L43.5573 5.69126H43.568L43.8966 6.45876L44.2423 6.26126L43.7159 5.6034V5.59268L44.5434 5.69126Z" fill="#4C7DA7"/>
<path d="M21.5545 6.25667L22.0038 5.66595L21.7202 5.50488L21.432 6.16667H21.4223L21.1291 5.50953L20.8406 5.67524L21.2852 6.25203V6.26167L20.5898 6.17167V6.4931L21.2898 6.40345V6.41274L20.8406 6.98953L21.1098 7.15988L21.4177 6.4931H21.427L21.7106 7.15488L22.0084 6.98488L21.5545 6.41738V6.4081L22.2684 6.4931V6.17167L21.5545 6.26595V6.25667Z" fill="#4C7DA7"/>
<path d="M42.1967 55.8037H39.2297C39.0501 55.8181 38.8825 55.8996 38.7603 56.032C38.6382 56.1643 38.5703 56.3379 38.5703 56.518C38.5703 56.6981 38.6382 56.8717 38.7603 57.004C38.8825 57.1364 39.0501 57.2179 39.2297 57.2323H42.1967C42.3763 57.2179 42.5438 57.1364 42.666 57.004C42.7882 56.8717 42.856 56.6981 42.856 56.518C42.856 56.3379 42.7882 56.1643 42.666 56.032C42.5438 55.8996 42.3763 55.8181 42.1967 55.8037Z" fill="#4C7DA7"/>
<path d="M20.767 55.8037H17.8C17.6204 55.8181 17.4528 55.8996 17.3307 56.032C17.2085 56.1643 17.1406 56.3379 17.1406 56.518C17.1406 56.6981 17.2085 56.8717 17.3307 57.004C17.4528 57.1364 17.6204 57.2179 17.8 57.2323H20.767C20.9466 57.2179 21.1141 57.1364 21.2363 57.004C21.3585 56.8717 21.4264 56.6981 21.4264 56.518C21.4264 56.3379 21.3585 56.1643 21.2363 56.032C21.1141 55.8996 20.9466 55.8181 20.767 55.8037Z" fill="#4C7DA7"/>
<path d="M37.1406 55.8037H22.8549C22.6655 55.8037 22.4838 55.879 22.3498 56.0129C22.2159 56.1469 22.1406 56.3286 22.1406 56.518C22.1406 56.7074 22.2159 56.8891 22.3498 57.0231C22.4838 57.157 22.6655 57.2323 22.8549 57.2323H28.5478V57.9466H25.7121C25.5226 57.9466 25.3409 58.0218 25.207 58.1558C25.073 58.2897 24.9978 58.4714 24.9978 58.6609C24.9978 58.8503 25.073 59.032 25.207 59.1659C25.3409 59.2999 25.5226 59.3751 25.7121 59.3751H34.6406C34.8301 59.3751 35.0117 59.2999 35.1457 59.1659C35.2797 59.032 35.3549 58.8503 35.3549 58.6609C35.3549 58.4714 35.2797 58.2897 35.1457 58.1558C35.0117 58.0218 34.8301 57.9466 34.6406 57.9466H31.4478V57.2323H37.1406C37.3301 57.2323 37.5117 57.157 37.6457 57.0231C37.7797 56.8891 37.8549 56.7074 37.8549 56.518C37.8549 56.3286 37.7797 56.1469 37.6457 56.0129C37.5117 55.879 37.3301 55.8037 37.1406 55.8037Z" fill="#4C7DA7"/>
<path d="M49.2846 13.6611H34.2846C34.0952 13.6611 33.9135 13.7364 33.7795 13.8703C33.6456 14.0043 33.5703 14.186 33.5703 14.3754C33.5703 14.5649 33.6456 14.7465 33.7795 14.8805C33.9135 15.0144 34.0952 15.0897 34.2846 15.0897H49.2846C49.474 15.0897 49.6557 15.0144 49.7897 14.8805C49.9236 14.7465 49.9989 14.5649 49.9989 14.3754C49.9989 14.186 49.9236 14.0043 49.7897 13.8703C49.6557 13.7364 49.474 13.6611 49.2846 13.6611Z" fill="#2D4356"/>
<path d="M49.2846 16.5176H34.2846C34.0952 16.5176 33.9135 16.5928 33.7795 16.7268C33.6456 16.8607 33.5703 17.0424 33.5703 17.2319C33.5703 17.4213 33.6456 17.603 33.7795 17.7369C33.9135 17.8709 34.0952 17.9461 34.2846 17.9461H49.2846C49.474 17.9461 49.6557 17.8709 49.7897 17.7369C49.9236 17.603 49.9989 17.4213 49.9989 17.2319C49.9989 17.0424 49.9236 16.8607 49.7897 16.7268C49.6557 16.5928 49.474 16.5176 49.2846 16.5176Z" fill="#4C7DA7"/>
<path d="M49.2846 21.5176H34.2846C34.0952 21.5176 33.9135 21.5928 33.7795 21.7268C33.6456 21.8607 33.5703 22.0424 33.5703 22.2319C33.5703 22.4213 33.6456 22.603 33.7795 22.7369C33.9135 22.8709 34.0952 22.9461 34.2846 22.9461H49.2846C49.474 22.9461 49.6557 22.8709 49.7897 22.7369C49.9236 22.603 49.9989 22.4213 49.9989 22.2319C49.9989 22.0424 49.9236 21.8607 49.7897 21.7268C49.6557 21.5928 49.474 21.5176 49.2846 21.5176Z" fill="#2D4356"/>
<path d="M49.2846 24.375H34.2846C34.0952 24.375 33.9135 24.4503 33.7795 24.5842C33.6456 24.7182 33.5703 24.8998 33.5703 25.0893C33.5703 25.2787 33.6456 25.4604 33.7795 25.5944C33.9135 25.7283 34.0952 25.8036 34.2846 25.8036H49.2846C49.474 25.8036 49.6557 25.7283 49.7897 25.5944C49.9236 25.4604 49.9989 25.2787 49.9989 25.0893C49.9989 24.8998 49.9236 24.7182 49.7897 24.5842C49.6557 24.4503 49.474 24.375 49.2846 24.375Z" fill="#4C7DA7"/>
<path d="M49.2846 29.375H34.2846C34.0952 29.375 33.9135 29.4503 33.7795 29.5842C33.6456 29.7182 33.5703 29.8998 33.5703 30.0893C33.5703 30.2787 33.6456 30.4604 33.7795 30.5944C33.9135 30.7283 34.0952 30.8036 34.2846 30.8036H49.2846C49.474 30.8036 49.6557 30.7283 49.7897 30.5944C49.9236 30.4604 49.9989 30.2787 49.9989 30.0893C49.9989 29.8998 49.9236 29.7182 49.7897 29.5842C49.6557 29.4503 49.474 29.375 49.2846 29.375Z" fill="#2D4356"/>
<path d="M49.2846 32.2324H34.2846C34.0952 32.2324 33.9135 32.3077 33.7795 32.4416C33.6456 32.5756 33.5703 32.7573 33.5703 32.9467C33.5703 33.1361 33.6456 33.3178 33.7795 33.4518C33.9135 33.5857 34.0952 33.661 34.2846 33.661H49.2846C49.474 33.661 49.6557 33.5857 49.7897 33.4518C49.9236 33.3178 49.9989 33.1361 49.9989 32.9467C49.9989 32.7573 49.9236 32.5756 49.7897 32.4416C49.6557 32.3077 49.474 32.2324 49.2846 32.2324Z" fill="#4C7DA7"/>
<path d="M24.9994 45.8036C25.3939 45.8036 25.7137 45.4838 25.7137 45.0893C25.7137 44.6948 25.3939 44.375 24.9994 44.375C24.605 44.375 24.2852 44.6948 24.2852 45.0893C24.2852 45.4838 24.605 45.8036 24.9994 45.8036Z" fill="#2D4356"/>
<path d="M15.3619 21.0692C15.4688 21.1293 15.5894 21.1609 15.712 21.1609C15.8347 21.1609 15.9553 21.1293 16.0622 21.0692L18.9194 19.4619C19.0298 19.3998 19.1218 19.3094 19.1858 19.1999C19.2498 19.0905 19.2835 18.9661 19.2835 18.8393V15.6254C19.2835 15.4987 19.2498 15.3742 19.1858 15.2648C19.1218 15.1554 19.0298 15.065 18.9194 15.0028L16.0622 13.3955C15.9553 13.3353 15.8347 13.3037 15.712 13.3037C15.5894 13.3037 15.4688 13.3353 15.3619 13.3955L12.5047 15.0028C12.3943 15.065 12.3023 15.1554 12.2383 15.2648C12.1743 15.3742 12.1406 15.4987 12.1406 15.6254V18.8393C12.1406 18.9661 12.1743 19.0905 12.2383 19.1999C12.3023 19.3093 12.3943 19.3998 12.5047 19.4619L15.3619 21.0692ZM13.5692 16.043L15.7121 14.8377L17.8549 16.043V18.4217L15.7121 19.627L13.5692 18.4217V16.043Z" fill="#4C7DA7"/>
<path d="M15.7143 50.8036C16.1088 50.8036 16.4286 50.4838 16.4286 50.0893C16.4286 49.6948 16.1088 49.375 15.7143 49.375C15.3198 49.375 15 49.6948 15 50.0893C15 50.4838 15.3198 50.8036 15.7143 50.8036Z" fill="#4C7DA7"/>
<path d="M32.1434 13.3032C32.1434 13.1137 32.0681 12.932 31.9342 12.7981C31.8002 12.6641 31.6186 12.5889 31.4291 12.5889H26.4291C26.2397 12.5889 26.058 12.6641 25.9241 12.7981C25.7901 12.932 25.7149 13.1137 25.7148 13.3032V18.3032C25.7149 18.4926 25.7901 18.6743 25.9241 18.8082C26.058 18.9422 26.2397 19.0174 26.4291 19.0174H31.4291C31.6186 19.0174 31.8002 18.9422 31.9342 18.8082C32.0681 18.6743 32.1434 18.4926 32.1434 18.3032V13.3032ZM30.7148 17.5889H27.1434V14.0174H30.7148V17.5889Z" fill="#2D4356"/>
<path d="M32.1434 21.1606C32.1434 20.9711 32.0681 20.7895 31.9342 20.6555C31.8002 20.5216 31.6186 20.4463 31.4291 20.4463H26.4291C26.2397 20.4463 26.058 20.5216 25.9241 20.6555C25.7901 20.7895 25.7149 20.9711 25.7148 21.1606V26.1606C25.7149 26.35 25.7901 26.5317 25.9241 26.6656C26.058 26.7996 26.2397 26.8749 26.4291 26.8749H31.4291C31.6186 26.8749 31.8002 26.7996 31.9342 26.6656C32.0681 26.5317 32.1434 26.35 32.1434 26.1606V21.1606ZM30.7148 22.331C30.6855 22.347 30.6573 22.3649 30.6304 22.3847L29.31 23.4234L29.0745 23.1903C29.0079 23.1241 28.9289 23.0718 28.8421 23.0362C28.7552 23.0006 28.6622 22.9825 28.5683 22.9829C28.4745 22.9833 28.3816 23.0022 28.2951 23.0385C28.2085 23.0749 28.13 23.1279 28.0639 23.1946C27.9979 23.2613 27.9456 23.3403 27.9101 23.4272C27.8747 23.5141 27.8567 23.6071 27.8572 23.701C27.8577 23.7949 27.8767 23.8877 27.9131 23.9742C27.9495 24.0607 28.0026 24.1392 28.0694 24.2052L28.753 24.8823C28.8767 25.0049 29.041 25.078 29.2148 25.088C29.3887 25.0979 29.5602 25.044 29.6971 24.9364L30.7148 24.1359V25.4463H27.1434V21.8749H30.7148V22.331Z" fill="#2D4356"/>
<path d="M32.1434 29.018C32.1434 28.8286 32.0681 28.6469 31.9342 28.5129C31.8002 28.379 31.6186 28.3037 31.4291 28.3037H26.4291C26.2397 28.3037 26.058 28.379 25.9241 28.5129C25.7901 28.6469 25.7149 28.8286 25.7148 29.018V34.018C25.7149 34.2074 25.7901 34.3891 25.9241 34.5231C26.058 34.657 26.2397 34.7323 26.4291 34.7323H31.4291C31.6186 34.7323 31.8002 34.657 31.9342 34.5231C32.0681 34.3891 32.1434 34.2074 32.1434 34.018V29.018ZM30.7148 33.3037H27.1434V29.7323H30.7148V33.3037Z" fill="#2D4356"/>
<path d="M50.0004 10.0897C50.3792 10.0901 50.7423 10.2407 51.0102 10.5086C51.278 10.7764 51.4286 11.1395 51.429 11.5183V37.2922C51.9273 37.7938 52.2397 38.4503 52.3147 39.1533C52.3897 39.8563 52.2228 40.5639 51.8416 41.1594C52.2034 41.2337 52.5481 41.3753 52.8576 41.5769V11.5183C52.8554 10.7612 52.5537 10.0357 52.0183 9.5004C51.483 8.96506 50.7575 8.66333 50.0004 8.66113H22.1433C21.8062 8.66189 21.4719 8.72296 21.1562 8.84145C21.7171 9.20464 22.2404 9.62279 22.7184 10.0897H50.0004Z" fill="#2D4356"/>
<path d="M47.5011 44.732C47.5011 43.8844 47.2498 43.0558 46.7789 42.351C46.308 41.6463 45.6386 41.0969 44.8556 40.7726C44.0725 40.4482 43.2108 40.3633 42.3794 40.5286C41.5481 40.694 40.7845 41.1021 40.1851 41.7014C39.5857 42.3008 39.1775 43.0644 39.0121 43.8957C38.8467 44.727 38.9315 45.5887 39.2558 46.3718C39.5801 47.1549 40.1294 47.8243 40.8341 48.2953C41.5389 48.7662 42.3674 49.0176 43.215 49.0177C44.3517 49.0176 45.4418 48.5661 46.2455 47.7624C47.0493 46.9587 47.5009 45.8686 47.5011 44.732ZM43.215 47.5891C42.65 47.5891 42.0976 47.4214 41.6278 47.1075C41.158 46.7935 40.7918 46.3472 40.5756 45.8251C40.3594 45.3031 40.3029 44.7286 40.4132 44.1744C40.5235 43.6202 40.7956 43.1111 41.1952 42.7116C41.5948 42.312 42.1039 42.04 42.6581 41.9297C43.2124 41.8195 43.7868 41.8761 44.3089 42.0924C44.8309 42.3086 45.2771 42.6749 45.5911 43.1447C45.905 43.6145 46.0725 44.1669 46.0725 44.732C46.0718 45.4896 45.7704 46.2159 45.2347 46.7516C44.699 47.2872 43.9726 47.5885 43.215 47.5891Z" fill="#4C7DA7"/>
<path d="M31.4308 44.375H28.5737C28.3842 44.375 28.2025 44.4503 28.0686 44.5842C27.9346 44.7182 27.8594 44.8998 27.8594 45.0893C27.8594 45.2787 27.9346 45.4604 28.0686 45.5944C28.2025 45.7283 28.3842 45.8036 28.5737 45.8036H31.4308C31.6202 45.8036 31.8019 45.7283 31.9359 45.5944C32.0698 45.4604 32.1451 45.2787 32.1451 45.0893C32.1451 44.8998 32.0698 44.7182 31.9359 44.5842C31.8019 44.4503 31.6202 44.375 31.4308 44.375Z" fill="#4C7DA7"/>
<path d="M24.9994 48.661H31.428C31.6175 48.661 31.7991 48.5857 31.9331 48.4518C32.067 48.3178 32.1423 48.1361 32.1423 47.9467C32.1423 47.7573 32.067 47.5756 31.9331 47.4416C31.7991 47.3077 31.6175 47.2324 31.428 47.2324H24.9994C24.81 47.2324 24.6283 47.3077 24.4944 47.4416C24.3604 47.5756 24.2852 47.7573 24.2852 47.9467C24.2852 48.1361 24.3604 48.3178 24.4944 48.4518C24.6283 48.5857 24.81 48.661 24.9994 48.661Z" fill="#2D4356"/>
<path d="M31.428 41.5186H24.9994C24.81 41.5186 24.6283 41.5938 24.4944 41.7278C24.3604 41.8617 24.2852 42.0434 24.2852 42.2328C24.2852 42.4223 24.3604 42.604 24.4944 42.7379C24.6283 42.8719 24.81 42.9471 24.9994 42.9471H31.428C31.6175 42.9471 31.7991 42.8719 31.9331 42.7379C32.067 42.604 32.1423 42.4223 32.1423 42.2328C32.1423 42.0434 32.067 41.8617 31.9331 41.7278C31.7991 41.5938 31.6175 41.5186 31.428 41.5186Z" fill="#2D4356"/>
<path d="M0.714286 54.3758C1.10877 54.3758 1.42857 54.056 1.42857 53.6616C1.42857 53.2671 1.10877 52.9473 0.714286 52.9473C0.319797 52.9473 0 53.2671 0 53.6616C0 54.056 0.319797 54.3758 0.714286 54.3758Z" fill="#2D4356"/>
<path d="M3.92634 52.9473H2.85491C2.66547 52.9473 2.48379 53.0225 2.34983 53.1565C2.21588 53.2904 2.14063 53.4721 2.14062 53.6616C2.14063 53.851 2.21588 54.0327 2.34983 54.1666C2.48379 54.3006 2.66547 54.3758 2.85491 54.3758H3.92634C4.11578 54.3758 4.29746 54.3006 4.43142 54.1666C4.56537 54.0327 4.64062 53.851 4.64062 53.6616C4.64062 53.4721 4.56537 53.2904 4.43142 53.1565C4.29746 53.0225 4.11578 52.9473 3.92634 52.9473Z" fill="#2D4356"/>
<path d="M57.1451 52.9473H56.0737C55.8842 52.9473 55.7025 53.0225 55.5686 53.1565C55.4346 53.2904 55.3594 53.4721 55.3594 53.6616C55.3594 53.851 55.4346 54.0327 55.5686 54.1666C55.7025 54.3006 55.8842 54.3758 56.0737 54.3758H57.1451C57.3345 54.3758 57.5162 54.3006 57.6502 54.1666C57.7841 54.0327 57.8594 53.851 57.8594 53.6616C57.8594 53.4721 57.7841 53.2904 57.6502 53.1565C57.5162 53.0225 57.3345 52.9473 57.1451 52.9473Z" fill="#2D4356"/>
<path d="M59.2846 54.3758C59.6791 54.3758 59.9989 54.056 59.9989 53.6616C59.9989 53.2671 59.6791 52.9473 59.2846 52.9473C58.8901 52.9473 58.5703 53.2671 58.5703 53.6616C58.5703 54.056 58.8901 54.3758 59.2846 54.3758Z" fill="#2D4356"/>
<path d="M53.8272 52.9469H52.4669C52.7209 52.5136 52.8549 52.0205 52.8553 51.5183V47.8882C52.5457 48.0898 52.201 48.2315 51.839 48.3057C52.2242 48.9086 52.3902 49.6257 52.3093 50.3365C52.2283 51.0474 51.9052 51.7087 51.3943 52.2095L50.6919 52.9116C50.6795 52.9241 50.6656 52.9347 50.653 52.9469H45.3976C45.4068 52.8916 45.4128 52.8358 45.4157 52.7798V52.0672C45.9099 51.9193 46.3876 51.7211 46.8414 51.4757L47.3465 51.9814C47.4906 52.1242 47.6616 52.2371 47.8496 52.3135C48.0375 52.3899 48.2388 52.4283 48.4416 52.4265C48.908 52.4214 49.3536 52.2328 49.6819 51.9016L50.3829 51.2006C50.7014 50.9003 50.8883 50.4863 50.9028 50.0488C50.9172 49.6113 50.7581 49.1858 50.46 48.8652L49.9563 48.3612C50.2012 47.907 50.3994 47.4292 50.5479 46.9351H51.259C51.6968 46.9194 52.1105 46.7309 52.4096 46.411C52.7088 46.091 52.8691 45.6656 52.8553 45.2278V44.2373C52.8691 43.7995 52.7088 43.3741 52.4096 43.0541C52.1105 42.7342 51.6968 42.5458 51.259 42.5301H50.5479C50.3995 42.0359 50.2013 41.558 49.9563 41.1039L50.4603 40.5996C50.7585 40.2793 50.9178 39.854 50.9033 39.4166C50.8888 38.9793 50.7017 38.5654 50.3829 38.2656L49.6812 37.5629C49.3527 37.2321 48.9074 37.0438 48.4413 37.0386C48.2382 37.0369 48.0368 37.0755 47.8488 37.1521C47.6607 37.2287 47.4898 37.3419 47.3458 37.4851L46.8418 37.9891C46.3878 37.7439 45.9099 37.5457 45.4157 37.3975V36.6853C45.3999 36.2476 45.2113 35.834 44.8913 35.535C44.5713 35.2359 44.1459 35.0758 43.7081 35.0897H42.7176C42.2798 35.0758 41.8543 35.2359 41.5342 35.5349C41.2141 35.834 41.0255 36.2476 41.0096 36.6853V37.3975C40.5155 37.5456 40.0377 37.7437 39.5838 37.9887L39.0802 37.4847C38.9361 37.3416 38.7651 37.2285 38.577 37.1519C38.3889 37.0754 38.1874 37.0369 37.9844 37.0386C37.5176 37.0439 37.0717 37.2327 36.7431 37.5643L36.0449 38.2643C35.7133 38.5912 35.5241 39.0357 35.5185 39.5013C35.5165 39.7049 35.5549 39.9069 35.6315 40.0955C35.7081 40.2842 35.8213 40.4557 35.9646 40.6003L36.469 41.1043C36.2239 41.5582 36.0257 42.036 35.8774 42.5301H35.1653C34.7276 42.5459 34.314 42.7343 34.015 43.0543C33.7159 43.3742 33.5558 43.7996 33.5696 44.2373V45.2278C33.5558 45.6655 33.7159 46.0909 34.015 46.4109C34.314 46.7308 34.7276 46.9193 35.1653 46.9351H35.8774C36.0259 47.4293 36.2242 47.9071 36.4693 48.3612L35.9639 48.8655C35.666 49.1864 35.5071 49.6122 35.522 50.0498C35.5369 50.4874 35.7244 50.9014 36.0435 51.2012L36.7445 51.9023C37.0729 52.2331 37.5182 52.4214 37.9844 52.4265C38.1876 52.4281 38.3892 52.3895 38.5774 52.3129C38.7657 52.2362 38.9369 52.1231 39.0812 51.98L39.5842 51.476C40.0379 51.7213 40.5155 51.9194 41.0096 52.0672V52.7798C41.0124 52.8358 41.0185 52.8915 41.0277 52.9468H22.1411C21.9158 52.9463 21.6939 52.8924 21.4935 52.7895C21.2932 52.6866 21.12 52.5377 20.9884 52.355C20.9612 52.5546 20.9212 52.7524 20.8686 52.9469H19.3663C19.5335 52.5401 19.6158 52.1034 19.6083 51.6637V24.775C21.3229 23.9001 22.6931 22.4735 23.4982 20.7251C24.3033 18.9767 24.4965 17.0081 24.0466 15.1365C23.5967 13.2649 22.5299 11.5992 21.0181 10.4078C19.5063 9.21628 17.6374 8.56836 15.7125 8.56836C13.7876 8.56836 11.9187 9.21628 10.4069 10.4078C8.89502 11.5992 7.82824 13.2649 7.37834 15.1365C6.92844 17.0081 7.12161 18.9767 7.92674 20.7251C8.73187 22.4735 10.1021 23.9001 11.8167 24.775V51.6637C11.8092 52.1034 11.8915 52.5401 12.0586 52.9469H6.16916C6.06754 52.9336 5.96426 52.9421 5.86621 52.972C5.76817 53.0018 5.67761 53.0522 5.6006 53.1198C5.52358 53.1874 5.46188 53.2707 5.41961 53.364C5.37733 53.4574 5.35547 53.5587 5.35547 53.6611C5.35547 53.7636 5.37733 53.8649 5.41961 53.9583C5.46188 54.0516 5.52358 54.1349 5.6006 54.2025C5.67761 54.2701 5.76817 54.3205 5.86621 54.3503C5.96426 54.3801 6.06754 54.3887 6.16916 54.3754H53.8272C53.9289 54.3887 54.0321 54.3801 54.1302 54.3503C54.2282 54.3205 54.3188 54.2701 54.3958 54.2025C54.4728 54.1349 54.5345 54.0516 54.5768 53.9583C54.6191 53.8649 54.6409 53.7636 54.6409 53.6611C54.6409 53.5587 54.6191 53.4574 54.5768 53.364C54.5345 53.2707 54.4728 53.1874 54.3958 53.1198C54.3188 53.0522 54.2282 53.0018 54.1302 52.972C54.0321 52.9421 53.9289 52.9336 53.8272 52.9469ZM8.56962 17.1842C8.56171 15.9129 8.89325 14.6625 9.53002 13.5621C10.1668 12.4617 11.0857 11.5512 12.1919 10.9246C13.2981 10.298 14.5515 9.978 15.8227 9.99763C17.0939 10.0172 18.3369 10.3758 19.4232 11.0362C20.5095 11.6967 21.3999 12.6351 22.0024 13.7547C22.6049 14.8742 22.8977 16.1342 22.8506 17.4047C22.8034 18.6752 22.418 19.91 21.7342 20.9818C21.0504 22.0536 20.0929 22.9234 18.9606 23.5016L18.1797 23.8986V45.804H13.2453V23.8988L12.4644 23.5016C11.2931 22.9134 10.3086 22.0111 9.62079 20.8954C8.93298 19.7798 8.56903 18.4949 8.56962 17.1842ZM14.5434 52.9469C13.6094 52.9469 13.2453 52.5869 13.2453 51.6637V47.2326H18.1797V51.6637C18.1797 52.5869 17.8156 52.9469 16.8815 52.9469H14.5434ZM42.7176 52.9469C42.5495 52.9469 42.4382 52.8464 42.4382 52.7798V50.9397L41.8763 50.8169C41.158 50.6603 40.4735 50.3765 39.8552 49.9788L39.3708 49.6674L38.0719 50.9693C38.0144 51.0255 37.8536 50.9909 37.7542 50.8915L37.0539 50.1909C36.9332 50.0705 36.9269 49.9234 36.9743 49.8756L38.2763 48.5754L37.9669 48.0913C37.5694 47.4723 37.2854 46.7874 37.1281 46.0687L37.0057 45.5065H35.1653C35.0972 45.5065 34.9982 45.398 34.9982 45.2278V44.2373C34.9982 44.0671 35.0972 43.9587 35.1653 43.9587H37.0057L37.1281 43.3964C37.285 42.6779 37.5689 41.9932 37.9666 41.3746L38.2763 40.8905L36.9754 39.5903C36.9552 39.5661 36.9451 39.5352 36.9471 39.5038C36.9522 39.4164 36.9906 39.3344 37.0545 39.2746L37.7531 38.5746C37.8539 38.4735 38.0154 38.4393 38.0702 38.4951L39.3708 39.7964L39.8548 39.486C40.4733 39.0886 41.1577 38.8049 41.876 38.6482L42.4382 38.5258V36.6853C42.4382 36.6173 42.547 36.5183 42.7176 36.5183H43.7081C43.8783 36.5183 43.9871 36.6173 43.9871 36.6853V38.5258L44.5493 38.6482C45.2678 38.8049 45.9525 39.0888 46.5712 39.4863L47.0549 39.796L48.3562 38.4948C48.4116 38.4397 48.5728 38.4745 48.6711 38.5733L49.3725 39.2757C49.4918 39.395 49.498 39.5418 49.4499 39.5899L48.1493 40.8908L48.459 41.3746C48.8563 41.9935 49.1403 42.6783 49.2975 43.3968L49.4203 43.9586H51.259C51.3274 43.9586 51.4268 44.0671 51.4268 44.2373V45.2278C51.4268 45.398 51.3274 45.5065 51.259 45.5065H49.4203L49.2975 46.0683C49.1402 46.7871 48.8561 47.4721 48.4587 48.0912L48.1497 48.575L49.4496 49.8748C49.498 49.9237 49.4918 50.0712 49.3722 50.1912L48.6722 50.8912C48.6118 50.955 48.5293 50.9932 48.4416 50.9979C48.4108 50.9999 48.3803 50.9903 48.3562 50.9711L47.0549 49.6677L46.5704 49.9785C45.952 50.3762 45.2674 50.6602 44.549 50.8169L43.9871 50.9397V52.7798C43.9871 52.8464 43.8758 52.9469 43.7081 52.9469L42.7176 52.9469Z" fill="#2D4356"/>
</g>
<defs>
<clipPath id="clip0_2_6787">
<rect width="60" height="60" fill="white"/>
</clipPath>
</defs>
</svg>
