<svg width="60" height="60" viewBox="0 0 60 60" fill="none" xmlns="http://www.w3.org/2000/svg">
    <g clip-path="url(#clip0_715_32182)">
        <path
            d="M0.714286 52.8572C1.10877 52.8572 1.42857 52.5374 1.42857 52.1429C1.42857 51.7484 1.10877 51.4286 0.714286 51.4286C0.319797 51.4286 0 51.7484 0 52.1429C0 52.5374 0.319797 52.8572 0.714286 52.8572Z"
            fill="#2D4356" />
        <path
            d="M3.92829 51.4286H2.85686C2.66742 51.4286 2.48574 51.5038 2.35179 51.6378C2.21783 51.7718 2.14258 51.9534 2.14258 52.1429C2.14258 52.3323 2.21783 52.514 2.35179 52.648C2.48574 52.7819 2.66742 52.8572 2.85686 52.8572H3.92829C4.11773 52.8572 4.29941 52.7819 4.43337 52.648C4.56732 52.514 4.64258 52.3323 4.64258 52.1429C4.64258 51.9534 4.56732 51.7718 4.43337 51.6378C4.29941 51.5038 4.11773 51.4286 3.92829 51.4286Z"
            fill="#2D4356" />
        <path
            d="M57.1431 51.4286H56.0717C55.8823 51.4286 55.7006 51.5038 55.5666 51.6378C55.4327 51.7718 55.3574 51.9534 55.3574 52.1429C55.3574 52.3323 55.4327 52.514 55.5666 52.648C55.7006 52.7819 55.8823 52.8572 56.0717 52.8572H57.1431C57.3326 52.8572 57.5143 52.7819 57.6482 52.648C57.7822 52.514 57.8574 52.3323 57.8574 52.1429C57.8574 51.9534 57.7822 51.7718 57.6482 51.6378C57.5143 51.5038 57.3326 51.4286 57.1431 51.4286Z"
            fill="#2D4356" />
        <path
            d="M59.2866 52.8572C59.681 52.8572 60.0008 52.5374 60.0008 52.1429C60.0008 51.7484 59.681 51.4286 59.2866 51.4286C58.8921 51.4286 58.5723 51.7484 58.5723 52.1429C58.5723 52.5374 58.8921 52.8572 59.2866 52.8572Z"
            fill="#2D4356" />
        <path
            d="M42.1985 54.2858H39.2314C39.0515 54.2997 38.8835 54.381 38.7609 54.5134C38.6384 54.6459 38.5703 54.8196 38.5703 55.0001C38.5703 55.1805 38.6384 55.3543 38.7609 55.4867C38.8835 55.6191 39.0515 55.7004 39.2314 55.7143H42.1985C42.3784 55.7004 42.5464 55.6191 42.6689 55.4867C42.7915 55.3543 42.8596 55.1805 42.8596 55.0001C42.8596 54.8196 42.7915 54.6459 42.6689 54.5134C42.5464 54.381 42.3784 54.2997 42.1985 54.2858Z"
            fill="#0BCEB2" />
        <path
            d="M20.7688 54.2858H17.8017C17.6218 54.2997 17.4538 54.381 17.3312 54.5134C17.2087 54.6459 17.1406 54.8196 17.1406 55.0001C17.1406 55.1805 17.2087 55.3543 17.3312 55.4867C17.4538 55.6191 17.6218 55.7004 17.8017 55.7143H20.7688C20.9487 55.7004 21.1167 55.6191 21.2393 55.4867C21.3618 55.3543 21.4299 55.1805 21.4299 55.0001C21.4299 54.8196 21.3618 54.6459 21.2393 54.5134C21.1167 54.381 20.9487 54.2997 20.7688 54.2858Z"
            fill="#0BCEB2" />
        <path
            d="M37.1426 54.2858H22.8569C22.6674 54.2858 22.4857 54.361 22.3518 54.495C22.2178 54.6289 22.1426 54.8106 22.1426 55.0001C22.1426 55.1895 22.2178 55.3712 22.3518 55.5051C22.4857 55.6391 22.6674 55.7143 22.8569 55.7143H28.5497V56.4286H25.714C25.5246 56.4286 25.3429 56.5039 25.2089 56.6378C25.075 56.7718 24.9997 56.9535 24.9997 57.1429C24.9997 57.3323 25.075 57.514 25.2089 57.648C25.3429 57.7819 25.5246 57.8572 25.714 57.8572H34.6426C34.832 57.8572 35.0137 57.7819 35.1477 57.648C35.2816 57.514 35.3569 57.3323 35.3569 57.1429C35.3569 56.9535 35.2816 56.7718 35.1477 56.6378C35.0137 56.5039 34.832 56.4286 34.6426 56.4286H31.4497V55.7143H37.1426C37.332 55.7143 37.5137 55.6391 37.6477 55.5051C37.7816 55.3712 37.8569 55.1895 37.8569 55.0001C37.8569 54.8106 37.7816 54.6289 37.6477 54.495C37.5137 54.361 37.332 54.2858 37.1426 54.2858Z"
            fill="#0BCEB2" />
        <path
            d="M53.8283 51.4285H52.7318C52.8134 51.1992 52.8557 50.9577 52.8568 50.7143V24.9821C52.853 24.8337 52.8031 24.6901 52.714 24.5714L47.7854 18C47.5851 17.7346 47.3261 17.5192 47.0287 17.3705C46.7313 17.2218 46.4036 17.1439 46.0711 17.1428H13.5997C13.2555 17.1434 12.9165 17.2268 12.6113 17.3859C12.3061 17.545 12.0436 17.7752 11.8461 18.0571C11.8461 18.0571 7.27111 24.5893 7.26754 24.5964C7.19256 24.7182 7.14956 24.8571 7.14254 25V50.7143C7.14366 50.9577 7.18592 51.1992 7.26754 51.4285H6.17111C6.06949 51.4153 5.96621 51.4238 5.86817 51.4536C5.77012 51.4835 5.67957 51.5339 5.60255 51.6015C5.52553 51.6691 5.46383 51.7523 5.42156 51.8457C5.37929 51.939 5.35742 52.0403 5.35742 52.1428C5.35742 52.2453 5.37929 52.3466 5.42156 52.44C5.46383 52.5333 5.52553 52.6166 5.60255 52.6842C5.67957 52.7518 5.77012 52.8022 5.86817 52.832C5.96621 52.8618 6.06949 52.8704 6.17111 52.8571H53.8283C53.9299 52.8704 54.0331 52.8618 54.1312 52.832C54.2292 52.8022 54.3198 52.7518 54.3968 52.6842C54.4738 52.6166 54.5355 52.5333 54.5778 52.44C54.6201 52.3466 54.6419 52.2453 54.6419 52.1428C54.6419 52.0403 54.6201 51.939 54.5778 51.8457C54.5355 51.7523 54.4738 51.6691 54.3968 51.6015C54.3198 51.5339 54.2292 51.4835 54.1312 51.4536C54.0331 51.4238 53.9299 51.4153 53.8283 51.4285ZM46.0711 18.5714C46.1819 18.5718 46.2912 18.5977 46.3903 18.6473C46.4894 18.6969 46.5758 18.7687 46.6425 18.8571L50.714 24.2857H33.8318L33.0104 18.5714H46.0711ZM28.3675 18.5714H31.5675L32.389 24.2857H27.6033L28.3675 18.5714ZM27.4997 25.7143H32.4997V32.825L30.439 31.2214C30.3132 31.1241 30.1587 31.0714 29.9997 31.0714C29.8407 31.0714 29.6862 31.1241 29.5604 31.2214L27.4997 32.825V25.7143ZM13.014 18.875C13.0805 18.7815 13.1683 18.7053 13.2702 18.6525C13.372 18.5997 13.485 18.5719 13.5997 18.5714H26.9247L26.1604 24.2857H9.22825L13.014 18.875ZM51.4283 50.7143C51.4277 50.9035 51.3522 51.0849 51.2184 51.2187C51.0846 51.3525 50.9032 51.428 50.714 51.4285H9.28539C9.09613 51.428 8.91477 51.3525 8.78094 51.2187C8.64711 51.0849 8.57167 50.9035 8.57111 50.7143V25.7143H26.0711V34.2857C26.0709 34.4196 26.1083 34.5508 26.1791 34.6644C26.2499 34.7781 26.3513 34.8695 26.4715 34.9284C26.5918 34.9872 26.7262 35.011 26.8593 34.9972C26.9925 34.9833 27.1191 34.9323 27.2247 34.85L29.9997 32.6893L32.7747 34.85C32.9002 34.9477 33.0549 35.0005 33.214 35C33.3227 34.9993 33.4299 34.9749 33.5282 34.9285C33.6478 34.8688 33.7485 34.7772 33.8192 34.6637C33.8898 34.5502 33.9275 34.4193 33.9283 34.2857V25.7143H51.4283V50.7143Z"
            fill="#2D4356" />
        <path d="M8.57227 48.5714H51.4294V50H8.57227V48.5714Z" fill="#0BCEB2" />
        <path
            d="M19.6423 25.7142V34.2857C19.6416 34.4193 19.6038 34.5502 19.5332 34.6636C19.4626 34.7771 19.3619 34.8688 19.2423 34.9285C19.144 34.9749 19.0367 34.9993 18.928 34.9999C18.7689 35.0005 18.6142 34.9477 18.4887 34.8499L15.7137 32.6892L12.9387 34.8499C12.8332 34.9323 12.7066 34.9833 12.5734 34.9972C12.4402 35.011 12.3058 34.9872 12.1856 34.9283C12.0653 34.8695 11.964 34.7781 11.8932 34.6644C11.8224 34.5508 11.785 34.4195 11.7852 34.2857V25.7142H13.2137V32.8249L15.2744 31.2214C15.4002 31.1241 15.5547 31.0714 15.7137 31.0714C15.8727 31.0714 16.0272 31.1241 16.153 31.2214L18.2137 32.8249V25.7142H19.6423Z"
            fill="#0BCEB2" />
        <path
            d="M48.2146 25.7142V34.2857C48.2138 34.4193 48.1761 34.5502 48.1055 34.6636C48.0349 34.7771 47.9342 34.8688 47.8146 34.9285C47.7162 34.9749 47.609 34.9993 47.5003 34.9999C47.3412 35.0005 47.1865 34.9477 47.061 34.8499L44.286 32.6892L41.511 34.8499C41.4054 34.9323 41.2788 34.9833 41.1457 34.9972C41.0125 35.011 40.8781 34.9872 40.7578 34.9283C40.6376 34.8695 40.5363 34.7781 40.4655 34.6644C40.3947 34.5508 40.3572 34.4195 40.3574 34.2857V25.7142H41.786V32.8249L43.8467 31.2214C43.9725 31.1241 44.127 31.0714 44.286 31.0714C44.445 31.0714 44.5995 31.1241 44.7253 31.2214L46.786 32.8249V25.7142H48.2146Z"
            fill="#0BCEB2" />
        <path
            d="M17.1437 14.6429C17.3556 14.6429 17.5628 14.58 17.7389 14.4623C17.9151 14.3446 18.0525 14.1772 18.1336 13.9814C18.2147 13.7857 18.2359 13.5702 18.1945 13.3624C18.1532 13.1546 18.0512 12.9637 17.9013 12.8138C17.7515 12.664 17.5606 12.5619 17.3527 12.5206C17.1449 12.4792 16.9295 12.5005 16.7337 12.5816C16.5379 12.6627 16.3706 12.8 16.2528 12.9762C16.1351 13.1524 16.0723 13.3595 16.0723 13.5714C16.0723 13.8556 16.1851 14.1281 16.3861 14.329C16.587 14.53 16.8595 14.6429 17.1437 14.6429ZM17.1437 13.0357C17.2496 13.0357 17.3532 13.0671 17.4413 13.126C17.5294 13.1849 17.5981 13.2685 17.6386 13.3664C17.6792 13.4643 17.6898 13.572 17.6691 13.6759C17.6484 13.7799 17.5974 13.8753 17.5225 13.9502C17.4476 14.0252 17.3521 14.0762 17.2482 14.0968C17.1443 14.1175 17.0366 14.1069 16.9387 14.0664C16.8408 14.0258 16.7571 13.9572 16.6983 13.8691C16.6394 13.781 16.608 13.6774 16.608 13.5714C16.608 13.4293 16.6644 13.2931 16.7649 13.1926C16.8654 13.0922 17.0016 13.0357 17.1437 13.0357Z"
            fill="#2D4356" />
        <path
            d="M49.5248 12.8571C49.3836 12.8571 49.2455 12.8989 49.128 12.9774C49.0105 13.0559 48.919 13.1675 48.8649 13.298C48.8109 13.4285 48.7967 13.5721 48.8243 13.7107C48.8518 13.8493 48.9199 13.9765 49.0198 14.0764C49.1197 14.1763 49.2469 14.2443 49.3855 14.2719C49.524 14.2995 49.6677 14.2853 49.7982 14.2313C49.9287 14.1772 50.0403 14.0856 50.1187 13.9682C50.1972 13.8507 50.2391 13.7126 50.2391 13.5713C50.2391 13.3819 50.1639 13.2002 50.0299 13.0663C49.896 12.9323 49.7143 12.8571 49.5248 12.8571ZM49.5248 13.9285C49.4542 13.9285 49.3851 13.9075 49.3264 13.8683C49.2677 13.8291 49.2219 13.7733 49.1949 13.708C49.1678 13.6428 49.1608 13.5709 49.1746 13.5017C49.1883 13.4324 49.2223 13.3688 49.2723 13.3188C49.3222 13.2689 49.3859 13.2348 49.4552 13.2211C49.5244 13.2073 49.5962 13.2144 49.6615 13.2414C49.7268 13.2684 49.7825 13.3142 49.8218 13.3729C49.861 13.4317 49.882 13.5007 49.882 13.5713C49.882 13.6661 49.8443 13.7569 49.7774 13.8239C49.7104 13.8909 49.6196 13.9285 49.5248 13.9285Z"
            fill="#2D4356" />
        <path
            d="M40.7143 4.34424C40.573 4.34424 40.4349 4.38613 40.3175 4.46462C40.2 4.5431 40.1084 4.65466 40.0544 4.78518C40.0003 4.9157 39.9862 5.05932 40.0137 5.19787C40.0413 5.33643 40.1093 5.46371 40.2092 5.5636C40.3091 5.6635 40.4364 5.73152 40.5749 5.75909C40.7135 5.78665 40.8571 5.7725 40.9876 5.71844C41.1181 5.66438 41.2297 5.57282 41.3082 5.45536C41.3867 5.3379 41.4286 5.1998 41.4286 5.05852C41.4286 4.86908 41.3533 4.6874 41.2194 4.55345C41.0854 4.41949 40.9037 4.34424 40.7143 4.34424ZM40.7143 5.41567C40.6436 5.41567 40.5746 5.39472 40.5159 5.35548C40.4571 5.31623 40.4114 5.26046 40.3843 5.1952C40.3573 5.12994 40.3502 5.05813 40.364 4.98885C40.3778 4.91957 40.4118 4.85593 40.4617 4.80599C40.5117 4.75604 40.5753 4.72202 40.6446 4.70824C40.7139 4.69446 40.7857 4.70154 40.851 4.72857C40.9162 4.7556 40.972 4.80137 41.0112 4.86011C41.0505 4.91884 41.0714 4.98789 41.0714 5.05852C41.0714 5.15324 41.0338 5.24409 40.9668 5.31106C40.8998 5.37804 40.809 5.41567 40.7143 5.41567Z"
            fill="#2D4356" />
        <path
            d="M56.5366 2.14282C56.3953 2.14282 56.2572 2.18471 56.1397 2.2632C56.0223 2.34169 55.9307 2.45324 55.8766 2.58376C55.8226 2.71428 55.8084 2.8579 55.836 2.99646C55.8636 3.13502 55.9316 3.26229 56.0315 3.36218C56.1314 3.46208 56.2586 3.53011 56.3972 3.55767C56.5358 3.58523 56.6794 3.57108 56.8099 3.51702C56.9404 3.46296 57.052 3.37141 57.1305 3.25394C57.2089 3.13648 57.2508 2.99838 57.2508 2.85711C57.2508 2.66767 57.1756 2.48599 57.0416 2.35203C56.9077 2.21808 56.726 2.14282 56.5366 2.14282ZM56.5366 3.21425C56.4659 3.21425 56.3969 3.1933 56.3381 3.15406C56.2794 3.11482 56.2336 3.05904 56.2066 2.99378C56.1796 2.92852 56.1725 2.85671 56.1863 2.78743C56.2001 2.71815 56.2341 2.65452 56.284 2.60457C56.334 2.55462 56.3976 2.52061 56.4669 2.50683C56.5362 2.49305 56.608 2.50012 56.6732 2.52715C56.7385 2.55418 56.7943 2.59996 56.8335 2.65869C56.8727 2.71742 56.8937 2.78647 56.8937 2.85711C56.8937 2.95183 56.8561 3.04267 56.7891 3.10965C56.7221 3.17662 56.6313 3.21425 56.5366 3.21425Z"
            fill="#2D4356" />
        <path
            d="M6.17857 8.57134C6.17857 8.43007 6.13668 8.29197 6.05819 8.17451C5.97971 8.05704 5.86815 7.96549 5.73763 7.91143C5.60711 7.85737 5.46349 7.84322 5.32494 7.87078C5.18638 7.89834 5.0591 7.96637 4.95921 8.06627C4.85931 8.16616 4.79129 8.29343 4.76373 8.43199C4.73616 8.57055 4.75031 8.71417 4.80437 8.84469C4.85843 8.97521 4.94999 9.08676 5.06745 9.16525C5.18491 9.24374 5.32301 9.28563 5.46429 9.28563C5.65373 9.28563 5.83541 9.21037 5.96936 9.07642C6.10332 8.94246 6.17857 8.76078 6.17857 8.57134ZM5.10714 8.57134C5.10714 8.50071 5.12809 8.43166 5.16733 8.37292C5.20658 8.31419 5.26235 8.26842 5.32761 8.24138C5.39287 8.21435 5.46468 8.20728 5.53396 8.22106C5.60324 8.23484 5.66688 8.26886 5.71682 8.3188C5.76677 8.36875 5.80079 8.43239 5.81457 8.50167C5.82835 8.57095 5.82127 8.64275 5.79424 8.70801C5.76721 8.77327 5.72144 8.82905 5.6627 8.8683C5.60397 8.90754 5.53492 8.92848 5.46429 8.92848C5.36957 8.92848 5.27873 8.89086 5.21175 8.82388C5.14477 8.7569 5.10714 8.66606 5.10714 8.57134Z"
            fill="#2D4356" />
        <path
            d="M3.8884 23.2182L4.41948 22.52L4.08412 22.33L3.74305 23.1121H3.73198L3.38555 22.3353L3.04448 22.531L3.56983 23.2128V23.2239L2.74805 23.1178V23.4978L3.57519 23.3917V23.4028L3.04448 24.0842L3.36269 24.2857L3.72626 23.4978H3.73733L4.07269 24.28L4.42483 24.0789L3.8884 23.4082V23.3971L4.73198 23.4978V23.1178L3.8884 23.2292V23.2182Z"
            fill="#0BCEB2" />
        <path
            d="M25.5077 3.26898L25.202 3.66148L25.3852 3.77755L25.5948 3.32362H25.6009L25.7941 3.77434L25.997 3.65827L25.688 3.27219V3.26577L26.1738 3.32362V3.10505L25.688 3.16934V3.16291L25.9937 2.76077L25.8005 2.65112L25.6045 3.10148H25.5977L25.3984 2.65434L25.202 2.76684L25.5045 3.15969V3.16612L25.0312 3.10505V3.32362L25.5077 3.26255V3.26898Z"
            fill="#0BCEB2" />
        <path
            d="M57.1528 22.5161V22.1436L56.3252 22.2532V22.2422L56.846 21.5572L56.517 21.3707L56.1827 22.1379H56.1717L55.832 21.3761L55.4974 21.5679L56.0127 22.2368V22.2479L55.207 22.1436V22.5161L56.0181 22.4122V22.4232L55.4974 23.0918L55.8099 23.2893L56.1663 22.5161H56.177L56.506 23.2836L56.8513 23.0864L56.3252 22.4286V22.4175L57.1528 22.5161Z"
            fill="#0BCEB2" />
        <path
            d="M35.2384 13.4957L35.6877 12.9046L35.4038 12.7439L35.1156 13.4057H35.1059L34.8131 12.7485L34.5242 12.9143L34.9688 13.491V13.5003L34.2734 13.4107V13.7321L34.9734 13.6425V13.6518L34.5242 14.2285L34.7938 14.3989L35.1013 13.7321H35.1106L35.3942 14.3939L35.6924 14.2239L35.2384 13.6564V13.6471L35.952 13.7321V13.4107L35.2384 13.505V13.4957Z"
            fill="#0BCEB2" />
    </g>
    <defs>
        <clipPath id="clip0_715_32182">
            <rect width="60" height="60" fill="white" />
        </clipPath>
    </defs>
</svg>