<svg width="60" height="60" viewBox="0 0 60 60" fill="none" xmlns="http://www.w3.org/2000/svg">
<g clip-path="url(#clip0_2_6953)">
<path d="M0.714286 54.286C1.10877 54.286 1.42857 53.9662 1.42857 53.5717C1.42857 53.1772 1.10877 52.8574 0.714286 52.8574C0.319797 52.8574 0 53.1772 0 53.5717C0 53.9662 0.319797 54.286 0.714286 54.286Z" fill="#2D4356"/>
<path d="M3.92634 52.8574H2.85491C2.66547 52.8574 2.48379 52.9327 2.34983 53.0666C2.21588 53.2006 2.14063 53.3823 2.14062 53.5717C2.14063 53.7611 2.21588 53.9428 2.34983 54.0768C2.48379 54.2107 2.66547 54.286 2.85491 54.286H3.92634C4.11578 54.286 4.29746 54.2107 4.43142 54.0768C4.56537 53.9428 4.64062 53.7611 4.64062 53.5717C4.64062 53.3823 4.56537 53.2006 4.43142 53.0666C4.29746 52.9327 4.11578 52.8574 3.92634 52.8574Z" fill="#2D4356"/>
<path d="M57.1451 52.8574H56.0737C55.8842 52.8574 55.7025 52.9327 55.5686 53.0666C55.4346 53.2006 55.3594 53.3823 55.3594 53.5717C55.3594 53.7611 55.4346 53.9428 55.5686 54.0768C55.7025 54.2107 55.8842 54.286 56.0737 54.286H57.1451C57.3345 54.286 57.5162 54.2107 57.6502 54.0768C57.7841 53.9428 57.8594 53.7611 57.8594 53.5717C57.8594 53.3823 57.7841 53.2006 57.6502 53.0666C57.5162 52.9327 57.3345 52.8574 57.1451 52.8574Z" fill="#2D4356"/>
<path d="M59.2846 54.286C59.6791 54.286 59.9989 53.9662 59.9989 53.5717C59.9989 53.1772 59.6791 52.8574 59.2846 52.8574C58.8901 52.8574 58.5703 53.1772 58.5703 53.5717C58.5703 53.9662 58.8901 54.286 59.2846 54.286Z" fill="#2D4356"/>
<path d="M42.1967 55.7139H39.2297C39.0501 55.7283 38.8825 55.8097 38.7603 55.9421C38.6382 56.0745 38.5703 56.248 38.5703 56.4282C38.5703 56.6083 38.6382 56.7818 38.7603 56.9142C38.8825 57.0466 39.0501 57.1281 39.2297 57.1424H42.1967C42.3763 57.1281 42.5438 57.0466 42.666 56.9142C42.7882 56.7818 42.856 56.6083 42.856 56.4282C42.856 56.248 42.7882 56.0745 42.666 55.9421C42.5438 55.8097 42.3763 55.7283 42.1967 55.7139Z" fill="#4C7DA7"/>
<path d="M20.767 55.7139H17.8C17.6204 55.7283 17.4528 55.8097 17.3307 55.9421C17.2085 56.0745 17.1406 56.248 17.1406 56.4282C17.1406 56.6083 17.2085 56.7818 17.3307 56.9142C17.4528 57.0466 17.6204 57.1281 17.8 57.1424H20.767C20.9466 57.1281 21.1141 57.0466 21.2363 56.9142C21.3585 56.7818 21.4264 56.6083 21.4264 56.4282C21.4264 56.248 21.3585 56.0745 21.2363 55.9421C21.1141 55.8097 20.9466 55.7283 20.767 55.7139Z" fill="#4C7DA7"/>
<path d="M37.1406 55.7139H22.8549C22.6655 55.7139 22.4838 55.7891 22.3498 55.9231C22.2159 56.057 22.1406 56.2387 22.1406 56.4282C22.1406 56.6176 22.2159 56.7993 22.3498 56.9332C22.4838 57.0672 22.6655 57.1424 22.8549 57.1424H28.5478V57.8567H25.7121C25.5226 57.8567 25.3409 57.932 25.207 58.0659C25.073 58.1999 24.9978 58.3816 24.9978 58.571C24.9978 58.7605 25.073 58.9421 25.207 59.0761C25.3409 59.21 25.5226 59.2853 25.7121 59.2853H34.6406C34.8301 59.2853 35.0117 59.21 35.1457 59.0761C35.2797 58.9421 35.3549 58.7605 35.3549 58.571C35.3549 58.3816 35.2797 58.1999 35.1457 58.0659C35.0117 57.932 34.8301 57.8567 34.6406 57.8567H31.4478V57.1424H37.1406C37.3301 57.1424 37.5117 57.0672 37.6457 56.9332C37.7797 56.7993 37.8549 56.6176 37.8549 56.4282C37.8549 56.2387 37.7797 56.057 37.6457 55.9231C37.5117 55.7891 37.3301 55.7139 37.1406 55.7139Z" fill="#4C7DA7"/>
<path d="M7.23143 23.6245L8.24393 26.1309C8.36904 26.4392 8.61125 26.6852 8.91748 26.8151C9.2237 26.9451 9.56895 26.9483 9.87755 26.8241L10.2654 26.6675C10.8831 27.5193 11.6245 28.2742 12.4651 28.9072L12.3019 29.2917C12.1725 29.5981 12.1698 29.9433 12.2945 30.2516C12.4191 30.56 12.661 30.8063 12.967 30.9367L15.4551 31.9927C15.7618 32.1192 16.1059 32.1204 16.4134 31.9961C16.721 31.8718 16.9676 31.6319 17.1003 31.3278L17.2632 30.944C18.3026 31.1089 19.3608 31.1179 20.4028 30.9705L20.5594 31.3578C20.6872 31.6639 20.9296 31.9078 21.2349 32.0374C21.5402 32.1671 21.8841 32.1721 22.1931 32.0515L24.699 31.039C25.0073 30.914 25.2535 30.6718 25.3836 30.3656C25.5136 30.0593 25.5169 29.714 25.3927 29.4054L25.2358 29.0177C26.0876 28.4 26.8426 27.6586 27.4756 26.818L27.8596 26.9809C28.166 27.1105 28.5113 27.1133 28.8198 26.9887C29.1282 26.864 29.3747 26.6222 29.5051 26.3161L30.5615 23.8276C30.6909 23.5212 30.6936 23.176 30.5689 22.8676C30.4442 22.5592 30.2024 22.3129 29.8964 22.1825L29.5124 22.0196C29.6773 20.9803 29.6862 19.9222 29.5389 18.8803L29.9264 18.7237C30.2347 18.5987 30.4809 18.3566 30.6109 18.0504C30.741 17.7442 30.7443 17.3989 30.6201 17.0902L29.6076 14.5838C29.4825 14.2755 29.2403 14.0294 28.9341 13.8995C28.6278 13.7696 28.2826 13.7664 27.974 13.8906L27.5861 14.0472C26.9684 13.1954 26.227 12.4405 25.3864 11.8075L25.5497 11.423C25.6791 11.1166 25.6817 10.7714 25.5571 10.4631C25.4324 10.1547 25.1905 9.90837 24.8845 9.77803L22.3964 8.72196C22.0898 8.5952 21.7456 8.59382 21.438 8.71813C21.1303 8.84244 20.8837 9.08251 20.7512 9.38672L20.588 9.77072C19.5487 9.60576 18.4907 9.59683 17.4487 9.74421L17.2921 9.3569C17.1644 9.05079 16.922 8.80681 16.6167 8.67717C16.3114 8.54752 15.9674 8.54251 15.6585 8.66319L13.1526 9.67569C12.8442 9.80069 12.598 10.0429 12.468 10.3491C12.338 10.6554 12.3347 11.0007 12.4589 11.3093L12.6158 11.697C11.7639 12.3147 11.009 13.0561 10.376 13.8967L9.99195 13.7338C9.68558 13.6039 9.34015 13.6009 9.03158 13.7256C8.72302 13.8502 8.47658 14.0923 8.34644 14.3986L7.29002 16.8871C7.16062 17.1935 7.15797 17.5387 7.28263 17.8471C7.4073 18.1555 7.64913 18.4018 7.95512 18.5322L8.33912 18.6951C8.17426 19.7344 8.16532 20.7925 8.31262 21.8344L7.92512 21.991C7.6168 22.116 7.37063 22.3581 7.24059 22.6643C7.11055 22.9705 7.10726 23.3158 7.23143 23.6245ZM9.37987 22.944C9.53389 22.8818 9.6614 22.7678 9.74047 22.6217C9.81953 22.4756 9.84519 22.3066 9.81304 22.1436C9.56837 20.9107 9.57917 19.6407 9.84478 18.4121C9.87973 18.2497 9.85699 18.0802 9.78048 17.9327C9.70397 17.7853 9.57846 17.6691 9.42556 17.6041L8.67327 17.285L9.59368 15.1165L10.346 15.4358C10.4989 15.5006 10.6696 15.5102 10.8288 15.4628C10.9879 15.4155 11.1256 15.3142 11.2183 15.1763C11.9174 14.1318 12.8235 13.2418 13.8804 12.5616C14.02 12.4714 14.1237 12.3355 14.1739 12.1771C14.224 12.0188 14.2175 11.8479 14.1553 11.6938L13.8487 10.9353L16.0327 10.0529L16.3393 10.8116C16.4015 10.9657 16.5154 11.0932 16.6615 11.1723C16.8076 11.2513 16.9767 11.277 17.1397 11.2448C18.3726 11 19.6426 11.0107 20.8712 11.2762C21.0336 11.3114 21.2032 11.2887 21.3507 11.2122C21.4981 11.1356 21.6143 11.01 21.679 10.857L21.9985 10.1048L24.1664 11.0251L23.8473 11.7775C23.7824 11.9304 23.7727 12.1012 23.8201 12.2604C23.8675 12.4196 23.9688 12.5573 24.1068 12.6498C25.1514 13.3489 26.0413 14.255 26.7215 15.312C26.8116 15.4517 26.9475 15.5555 27.1059 15.6057C27.2643 15.6559 27.4353 15.6492 27.5893 15.5868L28.3482 15.2803L29.2303 17.4641L28.4717 17.7707C28.3177 17.8329 28.1901 17.9469 28.1111 18.0929C28.032 18.239 28.0064 18.4081 28.0385 18.5711C28.2832 19.804 28.2724 21.074 28.0068 22.3026C27.9718 22.465 27.9945 22.6345 28.0711 22.782C28.1476 22.9294 28.2731 23.0456 28.426 23.1106L29.1783 23.4297L28.2579 25.5982L27.5056 25.2789C27.3527 25.2138 27.1819 25.2041 27.0227 25.2515C26.8634 25.2988 26.7257 25.4003 26.6333 25.5384C25.9341 26.5829 25.0281 27.4729 23.9711 28.1531C23.8316 28.2433 23.7278 28.3792 23.6777 28.5376C23.6275 28.6959 23.6341 28.8668 23.6963 29.0209L24.0028 29.7794L21.8188 30.6618L21.5123 29.9031C21.45 29.7491 21.336 29.6217 21.1899 29.5426C21.0438 29.4636 20.8748 29.4379 20.7118 29.4699C19.4789 29.7147 18.2089 29.704 16.9803 29.4385C16.8179 29.4037 16.6485 29.4265 16.5011 29.503C16.3538 29.5795 16.2376 29.7049 16.1726 29.8577L15.8531 30.6099L13.6851 29.6896L14.0042 28.9372C14.0692 28.7843 14.0788 28.6136 14.0314 28.4543C13.9841 28.2951 13.8827 28.1574 13.7447 28.0649C12.7002 27.3658 11.8102 26.4597 11.13 25.4027C11.0399 25.2631 10.904 25.1593 10.7456 25.1091C10.5872 25.059 10.4163 25.0656 10.2623 25.1279L9.50333 25.4345L8.62128 23.2506L9.37987 22.944Z" fill="#2D4356"/>
<path d="M18.9286 26.7859C20.2 26.7859 21.4429 26.4088 22.5001 25.7024C23.5573 24.9961 24.3812 23.9921 24.8678 22.8174C25.3544 21.6427 25.4817 20.3502 25.2336 19.1031C24.9856 17.8561 24.3733 16.7107 23.4743 15.8116C22.5752 14.9125 21.4297 14.3003 20.1827 14.0522C18.9357 13.8042 17.6431 13.9315 16.4685 14.4181C15.2938 14.9046 14.2898 15.7286 13.5834 16.7858C12.877 17.8429 12.5 19.0858 12.5 20.3573C12.5019 22.0617 13.1799 23.6957 14.385 24.9008C15.5902 26.106 17.2242 26.7839 18.9286 26.7859ZM18.9286 15.3573C19.9175 15.3573 20.8842 15.6505 21.7064 16.1999C22.5287 16.7493 23.1695 17.5302 23.548 18.4439C23.9264 19.3575 24.0254 20.3628 23.8325 21.3327C23.6396 22.3026 23.1634 23.1936 22.4641 23.8928C21.7648 24.5921 20.8739 25.0683 19.904 25.2612C18.9341 25.4541 17.9288 25.3551 17.0152 24.9767C16.1015 24.5982 15.3206 23.9574 14.7712 23.1351C14.2218 22.3129 13.9286 21.3462 13.9286 20.3573C13.9301 19.0317 14.4573 17.7608 15.3947 16.8234C16.332 15.886 17.6029 15.3588 18.9286 15.3573Z" fill="#4C7DA7"/>
<path d="M46.7145 42.6697C47.3162 40.8371 47.2826 38.8552 46.6192 37.044C45.9558 35.2329 44.7012 33.6982 43.0582 32.6878C41.4151 31.6775 39.4794 31.2504 37.5638 31.4757C35.6481 31.7009 33.8643 32.5653 32.5004 33.9292C31.1365 35.2931 30.2722 37.077 30.047 38.9926C29.8217 40.9083 30.2488 42.844 31.2592 44.487C32.2696 46.13 33.8043 47.3846 35.6155 48.048C37.4266 48.7114 39.4086 48.7449 41.2412 48.1432L40.0775 46.9795C38.567 47.3077 36.9907 47.1378 35.5847 46.4954C34.1788 45.8529 33.0186 44.7724 32.278 43.4156C31.5374 42.0588 31.256 40.4986 31.4761 38.9685C31.6962 37.4384 32.4059 36.0208 33.4989 34.9277C34.592 33.8346 36.0096 33.1249 37.5397 32.9048C39.0697 32.6847 40.63 32.966 41.9868 33.7066C43.3436 34.4472 44.4242 35.6074 45.0666 37.0133C45.7091 38.4193 45.879 39.9955 45.5509 41.5061L46.7145 42.6697Z" fill="#4C7DA7"/>
<path d="M32.8588 9.99986C41.6842 9.99986 48.8991 16.9356 49.2366 25.5863L48.2519 24.7508C48.1804 24.6899 48.0976 24.6436 48.0082 24.6147C47.9188 24.5858 47.8246 24.5748 47.731 24.5823C47.6373 24.5899 47.5461 24.6158 47.4625 24.6587C47.3789 24.7016 47.3045 24.7605 47.2438 24.8321C47.183 24.9038 47.1369 24.9867 47.1082 25.0762C47.0795 25.1656 47.0688 25.2599 47.0766 25.3535C47.0844 25.4471 47.1105 25.5383 47.1536 25.6218C47.1967 25.7053 47.2558 25.7794 47.3276 25.8401L49.505 27.6873C49.6351 27.7946 49.7985 27.8533 49.9671 27.8533C50.1358 27.8533 50.2992 27.7946 50.4293 27.6873L52.6067 25.8401C52.6784 25.7794 52.7376 25.7053 52.7807 25.6218C52.8237 25.5383 52.8499 25.4471 52.8577 25.3535C52.8655 25.2599 52.8548 25.1656 52.8261 25.0762C52.7974 24.9867 52.7513 24.9038 52.6905 24.8321C52.6298 24.7605 52.5554 24.7016 52.4718 24.6587C52.3882 24.6158 52.297 24.5899 52.2033 24.5823C52.1097 24.5748 52.0155 24.5858 51.9261 24.6147C51.8367 24.6436 51.7539 24.6899 51.6824 24.7508L50.6659 25.6132C50.3417 16.1622 42.481 8.57129 32.8588 8.57129C32.6694 8.57129 32.4877 8.64654 32.3537 8.7805C32.2198 8.91445 32.1445 9.09613 32.1445 9.28557C32.1445 9.47502 32.2198 9.6567 32.3537 9.79065C32.4877 9.92461 32.6694 9.99986 32.8588 9.99986Z" fill="#2D4356"/>
<path d="M53.8311 52.8567H52.5909C52.8174 52.4322 52.9042 51.947 52.8391 51.4703C52.774 50.9936 52.5603 50.5495 52.2283 50.2012L43.7985 41.7715C43.7106 41.684 43.6473 41.5748 43.6151 41.455C43.5828 41.3352 43.5827 41.209 43.6147 41.0892C43.8545 40.2836 43.8749 39.4286 43.674 38.6125C43.473 37.7964 43.0578 37.0487 42.4714 36.4467C41.8116 35.8017 40.9885 35.3487 40.0906 35.1364C39.1927 34.9242 38.2539 34.9606 37.3752 35.2418C37.261 35.2819 37.1588 35.3502 37.078 35.4402C36.9972 35.5302 36.9403 35.6391 36.9126 35.7569C36.8849 35.8747 36.8873 35.9975 36.9195 36.1141C36.9518 36.2307 37.0129 36.3374 37.0972 36.4242C37.0972 36.4242 39.2981 38.6249 39.3004 38.6272C39.8482 39.1749 39.65 40.0734 39.1487 40.5749C38.5704 41.1533 37.6971 41.2217 37.2011 40.7264L34.9983 38.5234C34.9113 38.4395 34.8047 38.3787 34.6882 38.3467C34.5717 38.3146 34.449 38.3123 34.3313 38.3399C34.2137 38.3676 34.1049 38.4243 34.0148 38.5049C33.9248 38.5855 33.8564 38.6873 33.8159 38.8012C33.5346 39.68 33.4981 40.6188 33.7104 41.5167C33.9226 42.4147 34.3756 43.2378 35.0206 43.8976C35.6228 44.484 36.3705 44.8991 37.1867 45.1C38.0028 45.3009 38.8578 45.2804 39.6634 45.0406C39.7833 45.0087 39.9094 45.009 40.0291 45.0412C40.1489 45.0735 40.258 45.1368 40.3456 45.2246L47.9777 52.8567H41.5496V52.3153C42.5278 52.0805 43.474 51.7286 44.3679 51.2672L43.3001 50.1995C42.4714 50.5842 41.5985 50.8655 40.701 51.0372C40.5379 51.0684 40.3907 51.1556 40.2848 51.2836C40.179 51.4117 40.1211 51.5726 40.121 51.7387V52.8567H37.026V51.7387C37.026 51.5726 36.9681 51.4117 36.8622 51.2836C36.7564 51.1556 36.6092 51.0684 36.446 51.0372C34.9513 50.753 33.5307 50.165 32.2723 49.3097C32.1348 49.2166 31.9691 49.1743 31.8038 49.19C31.6385 49.2057 31.4837 49.2784 31.3662 49.3957L30.5765 50.1851L28.3877 47.9966L29.1773 47.207C29.2947 47.0895 29.3676 46.9348 29.3833 46.7695C29.399 46.6041 29.3566 46.4385 29.2634 46.301C28.4081 45.0425 27.82 43.6219 27.5356 42.1271C27.5044 41.9639 27.4173 41.8168 27.2893 41.711C27.1612 41.6051 27.0003 41.5472 26.8342 41.5473H25.7164V38.4519H26.8342C27.0003 38.4519 27.1612 38.394 27.2892 38.2882C27.4173 38.1824 27.5044 38.0352 27.5356 37.8721C27.82 36.3772 28.4081 34.9566 29.2634 33.6981C29.3566 33.5607 29.399 33.395 29.3833 33.2297C29.3676 33.0643 29.2947 32.9096 29.1773 32.7922L28.3876 32.0026L30.5765 29.814L31.3662 30.6035C31.4837 30.7209 31.6384 30.7937 31.8037 30.8094C31.9691 30.8251 32.1348 30.7827 32.2723 30.6895C33.5307 29.8341 34.9512 29.2462 36.446 28.962C36.6092 28.9307 36.7564 28.8436 36.8622 28.7155C36.9681 28.5875 37.026 28.4266 37.026 28.2604V27.1424H40.121V28.2604C40.1211 28.4266 40.179 28.5875 40.2848 28.7155C40.3907 28.8436 40.5379 28.9307 40.701 28.962C42.1958 29.2462 43.6164 29.8341 44.8748 30.6895C45.0122 30.7827 45.1779 30.8252 45.3433 30.8095C45.5087 30.7938 45.6634 30.7209 45.7809 30.6035L46.5705 29.814L48.7594 32.0026L47.9698 32.7922C47.8523 32.9096 47.7795 33.0643 47.7638 33.2297C47.748 33.395 47.7904 33.5607 47.8836 33.6981C48.739 34.9566 49.327 36.3772 49.6115 37.8721C49.6427 38.0352 49.7298 38.1824 49.8578 38.2882C49.9858 38.394 50.1467 38.4519 50.3128 38.4519H51.4307V41.5473H50.3129C50.1468 41.5472 49.9858 41.6051 49.8578 41.711C49.7298 41.8168 49.6427 41.9639 49.6115 42.1271C49.4397 43.0245 49.1583 43.8974 48.7736 44.7262L49.8414 45.794C50.3027 44.9002 50.6546 43.9539 50.8894 42.9758H51.4987C51.8594 42.9754 52.2052 42.8319 52.4603 42.5769C52.7154 42.3218 52.8588 41.976 52.8592 41.6153V38.3839C52.8588 38.0232 52.7154 37.6774 52.4603 37.4223C52.2052 37.1672 51.8594 37.0237 51.4987 37.0233H50.8894C50.5829 35.7423 50.0761 34.5177 49.3876 33.3947L49.818 32.9643C50.0724 32.7088 50.2153 32.3629 50.2152 32.0022C50.2152 31.6416 50.0722 31.2957 49.8176 31.0403L47.5328 28.7559C47.2736 28.5085 46.9291 28.3704 46.5708 28.3704C46.2125 28.3703 45.8679 28.5082 45.6086 28.7555L45.1782 29.1857C44.0553 28.4972 42.8307 27.9904 41.5496 27.6839V27.0744C41.5492 26.7137 41.4057 26.3679 41.1507 26.1128C40.8956 25.8578 40.5498 25.7143 40.189 25.7139H36.958C36.5973 25.7143 36.2515 25.8578 35.9964 26.1128C35.7413 26.3679 35.5979 26.7137 35.5975 27.0744V27.6839C34.3164 27.9904 33.0918 28.4972 31.9688 29.1857L31.5388 28.7559C31.2796 28.5085 30.9351 28.3704 30.5768 28.3704C30.2185 28.3703 29.8739 28.5082 29.6146 28.7555L27.3291 31.0407C27.0746 31.2961 26.9318 31.642 26.9318 32.0026C26.9319 32.3632 27.0749 32.7091 27.3295 32.9645L27.7595 33.3947C27.071 34.5176 26.5642 35.7423 26.2577 37.0233H25.6484C25.2877 37.0237 24.9418 37.1672 24.6868 37.4223C24.4317 37.6773 24.2882 38.0232 24.2878 38.3839V41.6153C24.2882 41.976 24.4317 42.3218 24.6868 42.5769C24.9418 42.8319 25.2877 42.9754 25.6484 42.9758H26.2577C26.5641 44.2569 27.071 45.4815 27.7595 46.6045L27.3291 47.0348C27.0746 47.2903 26.9318 47.6363 26.9318 47.9969C26.9319 48.3575 27.0749 48.7034 27.3295 48.9588L29.6143 51.2433C29.8735 51.4907 30.218 51.6287 30.5763 51.6288C30.9346 51.6289 31.2792 51.4909 31.5385 51.2437L31.9688 50.8134C33.0918 51.502 34.3164 52.0088 35.5975 52.3153V52.8567H27.8592C23.4663 52.8673 19.24 51.1755 16.0679 48.1364C12.8957 45.0974 11.0244 40.9475 10.8468 36.5581L11.9127 37.4649C12.0581 37.5851 12.2446 37.6438 12.4326 37.6286C12.6206 37.6134 12.7953 37.5256 12.9196 37.3836C12.9804 37.3122 13.0265 37.2295 13.0553 37.1402C13.0842 37.0509 13.0951 36.9568 13.0876 36.8633C13.08 36.7698 13.0541 36.6787 13.0114 36.5952C12.9686 36.5117 12.9098 36.4375 12.8383 36.3767L10.58 34.4555C10.4508 34.3457 10.2868 34.2853 10.1172 34.2853C9.94762 34.2853 9.78357 34.3457 9.65438 34.4555L7.39642 36.3767C7.32497 36.4375 7.26619 36.5118 7.22344 36.5953C7.18069 36.6788 7.1548 36.7698 7.14725 36.8633C7.13971 36.9568 7.15065 37.0509 7.17946 37.1402C7.20827 37.2295 7.25438 37.3122 7.31516 37.3836C7.37594 37.4551 7.45019 37.5139 7.53369 37.5566C7.61718 37.5994 7.70828 37.6253 7.80178 37.6328C7.89528 37.6403 7.98935 37.6294 8.07862 37.6006C8.16789 37.5718 8.25061 37.5257 8.32207 37.4649L9.41754 36.5328C9.53849 40.0511 10.6684 43.4604 12.6726 46.3547C14.6768 49.2489 17.4708 51.5059 20.7217 52.8567H6.17306C6.07145 52.8434 5.96816 52.852 5.87012 52.8818C5.77207 52.9116 5.68152 52.962 5.6045 53.0296C5.52749 53.0973 5.46578 53.1805 5.42351 53.2739C5.38124 53.3672 5.35938 53.4685 5.35938 53.571C5.35938 53.6735 5.38124 53.7748 5.42351 53.8681C5.46578 53.9615 5.52749 54.0448 5.6045 54.1124C5.68152 54.18 5.77207 54.2304 5.87012 54.2602C5.96816 54.29 6.07145 54.2986 6.17306 54.2853H50.3217L50.3254 54.2855L50.3287 54.2853H53.8311C53.9328 54.2986 54.036 54.29 54.1341 54.2602C54.2321 54.2304 54.3227 54.18 54.3997 54.1124C54.4767 54.0448 54.5384 53.9615 54.5807 53.8681C54.623 53.7748 54.6448 53.6735 54.6448 53.571C54.6448 53.4685 54.623 53.3672 54.5807 53.2739C54.5384 53.1805 54.4767 53.0973 54.3997 53.0296C54.3227 52.962 54.2321 52.9116 54.1341 52.8818C54.036 52.852 53.9328 52.8434 53.8311 52.8567ZM41.3557 44.2143C41.0884 43.9513 40.7576 43.7622 40.3954 43.6654C40.0331 43.5685 39.652 43.5673 39.2892 43.6619C38.7262 43.8341 38.1275 43.8532 37.5548 43.7171C36.982 43.5809 36.4559 43.2945 36.0306 42.8874C35.4218 42.257 35.0592 41.4291 35.0087 40.5541L36.1911 41.7365C37.2433 42.7889 39.0231 42.7212 40.1587 41.5851C41.2104 40.5329 41.405 38.711 40.3104 37.6171L39.1281 36.4348C40.003 36.4854 40.8309 36.8481 41.4614 37.4569C41.8684 37.8821 42.1548 38.4081 42.291 38.9808C42.4271 39.5535 42.4081 40.1522 42.236 40.7151C42.1384 41.0777 42.1382 41.4596 42.2351 41.8224C42.3321 42.1852 42.523 42.516 42.7884 42.7816L51.2183 51.2112C51.3734 51.4022 51.4475 51.6465 51.4246 51.8915C51.4017 52.1366 51.2837 52.3629 51.0958 52.5219C50.9059 52.7179 50.6501 52.8368 50.3777 52.8555C50.2696 52.8643 50.1609 52.8501 50.0587 52.8136C49.9565 52.7772 49.8633 52.7194 49.7852 52.6441L41.3557 44.2143Z" fill="#2D4356"/>
<path d="M32.1769 7.18973C32.3888 7.18973 32.596 7.12689 32.7722 7.00916C32.9483 6.89143 33.0857 6.7241 33.1668 6.52832C33.2479 6.33254 33.2691 6.11712 33.2277 5.90928C33.1864 5.70144 33.0844 5.51053 32.9345 5.36069C32.7847 5.21085 32.5938 5.1088 32.3859 5.06746C32.1781 5.02612 31.9627 5.04734 31.7669 5.12843C31.5711 5.20953 31.4038 5.34685 31.286 5.52305C31.1683 5.69925 31.1055 5.9064 31.1055 6.1183C31.1058 6.40236 31.2188 6.6747 31.4196 6.87556C31.6205 7.07642 31.8928 7.18941 32.1769 7.18973ZM32.1769 5.58259C32.2829 5.58259 32.3864 5.61401 32.4745 5.67287C32.5626 5.73174 32.6313 5.81541 32.6718 5.91329C32.7124 6.01118 32.723 6.1189 32.7023 6.22282C32.6816 6.32674 32.6306 6.42219 32.5557 6.49711C32.4808 6.57203 32.3853 6.62305 32.2814 6.64372C32.1775 6.6644 32.0698 6.65379 31.9719 6.61324C31.874 6.57269 31.7903 6.50403 31.7315 6.41593C31.6726 6.32783 31.6412 6.22426 31.6412 6.1183C31.6413 5.97627 31.6978 5.84009 31.7982 5.73965C31.8987 5.63922 32.0349 5.58273 32.1769 5.58259Z" fill="#2D4356"/>
<path d="M57.683 2.78516C57.5418 2.78516 57.4037 2.82705 57.2862 2.90554C57.1687 2.98402 57.0772 3.09558 57.0231 3.2261C56.9691 3.35662 56.9549 3.50023 56.9825 3.63879C57.01 3.77735 57.0781 3.90462 57.178 4.00452C57.2779 4.10441 57.4051 4.17244 57.5437 4.2C57.6822 4.22756 57.8259 4.21342 57.9564 4.15936C58.0869 4.10529 58.1985 4.01374 58.2769 3.89628C58.3554 3.77881 58.3973 3.64071 58.3973 3.49944C58.3971 3.31007 58.3218 3.12851 58.1879 2.9946C58.054 2.8607 57.8724 2.78537 57.683 2.78516ZM57.683 3.85658C57.6124 3.85658 57.5434 3.83564 57.4846 3.7964C57.4259 3.75715 57.3801 3.70137 57.3531 3.63611C57.326 3.57086 57.319 3.49905 57.3328 3.42977C57.3465 3.36049 57.3806 3.29685 57.4305 3.2469C57.4804 3.19696 57.5441 3.16294 57.6134 3.14916C57.6826 3.13538 57.7544 3.14245 57.8197 3.16948C57.885 3.19652 57.9407 3.24229 57.98 3.30102C58.0192 3.35976 58.0402 3.42881 58.0402 3.49944C58.0401 3.59413 58.0024 3.68492 57.9355 3.75188C57.8685 3.81883 57.7777 3.85649 57.683 3.85658Z" fill="#2D4356"/>
<path d="M1.25335 13.499C1.11208 13.499 0.973976 13.5409 0.856513 13.6194C0.739049 13.6979 0.647497 13.8094 0.593435 13.94C0.539372 14.0705 0.525227 14.2141 0.552788 14.3527C0.580348 14.4912 0.648378 14.6185 0.748272 14.7184C0.848167 14.8183 0.97544 14.8863 1.114 14.9139C1.25256 14.9414 1.39618 14.9273 1.52669 14.8732C1.65721 14.8192 1.76877 14.7276 1.84726 14.6101C1.92574 14.4927 1.96763 14.3546 1.96763 14.2133C1.96742 14.0239 1.89209 13.8424 1.75819 13.7085C1.62428 13.5746 1.44272 13.4992 1.25335 13.499ZM1.25335 14.5705C1.18271 14.5705 1.11366 14.5495 1.05493 14.5103C0.996199 14.471 0.950423 14.4152 0.923392 14.35C0.89636 14.2847 0.889288 14.2129 0.903068 14.1436C0.916848 14.0744 0.950863 14.0107 1.00081 13.9608C1.05076 13.9108 1.11439 13.8768 1.18367 13.863C1.25295 13.8492 1.32476 13.8563 1.39002 13.8834C1.45528 13.9104 1.51106 13.9562 1.5503 14.0149C1.58955 14.0736 1.61049 14.1427 1.61049 14.2133C1.6104 14.308 1.57274 14.3988 1.50578 14.4657C1.43883 14.5327 1.34804 14.5704 1.25335 14.5705Z" fill="#2D4356"/>
<path d="M48.6049 9.7793C48.4636 9.7793 48.3255 9.82119 48.2081 9.89968C48.0906 9.97816 47.9991 10.0897 47.945 10.2202C47.8909 10.3508 47.8768 10.4944 47.9043 10.6329C47.9319 10.7715 47.9999 10.8988 48.0998 10.9987C48.1997 11.0986 48.327 11.1666 48.4656 11.1941C48.6041 11.2217 48.7477 11.2076 48.8783 11.1535C49.0088 11.0994 49.1203 11.0079 49.1988 10.8904C49.2773 10.773 49.3192 10.6349 49.3192 10.4936C49.319 10.3042 49.2437 10.1227 49.1097 9.98875C48.9758 9.85484 48.7943 9.77951 48.6049 9.7793ZM48.6049 10.8507C48.5343 10.8507 48.4652 10.8298 48.4065 10.7905C48.3478 10.7513 48.302 10.6955 48.275 10.6303C48.2479 10.565 48.2409 10.4932 48.2546 10.4239C48.2684 10.3546 48.3024 10.291 48.3524 10.241C48.4023 10.1911 48.466 10.1571 48.5352 10.1433C48.6045 10.1295 48.6763 10.1366 48.7416 10.1636C48.8068 10.1907 48.8626 10.2364 48.9019 10.2952C48.9411 10.3539 48.9621 10.4229 48.9621 10.4936C48.962 10.5883 48.9243 10.6791 48.8573 10.746C48.7904 10.813 48.6996 10.8506 48.6049 10.8507Z" fill="#2D4356"/>
<path d="M4.85435 1.83245C4.85435 1.69118 4.81246 1.55308 4.73397 1.43561C4.65549 1.31815 4.54393 1.2266 4.41341 1.17254C4.28289 1.11847 4.13928 1.10433 4.00072 1.13189C3.86216 1.15945 3.73489 1.22748 3.63499 1.32737C3.5351 1.42727 3.46707 1.55454 3.43951 1.6931C3.41195 1.83166 3.42609 1.97528 3.48015 2.1058C3.53422 2.23631 3.62577 2.34787 3.74323 2.42636C3.8607 2.50484 3.9988 2.54674 4.14007 2.54674C4.32944 2.54652 4.511 2.4712 4.6449 2.33729C4.77881 2.20338 4.85414 2.02182 4.85435 1.83245ZM3.78292 1.83245C3.78292 1.76181 3.80387 1.69276 3.84311 1.63403C3.88236 1.5753 3.93814 1.52952 4.00339 1.50249C4.06865 1.47546 4.14046 1.46839 4.20974 1.48217C4.27902 1.49595 4.34266 1.52996 4.39261 1.57991C4.44255 1.62986 4.47657 1.6935 4.49035 1.76278C4.50413 1.83205 4.49706 1.90386 4.47002 1.96912C4.44299 2.03438 4.39722 2.09016 4.33849 2.1294C4.27975 2.16865 4.2107 2.18959 4.14007 2.18959C4.04538 2.1895 3.95459 2.15184 3.88763 2.08488C3.82068 2.01793 3.78302 1.92714 3.78292 1.83245Z" fill="#2D4356"/>
<path d="M10.8705 7.41556L11.4015 6.71734L11.0662 6.52734L10.7255 7.30949H10.714L10.368 6.5327L10.0265 6.72842L10.5523 7.4102V7.42127L9.73047 7.3152V7.6952L10.5576 7.58913V7.6002L10.0265 8.28163L10.3451 8.48306L10.7087 7.6952H10.7194L11.0548 8.47734L11.4069 8.27627L10.8705 7.60556V7.59449L11.714 7.6952V7.3152L10.8705 7.42699V7.41556Z" fill="#4C7DA7"/>
<path d="M22.5624 2.5329L22.2567 2.9254L22.4399 3.04111L22.6492 2.58754H22.6556L22.8488 3.0379L23.0513 2.92218L22.7427 2.53575V2.52968L23.2284 2.58754V2.36861L22.7427 2.4329V2.42647L23.0484 2.02432L22.8552 1.91504L22.6588 2.3654H22.6524L22.4531 1.91825L22.2567 2.03075L22.5592 2.42325V2.42968L22.0859 2.36861V2.58754L22.5624 2.52647V2.5329Z" fill="#4C7DA7"/>
<path d="M59.4613 14.5799V14.2074L58.6342 14.3167V14.306L59.1549 13.621L58.826 13.4346L58.4917 14.2017H58.4806L58.141 13.4399L57.8063 13.6317L58.3217 14.3006V14.3114L57.5156 14.2074V14.5799L58.327 14.476V14.4867L57.8063 15.1553L58.1185 15.3528L58.4753 14.5799H58.486L58.8149 15.3474L59.1603 15.1499L58.6342 14.4921V14.4814L59.4613 14.5799Z" fill="#4C7DA7"/>
<path d="M39.7615 1.46565L40.2108 0.874582L39.9269 0.713867L39.6387 1.37565H39.629L39.3362 0.71851L39.0472 0.883867L39.4919 1.46101V1.4703L38.7969 1.3803V1.70208L39.4965 1.61208V1.62172L39.0472 2.19815L39.3169 2.36851L39.6244 1.70208H39.6337L39.9176 2.36387L40.2154 2.19351L39.7615 1.62637V1.61672L40.4751 1.70208V1.3803L39.7615 1.47494V1.46565Z" fill="#4C7DA7"/>
</g>
<defs>
<clipPath id="clip0_2_6953">
<rect width="60" height="60" fill="white"/>
</clipPath>
</defs>
</svg>
