<svg width="60" height="60" viewBox="0 0 60 60" fill="none" xmlns="http://www.w3.org/2000/svg">
<g clip-path="url(#clip0_2_6757)">
<path d="M46.7851 18.7496C46.7856 17.7731 46.4525 16.8258 45.841 16.0646C45.2294 15.3034 44.3762 14.7739 43.4226 14.564C42.4689 14.3541 41.4722 14.4763 40.5976 14.9104C39.7229 15.3445 39.0228 16.0643 38.6133 16.9507C38.9972 16.7842 39.4114 16.6985 39.8299 16.6991C40.0385 16.6998 40.2466 16.7208 40.4511 16.7619C40.7146 16.4895 41.0298 16.2724 41.3781 16.1231C41.7264 15.9738 42.101 15.8954 42.48 15.8924C42.859 15.8895 43.2347 15.962 43.5854 16.1058C43.936 16.2496 44.2545 16.4618 44.5222 16.7301C44.79 16.9983 45.0016 17.3171 45.1448 17.668C45.288 18.0189 45.3599 18.3948 45.3563 18.7738C45.3526 19.1527 45.2736 19.5272 45.1237 19.8752C44.9738 20.2233 44.7561 20.5381 44.4833 20.8011C44.6062 21.4182 44.5403 22.0581 44.2943 22.6372C45.0374 22.2948 45.667 21.7467 46.1084 21.0578C46.5498 20.3688 46.7846 19.5678 46.7851 18.7496Z" fill="#4C7DA7"/>
<path d="M50.2035 11.8056L49.4458 11.0467C49.1323 10.7132 48.6997 10.5172 48.2422 10.5015C47.7848 10.4858 47.3397 10.6517 47.0042 10.963L46.4299 11.5371C45.9194 11.258 45.3804 11.0344 44.8223 10.8702V10.059C44.8053 9.60139 44.6078 9.16918 44.2729 8.85688C43.9381 8.54458 43.4931 8.37762 43.0355 8.39253H41.9655C41.5078 8.37758 41.0628 8.54452 40.7279 8.85681C40.393 9.16911 40.1954 9.60134 40.1784 10.059V10.8702C39.6203 11.0344 39.0815 11.2578 38.571 11.5367L37.9971 10.9623C37.6609 10.6516 37.2156 10.4863 36.7581 10.5023C36.3006 10.5184 35.8679 10.7144 35.5542 11.0477L34.7991 11.8042C34.4646 12.1172 34.2678 12.5499 34.2517 13.0077C34.2355 13.4654 34.4014 13.9109 34.7129 14.2467L35.2877 14.8207C35.0086 15.3312 34.7851 15.8701 34.621 16.4282H34.2266V17.3957C34.6632 17.5286 35.0926 17.6822 35.5148 17.8568H35.7507L35.8731 17.2946C36.044 16.5121 36.3531 15.7663 36.786 15.0924L37.0961 14.6083L35.7238 13.2373C35.6441 13.1571 35.663 12.9601 35.8088 12.815L36.5639 12.0585C36.7142 11.9085 36.9081 11.8935 36.9873 11.973L38.3586 13.3454L38.8427 13.0354C39.5164 12.6024 40.2621 12.2933 41.0445 12.1226L41.6069 12.0002V10.059C41.6069 9.9463 41.7541 9.8211 41.9655 9.8211H43.0355C43.2406 9.8211 43.3937 9.94665 43.3937 10.059V12.0002L43.9561 12.1226C44.7385 12.2932 45.4842 12.6023 46.1579 13.0354L46.6418 13.3451L48.0142 11.973C48.0826 11.9331 48.1633 11.9196 48.241 11.9351C48.3187 11.9505 48.388 11.9939 48.4359 12.0571L49.1927 12.8153C49.3371 12.9597 49.3559 13.1567 49.2766 13.2363L47.905 14.6087L48.2149 15.0924C48.6476 15.7667 48.9568 16.5126 49.128 17.2953L49.2508 17.8568H51.1902C51.303 17.8568 51.4287 18.0036 51.4287 18.2143V19.2847C51.4287 19.4894 51.3028 19.6425 51.1902 19.6425H49.2508L49.128 20.2041C48.9565 20.9869 48.6472 21.733 48.2146 22.4076L47.9052 22.8913L49.2763 24.2627C49.356 24.3426 49.3369 24.5407 49.1931 24.6851L48.4368 25.4412C48.3888 25.5043 48.3195 25.5477 48.2418 25.5635C48.1641 25.5793 48.0834 25.5663 48.0146 25.527L46.6418 24.1525L46.1574 24.4633C45.4836 24.8965 44.7379 25.206 43.9554 25.377L43.3937 25.5002V25.7381C43.5671 26.159 43.7206 26.5875 43.8541 27.0236H44.8223V26.6288C45.3804 26.4646 45.9193 26.2411 46.4298 25.9619L47.0045 26.5374C47.3406 26.848 47.7857 27.0133 48.243 26.9973C48.7003 26.9813 49.1328 26.7853 49.4463 26.452L50.204 25.6944C50.5371 25.3807 50.7327 24.9481 50.7482 24.4908C50.7638 24.0335 50.598 23.5886 50.287 23.253L49.7129 22.679C49.9918 22.1683 50.2154 21.6293 50.3798 21.0711H51.1901C51.6477 21.0542 52.08 20.8568 52.3924 20.522C52.7049 20.1872 52.872 19.7423 52.8573 19.2847V18.2143C52.872 17.7567 52.7048 17.3118 52.3924 16.9771C52.08 16.6424 51.6477 16.4451 51.1901 16.4282H50.3798C50.2155 15.87 49.992 15.331 49.7131 14.8204L50.2874 14.246C50.5984 13.9105 50.7641 13.4657 50.7484 13.0085C50.7327 12.5513 50.5368 12.1189 50.2035 11.8056Z" fill="#2D4356"/>
<path d="M37.1451 31.429C37.1451 30.0163 36.7262 28.6353 35.9413 27.4606C35.1564 26.286 34.0409 25.3705 32.7357 24.8299C31.4305 24.2892 29.9943 24.1478 28.6087 24.4234C27.2232 24.699 25.9504 25.3793 24.9515 26.3782C23.9525 27.3772 23.2722 28.6499 22.9966 30.0355C22.721 31.4211 22.8625 32.8573 23.4031 34.1624C23.9437 35.4676 24.8592 36.5832 26.0339 37.3681C27.2085 38.1529 28.5895 38.5719 30.0022 38.5719C31.8966 38.5717 33.7133 37.8191 35.0529 36.4796C36.3924 35.1401 37.145 33.3234 37.1451 31.429ZM30.0022 37.1433C28.8721 37.1433 27.7673 36.8081 26.8275 36.1802C25.8878 35.5524 25.1554 34.6599 24.7229 33.6158C24.2904 32.5716 24.1773 31.4227 24.3977 30.3142C24.6182 29.2057 25.1625 28.1875 25.9616 27.3884C26.7608 26.5892 27.779 26.045 28.8874 25.8245C29.9959 25.604 31.1448 25.7172 32.189 26.1497C33.2331 26.5822 34.1256 27.3146 34.7535 28.2543C35.3814 29.194 35.7165 30.2988 35.7165 31.429C35.7148 32.944 35.1122 34.3964 34.041 35.4677C32.9697 36.539 31.5172 37.1416 30.0022 37.1433Z" fill="#4C7DA7"/>
<path d="M14.8715 28.6307C14.4046 28.6594 13.9681 28.8718 13.6575 29.2215C13.3468 29.5712 13.1873 30.0297 13.2138 30.4966V32.3596C13.1877 32.8265 13.3474 33.2848 13.658 33.6344C13.9685 33.984 14.4048 34.1966 14.8715 34.2257H17.2484C17.4422 35.1095 17.7284 35.9705 18.1023 36.7944C18.4889 36.5061 18.8956 36.2459 19.3195 36.0158C19.0277 35.3409 18.8016 34.6396 18.6442 33.9214L18.399 32.7971H14.8715C14.805 32.7971 14.6424 32.6438 14.6424 32.3596V30.4966C14.6424 30.2126 14.805 30.0593 14.8715 30.0593H18.399L18.6442 28.9351C18.937 27.5944 19.4669 26.3168 20.2088 25.1623L20.8291 24.194L20.0156 23.3812L18.3339 21.7007C18.3111 21.6645 18.3015 21.6215 18.3068 21.5791C18.3204 21.4445 18.3829 21.3195 18.4825 21.228L19.7973 19.9111C19.8945 19.8069 20.0279 19.7439 20.1701 19.735C20.2059 19.7323 20.2416 19.7421 20.2711 19.7627L21.9516 21.4439L22.7644 22.2571L23.7325 21.6369C24.8869 20.8951 26.1645 20.3655 27.5052 20.0731L28.6298 19.8283V16.3004C28.6298 16.2338 28.7836 16.0711 29.0686 16.0711H30.9311C31.2154 16.0711 31.3688 16.2338 31.3688 16.3004V19.8285L32.4936 20.0732C33.8346 20.3656 35.1125 20.8952 36.2671 21.6371L37.2349 22.2568L38.0475 21.4442L39.7295 19.7624C39.7588 19.742 39.7942 19.7323 39.8298 19.735C39.9711 19.7436 40.1037 19.8059 40.2004 19.9092L41.5183 21.2285C41.7188 21.4292 41.7115 21.6532 41.6651 21.6997L39.9833 23.3816L39.1704 24.1946L39.7907 25.1625C40.5326 26.3172 41.0626 27.5949 41.3557 28.9357L41.6013 30.0593H45.1268C45.1935 30.0593 45.3567 30.2126 45.3567 30.4966V32.3596C45.3567 32.6438 45.1935 32.7972 45.1268 32.7972H41.6012L41.3557 33.9208C41.198 34.6392 40.9717 35.3408 40.6799 36.016C41.1037 36.2461 41.5105 36.5063 41.897 36.7947C42.2709 35.9706 42.5572 35.1096 42.7513 34.2257H45.1268C45.5935 34.1964 46.0297 33.9838 46.3404 33.6343C46.6511 33.2847 46.8109 32.8266 46.7852 32.3596V30.4966C46.8114 30.0296 46.6516 29.5712 46.3409 29.2216C46.0301 28.872 45.5937 28.6595 45.1268 28.6307H42.7513C42.4215 27.1246 41.8263 25.6893 40.9935 24.3918L42.6753 22.7098C42.9844 22.3592 43.1425 21.9007 43.1151 21.4341C43.0877 20.9674 42.8769 20.5306 42.5288 20.2187L41.2111 18.8996C40.847 18.5273 40.3505 18.3141 39.8298 18.3064C39.6243 18.3035 39.4202 18.3414 39.2295 18.4181C39.0388 18.4947 38.8652 18.6085 38.7188 18.7528L37.0374 20.434C35.7397 19.6011 34.3039 19.0062 32.7973 18.6773V16.3004C32.7685 15.8335 32.556 15.397 32.2063 15.0863C31.8566 14.7757 31.3981 14.6161 30.9311 14.6425H29.0686C28.6015 14.616 28.1428 14.7754 27.7929 15.0861C27.4429 15.3968 27.2302 15.8334 27.2013 16.3004V18.6773C25.695 19.0063 24.2594 19.6012 22.962 20.434L21.2816 18.7528C21.1351 18.6085 20.9614 18.4948 20.7707 18.4181C20.5799 18.3415 20.3758 18.3035 20.1702 18.3064C19.6494 18.3141 19.1528 18.5273 18.7886 18.8996L17.4716 20.2187C17.1227 20.53 16.9113 20.9668 16.8834 21.4335C16.8555 21.9003 17.0134 22.3591 17.3227 22.7098L19.0059 24.3918C18.173 25.6892 17.5779 27.1246 17.2484 28.6307L14.8715 28.6307Z" fill="#2D4356"/>
<path d="M29.9994 44.4647C30.3939 44.4647 30.7137 44.1449 30.7137 43.7504C30.7137 43.3559 30.3939 43.0361 29.9994 43.0361C29.605 43.0361 29.2852 43.3559 29.2852 43.7504C29.2852 44.1449 29.605 44.4647 29.9994 44.4647Z" fill="#4C7DA7"/>
<path d="M29.9994 47.3211C30.3939 47.3211 30.7137 47.0014 30.7137 46.6069C30.7137 46.2124 30.3939 45.8926 29.9994 45.8926C29.605 45.8926 29.2852 46.2124 29.2852 46.6069C29.2852 47.0014 29.605 47.3211 29.9994 47.3211Z" fill="#2D4356"/>
<path d="M17.5002 15.8926C17.9183 15.8926 18.3312 15.9845 18.7098 16.1619C19.0884 16.3392 19.4234 16.5976 19.6911 16.9187C19.8499 16.893 20.0105 16.8793 20.1715 16.8779C20.6254 16.8773 21.0737 16.9785 21.4833 17.1741C21.2276 16.5263 20.8179 15.9506 20.2896 15.4969C19.7614 15.0432 19.1304 14.7251 18.4515 14.5702C17.7726 14.4153 17.0661 14.4283 16.3933 14.6079C15.7205 14.7876 15.1017 15.1286 14.5904 15.6014C14.0791 16.0741 13.6907 16.6644 13.459 17.3211C13.2273 17.9778 13.1591 18.6811 13.2604 19.37C13.3618 20.059 13.6296 20.7129 14.0406 21.275C14.4516 21.8372 14.9935 22.2906 15.6192 22.5961C15.4878 22.2152 15.4322 21.8121 15.4557 21.4098C15.4677 21.2132 15.4975 21.018 15.5445 20.8267C15.1271 20.4351 14.8371 19.927 14.7122 19.3684C14.5873 18.8099 14.6333 18.2266 14.8442 17.6945C15.0551 17.1624 15.4212 16.706 15.8948 16.3847C16.3685 16.0633 16.9279 15.8919 17.5002 15.8926Z" fill="#4C7DA7"/>
<path d="M8.80796 21.0711H9.61955C9.78381 21.6292 10.0073 22.1681 10.2862 22.6786L9.71024 23.2541C9.39944 23.5899 9.2341 24.0351 9.25027 24.4924C9.26644 24.9497 9.46282 25.3821 9.79656 25.6951L10.5541 26.453C10.868 26.7861 11.3007 26.9818 11.7582 26.9974C12.2156 27.013 12.6607 26.8473 12.9965 26.5364L13.5696 25.9619C14.0799 26.2412 14.6188 26.4647 15.1769 26.6288V27.2022H16.1448C16.2778 26.7662 16.4313 26.3377 16.6055 25.9165V25.5002L16.0439 25.377C15.2614 25.2061 14.5157 24.8967 13.842 24.4636L13.3572 24.1522L11.9869 25.5256C11.9182 25.5658 11.8373 25.5795 11.7593 25.5641C11.6813 25.5487 11.6116 25.5052 11.5634 25.4419L10.8066 24.6847C10.6617 24.54 10.6425 24.3422 10.7211 24.2634L12.0945 22.8917L11.7849 22.4076C11.352 21.7334 11.0427 20.9875 10.8717 20.2047L10.7492 19.6425H8.80796C8.69566 19.6425 8.5701 19.4894 8.5701 19.2847V18.2143C8.5701 18.0037 8.69549 17.8568 8.80796 17.8568H10.7492L10.8716 17.2946C11.0425 16.5121 11.3517 15.7663 11.7846 15.0924L12.0946 14.6083L10.7224 13.2373C10.6427 13.1571 10.6615 12.9601 10.8073 12.815L11.5624 12.0585C11.7129 11.9085 11.9066 11.8935 11.9858 11.973L13.3572 13.3454L13.8413 13.0354C14.515 12.6024 15.2606 12.2933 16.0431 12.1226L16.6055 12.0002V10.059C16.6055 9.9463 16.7526 9.8211 16.964 9.8211H18.034C18.2391 9.8211 18.3922 9.94665 18.3922 10.059V12.0002L18.9546 12.1226C19.7371 12.2932 20.4828 12.6023 21.1564 13.0354L21.6404 13.3451L23.0128 11.973C23.0812 11.9331 23.1619 11.9196 23.2395 11.9351C23.3172 11.9505 23.3866 11.9939 23.4344 12.0571L24.1913 12.8153C24.3357 12.9597 24.3545 13.1567 24.2751 13.2363L22.9036 14.6087L23.2135 15.0924C23.6462 15.7667 23.9554 16.5126 24.1266 17.2953L24.2493 17.8568H24.9462C25.2188 17.7553 25.4934 17.6591 25.7719 17.5743V16.4282H25.3783C25.2141 15.87 24.9906 15.331 24.7116 14.8204L25.2859 14.246C25.5969 13.9105 25.7627 13.4657 25.747 13.0085C25.7313 12.5513 25.5354 12.1189 25.202 11.8056L24.4443 11.0467C24.1309 10.7131 23.6982 10.5172 23.2408 10.5015C22.7833 10.4858 22.3383 10.6517 22.0027 10.963L21.4285 11.537C20.9179 11.258 20.379 11.0344 19.8208 10.8702V10.059C19.8038 9.60139 19.6063 9.16917 19.2714 8.85687C18.9366 8.54457 18.4917 8.37762 18.034 8.39253H16.964C16.5063 8.37758 16.0613 8.54452 15.7264 8.85681C15.3915 9.16911 15.1939 9.60134 15.1769 10.059V10.8702C14.6189 11.0344 14.08 11.2578 13.5696 11.5367L12.9957 10.9623C12.6594 10.6516 12.2141 10.4863 11.7566 10.5023C11.2991 10.5184 10.8664 10.7144 10.5527 11.0477L9.7976 11.8042C9.46318 12.1172 9.26636 12.5499 9.25021 13.0077C9.23407 13.4654 9.39992 13.9109 9.71146 14.2467L10.2862 14.8207C10.0071 15.3312 9.78362 15.8701 9.61955 16.4282H8.80796C8.35049 16.4452 7.91834 16.6426 7.60605 16.9773C7.29375 17.312 7.12673 17.7568 7.14153 18.2143V19.2847C7.12672 19.7422 7.29372 20.1871 7.60601 20.5218C7.9183 20.8566 8.35046 21.0541 8.80796 21.0711Z" fill="#2D4356"/>
<path d="M0.714286 54.1073C1.10877 54.1073 1.42857 53.7875 1.42857 53.393C1.42857 52.9985 1.10877 52.6787 0.714286 52.6787C0.319797 52.6787 0 52.9985 0 53.393C0 53.7875 0.319797 54.1073 0.714286 54.1073Z" fill="#2D4356"/>
<path d="M3.92634 52.6787H2.85491C2.66547 52.6787 2.48379 52.754 2.34983 52.8879C2.21588 53.0219 2.14063 53.2036 2.14062 53.393C2.14063 53.5824 2.21588 53.7641 2.34983 53.8981C2.48379 54.032 2.66547 54.1073 2.85491 54.1073H3.92634C4.11578 54.1073 4.29746 54.032 4.43142 53.8981C4.56537 53.7641 4.64062 53.5824 4.64062 53.393C4.64062 53.2036 4.56537 53.0219 4.43142 52.8879C4.29746 52.754 4.11578 52.6787 3.92634 52.6787Z" fill="#2D4356"/>
<path d="M42.1967 55.5361H39.2297C39.0501 55.5505 38.8825 55.632 38.7603 55.7644C38.6382 55.8967 38.5703 56.0703 38.5703 56.2504C38.5703 56.4306 38.6382 56.6041 38.7603 56.7365C38.8825 56.8688 39.0501 56.9503 39.2297 56.9647H42.1967C42.3763 56.9503 42.5438 56.8688 42.666 56.7365C42.7882 56.6041 42.856 56.4306 42.856 56.2504C42.856 56.0703 42.7882 55.8967 42.666 55.7644C42.5438 55.632 42.3763 55.5505 42.1967 55.5361Z" fill="#4C7DA7"/>
<path d="M20.767 55.5361H17.8C17.6204 55.5505 17.4528 55.632 17.3307 55.7644C17.2085 55.8967 17.1406 56.0703 17.1406 56.2504C17.1406 56.4306 17.2085 56.6041 17.3307 56.7365C17.4528 56.8688 17.6204 56.9503 17.8 56.9647H20.767C20.9466 56.9503 21.1141 56.8688 21.2363 56.7365C21.3585 56.6041 21.4264 56.4306 21.4264 56.2504C21.4264 56.0703 21.3585 55.8967 21.2363 55.7644C21.1141 55.632 20.9466 55.5505 20.767 55.5361Z" fill="#4C7DA7"/>
<path d="M37.1406 55.5361H22.8549C22.6655 55.5361 22.4838 55.6114 22.3498 55.7453C22.2159 55.8793 22.1406 56.061 22.1406 56.2504C22.1406 56.4399 22.2159 56.6215 22.3498 56.7555C22.4838 56.8894 22.6655 56.9647 22.8549 56.9647H28.5478V57.679H25.7121C25.5226 57.679 25.3409 57.7542 25.207 57.8882C25.073 58.0222 24.9978 58.2038 24.9978 58.3933C24.9978 58.5827 25.073 58.7644 25.207 58.8984C25.3409 59.0323 25.5226 59.1076 25.7121 59.1076H34.6406C34.8301 59.1076 35.0117 59.0323 35.1457 58.8984C35.2797 58.7644 35.3549 58.5827 35.3549 58.3933C35.3549 58.2038 35.2797 58.0222 35.1457 57.8882C35.0117 57.7542 34.8301 57.679 34.6406 57.679H31.4478V56.9647H37.1406C37.3301 56.9647 37.5117 56.8894 37.6457 56.7555C37.7797 56.6215 37.8549 56.4399 37.8549 56.2504C37.8549 56.061 37.7797 55.8793 37.6457 55.7453C37.5117 55.6114 37.3301 55.5361 37.1406 55.5361Z" fill="#4C7DA7"/>
<path d="M29.9994 50.1786C30.3939 50.1786 30.7137 49.8588 30.7137 49.4643C30.7137 49.0698 30.3939 48.75 29.9994 48.75C29.605 48.75 29.2852 49.0698 29.2852 49.4643C29.2852 49.8588 29.605 50.1786 29.9994 50.1786Z" fill="#4C7DA7"/>
<path d="M57.1451 52.6787H56.0737C55.8842 52.6787 55.7025 52.754 55.5686 52.8879C55.4346 53.0219 55.3594 53.2036 55.3594 53.393C55.3594 53.5824 55.4346 53.7641 55.5686 53.8981C55.7025 54.032 55.8842 54.1073 56.0737 54.1073H57.1451C57.3345 54.1073 57.5162 54.032 57.6502 53.8981C57.7841 53.7641 57.8594 53.5824 57.8594 53.393C57.8594 53.2036 57.7841 53.0219 57.6502 52.8879C57.5162 52.754 57.3345 52.6787 57.1451 52.6787Z" fill="#2D4356"/>
<path d="M59.2846 54.1073C59.6791 54.1073 59.9989 53.7875 59.9989 53.393C59.9989 52.9985 59.6791 52.6787 59.2846 52.6787C58.8901 52.6787 58.5703 52.9985 58.5703 53.393C58.5703 53.7875 58.8901 54.1073 59.2846 54.1073Z" fill="#2D4356"/>
<path d="M53.8311 52.6784H51.6272L40.872 46.2756C40.7658 46.2126 40.645 46.1781 40.5215 46.1756C40.398 46.173 40.2759 46.2024 40.1672 46.261C38.8703 46.9617 36.9143 47.2205 35.4675 46.2191C34.9704 45.9014 34.5558 45.4702 34.258 44.961C33.9601 44.4518 33.7874 43.8791 33.7541 43.2901L36.4086 45.1268C36.87 45.4528 37.4386 45.5898 37.9978 45.5097C38.557 45.4296 39.0643 45.1384 39.4156 44.696L40.121 43.7878C40.2866 43.5811 40.4079 43.3425 40.4773 43.0869C40.5468 42.8313 40.5629 42.5642 40.5247 42.3021C40.4756 42.0157 40.3682 41.7425 40.2091 41.4994C40.0501 41.2563 39.8428 41.0485 39.6001 40.8888L37.0104 39.0965C37.6222 38.9175 38.2659 38.876 38.8956 38.975C39.5253 39.0739 40.1253 39.3109 40.6526 39.6688C42.0734 40.652 42.396 42.4513 42.0858 43.7987C42.0508 43.9502 42.0662 44.109 42.1298 44.2509C42.1933 44.3929 42.3014 44.5102 42.4377 44.5851L51.8008 49.733C51.9668 49.8238 52.1621 49.8451 52.3437 49.7921C52.5254 49.7391 52.6786 49.6162 52.7697 49.4504C52.8608 49.2845 52.8824 49.0893 52.8298 48.9076C52.7772 48.7258 52.6546 48.5724 52.4889 48.4809L43.5754 43.5803C43.7212 42.6207 43.6018 41.6395 43.2299 40.743C42.858 39.8465 42.2479 39.0688 41.4656 38.4942C40.6777 37.959 39.7699 37.6265 38.8226 37.5263C37.8754 37.4261 36.9181 37.5612 36.0356 37.9198C35.8282 37.9981 35.646 38.1315 35.5086 38.3055C35.3712 38.4795 35.2837 38.6876 35.2556 38.9075C35.2317 39.1088 35.2638 39.3127 35.3484 39.4969C35.4331 39.6811 35.5669 39.8384 35.7351 39.9514L38.7871 42.0635C38.8689 42.114 38.9399 42.1804 38.9958 42.2586C39.0517 42.3369 39.0914 42.4256 39.1126 42.5194C39.1212 42.5895 39.1149 42.6607 39.0942 42.7283C39.0735 42.7959 39.0389 42.8584 38.9925 42.9117L38.2873 43.8199C38.1614 43.9757 37.9799 44.0766 37.7811 44.1013C37.5823 44.1259 37.3817 44.0724 37.2216 43.9521L34.1695 41.8403C34.0033 41.7202 33.8081 41.6467 33.604 41.6272C33.3999 41.6078 33.1944 41.6432 33.0085 41.7297C32.8227 41.8163 32.6633 41.9509 32.5468 42.1196C32.4304 42.2883 32.3611 42.4851 32.3461 42.6896C32.2715 43.6089 32.4466 44.5313 32.8529 45.3594C33.2592 46.1874 33.8817 46.8903 34.6545 47.3938C36.2632 48.5074 38.5089 48.6166 40.477 47.7032C40.477 47.7032 45.7284 50.8294 48.8343 52.6784H44.6449V51.7828L43.2163 50.9498V52.6784H16.7878V50.9499L15.3592 51.7829V52.6784H11.1701L19.5274 47.7032C21.4953 48.6162 23.7412 48.5074 25.3498 47.3938C26.1226 46.8904 26.745 46.1875 27.1513 45.3595C27.5576 44.5316 27.7327 43.6092 27.6581 42.6899C27.6432 42.4854 27.574 42.2886 27.4576 42.1198C27.3412 41.951 27.1818 41.8163 26.996 41.7297C26.8101 41.6431 26.6045 41.6077 26.4004 41.6272C26.1963 41.6466 26.0011 41.7202 25.8349 41.8403L22.7828 43.9521C22.6227 44.0726 22.4221 44.1262 22.2232 44.1015C22.0244 44.0768 21.8429 43.9759 21.7171 43.8199L21.0121 42.9117C20.9656 42.8584 20.9309 42.7958 20.9101 42.7282C20.8894 42.6605 20.8831 42.5892 20.8917 42.519C20.913 42.4253 20.9527 42.3367 21.0086 42.2585C21.0645 42.1803 21.1354 42.114 21.2171 42.0635L24.2689 39.9517C24.4373 39.8387 24.5712 39.6814 24.6558 39.4971C24.7405 39.3129 24.7726 39.1088 24.7486 38.9075C24.7205 38.6875 24.633 38.4794 24.4956 38.3054C24.3582 38.1314 24.176 37.9981 23.9686 37.9197C23.0861 37.5612 22.1288 37.426 21.1816 37.5263C20.2344 37.6265 19.3265 37.9589 18.5386 38.4942C17.7563 39.0687 17.1461 39.8464 16.7742 40.7429C16.4023 41.6395 16.2829 42.6207 16.4289 43.5803L7.51546 48.4809C7.34982 48.5724 7.22722 48.7258 7.17459 48.9076C7.12195 49.0893 7.14357 49.2845 7.23471 49.4504C7.32584 49.6162 7.47904 49.7391 7.66069 49.7921C7.84234 49.8451 8.03759 49.8238 8.20359 49.733L17.5667 44.5851C17.703 44.5102 17.8111 44.3929 17.8746 44.2509C17.9382 44.109 17.9536 43.9502 17.9187 43.7986C17.6082 42.4513 17.9309 40.652 19.3516 39.6688C19.879 39.311 20.479 39.0741 21.1087 38.9751C21.7383 38.8762 22.382 38.9176 22.9938 39.0965L20.4042 40.8888C20.1615 41.0485 19.9542 41.2563 19.7952 41.4994C19.6361 41.7425 19.5288 42.0157 19.4797 42.3021C19.4415 42.5642 19.4576 42.8313 19.5271 43.087C19.5966 43.3426 19.718 43.5811 19.8836 43.7878L20.5888 44.696C20.9401 45.1385 21.4474 45.4296 22.0066 45.5097C22.5658 45.5898 23.1344 45.4528 23.5958 45.1268L26.2501 43.2901C26.2169 43.8791 26.0442 44.4518 25.7463 44.961C25.4484 45.4703 25.0339 45.9015 24.5368 46.2191C23.0902 47.2198 21.1338 46.9613 19.8372 46.261C19.7285 46.2024 19.6064 46.173 19.4829 46.1756C19.3594 46.1781 19.2386 46.2126 19.1324 46.2756L8.37719 52.6784H6.17306C6.07145 52.6651 5.96816 52.6737 5.87012 52.7035C5.77207 52.7333 5.68152 52.7837 5.6045 52.8513C5.52749 52.9189 5.46578 53.0022 5.42351 53.0955C5.38124 53.1889 5.35938 53.2902 5.35938 53.3927C5.35938 53.4952 5.38124 53.5965 5.42351 53.6898C5.46578 53.7832 5.52749 53.8664 5.6045 53.934C5.68152 54.0016 5.77207 54.052 5.87012 54.0819C5.96816 54.1117 6.07145 54.1202 6.17306 54.107H53.8311C53.9328 54.1202 54.036 54.1117 54.1341 54.0819C54.2321 54.052 54.3227 54.0016 54.3997 53.934C54.4767 53.8664 54.5384 53.7832 54.5807 53.6898C54.623 53.5965 54.6448 53.4952 54.6448 53.3927C54.6448 53.2902 54.623 53.1889 54.5807 53.0955C54.5384 53.0022 54.4767 52.9189 54.3997 52.8513C54.3227 52.7837 54.2321 52.7333 54.1341 52.7035C54.036 52.6737 53.9328 52.6651 53.8311 52.6784Z" fill="#2D4356"/>
<path d="M31.0714 3.03544C31.2833 3.03544 31.4905 2.9726 31.6667 2.85487C31.8429 2.73714 31.9802 2.5698 32.0613 2.37403C32.1424 2.17825 32.1636 1.96282 32.1223 1.75498C32.0809 1.54715 31.9789 1.35623 31.829 1.20639C31.6792 1.05655 31.4883 0.954507 31.2805 0.913166C31.0726 0.871824 30.8572 0.893042 30.6614 0.974136C30.4656 1.05523 30.2983 1.19256 30.1806 1.36875C30.0628 1.54495 30 1.7521 30 1.96401C30.0003 2.24807 30.1133 2.5204 30.3142 2.72126C30.515 2.92212 30.7874 3.03511 31.0714 3.03544ZM31.0714 1.42829C31.1774 1.42829 31.281 1.45971 31.3691 1.51858C31.4572 1.57744 31.5258 1.66111 31.5664 1.759C31.6069 1.85689 31.6175 1.9646 31.5968 2.06852C31.5762 2.17244 31.5252 2.26789 31.4502 2.34281C31.3753 2.41774 31.2799 2.46876 31.1759 2.48943C31.072 2.5101 30.9643 2.49949 30.8664 2.45894C30.7685 2.4184 30.6849 2.34973 30.626 2.26163C30.5671 2.17354 30.5357 2.06996 30.5357 1.96401C30.5359 1.82197 30.5923 1.68579 30.6928 1.58535C30.7932 1.48492 30.9294 1.42843 31.0714 1.42829Z" fill="#2D4356"/>
<path d="M56.5385 18.5664C56.3972 18.5664 56.2591 18.6083 56.1417 18.6868C56.0242 18.7653 55.9327 18.8768 55.8786 19.0073C55.8245 19.1379 55.8104 19.2815 55.8379 19.42C55.8655 19.5586 55.9335 19.6859 56.0334 19.7858C56.1333 19.8857 56.2606 19.9537 56.3992 19.9813C56.5377 20.0088 56.6813 19.9947 56.8119 19.9406C56.9424 19.8865 57.0539 19.795 57.1324 19.6775C57.2109 19.5601 57.2528 19.422 57.2528 19.2807C57.2526 19.0913 57.1773 18.9098 57.0433 18.7759C56.9094 18.6419 56.7279 18.5666 56.5385 18.5664ZM56.5385 19.6378C56.4679 19.6378 56.3988 19.6169 56.3401 19.5776C56.2814 19.5384 56.2356 19.4826 56.2085 19.4174C56.1815 19.3521 56.1744 19.2803 56.1882 19.211C56.202 19.1417 56.236 19.0781 56.286 19.0282C56.3359 18.9782 56.3996 18.9442 56.4688 18.9304C56.5381 18.9166 56.6099 18.9237 56.6752 18.9507C56.7404 18.9778 56.7962 19.0235 56.8355 19.0823C56.8747 19.141 56.8956 19.2101 56.8956 19.2807C56.8956 19.3754 56.8579 19.4662 56.7909 19.5331C56.724 19.6001 56.6332 19.6377 56.5385 19.6378Z" fill="#2D4356"/>
<path d="M2.14397 0.892578C2.0027 0.892578 1.8646 0.93447 1.74714 1.01296C1.62967 1.09144 1.53812 1.203 1.48406 1.33352C1.43 1.46404 1.41585 1.60766 1.44341 1.74621C1.47097 1.88477 1.539 2.01205 1.6389 2.11194C1.73879 2.21183 1.86607 2.27986 2.00462 2.30742C2.14318 2.33499 2.2868 2.32084 2.41732 2.26678C2.54784 2.21272 2.65939 2.12116 2.73788 2.0037C2.81637 1.88624 2.85826 1.74814 2.85826 1.60686C2.85804 1.41749 2.78272 1.23593 2.64881 1.10203C2.5149 0.968119 2.33335 0.892795 2.14397 0.892578ZM2.14397 1.96401C2.07334 1.96401 2.00429 1.94306 1.94556 1.90382C1.88682 1.86457 1.84105 1.8088 1.81402 1.74354C1.78699 1.67828 1.77991 1.60647 1.79369 1.53719C1.80747 1.46791 1.84149 1.40427 1.89144 1.35433C1.94138 1.30438 2.00502 1.27036 2.0743 1.25658C2.14358 1.2428 2.21539 1.24988 2.28065 1.27691C2.34591 1.30394 2.40168 1.34971 2.44093 1.40845C2.48017 1.46718 2.50112 1.53623 2.50112 1.60686C2.50102 1.70156 2.46336 1.79234 2.39641 1.8593C2.32945 1.92625 2.23866 1.96391 2.14397 1.96401Z" fill="#2D4356"/>
<path d="M44.7026 4.46387C44.5613 4.46387 44.4232 4.50576 44.3057 4.58425C44.1883 4.66273 44.0967 4.77429 44.0427 4.90481C43.9886 5.03533 43.9744 5.17895 44.002 5.3175C44.0296 5.45606 44.0976 5.58333 44.1975 5.68323C44.2974 5.78312 44.4247 5.85115 44.5632 5.87871C44.7018 5.90627 44.8454 5.89213 44.9759 5.83807C45.1064 5.784 45.218 5.69245 45.2965 5.57499C45.375 5.45753 45.4169 5.31943 45.4169 5.17815C45.4166 4.98878 45.3413 4.80722 45.2074 4.67332C45.0735 4.53941 44.8919 4.46408 44.7026 4.46387ZM44.7026 5.5353C44.6319 5.5353 44.5629 5.51435 44.5041 5.47511C44.4454 5.43586 44.3996 5.38008 44.3726 5.31483C44.3456 5.24957 44.3385 5.17776 44.3523 5.10848C44.3661 5.0392 44.4001 4.97556 44.45 4.92561C44.5 4.87567 44.5636 4.84165 44.6329 4.82787C44.7022 4.81409 44.774 4.82116 44.8392 4.8482C44.9045 4.87523 44.9603 4.921 44.9995 4.97973C45.0388 5.03847 45.0597 5.10752 45.0597 5.17815C45.0596 5.27284 45.022 5.36363 44.955 5.43059C44.888 5.49754 44.7973 5.5352 44.7026 5.5353Z" fill="#2D4356"/>
<path d="M4.10826 16.6752C4.10826 16.534 4.06637 16.3959 3.98788 16.2784C3.90939 16.1609 3.79784 16.0694 3.66732 16.0153C3.5368 15.9612 3.39318 15.9471 3.25462 15.9747C3.11607 16.0022 2.98879 16.0703 2.8889 16.1701C2.789 16.27 2.72097 16.3973 2.69341 16.5359C2.66585 16.6744 2.68 16.818 2.73406 16.9486C2.78812 17.0791 2.87967 17.1906 2.99714 17.2691C3.1146 17.3476 3.2527 17.3895 3.39397 17.3895C3.58335 17.3893 3.7649 17.314 3.89881 17.1801C4.03272 17.0462 4.10804 16.8646 4.10826 16.6752ZM3.03683 16.6752C3.03683 16.6046 3.05778 16.5355 3.09702 16.4768C3.13626 16.4181 3.19204 16.3723 3.2573 16.3453C3.32256 16.3182 3.39437 16.3112 3.46365 16.3249C3.53293 16.3387 3.59656 16.3727 3.64651 16.4227C3.69646 16.4726 3.73047 16.5363 3.74425 16.6055C3.75803 16.6748 3.75096 16.7466 3.72393 16.8119C3.6969 16.8772 3.65112 16.9329 3.59239 16.9722C3.53366 17.0114 3.46461 17.0324 3.39397 17.0324C3.29928 17.0323 3.2085 16.9946 3.14154 16.9277C3.07458 16.8607 3.03693 16.7699 3.03683 16.6752Z" fill="#2D4356"/>
<path d="M8.74547 6.87454L9.27654 6.17633L8.94118 5.98633L8.60047 6.76847H8.58904L8.24261 5.99169L7.90154 6.1874L8.4269 6.86919V6.88026L7.60547 6.77419V7.15419L8.43261 7.04811V7.05919L7.90154 7.74061L8.22011 7.94204L8.58368 7.15419H8.5944L8.92975 7.93633L9.2819 7.73526L8.74547 7.06454V7.05347L9.58904 7.15419V6.77419L8.74547 6.88597V6.87454Z" fill="#4C7DA7"/>
<path d="M22.4061 6.79657L22.1004 7.18907L22.2836 7.30478L22.4929 6.85121H22.4993L22.6925 7.30157L22.8954 7.18585L22.5865 6.79943V6.79335L23.0722 6.85121V6.63228L22.5865 6.69657V6.69014L22.8922 6.288L22.699 6.17871L22.5029 6.62907H22.4961L22.2968 6.18193L22.1004 6.29443L22.4029 6.68693V6.69335L21.9297 6.63228V6.85121L22.4061 6.79014V6.79657Z" fill="#4C7DA7"/>
<path d="M58.227 13.325V12.9522L57.3995 13.0618V13.0511L57.9202 12.3658L57.5912 12.1797L57.257 12.9468H57.2459L56.9062 12.185L56.5716 12.3768L57.087 13.0458V13.0565L56.2812 12.9522V13.325L57.0923 13.2211V13.2318L56.5716 13.9004L56.8841 14.0979L57.2405 13.325H57.2513L57.5802 14.0925L57.9255 13.895L57.3995 13.2372V13.2265L58.227 13.325Z" fill="#4C7DA7"/>
<path d="M55.5896 2.95979L56.0389 2.36872L55.7554 2.20801L55.4668 2.86979H55.4571L55.1643 2.21265L54.8757 2.37836L55.3204 2.95515V2.96444L54.625 2.87479V3.19622L55.325 3.10658V3.11587L54.8757 3.69265L55.145 3.86301L55.4525 3.19622H55.4618L55.7457 3.85801L56.0436 3.68801L55.5896 3.12051V3.11122L56.3036 3.19622V2.87479L55.5896 2.96908V2.95979Z" fill="#4C7DA7"/>
</g>
<defs>
<clipPath id="clip0_2_6757">
<rect width="60" height="60" fill="white"/>
</clipPath>
</defs>
</svg>
