<svg width="60" height="60" viewBox="0 0 60 60" fill="none" xmlns="http://www.w3.org/2000/svg">
    <g clip-path="url(#clip0_715_32090)">
        <path
            d="M46.7851 18.7499C46.7856 17.7735 46.4525 16.8262 45.841 16.065C45.2294 15.3037 44.3762 14.7743 43.4226 14.5644C42.4689 14.3545 41.4722 14.4767 40.5976 14.9107C39.7229 15.3448 39.0228 16.0647 38.6133 16.9511C38.9972 16.7845 39.4114 16.6989 39.8299 16.6995C40.0385 16.7002 40.2466 16.7212 40.4511 16.7623C40.7146 16.4899 41.0298 16.2727 41.3781 16.1235C41.7264 15.9742 42.101 15.8958 42.48 15.8928C42.859 15.8898 43.2347 15.9624 43.5854 16.1062C43.936 16.25 44.2545 16.4622 44.5222 16.7304C44.79 16.9986 45.0016 17.3175 45.1448 17.6684C45.288 18.0193 45.3599 18.3952 45.3563 18.7741C45.3526 19.1531 45.2736 19.5275 45.1237 19.8756C44.9738 20.2237 44.7561 20.5384 44.4833 20.8015C44.6062 21.4186 44.5403 22.0584 44.2943 22.6376C45.0374 22.2952 45.667 21.7471 46.1084 21.0581C46.5498 20.3692 46.7846 19.5682 46.7851 18.7499Z"
            fill="#0BCEB2" />
        <path
            d="M50.2035 11.806L49.4458 11.047C49.1323 10.7135 48.6997 10.5175 48.2422 10.5018C47.7848 10.4862 47.3397 10.6521 47.0042 10.9633L46.4299 11.5374C45.9194 11.2584 45.3804 11.0348 44.8223 10.8706V10.0593C44.8053 9.60175 44.6078 9.16954 44.2729 8.85724C43.9381 8.54495 43.4931 8.37799 43.0355 8.39289H41.9655C41.5078 8.37795 41.0628 8.54488 40.7279 8.85718C40.393 9.16948 40.1954 9.60171 40.1784 10.0593V10.8706C39.6203 11.0347 39.0815 11.2582 38.571 11.5371L37.9971 10.9626C37.6609 10.652 37.2156 10.4867 36.7581 10.5027C36.3006 10.5187 35.8679 10.7147 35.5542 11.0481L34.7991 11.8046C34.4646 12.1176 34.2678 12.5503 34.2517 13.008C34.2355 13.4658 34.4014 13.9113 34.7129 14.247L35.2877 14.8211C35.0086 15.3315 34.7851 15.8705 34.621 16.4286H34.2266V17.3961C34.6632 17.5289 35.0926 17.6826 35.5148 17.8572H35.7507L35.8731 17.295C36.044 16.5124 36.3531 15.7667 36.786 15.0928L37.0961 14.6087L35.7238 13.2377C35.6441 13.1575 35.663 12.9604 35.8088 12.8153L36.5639 12.0588C36.7142 11.9089 36.9081 11.8939 36.9873 11.9734L38.3586 13.3458L38.8427 13.0357C39.5164 12.6028 40.2621 12.2937 41.0445 12.123L41.6069 12.0006V10.0593C41.6069 9.94667 41.7541 9.82146 41.9655 9.82146H43.0355C43.2406 9.82146 43.3937 9.94702 43.3937 10.0593V12.0006L43.9561 12.123C44.7385 12.2936 45.4842 12.6027 46.1579 13.0357L46.6418 13.3455L48.0142 11.9734C48.0826 11.9334 48.1633 11.9199 48.241 11.9354C48.3187 11.9509 48.388 11.9943 48.4359 12.0574L49.1927 12.8156C49.3371 12.96 49.3559 13.1571 49.2766 13.2366L47.905 14.609L48.2149 15.0928C48.6476 15.7671 48.9568 16.513 49.128 17.2956L49.2508 17.8572H51.1902C51.303 17.8572 51.4287 18.004 51.4287 18.2147V19.285C51.4287 19.4898 51.3028 19.6429 51.1902 19.6429H49.2508L49.128 20.2044C48.9565 20.9872 48.6472 21.7334 48.2146 22.408L47.9052 22.8917L49.2763 24.2631C49.356 24.3429 49.3369 24.541 49.1931 24.6854L48.4368 25.4416C48.3888 25.5046 48.3195 25.5481 48.2418 25.5639C48.1641 25.5796 48.0834 25.5667 48.0146 25.5274L46.6418 24.1529L46.1574 24.4636C45.4836 24.8969 44.7379 25.2064 43.9554 25.3774L43.3937 25.5005V25.7384C43.5671 26.1593 43.7206 26.5878 43.8541 27.024H44.8223V26.6292C45.3804 26.465 45.9193 26.2414 46.4298 25.9623L47.0045 26.5378C47.3406 26.8484 47.7857 27.0137 48.243 26.9977C48.7003 26.9817 49.1328 26.7857 49.4463 26.4523L50.204 25.6948C50.5371 25.3811 50.7327 24.9485 50.7482 24.4912C50.7638 24.0339 50.598 23.589 50.287 23.2534L49.7129 22.6793C49.9918 22.1686 50.2154 21.6296 50.3798 21.0715H51.1901C51.6477 21.0546 52.08 20.8571 52.3924 20.5224C52.7049 20.1876 52.872 19.7427 52.8573 19.285V18.2147C52.872 17.757 52.7048 17.3122 52.3924 16.9775C52.08 16.6428 51.6477 16.4454 51.1901 16.4286H50.3798C50.2155 15.8704 49.992 15.3314 49.7131 14.8207L50.2874 14.2463C50.5984 13.9109 50.7641 13.466 50.7484 13.0089C50.7327 12.5517 50.5368 12.1193 50.2035 11.806Z"
            fill="#2D4356" />
        <path
            d="M37.1431 31.4286C37.1431 30.0159 36.7242 28.6349 35.9394 27.4603C35.1545 26.2856 34.0389 25.3701 32.7337 24.8295C31.4285 24.2889 29.9924 24.1474 28.6068 24.423C27.2212 24.6986 25.9485 25.3789 24.9495 26.3779C23.9506 27.3768 23.2703 28.6495 22.9947 30.0351C22.7191 31.4207 22.8605 32.8569 23.4011 34.1621C23.9418 35.4673 24.8573 36.5828 26.0319 37.3677C27.2066 38.1526 28.5876 38.5715 30.0003 38.5715C31.8946 38.5714 33.7114 37.8188 35.0509 36.4793C36.3904 35.1397 37.143 33.323 37.1431 31.4286ZM30.0003 37.1429C28.8701 37.1429 27.7653 36.8078 26.8256 36.1799C25.8859 35.552 25.1535 34.6595 24.721 33.6154C24.2885 32.5712 24.1753 31.4223 24.3958 30.3138C24.6163 29.2054 25.1605 28.1872 25.9597 27.388C26.7588 26.5889 27.777 26.0446 28.8855 25.8241C29.9939 25.6037 31.1429 25.7168 32.187 26.1493C33.2312 26.5818 34.1236 27.3142 34.7515 28.2539C35.3794 29.1937 35.7146 30.2984 35.7146 31.4286C35.7129 32.9436 35.1103 34.3961 34.039 35.4673C32.9677 36.5386 31.5153 37.1412 30.0003 37.1429Z"
            fill="#0BCEB2" />
        <path
            d="M14.8715 28.6311C14.4046 28.6598 13.9681 28.8722 13.6575 29.2219C13.3468 29.5715 13.1873 30.03 13.2138 30.497V32.36C13.1877 32.8269 13.3474 33.2852 13.658 33.6348C13.9685 33.9844 14.4048 34.1969 14.8715 34.2261H17.2484C17.4422 35.1099 17.7284 35.9709 18.1023 36.7948C18.4889 36.5064 18.8956 36.2462 19.3195 36.0162C19.0277 35.3413 18.8016 34.6399 18.6442 33.9217L18.399 32.7975H14.8715C14.805 32.7975 14.6424 32.6442 14.6424 32.36V30.497C14.6424 30.2129 14.805 30.0597 14.8715 30.0597H18.399L18.6442 28.9355C18.937 27.5948 19.4669 26.3171 20.2088 25.1627L20.8291 24.1944L20.0156 23.3816L18.3339 21.7011C18.3111 21.6649 18.3015 21.6219 18.3068 21.5794C18.3204 21.4448 18.3829 21.3199 18.4825 21.2284L19.7973 19.9115C19.8945 19.8073 20.0279 19.7443 20.1701 19.7354C20.2059 19.7327 20.2416 19.7425 20.2711 19.763L21.9516 21.4443L22.7644 22.2575L23.7325 21.6373C24.8869 20.8954 26.1645 20.3658 27.5052 20.0735L28.6298 19.8286V16.3008C28.6298 16.2342 28.7836 16.0714 29.0686 16.0714H30.9311C31.2154 16.0714 31.3688 16.2342 31.3688 16.3008V19.8288L32.4936 20.0736C33.8346 20.366 35.1125 20.8956 36.2671 21.6375L37.2349 22.2571L38.0475 21.4446L39.7295 19.7627C39.7588 19.7423 39.7942 19.7327 39.8298 19.7353C39.9711 19.7439 40.1037 19.8063 40.2004 19.9096L41.5183 21.2288C41.7188 21.4296 41.7115 21.6535 41.6651 21.7001L39.9833 23.382L39.1704 24.195L39.7907 25.1629C40.5326 26.3176 41.0626 27.5953 41.3557 28.9361L41.6013 30.0597H45.1268C45.1935 30.0597 45.3567 30.2129 45.3567 30.497V32.36C45.3567 32.6442 45.1935 32.7975 45.1268 32.7975H41.6012L41.3557 33.9211C41.198 34.6396 40.9717 35.3412 40.6799 36.0164C41.1037 36.2465 41.5105 36.5067 41.897 36.795C42.2709 35.971 42.5572 35.1099 42.7513 34.2261H45.1268C45.5935 34.1968 46.0297 33.9842 46.3404 33.6347C46.6511 33.2851 46.8109 32.8269 46.7852 32.36V30.497C46.8114 30.03 46.6516 29.5716 46.3409 29.2219C46.0301 28.8723 45.5937 28.6599 45.1268 28.6311H42.7513C42.4215 27.125 41.8263 25.6896 40.9935 24.3921L42.6753 22.7101C42.9844 22.3596 43.1425 21.901 43.1151 21.4344C43.0877 20.9678 42.8769 20.531 42.5288 20.219L41.2111 18.9C40.847 18.5277 40.3505 18.3145 39.8298 18.3068C39.6243 18.3038 39.4202 18.3418 39.2295 18.4184C39.0388 18.4951 38.8652 18.6088 38.7188 18.7532L37.0374 20.4344C35.7397 19.6014 34.3039 19.0065 32.7973 18.6776V16.3008C32.7685 15.8339 32.556 15.3974 32.2063 15.0867C31.8566 14.776 31.3981 14.6165 30.9311 14.6429H29.0686C28.6015 14.6163 28.1428 14.7758 27.7929 15.0865C27.4429 15.3972 27.2302 15.8337 27.2013 16.3008V18.6776C25.695 19.0066 24.2594 19.6015 22.962 20.4344L21.2816 18.7532C21.1351 18.6089 20.9614 18.4951 20.7707 18.4185C20.5799 18.3419 20.3758 18.3039 20.1702 18.3068C19.6494 18.3145 19.1528 18.5277 18.7886 18.9L17.4716 20.2191C17.1227 20.5304 16.9113 20.9671 16.8834 21.4339C16.8555 21.9006 17.0134 22.3595 17.3227 22.7102L19.0059 24.3921C18.173 25.6896 17.5779 27.125 17.2484 28.6311L14.8715 28.6311Z"
            fill="#2D4356" />
        <path
            d="M29.9994 44.4643C30.3939 44.4643 30.7137 44.1445 30.7137 43.7501C30.7137 43.3556 30.3939 43.0358 29.9994 43.0358C29.605 43.0358 29.2852 43.3556 29.2852 43.7501C29.2852 44.1445 29.605 44.4643 29.9994 44.4643Z"
            fill="#0BCEB2" />
        <path
            d="M29.9994 47.3214C30.3939 47.3214 30.7137 47.0016 30.7137 46.6071C30.7137 46.2126 30.3939 45.8928 29.9994 45.8928C29.605 45.8928 29.2852 46.2126 29.2852 46.6071C29.2852 47.0016 29.605 47.3214 29.9994 47.3214Z"
            fill="#2D4356" />
        <path
            d="M17.5002 15.8928C17.9183 15.8929 18.3312 15.9848 18.7098 16.1621C19.0884 16.3394 19.4234 16.5978 19.6911 16.919C19.8499 16.8932 20.0105 16.8796 20.1715 16.8781C20.6254 16.8775 21.0737 16.9787 21.4833 17.1743C21.2276 16.5265 20.8179 15.9509 20.2896 15.4972C19.7614 15.0435 19.1304 14.7254 18.4515 14.5705C17.7726 14.4156 17.0661 14.4285 16.3933 14.6082C15.7205 14.7879 15.1017 15.1288 14.5904 15.6016C14.0791 16.0744 13.6907 16.6647 13.459 17.3214C13.2273 17.978 13.1591 18.6813 13.2604 19.3703C13.3618 20.0592 13.6296 20.7131 14.0406 21.2753C14.4516 21.8374 14.9935 22.2909 15.6192 22.5964C15.4878 22.2154 15.4322 21.8124 15.4557 21.4101C15.4677 21.2134 15.4975 21.0183 15.5445 20.827C15.1271 20.4354 14.8371 19.9273 14.7122 19.3687C14.5873 18.8101 14.6333 18.2269 14.8442 17.6948C15.0551 17.1626 15.4212 16.7063 15.8948 16.3849C16.3685 16.0636 16.9279 15.8921 17.5002 15.8928Z"
            fill="#0BCEB2" />
        <path
            d="M8.80991 21.0715H9.62151C9.78576 21.6295 10.0093 22.1684 10.2882 22.679L9.71219 23.2544C9.4014 23.5903 9.23605 24.0354 9.25222 24.4928C9.26839 24.9501 9.46477 25.3824 9.79851 25.6955L10.556 26.4534C10.8699 26.7865 11.3027 26.9821 11.7601 26.9978C12.2176 27.0134 12.6626 26.8477 12.9985 26.5367L13.5715 25.9623C14.0819 26.2415 14.6207 26.4651 15.1789 26.6292V27.2025H16.1467C16.2797 26.7666 16.4333 26.338 16.6074 25.9169V25.5005L16.0459 25.3774C15.2634 25.2065 14.5177 24.8971 13.8439 24.464L13.3591 24.1525L11.9888 25.526C11.9202 25.5662 11.8392 25.5799 11.7612 25.5645C11.6832 25.549 11.6135 25.5056 11.5654 25.4423L10.8085 24.6851C10.6636 24.5403 10.6444 24.3426 10.7231 24.2638L12.0964 22.8921L11.7869 22.408C11.3539 21.7338 11.0447 20.9878 10.8736 20.2051L10.7512 19.6429H8.80991C8.69761 19.6429 8.57206 19.4898 8.57206 19.285V18.2147C8.57206 18.004 8.69744 17.8572 8.80991 17.8572H10.7512L10.8736 17.295C11.0445 16.5124 11.3536 15.7667 11.7865 15.0928L12.0966 14.6087L10.7243 13.2377C10.6446 13.1575 10.6635 12.9604 10.8092 12.8153L11.5643 12.0588C11.7148 11.9089 11.9086 11.8939 11.9878 11.9734L13.3591 13.3458L13.8432 13.0357C14.5169 12.6028 15.2626 12.2937 16.045 12.123L16.6074 12.0006V10.0593C16.6074 9.94667 16.7546 9.82146 16.9659 9.82146H18.036C18.2411 9.82146 18.3942 9.94702 18.3942 10.0593V12.0006L18.9566 12.123C19.739 12.2936 20.4847 12.6027 21.1584 13.0357L21.6423 13.3455L23.0147 11.9734C23.0831 11.9334 23.1638 11.9199 23.2415 11.9354C23.3192 11.9509 23.3885 11.9943 23.4364 12.0574L24.1932 12.8157C24.3376 12.96 24.3564 13.1571 24.2771 13.2366L22.9056 14.609L23.2154 15.0928C23.6481 15.7671 23.9573 16.513 24.1285 17.2956L24.2513 17.8572H24.9481C25.2207 17.7556 25.4953 17.6594 25.7738 17.5747V16.4286H25.3803C25.216 15.8704 24.9925 15.3314 24.7136 14.8207L25.2878 14.2463C25.5989 13.9109 25.7647 13.466 25.7489 13.0089C25.7332 12.5517 25.5373 12.1192 25.204 11.806L24.4463 11.047C24.1328 10.7135 23.7002 10.5175 23.2427 10.5018C22.7853 10.4862 22.3402 10.6521 22.0047 10.9633L21.4304 11.5374C20.9199 11.2583 20.3809 11.0348 19.8228 10.8706V10.0593C19.8058 9.60175 19.6083 9.16954 19.2734 8.85724C18.9385 8.54494 18.4936 8.37798 18.036 8.39289H16.966C16.5083 8.37795 16.0633 8.54488 15.7284 8.85718C15.3935 9.16948 15.1959 9.60171 15.1788 10.0593V10.8706C14.6208 11.0347 14.082 11.2582 13.5715 11.5371L12.9976 10.9626C12.6614 10.652 12.2161 10.4867 11.7586 10.5027C11.3011 10.5187 10.8684 10.7147 10.5547 11.0481L9.79956 11.8046C9.46513 12.1176 9.26831 12.5503 9.25217 13.008C9.23602 13.4658 9.40187 13.9113 9.71341 14.247L10.2882 14.8211C10.0091 15.3315 9.78557 15.8705 9.62151 16.4286H8.80991C8.35245 16.4455 7.9203 16.6429 7.608 16.9776C7.2957 17.3124 7.12869 17.7571 7.14349 18.2147V19.285C7.12867 19.7426 7.29568 20.1874 7.60797 20.5222C7.92025 20.857 8.35241 21.0545 8.80991 21.0715Z"
            fill="#2D4356" />
        <path
            d="M0.714286 54.1072C1.10877 54.1072 1.42857 53.7874 1.42857 53.3929C1.42857 52.9984 1.10877 52.6786 0.714286 52.6786C0.319797 52.6786 0 52.9984 0 53.3929C0 53.7874 0.319797 54.1072 0.714286 54.1072Z"
            fill="#2D4356" />
        <path
            d="M3.92829 52.6786H2.85686C2.66742 52.6786 2.48574 52.7538 2.35179 52.8878C2.21783 53.0218 2.14258 53.2034 2.14258 53.3929C2.14258 53.5823 2.21783 53.764 2.35179 53.898C2.48574 54.0319 2.66742 54.1072 2.85686 54.1072H3.92829C4.11773 54.1072 4.29941 54.0319 4.43337 53.898C4.56732 53.764 4.64258 53.5823 4.64258 53.3929C4.64258 53.2034 4.56732 53.0218 4.43337 52.8878C4.29941 52.7538 4.11773 52.6786 3.92829 52.6786Z"
            fill="#2D4356" />
        <path
            d="M42.1987 55.5358H39.2316C39.052 55.5502 38.8845 55.6316 38.7623 55.764C38.6401 55.8964 38.5723 56.0699 38.5723 56.2501C38.5723 56.4302 38.6401 56.6037 38.7623 56.7361C38.8845 56.8685 39.052 56.95 39.2316 56.9643H42.1987C42.3782 56.95 42.5458 56.8685 42.668 56.7361C42.7902 56.6037 42.858 56.4302 42.858 56.2501C42.858 56.0699 42.7902 55.8964 42.668 55.764C42.5458 55.6316 42.3782 55.5502 42.1987 55.5358Z"
            fill="#0BCEB2" />
        <path
            d="M20.769 55.5358H17.8019C17.6224 55.5502 17.4548 55.6316 17.3326 55.764C17.2104 55.8964 17.1426 56.0699 17.1426 56.2501C17.1426 56.4302 17.2104 56.6037 17.3326 56.7361C17.4548 56.8685 17.6224 56.95 17.8019 56.9643H20.769C20.9485 56.95 21.1161 56.8685 21.2383 56.7361C21.3605 56.6037 21.4283 56.4302 21.4283 56.2501C21.4283 56.0699 21.3605 55.8964 21.2383 55.764C21.1161 55.6316 20.9485 55.5502 20.769 55.5358Z"
            fill="#0BCEB2" />
        <path
            d="M37.1426 55.5358H22.8569C22.6674 55.5358 22.4857 55.611 22.3518 55.745C22.2178 55.8789 22.1426 56.0606 22.1426 56.2501C22.1426 56.4395 22.2178 56.6212 22.3518 56.7551C22.4857 56.8891 22.6674 56.9643 22.8569 56.9643H28.5497V57.6786H25.714C25.5246 57.6786 25.3429 57.7539 25.2089 57.8878C25.075 58.0218 24.9997 58.2035 24.9997 58.3929C24.9997 58.5823 25.075 58.764 25.2089 58.898C25.3429 59.0319 25.5246 59.1072 25.714 59.1072H34.6426C34.832 59.1072 35.0137 59.0319 35.1477 58.898C35.2816 58.764 35.3569 58.5823 35.3569 58.3929C35.3569 58.2035 35.2816 58.0218 35.1477 57.8878C35.0137 57.7539 34.832 57.6786 34.6426 57.6786H31.4497V56.9643H37.1426C37.332 56.9643 37.5137 56.8891 37.6477 56.7551C37.7816 56.6212 37.8569 56.4395 37.8569 56.2501C37.8569 56.0606 37.7816 55.8789 37.6477 55.745C37.5137 55.611 37.332 55.5358 37.1426 55.5358Z"
            fill="#0BCEB2" />
        <path
            d="M29.9994 50.1786C30.3939 50.1786 30.7137 49.8588 30.7137 49.4643C30.7137 49.0698 30.3939 48.75 29.9994 48.75C29.605 48.75 29.2852 49.0698 29.2852 49.4643C29.2852 49.8588 29.605 50.1786 29.9994 50.1786Z"
            fill="#0BCEB2" />
        <path
            d="M57.1412 52.6786H56.0698C55.8803 52.6786 55.6986 52.7538 55.5647 52.8878C55.4307 53.0218 55.3555 53.2034 55.3555 53.3929C55.3555 53.5823 55.4307 53.764 55.5647 53.898C55.6986 54.0319 55.8803 54.1072 56.0698 54.1072H57.1412C57.3306 54.1072 57.5123 54.0319 57.6463 53.898C57.7802 53.764 57.8555 53.5823 57.8555 53.3929C57.8555 53.2034 57.7802 53.0218 57.6463 52.8878C57.5123 52.7538 57.3306 52.6786 57.1412 52.6786Z"
            fill="#2D4356" />
        <path
            d="M59.2846 54.1072C59.6791 54.1072 59.9989 53.7874 59.9989 53.3929C59.9989 52.9984 59.6791 52.6786 59.2846 52.6786C58.8901 52.6786 58.5703 52.9984 58.5703 53.3929C58.5703 53.7874 58.8901 54.1072 59.2846 54.1072Z"
            fill="#2D4356" />
        <path
            d="M53.8272 52.6785H51.6233L40.8681 46.2758C40.7619 46.2127 40.6411 46.1783 40.5176 46.1757C40.3941 46.1731 40.272 46.2026 40.1633 46.2611C38.8663 46.9618 36.9104 47.2206 35.4636 46.2193C34.9665 45.9016 34.5519 45.4704 34.254 44.9612C33.9562 44.4519 33.7835 43.8793 33.7502 43.2903L36.4047 45.1269C36.8661 45.4529 37.4347 45.5899 37.9939 45.5098C38.5531 45.4297 39.0604 45.1386 39.4117 44.6962L40.117 43.788C40.2827 43.5812 40.404 43.3427 40.4734 43.0871C40.5429 42.8314 40.559 42.5643 40.5207 42.3022C40.4717 42.0158 40.3643 41.7427 40.2052 41.4995C40.0462 41.2564 39.8389 41.0486 39.5962 40.889L37.0065 39.0966C37.6183 38.9177 38.262 38.8762 38.8917 38.9751C39.5214 39.0741 40.1214 39.311 40.6487 39.669C42.0695 40.6522 42.3921 42.4515 42.0818 43.7988C42.0469 43.9503 42.0623 44.1091 42.1259 44.2511C42.1894 44.393 42.2975 44.5104 42.4338 44.5853L51.7969 49.7331C51.9629 49.824 52.1582 49.8452 52.3398 49.7922C52.5214 49.7392 52.6746 49.6163 52.7658 49.4505C52.8569 49.2847 52.8785 49.0895 52.8259 48.9077C52.7733 48.726 52.6507 48.5725 52.485 48.4811L43.5715 43.5805C43.7173 42.6209 43.5979 41.6397 43.226 40.7431C42.8541 39.8466 42.244 39.0689 41.4617 38.4943C40.6738 37.9591 39.766 37.6266 38.8187 37.5264C37.8715 37.4262 36.9142 37.5614 36.0317 37.9199C35.8243 37.9982 35.6421 38.1316 35.5047 38.3056C35.3673 38.4796 35.2798 38.6877 35.2517 38.9076C35.2278 39.1089 35.2599 39.3128 35.3445 39.497C35.4291 39.6812 35.563 39.8385 35.7312 39.9515L38.7832 42.0636C38.865 42.1142 38.936 42.1805 38.9919 42.2588C39.0478 42.337 39.0875 42.4257 39.1087 42.5195C39.1173 42.5897 39.111 42.6608 39.0903 42.7284C39.0696 42.796 39.0349 42.8585 38.9886 42.9119L38.2834 43.8201C38.1575 43.9759 37.976 44.0767 37.7772 44.1014C37.5784 44.126 37.3778 44.0726 37.2177 43.9523L34.1656 41.8404C33.9994 41.7203 33.8042 41.6468 33.6001 41.6273C33.396 41.6079 33.1905 41.6433 33.0046 41.7298C32.8188 41.8164 32.6594 41.951 32.5429 42.1197C32.4265 42.2885 32.3572 42.4852 32.3422 42.6897C32.2676 43.609 32.4427 44.5315 32.849 45.3595C33.2553 46.1875 33.8777 46.8904 34.6506 47.3939C36.2593 48.5076 38.505 48.6167 40.4731 47.7033C40.4731 47.7033 45.7245 50.8296 48.8304 52.6785H44.641V51.7829L43.2124 50.9499V52.6785H16.7838V50.9501L15.3553 51.7831V52.6785H11.1662L19.5234 47.7033C21.4914 48.6164 23.7373 48.5076 25.3459 47.3939C26.1187 46.8905 26.7411 46.1877 27.1474 45.3597C27.5537 44.5317 27.7288 43.6093 27.6542 42.69C27.6393 42.4855 27.5701 42.2887 27.4537 42.1199C27.3373 41.9511 27.1779 41.8165 26.9921 41.7299C26.8062 41.6433 26.6006 41.6078 26.3965 41.6273C26.1924 41.6467 25.9972 41.7203 25.831 41.8404L22.7789 43.9522C22.6188 44.0727 22.4182 44.1263 22.2193 44.1016C22.0205 44.077 21.839 43.976 21.7132 43.82L21.0082 42.9118C20.9617 42.8585 20.927 42.7959 20.9062 42.7283C20.8855 42.6606 20.8792 42.5894 20.8878 42.5191C20.9091 42.4254 20.9488 42.3368 21.0047 42.2586C21.0606 42.1804 21.1315 42.1141 21.2132 42.0636L24.265 39.9518C24.4334 39.8388 24.5673 39.6815 24.6519 39.4972C24.7366 39.313 24.7687 39.1089 24.7447 38.9076C24.7166 38.6877 24.6291 38.4795 24.4917 38.3055C24.3543 38.1315 24.1721 37.9982 23.9647 37.9199C23.0822 37.5613 22.1249 37.4262 21.1777 37.5264C20.2304 37.6266 19.3226 37.959 18.5347 38.4943C17.7524 39.0688 17.1422 39.8465 16.7703 40.7431C16.3984 41.6396 16.279 42.6208 16.4249 43.5804L7.51156 48.481C7.34591 48.5725 7.22332 48.7259 7.17068 48.9077C7.11805 49.0894 7.13967 49.2846 7.2308 49.4505C7.32194 49.6163 7.47514 49.7392 7.65678 49.7922C7.83843 49.8452 8.03368 49.8239 8.19968 49.7331L17.5628 44.5853C17.6991 44.5103 17.8072 44.393 17.8707 44.251C17.9342 44.1091 17.9497 43.9503 17.9147 43.7988C17.6043 42.4515 17.927 40.6521 19.3477 39.669C19.8751 39.3111 20.4751 39.0742 21.1048 38.9752C21.7344 38.8763 22.3781 38.9178 22.9899 39.0966L20.4003 40.889C20.1576 41.0486 19.9503 41.2564 19.7913 41.4995C19.6322 41.7427 19.5249 42.0158 19.4758 42.3022C19.4376 42.5643 19.4537 42.8315 19.5232 43.0871C19.5927 43.3427 19.7141 43.5813 19.8797 43.7879L20.5849 44.6962C20.9362 45.1386 21.4435 45.4297 22.0027 45.5098C22.5619 45.5899 23.1305 45.4529 23.5919 45.1269L26.2462 43.2903C26.213 43.8793 26.0403 44.4519 25.7424 44.9612C25.4445 45.4704 25.03 45.9016 24.5329 46.2192C23.0863 47.2199 21.1299 46.9614 19.8333 46.2611C19.7246 46.2025 19.6025 46.1731 19.479 46.1757C19.3555 46.1783 19.2347 46.2127 19.1285 46.2757L8.37329 52.6785H6.16916C6.06754 52.6652 5.96426 52.6738 5.86621 52.7036C5.76817 52.7334 5.67761 52.7838 5.6006 52.8514C5.52358 52.919 5.46188 53.0023 5.41961 53.0957C5.37733 53.189 5.35547 53.2903 5.35547 53.3928C5.35547 53.4953 5.37733 53.5966 5.41961 53.6899C5.46188 53.7833 5.52358 53.8666 5.6006 53.9342C5.67761 54.0018 5.76817 54.0522 5.86621 54.082C5.96426 54.1118 6.06754 54.1204 6.16916 54.1071H53.8272C53.9288 54.1204 54.0321 54.1118 54.1302 54.082C54.2282 54.0522 54.3188 54.0018 54.3958 53.9342C54.4728 53.8666 54.5345 53.7833 54.5768 53.6899C54.6191 53.5966 54.6409 53.4953 54.6409 53.3928C54.6409 53.2903 54.6191 53.189 54.5768 53.0957C54.5345 53.0023 54.4728 52.919 54.3958 52.8514C54.3188 52.7838 54.2282 52.7334 54.1302 52.7036C54.0321 52.6738 53.9288 52.6652 53.8272 52.6785Z"
            fill="#2D4356" />
        <path
            d="M31.0695 3.03568C31.2814 3.03568 31.4885 2.97284 31.6647 2.85511C31.8409 2.73738 31.9783 2.57005 32.0593 2.37427C32.1404 2.17849 32.1617 1.96306 32.1203 1.75523C32.079 1.54739 31.9769 1.35648 31.8271 1.20664C31.6772 1.05679 31.4863 0.954751 31.2785 0.91341C31.0707 0.872069 30.8552 0.893287 30.6595 0.97438C30.4637 1.05547 30.2963 1.1928 30.1786 1.369C30.0609 1.54519 29.998 1.75234 29.998 1.96425C29.9984 2.24831 30.1114 2.52065 30.3122 2.72151C30.5131 2.92237 30.7854 3.03535 31.0695 3.03568ZM31.0695 1.42854C31.1754 1.42854 31.279 1.45996 31.3671 1.51882C31.4552 1.57769 31.5239 1.66135 31.5644 1.75924C31.605 1.85713 31.6156 1.96485 31.5949 2.06876C31.5742 2.17268 31.5232 2.26814 31.4483 2.34306C31.3734 2.41798 31.2779 2.469 31.174 2.48967C31.0701 2.51034 30.9624 2.49973 30.8645 2.45919C30.7666 2.41864 30.6829 2.34998 30.624 2.26188C30.5652 2.17378 30.5338 2.07021 30.5338 1.96425C30.5339 1.82221 30.5904 1.68603 30.6908 1.5856C30.7913 1.48516 30.9274 1.42868 31.0695 1.42854Z"
            fill="#2D4356" />
        <path
            d="M56.5365 18.5668C56.3953 18.5668 56.2572 18.6087 56.1397 18.6872C56.0223 18.7656 55.9307 18.8772 55.8766 19.0077C55.8226 19.1382 55.8084 19.2818 55.836 19.4204C55.8636 19.559 55.9316 19.6862 56.0315 19.7861C56.1314 19.886 56.2586 19.9541 56.3972 19.9816C56.5358 20.0092 56.6794 19.995 56.8099 19.941C56.9404 19.8869 57.052 19.7954 57.1305 19.6779C57.2089 19.5604 57.2508 19.4223 57.2508 19.2811C57.2506 19.0917 57.1753 18.9101 57.0414 18.7762C56.9075 18.6423 56.7259 18.567 56.5365 18.5668ZM56.5365 19.6382C56.4659 19.6382 56.3969 19.6173 56.3381 19.578C56.2794 19.5388 56.2336 19.483 56.2066 19.4177C56.1796 19.3525 56.1725 19.2807 56.1863 19.2114C56.2001 19.1421 56.2341 19.0785 56.284 19.0285C56.334 18.9786 56.3976 18.9446 56.4669 18.9308C56.5362 18.917 56.608 18.9241 56.6732 18.9511C56.7385 18.9781 56.7943 19.0239 56.8335 19.0826C56.8727 19.1414 56.8937 19.2104 56.8937 19.2811C56.8936 19.3757 56.8559 19.4665 56.789 19.5335C56.722 19.6004 56.6312 19.6381 56.5365 19.6382Z"
            fill="#2D4356" />
        <path
            d="M2.14202 0.892822C2.00075 0.892822 1.86265 0.934714 1.74518 1.0132C1.62772 1.09169 1.53617 1.20324 1.48211 1.33376C1.42804 1.46428 1.4139 1.6079 1.44146 1.74646C1.46902 1.88502 1.53705 2.01229 1.63694 2.11218C1.73684 2.21208 1.86411 2.28011 2.00267 2.30767C2.14123 2.33523 2.28485 2.32108 2.41537 2.26702C2.54588 2.21296 2.65744 2.12141 2.73593 2.00394C2.81441 1.88648 2.85631 1.74838 2.85631 1.60711C2.85609 1.41773 2.78077 1.23618 2.64686 1.10227C2.51295 0.968363 2.33139 0.893039 2.14202 0.892822ZM2.14202 1.96425C2.07138 1.96425 2.00233 1.9433 1.9436 1.90406C1.88487 1.86482 1.83909 1.80904 1.81206 1.74378C1.78503 1.67852 1.77796 1.60671 1.79174 1.53743C1.80552 1.46815 1.83954 1.40452 1.88948 1.35457C1.93943 1.30462 2.00307 1.27061 2.07235 1.25683C2.14162 1.24305 2.21343 1.25012 2.27869 1.27715C2.34395 1.30418 2.39973 1.34996 2.43897 1.40869C2.47822 1.46742 2.49916 1.53647 2.49916 1.60711C2.49907 1.7018 2.46141 1.79258 2.39445 1.85954C2.3275 1.9265 2.23671 1.96416 2.14202 1.96425Z"
            fill="#2D4356" />
        <path
            d="M44.6987 4.46423C44.5574 4.46423 44.4193 4.50613 44.3018 4.58461C44.1844 4.6631 44.0928 4.77466 44.0387 4.90517C43.9847 5.03569 43.9705 5.17931 43.9981 5.31787C44.0257 5.45643 44.0937 5.5837 44.1936 5.6836C44.2935 5.78349 44.4208 5.85152 44.5593 5.87908C44.6979 5.90664 44.8415 5.8925 44.972 5.83843C45.1025 5.78437 45.2141 5.69282 45.2926 5.57535C45.3711 5.45789 45.4129 5.31979 45.4129 5.17852C45.4127 4.98915 45.3374 4.80759 45.2035 4.67368C45.0696 4.53977 44.888 4.46445 44.6987 4.46423ZM44.6987 5.53566C44.628 5.53566 44.559 5.51472 44.5002 5.47547C44.4415 5.43623 44.3957 5.38045 44.3687 5.31519C44.3417 5.24993 44.3346 5.17812 44.3484 5.10884C44.3622 5.03957 44.3962 4.97593 44.4461 4.92598C44.4961 4.87603 44.5597 4.84202 44.629 4.82824C44.6983 4.81446 44.7701 4.82153 44.8353 4.84856C44.9006 4.87559 44.9564 4.92137 44.9956 4.9801C45.0349 5.03883 45.0558 5.10788 45.0558 5.17852C45.0557 5.27321 45.0181 5.364 44.9511 5.43095C44.8841 5.49791 44.7934 5.53557 44.6987 5.53566Z"
            fill="#2D4356" />
        <path
            d="M4.10631 16.6757C4.10631 16.5344 4.06441 16.3963 3.98593 16.2789C3.90744 16.1614 3.79588 16.0699 3.66537 16.0158C3.53485 15.9617 3.39123 15.9476 3.25267 15.9752C3.11411 16.0027 2.98684 16.0707 2.88694 16.1706C2.78705 16.2705 2.71902 16.3978 2.69146 16.5364C2.6639 16.6749 2.67804 16.8185 2.73211 16.9491C2.78617 17.0796 2.87772 17.1911 2.99518 17.2696C3.11265 17.3481 3.25075 17.39 3.39202 17.39C3.58139 17.3898 3.76295 17.3145 3.89686 17.1805C4.03077 17.0466 4.10609 16.8651 4.10631 16.6757ZM3.03488 16.6757C3.03488 16.6051 3.05582 16.536 3.09507 16.4773C3.13431 16.4186 3.19009 16.3728 3.25535 16.3458C3.32061 16.3187 3.39242 16.3117 3.4617 16.3254C3.53097 16.3392 3.59461 16.3732 3.64456 16.4232C3.69451 16.4731 3.72852 16.5368 3.7423 16.606C3.75608 16.6753 3.74901 16.7471 3.72198 16.8124C3.69495 16.8776 3.64917 16.9334 3.59044 16.9727C3.53171 17.0119 3.46266 17.0329 3.39202 17.0329C3.29733 17.0328 3.20654 16.9951 3.13959 16.9281C3.07263 16.8612 3.03497 16.7704 3.03488 16.6757Z"
            fill="#2D4356" />
        <path
            d="M8.74547 6.87467L9.27654 6.17645L8.94118 5.98645L8.60047 6.76859H8.58904L8.24261 5.99181L7.90154 6.18752L8.4269 6.86931V6.88038L7.60547 6.77431V7.15431L8.43261 7.04824V7.05931L7.90154 7.74074L8.22011 7.94217L8.58368 7.15431H8.5944L8.92975 7.93645L9.2819 7.73538L8.74547 7.06466V7.05359L9.58904 7.15431V6.77431L8.74547 6.88609V6.87467Z"
            fill="#0BCEB2" />
        <path
            d="M22.4042 6.79645L22.0984 7.18895L22.2817 7.30466L22.4909 6.85109H22.4974L22.6906 7.30145L22.8934 7.18573L22.5845 6.7993V6.79323L23.0702 6.85109V6.63216L22.5845 6.69645V6.69002L22.8902 6.28788L22.697 6.17859L22.5009 6.62895H22.4942L22.2949 6.1818L22.0984 6.2943L22.4009 6.6868V6.69323L21.9277 6.63216V6.85109L22.4042 6.79002V6.79645Z"
            fill="#0BCEB2" />
        <path
            d="M58.225 13.325V12.9522L57.3975 13.0618V13.0511L57.9182 12.3658L57.5893 12.1797L57.255 12.9468H57.2439L56.9043 12.185L56.5697 12.3768L57.085 13.0458V13.0565L56.2793 12.9522V13.325L57.0904 13.2211V13.2318L56.5697 13.9004L56.8822 14.0979L57.2386 13.325H57.2493L57.5782 14.0925L57.9236 13.895L57.3975 13.2372V13.2265L58.225 13.325Z"
            fill="#0BCEB2" />
        <path
            d="M55.5916 2.96004L56.0409 2.36897L55.7573 2.20825L55.4687 2.87004H55.4591L55.1662 2.21289L54.8777 2.37861L55.3223 2.95539V2.96468L54.627 2.87504V3.19647L55.327 3.10682V3.11611L54.8777 3.69289L55.147 3.86325L55.4545 3.19647H55.4637L55.7477 3.85825L56.0455 3.68825L55.5916 3.12075V3.11147L56.3055 3.19647V2.87504L55.5916 2.96932V2.96004Z"
            fill="#0BCEB2" />
    </g>
    <defs>
        <clipPath id="clip0_715_32090">
            <rect width="60" height="60" fill="white" />
        </clipPath>
    </defs>
</svg>