<svg width="60" height="60" viewBox="0 0 60 60" fill="none" xmlns="http://www.w3.org/2000/svg">
<g clip-path="url(#clip0_2_6873)">
<path d="M22.1406 12.0566H12.8549C12.6655 12.0566 12.4838 12.1319 12.3498 12.2659C12.2159 12.3998 12.1406 12.5815 12.1406 12.7709C12.1406 12.9604 12.2159 13.142 12.3498 13.276C12.4838 13.41 12.6655 13.4852 12.8549 13.4852H22.1406C22.3301 13.4852 22.5117 13.41 22.6457 13.276C22.7797 13.142 22.8549 12.9604 22.8549 12.7709C22.8549 12.5815 22.7797 12.3998 22.6457 12.2659C22.5117 12.1319 22.3301 12.0566 22.1406 12.0566Z" fill="#2D4356"/>
<path d="M24.9994 12.0566C24.81 12.0566 24.6283 12.1319 24.4944 12.2659C24.3604 12.3998 24.2852 12.5815 24.2852 12.7709C24.2852 12.9604 24.3604 13.142 24.4944 13.276C24.6283 13.41 24.81 13.4852 24.9994 13.4852H25.7137C25.9032 13.4852 26.0848 13.41 26.2188 13.276C26.3528 13.142 26.428 12.9604 26.428 12.7709C26.428 12.5815 26.3528 12.3998 26.2188 12.2659C26.0848 12.1319 25.9032 12.0566 25.7137 12.0566H24.9994Z" fill="#4C7DA7"/>
<path d="M22.1406 15.6289H12.8549C12.6655 15.6289 12.4838 15.7042 12.3498 15.8381C12.2159 15.9721 12.1406 16.1538 12.1406 16.3432C12.1406 16.5326 12.2159 16.7143 12.3498 16.8483C12.4838 16.9822 12.6655 17.0575 12.8549 17.0575H22.1406C22.3301 17.0575 22.5117 16.9822 22.6457 16.8483C22.7797 16.7143 22.8549 16.5326 22.8549 16.3432C22.8549 16.1538 22.7797 15.9721 22.6457 15.8381C22.5117 15.7042 22.3301 15.6289 22.1406 15.6289Z" fill="#4C7DA7"/>
<path d="M22.1406 19.2002H12.8549C12.6655 19.2002 12.4838 19.2755 12.3498 19.4094C12.2159 19.5434 12.1406 19.725 12.1406 19.9145C12.1406 20.1039 12.2159 20.2856 12.3498 20.4196C12.4838 20.5535 12.6655 20.6288 12.8549 20.6288H22.1406C22.3301 20.6288 22.5117 20.5535 22.6457 20.4196C22.7797 20.2856 22.8549 20.1039 22.8549 19.9145C22.8549 19.725 22.7797 19.5434 22.6457 19.4094C22.5117 19.2755 22.3301 19.2002 22.1406 19.2002Z" fill="#2D4356"/>
<path d="M22.1406 22.7715H12.8549C12.6655 22.7715 12.4838 22.8467 12.3498 22.9807C12.2159 23.1146 12.1406 23.2963 12.1406 23.4858C12.1406 23.6752 12.2159 23.8569 12.3498 23.9908C12.4838 24.1248 12.6655 24.2001 12.8549 24.2001H22.0442C22.1732 24.0596 22.3041 23.9204 22.4399 23.7847C22.5726 23.652 22.7088 23.5241 22.846 23.3978C22.8251 23.2253 22.7419 23.0664 22.6119 22.951C22.482 22.8357 22.3144 22.7718 22.1406 22.7715Z" fill="#4C7DA7"/>
<path d="M9.99888 10.9856C9.99913 10.7963 10.0745 10.6147 10.2084 10.4808C10.3423 10.3469 10.5238 10.2716 10.7132 10.2713H34.2846C34.474 10.2716 34.6555 10.3469 34.7894 10.4808C34.9233 10.6147 34.9986 10.7963 34.9989 10.9856V20.306C35.4832 20.4275 35.9602 20.5767 36.4275 20.7528V10.9856C36.4268 10.4175 36.2009 9.87282 35.7991 9.47109C35.3974 9.06936 34.8527 8.84339 34.2846 8.84277H10.7132C10.145 8.84339 9.60036 9.06936 9.19863 9.47109C8.7969 9.87282 8.57093 10.4175 8.57031 10.9856V24.5571H9.99888V10.9856Z" fill="#2D4356"/>
<path d="M13.5692 33.1282H18.5692C18.5699 32.651 18.596 32.1741 18.6474 31.6996H13.5692C12.3673 31.6981 11.206 31.2643 10.2974 30.4775C9.38874 29.6907 8.79343 28.6033 8.62012 27.4139H19.8628C20.1001 26.9214 20.368 26.4443 20.665 25.9854H7.85491C7.66547 25.9854 7.4838 26.0606 7.34984 26.1946C7.21589 26.3285 7.14063 26.5102 7.14062 26.6996C7.1426 28.404 7.82053 30.038 9.0257 31.2431C10.2309 32.4483 11.8648 33.1262 13.5692 33.1282Z" fill="#2D4356"/>
<path d="M26.5502 26.885C26.4807 26.822 26.3995 26.7734 26.3111 26.7418C26.2228 26.7103 26.1291 26.6964 26.0355 26.7011C25.9418 26.7057 25.85 26.7288 25.7652 26.769C25.6805 26.8092 25.6045 26.8656 25.5416 26.9352C24.0463 28.6521 23.2227 30.852 23.2227 33.1287C23.2227 35.4054 24.0463 37.6053 25.5416 39.3222C25.6688 39.4622 25.8463 39.5459 26.0352 39.5551C26.2241 39.5644 26.409 39.4982 26.5492 39.3713C26.6894 39.2444 26.7736 39.067 26.7832 38.8781C26.7928 38.6892 26.7271 38.5043 26.6004 38.3638C25.3367 36.9125 24.6407 35.0531 24.6407 33.1287C24.6407 31.2043 25.3367 29.3449 26.6004 27.8936C26.6634 27.8241 26.712 27.7429 26.7436 27.6546C26.7751 27.5662 26.789 27.4726 26.7843 27.3789C26.7797 27.2852 26.7566 27.1934 26.7164 27.1086C26.6762 27.0239 26.6198 26.9479 26.5502 26.885Z" fill="#4C7DA7"/>
<path d="M52.144 8.84277H42.144C41.9545 8.84277 41.7729 8.91803 41.6389 9.05198C41.5049 9.18594 41.4297 9.36762 41.4297 9.55706C41.4297 9.7465 41.5049 9.92818 41.6389 10.0621C41.7729 10.1961 41.9545 10.2713 42.144 10.2713H51.4297V35.9856C51.4297 36.1751 51.5049 36.3568 51.6389 36.4907C51.7729 36.6247 51.9545 36.6999 52.144 36.6999C52.3334 36.6999 52.5151 36.6247 52.6491 36.4907C52.783 36.3568 52.8583 36.1751 52.8583 35.9856V9.55706C52.8582 9.36762 52.783 9.18595 52.649 9.05199C52.5151 8.91804 52.3334 8.84278 52.144 8.84277Z" fill="#2D4356"/>
<path d="M0.714286 54.5565C1.10877 54.5565 1.42857 54.2367 1.42857 53.8422C1.42857 53.4477 1.10877 53.1279 0.714286 53.1279C0.319797 53.1279 0 53.4477 0 53.8422C0 54.2367 0.319797 54.5565 0.714286 54.5565Z" fill="#2D4356"/>
<path d="M3.92634 53.1289H2.85491C2.66547 53.1289 2.48379 53.2042 2.34983 53.3381C2.21588 53.4721 2.14063 53.6538 2.14062 53.8432C2.14063 54.0326 2.21588 54.2143 2.34983 54.3483C2.48379 54.4822 2.66547 54.5575 2.85491 54.5575H3.92634C4.11578 54.5575 4.29746 54.4822 4.43142 54.3483C4.56537 54.2143 4.64062 54.0326 4.64062 53.8432C4.64062 53.6538 4.56537 53.4721 4.43142 53.3381C4.29746 53.2042 4.11578 53.1289 3.92634 53.1289Z" fill="#2D4356"/>
<path d="M57.1451 53.1289H56.0737C55.8842 53.1289 55.7025 53.2042 55.5686 53.3381C55.4346 53.4721 55.3594 53.6538 55.3594 53.8432C55.3594 54.0326 55.4346 54.2143 55.5686 54.3483C55.7025 54.4822 55.8842 54.5575 56.0737 54.5575H57.1451C57.3345 54.5575 57.5162 54.4822 57.6502 54.3483C57.7841 54.2143 57.8594 54.0326 57.8594 53.8432C57.8594 53.6538 57.7841 53.4721 57.6502 53.3381C57.5162 53.2042 57.3345 53.1289 57.1451 53.1289Z" fill="#2D4356"/>
<path d="M59.2846 54.5565C59.6791 54.5565 59.9989 54.2367 59.9989 53.8422C59.9989 53.4477 59.6791 53.1279 59.2846 53.1279C58.8901 53.1279 58.5703 53.4477 58.5703 53.8422C58.5703 54.2367 58.8901 54.5565 59.2846 54.5565Z" fill="#2D4356"/>
<path d="M42.1967 55.9854H39.2297C39.0501 55.9997 38.8825 56.0812 38.7603 56.2136C38.6382 56.346 38.5703 56.5195 38.5703 56.6996C38.5703 56.8798 38.6382 57.0533 38.7603 57.1857C38.8825 57.318 39.0501 57.3995 39.2297 57.4139H42.1967C42.3763 57.3995 42.5438 57.318 42.666 57.1857C42.7882 57.0533 42.856 56.8798 42.856 56.6996C42.856 56.5195 42.7882 56.346 42.666 56.2136C42.5438 56.0812 42.3763 55.9997 42.1967 55.9854Z" fill="#4C7DA7"/>
<path d="M20.767 55.9854H17.8C17.6204 55.9997 17.4528 56.0812 17.3307 56.2136C17.2085 56.346 17.1406 56.5195 17.1406 56.6996C17.1406 56.8798 17.2085 57.0533 17.3307 57.1857C17.4528 57.318 17.6204 57.3995 17.8 57.4139H20.767C20.9466 57.3995 21.1141 57.318 21.2363 57.1857C21.3585 57.0533 21.4264 56.8798 21.4264 56.6996C21.4264 56.5195 21.3585 56.346 21.2363 56.2136C21.1141 56.0812 20.9466 55.9997 20.767 55.9854Z" fill="#4C7DA7"/>
<path d="M37.1406 55.9854H22.8549C22.6655 55.9854 22.4838 56.0606 22.3498 56.1946C22.2159 56.3285 22.1406 56.5102 22.1406 56.6996C22.1406 56.8891 22.2159 57.0708 22.3498 57.2047C22.4838 57.3387 22.6655 57.4139 22.8549 57.4139H28.5478V58.1282H25.7121C25.5226 58.1282 25.3409 58.2035 25.207 58.3374C25.073 58.4714 24.9978 58.6531 24.9978 58.8425C24.9978 59.0319 25.073 59.2136 25.207 59.3476C25.3409 59.4815 25.5226 59.5568 25.7121 59.5568H34.6406C34.8301 59.5568 35.0117 59.4815 35.1457 59.3476C35.2797 59.2136 35.3549 59.0319 35.3549 58.8425C35.3549 58.6531 35.2797 58.4714 35.1457 58.3374C35.0117 58.2035 34.8301 58.1282 34.6406 58.1282H31.4478V57.4139H37.1406C37.3301 57.4139 37.5117 57.3387 37.6457 57.2047C37.7797 57.0708 37.8549 56.8891 37.8549 56.6996C37.8549 56.5102 37.7797 56.3285 37.6457 56.1946C37.5117 56.0606 37.3301 55.9854 37.1406 55.9854Z" fill="#4C7DA7"/>
<path d="M53.8272 53.1281H52.2646C52.7046 52.5017 52.9095 51.7401 52.8431 50.9775C52.7767 50.2148 52.4433 49.5001 51.9017 48.9592L45.7748 42.8322C45.5904 42.6441 45.3564 42.512 45.1001 42.4513C44.8437 42.3906 44.5754 42.4036 44.3262 42.489L41.5565 39.7193C43.1811 37.3096 43.8577 34.3843 43.456 31.506C43.0543 28.6276 41.6027 25.9994 39.3804 24.1265C37.1581 22.2537 34.3218 21.2685 31.417 21.3604C28.5122 21.4523 25.7439 22.6147 23.6444 24.6242C21.5448 26.6337 20.2623 29.3485 20.0433 32.2465C19.8242 35.1444 20.6843 38.0211 22.458 40.3233C24.2317 42.6256 26.7938 44.1908 29.6518 44.7182C32.5098 45.2456 35.4619 44.6978 37.9405 43.1803L40.7882 46.028C40.7025 46.277 40.6892 46.5453 40.7498 46.8016C40.8105 47.0579 40.9426 47.2918 41.1309 47.476L46.7829 53.1281H8.56962V35.9852C8.56962 35.7958 8.49437 35.6141 8.36041 35.4801C8.22646 35.3462 8.04478 35.2709 7.85534 35.2709C7.6659 35.2709 7.48422 35.3462 7.35026 35.4801C7.21631 35.6141 7.14105 35.7958 7.14105 35.9852V53.1281H6.16916C6.06754 53.1148 5.96426 53.1233 5.86621 53.1532C5.76817 53.183 5.67761 53.2334 5.6006 53.301C5.52358 53.3686 5.46188 53.4519 5.41961 53.5452C5.37733 53.6386 5.35547 53.7399 5.35547 53.8424C5.35547 53.9448 5.37733 54.0461 5.41961 54.1395C5.46188 54.2328 5.52358 54.3161 5.6006 54.3837C5.67761 54.4513 5.76817 54.5017 5.86621 54.5315C5.96426 54.5614 6.06754 54.5699 6.16916 54.5566H53.8272C53.9289 54.5699 54.0321 54.5614 54.1302 54.5315C54.2282 54.5017 54.3188 54.4513 54.3958 54.3837C54.4728 54.3161 54.5345 54.2328 54.5768 54.1395C54.6191 54.0461 54.6409 53.9448 54.6409 53.8424C54.6409 53.7399 54.6191 53.6386 54.5768 53.5452C54.5345 53.4519 54.4728 53.3686 54.3958 53.301C54.3188 53.2334 54.2282 53.183 54.1302 53.1532C54.0321 53.1233 53.9289 53.1148 53.8272 53.1281ZM31.7839 43.4852C29.3877 43.4853 27.0655 42.6545 25.2131 41.1344C23.3608 39.6142 22.0928 37.4988 21.6252 35.1486C21.1577 32.7984 21.5195 30.3588 22.6491 28.2455C23.7786 26.1322 25.606 24.4759 27.8199 23.5588C30.0337 22.6418 32.497 22.5207 34.7901 23.2163C37.0832 23.9119 39.0642 25.381 40.3955 27.3735C41.7268 29.3659 42.326 31.7582 42.0912 34.143C41.8563 36.5277 40.8018 38.7572 39.1074 40.4516C38.1479 41.4164 37.0066 42.1813 35.7495 42.702C34.4925 43.2227 33.1446 43.4889 31.7839 43.4852ZM39.1261 42.3456C39.4726 42.0695 39.8036 41.7744 40.1175 41.4617C40.3123 41.2669 40.4965 41.0646 40.6758 40.859L43.2018 43.3849L41.6835 44.9031L39.1261 42.3456ZM48.2679 52.5928L42.1411 46.4659L44.7647 43.8423L50.8915 49.9693C51.0612 50.139 51.1958 50.3405 51.2877 50.5622C51.3795 50.7839 51.4268 51.0216 51.4268 51.2616C51.4267 51.5016 51.3795 51.7392 51.2876 51.9609C51.1957 52.1826 51.0611 52.3841 50.8914 52.5537L50.852 52.5931C50.5093 52.9357 50.0445 53.1281 49.5599 53.1281C49.0753 53.128 48.6105 52.9355 48.2679 52.5928Z" fill="#2D4356"/>
<path d="M23.6808 3.12821C23.8927 3.12821 24.0999 3.06537 24.2761 2.94764C24.4523 2.82991 24.5896 2.66258 24.6707 2.4668C24.7518 2.27102 24.773 2.05559 24.7316 1.84776C24.6903 1.63992 24.5883 1.44901 24.4384 1.29917C24.2886 1.14932 24.0977 1.04728 23.8898 1.00594C23.682 0.964598 23.4666 0.985816 23.2708 1.06691C23.075 1.148 22.9077 1.28533 22.7899 1.46153C22.6722 1.63772 22.6094 1.84487 22.6094 2.05678C22.6097 2.34084 22.7227 2.61317 22.9235 2.81404C23.1244 3.0149 23.3967 3.12788 23.6808 3.12821ZM23.6808 1.52107C23.7868 1.52107 23.8903 1.55249 23.9784 1.61135C24.0665 1.67022 24.1352 1.75388 24.1757 1.85177C24.2163 1.94966 24.2269 2.05737 24.2062 2.16129C24.1856 2.26521 24.1345 2.36067 24.0596 2.43559C23.9847 2.51051 23.8892 2.56153 23.7853 2.5822C23.6814 2.60287 23.5737 2.59226 23.4758 2.55172C23.3779 2.51117 23.2942 2.44251 23.2354 2.35441C23.1765 2.26631 23.1451 2.16273 23.1451 2.05678C23.1452 1.91474 23.2017 1.77856 23.3022 1.67813C23.4026 1.57769 23.5388 1.52121 23.6808 1.52107Z" fill="#2D4356"/>
<path d="M58.683 17.4141C58.5418 17.4141 58.4037 17.456 58.2862 17.5344C58.1687 17.6129 58.0772 17.7245 58.0231 17.855C57.9691 17.9855 57.9549 18.1291 57.9825 18.2677C58.01 18.4063 58.0781 18.5335 58.178 18.6334C58.2779 18.7333 58.4051 18.8013 58.5437 18.8289C58.6822 18.8565 58.8259 18.8423 58.9564 18.7883C59.0869 18.7342 59.1985 18.6426 59.2769 18.5252C59.3554 18.4077 59.3973 18.2696 59.3973 18.1283C59.3971 17.939 59.3218 17.7574 59.1879 17.6235C59.054 17.4896 58.8724 17.4143 58.683 17.4141ZM58.683 18.4855C58.6124 18.4855 58.5434 18.4645 58.4846 18.4253C58.4259 18.3861 58.3801 18.3303 58.3531 18.265C58.326 18.1998 58.319 18.128 58.3328 18.0587C58.3465 17.9894 58.3806 17.9258 58.4305 17.8758C58.4804 17.8259 58.5441 17.7918 58.6134 17.7781C58.6826 17.7643 58.7544 17.7714 58.8197 17.7984C58.885 17.8254 58.9407 17.8712 58.98 17.9299C59.0192 17.9887 59.0402 18.0577 59.0402 18.1283C59.0401 18.223 59.0024 18.3138 58.9355 18.3808C58.8685 18.4477 58.7777 18.4854 58.683 18.4855Z" fill="#2D4356"/>
<path d="M2.60882 2.05664C2.46754 2.05664 2.32945 2.09853 2.21198 2.17702C2.09452 2.25551 2.00297 2.36706 1.9489 2.49758C1.89484 2.6281 1.8807 2.77172 1.90826 2.91028C1.93582 3.04883 2.00385 3.17611 2.10374 3.276C2.20364 3.3759 2.33091 3.44393 2.46947 3.47149C2.60802 3.49905 2.75164 3.4849 2.88216 3.43084C3.01268 3.37678 3.12424 3.28523 3.20272 3.16776C3.28121 3.0503 3.3231 2.9122 3.3231 2.77093C3.32289 2.58155 3.24756 2.4 3.11365 2.26609C2.97975 2.13218 2.79819 2.05686 2.60882 2.05664ZM2.60882 3.12807C2.53818 3.12807 2.46913 3.10712 2.4104 3.06788C2.35167 3.02864 2.30589 2.97286 2.27886 2.9076C2.25183 2.84234 2.24476 2.77053 2.25854 2.70125C2.27232 2.63197 2.30633 2.56834 2.35628 2.51839C2.40623 2.46844 2.46986 2.43443 2.53914 2.42065C2.60842 2.40687 2.68023 2.41394 2.74549 2.44097C2.81075 2.468 2.86653 2.51378 2.90577 2.57251C2.94501 2.63124 2.96596 2.70029 2.96596 2.77093C2.96587 2.86562 2.92821 2.9564 2.86125 3.02336C2.79429 3.09032 2.70351 3.12797 2.60882 3.12807Z" fill="#2D4356"/>
<path d="M54.394 10.9854C54.2527 10.9854 54.1146 11.0272 53.9971 11.1057C53.8797 11.1842 53.7881 11.2958 53.7341 11.4263C53.68 11.5568 53.6659 11.7004 53.6934 11.839C53.721 11.9775 53.789 12.1048 53.8889 12.2047C53.9888 12.3046 54.1161 12.3726 54.2546 12.4002C54.3932 12.4278 54.5368 12.4136 54.6673 12.3596C54.7978 12.3055 54.9094 12.2139 54.9879 12.0965C55.0664 11.979 55.1083 11.8409 55.1083 11.6996C55.108 11.5103 55.0327 11.3287 54.8988 11.1948C54.7649 11.0609 54.5833 10.9856 54.394 10.9854ZM54.394 12.0568C54.3233 12.0568 54.2543 12.0358 54.1956 11.9966C54.1368 11.9573 54.091 11.9016 54.064 11.8363C54.037 11.7711 54.0299 11.6992 54.0437 11.63C54.0575 11.5607 54.0915 11.497 54.1414 11.4471C54.1914 11.3972 54.255 11.3631 54.3243 11.3494C54.3936 11.3356 54.4654 11.3426 54.5306 11.3697C54.5959 11.3967 54.6517 11.4425 54.6909 11.5012C54.7302 11.56 54.7511 11.629 54.7511 11.6996C54.751 11.7943 54.7134 11.8851 54.6464 11.9521C54.5794 12.019 54.4887 12.0567 54.394 12.0568Z" fill="#2D4356"/>
<path d="M14.7489 7.05706C14.7489 6.91579 14.707 6.77769 14.6285 6.66022C14.55 6.54276 14.4385 6.45121 14.3079 6.39715C14.1774 6.34308 14.0338 6.32894 13.8952 6.3565C13.7567 6.38406 13.6294 6.45209 13.5295 6.55198C13.4296 6.65188 13.3616 6.77915 13.334 6.91771C13.3065 7.05627 13.3206 7.19989 13.3747 7.3304C13.4287 7.46092 13.5203 7.57248 13.6378 7.65097C13.7552 7.72945 13.8933 7.77135 14.0346 7.77135C14.224 7.77113 14.4055 7.6958 14.5394 7.5619C14.6733 7.42799 14.7487 7.24643 14.7489 7.05706ZM13.6775 7.05706C13.6775 6.98642 13.6984 6.91737 13.7376 6.85864C13.7769 6.79991 13.8327 6.75413 13.8979 6.7271C13.9632 6.70007 14.035 6.693 14.1043 6.70678C14.1736 6.72056 14.2372 6.75457 14.2871 6.80452C14.3371 6.85447 14.3711 6.91811 14.3849 6.98738C14.3987 7.05666 14.3916 7.12847 14.3646 7.19373C14.3375 7.25899 14.2917 7.31477 14.233 7.35401C14.1743 7.39326 14.1052 7.4142 14.0346 7.4142C13.9399 7.41411 13.8491 7.37645 13.7822 7.30949C13.7152 7.24254 13.6776 7.15175 13.6775 7.05706Z" fill="#2D4356"/>
<path d="M3.53098 13.8466L4.06205 13.148L3.7267 12.958L3.38562 13.7402H3.37455L3.02812 12.9637L2.68705 13.1591L3.21241 13.8409V13.8523L2.39062 13.7459V14.1259L3.21777 14.0198V14.0309L2.68705 14.7127L3.00527 14.9137L3.36884 14.1259H3.37991L3.71527 14.908L4.06741 14.7069L3.53098 14.0366V14.0252L4.37455 14.1259V13.7459L3.53098 13.8576V13.8466Z" fill="#4C7DA7"/>
<path d="M34.3124 7.43817L34.0067 7.83067L34.1902 7.94674L34.3995 7.49281H34.4056L34.5988 7.94353L34.8016 7.82746L34.4927 7.44138V7.43495L34.9784 7.49281V7.27388L34.4927 7.33817V7.3321L34.7984 6.9296L34.6056 6.82031L34.4092 7.27067H34.4027L34.2031 6.82353L34.0067 6.93603L34.3092 7.32888V7.33531L33.8359 7.27388V7.49281L34.3124 7.43174V7.43817Z" fill="#4C7DA7"/>
<path d="M59.3953 2.66879V2.29594L58.5678 2.40558V2.39487L59.0885 1.70951L58.7596 1.52344L58.4253 2.29058H58.4142L58.0746 1.52879L57.7399 1.72058L58.2553 2.38951V2.40022L57.4492 2.29594V2.66879L58.2606 2.56487V2.57558L57.7399 3.24415L58.0524 3.44165L58.4089 2.66879H58.4196L58.7485 3.43629L59.0939 3.23879L58.5678 2.58094V2.57022L59.3953 2.66879Z" fill="#4C7DA7"/>
<path d="M44.1951 1.19479L44.6444 0.604074L44.3605 0.443359L44.0723 1.10515H44.0626L43.7698 0.448002L43.4808 0.613359L43.9255 1.19015V1.19979L43.2305 1.10979V1.43122L43.9301 1.34157V1.35086L43.4808 1.92764L43.7505 2.098L44.058 1.43122H44.0673L44.3512 2.09336L44.649 1.923L44.1951 1.3555V1.34622L44.9087 1.43122V1.10979L44.1951 1.20443V1.19479Z" fill="#4C7DA7"/>
</g>
<defs>
<clipPath id="clip0_2_6873">
<rect width="60" height="60" fill="white"/>
</clipPath>
</defs>
</svg>
