<svg width="60" height="60" viewBox="0 0 60 60" fill="none" xmlns="http://www.w3.org/2000/svg">
    <g clip-path="url(#clip0_715_32206)">
        <path
            d="M22.1426 12.0569H12.8569C12.6674 12.0569 12.4857 12.1321 12.3518 12.2661C12.2178 12.4 12.1426 12.5817 12.1426 12.7712C12.1426 12.9606 12.2178 13.1423 12.3518 13.2762C12.4857 13.4102 12.6674 13.4855 12.8569 13.4855H22.1426C22.332 13.4855 22.5137 13.4102 22.6477 13.2762C22.7816 13.1423 22.8569 12.9606 22.8569 12.7712C22.8569 12.5817 22.7816 12.4 22.6477 12.2661C22.5137 12.1321 22.332 12.0569 22.1426 12.0569Z"
            fill="#2D4356" />
        <path
            d="M24.9994 12.0569C24.81 12.0569 24.6283 12.1321 24.4944 12.2661C24.3604 12.4 24.2852 12.5817 24.2852 12.7712C24.2852 12.9606 24.3604 13.1423 24.4944 13.2762C24.6283 13.4102 24.81 13.4855 24.9994 13.4855H25.7137C25.9032 13.4855 26.0848 13.4102 26.2188 13.2762C26.3528 13.1423 26.428 12.9606 26.428 12.7712C26.428 12.5817 26.3528 12.4 26.2188 12.2661C26.0848 12.1321 25.9032 12.0569 25.7137 12.0569H24.9994Z"
            fill="#0BCEB2" />
        <path
            d="M22.1426 15.6284H12.8569C12.6674 15.6284 12.4857 15.7037 12.3518 15.8376C12.2178 15.9716 12.1426 16.1533 12.1426 16.3427C12.1426 16.5321 12.2178 16.7138 12.3518 16.8478C12.4857 16.9817 12.6674 17.057 12.8569 17.057H22.1426C22.332 17.057 22.5137 16.9817 22.6477 16.8478C22.7816 16.7138 22.8569 16.5321 22.8569 16.3427C22.8569 16.1533 22.7816 15.9716 22.6477 15.8376C22.5137 15.7037 22.332 15.6284 22.1426 15.6284Z"
            fill="#0BCEB2" />
        <path
            d="M22.1426 19.1998H12.8569C12.6674 19.1998 12.4857 19.2751 12.3518 19.409C12.2178 19.543 12.1426 19.7247 12.1426 19.9141C12.1426 20.1036 12.2178 20.2852 12.3518 20.4192C12.4857 20.5531 12.6674 20.6284 12.8569 20.6284H22.1426C22.332 20.6284 22.5137 20.5531 22.6477 20.4192C22.7816 20.2852 22.8569 20.1036 22.8569 19.9141C22.8569 19.7247 22.7816 19.543 22.6477 19.409C22.5137 19.2751 22.332 19.1998 22.1426 19.1998Z"
            fill="#2D4356" />
        <path
            d="M22.1426 22.7712H12.8569C12.6674 22.7712 12.4857 22.8465 12.3518 22.9805C12.2178 23.1144 12.1426 23.2961 12.1426 23.4855C12.1426 23.675 12.2178 23.8566 12.3518 23.9906C12.4857 24.1246 12.6674 24.1998 12.8569 24.1998H22.0461C22.1752 24.0593 22.3061 23.9201 22.4418 23.7844C22.5745 23.6517 22.7107 23.5239 22.848 23.3975C22.8271 23.225 22.7438 23.0662 22.6139 22.9508C22.484 22.8354 22.3163 22.7716 22.1426 22.7712Z"
            fill="#0BCEB2" />
        <path
            d="M10.0008 10.9855C10.0011 10.7961 10.0764 10.6146 10.2103 10.4807C10.3442 10.3468 10.5258 10.2715 10.7151 10.2712H34.2866C34.4759 10.2715 34.6575 10.3468 34.7914 10.4807C34.9253 10.6146 35.0006 10.7961 35.0008 10.9855V20.3059C35.4852 20.4274 35.9622 20.5765 36.4294 20.7527V10.9855C36.4288 10.4174 36.2028 9.87269 35.8011 9.47096C35.3994 9.06924 34.8547 8.84327 34.2866 8.84265H10.7151C10.147 8.84327 9.60231 9.06924 9.20058 9.47096C8.79885 9.87269 8.57289 10.4174 8.57227 10.9855V24.5569H10.0008V10.9855Z"
            fill="#2D4356" />
        <path
            d="M13.5711 33.1283H18.5711C18.5718 32.6511 18.5979 32.1742 18.6493 31.6998H13.5711C12.3692 31.6982 11.2079 31.2644 10.2993 30.4776C9.3907 29.6908 8.79539 28.6034 8.62207 27.414H19.8647C20.102 26.9216 20.37 26.4444 20.6669 25.9855H7.85686C7.66743 25.9855 7.48575 26.0607 7.3518 26.1947C7.21785 26.3286 7.14259 26.5103 7.14258 26.6998C7.14456 28.4041 7.82249 30.0381 9.02765 31.2433C10.2328 32.4484 11.8668 33.1264 13.5711 33.1283Z"
            fill="#2D4356" />
        <path
            d="M26.5502 26.8846C26.4807 26.8216 26.3995 26.773 26.3111 26.7414C26.2228 26.7099 26.1291 26.696 26.0355 26.7007C25.9418 26.7054 25.85 26.7285 25.7652 26.7686C25.6805 26.8088 25.6045 26.8653 25.5416 26.9348C24.0463 28.6517 23.2227 30.8516 23.2227 33.1283C23.2227 35.4051 24.0463 37.6049 25.5416 39.3218C25.6688 39.4618 25.8463 39.5456 26.0352 39.5548C26.2241 39.564 26.409 39.4979 26.5492 39.371C26.6894 39.244 26.7736 39.0667 26.7832 38.8778C26.7928 38.6889 26.7271 38.5039 26.6004 38.3634C25.3367 36.9121 24.6407 35.0527 24.6407 33.1283C24.6407 31.204 25.3367 29.3446 26.6004 27.8933C26.6634 27.8237 26.712 27.7425 26.7436 27.6542C26.7751 27.5659 26.789 27.4722 26.7843 27.3785C26.7797 27.2849 26.7566 27.193 26.7164 27.1083C26.6762 27.0235 26.6198 26.9475 26.5502 26.8846Z"
            fill="#0BCEB2" />
        <path
            d="M52.142 8.84265H42.142C41.9526 8.84265 41.7709 8.91791 41.6369 9.05186C41.503 9.18582 41.4277 9.3675 41.4277 9.55694C41.4277 9.74638 41.503 9.92806 41.6369 10.062C41.7709 10.196 41.9526 10.2712 42.142 10.2712H51.4277V35.9855C51.4277 36.1749 51.503 36.3566 51.6369 36.4906C51.7709 36.6245 51.9526 36.6998 52.142 36.6998C52.3315 36.6998 52.5131 36.6245 52.6471 36.4906C52.7811 36.3566 52.8563 36.1749 52.8563 35.9855V9.55694C52.8563 9.3675 52.781 9.18582 52.6471 9.05187C52.5131 8.91792 52.3315 8.84266 52.142 8.84265Z"
            fill="#2D4356" />
        <path
            d="M0.714286 54.5567C1.10877 54.5567 1.42857 54.2369 1.42857 53.8425C1.42857 53.448 1.10877 53.1282 0.714286 53.1282C0.319797 53.1282 0 53.448 0 53.8425C0 54.2369 0.319797 54.5567 0.714286 54.5567Z"
            fill="#2D4356" />
        <path
            d="M3.92829 53.1284H2.85686C2.66742 53.1284 2.48574 53.2037 2.35179 53.3376C2.21783 53.4716 2.14258 53.6533 2.14258 53.8427C2.14258 54.0321 2.21783 54.2138 2.35179 54.3478C2.48574 54.4817 2.66742 54.557 2.85686 54.557H3.92829C4.11773 54.557 4.29941 54.4817 4.43337 54.3478C4.56732 54.2138 4.64258 54.0321 4.64258 53.8427C4.64258 53.6533 4.56732 53.4716 4.43337 53.3376C4.29941 53.2037 4.11773 53.1284 3.92829 53.1284Z"
            fill="#2D4356" />
        <path
            d="M57.1431 53.1284H56.0717C55.8823 53.1284 55.7006 53.2037 55.5666 53.3376C55.4327 53.4716 55.3574 53.6533 55.3574 53.8427C55.3574 54.0321 55.4327 54.2138 55.5666 54.3478C55.7006 54.4817 55.8823 54.557 56.0717 54.557H57.1431C57.3326 54.557 57.5143 54.4817 57.6482 54.3478C57.7822 54.2138 57.8574 54.0321 57.8574 53.8427C57.8574 53.6533 57.7822 53.4716 57.6482 53.3376C57.5143 53.2037 57.3326 53.1284 57.1431 53.1284Z"
            fill="#2D4356" />
        <path
            d="M59.2866 54.5567C59.681 54.5567 60.0008 54.2369 60.0008 53.8425C60.0008 53.448 59.681 53.1282 59.2866 53.1282C58.8921 53.1282 58.5723 53.448 58.5723 53.8425C58.5723 54.2369 58.8921 54.5567 59.2866 54.5567Z"
            fill="#2D4356" />
        <path
            d="M42.1987 55.9855H39.2316C39.052 55.9999 38.8845 56.0814 38.7623 56.2137C38.6401 56.3461 38.5723 56.5196 38.5723 56.6998C38.5723 56.8799 38.6401 57.0534 38.7623 57.1858C38.8845 57.3182 39.052 57.3997 39.2316 57.414H42.1987C42.3782 57.3997 42.5458 57.3182 42.668 57.1858C42.7902 57.0534 42.858 56.8799 42.858 56.6998C42.858 56.5196 42.7902 56.3461 42.668 56.2137C42.5458 56.0814 42.3782 55.9999 42.1987 55.9855Z"
            fill="#0BCEB2" />
        <path
            d="M20.769 55.9855H17.8019C17.6224 55.9999 17.4548 56.0814 17.3326 56.2137C17.2104 56.3461 17.1426 56.5196 17.1426 56.6998C17.1426 56.8799 17.2104 57.0534 17.3326 57.1858C17.4548 57.3182 17.6224 57.3997 17.8019 57.414H20.769C20.9485 57.3997 21.1161 57.3182 21.2383 57.1858C21.3605 57.0534 21.4283 56.8799 21.4283 56.6998C21.4283 56.5196 21.3605 56.3461 21.2383 56.2137C21.1161 56.0814 20.9485 55.9999 20.769 55.9855Z"
            fill="#0BCEB2" />
        <path
            d="M37.1426 55.9855H22.8569C22.6674 55.9855 22.4857 56.0607 22.3518 56.1947C22.2178 56.3286 22.1426 56.5103 22.1426 56.6998C22.1426 56.8892 22.2178 57.0709 22.3518 57.2048C22.4857 57.3388 22.6674 57.414 22.8569 57.414H28.5497V58.1283H25.714C25.5246 58.1283 25.3429 58.2036 25.2089 58.3375C25.075 58.4715 24.9997 58.6532 24.9997 58.8426C24.9997 59.0321 25.075 59.2137 25.2089 59.3477C25.3429 59.4816 25.5246 59.5569 25.714 59.5569H34.6426C34.832 59.5569 35.0137 59.4816 35.1477 59.3477C35.2816 59.2137 35.3569 59.0321 35.3569 58.8426C35.3569 58.6532 35.2816 58.4715 35.1477 58.3375C35.0137 58.2036 34.832 58.1283 34.6426 58.1283H31.4497V57.414H37.1426C37.332 57.414 37.5137 57.3388 37.6477 57.2048C37.7816 57.0709 37.8569 56.8892 37.8569 56.6998C37.8569 56.5103 37.7816 56.3286 37.6477 56.1947C37.5137 56.0607 37.332 55.9855 37.1426 55.9855Z"
            fill="#0BCEB2" />
        <path
            d="M53.8292 53.1283H52.2665C52.7066 52.5019 52.9114 51.7403 52.845 50.9777C52.7787 50.2151 52.4453 49.5003 51.9036 48.9594L45.7768 42.8324C45.5923 42.6443 45.3584 42.5123 45.102 42.4515C44.8457 42.3908 44.5774 42.4039 44.3281 42.4892L41.5584 39.7195C43.1831 37.3098 43.8596 34.3846 43.4579 31.5062C43.0562 28.6279 41.6047 25.9996 39.3823 24.1268C37.16 22.254 34.3238 21.2688 31.419 21.3606C28.5142 21.4525 25.7459 22.6149 23.6463 24.6245C21.5468 26.634 20.2642 29.3487 20.0452 32.2467C19.8262 35.1447 20.6862 38.0213 22.4599 40.3236C24.2336 42.6258 26.7958 44.1911 29.6538 44.7185C32.5118 45.2458 35.4639 44.6981 37.9424 43.1805L40.7901 46.0282C40.7044 46.2773 40.6911 46.5455 40.7518 46.8018C40.8125 47.0582 40.9446 47.292 41.1329 47.4762L46.7848 53.1283H8.57158V35.9855C8.57158 35.796 8.49632 35.6143 8.36237 35.4804C8.22841 35.3464 8.04673 35.2712 7.85729 35.2712C7.66785 35.2712 7.48617 35.3464 7.35221 35.4804C7.21826 35.6143 7.143 35.796 7.143 35.9855V53.1283H6.17111C6.06949 53.115 5.96621 53.1236 5.86817 53.1534C5.77012 53.1832 5.67957 53.2336 5.60255 53.3012C5.52553 53.3688 5.46383 53.4521 5.42156 53.5455C5.37929 53.6388 5.35742 53.7401 5.35742 53.8426C5.35742 53.9451 5.37929 54.0464 5.42156 54.1397C5.46383 54.2331 5.52553 54.3163 5.60255 54.384C5.67957 54.4516 5.77012 54.502 5.86817 54.5318C5.96621 54.5616 6.06949 54.5702 6.17111 54.5569H53.8292C53.9308 54.5702 54.0341 54.5616 54.1321 54.5318C54.2302 54.502 54.3207 54.4516 54.3977 54.384C54.4748 54.3163 54.5365 54.2331 54.5787 54.1397C54.621 54.0464 54.6429 53.9451 54.6429 53.8426C54.6429 53.7401 54.621 53.6388 54.5787 53.5455C54.5365 53.4521 54.4748 53.3688 54.3977 53.3012C54.3207 53.2336 54.2302 53.1832 54.1321 53.1534C54.0341 53.1236 53.9308 53.115 53.8292 53.1283ZM31.7859 43.4855C29.3896 43.4855 27.0675 42.6547 25.2151 41.1346C23.3627 39.6145 22.0947 37.4991 21.6272 35.1489C21.1597 32.7987 21.5215 30.3591 22.6511 28.2457C23.7806 26.1324 25.608 24.4761 27.8218 23.5591C30.0357 22.642 32.499 22.521 34.7921 23.2166C37.0852 23.9121 39.0661 25.3813 40.3974 27.3737C41.7287 29.3661 42.328 31.7585 42.0931 34.1432C41.8583 36.5279 40.8038 38.7574 39.1094 40.4518C38.1499 41.4166 37.0086 42.1815 35.7515 42.7022C34.4944 43.223 33.1465 43.4892 31.7859 43.4855ZM39.128 42.3458C39.4746 42.0697 39.8056 41.7747 40.1194 41.4619C40.3142 41.2672 40.4985 41.0649 40.6778 40.8592L43.2037 43.3852L41.6855 44.9033L39.128 42.3458ZM48.2698 52.593L42.143 46.4661L44.7666 43.8426L50.8935 49.9696C51.0632 50.1393 51.1978 50.3407 51.2896 50.5624C51.3815 50.7842 51.4287 51.0218 51.4287 51.2618C51.4287 51.5018 51.3814 51.7394 51.2895 51.9612C51.1977 52.1829 51.063 52.3843 50.8933 52.554L50.854 52.5933C50.5112 52.9359 50.0464 53.1284 49.5618 53.1283C49.0772 53.1283 48.6125 52.9357 48.2698 52.593Z"
            fill="#2D4356" />
        <path
            d="M23.6808 3.12833C23.8927 3.12833 24.0999 3.06549 24.2761 2.94776C24.4523 2.83003 24.5896 2.6627 24.6707 2.46692C24.7518 2.27114 24.773 2.05571 24.7316 1.84788C24.6903 1.64004 24.5883 1.44913 24.4384 1.29929C24.2886 1.14945 24.0977 1.0474 23.8898 1.00606C23.682 0.96472 23.4666 0.985938 23.2708 1.06703C23.075 1.14813 22.9077 1.28545 22.7899 1.46165C22.6722 1.63784 22.6094 1.84499 22.6094 2.0569C22.6097 2.34096 22.7227 2.6133 22.9235 2.81416C23.1244 3.01502 23.3967 3.12801 23.6808 3.12833ZM23.6808 1.52119C23.7868 1.52119 23.8903 1.55261 23.9784 1.61147C24.0665 1.67034 24.1352 1.754 24.1757 1.85189C24.2163 1.94978 24.2269 2.0575 24.2062 2.16142C24.1856 2.26533 24.1345 2.36079 24.0596 2.43571C23.9847 2.51063 23.8892 2.56165 23.7853 2.58232C23.6814 2.60299 23.5737 2.59239 23.4758 2.55184C23.3779 2.51129 23.2942 2.44263 23.2354 2.35453C23.1765 2.26643 23.1451 2.16286 23.1451 2.0569C23.1452 1.91487 23.2017 1.77869 23.3022 1.67825C23.4026 1.57781 23.5388 1.52133 23.6808 1.52119Z"
            fill="#2D4356" />
        <path
            d="M58.6811 17.4141C58.5398 17.4141 58.4017 17.456 58.2842 17.5344C58.1668 17.6129 58.0752 17.7245 58.0212 17.855C57.9671 17.9855 57.953 18.1291 57.9805 18.2677C58.0081 18.4063 58.0761 18.5335 58.176 18.6334C58.2759 18.7333 58.4032 18.8013 58.5417 18.8289C58.6803 18.8565 58.8239 18.8423 58.9544 18.7883C59.0849 18.7342 59.1965 18.6426 59.275 18.5252C59.3535 18.4077 59.3954 18.2696 59.3954 18.1283C59.3951 17.939 59.3198 17.7574 59.1859 17.6235C59.052 17.4896 58.8705 17.4143 58.6811 17.4141ZM58.6811 18.4855C58.6104 18.4855 58.5414 18.4645 58.4827 18.4253C58.4239 18.3861 58.3782 18.3303 58.3511 18.265C58.3241 18.1998 58.317 18.128 58.3308 18.0587C58.3446 17.9894 58.3786 17.9258 58.4285 17.8758C58.4785 17.8259 58.5421 17.7918 58.6114 17.7781C58.6807 17.7643 58.7525 17.7714 58.8178 17.7984C58.883 17.8254 58.9388 17.8712 58.978 17.9299C59.0173 17.9887 59.0382 18.0577 59.0382 18.1283C59.0381 18.223 59.0005 18.3138 58.9335 18.3808C58.8666 18.4477 58.7758 18.4854 58.6811 18.4855Z"
            fill="#2D4356" />
        <path
            d="M2.60882 2.05688C2.46754 2.05688 2.32945 2.09878 2.21198 2.17726C2.09452 2.25575 2.00297 2.36731 1.9489 2.49783C1.89484 2.62834 1.8807 2.77196 1.90826 2.91052C1.93582 3.04908 2.00385 3.17635 2.10374 3.27625C2.20364 3.37614 2.33091 3.44417 2.46947 3.47173C2.60802 3.49929 2.75164 3.48515 2.88216 3.43108C3.01268 3.37702 3.12424 3.28547 3.20272 3.16801C3.28121 3.05054 3.3231 2.91244 3.3231 2.77117C3.32289 2.5818 3.24756 2.40024 3.11365 2.26633C2.97975 2.13243 2.79819 2.0571 2.60882 2.05688ZM2.60882 3.12831C2.53818 3.12831 2.46913 3.10737 2.4104 3.06812C2.35167 3.02888 2.30589 2.9731 2.27886 2.90784C2.25183 2.84258 2.24476 2.77077 2.25854 2.7015C2.27232 2.63222 2.30633 2.56858 2.35628 2.51863C2.40623 2.46869 2.46986 2.43467 2.53914 2.42089C2.60842 2.40711 2.68023 2.41418 2.74549 2.44121C2.81075 2.46824 2.86653 2.51402 2.90577 2.57275C2.94501 2.63148 2.96596 2.70053 2.96596 2.77117C2.96587 2.86586 2.92821 2.95665 2.86125 3.0236C2.79429 3.09056 2.70351 3.12822 2.60882 3.12831Z"
            fill="#2D4356" />
        <path
            d="M54.394 10.9855C54.2527 10.9855 54.1146 11.0274 53.9971 11.1059C53.8797 11.1843 53.7881 11.2959 53.7341 11.4264C53.68 11.5569 53.6659 11.7006 53.6934 11.8391C53.721 11.9777 53.789 12.1049 53.8889 12.2048C53.9888 12.3047 54.1161 12.3728 54.2546 12.4003C54.3932 12.4279 54.5368 12.4137 54.6673 12.3597C54.7978 12.3056 54.9094 12.2141 54.9879 12.0966C55.0664 11.9791 55.1083 11.841 55.1083 11.6998C55.108 11.5104 55.0327 11.3288 54.8988 11.1949C54.7649 11.061 54.5833 10.9857 54.394 10.9855ZM54.394 12.0569C54.3233 12.0569 54.2543 12.036 54.1956 11.9967C54.1368 11.9575 54.091 11.9017 54.064 11.8364C54.037 11.7712 54.0299 11.6994 54.0437 11.6301C54.0575 11.5608 54.0915 11.4972 54.1414 11.4472C54.1914 11.3973 54.255 11.3633 54.3243 11.3495C54.3936 11.3357 54.4654 11.3428 54.5306 11.3698C54.5959 11.3968 54.6517 11.4426 54.6909 11.5013C54.7302 11.5601 54.7511 11.6291 54.7511 11.6998C54.751 11.7944 54.7134 11.8852 54.6464 11.9522C54.5794 12.0192 54.4887 12.0568 54.394 12.0569Z"
            fill="#2D4356" />
        <path
            d="M14.7508 7.05694C14.7508 6.91567 14.7089 6.77757 14.6305 6.6601C14.552 6.54264 14.4404 6.45109 14.3099 6.39702C14.1794 6.34296 14.0358 6.32882 13.8972 6.35638C13.7586 6.38394 13.6314 6.45197 13.5315 6.55186C13.4316 6.65176 13.3636 6.77903 13.336 6.91759C13.3084 7.05615 13.3226 7.19976 13.3766 7.33028C13.4307 7.4608 13.5223 7.57236 13.6397 7.65084C13.7572 7.72933 13.8953 7.77122 14.0366 7.77122C14.2259 7.77101 14.4075 7.69568 14.5414 7.56177C14.6753 7.42787 14.7506 7.24631 14.7508 7.05694ZM13.6794 7.05694C13.6794 6.9863 13.7004 6.91725 13.7396 6.85852C13.7788 6.79979 13.8346 6.75401 13.8999 6.72698C13.9651 6.69995 14.0369 6.69288 14.1062 6.70666C14.1755 6.72044 14.2391 6.75445 14.2891 6.8044C14.339 6.85435 14.3731 6.91798 14.3868 6.98726C14.4006 7.05654 14.3935 7.12835 14.3665 7.19361C14.3395 7.25887 14.2937 7.31465 14.235 7.35389C14.1762 7.39313 14.1072 7.41408 14.0366 7.41408C13.9419 7.41399 13.8511 7.37633 13.7841 7.30937C13.7172 7.24241 13.6795 7.15163 13.6794 7.05694Z"
            fill="#2D4356" />
        <path
            d="M3.53098 13.8468L4.06205 13.1483L3.7267 12.9583L3.38562 13.7404H3.37455L3.02812 12.964L2.68705 13.1593L3.21241 13.8411V13.8525L2.39062 13.7461V14.1261L3.21777 14.02V14.0311L2.68705 14.7129L3.00527 14.914L3.36884 14.1261H3.37991L3.71527 14.9083L4.06741 14.7072L3.53098 14.0368V14.0254L4.37455 14.1261V13.7461L3.53098 13.8579V13.8468Z"
            fill="#0BCEB2" />
        <path
            d="M34.3143 7.4378L34.0086 7.8303L34.1922 7.94637L34.4015 7.49245H34.4075L34.6007 7.94316L34.8036 7.82709L34.4947 7.44102V7.43459L34.9804 7.49245V7.27352L34.4947 7.3378V7.33173L34.8004 6.92923L34.6075 6.81995L34.4111 7.2703H34.4047L34.205 6.82316L34.0086 6.93566L34.3111 7.32852V7.33495L33.8379 7.27352V7.49245L34.3143 7.43137V7.4378Z"
            fill="#0BCEB2" />
        <path
            d="M59.3953 2.66892V2.29606L58.5678 2.4057V2.39499L59.0885 1.70963L58.7596 1.52356L58.4253 2.2907H58.4142L58.0746 1.52892L57.7399 1.7207L58.2553 2.38963V2.40035L57.4492 2.29606V2.66892L58.2606 2.56499V2.5757L57.7399 3.24427L58.0524 3.44177L58.4089 2.66892H58.4196L58.7485 3.43642L59.0939 3.23892L58.5678 2.58106V2.57035L59.3953 2.66892Z"
            fill="#0BCEB2" />
        <path
            d="M44.1951 1.19467L44.6444 0.603952L44.3605 0.443237L44.0723 1.10502H44.0626L43.7698 0.44788L43.4808 0.613237L43.9255 1.19002V1.19967L43.2305 1.10967V1.43109L43.9301 1.34145V1.35074L43.4808 1.92752L43.7505 2.09788L44.058 1.43109H44.0673L44.3512 2.09324L44.649 1.92288L44.1951 1.35538V1.34609L44.9087 1.43109V1.10967L44.1951 1.20431V1.19467Z"
            fill="#0BCEB2" />
    </g>
    <defs>
        <clipPath id="clip0_715_32206">
            <rect width="60" height="60" fill="white" />
        </clipPath>
    </defs>
</svg>