<svg width="60" height="60" viewBox="0 0 60 60" fill="none" xmlns="http://www.w3.org/2000/svg">
<path d="M0.714286 52.8573C1.10877 52.8573 1.42857 52.5375 1.42857 52.143C1.42857 51.7485 1.10877 51.4287 0.714286 51.4287C0.319797 51.4287 0 51.7485 0 52.143C0 52.5375 0.319797 52.8573 0.714286 52.8573Z" fill="#2D4356"/>
<path d="M3.92634 51.4287H2.85491C2.66547 51.4287 2.48379 51.504 2.34983 51.6379C2.21588 51.7719 2.14063 51.9536 2.14062 52.143C2.14063 52.3324 2.21588 52.5141 2.34983 52.6481C2.48379 52.782 2.66547 52.8573 2.85491 52.8573H3.92634C4.11578 52.8573 4.29746 52.782 4.43142 52.6481C4.56537 52.5141 4.64062 52.3324 4.64062 52.143C4.64062 51.9536 4.56537 51.7719 4.43142 51.6379C4.29746 51.504 4.11578 51.4287 3.92634 51.4287Z" fill="#2D4356"/>
<path d="M57.1451 51.4287H56.0737C55.8842 51.4287 55.7025 51.504 55.5686 51.6379C55.4346 51.7719 55.3594 51.9536 55.3594 52.143C55.3594 52.3324 55.4346 52.5141 55.5686 52.6481C55.7025 52.782 55.8842 52.8573 56.0737 52.8573H57.1451C57.3345 52.8573 57.5162 52.782 57.6502 52.6481C57.7841 52.5141 57.8594 52.3324 57.8594 52.143C57.8594 51.9536 57.7841 51.7719 57.6502 51.6379C57.5162 51.504 57.3345 51.4287 57.1451 51.4287Z" fill="#2D4356"/>
<path d="M59.2846 52.8573C59.6791 52.8573 59.9989 52.5375 59.9989 52.143C59.9989 51.7485 59.6791 51.4287 59.2846 51.4287C58.8901 51.4287 58.5703 51.7485 58.5703 52.143C58.5703 52.5375 58.8901 52.8573 59.2846 52.8573Z" fill="#2D4356"/>
<path d="M42.1985 54.2861H39.2314C39.0515 54.3001 38.8835 54.3814 38.7609 54.5138C38.6384 54.6462 38.5703 54.82 38.5703 55.0004C38.5703 55.1808 38.6384 55.3546 38.7609 55.487C38.8835 55.6195 39.0515 55.7008 39.2314 55.7147H42.1985C42.3784 55.7008 42.5464 55.6195 42.6689 55.487C42.7915 55.3546 42.8596 55.1808 42.8596 55.0004C42.8596 54.82 42.7915 54.6462 42.6689 54.5138C42.5464 54.3814 42.3784 54.3001 42.1985 54.2861Z" fill="#4C7DA7"/>
<path d="M20.7688 54.2861H17.8017C17.6218 54.3001 17.4538 54.3814 17.3312 54.5138C17.2087 54.6462 17.1406 54.82 17.1406 55.0004C17.1406 55.1808 17.2087 55.3546 17.3312 55.487C17.4538 55.6195 17.6218 55.7008 17.8017 55.7147H20.7688C20.9487 55.7008 21.1167 55.6195 21.2393 55.487C21.3618 55.3546 21.4299 55.1808 21.4299 55.0004C21.4299 54.82 21.3618 54.6462 21.2393 54.5138C21.1167 54.3814 20.9487 54.3001 20.7688 54.2861Z" fill="#4C7DA7"/>
<path d="M37.1406 54.2861H22.8549C22.6655 54.2861 22.4838 54.3614 22.3498 54.4953C22.2159 54.6293 22.1406 54.811 22.1406 55.0004C22.1406 55.1899 22.2159 55.3715 22.3498 55.5055C22.4838 55.6394 22.6655 55.7147 22.8549 55.7147H28.5478V56.429H25.7121C25.5226 56.429 25.3409 56.5042 25.207 56.6382C25.073 56.7722 24.9978 56.9538 24.9978 57.1433C24.9978 57.3327 25.073 57.5144 25.207 57.6484C25.3409 57.7823 25.5226 57.8576 25.7121 57.8576H34.6406C34.8301 57.8576 35.0117 57.7823 35.1457 57.6484C35.2797 57.5144 35.3549 57.3327 35.3549 57.1433C35.3549 56.9538 35.2797 56.7722 35.1457 56.6382C35.0117 56.5042 34.8301 56.429 34.6406 56.429H31.4478V55.7147H37.1406C37.3301 55.7147 37.5117 55.6394 37.6457 55.5055C37.7797 55.3715 37.8549 55.1899 37.8549 55.0004C37.8549 54.811 37.7797 54.6293 37.6457 54.4953C37.5117 54.3614 37.3301 54.2861 37.1406 54.2861Z" fill="#4C7DA7"/>
<path d="M53.8302 51.4283H52.7338C52.8154 51.1989 52.8577 50.9574 52.8588 50.714V24.9819C52.855 24.8334 52.8051 24.6899 52.7159 24.5712L47.7873 17.9997C47.587 17.7344 47.328 17.519 47.0307 17.3703C46.7333 17.2216 46.4055 17.1437 46.0731 17.1426H13.6016C13.2574 17.1432 12.9184 17.2265 12.6132 17.3857C12.308 17.5448 12.0456 17.775 11.8481 18.0569C11.8481 18.0569 7.27306 24.589 7.26949 24.5962C7.19451 24.718 7.15151 24.8568 7.14449 24.9997V50.714C7.14561 50.9574 7.18788 51.1989 7.26949 51.4283H6.17306C6.07145 51.415 5.96816 51.4236 5.87012 51.4534C5.77207 51.4832 5.68152 51.5336 5.6045 51.6012C5.52749 51.6688 5.46578 51.7521 5.42351 51.8454C5.38124 51.9388 5.35938 52.0401 5.35938 52.1426C5.35937 52.2451 5.38124 52.3464 5.42351 52.4397C5.46578 52.5331 5.52749 52.6163 5.6045 52.6839C5.68152 52.7515 5.77207 52.8019 5.87012 52.8318C5.96816 52.8616 6.07145 52.8701 6.17306 52.8569H53.8302C53.9318 52.8701 54.0351 52.8616 54.1331 52.8318C54.2312 52.8019 54.3218 52.7515 54.3988 52.6839C54.4758 52.6163 54.5375 52.5331 54.5798 52.4397C54.622 52.3464 54.6439 52.2451 54.6439 52.1426C54.6439 52.0401 54.622 51.9388 54.5798 51.8454C54.5375 51.7521 54.4758 51.6688 54.3988 51.6012C54.3218 51.5336 54.2312 51.4832 54.1331 51.4534C54.0351 51.4236 53.9318 51.415 53.8302 51.4283ZM46.0731 18.5711C46.1839 18.5715 46.2931 18.5975 46.3923 18.647C46.4914 18.6966 46.5777 18.7684 46.6445 18.8569L50.7159 24.2854H33.8338L33.0123 18.5711H46.0731ZM28.3695 18.5711H31.5695L32.3909 24.2854H27.6052L28.3695 18.5711ZM27.5016 25.714H32.5016V32.8247L30.4409 31.2211C30.3151 31.1239 30.1606 31.0711 30.0016 31.0711C29.8426 31.0711 29.6881 31.1239 29.5623 31.2211L27.5016 32.8247V25.714ZM13.0159 18.8747C13.0825 18.7813 13.1703 18.705 13.2721 18.6522C13.374 18.5994 13.4869 18.5716 13.6016 18.5711H26.9266L26.1623 24.2854H9.2302L13.0159 18.8747ZM51.4302 50.714C51.4296 50.9033 51.3542 51.0846 51.2204 51.2185C51.0865 51.3523 50.9052 51.4277 50.7159 51.4283H9.28735C9.09808 51.4277 8.91673 51.3523 8.78289 51.2185C8.64906 51.0846 8.57363 50.9033 8.57306 50.714V25.714H26.0731V34.2854C26.0729 34.4193 26.1103 34.5506 26.1811 34.6642C26.2519 34.7778 26.3532 34.8693 26.4735 34.9281C26.5938 34.987 26.7281 35.0108 26.8613 34.9969C26.9945 34.9831 27.1211 34.9321 27.2266 34.8497L30.0016 32.689L32.7766 34.8497C32.9021 34.9475 33.0568 35.0003 33.2159 34.9997C33.3246 34.999 33.4319 34.9747 33.5302 34.9283C33.6498 34.8686 33.7505 34.7769 33.8211 34.6634C33.8917 34.5499 33.9295 34.4191 33.9302 34.2854V25.714H51.4302V50.714Z" fill="#2D4356"/>
<path d="M8.57031 48.5713H51.4275V49.9999H8.57031V48.5713Z" fill="#4C7DA7"/>
<path d="M19.6423 25.7139V34.2853C19.6416 34.419 19.6038 34.5498 19.5332 34.6633C19.4626 34.7768 19.3619 34.8685 19.2423 34.9282C19.144 34.9745 19.0367 34.9989 18.928 34.9996C18.7689 35.0002 18.6142 34.9473 18.4887 34.8496L15.7137 32.6889L12.9387 34.8496C12.8332 34.9319 12.7066 34.9829 12.5734 34.9968C12.4402 35.0107 12.3058 34.9868 12.1856 34.928C12.0653 34.8692 11.964 34.7777 11.8932 34.6641C11.8224 34.5504 11.785 34.4192 11.7852 34.2853V25.7139H13.2137V32.8246L15.2744 31.221C15.4002 31.1238 15.5547 31.071 15.7137 31.071C15.8727 31.071 16.0272 31.1238 16.153 31.221L18.2137 32.8246V25.7139H19.6423Z" fill="#4C7DA7"/>
<path d="M48.2165 25.7139V34.2853C48.2158 34.419 48.178 34.5498 48.1074 34.6633C48.0368 34.7768 47.9361 34.8685 47.8165 34.9282C47.7182 34.9745 47.6109 34.9989 47.5022 34.9996C47.3431 35.0002 47.1885 34.9473 47.0629 34.8496L44.2879 32.6889L41.5129 34.8496C41.4074 34.9319 41.2808 34.9829 41.1476 34.9968C41.0144 35.0107 40.8801 34.9868 40.7598 34.928C40.6395 34.8692 40.5382 34.7777 40.4674 34.6641C40.3966 34.5504 40.3592 34.4192 40.3594 34.2853V25.7139H41.7879V32.8246L43.8487 31.221C43.9744 31.1238 44.129 31.071 44.2879 31.071C44.4469 31.071 44.6014 31.1238 44.7272 31.221L46.7879 32.8246V25.7139H48.2165Z" fill="#4C7DA7"/>
<path d="M17.1417 14.6429C17.3536 14.6429 17.5608 14.58 17.737 14.4623C17.9132 14.3446 18.0505 14.1772 18.1316 13.9814C18.2127 13.7857 18.2339 13.5702 18.1926 13.3624C18.1512 13.1546 18.0492 12.9637 17.8994 12.8138C17.7495 12.664 17.5586 12.5619 17.3508 12.5206C17.1429 12.4792 16.9275 12.5005 16.7317 12.5816C16.5359 12.6627 16.3686 12.8 16.2509 12.9762C16.1332 13.1524 16.0703 13.3595 16.0703 13.5714C16.0703 13.8556 16.1832 14.1281 16.3841 14.329C16.5851 14.53 16.8576 14.6429 17.1417 14.6429ZM17.1417 13.0357C17.2477 13.0357 17.3513 13.0671 17.4394 13.126C17.5275 13.1849 17.5961 13.2685 17.6367 13.3664C17.6772 13.4643 17.6878 13.572 17.6672 13.6759C17.6465 13.7799 17.5955 13.8753 17.5205 13.9502C17.4456 14.0252 17.3502 14.0762 17.2463 14.0968C17.1423 14.1175 17.0346 14.1069 16.9367 14.0664C16.8388 14.0258 16.7552 13.9572 16.6963 13.8691C16.6374 13.781 16.606 13.6774 16.606 13.5714C16.606 13.4293 16.6625 13.2931 16.7629 13.1926C16.8634 13.0922 16.9997 13.0357 17.1417 13.0357Z" fill="#2D4356"/>
<path d="M49.5268 12.8564C49.3855 12.8564 49.2474 12.8983 49.13 12.9768C49.0125 13.0553 48.9209 13.1669 48.8669 13.2974C48.8128 13.4279 48.7987 13.5715 48.8262 13.7101C48.8538 13.8486 48.9218 13.9759 49.0217 14.0758C49.1216 14.1757 49.2489 14.2437 49.3874 14.2713C49.526 14.2989 49.6696 14.2847 49.8001 14.2306C49.9307 14.1766 50.0422 14.085 50.1207 13.9676C50.1992 13.8501 50.2411 13.712 50.2411 13.5707C50.2411 13.3813 50.1658 13.1996 50.0319 13.0657C49.8979 12.9317 49.7162 12.8564 49.5268 12.8564ZM49.5268 13.9279C49.4562 13.9279 49.3871 13.9069 49.3284 13.8677C49.2696 13.8284 49.2239 13.7727 49.1968 13.7074C49.1698 13.6421 49.1627 13.5703 49.1765 13.5011C49.1903 13.4318 49.2243 13.3681 49.2743 13.3182C49.3242 13.2682 49.3878 13.2342 49.4571 13.2205C49.5264 13.2067 49.5982 13.2137 49.6635 13.2408C49.7287 13.2678 49.7845 13.3136 49.8237 13.3723C49.863 13.431 49.8839 13.5001 49.8839 13.5707C49.8839 13.6655 49.8463 13.7563 49.7793 13.8233C49.7123 13.8902 49.6215 13.9279 49.5268 13.9279Z" fill="#2D4356"/>
<path d="M40.7143 4.34375C40.573 4.34375 40.4349 4.38564 40.3175 4.46413C40.2 4.54262 40.1084 4.65417 40.0544 4.78469C40.0003 4.91521 39.9862 5.05883 40.0137 5.19739C40.0413 5.33594 40.1093 5.46322 40.2092 5.56311C40.3091 5.66301 40.4364 5.73104 40.5749 5.7586C40.7135 5.78616 40.8571 5.77201 40.9876 5.71795C41.1181 5.66389 41.2297 5.57234 41.3082 5.45487C41.3867 5.33741 41.4286 5.19931 41.4286 5.05804C41.4286 4.8686 41.3533 4.68691 41.2194 4.55296C41.0854 4.41901 40.9037 4.34375 40.7143 4.34375ZM40.7143 5.41518C40.6436 5.41518 40.5746 5.39423 40.5159 5.35499C40.4571 5.31575 40.4114 5.25997 40.3843 5.19471C40.3573 5.12945 40.3502 5.05764 40.364 4.98836C40.3778 4.91908 40.4118 4.85544 40.4617 4.8055C40.5117 4.75555 40.5753 4.72154 40.6446 4.70776C40.7139 4.69398 40.7857 4.70105 40.851 4.72808C40.9162 4.75511 40.972 4.80089 41.0112 4.85962C41.0505 4.91835 41.0714 4.9874 41.0714 5.05804C41.0714 5.15276 41.0338 5.2436 40.9668 5.31057C40.8998 5.37755 40.809 5.41518 40.7143 5.41518Z" fill="#2D4356"/>
<path d="M56.5346 2.14258C56.3933 2.14258 56.2552 2.18447 56.1378 2.26296C56.0203 2.34144 55.9287 2.453 55.8747 2.58352C55.8206 2.71404 55.8065 2.85766 55.834 2.99621C55.8616 3.13477 55.9296 3.26205 56.0295 3.36194C56.1294 3.46183 56.2567 3.52986 56.3953 3.55742C56.5338 3.58499 56.6774 3.57084 56.8079 3.51678C56.9385 3.46272 57.05 3.37116 57.1285 3.2537C57.207 3.13624 57.2489 2.99814 57.2489 2.85686C57.2489 2.66742 57.1736 2.48574 57.0397 2.35179C56.9057 2.21783 56.724 2.14258 56.5346 2.14258ZM56.5346 3.21401C56.464 3.21401 56.3949 3.19306 56.3362 3.15382C56.2775 3.11457 56.2317 3.0588 56.2046 2.99354C56.1776 2.92828 56.1705 2.85647 56.1843 2.78719C56.1981 2.71791 56.2321 2.65427 56.2821 2.60433C56.332 2.55438 56.3956 2.52036 56.4649 2.50658C56.5342 2.4928 56.606 2.49988 56.6713 2.52691C56.7365 2.55394 56.7923 2.59971 56.8316 2.65845C56.8708 2.71718 56.8917 2.78623 56.8917 2.85686C56.8917 2.95158 56.8541 3.04242 56.7871 3.1094C56.7202 3.17638 56.6293 3.21401 56.5346 3.21401Z" fill="#2D4356"/>
<path d="M6.17857 8.57073C6.17857 8.42946 6.13668 8.29136 6.05819 8.1739C5.97971 8.05643 5.86815 7.96488 5.73763 7.91082C5.60711 7.85675 5.46349 7.84261 5.32494 7.87017C5.18638 7.89773 5.0591 7.96576 4.95921 8.06566C4.85931 8.16555 4.79129 8.29282 4.76373 8.43138C4.73616 8.56994 4.75031 8.71356 4.80437 8.84408C4.85843 8.9746 4.94999 9.08615 5.06745 9.16464C5.18491 9.24312 5.32301 9.28502 5.46429 9.28502C5.65373 9.28502 5.83541 9.20976 5.96936 9.07581C6.10332 8.94185 6.17857 8.76017 6.17857 8.57073ZM5.10714 8.57073C5.10714 8.5001 5.12809 8.43105 5.16733 8.37231C5.20658 8.31358 5.26235 8.26781 5.32761 8.24077C5.39287 8.21374 5.46468 8.20667 5.53396 8.22045C5.60324 8.23423 5.66688 8.26825 5.71682 8.31819C5.76677 8.36814 5.80079 8.43178 5.81457 8.50106C5.82835 8.57033 5.82127 8.64214 5.79424 8.7074C5.76721 8.77266 5.72144 8.82844 5.6627 8.86769C5.60397 8.90693 5.53492 8.92787 5.46429 8.92787C5.36957 8.92787 5.27873 8.89025 5.21175 8.82327C5.14477 8.75629 5.10714 8.66545 5.10714 8.57073Z" fill="#2D4356"/>
<path d="M3.89036 23.2183L4.42143 22.5201L4.08607 22.3301L3.745 23.1122H3.73393L3.3875 22.3354L3.04643 22.5312L3.57179 23.2129V23.224L2.75 23.1179V23.4979L3.57714 23.3919V23.4029L3.04643 24.0844L3.36464 24.2858L3.72821 23.4979H3.73929L4.07464 24.2801L4.42679 24.079L3.89036 23.4083V23.3972L4.73393 23.4979V23.1179L3.89036 23.2294V23.2183Z" fill="#4C7DA7"/>
<path d="M25.5077 3.26922L25.202 3.66172L25.3852 3.7778L25.5948 3.32387H25.6009L25.7941 3.77458L25.997 3.65851L25.688 3.27244V3.26601L26.1738 3.32387V3.1053L25.688 3.16958V3.16315L25.9937 2.76101L25.8005 2.65137L25.6045 3.10172H25.5977L25.3984 2.65458L25.202 2.76708L25.5045 3.15994V3.16637L25.0312 3.1053V3.32387L25.5077 3.2628V3.26922Z" fill="#4C7DA7"/>
<path d="M57.1528 22.5164V22.144L56.3252 22.2536V22.2425L56.846 21.5575L56.517 21.3711L56.1827 22.1382H56.1717L55.832 21.3765L55.4974 21.5682L56.0127 22.2372V22.2482L55.207 22.144V22.5164L56.0181 22.4125V22.4236L55.4974 23.0922L55.8099 23.2897L56.1663 22.5164H56.177L56.506 23.284L56.8513 23.0868L56.3252 22.429V22.4179L57.1528 22.5164Z" fill="#4C7DA7"/>
<path d="M35.2384 13.4959L35.6877 12.9049L35.4038 12.7441L35.1156 13.4059H35.1059L34.8131 12.7488L34.5242 12.9145L34.9688 13.4913V13.5006L34.2734 13.4109V13.7324L34.9734 13.6427V13.652L34.5242 14.2288L34.7938 14.3991L35.1013 13.7324H35.1106L35.3942 14.3941L35.6924 14.2241L35.2384 13.6566V13.6474L35.952 13.7324V13.4109L35.2384 13.5052V13.4959Z" fill="#4C7DA7"/>
</svg>
