<svg width="60" height="60" viewBox="0 0 60 60" fill="none" xmlns="http://www.w3.org/2000/svg">
    <g clip-path="url(#clip0_715_32065)">
        <path
            d="M0.714286 54.2857C1.10877 54.2857 1.42857 53.966 1.42857 53.5715C1.42857 53.177 1.10877 52.8572 0.714286 52.8572C0.319797 52.8572 0 53.177 0 53.5715C0 53.966 0.319797 54.2857 0.714286 54.2857Z"
            fill="#2D4356" />
        <path
            d="M3.92829 52.8572H2.85686C2.66742 52.8572 2.48574 52.9324 2.35179 53.0664C2.21783 53.2003 2.14258 53.382 2.14258 53.5715C2.14258 53.7609 2.21783 53.9426 2.35179 54.0765C2.48574 54.2105 2.66742 54.2857 2.85686 54.2857H3.92829C4.11773 54.2857 4.29941 54.2105 4.43337 54.0765C4.56732 53.9426 4.64258 53.7609 4.64258 53.5715C4.64258 53.382 4.56732 53.2003 4.43337 53.0664C4.29941 52.9324 4.11773 52.8572 3.92829 52.8572Z"
            fill="#2D4356" />
        <path
            d="M57.1431 52.8572H56.0717C55.8823 52.8572 55.7006 52.9324 55.5666 53.0664C55.4327 53.2003 55.3574 53.382 55.3574 53.5715C55.3574 53.7609 55.4327 53.9426 55.5666 54.0765C55.7006 54.2105 55.8823 54.2857 56.0717 54.2857H57.1431C57.3326 54.2857 57.5143 54.2105 57.6482 54.0765C57.7822 53.9426 57.8574 53.7609 57.8574 53.5715C57.8574 53.382 57.7822 53.2003 57.6482 53.0664C57.5143 52.9324 57.3326 52.8572 57.1431 52.8572Z"
            fill="#2D4356" />
        <path
            d="M59.2866 54.2857C59.681 54.2857 60.0008 53.966 60.0008 53.5715C60.0008 53.177 59.681 52.8572 59.2866 52.8572C58.8921 52.8572 58.5723 53.177 58.5723 53.5715C58.5723 53.966 58.8921 54.2857 59.2866 54.2857Z"
            fill="#2D4356" />
        <path
            d="M42.1987 55.7142H39.2316C39.052 55.7286 38.8845 55.8101 38.7623 55.9425C38.6401 56.0748 38.5723 56.2484 38.5723 56.4285C38.5723 56.6087 38.6401 56.7822 38.7623 56.9146C38.8845 57.0469 39.052 57.1284 39.2316 57.1428H42.1987C42.3782 57.1284 42.5458 57.0469 42.668 56.9146C42.7902 56.7822 42.858 56.6087 42.858 56.4285C42.858 56.2484 42.7902 56.0748 42.668 55.9425C42.5458 55.8101 42.3782 55.7286 42.1987 55.7142Z"
            fill="#0BCEB2" />
        <path
            d="M20.769 55.7142H17.8019C17.6224 55.7286 17.4548 55.8101 17.3326 55.9425C17.2104 56.0748 17.1426 56.2484 17.1426 56.4285C17.1426 56.6087 17.2104 56.7822 17.3326 56.9146C17.4548 57.0469 17.6224 57.1284 17.8019 57.1428H20.769C20.9485 57.1284 21.1161 57.0469 21.2383 56.9146C21.3605 56.7822 21.4283 56.6087 21.4283 56.4285C21.4283 56.2484 21.3605 56.0748 21.2383 55.9425C21.1161 55.8101 20.9485 55.7286 20.769 55.7142Z"
            fill="#0BCEB2" />
        <path
            d="M37.1426 55.7142H22.8569C22.6674 55.7142 22.4857 55.7895 22.3518 55.9234C22.2178 56.0574 22.1426 56.2391 22.1426 56.4285C22.1426 56.618 22.2178 56.7996 22.3518 56.9336C22.4857 57.0676 22.6674 57.1428 22.8569 57.1428H28.5497V57.8571H25.714C25.5246 57.8571 25.3429 57.9323 25.2089 58.0663C25.075 58.2003 24.9997 58.3819 24.9997 58.5714C24.9997 58.7608 25.075 58.9425 25.2089 59.0765C25.3429 59.2104 25.5246 59.2857 25.714 59.2857H34.6426C34.832 59.2857 35.0137 59.2104 35.1477 59.0765C35.2816 58.9425 35.3569 58.7608 35.3569 58.5714C35.3569 58.3819 35.2816 58.2003 35.1477 58.0663C35.0137 57.9323 34.832 57.8571 34.6426 57.8571H31.4497V57.1428H37.1426C37.332 57.1428 37.5137 57.0676 37.6477 56.9336C37.7816 56.7996 37.8569 56.618 37.8569 56.4285C37.8569 56.2391 37.7816 56.0574 37.6477 55.9234C37.5137 55.7895 37.332 55.7142 37.1426 55.7142Z"
            fill="#0BCEB2" />
        <path
            d="M7.23338 23.6242L8.24588 26.1307C8.37099 26.4389 8.61321 26.685 8.91943 26.8149C9.22566 26.9448 9.57091 26.9481 9.87951 26.8239L10.2673 26.6673C10.8851 27.5191 11.6265 28.274 12.467 28.9069L12.3038 29.2914C12.1744 29.5978 12.1718 29.943 12.2964 30.2514C12.4211 30.5597 12.6629 30.8061 12.9689 30.9364L15.4571 31.9925C15.7638 32.1189 16.1078 32.1201 16.4154 31.9958C16.7229 31.8715 16.9695 31.6316 17.1022 31.3276L17.2651 30.9437C18.3045 31.1087 19.3627 31.1176 20.4048 30.9702L20.5614 31.3576C20.6891 31.6636 20.9316 31.9076 21.2369 32.0372C21.5422 32.1668 21.886 32.1719 22.195 32.0513L24.7009 31.0388C25.0093 30.9138 25.2555 30.6716 25.3855 30.3653C25.5155 30.0591 25.5188 29.7138 25.3946 29.4051L25.2377 29.0175C26.0896 28.3997 26.8445 27.6583 27.4775 26.8178L27.8615 26.9806C28.1679 27.1102 28.5132 27.113 28.8217 26.9884C29.1302 26.8638 29.3766 26.6219 29.507 26.3159L30.5635 23.8274C30.6929 23.521 30.6955 23.1757 30.5709 22.8674C30.4462 22.559 30.2044 22.3126 29.8984 22.1822L29.5144 22.0193C29.6792 20.9801 29.6882 19.922 29.5409 18.8801L29.9284 18.7235C30.2367 18.5985 30.4829 18.3563 30.6129 18.0501C30.7429 17.7439 30.7462 17.3986 30.6221 17.09L29.6096 14.5835C29.4845 14.2753 29.2423 14.0292 28.936 13.8993C28.6298 13.7693 28.2845 13.7661 27.9759 13.8903L27.5881 14.0469C26.9704 13.1951 26.229 12.4403 25.3884 11.8073L25.5516 11.4228C25.681 11.1164 25.6837 10.7712 25.559 10.4628C25.4343 10.1545 25.1925 9.90813 24.8865 9.77778L22.3984 8.72171C22.0917 8.59495 21.7476 8.59358 21.4399 8.71789C21.1323 8.8422 20.8857 9.08227 20.7532 9.38647L20.59 9.77047C19.5507 9.60552 18.4926 9.59658 17.4507 9.74397L17.2941 9.35666C17.1664 9.05054 16.9239 8.80657 16.6186 8.67692C16.3133 8.54728 15.9694 8.54226 15.6604 8.66295L13.1545 9.67545C12.8462 9.80045 12.6 10.0426 12.47 10.3489C12.3399 10.6551 12.3366 11.0004 12.4608 11.3091L12.6177 11.6968C11.7658 12.3145 11.0109 13.0559 10.3779 13.8965L9.9939 13.7336C9.68753 13.6036 9.3421 13.6007 9.03354 13.7253C8.72497 13.85 8.47854 14.0921 8.3484 14.3983L7.29197 16.8868C7.16257 17.1933 7.15992 17.5385 7.28459 17.8468C7.40926 18.1552 7.65108 18.4016 7.95708 18.532L8.34108 18.6949C8.17621 19.7342 8.16727 20.7922 8.31457 21.8342L7.92707 21.9908C7.61875 22.1157 7.37259 22.3579 7.24255 22.6641C7.11251 22.9703 7.10921 23.3156 7.23338 23.6242ZM9.38182 22.9438C9.53584 22.8816 9.66336 22.7676 9.74242 22.6215C9.82148 22.4754 9.84715 22.3063 9.815 22.1433C9.57033 20.9104 9.58113 19.6404 9.84674 18.4118C9.88168 18.2494 9.85895 18.0799 9.78243 17.9325C9.70592 17.785 9.58042 17.6688 9.42751 17.6039L8.67522 17.2848L9.59563 15.1163L10.3479 15.4356C10.5008 15.5004 10.6715 15.5099 10.8307 15.4626C10.9899 15.4152 11.1276 15.3139 11.2202 15.1761C11.9194 14.1315 12.8254 13.2416 13.8824 12.5613C14.0219 12.4712 14.1257 12.3352 14.1758 12.1769C14.226 12.0185 14.2194 11.8476 14.1572 11.6936L13.8507 10.935L16.0347 10.0526L16.3412 10.8114C16.4034 10.9654 16.5174 11.0929 16.6635 11.172C16.8096 11.2511 16.9787 11.2767 17.1416 11.2446C18.3745 10.9998 19.6446 11.0105 20.8732 11.2759C21.0356 11.3111 21.2051 11.2885 21.3526 11.2119C21.5001 11.1354 21.6162 11.0098 21.6809 10.8567L22.0004 10.1046L24.1684 11.0248L23.8492 11.7773C23.7843 11.9302 23.7747 12.1009 23.8221 12.2601C23.8694 12.4193 23.9708 12.557 24.1087 12.6496C25.1533 13.3487 26.0433 14.2548 26.7235 15.3118C26.8135 15.4514 26.9494 15.5553 27.1079 15.6055C27.2663 15.6556 27.4372 15.649 27.5912 15.5866L28.3502 15.28L29.2322 17.4639L28.4736 17.7704C28.3196 17.8326 28.1921 17.9466 28.113 18.0927C28.034 18.2388 28.0083 18.4079 28.0405 18.5709C28.2851 19.8038 28.2743 21.0738 28.0087 22.3024C27.9738 22.4648 27.9965 22.6343 28.073 22.7817C28.1495 22.9292 28.275 23.0454 28.4279 23.1103L29.1802 23.4294L28.2598 25.5979L27.5075 25.2787C27.3547 25.2135 27.1839 25.2038 27.0246 25.2512C26.8654 25.2986 26.7277 25.4001 26.6352 25.5381C25.9361 26.5827 25.03 27.4726 23.9731 28.1529C23.8335 28.243 23.7298 28.379 23.6796 28.5373C23.6294 28.6957 23.636 28.8666 23.6982 29.0206L24.0048 29.7792L21.8208 30.6616L21.5142 29.9028C21.4519 29.7489 21.3379 29.6214 21.1919 29.5424C21.0458 29.4633 20.8768 29.4376 20.7138 29.4697C19.4809 29.7144 18.2109 29.7038 16.9823 29.4383C16.8199 29.4035 16.6505 29.4263 16.5031 29.5028C16.3557 29.5793 16.2395 29.7047 16.1745 29.8575L15.855 30.6096L13.6871 29.6894L14.0062 28.9369C14.0711 28.784 14.0807 28.6133 14.0334 28.4541C13.986 28.2949 13.8846 28.1572 13.7467 28.0646C12.7021 27.3655 11.8122 26.4595 11.132 25.4025C11.0419 25.2629 10.9059 25.1591 10.7475 25.1089C10.5892 25.0587 10.4182 25.0654 10.2642 25.1276L9.50528 25.4342L8.62323 23.2504L9.38182 22.9438Z"
            fill="#2D4356" />
        <path
            d="M18.9286 26.7857C20.2 26.7857 21.4429 26.4087 22.5001 25.7023C23.5573 24.9959 24.3812 23.9919 24.8678 22.8173C25.3544 21.6426 25.4817 20.35 25.2336 19.103C24.9856 17.856 24.3733 16.7105 23.4743 15.8115C22.5752 14.9124 21.4297 14.3002 20.1827 14.0521C18.9357 13.8041 17.6431 13.9314 16.4685 14.4179C15.2938 14.9045 14.2898 15.7285 13.5834 16.7856C12.877 17.8428 12.5 19.0857 12.5 20.3572C12.5019 22.0615 13.1799 23.6955 14.385 24.9007C15.5902 26.1059 17.2242 26.7838 18.9286 26.7857ZM18.9286 15.3572C19.9175 15.3572 20.8842 15.6504 21.7064 16.1998C22.5287 16.7492 23.1695 17.5301 23.548 18.4437C23.9264 19.3574 24.0254 20.3627 23.8325 21.3326C23.6396 22.3025 23.1634 23.1934 22.4641 23.8927C21.7648 24.592 20.8739 25.0682 19.904 25.2611C18.9341 25.454 17.9288 25.355 17.0152 24.9766C16.1015 24.5981 15.3206 23.9573 14.7712 23.135C14.2218 22.3128 13.9286 21.3461 13.9286 20.3572C13.9301 19.0315 14.4573 17.7606 15.3947 16.8233C16.332 15.8859 17.6029 15.3587 18.9286 15.3572Z"
            fill="#0BCEB2" />
        <path
            d="M46.7145 42.67C47.3162 40.8374 47.2826 38.8555 46.6192 37.0443C45.9558 35.2331 44.7012 33.6984 43.0582 32.6881C41.4151 31.6777 39.4794 31.2507 37.5638 31.4759C35.6481 31.7012 33.8643 32.5656 32.5004 33.9295C31.1365 35.2934 30.2722 37.0772 30.047 38.9929C29.8217 40.9085 30.2488 42.8442 31.2592 44.4872C32.2696 46.1303 33.8043 47.3848 35.6155 48.0482C37.4266 48.7116 39.4086 48.7451 41.2412 48.1434L40.0775 46.9798C38.567 47.3079 36.9907 47.1381 35.5847 46.4956C34.1788 45.8532 33.0186 44.7727 32.278 43.4158C31.5374 42.059 31.256 40.4988 31.4761 38.9687C31.6962 37.4387 32.4059 36.021 33.4989 34.928C34.592 33.8349 36.0096 33.1252 37.5397 32.9051C39.0697 32.685 40.63 32.9663 41.9868 33.7069C43.3436 34.4475 44.4242 35.6076 45.0666 37.0136C45.7091 38.4196 45.879 39.9958 45.5509 41.5064L46.7145 42.67Z"
            fill="#0BCEB2" />
        <path
            d="M32.8569 10.0001C41.6822 10.0001 48.8971 16.9358 49.2347 25.5866L48.2499 24.7511C48.1784 24.6901 48.0956 24.6438 48.0063 24.6149C47.9169 24.586 47.8226 24.575 47.729 24.5826C47.6354 24.5901 47.5441 24.6161 47.4605 24.6589C47.3769 24.7018 47.3026 24.7607 47.2418 24.8324C47.181 24.904 47.135 24.9869 47.1063 25.0764C47.0776 25.1659 47.0668 25.2601 47.0746 25.3537C47.0824 25.4474 47.1086 25.5385 47.1517 25.622C47.1948 25.7055 47.2539 25.7797 47.3257 25.8403L49.5031 27.6876C49.6332 27.7949 49.7966 27.8535 49.9652 27.8535C50.1338 27.8535 50.2972 27.7949 50.4273 27.6876L52.6047 25.8403C52.6765 25.7797 52.7356 25.7055 52.7787 25.622C52.8218 25.5385 52.848 25.4474 52.8558 25.3537C52.8636 25.2601 52.8528 25.1659 52.8241 25.0764C52.7954 24.9869 52.7494 24.904 52.6886 24.8324C52.6278 24.7607 52.5535 24.7018 52.4699 24.6589C52.3863 24.6161 52.295 24.5901 52.2014 24.5826C52.1077 24.575 52.0135 24.586 51.9241 24.6149C51.8347 24.6438 51.7519 24.6901 51.6805 24.7511L50.664 25.6135C50.3397 16.1625 42.4791 8.57153 32.8569 8.57153C32.6674 8.57153 32.4857 8.64679 32.3518 8.78074C32.2178 8.9147 32.1426 9.09638 32.1426 9.28582C32.1426 9.47526 32.2178 9.65694 32.3518 9.7909C32.4857 9.92485 32.6674 10.0001 32.8569 10.0001Z"
            fill="#2D4356" />
        <path
            d="M53.8292 52.8572H52.5889C52.8154 52.4327 52.9023 51.9475 52.8372 51.4708C52.7721 50.994 52.5583 50.55 52.2264 50.2017L43.7965 41.772C43.7086 41.6845 43.6454 41.5753 43.6131 41.4555C43.5809 41.3357 43.5807 41.2095 43.6127 41.0896C43.8525 40.2841 43.873 39.4291 43.672 38.613C43.471 37.7969 43.0559 37.0492 42.4695 36.4471C41.8097 35.8022 40.9866 35.3492 40.0887 35.1369C39.1908 34.9246 38.252 34.9611 37.3732 35.2423C37.2591 35.2824 37.1569 35.3507 37.076 35.4407C36.9952 35.5307 36.9383 35.6396 36.9106 35.7574C36.8829 35.8752 36.8853 35.998 36.9176 36.1146C36.9499 36.2312 37.0109 36.3379 37.0952 36.4246C37.0952 36.4246 39.2962 38.6254 39.2984 38.6277C39.8462 39.1754 39.648 40.0739 39.1467 40.5754C38.5684 41.1538 37.6951 41.2222 37.1992 40.7269L34.9963 38.5239C34.9094 38.44 34.8028 38.3792 34.6862 38.3471C34.5697 38.3151 34.447 38.3128 34.3294 38.3404C34.2117 38.368 34.1029 38.4248 34.0129 38.5054C33.9228 38.5859 33.8544 38.6878 33.814 38.8017C33.5327 39.6805 33.4962 40.6193 33.7084 41.5172C33.9207 42.4152 34.3736 43.2383 35.0186 43.8981C35.6208 44.4845 36.3686 44.8995 37.1847 45.1005C38.0009 45.3014 38.8559 45.2809 39.6615 45.0411C39.7813 45.0092 39.9075 45.0094 40.0272 45.0417C40.1469 45.074 40.2561 45.1372 40.3437 45.225L47.9757 52.8572H41.5476V52.3157C42.5258 52.081 43.4721 51.7291 44.366 51.2677L43.2982 50.2C42.4694 50.5847 41.5965 50.866 40.6991 51.0377C40.5359 51.0689 40.3888 51.1561 40.2829 51.2841C40.177 51.4122 40.1191 51.5731 40.1191 51.7392V52.8572H37.0241V51.7392C37.0241 51.5731 36.9661 51.4122 36.8603 51.2841C36.7544 51.1561 36.6073 51.0689 36.4441 51.0377C34.9493 50.7535 33.5287 50.1655 32.2703 49.3102C32.1328 49.2171 31.9672 49.1748 31.8018 49.1905C31.6365 49.2062 31.4818 49.2789 31.3642 49.3962L30.5746 50.1856L28.3857 47.9971L29.1753 47.2075C29.2928 47.09 29.3656 46.9353 29.3814 46.77C29.3971 46.6046 29.3547 46.439 29.2615 46.3015C28.4061 45.043 27.8181 43.6224 27.5336 42.1276C27.5024 41.9644 27.4153 41.8173 27.2873 41.7114C27.1593 41.6056 26.9984 41.5477 26.8323 41.5478H25.7144V38.4524H26.8323C26.9984 38.4524 27.1593 38.3945 27.2873 38.2887C27.4153 38.1829 27.5024 38.0357 27.5336 37.8726C27.8181 36.3777 28.4061 34.9571 29.2614 33.6986C29.3547 33.5612 29.3971 33.3955 29.3813 33.2302C29.3656 33.0648 29.2928 32.9101 29.1753 32.7927L28.3857 32.0031L30.5746 29.8145L31.3642 30.604C31.4817 30.7214 31.6364 30.7942 31.8018 30.8099C31.9672 30.8256 32.1328 30.7832 32.2703 30.6899C33.5287 29.8346 34.9493 29.2467 36.4441 28.9625C36.6072 28.9312 36.7544 28.8441 36.8603 28.716C36.9661 28.588 37.024 28.427 37.0241 28.2609V27.1429H40.1191V28.2609C40.1191 28.427 40.177 28.588 40.2829 28.716C40.3887 28.8441 40.5359 28.9312 40.6991 28.9625C42.1939 29.2467 43.6144 29.8346 44.8728 30.6899C45.0103 30.7832 45.176 30.8257 45.3414 30.81C45.5067 30.7943 45.6615 30.7214 45.7789 30.604L46.5686 29.8145L48.7575 32.0031L47.9678 32.7927C47.8504 32.9101 47.7775 33.0648 47.7618 33.2302C47.7461 33.3955 47.7885 33.5612 47.8817 33.6986C48.737 34.9571 49.3251 36.3777 49.6095 37.8726C49.6407 38.0357 49.7278 38.1829 49.8559 38.2887C49.9839 38.3945 50.1448 38.4524 50.3109 38.4524H51.4287V41.5478H50.3109C50.1448 41.5477 49.9839 41.6056 49.8559 41.7114C49.7278 41.8173 49.6407 41.9644 49.6095 42.1276C49.4377 43.025 49.1563 43.8979 48.7716 44.7267L49.8395 45.7945C50.3008 44.9006 50.6526 43.9544 50.8874 42.9763H51.4967C51.8575 42.9759 52.2033 42.8324 52.4583 42.5774C52.7134 42.3223 52.8569 41.9765 52.8573 41.6158V38.3844C52.8569 38.0237 52.7134 37.6778 52.4583 37.4228C52.2033 37.1677 51.8574 37.0242 51.4967 37.0238H50.8874C50.581 35.7428 50.0741 34.5181 49.3856 33.3952L49.816 32.9648C50.0705 32.7093 50.2134 32.3634 50.2133 32.0027C50.2132 31.6421 50.0702 31.2962 49.8156 31.0408L47.5308 28.7563C47.2716 28.509 46.9271 28.3709 46.5688 28.3709C46.2105 28.3708 45.866 28.5087 45.6067 28.756L45.1763 29.1862C44.0533 28.4977 42.8287 27.9909 41.5476 27.6844V27.0749C41.5472 26.7142 41.4038 26.3684 41.1487 26.1133C40.8936 25.8582 40.5478 25.7148 40.1871 25.7144H36.9561C36.5954 25.7148 36.2495 25.8582 35.9945 26.1133C35.7394 26.3684 35.5959 26.7142 35.5955 27.0749V27.6844C34.3144 27.9909 33.0898 28.4977 31.9669 29.1862L31.5368 28.7563C31.2776 28.509 30.9331 28.3709 30.5748 28.3709C30.2165 28.3708 29.872 28.5087 29.6127 28.756L27.3272 31.0411C27.0727 31.2966 26.9298 31.6425 26.9299 32.0031C26.9299 32.3637 27.0729 32.7096 27.3275 32.965L27.7576 33.3952C27.0691 34.5181 26.5622 35.7428 26.2557 37.0238H25.6464C25.2857 37.0242 24.9399 37.1677 24.6848 37.4228C24.4297 37.6778 24.2863 38.0237 24.2859 38.3844V41.6158C24.2863 41.9765 24.4297 42.3223 24.6848 42.5774C24.9399 42.8324 25.2857 42.9759 25.6464 42.9763H26.2557C26.5622 44.2574 27.069 45.482 27.7575 46.6049L27.3272 47.0353C27.0727 47.2908 26.9298 47.6368 26.9299 47.9974C26.9299 48.358 27.0729 48.7039 27.3275 48.9593L29.6123 51.2438C29.8715 51.4912 30.216 51.6292 30.5743 51.6293C30.9326 51.6293 31.2772 51.4914 31.5365 51.2441L31.9669 50.8139C33.0898 51.5024 34.3144 52.0093 35.5955 52.3157V52.8572H27.8573C23.4643 52.8678 19.2381 51.176 16.0659 48.1369C12.8938 45.0979 11.0224 40.948 10.8448 36.5586L11.9107 37.4654C12.0561 37.5855 12.2426 37.6443 12.4307 37.6291C12.6187 37.6139 12.7934 37.526 12.9176 37.3841C12.9784 37.3127 13.0246 37.2299 13.0534 37.1407C13.0822 37.0514 13.0932 36.9573 13.0856 36.8638C13.0781 36.7703 13.0522 36.6792 13.0094 36.5957C12.9666 36.5122 12.9078 36.438 12.8364 36.3772L10.5781 34.456C10.4489 34.3461 10.2848 34.2858 10.1152 34.2858C9.94567 34.2858 9.78162 34.3461 9.65242 34.456L7.39447 36.3772C7.32302 36.438 7.26424 36.5122 7.22149 36.5957C7.17873 36.6792 7.15285 36.7703 7.1453 36.8638C7.13775 36.9573 7.1487 37.0514 7.17751 37.1407C7.20632 37.2299 7.25243 37.3127 7.31321 37.3841C7.37398 37.4556 7.44824 37.5143 7.53173 37.5571C7.61523 37.5999 7.70633 37.6257 7.79983 37.6333C7.89333 37.6408 7.9874 37.6299 8.07667 37.6011C8.16594 37.5723 8.24866 37.5262 8.32011 37.4654L9.41558 36.5332C9.53653 40.0516 10.6664 43.4609 12.6706 46.3551C14.6748 49.2493 17.4688 51.5063 20.7197 52.8572H6.17111C6.06949 52.8439 5.96621 52.8525 5.86817 52.8823C5.77012 52.9121 5.67957 52.9625 5.60255 53.0301C5.52553 53.0977 5.46383 53.181 5.42156 53.2744C5.37929 53.3677 5.35742 53.469 5.35742 53.5715C5.35742 53.674 5.37929 53.7753 5.42156 53.8686C5.46383 53.962 5.52553 54.0453 5.60255 54.1129C5.67957 54.1805 5.77012 54.2309 5.86817 54.2607C5.96621 54.2905 6.06949 54.2991 6.17111 54.2858H50.3197L50.3235 54.286L50.3268 54.2858H53.8292C53.9308 54.2991 54.0341 54.2905 54.1321 54.2607C54.2302 54.2309 54.3207 54.1805 54.3977 54.1129C54.4748 54.0453 54.5365 53.962 54.5787 53.8686C54.621 53.7753 54.6429 53.674 54.6429 53.5715C54.6429 53.469 54.621 53.3677 54.5787 53.2744C54.5365 53.181 54.4748 53.0977 54.3977 53.0301C54.3207 52.9625 54.2302 52.9121 54.1321 52.8823C54.0341 52.8525 53.9308 52.8439 53.8292 52.8572ZM41.3537 44.2148C41.0865 43.9518 40.7556 43.7627 40.3934 43.6658C40.0312 43.569 39.6501 43.5678 39.2872 43.6624C38.7243 43.8346 38.1256 43.8537 37.5528 43.7175C36.98 43.5814 36.4539 43.295 36.0287 42.8879C35.4198 42.2575 35.0572 41.4296 35.0068 40.5546L36.1891 41.737C37.2414 42.7894 39.0211 42.7217 40.1567 41.5856C41.2085 40.5334 41.4031 38.7115 40.3085 37.6176L39.1261 36.4353C40.0011 36.4859 40.8289 36.8485 41.4594 37.4573C41.8665 37.8826 42.1529 38.4086 42.289 38.9813C42.4252 39.554 42.4062 40.1526 42.234 40.7156C42.1365 41.0782 42.1362 41.4601 42.2332 41.8229C42.3302 42.1856 42.521 42.5165 42.7865 42.782L51.2163 51.2117C51.3715 51.4027 51.4455 51.647 51.4226 51.892C51.3997 52.137 51.2817 52.3633 51.0939 52.5224C50.9039 52.7184 50.6481 52.8372 50.3758 52.856C50.2677 52.8648 50.1589 52.8506 50.0567 52.8141C49.9546 52.7777 49.8613 52.7199 49.7832 52.6446L41.3537 44.2148Z"
            fill="#2D4356" />
        <path
            d="M32.1749 7.18973C32.3869 7.18973 32.594 7.12689 32.7702 7.00916C32.9464 6.89143 33.0837 6.7241 33.1648 6.52832C33.2459 6.33254 33.2671 6.11712 33.2258 5.90928C33.1844 5.70144 33.0824 5.51053 32.9326 5.36069C32.7827 5.21085 32.5918 5.1088 32.384 5.06746C32.1761 5.02612 31.9607 5.04734 31.7649 5.12843C31.5691 5.20953 31.4018 5.34685 31.2841 5.52305C31.1664 5.69925 31.1035 5.9064 31.1035 6.1183C31.1038 6.40236 31.2168 6.6747 31.4177 6.87556C31.6186 7.07642 31.8909 7.18941 32.1749 7.18973ZM32.1749 5.58259C32.2809 5.58259 32.3845 5.61401 32.4726 5.67287C32.5607 5.73174 32.6293 5.81541 32.6699 5.91329C32.7104 6.01118 32.721 6.1189 32.7004 6.22282C32.6797 6.32674 32.6287 6.42219 32.5538 6.49711C32.4788 6.57203 32.3834 6.62305 32.2795 6.64372C32.1755 6.6644 32.0678 6.65379 31.9699 6.61324C31.872 6.57269 31.7884 6.50403 31.7295 6.41593C31.6706 6.32783 31.6392 6.22426 31.6392 6.1183C31.6394 5.97627 31.6959 5.84009 31.7963 5.73965C31.8967 5.63922 32.0329 5.58273 32.1749 5.58259Z"
            fill="#2D4356" />
        <path
            d="M57.6791 2.78491C57.5379 2.78491 57.3998 2.8268 57.2823 2.90529C57.1648 2.98378 57.0733 3.09533 57.0192 3.22585C56.9652 3.35637 56.951 3.49999 56.9786 3.63855C57.0061 3.77711 57.0742 3.90438 57.1741 4.00427C57.274 4.10417 57.4012 4.1722 57.5398 4.19976C57.6783 4.22732 57.822 4.21317 57.9525 4.15911C58.083 4.10505 58.1946 4.0135 58.273 3.89603C58.3515 3.77857 58.3934 3.64047 58.3934 3.4992C58.3932 3.30982 58.3179 3.12827 58.184 2.99436C58.0501 2.86045 57.8685 2.78513 57.6791 2.78491ZM57.6791 3.85634C57.6085 3.85634 57.5394 3.83539 57.4807 3.79615C57.422 3.75691 57.3762 3.70113 57.3492 3.63587C57.3221 3.57061 57.3151 3.4988 57.3289 3.42952C57.3426 3.36024 57.3766 3.29661 57.4266 3.24666C57.4765 3.19671 57.5402 3.1627 57.6095 3.14892C57.6787 3.13514 57.7505 3.14221 57.8158 3.16924C57.8811 3.19627 57.9368 3.24205 57.9761 3.30078C58.0153 3.35951 58.0363 3.42856 58.0363 3.4992C58.0362 3.59389 57.9985 3.68467 57.9316 3.75163C57.8646 3.81859 57.7738 3.85625 57.6791 3.85634Z"
            fill="#2D4356" />
        <path
            d="M1.2514 13.4993C1.11012 13.4993 0.972023 13.5412 0.85456 13.6196C0.737096 13.6981 0.645544 13.8097 0.591481 13.9402C0.537419 14.0707 0.523274 14.2143 0.550834 14.3529C0.578395 14.4915 0.646424 14.6187 0.746319 14.7186C0.846214 14.8185 0.973487 14.8866 1.11205 14.9141C1.2506 14.9417 1.39422 14.9275 1.52474 14.8735C1.65526 14.8194 1.76682 14.7279 1.8453 14.6104C1.92379 14.4929 1.96568 14.3548 1.96568 14.2136C1.96546 14.0242 1.89014 13.8426 1.75623 13.7087C1.62233 13.5748 1.44077 13.4995 1.2514 13.4993ZM1.2514 14.5707C1.18076 14.5707 1.11171 14.5497 1.05298 14.5105C0.994246 14.4713 0.94847 14.4155 0.921438 14.3502C0.894407 14.285 0.887334 14.2132 0.901115 14.1439C0.914895 14.0746 0.94891 14.011 0.998857 13.961C1.0488 13.9111 1.11244 13.8771 1.18172 13.8633C1.251 13.8495 1.32281 13.8566 1.38807 13.8836C1.45333 13.9106 1.50911 13.9564 1.54835 14.0151C1.58759 14.0739 1.60854 14.1429 1.60854 14.2136C1.60844 14.3082 1.57079 14.399 1.50383 14.466C1.43687 14.5329 1.34609 14.5706 1.2514 14.5707Z"
            fill="#2D4356" />
        <path
            d="M48.603 9.77905C48.4617 9.77905 48.3236 9.82094 48.2061 9.89943C48.0887 9.97792 47.9971 10.0895 47.943 10.22C47.889 10.3505 47.8748 10.4941 47.9024 10.6327C47.93 10.7712 47.998 10.8985 48.0979 10.9984C48.1978 11.0983 48.3251 11.1663 48.4636 11.1939C48.6022 11.2215 48.7458 11.2073 48.8763 11.1533C49.0068 11.0992 49.1184 11.0076 49.1969 10.8902C49.2754 10.7727 49.3172 10.6346 49.3172 10.4933C49.317 10.304 49.2417 10.1224 49.1078 9.9885C48.9739 9.85459 48.7923 9.77927 48.603 9.77905ZM48.603 10.8505C48.5323 10.8505 48.4633 10.8295 48.4045 10.7903C48.3458 10.751 48.3 10.6953 48.273 10.63C48.246 10.5648 48.2389 10.4929 48.2527 10.4237C48.2665 10.3544 48.3005 10.2907 48.3504 10.2408C48.4004 10.1909 48.464 10.1568 48.5333 10.1431C48.6026 10.1293 48.6744 10.1364 48.7396 10.1634C48.8049 10.1904 48.8607 10.2362 48.8999 10.2949C48.9392 10.3537 48.9601 10.4227 48.9601 10.4933C48.96 10.588 48.9223 10.6788 48.8554 10.7458C48.7884 10.8127 48.6976 10.8504 48.603 10.8505Z"
            fill="#2D4356" />
        <path
            d="M4.8524 1.83257C4.8524 1.6913 4.81051 1.5532 4.73202 1.43574C4.65353 1.31827 4.54198 1.22672 4.41146 1.17266C4.28094 1.1186 4.13732 1.10445 3.99876 1.13201C3.86021 1.15957 3.73293 1.2276 3.63304 1.3275C3.53314 1.42739 3.46511 1.55466 3.43755 1.69322C3.40999 1.83178 3.42414 1.9754 3.4782 2.10592C3.53226 2.23644 3.62381 2.34799 3.74128 2.42648C3.85874 2.50497 3.99684 2.54686 4.13811 2.54686C4.32749 2.54664 4.50904 2.47132 4.64295 2.33741C4.77686 2.2035 4.85218 2.02195 4.8524 1.83257ZM3.78097 1.83257C3.78097 1.76194 3.80192 1.69289 3.84116 1.63415C3.8804 1.57542 3.93618 1.52965 4.00144 1.50262C4.0667 1.47558 4.13851 1.46851 4.20779 1.48229C4.27707 1.49607 4.34071 1.53009 4.39065 1.58003C4.4406 1.62998 4.47461 1.69362 4.48839 1.7629C4.50218 1.83218 4.4951 1.90399 4.46807 1.96924C4.44104 2.0345 4.39526 2.09028 4.33653 2.12953C4.2778 2.16877 4.20875 2.18972 4.13811 2.18972C4.04342 2.18962 3.95264 2.15196 3.88568 2.08501C3.81872 2.01805 3.78107 1.92726 3.78097 1.83257Z"
            fill="#2D4356" />
        <path
            d="M10.8705 7.41605L11.4015 6.71783L11.0662 6.52783L10.7255 7.30998H10.714L10.368 6.53319L10.0265 6.7289L10.5523 7.41069V7.42176L9.73047 7.31569V7.69569L10.5576 7.58962V7.60069L10.0265 8.28212L10.3451 8.48355L10.7087 7.69569H10.7194L11.0548 8.47783L11.4069 8.27676L10.8705 7.60605V7.59498L11.714 7.69569V7.31569L10.8705 7.42748V7.41605Z"
            fill="#0BCEB2" />
        <path
            d="M22.5624 2.53253L22.2567 2.92503L22.4399 3.04074L22.6492 2.58717H22.6556L22.8488 3.03753L23.0513 2.92182L22.7427 2.53539V2.52932L23.2284 2.58717V2.36824L22.7427 2.43253V2.4261L23.0484 2.02396L22.8552 1.91467L22.6588 2.36503H22.6524L22.4531 1.91789L22.2567 2.03039L22.5592 2.42289V2.42932L22.0859 2.36824V2.58717L22.5624 2.5261V2.53253Z"
            fill="#0BCEB2" />
        <path
            d="M59.4613 14.58V14.2075L58.6342 14.3168V14.3061L59.1549 13.6211L58.826 13.4347L58.4917 14.2018H58.4806L58.141 13.44L57.8063 13.6318L58.3217 14.3008V14.3115L57.5156 14.2075V14.58L58.327 14.4761V14.4868L57.8063 15.1554L58.1185 15.3529L58.4753 14.58H58.486L58.8149 15.3475L59.1603 15.15L58.6342 14.4922V14.4815L59.4613 14.58Z"
            fill="#0BCEB2" />
        <path
            d="M39.7635 1.46602L40.2128 0.874948L39.9288 0.714233L39.6406 1.37602H39.631L39.3381 0.718876L39.0492 0.884233L39.4938 1.46138V1.47066L38.7988 1.38066V1.70245L39.4985 1.61245V1.62209L39.0492 2.19852L39.3188 2.36888L39.6263 1.70245H39.6356L39.9195 2.36423L40.2174 2.19388L39.7635 1.62673V1.61709L40.477 1.70245V1.38066L39.7635 1.4753V1.46602Z"
            fill="#0BCEB2" />
    </g>
    <defs>
        <clipPath id="clip0_715_32065">
            <rect width="60" height="60" fill="white" />
        </clipPath>
    </defs>
</svg>