<svg width="60" height="60" viewBox="0 0 60 60" fill="none" xmlns="http://www.w3.org/2000/svg">
    <g clip-path="url(#clip0_715_32236)">
        <path
            d="M48.5244 46.9063L46.6757 47.0296C50.5917 42.8525 52.7959 37.357 52.8515 31.6316C52.9072 25.9063 50.8103 20.3689 46.9763 16.1165C43.1423 11.8641 37.8509 9.20693 32.1504 8.67144C26.4498 8.13595 20.7561 9.7612 16.1973 13.2252C16.6063 13.4964 16.907 13.9029 17.0466 14.3734C21.2963 11.1361 26.603 9.60458 31.9242 10.0798C37.2454 10.555 42.1968 13.0025 45.8057 16.9417C49.4146 20.8808 51.4203 26.027 51.429 31.3694C51.4376 36.7118 49.4485 41.8644 45.8524 45.8152L45.9512 44.3331C45.9637 44.1441 45.9007 43.9578 45.776 43.8152C45.7142 43.7447 45.6391 43.6869 45.555 43.6454C45.4709 43.6038 45.3795 43.5792 45.2859 43.5729C45.0969 43.5604 44.9106 43.6234 44.768 43.7482C44.6255 43.8729 44.5383 44.0492 44.5257 44.2382L44.2877 47.8097C44.281 47.9112 44.296 48.0131 44.3318 48.1083C44.3676 48.2036 44.4234 48.2901 44.4954 48.3621C44.5674 48.4341 44.6539 48.4899 44.7492 48.5257C44.8444 48.5615 44.9463 48.5765 45.0478 48.5698L48.6193 48.3318C48.8083 48.3192 48.9846 48.232 49.1094 48.0895C49.2341 47.9469 49.2971 47.7607 49.2846 47.5716C49.272 47.3826 49.1848 47.2063 49.0423 47.0816C48.8997 46.9568 48.7134 46.8938 48.5244 46.9063Z"
            fill="#2D4356" />
        <path
            d="M29.9997 23.5714C28.4457 23.5714 26.9266 24.0322 25.6345 24.8956C24.3424 25.7589 23.3354 26.9861 22.7407 28.4218C22.146 29.8575 21.9904 31.4373 22.2936 32.9614C22.5967 34.4855 23.345 35.8856 24.4439 36.9844C25.5427 38.0832 26.9427 38.8316 28.4669 39.1347C29.991 39.4379 31.5708 39.2823 33.0065 38.6876C34.4422 38.0929 35.6693 37.0858 36.5327 35.7937C37.3961 34.5016 37.8569 32.9826 37.8569 31.4286C37.8545 29.3454 37.026 27.3483 35.553 25.8753C34.08 24.4023 32.0828 23.5738 29.9997 23.5714ZM29.9997 37.8571C28.7283 37.8571 27.4854 37.4801 26.4282 36.7737C25.371 36.0673 24.5471 35.0633 24.0605 33.8887C23.5739 32.714 23.4466 31.4214 23.6947 30.1744C23.9427 28.9274 24.555 27.7819 25.454 26.8829C26.3531 25.9838 27.4986 25.3716 28.7456 25.1235C29.9926 24.8755 31.2852 25.0028 32.4598 25.4893C33.6345 25.9759 34.6385 26.7999 35.3449 27.857C36.0513 28.9142 36.4283 30.1571 36.4283 31.4286C36.4264 33.1329 35.7485 34.7669 34.5433 35.9721C33.3381 37.1773 31.7041 37.8552 29.9997 37.8571Z"
            fill="#0BCEB2" />
        <path
            d="M29.2349 21.8438C29.2599 21.8438 29.2849 21.8426 29.3097 21.84C29.6576 21.8039 30.007 21.7858 30.3567 21.7857C30.5462 21.7857 30.7279 21.7105 30.8618 21.5765C30.9958 21.4426 31.071 21.2609 31.071 21.0715C31.071 20.882 30.9958 20.7003 30.8618 20.5664C30.7279 20.4324 30.5462 20.3572 30.3567 20.3572C29.9576 20.3572 29.5588 20.3778 29.1619 20.4191C28.9799 20.438 28.8121 20.5261 28.6931 20.6651C28.5742 20.8041 28.5131 20.9834 28.5224 21.1661C28.5318 21.3488 28.6109 21.521 28.7435 21.6471C28.8761 21.7732 29.052 21.8436 29.2349 21.8438Z"
            fill="#0BCEB2" />
        <path
            d="M26.7269 22.4646C26.8144 22.4306 26.8943 22.3797 26.9621 22.3148C27.0298 22.2499 27.0842 22.1723 27.1219 22.0864C27.1597 22.0005 27.1802 21.908 27.1822 21.8141C27.1842 21.7203 27.1677 21.627 27.1336 21.5396C27.0995 21.4522 27.0486 21.3723 26.9836 21.3046C26.9187 21.2368 26.841 21.1826 26.7551 21.1449C26.6691 21.1072 26.5766 21.0868 26.4828 21.0849C26.389 21.0829 26.2957 21.0995 26.2083 21.1337C24.0577 21.9614 22.2096 23.4235 20.9093 25.326C19.609 27.2284 18.9179 29.4813 18.9278 31.7857C18.9278 31.9751 19.0031 32.1568 19.137 32.2908C19.271 32.4247 19.4527 32.5 19.6421 32.5C19.8316 32.5 20.0132 32.4247 20.1472 32.2908C20.2812 32.1568 20.3564 31.9751 20.3564 31.7857C20.3477 29.7693 20.9524 27.7979 22.0902 26.1331C23.228 24.4684 24.8451 23.1889 26.7269 22.4646Z"
            fill="#0BCEB2" />
        <path
            d="M42.5573 38.3287C43.0633 37.4093 43.4661 36.4367 43.7583 35.4287H45.4901C45.9284 35.4282 46.3486 35.2538 46.6585 34.9439C46.9684 34.634 47.1427 34.2138 47.1431 33.7755V29.0817C47.1427 28.6435 46.9684 28.2233 46.6585 27.9133C46.3486 27.6034 45.9284 27.4291 45.4901 27.4286H43.7583C43.4661 26.4206 43.0633 25.448 42.5573 24.5285L43.7817 23.304C44.0912 22.9937 44.265 22.5734 44.265 22.1351C44.265 21.6969 44.0912 21.2766 43.7817 20.9663L40.4626 17.6471C40.1523 17.3376 39.7319 17.1638 39.2937 17.1639C38.8555 17.1639 38.4352 17.3377 38.1249 17.6472L36.9004 18.8716C35.9809 18.3656 35.0083 17.9628 34.0003 17.6706V15.9388C33.9998 15.5005 33.8255 15.0803 33.5156 14.7704C33.2056 14.4605 32.7854 14.2862 32.3472 14.2858H27.6534C27.2151 14.2862 26.7949 14.4605 26.485 14.7704C26.1751 15.0803 26.0007 15.5005 26.0002 15.9388V17.6706C24.9922 17.9628 24.0196 18.3656 23.1002 18.8716L21.8756 17.6472C21.5655 17.3376 21.1451 17.1637 20.7068 17.1637C20.2685 17.1637 19.8482 17.3376 19.538 17.6472L16.2187 20.9663C15.9093 21.2766 15.7355 21.697 15.7355 22.1352C15.7356 22.5734 15.9094 22.9937 16.2189 23.304L17.4433 24.5285C16.9373 25.448 16.5345 26.4206 16.2423 27.4286H14.5104C14.0722 27.4291 13.652 27.6034 13.3421 27.9133C13.0322 28.2233 12.8579 28.6435 12.8574 29.0817V33.7755C12.8579 34.2138 13.0322 34.634 13.3421 34.9439C13.652 35.2538 14.0722 35.4282 14.5104 35.4287H16.2423C16.5345 36.4367 16.9373 37.4093 17.4433 38.3287L16.2187 39.5531C15.9093 39.8634 15.7356 40.2838 15.7356 40.722C15.7356 41.1603 15.9094 41.5806 16.2189 41.8909L19.538 45.2102C19.8483 45.5196 20.2686 45.6934 20.7068 45.6934C21.1451 45.6933 21.5654 45.5195 21.8756 45.21L23.1002 43.9857C24.0196 44.4916 24.9922 44.8944 26.0002 45.1866V46.9185C26.0007 47.3568 26.1751 47.7769 26.485 48.0868C26.7949 48.3967 27.2151 48.571 27.6534 48.5715H32.3472C32.7854 48.571 33.2056 48.3967 33.5156 48.0868C33.8255 47.7769 33.9998 47.3567 34.0004 46.9185V45.1866C35.0083 44.8944 35.9809 44.4916 36.9004 43.9856L38.1249 45.21C38.4352 45.5195 38.8555 45.6933 39.2938 45.6933C39.732 45.6933 40.1523 45.5195 40.4626 45.21L43.7818 41.8909C44.0913 41.5806 44.265 41.1602 44.265 40.722C44.2649 40.2837 44.0911 39.8634 43.7817 39.5531L42.5573 38.3287ZM42.7716 40.8809L39.4525 44.1998C39.4104 44.2419 39.3533 44.2655 39.2938 44.2655C39.2343 44.2656 39.1771 44.242 39.135 44.2L37.5233 42.5883C37.4105 42.4755 37.2631 42.4037 37.1048 42.3844C36.9464 42.3651 36.7861 42.3993 36.6494 42.4816C35.551 43.144 34.3593 43.6376 33.1141 43.9457C32.9593 43.9841 32.8217 44.0733 32.7234 44.1989C32.6252 44.3246 32.5718 44.4795 32.5718 44.6391V46.9185C32.5717 46.978 32.548 47.0351 32.5059 47.0771C32.4638 47.1192 32.4067 47.1429 32.3472 47.1429H27.6534C27.5939 47.1429 27.5368 47.1192 27.4947 47.0771C27.4526 47.0351 27.4289 46.978 27.4288 46.9185V44.6391C27.4288 44.4795 27.3754 44.3246 27.2771 44.1989C27.1788 44.0733 27.0413 43.9841 26.8864 43.9457C25.6413 43.6376 24.4495 43.144 23.3511 42.4816C23.2145 42.3992 23.0542 42.365 22.8958 42.3843C22.7374 42.4036 22.5901 42.4755 22.4773 42.5883L20.8656 44.2C20.8234 44.242 20.7663 44.2656 20.7068 44.2656C20.6473 44.2656 20.5902 44.242 20.548 44.2L17.2291 40.8809C17.1871 40.8387 17.1634 40.7816 17.1634 40.722C17.1634 40.6625 17.1869 40.6054 17.2289 40.5631L18.8406 38.9516C18.9535 38.8388 19.0253 38.6915 19.0446 38.5331C19.064 38.3747 19.0297 38.2144 18.9473 38.0778C18.2849 36.9794 17.7913 35.7876 17.4832 34.5425C17.4448 34.3876 17.3556 34.2501 17.23 34.1518C17.1043 34.0535 16.9494 34.0001 16.7898 34.0001H14.5104C14.4509 34 14.3938 33.9763 14.3518 33.9342C14.3097 33.8921 14.286 33.835 14.286 33.7755V29.0817C14.286 29.0222 14.3097 28.9651 14.3518 28.923C14.3938 28.8809 14.4509 28.8572 14.5104 28.8571H16.7898C16.9494 28.8571 17.1043 28.8037 17.23 28.7055C17.3556 28.6072 17.4448 28.4696 17.4832 28.3148C17.7913 27.0696 18.2849 25.8779 18.9473 24.7795C19.0297 24.6428 19.064 24.4825 19.0446 24.3241C19.0253 24.1657 18.9535 24.0184 18.8406 23.9056L17.2289 22.2939C17.187 22.2517 17.1634 22.1947 17.1634 22.1351C17.1634 22.0756 17.187 22.0186 17.2289 21.9764L20.548 18.6574C20.5902 18.6155 20.6473 18.592 20.7068 18.592C20.7662 18.5919 20.8233 18.6154 20.8656 18.6573L22.4773 20.2689C22.5901 20.3817 22.7374 20.4535 22.8958 20.4729C23.0542 20.4922 23.2145 20.458 23.3511 20.3757C24.4495 19.7132 25.6413 19.2196 26.8864 18.9115C27.0413 18.8731 27.1788 18.784 27.2771 18.6583C27.3754 18.5326 27.4288 18.3777 27.4288 18.2182V15.9388C27.4289 15.8792 27.4526 15.8222 27.4947 15.7801C27.5368 15.738 27.5939 15.7144 27.6534 15.7143H32.3472C32.4067 15.7144 32.4638 15.738 32.5059 15.7801C32.548 15.8222 32.5717 15.8792 32.5718 15.9388V18.2182C32.5718 18.3777 32.6252 18.5327 32.7234 18.6583C32.8217 18.784 32.9593 18.8731 33.1141 18.9115C34.3593 19.2197 35.551 19.7132 36.6495 20.3757C36.7861 20.4579 36.9464 20.4921 37.1047 20.4728C37.2631 20.4534 37.4104 20.3817 37.5233 20.269L39.135 18.6573C39.1772 18.6154 39.2343 18.5919 39.2938 18.5919C39.3532 18.5919 39.4103 18.6154 39.4525 18.6573L42.7715 21.9764C42.8135 22.0185 42.8371 22.0756 42.8371 22.1351C42.8372 22.1946 42.8136 22.2517 42.7716 22.2939L41.16 23.9056C41.0471 24.0184 40.9753 24.1657 40.9559 24.3241C40.9366 24.4825 40.9708 24.6428 41.0532 24.7795C41.7157 25.8779 42.2093 27.0696 42.5174 28.3148C42.5558 28.4696 42.6449 28.6072 42.7706 28.7055C42.8962 28.8038 43.0512 28.8571 43.2107 28.8571H45.4901C45.5497 28.8572 45.6067 28.8809 45.6488 28.923C45.6909 28.9651 45.7145 29.0222 45.7146 29.0817V33.7755C45.7145 33.835 45.6909 33.8921 45.6488 33.9342C45.6067 33.9763 45.5497 34 45.4901 34.0001H43.2107C43.0512 34.0001 42.8962 34.0535 42.7706 34.1518C42.6449 34.2501 42.5558 34.3876 42.5174 34.5425C42.2092 35.7876 41.7157 36.9794 41.0532 38.0778C40.9708 38.2144 40.9366 38.3747 40.9559 38.5331C40.9753 38.6915 41.0471 38.8388 41.1599 38.9516L42.7714 40.5631C42.8135 40.6053 42.8371 40.6624 42.8371 40.722C42.8372 40.7815 42.8136 40.8387 42.7716 40.8809Z"
            fill="#2D4356" />
        <path
            d="M0.714286 54.2857C1.10877 54.2857 1.42857 53.966 1.42857 53.5715C1.42857 53.177 1.10877 52.8572 0.714286 52.8572C0.319797 52.8572 0 53.177 0 53.5715C0 53.966 0.319797 54.2857 0.714286 54.2857Z"
            fill="#2D4356" />
        <path
            d="M3.92829 52.8572H2.85686C2.66742 52.8572 2.48574 52.9324 2.35179 53.0664C2.21783 53.2003 2.14258 53.382 2.14258 53.5715C2.14258 53.7609 2.21783 53.9426 2.35179 54.0765C2.48574 54.2105 2.66742 54.2857 2.85686 54.2857H3.92829C4.11773 54.2857 4.29941 54.2105 4.43337 54.0765C4.56732 53.9426 4.64258 53.7609 4.64258 53.5715C4.64258 53.382 4.56732 53.2003 4.43337 53.0664C4.29941 52.9324 4.11773 52.8572 3.92829 52.8572Z"
            fill="#2D4356" />
        <path
            d="M57.1431 52.8572H56.0717C55.8823 52.8572 55.7006 52.9324 55.5666 53.0664C55.4327 53.2003 55.3574 53.382 55.3574 53.5715C55.3574 53.7609 55.4327 53.9426 55.5666 54.0765C55.7006 54.2105 55.8823 54.2857 56.0717 54.2857H57.1431C57.3326 54.2857 57.5143 54.2105 57.6482 54.0765C57.7822 53.9426 57.8574 53.7609 57.8574 53.5715C57.8574 53.382 57.7822 53.2003 57.6482 53.0664C57.5143 52.9324 57.3326 52.8572 57.1431 52.8572Z"
            fill="#2D4356" />
        <path
            d="M59.2866 54.2857C59.681 54.2857 60.0008 53.966 60.0008 53.5715C60.0008 53.177 59.681 52.8572 59.2866 52.8572C58.8921 52.8572 58.5723 53.177 58.5723 53.5715C58.5723 53.966 58.8921 54.2857 59.2866 54.2857Z"
            fill="#2D4356" />
        <path
            d="M42.1987 55.7142H39.2316C39.052 55.7286 38.8845 55.8101 38.7623 55.9425C38.6401 56.0748 38.5723 56.2484 38.5723 56.4285C38.5723 56.6087 38.6401 56.7822 38.7623 56.9146C38.8845 57.0469 39.052 57.1284 39.2316 57.1428H42.1987C42.3782 57.1284 42.5458 57.0469 42.668 56.9146C42.7902 56.7822 42.858 56.6087 42.858 56.4285C42.858 56.2484 42.7902 56.0748 42.668 55.9425C42.5458 55.8101 42.3782 55.7286 42.1987 55.7142Z"
            fill="#0BCEB2" />
        <path
            d="M20.769 55.7142H17.8019C17.6224 55.7286 17.4548 55.8101 17.3326 55.9425C17.2104 56.0748 17.1426 56.2484 17.1426 56.4285C17.1426 56.6087 17.2104 56.7822 17.3326 56.9146C17.4548 57.0469 17.6224 57.1284 17.8019 57.1428H20.769C20.9485 57.1284 21.1161 57.0469 21.2383 56.9146C21.3605 56.7822 21.4283 56.6087 21.4283 56.4285C21.4283 56.2484 21.3605 56.0748 21.2383 55.9425C21.1161 55.8101 20.9485 55.7286 20.769 55.7142Z"
            fill="#0BCEB2" />
        <path
            d="M37.1426 55.7142H22.8569C22.6674 55.7142 22.4857 55.7895 22.3518 55.9234C22.2178 56.0574 22.1426 56.2391 22.1426 56.4285C22.1426 56.618 22.2178 56.7996 22.3518 56.9336C22.4857 57.0676 22.6674 57.1428 22.8569 57.1428H28.5497V57.8571H25.714C25.5246 57.8571 25.3429 57.9323 25.2089 58.0663C25.075 58.2003 24.9997 58.3819 24.9997 58.5714C24.9997 58.7608 25.075 58.9425 25.2089 59.0765C25.3429 59.2104 25.5246 59.2857 25.714 59.2857H34.6426C34.832 59.2857 35.0137 59.2104 35.1477 59.0765C35.2816 58.9425 35.3569 58.7608 35.3569 58.5714C35.3569 58.3819 35.2816 58.2003 35.1477 58.0663C35.0137 57.9323 34.832 57.8571 34.6426 57.8571H31.4497V57.1428H37.1426C37.332 57.1428 37.5137 57.0676 37.6477 56.9336C37.7816 56.7996 37.8569 56.618 37.8569 56.4285C37.8569 56.2391 37.7816 56.0574 37.6477 55.9234C37.5137 55.7895 37.332 55.7142 37.1426 55.7142Z"
            fill="#0BCEB2" />
        <path
            d="M53.8272 52.8571H37.9377C40.0393 52.0756 42.0145 50.9892 43.7999 49.6329C43.3927 49.3596 43.093 48.9534 42.9521 48.4836C38.7019 51.7206 33.3952 53.2517 28.0739 52.7762C22.7526 52.3007 17.8014 49.8529 14.1926 45.9135C10.5838 41.9742 8.5782 36.8279 8.56965 31.4855C8.5611 26.143 10.5502 20.9904 14.1464 17.0395L14.0474 18.5239C14.0412 18.6175 14.0535 18.7114 14.0835 18.8003C14.1136 18.8891 14.1609 18.9712 14.2227 19.0418C14.2844 19.1124 14.3595 19.1701 14.4436 19.2117C14.5277 19.2532 14.6191 19.2778 14.7127 19.2841C14.8063 19.2903 14.9002 19.278 14.9891 19.248C15.0779 19.2179 15.16 19.1706 15.2306 19.1089C15.3012 19.0471 15.3589 18.972 15.4005 18.8879C15.442 18.8038 15.4666 18.7124 15.4729 18.6188L15.7109 15.0474C15.7176 14.9458 15.7026 14.844 15.6668 14.7487C15.631 14.6534 15.5752 14.5669 15.5032 14.4949C15.4312 14.4229 15.3447 14.3672 15.2494 14.3313C15.1542 14.2955 15.0523 14.2805 14.9508 14.2872L11.3793 14.5252C11.2857 14.5315 11.1943 14.5561 11.1102 14.5977C11.0261 14.6392 10.951 14.6969 10.8893 14.7675C10.8275 14.8381 10.7802 14.9202 10.7502 15.009C10.7201 15.0979 10.7078 15.1918 10.7141 15.2854C10.7203 15.379 10.7449 15.4704 10.7865 15.5545C10.828 15.6386 10.8858 15.7137 10.9563 15.7755C11.0269 15.8372 11.109 15.8845 11.1978 15.9146C11.2867 15.9446 11.3806 15.9569 11.4742 15.9507L13.3161 15.8279C10.7403 18.5756 8.88411 21.9179 7.91304 25.5569C6.94196 29.1958 6.88614 33.0185 7.75053 36.6843C8.61493 40.3501 10.3727 43.7451 12.8672 46.5669C15.3617 49.3887 18.5156 51.5496 22.0476 52.8571H6.16916C6.06754 52.8438 5.96426 52.8523 5.86621 52.8822C5.76817 52.912 5.67761 52.9624 5.6006 53.03C5.52358 53.0976 5.46188 53.1809 5.41961 53.2742C5.37733 53.3676 5.35547 53.4689 5.35547 53.5714C5.35547 53.6738 5.37733 53.7751 5.41961 53.8685C5.46188 53.9618 5.52358 54.0451 5.6006 54.1127C5.67761 54.1803 5.76817 54.2307 5.86621 54.2605C5.96426 54.2904 6.06754 54.2989 6.16916 54.2856H53.8272C53.9289 54.2989 54.0321 54.2904 54.1302 54.2605C54.2282 54.2307 54.3188 54.1803 54.3958 54.1127C54.4728 54.0451 54.5345 53.9618 54.5768 53.8685C54.6191 53.7751 54.6409 53.6738 54.6409 53.5714C54.6409 53.4689 54.6191 53.3676 54.5768 53.2742C54.5345 53.1809 54.4728 53.0976 54.3958 53.03C54.3188 52.9624 54.2282 52.912 54.1302 52.8822C54.0321 52.8523 53.9289 52.8438 53.8272 52.8571Z"
            fill="#2D4356" />
        <path
            d="M3.02832 6.05716C3.24023 6.05758 3.4475 5.99514 3.62393 5.87776C3.80035 5.76037 3.938 5.5933 4.01948 5.39768C4.10096 5.20207 4.12259 4.98668 4.08166 4.77876C4.04072 4.57084 3.93905 4.37974 3.7895 4.2296C3.63995 4.07947 3.44924 3.97705 3.24149 3.9353C3.03373 3.89356 2.81826 3.91435 2.62233 3.99507C2.42639 4.07578 2.25879 4.21278 2.14071 4.38874C2.02264 4.56471 1.9594 4.77174 1.95898 4.98364C1.95876 5.26771 2.07121 5.54026 2.27168 5.74151C2.47215 5.94276 2.74426 6.05628 3.02832 6.05716ZM3.03146 4.45002C3.13741 4.45023 3.24092 4.48185 3.32891 4.54088C3.41689 4.59992 3.48539 4.68372 3.52575 4.78169C3.5661 4.87966 3.5765 4.98739 3.55563 5.09127C3.53476 5.19515 3.48355 5.2905 3.40848 5.36528C3.33341 5.44005 3.23786 5.49089 3.1339 5.51136C3.02994 5.53182 2.92225 5.52101 2.82444 5.48027C2.72663 5.43953 2.6431 5.3707 2.5844 5.28249C2.52571 5.19428 2.49449 5.09064 2.4947 4.98469C2.49512 4.84265 2.55187 4.70659 2.6525 4.60635C2.75313 4.50611 2.88942 4.44988 3.03146 4.45002Z"
            fill="#2D4356" />
        <path
            d="M57.327 15.0023C57.1857 15.002 57.0476 15.0437 56.9299 15.1219C56.8123 15.2002 56.7206 15.3116 56.6662 15.442C56.6119 15.5724 56.5975 15.716 56.6248 15.8546C56.6521 15.9932 56.7199 16.1206 56.8196 16.2207C56.9193 16.3208 57.0464 16.3891 57.1849 16.4169C57.3234 16.4447 57.467 16.4309 57.5977 16.3771C57.7283 16.3232 57.84 16.2319 57.9187 16.1146C57.9975 15.9973 58.0396 15.8593 58.0399 15.718C58.0401 15.5286 57.9651 15.3469 57.8314 15.2128C57.6978 15.0786 57.5164 15.0029 57.327 15.0023ZM57.3249 16.0737C57.2543 16.0736 57.1853 16.0525 57.1266 16.0132C57.068 15.9738 57.0223 15.9179 56.9954 15.8526C56.9685 15.7873 56.9616 15.7155 56.9755 15.6462C56.9894 15.577 57.0235 15.5134 57.0736 15.4636C57.1236 15.4137 57.1873 15.3798 57.2566 15.3662C57.3259 15.3525 57.3977 15.3598 57.4629 15.3869C57.5281 15.4141 57.5838 15.46 57.623 15.5188C57.6621 15.5776 57.6829 15.6467 57.6828 15.7173C57.6825 15.812 57.6446 15.9027 57.5775 15.9695C57.5105 16.0364 57.4196 16.0738 57.3249 16.0737Z"
            fill="#2D4356" />
        <path
            d="M40.6532 3.09485C40.5119 3.09457 40.3737 3.1362 40.2561 3.21445C40.1385 3.29271 40.0467 3.40409 39.9924 3.5345C39.9381 3.66491 39.9237 3.8085 39.951 3.94712C39.9782 4.08573 40.046 4.21313 40.1457 4.31322C40.2454 4.41331 40.3726 4.48159 40.5111 4.50942C40.6496 4.53725 40.7932 4.52339 40.9238 4.46958C41.0545 4.41577 41.1662 4.32444 41.2449 4.20713C41.3236 4.08982 41.3658 3.9518 41.3661 3.81053C41.3662 3.62115 41.2913 3.43945 41.1576 3.30528C41.024 3.17112 40.8426 3.09544 40.6532 3.09485ZM40.6511 4.16628C40.5805 4.16614 40.5114 4.14506 40.4528 4.1057C40.3941 4.06634 40.3485 4.01047 40.3216 3.94516C40.2947 3.87985 40.2877 3.80802 40.3016 3.73877C40.3156 3.66952 40.3497 3.60595 40.3997 3.5561C40.4498 3.50625 40.5135 3.47236 40.5828 3.45872C40.6521 3.44508 40.7239 3.45229 40.7891 3.47945C40.8543 3.50661 40.91 3.5525 40.9491 3.61131C40.9883 3.67012 41.0091 3.73921 41.0089 3.80985C41.0086 3.90454 40.9708 3.99524 40.9037 4.06207C40.8366 4.12889 40.7458 4.16637 40.6511 4.16628Z"
            fill="#2D4356" />
        <path
            d="M56.1044 0.714235C55.9631 0.713959 55.8249 0.755581 55.7073 0.833838C55.5897 0.912096 55.4979 1.02347 55.4436 1.15389C55.3893 1.2843 55.3748 1.42789 55.4021 1.5665C55.4294 1.70511 55.4972 1.83252 55.5969 1.93261C55.6966 2.0327 55.8237 2.10098 55.9622 2.12881C56.1007 2.15664 56.2444 2.14277 56.375 2.08897C56.5056 2.03516 56.6174 1.94382 56.6961 1.82651C56.7748 1.7092 56.817 1.57119 56.8172 1.42991C56.8174 1.24054 56.7424 1.05884 56.6088 0.924669C56.4751 0.7905 56.2937 0.714821 56.1044 0.714235ZM56.1023 1.78566C56.0316 1.78553 55.9626 1.76444 55.904 1.72509C55.8453 1.68573 55.7996 1.62986 55.7727 1.56455C55.7458 1.49923 55.7389 1.42741 55.7528 1.35816C55.7667 1.2889 55.8009 1.22533 55.8509 1.17548C55.901 1.12564 55.9647 1.09175 56.034 1.0781C56.1033 1.06446 56.1751 1.07168 56.2403 1.09884C56.3055 1.126 56.3612 1.17188 56.4003 1.2307C56.4394 1.28951 56.4602 1.3586 56.4601 1.42923C56.4598 1.52392 56.422 1.61463 56.3549 1.68145C56.2878 1.74828 56.1969 1.78575 56.1023 1.78566Z"
            fill="#2D4356" />
        <path
            d="M18.8544 9.95701C18.8546 9.81574 18.813 9.67756 18.7347 9.55994C18.6565 9.44233 18.5451 9.35056 18.4147 9.29624C18.2843 9.24192 18.1407 9.2275 18.0021 9.25479C17.8635 9.28208 17.7361 9.34986 17.636 9.44956C17.5359 9.54926 17.4676 9.6764 17.4398 9.8149C17.4119 9.95341 17.4258 10.0971 17.4796 10.2277C17.5334 10.3583 17.6248 10.47 17.7421 10.5488C17.8594 10.6275 17.9974 10.6696 18.1387 10.6699C18.328 10.6701 18.5097 10.5951 18.6439 10.4614C18.7781 10.3278 18.8538 10.1464 18.8544 9.95701ZM17.7829 9.95492C17.7831 9.88429 17.8041 9.81528 17.8435 9.75662C17.8829 9.69797 17.9387 9.6523 18.004 9.6254C18.0694 9.59849 18.1412 9.59156 18.2104 9.60548C18.2797 9.6194 18.3433 9.65354 18.3931 9.70358C18.443 9.75363 18.4768 9.81733 18.4905 9.88664C18.5041 9.95595 18.4969 10.0277 18.4698 10.0929C18.4426 10.1582 18.3967 10.2138 18.3379 10.253C18.2791 10.2921 18.21 10.3129 18.1394 10.3128C18.0447 10.3125 17.954 10.2746 17.8871 10.2076C17.8203 10.1405 17.7828 10.0496 17.7829 9.95492Z"
            fill="#2D4356" />
        <path
            d="M3.23482 17.6236L3.76696 16.9261L3.43196 16.7354L3.08982 17.5168H3.07839L2.73375 16.7396L2.39196 16.9346L2.91625 17.6175V17.6286L2.09482 17.5207L2.09375 17.9007L2.92125 17.7961V17.8075L2.38911 18.4879L2.70696 18.69L3.07196 17.9025H3.08304L3.41696 18.6857L3.76946 18.485L3.23411 17.8136L3.23446 17.8021L4.07768 17.9046L4.07839 17.5246L3.23446 17.6346L3.23482 17.6236Z"
            fill="#0BCEB2" />
        <path
            d="M23.2287 1.60323L22.922 1.99537L23.1052 2.11144L23.3155 1.65823H23.3216L23.5141 2.10894L23.717 1.99358L23.4087 1.6068V1.60037L23.8945 1.6593L23.8948 1.44037L23.4091 1.50394V1.49751L23.7155 1.09573L23.5227 0.986084L23.3255 1.43608H23.3191L23.1205 0.988584L22.9237 1.10073L23.2255 1.49394V1.50037L22.7527 1.43823L22.752 1.65716L23.2287 1.5968V1.60323Z"
            fill="#0BCEB2" />
        <path
            d="M51.6492 8.66143L51.6499 8.28858L50.8221 8.39679L50.8224 8.38572L51.3446 7.70179L51.016 7.51465L50.6799 8.28143L50.6688 8.28108L50.3306 7.51893L49.9956 7.71001L50.5099 8.37965V8.39072L49.7042 8.28501L49.7031 8.65751L50.5149 8.55536V8.56608L49.9928 9.23358L50.3046 9.43179L50.6628 8.65929L50.6735 8.65965L51.001 9.42751L51.3467 9.23108L50.8217 8.57215L50.8221 8.56108L51.6492 8.66143Z"
            fill="#0BCEB2" />
        <path
            d="M33.4087 5.82577L33.8591 5.23541L33.5755 5.07434L33.2859 5.73541H33.2762L32.9848 5.07791L32.6955 5.24256L33.1391 5.82041V5.83005L32.4441 5.73863L32.4434 6.06006L33.1434 5.97184V5.98113L32.693 6.55684L32.9623 6.72791L33.2712 6.06184H33.2805L33.5626 6.72434L33.8612 6.5547L33.4084 5.98648V5.97684L34.1219 6.06327L34.1226 5.74184L33.4087 5.83505V5.82577Z"
            fill="#0BCEB2" />
    </g>
    <defs>
        <clipPath id="clip0_715_32236">
            <rect width="60" height="60" fill="white" />
        </clipPath>
    </defs>
</svg>