<svg width="60" height="60" viewBox="0 0 60 60" fill="none" xmlns="http://www.w3.org/2000/svg">
<g clip-path="url(#clip0_2_6903)">
<path d="M48.5225 46.9063L46.6737 47.0296C50.5897 42.8525 52.7939 37.357 52.8496 31.6316C52.9053 25.9063 50.8084 20.3689 46.9744 16.1165C43.1403 11.8641 37.8489 9.20693 32.1484 8.67144C26.4479 8.13595 20.7542 9.7612 16.1953 13.2252C16.6044 13.4964 16.905 13.9029 17.0446 14.3734C21.2944 11.1361 26.601 9.60458 31.9223 10.0798C37.2435 10.555 42.1948 13.0025 45.8037 16.9417C49.4126 20.8808 51.4184 26.027 51.427 31.3694C51.4357 36.7118 49.4466 41.8644 45.8504 45.8152L45.9492 44.3331C45.9618 44.1441 45.8988 43.9578 45.774 43.8152C45.7122 43.7447 45.6372 43.6869 45.5531 43.6454C45.469 43.6038 45.3775 43.5792 45.2839 43.5729C45.0949 43.5604 44.9086 43.6234 44.7661 43.7482C44.6235 43.8729 44.5364 44.0492 44.5238 44.2382L44.2857 47.8097C44.279 47.9112 44.2941 48.0131 44.3299 48.1083C44.3657 48.2036 44.4215 48.2901 44.4934 48.3621C44.5654 48.4341 44.6519 48.4899 44.7472 48.5257C44.8425 48.5615 44.9443 48.5765 45.0459 48.5698L48.6173 48.3318C48.8063 48.3192 48.9826 48.232 49.1074 48.0895C49.2322 47.9469 49.2952 47.7607 49.2826 47.5716C49.27 47.3826 49.1829 47.2063 49.0403 47.0816C48.8978 46.9568 48.7115 46.8938 48.5225 46.9063Z" fill="#2D4356"/>
<path d="M29.9978 23.5713C28.4438 23.5713 26.9247 24.0321 25.6326 24.8955C24.3405 25.7588 23.3334 26.9859 22.7387 28.4216C22.144 29.8573 21.9884 31.4371 22.2916 32.9613C22.5948 34.4854 23.3431 35.8854 24.4419 36.9843C25.5408 38.0831 26.9408 38.8314 28.4649 39.1346C29.9891 39.4378 31.5689 39.2822 33.0046 38.6875C34.4403 38.0928 35.6674 37.0857 36.5307 35.7936C37.3941 34.5015 37.8549 32.9824 37.8549 31.4284C37.8526 29.3453 37.024 27.3482 35.551 25.8752C34.078 24.4022 32.0809 23.5736 29.9978 23.5713ZM29.9978 37.857C28.7263 37.857 27.4834 37.48 26.4262 36.7736C25.3691 36.0672 24.5451 35.0632 24.0585 33.8885C23.572 32.7139 23.4447 31.4213 23.6927 30.1743C23.9408 28.9273 24.553 27.7818 25.4521 26.8827C26.3511 25.9837 27.4966 25.3714 28.7436 25.1234C29.9906 24.8753 31.2832 25.0026 32.4579 25.4892C33.6325 25.9758 34.6366 26.7997 35.3429 27.8569C36.0493 28.9141 36.4263 30.157 36.4263 31.4284C36.4244 33.1328 35.7465 34.7668 34.5413 35.972C33.3362 37.1772 31.7021 37.8551 29.9978 37.857Z" fill="#4C7DA7"/>
<path d="M29.2369 21.8441C29.2619 21.8441 29.2868 21.8428 29.3117 21.8402C29.6595 21.8042 30.009 21.7861 30.3587 21.786C30.5481 21.786 30.7298 21.7107 30.8638 21.5768C30.9977 21.4428 31.073 21.2611 31.073 21.0717C31.073 20.8823 30.9977 20.7006 30.8638 20.5666C30.7298 20.4327 30.5481 20.3574 30.3587 20.3574C29.9596 20.3574 29.5608 20.3781 29.1638 20.4193C28.9818 20.4383 28.8141 20.5263 28.6951 20.6653C28.5761 20.8043 28.515 20.9836 28.5244 21.1664C28.5337 21.3491 28.6129 21.5212 28.7454 21.6473C28.878 21.7734 29.0539 21.8438 29.2369 21.8441Z" fill="#4C7DA7"/>
<path d="M26.7289 22.4648C26.8163 22.4308 26.8962 22.3799 26.964 22.315C27.0318 22.2501 27.0861 22.1725 27.1239 22.0866C27.1617 22.0007 27.1821 21.9082 27.1841 21.8144C27.1861 21.7206 27.1696 21.6273 27.1356 21.5398C27.1015 21.4524 27.0505 21.3725 26.9856 21.3048C26.9206 21.2371 26.843 21.1828 26.757 21.1451C26.6711 21.1074 26.5786 21.087 26.4847 21.0851C26.3909 21.0832 26.2976 21.0998 26.2102 21.1339C24.0596 21.9616 22.2115 23.4237 20.9112 25.3262C19.6109 27.2287 18.9199 29.4816 18.9298 31.7859C18.9298 31.9754 19.005 32.1571 19.139 32.291C19.273 32.425 19.4546 32.5002 19.6441 32.5002C19.8335 32.5002 20.0152 32.425 20.1492 32.291C20.2831 32.1571 20.3584 31.9754 20.3584 31.7859C20.3497 29.7695 20.9543 27.7981 22.0921 26.1334C23.2299 24.4686 24.847 23.1892 26.7289 22.4648Z" fill="#4C7DA7"/>
<path d="M42.5593 38.3291C43.0653 37.4096 43.468 36.437 43.7603 35.4291H45.4921C45.9304 35.4285 46.3505 35.2542 46.6604 34.9443C46.9703 34.6343 47.1446 34.2142 47.1451 33.7759V29.0821C47.1446 28.6438 46.9703 28.2236 46.6604 27.9137C46.3505 27.6038 45.9304 27.4294 45.4921 27.4289H43.7603C43.468 26.4209 43.0653 25.4483 42.5593 24.5289L43.7836 23.3043C44.0931 22.9941 44.267 22.5737 44.267 22.1355C44.267 21.6973 44.0931 21.2769 43.7836 20.9667L40.4645 17.6474C40.1542 17.338 39.7339 17.1642 39.2957 17.1642C38.8574 17.1643 38.4371 17.3381 38.1269 17.6476L36.9023 18.872C35.9829 18.366 35.0103 17.9632 34.0023 17.671V15.9391C34.0018 15.5009 33.8274 15.0807 33.5175 14.7708C33.2076 14.4609 32.7874 14.2866 32.3491 14.2861H27.6553C27.2171 14.2866 26.7969 14.4609 26.4869 14.7708C26.177 15.0807 26.0027 15.5009 26.0022 15.9391V17.671C24.9942 17.9632 24.0216 18.366 23.1021 18.872L21.8776 17.6476C21.5674 17.338 21.147 17.1641 20.7088 17.1641C20.2705 17.1641 19.8501 17.338 19.5399 17.6476L16.2207 20.9667C15.9112 21.277 15.7375 21.6973 15.7375 22.1356C15.7375 22.5738 15.9114 22.9941 16.2208 23.3043L17.4452 24.5289C16.9392 25.4483 16.5364 26.4209 16.2442 27.4289H14.5124C14.0741 27.4294 13.6539 27.6038 13.344 27.9137C13.0342 28.2236 12.8598 28.6438 12.8594 29.0821V33.7759C12.8598 34.2142 13.0341 34.6343 13.344 34.9443C13.6539 35.2542 14.0741 35.4285 14.5124 35.4291H16.2442C16.5364 36.4371 16.9392 37.4096 17.4452 38.3291L16.2207 39.5535C15.9113 39.8638 15.7375 40.2842 15.7376 40.7224C15.7376 41.1606 15.9114 41.581 16.2208 41.8913L19.5399 45.2106C19.8502 45.52 20.2706 45.6938 20.7088 45.6937C21.147 45.6937 21.5673 45.5199 21.8776 45.2104L23.1021 43.986C24.0216 44.492 24.9942 44.8948 26.0022 45.187V46.9188C26.0027 47.3571 26.177 47.7773 26.487 48.0872C26.7969 48.3971 27.2171 48.5714 27.6553 48.5718H32.3491C32.7874 48.5714 33.2076 48.3971 33.5175 48.0872C33.8274 47.7773 34.0018 47.3571 34.0023 46.9188V45.187C35.0103 44.8948 35.9829 44.492 36.9023 43.986L38.1269 45.2104C38.4372 45.5199 38.8575 45.6936 39.2957 45.6936C39.7339 45.6936 40.1543 45.5199 40.4645 45.2104L43.7838 41.8913C44.0932 41.5809 44.2669 41.1606 44.2669 40.7223C44.2669 40.2841 44.0931 39.8638 43.7836 39.5535L42.5593 38.3291ZM42.7736 40.8812L39.4545 44.2002C39.4124 44.2422 39.3553 44.2659 39.2957 44.2659C39.2362 44.2659 39.1791 44.2424 39.1369 44.2003L37.5252 42.5887C37.4124 42.4759 37.2651 42.4041 37.1067 42.3848C36.9483 42.3654 36.7881 42.3996 36.6514 42.4819C35.553 43.1444 34.3612 43.638 33.1161 43.9461C32.9612 43.9845 32.8237 44.0736 32.7254 44.1993C32.6271 44.325 32.5737 44.4799 32.5737 44.6394V46.9188C32.5736 46.9784 32.5499 47.0354 32.5078 47.0775C32.4657 47.1196 32.4086 47.1432 32.3491 47.1433H27.6553C27.5958 47.1432 27.5387 47.1196 27.4966 47.0775C27.4545 47.0354 27.4308 46.9784 27.4307 46.9188V44.6394C27.4307 44.4799 27.3774 44.3249 27.2791 44.1993C27.1808 44.0736 27.0432 43.9845 26.8884 43.9461C25.6432 43.6379 24.4515 43.1444 23.3531 42.4819C23.2164 42.3996 23.0561 42.3653 22.8977 42.3847C22.7394 42.404 22.592 42.4758 22.4792 42.5887L20.8675 44.2003C20.8254 44.2424 20.7683 44.266 20.7088 44.266C20.6492 44.266 20.5921 44.2424 20.55 44.2003L17.231 40.8812C17.189 40.8391 17.1654 40.782 17.1654 40.7224C17.1653 40.6629 17.1889 40.6057 17.2309 40.5635L18.8426 38.952C18.9554 38.8392 19.0272 38.6919 19.0466 38.5335C19.0659 38.3751 19.0317 38.2148 18.9493 38.0782C18.2868 36.9797 17.7933 35.788 17.4851 34.5428C17.4467 34.388 17.3576 34.2504 17.2319 34.1522C17.1063 34.0539 16.9513 34.0005 16.7918 34.0005H14.5124C14.4529 34.0004 14.3958 33.9767 14.3537 33.9346C14.3116 33.8925 14.288 33.8354 14.2879 33.7759V29.0821C14.288 29.0226 14.3116 28.9655 14.3537 28.9234C14.3958 28.8813 14.4529 28.8576 14.5124 28.8575H16.7918C16.9513 28.8575 17.1063 28.8041 17.2319 28.7058C17.3576 28.6075 17.4467 28.47 17.4851 28.3152C17.7933 27.07 18.2868 25.8782 18.9493 24.7798C19.0317 24.6432 19.0659 24.4829 19.0466 24.3245C19.0272 24.1661 18.9554 24.0188 18.8426 23.906L17.2309 22.2943C17.1889 22.2521 17.1654 22.195 17.1654 22.1355C17.1654 22.076 17.1889 22.0189 17.2309 21.9767L20.55 18.6578C20.5922 18.6159 20.6492 18.5924 20.7087 18.5923C20.7682 18.5923 20.8253 18.6158 20.8675 18.6576L22.4792 20.2693C22.592 20.3821 22.7394 20.4539 22.8977 20.4732C23.0561 20.4926 23.2164 20.4584 23.3531 20.376C24.4515 19.7136 25.6432 19.22 26.8884 18.9119C27.0432 18.8735 27.1808 18.7843 27.2791 18.6587C27.3774 18.533 27.4308 18.3781 27.4307 18.2185V15.9391C27.4308 15.8796 27.4545 15.8226 27.4966 15.7805C27.5387 15.7384 27.5958 15.7147 27.6553 15.7147H32.3491C32.4086 15.7147 32.4657 15.7384 32.5078 15.7805C32.5499 15.8225 32.5736 15.8796 32.5737 15.9391V18.2185C32.5737 18.3781 32.6271 18.533 32.7254 18.6587C32.8237 18.7844 32.9612 18.8735 33.1161 18.9119C34.3612 19.22 35.553 19.7136 36.6514 20.376C36.7881 20.4583 36.9484 20.4925 37.1067 20.4731C37.265 20.4538 37.4124 20.382 37.5253 20.2693L39.1369 18.6576C39.1792 18.6158 39.2362 18.5922 39.2957 18.5922C39.3552 18.5922 39.4123 18.6158 39.4545 18.6576L42.7734 21.9767C42.8154 22.0189 42.8391 22.076 42.8391 22.1355C42.8391 22.195 42.8156 22.2521 42.7736 22.2943L41.1619 23.906C41.0491 24.0188 40.9772 24.1661 40.9579 24.3245C40.9385 24.4829 40.9728 24.6432 41.0552 24.7798C41.7176 25.8782 42.2112 27.07 42.5193 28.3152C42.5577 28.47 42.6469 28.6075 42.7725 28.7058C42.8982 28.8041 43.0532 28.8575 43.2127 28.8575H45.4921C45.5516 28.8576 45.6087 28.8813 45.6507 28.9234C45.6928 28.9655 45.7165 29.0226 45.7165 29.0821V33.7759C45.7165 33.8354 45.6928 33.8925 45.6507 33.9346C45.6087 33.9767 45.5516 34.0004 45.4921 34.0005H43.2127C43.0531 34.0005 42.8982 34.0539 42.7725 34.1522C42.6469 34.2504 42.5577 34.388 42.5193 34.5428C42.2112 35.788 41.7176 36.9797 41.0552 38.0782C40.9728 38.2148 40.9385 38.3751 40.9579 38.5335C40.9772 38.6919 41.049 38.8392 41.1619 38.952L42.7734 40.5635C42.8154 40.6057 42.839 40.6628 42.8391 40.7223C42.8391 40.7819 42.8156 40.839 42.7736 40.8812Z" fill="#2D4356"/>
<path d="M0.714286 54.286C1.10877 54.286 1.42857 53.9662 1.42857 53.5717C1.42857 53.1772 1.10877 52.8574 0.714286 52.8574C0.319797 52.8574 0 53.1772 0 53.5717C0 53.9662 0.319797 54.286 0.714286 54.286Z" fill="#2D4356"/>
<path d="M3.92634 52.8574H2.85491C2.66547 52.8574 2.48379 52.9327 2.34983 53.0666C2.21588 53.2006 2.14063 53.3823 2.14062 53.5717C2.14063 53.7611 2.21588 53.9428 2.34983 54.0768C2.48379 54.2107 2.66547 54.286 2.85491 54.286H3.92634C4.11578 54.286 4.29746 54.2107 4.43142 54.0768C4.56537 53.9428 4.64062 53.7611 4.64062 53.5717C4.64062 53.3823 4.56537 53.2006 4.43142 53.0666C4.29746 52.9327 4.11578 52.8574 3.92634 52.8574Z" fill="#2D4356"/>
<path d="M57.1451 52.8574H56.0737C55.8842 52.8574 55.7025 52.9327 55.5686 53.0666C55.4346 53.2006 55.3594 53.3823 55.3594 53.5717C55.3594 53.7611 55.4346 53.9428 55.5686 54.0768C55.7025 54.2107 55.8842 54.286 56.0737 54.286H57.1451C57.3345 54.286 57.5162 54.2107 57.6502 54.0768C57.7841 53.9428 57.8594 53.7611 57.8594 53.5717C57.8594 53.3823 57.7841 53.2006 57.6502 53.0666C57.5162 52.9327 57.3345 52.8574 57.1451 52.8574Z" fill="#2D4356"/>
<path d="M59.2846 54.286C59.6791 54.286 59.9989 53.9662 59.9989 53.5717C59.9989 53.1772 59.6791 52.8574 59.2846 52.8574C58.8901 52.8574 58.5703 53.1772 58.5703 53.5717C58.5703 53.9662 58.8901 54.286 59.2846 54.286Z" fill="#2D4356"/>
<path d="M42.1967 55.7139H39.2297C39.0501 55.7283 38.8825 55.8097 38.7603 55.9421C38.6382 56.0745 38.5703 56.248 38.5703 56.4282C38.5703 56.6083 38.6382 56.7818 38.7603 56.9142C38.8825 57.0466 39.0501 57.1281 39.2297 57.1424H42.1967C42.3763 57.1281 42.5438 57.0466 42.666 56.9142C42.7882 56.7818 42.856 56.6083 42.856 56.4282C42.856 56.248 42.7882 56.0745 42.666 55.9421C42.5438 55.8097 42.3763 55.7283 42.1967 55.7139Z" fill="#4C7DA7"/>
<path d="M20.767 55.7139H17.8C17.6204 55.7283 17.4528 55.8097 17.3307 55.9421C17.2085 56.0745 17.1406 56.248 17.1406 56.4282C17.1406 56.6083 17.2085 56.7818 17.3307 56.9142C17.4528 57.0466 17.6204 57.1281 17.8 57.1424H20.767C20.9466 57.1281 21.1141 57.0466 21.2363 56.9142C21.3585 56.7818 21.4264 56.6083 21.4264 56.4282C21.4264 56.248 21.3585 56.0745 21.2363 55.9421C21.1141 55.8097 20.9466 55.7283 20.767 55.7139Z" fill="#4C7DA7"/>
<path d="M37.1406 55.7139H22.8549C22.6655 55.7139 22.4838 55.7891 22.3498 55.9231C22.2159 56.057 22.1406 56.2387 22.1406 56.4282C22.1406 56.6176 22.2159 56.7993 22.3498 56.9332C22.4838 57.0672 22.6655 57.1424 22.8549 57.1424H28.5478V57.8567H25.7121C25.5226 57.8567 25.3409 57.932 25.207 58.0659C25.073 58.1999 24.9978 58.3816 24.9978 58.571C24.9978 58.7605 25.073 58.9421 25.207 59.0761C25.3409 59.21 25.5226 59.2853 25.7121 59.2853H34.6406C34.8301 59.2853 35.0117 59.21 35.1457 59.0761C35.2797 58.9421 35.3549 58.7605 35.3549 58.571C35.3549 58.3816 35.2797 58.1999 35.1457 58.0659C35.0117 57.932 34.8301 57.8567 34.6406 57.8567H31.4478V57.1424H37.1406C37.3301 57.1424 37.5117 57.0672 37.6457 56.9332C37.7797 56.7993 37.8549 56.6176 37.8549 56.4282C37.8549 56.2387 37.7797 56.057 37.6457 55.9231C37.5117 55.7891 37.3301 55.7139 37.1406 55.7139Z" fill="#4C7DA7"/>
<path d="M53.8311 52.8566H37.9416C40.0432 52.0751 42.0184 50.9887 43.8038 49.6324C43.3966 49.3592 43.0969 48.9529 42.956 48.4831C38.7058 51.7201 33.3991 53.2512 28.0778 52.7757C22.7565 52.3002 17.8053 49.8524 14.1965 45.913C10.5877 41.9737 8.58211 36.8274 8.57356 31.485C8.56501 26.1425 10.5541 20.9899 14.1503 17.039L14.0514 18.5234C14.0451 18.617 14.0574 18.7109 14.0875 18.7998C14.1175 18.8886 14.1648 18.9707 14.2266 19.0413C14.2883 19.1119 14.3634 19.1696 14.4475 19.2112C14.5316 19.2528 14.623 19.2774 14.7166 19.2836C14.8102 19.2898 14.9041 19.2775 14.993 19.2475C15.0818 19.2174 15.1639 19.1702 15.2345 19.1084C15.3051 19.0466 15.3628 18.9715 15.4044 18.8874C15.446 18.8033 15.4706 18.7119 15.4768 18.6183L15.7148 15.0469C15.7216 14.9453 15.7065 14.8435 15.6707 14.7482C15.6349 14.6529 15.5791 14.5664 15.5071 14.4944C15.4351 14.4224 15.3486 14.3667 15.2533 14.3309C15.1581 14.295 15.0562 14.28 14.9547 14.2867L11.3832 14.5248C11.2896 14.531 11.1982 14.5556 11.1141 14.5972C11.03 14.6387 10.9549 14.6965 10.8932 14.767C10.8314 14.8376 10.7841 14.9197 10.7541 15.0086C10.724 15.0974 10.7117 15.1913 10.718 15.2849C10.7242 15.3785 10.7488 15.47 10.7904 15.554C10.8319 15.6381 10.8897 15.7132 10.9602 15.775C11.0308 15.8368 11.1129 15.884 11.2018 15.9141C11.2906 15.9442 11.3845 15.9564 11.4781 15.9502L13.32 15.8274C10.7442 18.5751 8.88802 21.9174 7.91694 25.5564C6.94587 29.1953 6.89004 33.018 7.75444 36.6838C8.61883 40.3496 10.3766 43.7446 12.8711 46.5664C15.3657 49.3882 18.5195 51.5491 22.0515 52.8566H6.17306C6.07145 52.8433 5.96816 52.8519 5.87012 52.8817C5.77207 52.9115 5.68152 52.9619 5.6045 53.0295C5.52749 53.0971 5.46578 53.1804 5.42351 53.2737C5.38124 53.3671 5.35938 53.4684 5.35938 53.5709C5.35938 53.6733 5.38124 53.7746 5.42351 53.868C5.46578 53.9614 5.52749 54.0446 5.6045 54.1122C5.68152 54.1798 5.77207 54.2302 5.87012 54.2601C5.96816 54.2899 6.07145 54.2984 6.17306 54.2852H53.8311C53.9328 54.2984 54.036 54.2899 54.1341 54.2601C54.2321 54.2302 54.3227 54.1798 54.3997 54.1122C54.4767 54.0446 54.5384 53.9614 54.5807 53.868C54.623 53.7746 54.6448 53.6733 54.6448 53.5709C54.6448 53.4684 54.623 53.3671 54.5807 53.2737C54.5384 53.1804 54.4767 53.0971 54.3997 53.0295C54.3227 52.9619 54.2321 52.9115 54.1341 52.8817C54.036 52.8519 53.9328 52.8433 53.8311 52.8566Z" fill="#2D4356"/>
<path d="M3.03027 6.05692C3.24218 6.05733 3.44945 5.9949 3.62588 5.87751C3.8023 5.76013 3.93996 5.59306 4.02143 5.39744C4.10291 5.20182 4.12455 4.98643 4.08361 4.77852C4.04268 4.5706 3.941 4.37949 3.79146 4.22936C3.64191 4.07922 3.4512 3.97681 3.24344 3.93506C3.03568 3.89331 2.82021 3.91411 2.62428 3.99482C2.42834 4.07553 2.26074 4.21253 2.14267 4.3885C2.02459 4.56447 1.96135 4.77149 1.96094 4.9834C1.96071 5.26746 2.07316 5.54001 2.27363 5.74127C2.4741 5.94252 2.74621 6.05604 3.03027 6.05692ZM3.03341 4.44978C3.13936 4.44998 3.24288 4.4816 3.33086 4.54064C3.41884 4.59968 3.48734 4.68348 3.5277 4.78144C3.56806 4.87941 3.57845 4.98715 3.55758 5.09102C3.53671 5.1949 3.4855 5.29026 3.41043 5.36503C3.33537 5.43981 3.23981 5.49064 3.13586 5.51111C3.0319 5.53158 2.9242 5.52076 2.82639 5.48002C2.72858 5.43929 2.64505 5.37046 2.58636 5.28225C2.52766 5.19404 2.49645 5.0904 2.49665 4.98445C2.49707 4.84241 2.55382 4.70634 2.65445 4.6061C2.75508 4.50586 2.89137 4.44964 3.03341 4.44978Z" fill="#2D4356"/>
<path d="M57.329 15.002C57.1877 15.0017 57.0495 15.0433 56.9319 15.1216C56.8143 15.1998 56.7225 15.3112 56.6682 15.4416C56.6139 15.572 56.5994 15.7156 56.6267 15.8542C56.654 15.9928 56.7218 16.1202 56.8215 16.2203C56.9212 16.3204 57.0483 16.3887 57.1868 16.4165C57.3254 16.4444 57.469 16.4305 57.5996 16.3767C57.7302 16.3229 57.842 16.2315 57.9207 16.1142C57.9994 15.9969 58.0416 15.8589 58.0419 15.7176C58.042 15.5283 57.967 15.3466 57.8334 15.2124C57.6997 15.0782 57.5183 15.0025 57.329 15.002ZM57.3269 16.0734C57.2562 16.0732 57.1872 16.0522 57.1286 16.0128C57.0699 15.9734 57.0242 15.9176 56.9973 15.8523C56.9704 15.787 56.9635 15.7151 56.9774 15.6459C56.9913 15.5766 57.0255 15.5131 57.0755 15.4632C57.1256 15.4134 57.1893 15.3795 57.2586 15.3658C57.3279 15.3522 57.3997 15.3594 57.4649 15.3866C57.5301 15.4137 57.5858 15.4596 57.6249 15.5184C57.664 15.5772 57.6849 15.6463 57.6847 15.717C57.6844 15.8116 57.6466 15.9023 57.5795 15.9692C57.5124 16.036 57.4216 16.0735 57.3269 16.0734Z" fill="#2D4356"/>
<path d="M40.6571 3.09473C40.5158 3.09445 40.3776 3.13607 40.26 3.21433C40.1424 3.29259 40.0506 3.40397 39.9963 3.53438C39.942 3.66479 39.9276 3.80838 39.9549 3.94699C39.9822 4.08561 40.0499 4.21301 40.1496 4.3131C40.2493 4.41319 40.3765 4.48147 40.515 4.5093C40.6535 4.53713 40.7971 4.52327 40.9277 4.46946C41.0584 4.41565 41.1701 4.32432 41.2488 4.20701C41.3275 4.0897 41.3697 3.95168 41.37 3.81041C41.3701 3.62103 41.2952 3.43933 41.1615 3.30516C41.0279 3.17099 40.8465 3.09531 40.6571 3.09473ZM40.655 4.16616C40.5844 4.16602 40.5154 4.14494 40.4567 4.10558C40.398 4.06622 40.3524 4.01035 40.3255 3.94504C40.2986 3.87973 40.2916 3.8079 40.3056 3.73865C40.3195 3.6694 40.3536 3.60583 40.4037 3.55598C40.4537 3.50613 40.5174 3.47224 40.5867 3.4586C40.656 3.44495 40.7278 3.45217 40.793 3.47933C40.8582 3.50649 40.9139 3.55238 40.953 3.61119C40.9922 3.67 41.013 3.73909 41.0128 3.80973C41.0126 3.90442 40.9747 3.99512 40.9076 4.06194C40.8405 4.12877 40.7497 4.16625 40.655 4.16616Z" fill="#2D4356"/>
<path d="M56.1063 0.713869C55.965 0.713593 55.8269 0.755215 55.7092 0.833472C55.5916 0.911729 55.4998 1.02311 55.4455 1.15352C55.3912 1.28393 55.3768 1.42752 55.4041 1.56613C55.4314 1.70475 55.4991 1.83215 55.5988 1.93224C55.6985 2.03233 55.8257 2.10061 55.9642 2.12844C56.1027 2.15627 56.2463 2.14241 56.377 2.0886C56.5076 2.03479 56.6193 1.94346 56.698 1.82615C56.7768 1.70884 56.8189 1.57082 56.8192 1.42955C56.8193 1.24017 56.7444 1.05847 56.6107 0.924302C56.4771 0.790134 56.2957 0.714455 56.1063 0.713869ZM56.1042 1.7853C56.0336 1.78516 55.9646 1.76408 55.9059 1.72472C55.8473 1.68536 55.8016 1.62949 55.7747 1.56418C55.7478 1.49887 55.7409 1.42704 55.7548 1.35779C55.7687 1.28854 55.8028 1.22497 55.8529 1.17512C55.9029 1.12527 55.9666 1.09138 56.0359 1.07774C56.1052 1.06409 56.177 1.07131 56.2422 1.09847C56.3074 1.12563 56.3631 1.17152 56.4023 1.23033C56.4414 1.28914 56.4622 1.35823 56.4621 1.42887C56.4618 1.52356 56.4239 1.61427 56.3568 1.68109C56.2898 1.74791 56.1989 1.78539 56.1042 1.7853Z" fill="#2D4356"/>
<path d="M18.8583 9.95689C18.8585 9.81562 18.8169 9.67744 18.7387 9.55982C18.6604 9.4422 18.549 9.35044 18.4186 9.29612C18.2882 9.2418 18.1446 9.22738 18.006 9.25467C17.8674 9.28196 17.74 9.34974 17.6399 9.44944C17.5398 9.54913 17.4715 9.67628 17.4437 9.81478C17.4159 9.95328 17.4297 10.0969 17.4835 10.2276C17.5373 10.3582 17.6287 10.4699 17.746 10.5486C17.8633 10.6273 18.0013 10.6695 18.1426 10.6698C18.332 10.6699 18.5137 10.595 18.6478 10.4613C18.782 10.3277 18.8577 10.1463 18.8583 9.95689ZM17.7868 9.9548C17.787 9.88417 17.808 9.81516 17.8474 9.7565C17.8868 9.69785 17.9426 9.65218 18.0079 9.62528C18.0733 9.59837 18.1451 9.59144 18.2143 9.60536C18.2836 9.61927 18.3472 9.65341 18.397 9.70346C18.4469 9.75351 18.4807 9.81721 18.4944 9.88652C18.508 9.95583 18.5008 10.0276 18.4737 10.0928C18.4465 10.158 18.4006 10.2137 18.3418 10.2528C18.283 10.292 18.2139 10.3128 18.1433 10.3126C18.0486 10.3124 17.9579 10.2745 17.891 10.2074C17.8242 10.1403 17.7867 10.0495 17.7868 9.9548Z" fill="#2D4356"/>
<path d="M3.23482 17.6236L3.76696 16.9261L3.43196 16.7354L3.08982 17.5168H3.07839L2.73375 16.7396L2.39196 16.9346L2.91625 17.6175V17.6286L2.09482 17.5207L2.09375 17.9007L2.92125 17.7961V17.8075L2.38911 18.4879L2.70696 18.69L3.07196 17.9025H3.08304L3.41696 18.6857L3.76946 18.485L3.23411 17.8136L3.23446 17.8021L4.07768 17.9046L4.07839 17.5246L3.23446 17.6346L3.23482 17.6236Z" fill="#4C7DA7"/>
<path d="M23.2268 1.60347L22.92 1.99561L23.1032 2.11169L23.3136 1.65847H23.3196L23.5121 2.10919L23.715 1.99383L23.4068 1.60704V1.60061L23.8925 1.65954L23.8929 1.44061L23.4071 1.50419V1.49776L23.7136 1.09597L23.5207 0.986328L23.3236 1.43633H23.3171L23.1186 0.988828L22.9218 1.10097L23.2236 1.49419V1.50061L22.7507 1.43847L22.75 1.6574L23.2268 1.59704V1.60347Z" fill="#4C7DA7"/>
<path d="M51.6492 8.66143L51.6499 8.28858L50.8221 8.39679L50.8224 8.38572L51.3446 7.70179L51.016 7.51465L50.6799 8.28143L50.6688 8.28108L50.3306 7.51893L49.9956 7.71001L50.5099 8.37965V8.39072L49.7042 8.28501L49.7031 8.65751L50.5149 8.55536V8.56608L49.9928 9.23358L50.3046 9.43179L50.6628 8.65929L50.6735 8.65965L51.001 9.42751L51.3467 9.23108L50.8217 8.57215L50.8221 8.56108L51.6492 8.66143Z" fill="#4C7DA7"/>
<path d="M33.4068 5.82565L33.8571 5.23529L33.5735 5.07422L33.2839 5.73529H33.2743L32.9828 5.07779L32.6935 5.24243L33.1371 5.82029V5.82993L32.4421 5.7385L32.4414 6.05993L33.1414 5.97172V5.981L32.691 6.55672L32.9603 6.72779L33.2693 6.06172H33.2785L33.5607 6.72422L33.8593 6.55458L33.4064 5.98636V5.97672L34.12 6.06315L34.1207 5.74172L33.4068 5.83493V5.82565Z" fill="#4C7DA7"/>
</g>
<defs>
<clipPath id="clip0_2_6903">
<rect width="60" height="60" fill="white"/>
</clipPath>
</defs>
</svg>
