<svg width="33" height="33" viewBox="0 0 33 33" fill="none" xmlns="http://www.w3.org/2000/svg">
<path d="M16.5 12.375C17.594 12.375 18.6432 12.8096 19.4168 13.5832C20.1904 14.3568 20.625 15.406 20.625 16.5C20.625 17.594 20.1904 18.6432 19.4168 19.4168C18.6432 20.1904 17.594 20.625 16.5 20.625C15.406 20.625 14.3568 20.1904 13.5832 19.4168C12.8096 18.6432 12.375 17.594 12.375 16.5C12.375 15.406 12.8096 14.3568 13.5832 13.5832C14.3568 12.8096 15.406 12.375 16.5 12.375ZM16.5 6.1875C23.375 6.1875 29.2463 10.4638 31.625 16.5C29.2463 22.5362 23.375 26.8125 16.5 26.8125C9.625 26.8125 3.75375 22.5362 1.375 16.5C3.75375 10.4638 9.625 6.1875 16.5 6.1875ZM4.3725 16.5C5.48385 18.7692 7.20955 20.681 9.35341 22.0182C11.4973 23.3554 13.9733 24.0643 16.5 24.0643C19.0267 24.0643 21.5027 23.3554 23.6466 22.0182C25.7905 20.681 27.5162 18.7692 28.6275 16.5C27.5162 14.2308 25.7905 12.319 23.6466 10.9818C21.5027 9.64458 19.0267 8.93569 16.5 8.93569C13.9733 8.93569 11.4973 9.64458 9.35341 10.9818C7.20955 12.319 5.48385 14.2308 4.3725 16.5Z" fill="#4C7DA7"/>
</svg>
