<svg xmlns="http://www.w3.org/2000/svg" xmlns:xlink="http://www.w3.org/1999/xlink"><symbol fill="currentColor" viewBox="0 0 34 34" id="agenda"><g clip-path="url(#aaa)"><path d="M9.714 12.63H7.286a1.216 1.216 0 0 0-1.214 1.215v2.428a1.216 1.216 0 0 0 1.214 1.215h2.428a1.215 1.215 0 0 0 1.215-1.215v-2.428a1.216 1.216 0 0 0-1.215-1.215Zm.405 3.643a.406.406 0 0 1-.405.405H7.286a.405.405 0 0 1-.405-.405v-2.428a.405.405 0 0 1 .405-.405h2.428a.405.405 0 0 1 .405.405v2.428Z"/><path d="M15.38 12.63h-2.428a1.215 1.215 0 0 0-1.214 1.215v2.428a1.216 1.216 0 0 0 1.214 1.215h2.429a1.215 1.215 0 0 0 1.214-1.215v-2.428a1.216 1.216 0 0 0-1.214-1.215Zm.406 3.643a.406.406 0 0 1-.405.405h-2.429a.405.405 0 0 1-.404-.405v-2.428a.405.405 0 0 1 .404-.405h2.429a.405.405 0 0 1 .405.405v2.428ZM9.714 18.297H7.286a1.216 1.216 0 0 0-1.214 1.214v2.429a1.216 1.216 0 0 0 1.214 1.214h2.428a1.215 1.215 0 0 0 1.215-1.214V19.51a1.216 1.216 0 0 0-1.215-1.214Zm.405 3.643a.406.406 0 0 1-.405.404H7.286a.405.405 0 0 1-.405-.404V19.51a.405.405 0 0 1 .405-.405h2.428a.405.405 0 0 1 .405.405v2.429Z"/><path d="M15.38 18.297h-2.428a1.215 1.215 0 0 0-1.214 1.214v2.429a1.216 1.216 0 0 0 1.214 1.214h2.429a1.215 1.215 0 0 0 1.214-1.214V19.51a1.216 1.216 0 0 0-1.214-1.214Zm.406 3.643a.406.406 0 0 1-.405.404h-2.429a.405.405 0 0 1-.404-.404V19.51a.405.405 0 0 1 .404-.405h2.429a.405.405 0 0 1 .405.405v2.429ZM9.714 23.964H7.286a1.216 1.216 0 0 0-1.214 1.214v2.428a1.215 1.215 0 0 0 1.214 1.215h2.428a1.216 1.216 0 0 0 1.215-1.215v-2.428a1.216 1.216 0 0 0-1.215-1.214Zm.405 3.643a.405.405 0 0 1-.405.404H7.286a.405.405 0 0 1-.405-.404v-2.43a.405.405 0 0 1 .405-.404h2.428a.405.405 0 0 1 .405.405v2.428Z"/><path d="M15.38 23.964h-2.428a1.216 1.216 0 0 0-1.214 1.214v2.428a1.216 1.216 0 0 0 1.214 1.215h2.429a1.216 1.216 0 0 0 1.214-1.215v-2.428a1.216 1.216 0 0 0-1.214-1.214Zm.406 3.643a.405.405 0 0 1-.405.404h-2.429a.405.405 0 0 1-.404-.404v-2.43a.405.405 0 0 1 .404-.404h2.429a.405.405 0 0 1 .405.405v2.428ZM21.048 18.297h-2.429a1.216 1.216 0 0 0-1.214 1.214v2.429a1.216 1.216 0 0 0 1.214 1.214h2.429a1.216 1.216 0 0 0 1.214-1.214V19.51a1.216 1.216 0 0 0-1.214-1.214Zm.404 3.643a.405.405 0 0 1-.404.404h-2.429a.405.405 0 0 1-.405-.404V19.51a.406.406 0 0 1 .405-.405h2.429a.405.405 0 0 1 .404.405v2.429Z"/><path d="M26.714 18.297h-2.428a1.215 1.215 0 0 0-1.215 1.214v2.429a1.216 1.216 0 0 0 1.215 1.214h2.428a1.215 1.215 0 0 0 1.215-1.214V19.51a1.216 1.216 0 0 0-1.215-1.214Zm.405 3.643a.406.406 0 0 1-.405.404h-2.428a.405.405 0 0 1-.405-.404V19.51a.405.405 0 0 1 .405-.405h2.428a.405.405 0 0 1 .405.405v2.429ZM21.048 23.964h-2.429a1.216 1.216 0 0 0-1.214 1.214v2.428a1.215 1.215 0 0 0 1.214 1.215h2.429a1.216 1.216 0 0 0 1.214-1.215v-2.428a1.215 1.215 0 0 0-1.214-1.214Zm.404 3.643a.405.405 0 0 1-.404.404h-2.429a.405.405 0 0 1-.405-.404v-2.43a.405.405 0 0 1 .405-.404h2.429a.406.406 0 0 1 .404.405v2.428Z"/><path d="M26.714 23.964h-2.428a1.216 1.216 0 0 0-1.215 1.214v2.428a1.216 1.216 0 0 0 1.215 1.215h2.428a1.216 1.216 0 0 0 1.215-1.215v-2.428a1.216 1.216 0 0 0-1.215-1.214Zm.405 3.643a.405.405 0 0 1-.405.404h-2.428a.405.405 0 0 1-.405-.404v-2.43a.405.405 0 0 1 .405-.404h2.428a.405.405 0 0 1 .405.405v2.428Z"/><path d="M21.048 12.63h-2.429a1.216 1.216 0 0 0-1.214 1.215v2.428a1.216 1.216 0 0 0 1.214 1.215h2.429a1.216 1.216 0 0 0 1.214-1.215v-2.428a1.216 1.216 0 0 0-1.214-1.215Zm.404 3.643a.405.405 0 0 1-.404.405h-2.429a.406.406 0 0 1-.405-.405v-2.428a.406.406 0 0 1 .405-.405h2.429a.405.405 0 0 1 .404.405v2.428ZM26.714 12.63h-2.428a1.215 1.215 0 0 0-1.215 1.215v2.428a1.216 1.216 0 0 0 1.215 1.215h2.428a1.215 1.215 0 0 0 1.215-1.215v-2.428a1.216 1.216 0 0 0-1.215-1.215Zm.405 3.643a.406.406 0 0 1-.405.405h-2.428a.405.405 0 0 1-.405-.405v-2.428a.405.405 0 0 1 .405-.405h2.428a.405.405 0 0 1 .405.405v2.428Z"/><path d="m14.812 20.013-.959.536-.192-.29a.404.404 0 1 0-.674.45l.4.6a.412.412 0 0 0 .534.129l1.286-.718a.405.405 0 0 0-.395-.707ZM26.146 14.347l-.96.535-.192-.289a.404.404 0 1 0-.673.45l.4.6a.41.41 0 0 0 .533.128l1.286-.718a.404.404 0 1 0-.394-.707Z"/><path d="m26.146 25.68-.96.535-.192-.288a.404.404 0 1 0-.673.449l.4.6a.411.411 0 0 0 .533.129l1.286-.718a.405.405 0 0 0-.394-.707ZM.405 30.844a.405.405 0 1 0 0-.81.405.405 0 0 0 0 .81ZM2.226 30.035H1.62a.405.405 0 0 0 0 .81h.607a.405.405 0 1 0 0-.81ZM32.381 30.035h-.607a.405.405 0 0 0 0 .81h.607a.405.405 0 1 0 0-.81ZM33.595 30.844a.405.405 0 1 0 0-.81.405.405 0 0 0 0 .81Z"/><path d="M23.912 31.654h-1.681a.406.406 0 0 0 0 .81h1.681a.407.407 0 0 0 0-.81ZM11.77 31.654h-1.682a.406.406 0 0 0 0 .81h1.681a.407.407 0 0 0 0-.81ZM21.048 31.654h-8.096a.405.405 0 1 0 0 .81h3.226v.404h-1.607a.405.405 0 0 0 0 .81h5.06a.405.405 0 0 0 0-.81h-1.81v-.404h3.227a.405.405 0 0 0 0-.81Z"/><path d="M29.503 32.035h-.621c.046-.13.07-.267.07-.405V11.392a1.216 1.216 0 0 0-1.214-1.214h-.81v-.405a.405.405 0 0 0-.809 0v.405h-.81v-.405a.405.405 0 1 0-.809 0v.405h-.81v-.405a.405.405 0 0 0-.809 0v.405h-.81v-.405a.405.405 0 1 0-.809 0v.405h-.81v-.405a.405.405 0 0 0-.809 0v.405h-.81v-.405a.405.405 0 1 0-.81 0v.405h-.809v-.405a.405.405 0 0 0-.81 0v.405h-.809v-.405a.405.405 0 1 0-.81 0v.405h-.809v-.405a.405.405 0 0 0-.81 0v.405h-.809v-.405a.405.405 0 1 0-.81 0v.405h-.809v-.405a.404.404 0 1 0-.81 0v.405H9.12v-.405a.405.405 0 0 0-.81 0v.405H7.5v-.405a.405.405 0 1 0-.81 0v.405h-.809v-.405a.405.405 0 1 0-.81 0v.405h-.809a1.216 1.216 0 0 0-1.214 1.214V31.63c0 .138.024.275.07.405h-.621a.409.409 0 1 0 0 .81h27.006a.409.409 0 1 0 0-.81ZM3.857 11.392a.405.405 0 0 1 .405-.405h.81v.405a.405.405 0 0 0 .809 0v-.405h.81v.405a.405.405 0 0 0 .81 0v-.405h.809v.405a.405.405 0 0 0 .81 0v-.405h.809v.405a.405.405 0 0 0 .81 0v-.405h.809v.405a.405.405 0 0 0 .81 0v-.405h.809v.405a.405.405 0 1 0 .81 0v-.405h.809v.405a.405.405 0 0 0 .81 0v-.405h.809v.405a.405.405 0 1 0 .81 0v-.405h.809v.405a.405.405 0 0 0 .81 0v-.405h.809v.405a.405.405 0 1 0 .81 0v-.405h.809v.405a.404.404 0 1 0 .81 0v-.405h.81v.405a.405.405 0 1 0 .809 0v-.405h.81v.405a.404.404 0 1 0 .809 0v-.405h.81v.405a.405.405 0 0 0 .809 0v-.405h.81a.405.405 0 0 1 .404.405v1.214H3.857v-1.214Zm.405 20.643a.405.405 0 0 1-.405-.405V13.416h24.286V31.63a.405.405 0 0 1-.405.405H4.262ZM12.824 3.702a.607.607 0 1 0 0-1.214.607.607 0 0 0 0 1.214Zm0-.911a.304.304 0 1 1 0 .608.304.304 0 0 1 0-.608ZM31.792 12.957a.405.405 0 1 0 0 .81.405.405 0 0 0 0-.81Zm0 .608a.203.203 0 1 1 0-.406.203.203 0 0 1 0 .406ZM.715 2.69a.405.405 0 1 0 0 .81.405.405 0 0 0 0-.81Zm0 .607a.202.202 0 1 1 0-.405.202.202 0 0 1 0 .405ZM28.953 8.303a.405.405 0 1 0 0 .81.405.405 0 0 0 0-.81Zm0 .607a.202.202 0 1 1 0-.405.202.202 0 0 1 0 .405ZM6.69 6.09a.405.405 0 1 0-.809 0 .405.405 0 0 0 .81 0Zm-.607 0a.202.202 0 1 1 .405 0 .202.202 0 0 1-.405 0Z"/><path d="m1.799 8.485.3-.396-.19-.108-.193.444H1.71l-.196-.44-.193.11.297.387v.006l-.465-.06v.215l.468-.06v.007l-.3.386.18.114.206-.447h.006l.19.444.2-.114-.304-.38v-.007l.478.057v-.215l-.478.063v-.006ZM16.541 5.584l-.173.222.104.066.119-.258h.003l.11.256.115-.066-.175-.219v-.003l.275.032V5.49l-.275.037v-.004l.173-.228-.11-.062-.11.256h-.004l-.113-.254-.112.064.172.222v.004l-.268-.035v.124l.27-.034v.004ZM33.343 2.723V2.51l-.47.062v-.006l.296-.388-.186-.106-.19.435h-.006l-.193-.431-.19.108.293.38v.005l-.457-.059v.212l.46-.06v.007l-.295.379.177.111.202-.437h.006l.186.434.196-.111-.298-.373v-.006l.469.056ZM24.323.748l.255-.335-.16-.09-.164.374h-.005l-.166-.372-.164.094.252.326v.006L23.777.7v.182l.396-.05v.005l-.254.326.152.097.175-.378h.005l.16.375.17-.096-.258-.322V.834l.405.048V.7l-.405.054V.748Z"/></g><defs><clipPath id="aaa"><path d="M0 0h34v34H0z"/></clipPath></defs></symbol><symbol fill="currentColor" viewBox="0 0 24 24" id="arrow-down"><path d="m7 11 5 5 5-5H7Z"/></symbol><symbol fill="currentColor" viewBox="0 0 24 24" id="arrow-left"><path d="m16 7-5 5 5 5V7Z"/></symbol><symbol fill="currentColor" viewBox="0 0 25 25" id="arrow-right"><path d="m11 18 5-5-5-5v10Z"/></symbol><symbol fill="currentColor" viewBox="0 0 22 22" id="bell"><path d="M12.358 2.102v-.733a1.355 1.355 0 1 0-2.71-.026v.759a7.76 7.76 0 0 1 2.71 0ZM11.004 22a2.685 2.685 0 0 0 2.677-2.46H8.328A2.685 2.685 0 0 0 11.004 22ZM17.93 13.592c.015-.001.03-.003.044-.007V9.89c0-3.897-3.122-7.067-6.97-7.067-3.846 0-6.969 3.17-6.969 7.067v3.695a.266.266 0 0 0 .044.007H17.93ZM4.066 14.433h13.881c.846 0 1.531.686 1.531 1.531v1.204a1.53 1.53 0 0 1-1.53 1.53H4.065a1.53 1.53 0 0 1-1.53-1.53v-1.204c0-.845.684-1.53 1.53-1.53Z"/></symbol><symbol fill="currentColor" viewBox="0 0 27 26" id="cart"><path d="m4.473 12.33 1.407 8.13c.11.635.681 1.101 1.35 1.101h12.75c.682 0 1.26-.482 1.356-1.132l1.202-8.1H4.473Zm5.602 5.934c0 .365-.307.66-.685.66a.672.672 0 0 1-.685-.66v-3.956c0-.364.306-.66.685-.66.378 0 .684.296.684.66v3.956Zm4.108 0c0 .365-.306.66-.685.66a.672.672 0 0 1-.684-.66v-3.956c0-.364.306-.66.684-.66.379 0 .685.296.685.66v3.956Zm4.109 0c0 .365-.307.66-.685.66a.672.672 0 0 1-.685-.66v-3.956c0-.364.307-.66.685-.66.378 0 .685.296.685.66v3.956ZM23.315 8.373h-1.999l-5.962-5.741a.703.703 0 0 0-.969 0 .642.642 0 0 0 0 .932l4.995 4.81H7.62l4.995-4.81a.642.642 0 0 0 0-.932.703.703 0 0 0-.969 0L5.684 8.373h-2a.672.672 0 0 0-.684.66v1.319c0 .364.307.659.685.659h19.63a.673.673 0 0 0 .685-.66V9.034a.673.673 0 0 0-.685-.66Z"/></symbol><symbol fill="currentColor" viewBox="0 0 16 16" id="checkmark"><path d="M10.673 5.273a.675.675 0 0 1 .963.945l-3.591 4.491a.676.676 0 0 1-.972.018L4.69 8.346a.675.675 0 1 1 .954-.954L7.53 9.275l3.126-3.982.017-.02Z"/></symbol><symbol fill="currentColor" viewBox="0 0 21 21" id="close"><path d="m6 6 9 9m0-9-9 9" stroke="#6D6D6D" stroke-linecap="round" stroke-linejoin="round"/></symbol><symbol fill="currentColor" viewBox="0 0 21 21" id="cross"><path d="m6 6 9 9m0-9-9 9" stroke="currentColor" stroke-linecap="round" stroke-linejoin="round"/></symbol><symbol fill="currentColor" viewBox="0 0 28 28" id="edit"><path d="M22.667 6.353a.5.5 0 0 0-.707 0L20.9 7.414l.707.707 1.06-1.06a.5.5 0 0 0 0-.708ZM11.874 16.44l8.318-8.319.707.707-8.318 8.319a1 1 0 0 1-.39.241l-.838.28.28-.837c.049-.148.131-.282.241-.391Z"/><path d="M7 9.5A1.5 1.5 0 0 1 8.5 8h7a.5.5 0 0 1 0 1h-7a.5.5 0 0 0-.5.5v11a.5.5 0 0 0 .5.5h11a.5.5 0 0 0 .5-.5v-7a.5.5 0 0 1 1 0v7a1.5 1.5 0 0 1-1.5 1.5h-11A1.5 1.5 0 0 1 7 20.5v-11Z"/></symbol><symbol fill="currentColor" viewBox="0 0 34 34" id="effective"><g clip-path="url(#aka)"><path d="M26.512 16.182h-.61a8.448 8.448 0 0 0-1.314-3.174l.43-.43a1.216 1.216 0 0 0 0-1.718l-.512-.513a1.216 1.216 0 0 0-1.718 0l-.43.43a8.45 8.45 0 0 0-3.174-1.314v-.609A1.216 1.216 0 0 0 17.97 7.64h-.726a1.215 1.215 0 0 0-1.214 1.214v.61a8.45 8.45 0 0 0-3.174 1.314l-.43-.431a1.216 1.216 0 0 0-1.718 0l-.513.513a1.216 1.216 0 0 0 0 1.718l.43.43a8.449 8.449 0 0 0-1.314 3.174h-.609a1.216 1.216 0 0 0-1.214 1.214v.726a1.216 1.216 0 0 0 1.214 1.214h.61a8.451 8.451 0 0 0 1.314 3.174l-.43.43a1.216 1.216 0 0 0 0 1.718l.512.513a1.216 1.216 0 0 0 1.718 0l.43-.43a8.45 8.45 0 0 0 3.174 1.314v.609a1.216 1.216 0 0 0 1.214 1.214h.726a1.216 1.216 0 0 0 1.214-1.214v-.61a8.45 8.45 0 0 0 3.174-1.314l.43.43a1.216 1.216 0 0 0 1.718 0l.513-.512a1.216 1.216 0 0 0 0-1.718l-.43-.43a8.45 8.45 0 0 0 1.314-3.174h.609a1.216 1.216 0 0 0 1.214-1.214v-.726a1.216 1.216 0 0 0-1.214-1.214Zm.405 1.94a.405.405 0 0 1-.405.405h-.952a.405.405 0 0 0-.4.346 7.628 7.628 0 0 1-1.425 3.44.405.405 0 0 0 .039.527l.672.673a.405.405 0 0 1 0 .572l-.513.513a.406.406 0 0 1-.572 0l-.673-.672a.405.405 0 0 0-.527-.039 7.629 7.629 0 0 1-3.44 1.425.404.404 0 0 0-.346.4v.952a.405.405 0 0 1-.405.404h-.726a.405.405 0 0 1-.404-.404v-.952a.405.405 0 0 0-.347-.4 7.629 7.629 0 0 1-3.44-1.425.416.416 0 0 0-.527.039l-.673.672a.406.406 0 0 1-.572 0l-.513-.513a.406.406 0 0 1 0-.572l.672-.673a.405.405 0 0 0 .039-.528 7.627 7.627 0 0 1-1.425-3.44.405.405 0 0 0-.4-.345h-.952a.405.405 0 0 1-.404-.405v-.726a.405.405 0 0 1 .404-.405h.952a.405.405 0 0 0 .4-.346 7.627 7.627 0 0 1 1.425-3.44.405.405 0 0 0-.039-.527l-.672-.673a.405.405 0 0 1 0-.572l.513-.514a.405.405 0 0 1 .572 0l.673.673a.405.405 0 0 0 .528.039 7.629 7.629 0 0 1 3.44-1.425.404.404 0 0 0 .346-.4v-.952a.405.405 0 0 1 .404-.405h.726a.405.405 0 0 1 .405.405v.952a.405.405 0 0 0 .346.4 7.629 7.629 0 0 1 3.44 1.425.404.404 0 0 0 .527-.039l.673-.672a.405.405 0 0 1 .572 0l.514.513a.405.405 0 0 1 0 .572l-.673.673a.405.405 0 0 0-.039.528 7.628 7.628 0 0 1 1.425 3.44.405.405 0 0 0 .4.345h.952a.405.405 0 0 1 .405.405v.726Z"/><path d="M17.607 13.437a.405.405 0 0 0 .405-.405V11.89a.405.405 0 1 0-.81 0v1.142a.404.404 0 0 0 .405.405Z"/><path d="M15.023 12.474a.406.406 0 0 0-.741.097.403.403 0 0 0 .04.308l.571.989a.416.416 0 0 0 .553.148.405.405 0 0 0 .148-.553l-.57-.99Z"/><path d="m13.716 15.045-.99-.571a.406.406 0 1 0-.404.7l.989.572a.405.405 0 0 0 .405-.701Z"/><path d="M13.285 17.759a.405.405 0 0 0-.405-.405h-1.142a.405.405 0 0 0 0 .81h1.142a.405.405 0 0 0 .405-.405Z"/><path d="m13.311 19.772-.989.571a.404.404 0 1 0 .405.701l.989-.571a.405.405 0 0 0-.405-.701Z"/><path d="M15.446 21.502a.405.405 0 0 0-.553.148l-.57.99a.404.404 0 0 0 .147.552.412.412 0 0 0 .553-.148l.571-.989a.405.405 0 0 0-.148-.553Z"/><path d="M17.607 22.081a.405.405 0 0 0-.405.405v1.142a.405.405 0 1 0 .81 0v-1.142a.405.405 0 0 0-.405-.405Z"/><path d="M20.321 21.65a.405.405 0 0 0-.701.405l.571.989a.411.411 0 0 0 .553.148.404.404 0 0 0 .148-.553l-.57-.989Z"/><path d="m22.892 20.343-.989-.571a.405.405 0 0 0-.405.7l.99.572a.41.41 0 0 0 .552-.148.406.406 0 0 0-.148-.553Z"/><path d="M23.476 17.354h-1.142a.405.405 0 0 0 0 .81h1.142a.405.405 0 0 0 0-.81Z"/><path d="M21.79 15.715A.397.397 0 0 0 22 15.66l1.012-.607a.406.406 0 0 0 .032-.672.406.406 0 0 0-.449-.022l-1.012.607a.403.403 0 0 0 .209.75Z"/><path d="M20.869 12.217a.404.404 0 0 0-.555.138l-.607 1.012a.407.407 0 0 0 .138.556.41.41 0 0 0 .556-.14l.607-1.011a.405.405 0 0 0-.139-.555Z"/><path d="M20.44 17.759a.405.405 0 0 0-.404-.405h-2.024v-2.428a.405.405 0 1 0-.81 0v2.833a.405.405 0 0 0 .405.405h2.429a.405.405 0 0 0 .404-.405ZM.405 30.711a.405.405 0 1 0 0-.81.405.405 0 0 0 0 .81ZM2.226 29.902H1.62a.405.405 0 1 0 0 .81h.607a.405.405 0 0 0 0-.81ZM32.381 29.902h-.607a.405.405 0 1 0 0 .81h.607a.405.405 0 0 0 0-.81ZM33.595 30.711a.405.405 0 1 0 0-.81.405.405 0 0 0 0 .81Z"/><path d="M23.912 31.52h-1.681a.406.406 0 0 0 0 .81h1.681a.407.407 0 0 0 0-.81ZM11.77 31.52h-1.682a.406.406 0 0 0 0 .81h1.681a.407.407 0 0 0 0-.81ZM21.048 31.52h-8.096a.405.405 0 1 0 0 .81h3.226v.405h-1.607a.405.405 0 0 0 0 .81h5.06a.405.405 0 0 0 0-.81h-1.81v-.405h3.227a.405.405 0 0 0 0-.81Z"/><path d="M30.503 29.902H17.627a12.143 12.143 0 1 1 10.141-18.847l-.247-.153a.406.406 0 0 0-.426.688l1.367.846a.414.414 0 0 0 .38.024.405.405 0 0 0 .232-.302l.266-1.62a.403.403 0 0 0-.334-.464.406.406 0 0 0-.465.334l-.046.28a12.964 12.964 0 1 0-15.38 19.214H3.497a.407.407 0 0 0-.425.573.408.408 0 0 0 .425.236h27.006a.409.409 0 1 0 0-.81ZM22.273 4.857a.607.607 0 1 0 0-1.214.607.607 0 0 0 0 1.214Zm0-.91a.304.304 0 1 1 0 .607.304.304 0 0 1 0-.608ZM32.33 3.744a.405.405 0 1 0 0 .81.405.405 0 0 0 0-.81Zm0 .607a.202.202 0 1 1 0-.404.202.202 0 0 1 0 .404ZM1.63 2.176a.405.405 0 1 0 0 .81.405.405 0 0 0 0-.81Zm0 .607a.202.202 0 1 1 0-.405.202.202 0 0 1 0 .405ZM26.563.455a.405.405 0 1 0 0 .81.405.405 0 0 0 0-.81Zm0 .607a.202.202 0 1 1 0-.404.202.202 0 0 1 0 .404ZM7.904 7.083a.405.405 0 1 0-.81 0 .405.405 0 0 0 .81 0Zm-.607 0a.202.202 0 1 1 .405 0 .202.202 0 0 1-.405 0Z"/><path d="m1.697 10.223.301-.396-.19-.108-.193.444H1.61l-.196-.44-.194.11.298.386v.007l-.466-.06v.215l.469-.06v.006l-.3.386.18.115.206-.447h.006l.19.443.2-.114-.305-.38v-.006l.478.057v-.215l-.478.063v-.006ZM8.426 1.284l-.173.223.104.066.119-.258h.003l.11.256.114-.066-.175-.219v-.003l.276.032v-.124l-.276.037v-.004l.174-.228-.11-.062-.11.256h-.005L8.364.936 8.253 1l.171.223v.003l-.268-.035v.124l.27-.034v.003ZM31.43 9.606v-.212l-.468.063V9.45l.295-.388-.187-.105-.189.434h-.006l-.193-.431-.19.108.293.38v.006l-.457-.06v.212l.46-.06v.007l-.295.379.177.112.202-.438h.006l.186.434.196-.111-.298-.373V9.55l.469.056ZM13.61 3.104l.254-.335-.16-.091-.164.375h-.005l-.166-.373-.164.094.252.327v.005l-.394-.05v.182l.396-.051v.005l-.254.327.153.097.174-.378h.005l.161.375.169-.097-.257-.321v-.006l.404.049v-.182l-.404.053v-.005Z"/></g><defs><clipPath id="aka"><path d="M0 0h34v34H0z"/></clipPath></defs></symbol><symbol fill="currentColor" viewBox="0 0 23 23" id="file"><path d="M22.732 10.713c-.35-.563-.967-.9-1.652-.9H5.826c-.756 0-1.444.426-1.752 1.086L.039 19.36c.152.619.73 1.081 1.42 1.081h16.229a1.83 1.83 0 0 0 1.638-1.013l3.487-6.99a1.764 1.764 0 0 0-.08-1.723Z"/><path d="M3.252 9.598c.309-.66.997-1.086 1.753-1.086h14.364V6.674c0-.757-.639-1.373-1.424-1.373H9.569a.045.045 0 0 1-.024-.006L8.046 3.2a1.44 1.44 0 0 0-1.172-.594h-5.45C.64 2.605 0 3.222 0 3.98v12.438l3.252-6.82Z"/></symbol><symbol fill="currentColor" viewBox="0 0 37 38" id="filter"><path d="M5.971 13.22h12.623a4.818 4.818 0 0 0 9.442 0h2.987a.964.964 0 1 0 0-1.927h-2.986a4.818 4.818 0 0 0-9.443 0H5.97a.964.964 0 1 0 0 1.927Zm17.344-3.854a2.89 2.89 0 1 1 0 5.78 2.89 2.89 0 0 1 0-5.78Zm7.708 15.416H18.401a4.818 4.818 0 0 0-9.443 0H5.971a.964.964 0 1 0 0 1.927h2.987a4.818 4.818 0 0 0 9.443 0h12.622a.964.964 0 0 0 0-1.927ZM13.68 28.636a2.891 2.891 0 1 1 0-5.782 2.891 2.891 0 0 1 0 5.782Z"/></symbol><symbol fill="currentColor" viewBox="0 0 15 15" id="grid"><path d="M1 11.4c0-1.001 0-1.502.226-1.87.126-.205.299-.378.505-.504C2.098 8.8 2.599 8.8 3.6 8.8s1.501 0 1.87.226c.205.126.378.299.504.505.226.367.226.868.226 1.869s0 1.502-.226 1.87a1.529 1.529 0 0 1-.505.504C5.102 14 4.601 14 3.6 14s-1.502 0-1.87-.226a1.527 1.527 0 0 1-.504-.504C1 12.902 1 12.401 1 11.4Zm7.8 0c0-1.001 0-1.502.226-1.87.126-.205.299-.378.505-.504.367-.226.868-.226 1.869-.226s1.502 0 1.87.226c.206.126.378.299.504.505.226.367.226.868.226 1.869s0 1.502-.226 1.87a1.533 1.533 0 0 1-.504.504c-.368.226-.869.226-1.87.226-1.001 0-1.502 0-1.87-.226a1.527 1.527 0 0 1-.504-.504c-.226-.368-.226-.869-.226-1.87ZM1 3.6c0-1.001 0-1.502.226-1.87.126-.205.299-.378.505-.504C2.098 1 2.599 1 3.6 1s1.501 0 1.87.226c.205.126.378.299.504.505.226.367.226.868.226 1.869s0 1.501-.226 1.87a1.525 1.525 0 0 1-.505.504C5.102 6.2 4.601 6.2 3.6 6.2s-1.502 0-1.87-.226a1.527 1.527 0 0 1-.504-.505C1 5.102 1 4.601 1 3.6Zm7.8 0c0-1.001 0-1.502.226-1.87.126-.205.299-.378.505-.504C9.898 1 10.399 1 11.4 1s1.502 0 1.87.226c.206.126.378.299.504.505C14 2.098 14 2.599 14 3.6s0 1.501-.226 1.87a1.529 1.529 0 0 1-.504.504c-.368.226-.869.226-1.87.226-1.001 0-1.502 0-1.87-.226a1.527 1.527 0 0 1-.504-.505C8.8 5.102 8.8 4.601 8.8 3.6Z" stroke="#3EBEC4" stroke-width="1.5" stroke-linecap="round" stroke-linejoin="round"/></symbol><symbol fill="currentColor" viewBox="0 0 27 26" id="heart"><path d="M23.145 9.503c0 5.782-9.142 11.68-9.53 11.927a.205.205 0 0 1-.222 0c-.388-.25-9.534-6.145-9.534-11.927 0-2.738 2.313-4.965 5.157-4.965 1.857 0 3.578.979 4.486 2.52.908-1.545 2.626-2.52 4.483-2.52 2.847 0 5.16 2.227 5.16 4.965Z"/></symbol><symbol fill="currentColor" viewBox="0 0 27 26" id="heart-empty"><path d="M18.18 17.18a35.438 35.438 0 0 1-4.675 3.725 35.632 35.632 0 0 1-4.68-3.727c-1.15-1.097-2.274-2.352-3.108-3.674-.836-1.326-1.358-2.685-1.358-4.001 0-2.445 2.071-4.466 4.657-4.466 1.684 0 3.24.89 4.055 2.275l.432.732.43-.733c.816-1.388 2.367-2.274 4.052-2.274 2.59 0 4.66 2.021 4.66 4.466 0 1.316-.522 2.675-1.357 4.001-.834 1.323-1.958 2.578-3.108 3.676Z" stroke="#295365"/></symbol><symbol fill="currentColor" viewBox="0 0 18 22" id="hits"><g clip-path="url(#aqa)"><path d="M8.515 22.001c3.087 0 5.762-1.262 7.08-3.105 5.654-6.421-.438-14.422-.438-14.422 1.46 5.706-6.715 5.36-3.37 1.809C15.133 2.731 11.508 0 11.508 0c2.336 3.364-4.022 1.776-5.572 4.295-1.8 2.926-1.314 7.022-3.001 7.416-1.688.394-1.476-1.787-1.476-1.787-3.99 7.238 1.476 10.436 1.476 10.436C4.37 21.373 6.34 22 8.516 22"/><path d="M8.856 21.739c3.68 0 6.664-2.44 6.664-5.447 0-.652-.143-1.298-.418-1.9 0 0-1.216 2.479-4.829 1.9-3.795-.61-3.65-6.424-3.65-6.424-.135 1.169-.437 2.722-.656 3.887-.146.754-.584 2.107-1.55 2.336-.964.23-1.557-.611-1.761-1.34a2.588 2.588 0 0 1-.068-.313 4.545 4.545 0 0 0-.397 1.854c0 3.007 2.984 5.447 6.665 5.447Z"/><path d="M8.851 21.366c2.154 0 3.9-1.426 3.9-3.186 0-.32-.06-.636-.175-.938-.75.804-1.856 1.4-2.998 1.293-.985-.092-1.585-.67-2.043-1.372-.155.67-.447 1.34-1.114 1.573-.584.206-1.08-.006-1.46-.37.12 1.672 1.816 2.996 3.89 2.996"/></g><defs><clipPath id="aqa"><path d="M0 0h18v22H0z"/></clipPath></defs></symbol><symbol fill="currentColor" viewBox="0 0 25 21" id="home"><path fill-rule="evenodd" clip-rule="evenodd" d="M4.624 10.633v7.903c0 .807.658 1.464 1.463 1.464H9.15a.327.327 0 0 1-.017-.108v-5.997c0-.527.428-.955.954-.955h4.151c.526 0 .955.428.955.955v5.997a.327.327 0 0 1-.018.108h3.063c.806 0 1.463-.657 1.463-1.464v-7.903l-7.54-6.73-7.537 6.73Zm7.764-7.436a.337.337 0 0 0-.45 0l-8.078 7.21c-.218.194-.5.29-.796.272a1.12 1.12 0 0 1-.78-.385l-.014-.017a1.13 1.13 0 0 1 .113-1.58L12.162 0l9.78 8.697a1.13 1.13 0 0 1 .113 1.58l-.014.017a1.12 1.12 0 0 1-.78.385 1.086 1.086 0 0 1-.796-.271l-8.077-7.211Z"/></symbol><symbol fill="currentColor" viewBox="0 0 35 35" id="info"><path d="M16.23 14.961h1.27v11.424h1.27M34 17.5a16.5 16.5 0 1 1-33 0 16.5 16.5 0 0 1 33 0Z" stroke="#3EBEC4" stroke-width="2" stroke-linecap="round" stroke-linejoin="round"/><path d="M18.769 9.25a1.27 1.27 0 1 1-2.539 0 1.27 1.27 0 0 1 2.539 0Z" stroke="#3EBEC4"/></symbol><symbol fill="currentColor" viewBox="0 0 15 12" id="list"><path d="M3.75 0H15v1.2H3.75V0Zm0 10.8H15V12H3.75v-1.2Zm0-5.4H15v1.2H3.75V5.4ZM0 5.4h1.25v1.2H0V5.4ZM0 0h1.25v1.2H0V0Zm0 10.8h1.25V12H0v-1.2Z"/></symbol><symbol fill="currentColor" viewBox="0 0 18 18" id="marker"><path d="M8.998 0c-3.964 0-7.19 3.139-7.19 6.996 0 .041 0 .091.003.146l.001.067c.025.833.199 1.64.517 2.405V9.657l.128.244c.074.142.157.283.247.418.26.387.642.905 1.138 1.54l.055.07.002.002c1.416 1.804 3.427 4.152 4.233 5.086L8.98 18l.852-.979c.823-.945 2.89-3.339 4.325-5.164a26.67 26.67 0 0 0 1.125-1.51c.073-.108.142-.221.204-.335l.014-.026.013-.026c.412-.855.638-1.77.671-2.721l.001-.02v-.004c.002-.067.004-.139.004-.219C16.189 3.14 12.963 0 8.999 0Zm6.062 7.193v.006a5.682 5.682 0 0 1-.56 2.272 3.124 3.124 0 0 1-.15.247c-.259.383-.637.885-1.077 1.443-1.444 1.837-3.557 4.28-4.289 5.121-.727-.842-2.815-3.275-4.253-5.115l-.002-.001A26.598 26.598 0 0 1 3.64 9.694a3.306 3.306 0 0 1-.185-.313l-.001-.002a5.662 5.662 0 0 1-.518-2.214v-.047c-.002-.04-.002-.08-.002-.122 0-3.242 2.715-5.871 6.064-5.871 3.35 0 6.066 2.629 6.066 5.871 0 .066-.001.132-.004.197Z"/><path d="M9 3.922a3.097 3.097 0 0 0-3.094 3.094A3.097 3.097 0 0 0 9 10.109a3.097 3.097 0 0 0 3.094-3.093A3.097 3.097 0 0 0 9 3.922Zm0 5.062a1.969 1.969 0 1 1 0-3.937 1.969 1.969 0 0 1 0 3.937Z"/></symbol><symbol fill="currentColor" viewBox="0 0 46 36" id="menu"><path d="M16.52 9.5h23M16.52 26.5h23M6.52 17.5h33" stroke="#1C1C1E" stroke-width="2.903" stroke-linecap="round"/></symbol><symbol fill="currentColor" viewBox="0 0 22 22" id="minus"><path d="M6 11h10" stroke="#000" stroke-width="1.5" stroke-linecap="round" stroke-linejoin="round"/></symbol><symbol fill="currentColor" viewBox="0 0 18 21" id="pin"><path d="M4.916 3.278a4.8 4.8 0 0 1 8.377 4.67l-4.042 8.085a.28.28 0 0 1-.503 0L4.705 7.948a4.77 4.77 0 0 1 .21-4.67Zm4.083 5.206A2.982 2.982 0 1 0 5.99 5.503 2.998 2.998 0 0 0 9 8.482Z"/></symbol><symbol fill="currentColor" viewBox="0 0 22 22" id="plus"><path d="M11.687 6.417a.688.688 0 1 0-1.375 0v3.895H6.416a.688.688 0 0 0 0 1.375h3.896v3.896a.688.688 0 0 0 1.375 0v-3.896h3.896a.687.687 0 1 0 0-1.375h-3.896V6.417Z"/></symbol><symbol fill="currentColor" viewBox="0 0 26 26" id="refresh"><g clip-path="url(#aza)" fill-rule="evenodd" clip-rule="evenodd"><path d="M8.543 8.424h2.95a1.063 1.063 0 0 1 0 2.124H7.48a1.063 1.063 0 0 1-1.063-1.062V5.474a1.063 1.063 0 0 1 2.125 0v2.95Z"/><path d="M5.725 13.446a7.424 7.424 0 0 0 2.17 4.854c2.909 2.908 7.628 2.91 10.535.003 2.906-2.906 2.904-7.626-.004-10.534C15.52 4.862 10.8 4.86 7.893 7.767a7.569 7.569 0 0 0-.553.616A1.064 1.064 0 0 0 9 9.71a5.327 5.327 0 0 1 7.924-.44 5.326 5.326 0 0 1 .002 7.53 5.326 5.326 0 0 1-9.079-3.472 1.063 1.063 0 0 0-2.122.117Z"/></g><defs><clipPath id="aza"><path d="M0 0h26v26H0z"/></clipPath></defs></symbol><symbol fill="currentColor" viewBox="0 0 18 18" id="search"><path fill-rule="evenodd" clip-rule="evenodd" d="M8.035 12.857a4.821 4.821 0 1 1 0-9.643 4.821 4.821 0 0 1 0 9.643ZM2.57 8.036a5.464 5.464 0 1 1 9.55 3.63l3.213 3.214a.321.321 0 1 1-.454.454l-3.214-3.214A5.464 5.464 0 0 1 2.57 8.036Z"/></symbol><symbol fill="currentColor" viewBox="0 0 27 26" id="search-btn"><path fill-rule="evenodd" clip-rule="evenodd" d="M18.228 18.243a.578.578 0 0 0-.848.02 7.29 7.29 0 0 1-1.7 1.411.616.616 0 0 0-.12.951l2.756 2.843c.33.341.777.532 1.245.532.467 0 .915-.191 1.245-.532.33-.34.515-.802.515-1.283 0-.482-.185-.944-.515-1.284l-2.578-2.658Z"/><path fill-rule="evenodd" clip-rule="evenodd" d="M18.355 7.468c-.11-.138-.335-.424-.511-.424h-7.502a1.74 1.74 0 0 0-1.737 1.74v7.541a1.74 1.74 0 0 0 1.737 1.74h7.642a.579.579 0 0 0 .434-.196 8.244 8.244 0 0 0 2.057-5.46c0-1.945-.996-3.53-2.12-4.941Zm-.415.736h-7.598a.577.577 0 0 0-.579.58v7.541a.579.579 0 0 0 .58.58h7.372a7.082 7.082 0 0 0 1.602-4.495 7.078 7.078 0 0 0-1.377-4.206Z"/><path fill-rule="evenodd" clip-rule="evenodd" d="M9.165 10.435h9.902c.31 0 .56-.19.56-.424 0-.234-.25-.424-.56-.424H9.165c-.309 0-.56.19-.56.424 0 .234.251.424.56.424Z"/><path fill-rule="evenodd" clip-rule="evenodd" d="M11.998 4.5a8.482 8.482 0 0 0-8.478 8.478 8.482 8.482 0 0 0 8.478 8.478 8.482 8.482 0 0 0 8.478-8.478A8.482 8.482 0 0 0 11.998 4.5Zm0 1.19a7.293 7.293 0 0 1 7.289 7.288 7.293 7.293 0 0 1-7.29 7.29 7.293 7.293 0 0 1-7.288-7.29 7.293 7.293 0 0 1 7.289-7.289Z"/><path fill-rule="evenodd" clip-rule="evenodd" d="M19.16 10.435H9.453v6.782h9.707l.91-1.899.303-1.628c.179-1.358.295-2.688-1.213-3.255Zm-7.584 5.426h3.64c.335 0 .607-.243.607-.543 0-.3-.272-.543-.607-.543h-3.64c-.334 0-.606.243-.606.543 0 .3.272.543.606.543Zm0-2.713h3.64c.335 0 .607-.243.607-.543 0-.3-.272-.543-.607-.543h-3.64c-.334 0-.606.244-.606.543 0 .3.272.543.606.543Z"/></symbol><symbol fill="currentColor" viewBox="0 0 19 17" id="star-filled"><path d="m10.69.692 2.215 4.192 4.952.672c1.09.148 1.527 1.4.738 2.119l-3.585 3.263.846 4.606c.187 1.015-.954 1.79-1.93 1.31l-4.43-2.175-4.429 2.175c-.975.48-2.116-.295-1.93-1.31l.847-4.607L.399 7.675c-.79-.72-.354-1.971.737-2.12l4.953-.671L8.304.692c.49-.923 1.898-.923 2.386 0Z"/></symbol><symbol fill="currentColor" viewBox="0 0 32 32" id="thumb-down"><path d="M10.248 19.064h2.242c-.333 1.421-.77 4.143.27 5.707.413.62 1.003.982 1.752 1.074a.491.491 0 0 0 .084.003c.77-.034 1.323-.4 1.642-1.088.252-.542.342-1.244.437-1.987.15-1.161.318-2.47 1.108-3.541l2.112-.168h3.01a1.784 1.784 0 0 0 1.782-1.782v-7.9a1.784 1.784 0 0 0-1.782-1.783h-3.014c-.591-.039-1.103-.328-1.645-.634-.676-.38-1.442-.813-2.465-.813a4244.275 4244.275 0 0 0-5.533.001 2.942 2.942 0 0 0-2.934 2.935v7.042a2.938 2.938 0 0 0 2.934 2.934Zm13.44-9.682v7.9a.783.783 0 0 1-.783.782h-1.611V8.6h1.611a.783.783 0 0 1 .782.783ZM8.313 9.088a1.941 1.941 0 0 1 1.934-1.935 6565.29 6565.29 0 0 0 5.533-.001c.76 0 1.35.332 1.973.684.621.35 1.264.713 2.092.763H20.294v9.465h-.418c-.014 0-.027 0-.04.002l-2.352.187a.501.501 0 0 0-.347.181c-1.082 1.322-1.288 2.924-1.453 4.212-.203 1.576-.343 2.148-1.09 2.201a1.382 1.382 0 0 1-1.001-.63c-.792-1.19-.483-3.716.023-5.517a.5.5 0 0 0-.482-.636H10.25a1.937 1.937 0 0 1-1.935-1.934V9.088Z"/></symbol><symbol fill="currentColor" viewBox="0 0 32 32" id="thumb-up"><path d="M21.752 12.936H19.51c.333-1.421.77-4.143-.27-5.707-.413-.62-1.003-.982-1.752-1.074a.5.5 0 0 0-.084-.003c-.77.034-1.323.4-1.642 1.088-.252.542-.342 1.244-.437 1.987-.15 1.161-.318 2.47-1.108 3.541l-2.112.168h-3.01a1.784 1.784 0 0 0-1.783 1.782v7.9a1.784 1.784 0 0 0 1.783 1.783h3.014c.591.039 1.103.328 1.645.634.676.38 1.442.813 2.465.813a4244.258 4244.258 0 0 0 5.532-.001 2.942 2.942 0 0 0 2.935-2.935V15.87a2.938 2.938 0 0 0-2.934-2.934Zm-13.44 9.683v-7.901a.783.783 0 0 1 .783-.782h1.611V23.4H9.095a.783.783 0 0 1-.783-.782Zm15.374.293a1.941 1.941 0 0 1-1.934 1.935h-3.01l-2.523.001c-.76 0-1.35-.332-1.973-.684-.621-.35-1.264-.713-2.092-.763H11.706v-9.465h.418c.014 0 .027 0 .04-.002l2.352-.187a.501.501 0 0 0 .347-.181c1.082-1.322 1.288-2.924 1.453-4.212.203-1.576.343-2.148 1.09-2.201a1.382 1.382 0 0 1 1.001.63c.792 1.19.483 3.716-.023 5.517a.5.5 0 0 0 .482.636h2.885a1.937 1.937 0 0 1 1.935 1.934v7.042Z"/></symbol><symbol fill="currentColor" viewBox="0 0 15 18" id="trash"><path d="M11.594 18H3.479c-.959 0-1.74-.756-1.74-1.687L1.136 2.25h12.803l-.606 14.087c0 .907-.78 1.664-1.738 1.664ZM2.344 3.376l.555 12.915c0 .334.26.586.58.586h8.115c.32 0 .58-.252.58-.563l.555-12.938H2.344Z"/><path d="M4.639 5.624h1.159v9h-1.16v-9ZM6.957 5.624h1.16v9h-1.16v-9ZM9.275 5.625h1.16v9h-1.16v-9ZM0 2.25h15v1.124H0V2.25Z"/><path d="M11.014 2.812h-1.16V1.125H5.219v1.687h-1.16V0h6.956v2.812Z"/></symbol><symbol fill="currentColor" viewBox="0 0 18 20" id="user"><path d="M13.018 8.447a4.96 4.96 0 0 0 .72-2.536 4.88 4.88 0 0 0-1.374-3.437 4.679 4.679 0 0 0-3.347-1.447h-.029a4.668 4.668 0 0 0-3.351 1.414 4.876 4.876 0 0 0-1.403 3.442c0 .912.248 1.8.72 2.568A4.75 4.75 0 0 0 7.511 10.5c.024.004.042.014.066.019a4.802 4.802 0 0 0 .71.167c.047.005.094.014.14.019.015 0 .029.005.043.005.042.004.084.01.126.01.018 0 .033.004.051.004.042.005.084.005.126.005h.047c.056 0 .112.005.168.005.057 0 .113 0 .169-.005h.046c.043 0 .085-.005.127-.005.018 0 .032-.005.051-.005.042-.005.084-.01.122-.01.014 0 .028-.004.042-.004.046-.005.093-.01.14-.02.01 0 .014 0 .023-.004.234-.038.463-.09.688-.162.023-.005.042-.015.065-.02a4.78 4.78 0 0 0 2.557-2.052ZM1.015 16.745a.487.487 0 0 0 .158.497C3.46 19.047 6.169 20 9.003 20c2.828 0 5.536-.953 7.824-2.758a.486.486 0 0 0 .158-.497c-.2-.802-.499-1.572-.89-2.288-1.11-2.02-3.357-2.93-5.47-2.215a5.038 5.038 0 0 1-3.245 0A4.515 4.515 0 0 0 5.924 12c-1.627 0-3.158.898-4.015 2.457a9.13 9.13 0 0 0-.894 2.288Z"/></symbol></svg>