<svg width="72" height="72" viewBox="0 0 72 72" fill="none" xmlns="http://www.w3.org/2000/svg">
    <g clip-path="url(#clip0_715_31540)">
        <path
            d="M63.147 34.5068L36.5756 10.5067C36.418 10.3645 36.2132 10.2858 36.0009 10.2858C35.7886 10.2858 35.5839 10.3645 35.4263 10.5067L24.0009 20.8264V20.1429C24.0004 19.6884 23.8196 19.2527 23.4982 18.9313C23.1769 18.6099 22.7411 18.4291 22.2866 18.4286H18.0009C17.5464 18.4291 17.1107 18.6099 16.7893 18.9313C16.4679 19.2527 16.2871 19.6884 16.2866 20.1429V27.7942L8.85485 34.5068C8.72629 34.6229 8.63594 34.7752 8.5957 34.9438C8.55547 35.1123 8.56724 35.289 8.62945 35.4507C8.69167 35.6124 8.80142 35.7514 8.94424 35.8495C9.08706 35.9476 9.25624 36.0001 9.42948 36.0001H26.3509C26.7333 35.4871 27.122 34.9803 27.5044 34.4823C27.5556 34.4156 27.6033 34.352 27.6542 34.2858H11.6573L36.0009 12.2978L60.3445 34.2858H44.2285C44.2721 34.3384 44.3146 34.3902 44.3585 34.4431C44.7756 34.9464 45.2 35.4609 45.6222 36.0001H62.5723C62.7456 36.0001 62.9148 35.9476 63.0576 35.8495C63.2004 35.7514 63.3102 35.6124 63.3724 35.4507C63.4346 35.289 63.4464 35.1123 63.4061 34.9438C63.3659 34.7752 63.2755 34.6229 63.147 34.5068ZM22.2866 22.3748L18.0009 26.2458V20.1429H22.2866V22.3748Z"
            fill="#2D4356" />
        <path
            d="M50.5375 53.7182C50.9041 47.5807 48.2395 42.7616 45.3052 38.4677C44.5801 37.4072 43.7958 36.4607 43.0372 35.5456C42.1401 34.5099 41.3112 33.417 40.5558 32.2739C40.7762 30.7524 41.0948 29.2467 41.5097 27.7663C41.6444 27.2704 41.8479 26.7959 42.1142 26.3564C42.4975 25.8475 42.717 25.2341 42.7437 24.5975C42.732 24.1544 42.5686 23.7287 42.2809 23.3915C41.9931 23.0543 41.5984 22.826 41.1627 22.7447C40.4708 22.6369 39.7639 22.7981 39.1872 23.1953C38.7553 23.4562 38.3043 23.9112 37.783 23.9663C37.3926 24.0076 37.2833 23.8015 37.0982 23.5023C36.7248 22.8988 36.1672 22.2291 35.3771 22.3083C34.5806 22.3881 34.0083 23.1629 33.5301 23.724C33.3634 23.9196 33.1805 24.1803 32.9006 24.1985C32.5865 24.219 32.2683 23.899 32.0406 23.7157C31.3414 23.1528 30.5454 22.7149 29.6624 23.1944C28.7235 23.7043 28.5503 24.8928 28.9885 25.7929C29.2296 26.2879 29.5385 26.745 29.8121 27.2218C30.0661 27.6953 30.2708 28.1938 30.4226 28.7092C30.7899 29.8658 31.0736 31.0472 31.2716 32.2444C30.5375 33.3535 29.6871 34.461 28.8628 35.5347C28.1277 36.4921 27.3674 37.4821 26.6938 38.4679C23.7591 42.7624 21.0941 47.5822 21.4618 53.7182C21.7213 58.0488 24.6312 61.9794 28.5581 63.7437C31.5438 65.0851 34.8457 65.2725 38.0721 65.0781C43.7699 64.7347 50.1011 61.0332 50.5375 53.7182ZM31.0297 25.8064C30.9776 25.7286 30.9213 25.6489 30.8636 25.5672C30.6631 25.2835 30.4136 24.9305 30.4542 24.7411C30.4554 24.7312 30.4595 24.722 30.466 24.7145C30.4725 24.707 30.4811 24.7016 30.4907 24.699C30.7067 24.8058 30.906 24.9436 31.082 25.1081C31.3456 25.3427 31.637 25.5439 31.9496 25.7072C32.4889 25.9686 33.5585 26.2264 34.6699 25.028C34.8064 24.8738 34.935 24.7128 35.0549 24.5454C35.1705 24.3839 35.2951 24.2291 35.4282 24.0817C35.4969 24.1723 35.5791 24.3052 35.6402 24.4039C35.7933 24.6724 35.9795 24.9206 36.1944 25.1427C36.4503 25.3608 36.7505 25.5206 37.0743 25.611C37.3981 25.7013 37.7377 25.7201 38.0696 25.666C38.6464 25.5478 39.1883 25.2985 39.6535 24.9376C39.7882 24.8459 39.9261 24.7515 40.0728 24.663C40.2842 24.496 40.5488 24.4111 40.8178 24.4238C40.9019 24.4412 41.0277 24.5094 41.0298 24.6266C40.979 24.9255 40.853 25.2065 40.6636 25.4432C40.519 25.6618 40.39 25.8904 40.2777 26.1272C39.6629 27.4927 39.1409 30.3362 38.9223 31.6449H32.9044C32.1521 27.522 31.0775 25.8775 31.0297 25.8064ZM37.9691 63.3667C33.2792 63.6493 28.2091 62.9659 25.1362 58.9796C23.9692 57.4234 23.2864 55.5578 23.1731 53.6159C22.8362 47.9942 25.3463 43.4781 28.1092 39.4351C28.7561 38.4884 29.4682 37.5608 30.2224 36.5787C31.024 35.5349 31.8441 34.4584 32.5825 33.3592H39.2264C39.9916 34.5006 40.8234 35.596 41.7174 36.6396C42.4511 37.5246 43.2097 38.4399 43.89 39.4352C46.6523 43.4773 49.1622 47.993 48.8261 53.6161C48.4501 59.9224 43.1021 63.0574 37.9691 63.3667Z"
            fill="#0BCEB2" />
        <path
            d="M36 42C34.22 42 32.4799 42.5278 30.9999 43.5168C29.5198 44.5057 28.3663 45.9113 27.6851 47.5558C27.0039 49.2004 26.8257 51.01 27.1729 52.7558C27.5202 54.5016 28.3774 56.1053 29.636 57.364C30.8947 58.6226 32.4984 59.4798 34.2442 59.8271C35.99 60.1743 37.7996 59.9961 39.4442 59.3149C41.0887 58.6337 42.4943 57.4802 43.4832 56.0001C44.4722 54.5201 45 52.78 45 51C44.9973 48.6139 44.0483 46.3262 42.361 44.639C40.6738 42.9517 38.3861 42.0027 36 42ZM36 58.2857C34.559 58.2857 33.1504 57.8584 31.9523 57.0578C30.7541 56.2573 29.8203 55.1194 29.2689 53.7881C28.7174 52.4568 28.5732 50.9919 28.8543 49.5786C29.1354 48.1653 29.8293 46.8671 30.8482 45.8482C31.8672 44.8293 33.1653 44.1354 34.5786 43.8543C35.9919 43.5732 37.4568 43.7174 38.7881 44.2689C40.1194 44.8203 41.2573 45.7541 42.0579 46.9523C42.8584 48.1504 43.2857 49.559 43.2857 51C43.2836 52.9316 42.5153 54.7835 41.1494 56.1494C39.7835 57.5153 37.9316 58.2836 36 58.2857Z"
            fill="#2D4356" />
        <path
            d="M36.2917 50.2094H35.7045C35.628 50.2139 35.5514 50.2018 35.48 50.174C35.4086 50.1462 35.344 50.1033 35.2907 50.0482C35.2374 49.9931 35.1966 49.9272 35.1711 49.8549C35.1456 49.7826 35.1361 49.7057 35.143 49.6294C35.1386 49.4853 35.1861 49.3445 35.277 49.2326C35.3329 49.1776 35.4001 49.1355 35.4739 49.1091C35.5477 49.0827 35.6264 49.0726 35.7045 49.0796H37.3495C37.5768 49.0796 37.7949 48.9893 37.9556 48.8286C38.1164 48.6678 38.2067 48.4498 38.2067 48.2225C38.2067 47.9952 38.1164 47.7771 37.9556 47.6164C37.7949 47.4556 37.5768 47.3653 37.3495 47.3653H37.2085V46.7143C37.2085 46.487 37.1182 46.269 36.9574 46.1082C36.7967 45.9475 36.5787 45.8572 36.3513 45.8572C36.124 45.8572 35.906 45.9475 35.7452 46.1082C35.5845 46.269 35.4942 46.487 35.4942 46.7143V47.3755C34.924 47.4078 34.3891 47.6615 34.0032 48.0825C33.6174 48.5035 33.4113 49.0586 33.4288 49.6294C33.4212 49.9311 33.4748 50.2313 33.5862 50.5119C33.6977 50.7925 33.8647 51.0476 34.0773 51.2619C34.2899 51.4762 34.5436 51.6454 34.8233 51.7591C35.1029 51.8728 35.4027 51.9288 35.7045 51.9237H36.2917C36.3666 51.9139 36.4428 51.9211 36.5146 51.9448C36.5864 51.9685 36.6519 52.0081 36.7063 52.0607C36.7606 52.1132 36.8024 52.1773 36.8286 52.2482C36.8548 52.3192 36.8646 52.3951 36.8573 52.4703C36.861 52.6238 36.8096 52.7735 36.7125 52.8924C36.6586 52.9486 36.5929 52.9922 36.5201 53.0199C36.4474 53.0477 36.3693 53.0589 36.2917 53.0529H34.6465C34.4191 53.0529 34.2011 53.1432 34.0404 53.304C33.8796 53.4647 33.7893 53.6827 33.7893 53.91C33.7893 54.1374 33.8796 54.3554 34.0404 54.5161C34.2011 54.6769 34.4191 54.7672 34.6465 54.7672H35.4942V55.2857C35.4942 55.5131 35.5845 55.7311 35.7452 55.8918C35.906 56.0526 36.124 56.1429 36.3513 56.1429C36.5787 56.1429 36.7967 56.0526 36.9574 55.8918C37.1182 55.7311 37.2085 55.5131 37.2085 55.2857V54.5882C37.5115 54.4636 37.7819 54.2711 37.9989 54.0256C38.3727 53.5942 38.5764 53.0412 38.5716 52.4703C38.5805 52.1694 38.5274 51.8699 38.4157 51.5903C38.304 51.3107 38.136 51.0571 37.9223 50.8451C37.7085 50.6331 37.4535 50.4673 37.173 50.358C36.8925 50.2486 36.5925 50.1981 36.2917 50.2094Z"
            fill="#0BCEB2" />
        <path
            d="M0.857143 65.1429C1.33053 65.1429 1.71429 64.7591 1.71429 64.2857C1.71429 63.8123 1.33053 63.4286 0.857143 63.4286C0.383756 63.4286 0 63.8123 0 64.2857C0 64.7591 0.383756 65.1429 0.857143 65.1429Z"
            fill="#2D4356" />
        <path
            d="M4.71512 63.4286H3.42941C3.20208 63.4286 2.98406 63.5189 2.82332 63.6796C2.66257 63.8404 2.57227 64.0584 2.57227 64.2857C2.57227 64.5131 2.66257 64.7311 2.82332 64.8918C2.98406 65.0526 3.20208 65.1429 3.42941 65.1429H4.71512C4.94245 65.1429 5.16047 65.0526 5.32121 64.8918C5.48196 64.7311 5.57227 64.5131 5.57227 64.2857C5.57227 64.0584 5.48196 63.8404 5.32121 63.6796C5.16047 63.5189 4.94245 63.4286 4.71512 63.4286Z"
            fill="#2D4356" />
        <path
            d="M68.5706 63.4286H67.2849C67.0575 63.4286 66.8395 63.5189 66.6788 63.6796C66.518 63.8404 66.4277 64.0584 66.4277 64.2857C66.4277 64.5131 66.518 64.7311 66.6788 64.8918C66.8395 65.0526 67.0575 65.1429 67.2849 65.1429H68.5706C68.7979 65.1429 69.0159 65.0526 69.1767 64.8918C69.3374 64.7311 69.4277 64.5131 69.4277 64.2857C69.4277 64.0584 69.3374 63.8404 69.1767 63.6796C69.0159 63.5189 68.7979 63.4286 68.5706 63.4286Z"
            fill="#2D4356" />
        <path
            d="M71.1423 65.1429C71.6157 65.1429 71.9994 64.7591 71.9994 64.2857C71.9994 63.8123 71.6157 63.4286 71.1423 63.4286C70.6689 63.4286 70.2852 63.8123 70.2852 64.2857C70.2852 64.7591 70.6689 65.1429 71.1423 65.1429Z"
            fill="#2D4356" />
        <path
            d="M50.6368 66.8572H47.0764C46.8609 66.8744 46.6598 66.9722 46.5132 67.1311C46.3666 67.2899 46.2852 67.4982 46.2852 67.7143C46.2852 67.9305 46.3666 68.1387 46.5132 68.2976C46.6598 68.4564 46.8609 68.5542 47.0764 68.5715H50.6368C50.8523 68.5542 51.0534 68.4564 51.2 68.2976C51.3466 68.1387 51.428 67.9305 51.428 67.7143C51.428 67.4982 51.3466 67.2899 51.2 67.1311C51.0534 66.9722 50.8523 66.8744 50.6368 66.8572Z"
            fill="#0BCEB2" />
        <path
            d="M24.9239 66.8572H21.3635C21.148 66.8744 20.9469 66.9722 20.8003 67.1311C20.6537 67.2899 20.5723 67.4982 20.5723 67.7143C20.5723 67.9305 20.6537 68.1387 20.8003 68.2976C20.9469 68.4564 21.148 68.5542 21.3635 68.5715H24.9239C25.1394 68.5542 25.3405 68.4564 25.4871 68.2976C25.6337 68.1387 25.7151 67.9305 25.7151 67.7143C25.7151 67.4982 25.6337 67.2899 25.4871 67.1311C25.3405 66.9722 25.1394 66.8744 24.9239 66.8572Z"
            fill="#0BCEB2" />
        <path
            d="M44.5723 66.8572H27.4294C27.2021 66.8572 26.9841 66.9475 26.8233 67.1082C26.6626 67.269 26.5723 67.487 26.5723 67.7143C26.5723 67.9416 26.6626 68.1597 26.8233 68.3204C26.9841 68.4812 27.2021 68.5715 27.4294 68.5715H34.2608V69.4286H30.858C30.6307 69.4286 30.4126 69.5189 30.2519 69.6797C30.0911 69.8404 30.0008 70.0584 30.0008 70.2857C30.0008 70.5131 30.0911 70.7311 30.2519 70.8918C30.4126 71.0526 30.6307 71.1429 30.858 71.1429H41.5723C41.7996 71.1429 42.0176 71.0526 42.1784 70.8918C42.3391 70.7311 42.4294 70.5131 42.4294 70.2857C42.4294 70.0584 42.3391 69.8404 42.1784 69.6797C42.0176 69.5189 41.7996 69.4286 41.5723 69.4286H37.7408V68.5715H44.5723C44.7996 68.5715 45.0176 68.4812 45.1784 68.3204C45.3391 68.1597 45.4294 67.9416 45.4294 67.7143C45.4294 67.487 45.3391 67.269 45.1784 67.1082C45.0176 66.9475 44.7996 66.8572 44.5723 66.8572Z"
            fill="#0BCEB2" />
        <path
            d="M64.5958 63.4286H59.1438V37.7144H57.4295V63.4286H14.5724V37.7144H12.8581V63.4286H7.40611C7.28417 63.4127 7.16024 63.423 7.04258 63.4588C6.92493 63.4945 6.81626 63.555 6.72384 63.6362C6.63142 63.7173 6.55738 63.8172 6.50665 63.9292C6.45593 64.0412 6.42969 64.1628 6.42969 64.2858C6.42969 64.4088 6.45593 64.5303 6.50665 64.6423C6.55738 64.7544 6.63142 64.8543 6.72384 64.9354C6.81626 65.0165 6.92493 65.077 7.04258 65.1128C7.16024 65.1486 7.28417 65.1589 7.40611 65.1429H64.5958C64.7177 65.1589 64.8417 65.1486 64.9593 65.1128C65.077 65.077 65.1857 65.0165 65.2781 64.9354C65.3705 64.8543 65.4445 64.7544 65.4953 64.6423C65.546 64.5303 65.5722 64.4088 65.5722 64.2858C65.5722 64.1628 65.546 64.0412 65.4953 63.9292C65.4445 63.8172 65.3705 63.7173 65.2781 63.6362C65.1857 63.555 65.077 63.4945 64.9593 63.4588C64.8417 63.423 64.7177 63.4127 64.5958 63.4286Z"
            fill="#2D4356" />
        <path
            d="M30.5181 10.4592C30.7724 10.4592 31.021 10.3838 31.2324 10.2426C31.4439 10.1013 31.6087 9.90049 31.706 9.66555C31.8033 9.43062 31.8288 9.17211 31.7791 8.9227C31.7295 8.6733 31.6071 8.44421 31.4273 8.26439C31.2475 8.08458 31.0184 7.96213 30.769 7.91252C30.5196 7.86291 30.261 7.88837 30.0261 7.98569C29.7912 8.083 29.5904 8.24779 29.4491 8.45923C29.3078 8.67066 29.2324 8.91924 29.2324 9.17353C29.2328 9.51441 29.3684 9.84121 29.6094 10.0822C29.8505 10.3233 30.1773 10.4589 30.5181 10.4592ZM30.5181 8.53068C30.6453 8.53068 30.7696 8.56838 30.8753 8.63902C30.981 8.70965 31.0634 8.81006 31.1121 8.92752C31.1607 9.04499 31.1734 9.17425 31.1486 9.29895C31.1238 9.42365 31.0626 9.5382 30.9727 9.6281C30.8828 9.71801 30.7683 9.77923 30.6436 9.80404C30.5188 9.82884 30.3896 9.81611 30.2721 9.76746C30.1547 9.7188 30.0543 9.6364 29.9836 9.53069C29.913 9.42497 29.8753 9.30068 29.8753 9.17353C29.8754 9.00309 29.9432 8.83967 30.0638 8.71915C30.1843 8.59863 30.3477 8.53084 30.5181 8.53068Z"
            fill="#2D4356" />
        <path
            d="M59.9587 23.9592C59.7892 23.9592 59.6235 24.0095 59.4825 24.1037C59.3415 24.1979 59.2317 24.3317 59.1668 24.4884C59.1019 24.645 59.085 24.8173 59.118 24.9836C59.1511 25.1499 59.2327 25.3026 59.3526 25.4225C59.4725 25.5423 59.6252 25.624 59.7915 25.657C59.9578 25.6901 60.1301 25.6731 60.2867 25.6083C60.4433 25.5434 60.5772 25.4335 60.6714 25.2926C60.7656 25.1516 60.8158 24.9859 60.8158 24.8164C60.8156 24.5891 60.7252 24.3713 60.5645 24.2106C60.4038 24.0499 60.186 23.9595 59.9587 23.9592ZM59.9587 25.2449C59.8739 25.2449 59.7911 25.2198 59.7206 25.1727C59.6501 25.1256 59.5952 25.0587 59.5628 24.9804C59.5303 24.9021 59.5218 24.8159 59.5384 24.7328C59.5549 24.6496 59.5957 24.5733 59.6557 24.5133C59.7156 24.4534 59.792 24.4126 59.8751 24.396C59.9582 24.3795 60.0444 24.388 60.1227 24.4204C60.201 24.4529 60.268 24.5078 60.3151 24.5783C60.3621 24.6487 60.3873 24.7316 60.3873 24.8164C60.3872 24.93 60.342 25.0389 60.2616 25.1193C60.1813 25.1996 60.0723 25.2448 59.9587 25.2449Z"
            fill="#2D4356" />
        <path
            d="M50.531 11.5306C50.3614 11.5306 50.1957 11.5809 50.0548 11.6751C49.9138 11.7693 49.8039 11.9031 49.7391 12.0598C49.6742 12.2164 49.6572 12.3887 49.6903 12.555C49.7234 12.7213 49.805 12.874 49.9249 12.9939C50.0448 13.1137 50.1975 13.1954 50.3638 13.2285C50.53 13.2615 50.7024 13.2446 50.859 13.1797C51.0156 13.1148 51.1495 13.0049 51.2437 12.864C51.3378 12.723 51.3881 12.5573 51.3881 12.3878C51.3879 12.1605 51.2975 11.9427 51.1368 11.782C50.9761 11.6213 50.7582 11.5309 50.531 11.5306ZM50.531 12.8164C50.4462 12.8164 50.3633 12.7912 50.2929 12.7441C50.2224 12.697 50.1675 12.6301 50.135 12.5518C50.1026 12.4735 50.0941 12.3873 50.1106 12.3042C50.1272 12.221 50.168 12.1447 50.2279 12.0847C50.2879 12.0248 50.3642 11.984 50.4474 11.9674C50.5305 11.9509 50.6167 11.9594 50.695 11.9918C50.7733 12.0243 50.8402 12.0792 50.8873 12.1497C50.9344 12.2202 50.9595 12.303 50.9595 12.3878C50.9594 12.5014 50.9142 12.6104 50.8339 12.6907C50.7535 12.7711 50.6446 12.8162 50.531 12.8164Z"
            fill="#2D4356" />
        <path
            d="M69.0661 13.8878C68.8966 13.8878 68.7309 13.9381 68.5899 14.0323C68.449 14.1265 68.3391 14.2603 68.2742 14.4169C68.2094 14.5736 68.1924 14.7459 68.2255 14.9122C68.2585 15.0784 68.3402 15.2312 68.46 15.3511C68.5799 15.4709 68.7326 15.5526 68.8989 15.5856C69.0652 15.6187 69.2375 15.6017 69.3941 15.5369C69.5508 15.472 69.6846 15.3621 69.7788 15.2212C69.873 15.0802 69.9233 14.9145 69.9233 14.745C69.923 14.5177 69.8326 14.2998 69.6719 14.1392C69.5112 13.9785 69.2934 13.8881 69.0661 13.8878ZM69.0661 15.1735C68.9814 15.1735 68.8985 15.1484 68.828 15.1013C68.7575 15.0542 68.7026 14.9873 68.6702 14.909C68.6377 14.8307 68.6293 14.7445 68.6458 14.6613C68.6623 14.5782 68.7031 14.5019 68.7631 14.4419C68.823 14.382 68.8994 14.3412 68.9825 14.3246C69.0657 14.3081 69.1518 14.3166 69.2301 14.349C69.3084 14.3814 69.3754 14.4364 69.4225 14.5069C69.4696 14.5773 69.4947 14.6602 69.4947 14.745C69.4946 14.8586 69.4494 14.9675 69.369 15.0479C69.2887 15.1282 69.1798 15.1734 69.0661 15.1735Z"
            fill="#2D4356" />
        <path
            d="M16.0307 14.2092C16.0307 14.0397 15.9804 13.8739 15.8862 13.733C15.7921 13.592 15.6582 13.4822 15.5016 13.4173C15.3449 13.3524 15.1726 13.3354 15.0063 13.3685C14.8401 13.4016 14.6873 13.4832 14.5675 13.6031C14.4476 13.723 14.3659 13.8757 14.3329 14.042C14.2998 14.2082 14.3168 14.3806 14.3817 14.5372C14.4465 14.6938 14.5564 14.8277 14.6973 14.9219C14.8383 15.0161 15.004 15.0663 15.1735 15.0663C15.4008 15.0661 15.6187 14.9757 15.7794 14.815C15.94 14.6543 16.0304 14.4364 16.0307 14.2092ZM14.745 14.2092C14.745 14.1244 14.7701 14.0416 14.8172 13.9711C14.8643 13.9006 14.9312 13.8457 15.0095 13.8132C15.0879 13.7808 15.174 13.7723 15.2572 13.7889C15.3403 13.8054 15.4167 13.8462 15.4766 13.9061C15.5365 13.9661 15.5773 14.0424 15.5939 14.1256C15.6104 14.2087 15.6019 14.2949 15.5695 14.3732C15.5371 14.4515 15.4821 14.5184 15.4117 14.5655C15.3412 14.6126 15.2583 14.6378 15.1735 14.6378C15.0599 14.6377 14.951 14.5925 14.8706 14.5121C14.7903 14.4318 14.7451 14.3228 14.745 14.2092Z"
            fill="#2D4356" />
        <path
            d="M3.44613 17.8569L4.08341 17.019L3.68098 16.791L3.27212 17.7296H3.25841L2.8427 16.7974L2.43341 17.0323L3.06384 17.8504V17.8637L2.07812 17.7364V18.192L3.0707 18.0647V18.0784L2.43341 18.8962L2.8157 19.1379L3.25198 18.192H3.26484L3.66727 19.131L4.08984 18.8897L3.44613 18.0849V18.0716L4.45841 18.192V17.7364L3.44613 17.8702V17.8569Z"
            fill="#0BCEB2" />
        <path
            d="M14.9565 3.08652L14.5892 3.55752L14.8095 3.69681L15.0606 3.15209H15.0683L15.2998 3.69295L15.5432 3.55366L15.1725 3.09038V3.08266L15.7558 3.15209V2.88981L15.1725 2.96695V2.95924L15.5393 2.47666L15.3079 2.34509L15.0722 2.88552H15.0645L14.8253 2.34895L14.5892 2.48438L14.9526 2.95538V2.96309L14.3848 2.88981V3.15209L14.9565 3.07881V3.08652Z"
            fill="#0BCEB2" />
        <path
            d="M62.4501 2.86332V2.41632L61.4571 2.54746V2.53461L62.0824 1.71261L61.6877 1.48889L61.2865 2.40946H61.2728L60.8657 1.49532L60.4637 1.72546L61.0825 2.52818V2.54103L60.1152 2.41632V2.86332L61.089 2.73861V2.75146L60.4637 3.55375L60.8387 3.79075L61.2664 2.86332H61.2792L61.674 3.78432L62.0888 3.54732L61.4571 2.75789V2.74503L62.4501 2.86332Z"
            fill="#0BCEB2" />
        <path
            d="M41.5617 1.78375L42.1441 1.10961L41.8162 0.895749L41.4215 1.66675L41.41 1.66589L41.1082 0.857178L40.75 1.03375L41.2394 1.75804L41.2385 1.76918L40.4127 1.60975L40.3887 1.99461L41.2338 1.93932L41.233 1.95089L40.6518 2.60789L40.9617 2.83203L41.38 2.05632L41.3911 2.05718L41.6812 2.87103L42.0511 2.68975L41.5497 1.97618L41.5505 1.96503L42.3991 2.12018L42.4231 1.73489L41.5612 1.79489L41.5617 1.78375Z"
            fill="#0BCEB2" />
    </g>
    <defs>
        <clipPath id="clip0_715_31540">
            <rect width="72" height="72" fill="white" />
        </clipPath>
    </defs>
</svg>
    