<svg width="72" height="72" viewBox="0 0 72 72" fill="none" xmlns="http://www.w3.org/2000/svg">
<g clip-path="url(#clip0_2_6207)">
<path d="M63.145 34.5071L36.5736 10.5071C36.416 10.3649 36.2113 10.2861 35.999 10.2861C35.7867 10.2861 35.5819 10.3649 35.4243 10.5071L23.999 20.8268V20.1433C23.9984 19.6888 23.8177 19.253 23.4963 18.9317C23.1749 18.6103 22.7392 18.4295 22.2847 18.429H17.999C17.5445 18.4295 17.1087 18.6103 16.7874 18.9317C16.466 19.253 16.2852 19.6888 16.2847 20.1433V27.7946L8.85289 34.5071C8.72434 34.6233 8.63399 34.7756 8.59375 34.9441C8.55352 35.1126 8.56528 35.2894 8.6275 35.4511C8.68972 35.6127 8.79947 35.7518 8.94229 35.8499C9.0851 35.9479 9.25429 36.0004 9.42753 36.0004H26.3489C26.7313 35.4875 27.1201 34.9806 27.5025 34.4826C27.5536 34.416 27.6013 34.3524 27.6522 34.2861H11.6553L35.999 12.2982L60.3426 34.2861H44.2265C44.2701 34.3388 44.3127 34.3906 44.3565 34.4435C44.7737 34.9468 45.1981 35.4613 45.6202 36.0004H62.5704C62.7436 36.0004 62.9128 35.9479 63.0556 35.8499C63.1984 35.7518 63.3082 35.6127 63.3704 35.4511C63.4326 35.2894 63.4444 35.1126 63.4042 34.9441C63.3639 34.7756 63.2736 34.6233 63.145 34.5071ZM22.2847 22.3752L17.999 26.2462V20.1433H22.2847V22.3752Z" fill="#2D4356"/>
<path d="M50.5394 53.7181C50.906 47.5806 48.2415 42.7615 45.3072 38.4676C44.5821 37.407 43.7978 36.4605 43.0392 35.5454C42.1421 34.5098 41.3132 33.4169 40.5578 32.2738C40.7781 30.7523 41.0968 29.2466 41.5117 27.7662C41.6464 27.2703 41.8498 26.7957 42.1161 26.3563C42.4994 25.8473 42.719 25.2339 42.7456 24.5974C42.7339 24.1543 42.5706 23.7285 42.2828 23.3913C41.9951 23.0541 41.6004 22.8258 41.1646 22.7446C40.4727 22.6368 39.7659 22.798 39.1892 23.1951C38.7573 23.456 38.3063 23.9111 37.785 23.9662C37.3946 24.0074 37.2852 23.8014 37.1001 23.5022C36.7268 22.8987 36.1692 22.229 35.379 22.3082C34.5825 22.388 34.0102 23.1628 33.532 23.7239C33.3654 23.9194 33.1824 24.1802 32.9025 24.1984C32.5884 24.2189 32.2703 23.8989 32.0425 23.7156C31.3434 23.1527 30.5474 22.7147 29.6644 23.1943C28.7255 23.7042 28.5522 24.8926 28.9905 25.7928C29.2315 26.2878 29.5405 26.7448 29.814 27.2217C30.0681 27.6952 30.2727 28.1936 30.4246 28.7091C30.7918 29.8657 31.0756 31.0471 31.2736 32.2443C30.5395 33.3534 29.6891 34.4608 28.8648 35.5346C28.1296 36.4919 27.3694 37.482 26.6958 38.4678C23.7611 42.7623 21.0961 47.5821 21.4638 53.7181C21.7233 58.0487 24.6332 61.9793 28.56 63.7436C31.5458 65.085 34.8477 65.2724 38.074 65.078C43.7718 64.7345 50.1031 61.0331 50.5394 53.7181ZM31.0317 25.8063C30.9796 25.7285 30.9233 25.6487 30.8655 25.5671C30.665 25.2834 30.4156 24.9303 30.4562 24.741C30.4574 24.7311 30.4615 24.7219 30.468 24.7144C30.4745 24.7069 30.4831 24.7015 30.4926 24.6989C30.7087 24.8056 30.9079 24.9435 31.084 25.108C31.3475 25.3426 31.6389 25.5438 31.9516 25.7071C32.4909 25.9685 33.5604 26.2263 34.6718 25.0278C34.8084 24.8737 34.9369 24.7127 35.0569 24.5453C35.1724 24.3838 35.2971 24.229 35.4302 24.0816C35.4988 24.1722 35.581 24.305 35.6422 24.4038C35.7953 24.6723 35.9814 24.9205 36.1964 25.1426C36.4522 25.3607 36.7525 25.5205 37.0763 25.6108C37.4001 25.7012 37.7397 25.72 38.0715 25.6659C38.6483 25.5476 39.1902 25.2984 39.6554 24.9375C39.7902 24.8458 39.9281 24.7514 40.0748 24.6629C40.2861 24.4959 40.5507 24.4109 40.8198 24.4237C40.9039 24.4411 41.0297 24.5093 41.0318 24.6265C40.9809 24.9253 40.8549 25.2063 40.6655 25.443C40.5209 25.6617 40.392 25.8902 40.2797 26.1271C39.6649 27.4926 39.1429 30.3361 38.9242 31.6448H32.9064C32.1541 27.5219 31.0794 25.8774 31.0317 25.8063ZM37.9711 63.3666C33.2812 63.6492 28.211 62.9658 25.1381 58.9795C23.9711 57.4232 23.2884 55.5577 23.1751 53.6157C22.8382 47.9941 25.3483 43.478 28.1112 39.435C28.758 38.4883 29.4701 37.5606 30.2243 36.5786C31.0259 35.5348 31.846 34.4583 32.5845 33.3591H39.2283C39.9936 34.5005 40.8254 35.5958 41.7194 36.6395C42.4531 37.5245 43.2116 38.4398 43.892 39.435C46.6542 43.4772 49.1641 47.9929 48.8281 53.616C48.452 59.9223 43.1041 63.0573 37.9711 63.3666Z" fill="#4C7DA7"/>
<path d="M36 42C34.22 42 32.4799 42.5278 30.9999 43.5168C29.5198 44.5057 28.3663 45.9113 27.6851 47.5558C27.0039 49.2004 26.8257 51.01 27.1729 52.7558C27.5202 54.5016 28.3774 56.1053 29.636 57.364C30.8947 58.6226 32.4984 59.4798 34.2442 59.8271C35.99 60.1743 37.7996 59.9961 39.4442 59.3149C41.0887 58.6337 42.4943 57.4802 43.4832 56.0001C44.4722 54.5201 45 52.78 45 51C44.9973 48.6139 44.0483 46.3262 42.361 44.639C40.6738 42.9517 38.3861 42.0027 36 42ZM36 58.2857C34.559 58.2857 33.1504 57.8584 31.9523 57.0578C30.7541 56.2573 29.8203 55.1194 29.2689 53.7881C28.7174 52.4568 28.5732 50.9919 28.8543 49.5786C29.1354 48.1653 29.8293 46.8671 30.8482 45.8482C31.8672 44.8293 33.1653 44.1354 34.5786 43.8543C35.9919 43.5732 37.4568 43.7174 38.7881 44.2689C40.1194 44.8203 41.2573 45.7541 42.0579 46.9523C42.8584 48.1504 43.2857 49.559 43.2857 51C43.2836 52.9316 42.5153 54.7835 41.1494 56.1494C39.7835 57.5153 37.9316 58.2836 36 58.2857Z" fill="#2D4356"/>
<path d="M36.2897 50.2097H35.7025C35.626 50.2142 35.5495 50.2021 35.478 50.1743C35.4066 50.1464 35.3421 50.1035 35.2888 50.0484C35.2355 49.9934 35.1947 49.9274 35.1692 49.8551C35.1437 49.7829 35.1341 49.7059 35.1411 49.6296C35.1367 49.4856 35.1842 49.3447 35.275 49.2328C35.3309 49.1779 35.3981 49.1357 35.472 49.1093C35.5458 49.0829 35.6245 49.0729 35.7025 49.0799H37.3476C37.5749 49.0799 37.7929 48.9896 37.9537 48.8288C38.1144 48.6681 38.2047 48.4501 38.2047 48.2227C38.2047 47.9954 38.1144 47.7774 37.9537 47.6166C37.7929 47.4559 37.5749 47.3656 37.3476 47.3656H37.2065V46.7146C37.2065 46.4872 37.1162 46.2692 36.9555 46.1085C36.7947 45.9477 36.5767 45.8574 36.3494 45.8574C36.1221 45.8574 35.904 45.9477 35.7433 46.1085C35.5825 46.2692 35.4922 46.4872 35.4922 46.7146V47.3757C34.9221 47.408 34.3871 47.6617 34.0013 48.0827C33.6155 48.5038 33.4093 49.0588 33.4268 49.6296C33.4192 49.9314 33.4728 50.2316 33.5843 50.5121C33.6957 50.7927 33.8628 51.0478 34.0753 51.2621C34.2879 51.4765 34.5417 51.6456 34.8213 51.7593C35.101 51.8731 35.4007 51.9291 35.7025 51.924H36.2897C36.3647 51.9142 36.4409 51.9214 36.5127 51.9451C36.5845 51.9688 36.65 52.0084 36.7043 52.0609C36.7587 52.1134 36.8005 52.1776 36.8266 52.2485C36.8528 52.3194 36.8626 52.3953 36.8554 52.4706C36.8591 52.624 36.8077 52.7738 36.7106 52.8926C36.6567 52.9489 36.591 52.9924 36.5182 53.0202C36.4454 53.0479 36.3674 53.0592 36.2897 53.0531H34.6445C34.4172 53.0531 34.1992 53.1435 34.0384 53.3042C33.8777 53.4649 33.7874 53.683 33.7874 53.9103C33.7874 54.1376 33.8777 54.3556 34.0384 54.5164C34.1992 54.6771 34.4172 54.7674 34.6445 54.7674H35.4922V55.286C35.4922 55.5133 35.5825 55.7313 35.7433 55.8921C35.904 56.0528 36.122 56.1431 36.3494 56.1431C36.5767 56.1431 36.7947 56.0528 36.9555 55.8921C37.1162 55.7313 37.2065 55.5133 37.2065 55.286V54.5885C37.5096 54.4639 37.78 54.2714 37.9969 54.0258C38.3708 53.5944 38.5744 53.0414 38.5697 52.4706C38.5785 52.1696 38.5254 51.8701 38.4137 51.5905C38.302 51.311 38.1341 51.0573 37.9203 50.8454C37.7066 50.6334 37.4515 50.4676 37.171 50.3582C36.8905 50.2489 36.5906 50.1983 36.2897 50.2097Z" fill="#4C7DA7"/>
<path d="M0.857143 65.143C1.33053 65.143 1.71429 64.7592 1.71429 64.2859C1.71429 63.8125 1.33053 63.4287 0.857143 63.4287C0.383756 63.4287 0 63.8125 0 64.2859C0 64.7592 0.383756 65.143 0.857143 65.143Z" fill="#2D4356"/>
<path d="M4.71317 63.4287H3.42746C3.20013 63.4287 2.98211 63.519 2.82136 63.6798C2.66062 63.8405 2.57031 64.0585 2.57031 64.2859C2.57031 64.5132 2.66062 64.7312 2.82136 64.8919C2.98211 65.0527 3.20013 65.143 3.42746 65.143H4.71317C4.9405 65.143 5.15852 65.0527 5.31926 64.8919C5.48001 64.7312 5.57031 64.5132 5.57031 64.2859C5.57031 64.0585 5.48001 63.8405 5.31926 63.6798C5.15852 63.519 4.9405 63.4287 4.71317 63.4287Z" fill="#2D4356"/>
<path d="M68.5725 63.4287H67.2868C67.0595 63.4287 66.8415 63.519 66.6807 63.6798C66.52 63.8405 66.4297 64.0585 66.4297 64.2859C66.4297 64.5132 66.52 64.7312 66.6807 64.8919C66.8415 65.0527 67.0595 65.143 67.2868 65.143H68.5725C68.7999 65.143 69.0179 65.0527 69.1786 64.8919C69.3394 64.7312 69.4297 64.5132 69.4297 64.2859C69.4297 64.0585 69.3394 63.8405 69.1786 63.6798C69.0179 63.519 68.7999 63.4287 68.5725 63.4287Z" fill="#2D4356"/>
<path d="M71.1423 65.143C71.6157 65.143 71.9994 64.7592 71.9994 64.2859C71.9994 63.8125 71.6157 63.4287 71.1423 63.4287C70.6689 63.4287 70.2852 63.8125 70.2852 64.2859C70.2852 64.7592 70.6689 65.143 71.1423 65.143Z" fill="#2D4356"/>
<path d="M50.6368 66.8574H47.0764C46.8609 66.8747 46.6598 66.9725 46.5132 67.1313C46.3666 67.2902 46.2852 67.4984 46.2852 67.7146C46.2852 67.9307 46.3666 68.139 46.5132 68.2978C46.6598 68.4567 46.8609 68.5544 47.0764 68.5717H50.6368C50.8523 68.5544 51.0534 68.4567 51.2 68.2978C51.3466 68.139 51.428 67.9307 51.428 67.7146C51.428 67.4984 51.3466 67.2902 51.2 67.1313C51.0534 66.9725 50.8523 66.8747 50.6368 66.8574Z" fill="#4C7DA7"/>
<path d="M24.922 66.8574H21.3615C21.146 66.8747 20.945 66.9725 20.7984 67.1313C20.6517 67.2902 20.5703 67.4984 20.5703 67.7146C20.5703 67.9307 20.6517 68.139 20.7984 68.2978C20.945 68.4567 21.146 68.5544 21.3615 68.5717H24.922C25.1375 68.5544 25.3385 68.4567 25.4852 68.2978C25.6318 68.139 25.7132 67.9307 25.7132 67.7146C25.7132 67.4984 25.6318 67.2902 25.4852 67.1313C25.3385 66.9725 25.1375 66.8747 24.922 66.8574Z" fill="#4C7DA7"/>
<path d="M44.5703 66.8574H27.4275C27.2001 66.8574 26.9821 66.9477 26.8214 67.1085C26.6606 67.2692 26.5703 67.4872 26.5703 67.7146C26.5703 67.9419 26.6606 68.1599 26.8214 68.3207C26.9821 68.4814 27.2001 68.5717 27.4275 68.5717H34.2589V69.4289H30.856C30.6287 69.4289 30.4107 69.5192 30.2499 69.6799C30.0892 69.8406 29.9989 70.0587 29.9989 70.286C29.9989 70.5133 30.0892 70.7313 30.2499 70.8921C30.4107 71.0528 30.6287 71.1431 30.856 71.1431H41.5703C41.7976 71.1431 42.0157 71.0528 42.1764 70.8921C42.3372 70.7313 42.4275 70.5133 42.4275 70.286C42.4275 70.0587 42.3372 69.8406 42.1764 69.6799C42.0157 69.5192 41.7976 69.4289 41.5703 69.4289H37.7389V68.5717H44.5703C44.7976 68.5717 45.0157 68.4814 45.1764 68.3207C45.3372 68.1599 45.4275 67.9419 45.4275 67.7146C45.4275 67.4872 45.3372 67.2692 45.1764 67.1085C45.0157 66.9477 44.7976 66.8574 44.5703 66.8574Z" fill="#4C7DA7"/>
<path d="M64.5958 63.4282H59.1438V37.7139H57.4295V63.4282H14.5724V37.7139H12.8581V63.4282H7.40611C7.28417 63.4122 7.16024 63.4225 7.04258 63.4583C6.92493 63.4941 6.81626 63.5545 6.72384 63.6357C6.63142 63.7168 6.55738 63.8167 6.50665 63.9287C6.45593 64.0408 6.42969 64.1623 6.42969 64.2853C6.42969 64.4083 6.45593 64.5298 6.50665 64.6419C6.55738 64.7539 6.63142 64.8538 6.72384 64.9349C6.81626 65.0161 6.92493 65.0765 7.04258 65.1123C7.16024 65.1481 7.28417 65.1584 7.40611 65.1424H64.5958C64.7177 65.1584 64.8417 65.1481 64.9593 65.1123C65.077 65.0765 65.1857 65.0161 65.2781 64.9349C65.3705 64.8538 65.4445 64.7539 65.4953 64.6419C65.546 64.5298 65.5722 64.4083 65.5722 64.2853C65.5722 64.1623 65.546 64.0408 65.4953 63.9287C65.4445 63.8167 65.3705 63.7168 65.2781 63.6357C65.1857 63.5545 65.077 63.4941 64.9593 63.4583C64.8417 63.4225 64.7177 63.4122 64.5958 63.4282Z" fill="#2D4356"/>
<path d="M30.5201 10.4591C30.7744 10.4591 31.023 10.3837 31.2344 10.2424C31.4458 10.1012 31.6106 9.90037 31.7079 9.66543C31.8052 9.4305 31.8307 9.17198 31.7811 8.92258C31.7315 8.67318 31.609 8.44408 31.4292 8.26427C31.2494 8.08446 31.0203 7.96201 30.7709 7.9124C30.5215 7.86279 30.263 7.88825 30.0281 7.98557C29.7931 8.08288 29.5923 8.24767 29.4511 8.45911C29.3098 8.67054 29.2344 8.91912 29.2344 9.17341C29.2348 9.51428 29.3703 9.84108 29.6114 10.0821C29.8524 10.3232 30.1792 10.4587 30.5201 10.4591ZM30.5201 8.53055C30.6472 8.53055 30.7715 8.56826 30.8772 8.63889C30.983 8.70953 31.0654 8.80993 31.114 8.9274C31.1627 9.04487 31.1754 9.17412 31.1506 9.29883C31.1258 9.42353 31.0646 9.53807 30.9747 9.62798C30.8848 9.71788 30.7702 9.77911 30.6455 9.80392C30.5208 9.82872 30.3915 9.81599 30.2741 9.76733C30.1566 9.71868 30.0562 9.63628 29.9856 9.53056C29.9149 9.42485 29.8772 9.30056 29.8772 9.17341C29.8774 9.00297 29.9452 8.83955 30.0657 8.71903C30.1862 8.5985 30.3496 8.53072 30.5201 8.53055Z" fill="#2D4356"/>
<path d="M59.9587 23.959C59.7892 23.959 59.6235 24.0093 59.4825 24.1034C59.3415 24.1976 59.2317 24.3315 59.1668 24.4881C59.1019 24.6447 59.085 24.8171 59.118 24.9833C59.1511 25.1496 59.2327 25.3023 59.3526 25.4222C59.4725 25.5421 59.6252 25.6237 59.7915 25.6568C59.9578 25.6899 60.1301 25.6729 60.2867 25.608C60.4433 25.5431 60.5772 25.4333 60.6714 25.2923C60.7656 25.1514 60.8158 24.9857 60.8158 24.8161C60.8156 24.5889 60.7252 24.371 60.5645 24.2103C60.4038 24.0496 60.186 23.9592 59.9587 23.959ZM59.9587 25.2447C59.8739 25.2447 59.7911 25.2196 59.7206 25.1725C59.6501 25.1254 59.5952 25.0584 59.5628 24.9801C59.5303 24.9018 59.5218 24.8157 59.5384 24.7325C59.5549 24.6494 59.5957 24.573 59.6557 24.5131C59.7156 24.4531 59.792 24.4123 59.8751 24.3958C59.9582 24.3793 60.0444 24.3877 60.1227 24.4202C60.201 24.4526 60.268 24.5075 60.3151 24.578C60.3621 24.6485 60.3873 24.7314 60.3873 24.8161C60.3872 24.9298 60.342 25.0387 60.2616 25.119C60.1813 25.1994 60.0723 25.2446 59.9587 25.2447Z" fill="#2D4356"/>
<path d="M50.529 11.5303C50.3595 11.5303 50.1938 11.5805 50.0528 11.6747C49.9119 11.7689 49.802 11.9028 49.7371 12.0594C49.6722 12.216 49.6553 12.3884 49.6883 12.5546C49.7214 12.7209 49.8031 12.8736 49.9229 12.9935C50.0428 13.1134 50.1955 13.195 50.3618 13.2281C50.5281 13.2612 50.7004 13.2442 50.857 13.1793C51.0137 13.1144 51.1475 13.0046 51.2417 12.8636C51.3359 12.7227 51.3862 12.5569 51.3862 12.3874C51.3859 12.1602 51.2955 11.9423 51.1348 11.7816C50.9741 11.6209 50.7563 11.5305 50.529 11.5303ZM50.529 12.816C50.4443 12.816 50.3614 12.7909 50.2909 12.7438C50.2204 12.6967 50.1655 12.6297 50.1331 12.5514C50.1006 12.4731 50.0921 12.3869 50.1087 12.3038C50.1252 12.2207 50.166 12.1443 50.226 12.0844C50.2859 12.0244 50.3623 11.9836 50.4454 11.9671C50.5285 11.9505 50.6147 11.959 50.693 11.9915C50.7713 12.0239 50.8383 12.0788 50.8854 12.1493C50.9325 12.2198 50.9576 12.3027 50.9576 12.3874C50.9575 12.501 50.9123 12.61 50.8319 12.6903C50.7516 12.7707 50.6426 12.8159 50.529 12.816Z" fill="#2D4356"/>
<path d="M69.0681 13.8877C68.8986 13.8877 68.7328 13.938 68.5919 14.0321C68.4509 14.1263 68.3411 14.2602 68.2762 14.4168C68.2113 14.5734 68.1943 14.7458 68.2274 14.9121C68.2605 15.0783 68.3421 15.2311 68.462 15.3509C68.5819 15.4708 68.7346 15.5524 68.9009 15.5855C69.0671 15.6186 69.2395 15.6016 69.3961 15.5367C69.5527 15.4719 69.6866 15.362 69.7808 15.221C69.875 15.0801 69.9252 14.9144 69.9252 14.7448C69.925 14.5176 69.8346 14.2997 69.6739 14.139C69.5132 13.9783 69.2953 13.888 69.0681 13.8877ZM69.0681 15.1734C68.9833 15.1734 68.9005 15.1483 68.83 15.1012C68.7595 15.0541 68.7046 14.9872 68.6721 14.9088C68.6397 14.8305 68.6312 14.7444 68.6477 14.6612C68.6643 14.5781 68.7051 14.5017 68.765 14.4418C68.825 14.3819 68.9013 14.341 68.9845 14.3245C69.0676 14.308 69.1538 14.3165 69.2321 14.3489C69.3104 14.3813 69.3773 14.4363 69.4244 14.5067C69.4715 14.5772 69.4966 14.6601 69.4966 14.7448C69.4965 14.8585 69.4513 14.9674 69.371 15.0478C69.2907 15.1281 69.1817 15.1733 69.0681 15.1734Z" fill="#2D4356"/>
<path d="M16.0307 14.2087C16.0307 14.0392 15.9804 13.8735 15.8862 13.7325C15.7921 13.5915 15.6582 13.4817 15.5016 13.4168C15.3449 13.3519 15.1726 13.335 15.0063 13.368C14.8401 13.4011 14.6873 13.4827 14.5675 13.6026C14.4476 13.7225 14.3659 13.8752 14.3329 14.0415C14.2998 14.2078 14.3168 14.3801 14.3817 14.5367C14.4465 14.6933 14.5564 14.8272 14.6973 14.9214C14.8383 15.0156 15.004 15.0658 15.1735 15.0658C15.4008 15.0656 15.6187 14.9752 15.7794 14.8145C15.94 14.6538 16.0304 14.436 16.0307 14.2087ZM14.745 14.2087C14.745 14.1239 14.7701 14.0411 14.8172 13.9706C14.8643 13.9001 14.9312 13.8452 15.0095 13.8128C15.0879 13.7803 15.174 13.7718 15.2572 13.7884C15.3403 13.8049 15.4167 13.8457 15.4766 13.9057C15.5365 13.9656 15.5773 14.042 15.5939 14.1251C15.6104 14.2082 15.6019 14.2944 15.5695 14.3727C15.5371 14.451 15.4821 14.518 15.4117 14.565C15.3412 14.6121 15.2583 14.6373 15.1735 14.6373C15.0599 14.6372 14.951 14.592 14.8706 14.5116C14.7903 14.4313 14.7451 14.3223 14.745 14.2087Z" fill="#2D4356"/>
<path d="M3.44613 17.8569L4.08341 17.019L3.68098 16.791L3.27212 17.7296H3.25841L2.8427 16.7974L2.43341 17.0323L3.06384 17.8504V17.8637L2.07812 17.7364V18.192L3.0707 18.0647V18.0784L2.43341 18.8962L2.8157 19.1379L3.25198 18.192H3.26484L3.66727 19.131L4.08984 18.8897L3.44613 18.0849V18.0716L4.45841 18.192V17.7364L3.44613 17.8702V17.8569Z" fill="#4C7DA7"/>
<path d="M14.9545 3.08616L14.5872 3.55715L14.8075 3.69644L15.0587 3.15173H15.0664L15.2978 3.69258L15.5412 3.5533L15.1705 3.09001V3.0823L15.7538 3.15173V2.88944L15.1705 2.96658V2.95887L15.5374 2.4763L15.306 2.34473L15.0702 2.88515H15.0625L14.8234 2.34858L14.5872 2.48401L14.9507 2.95501V2.96273L14.3828 2.88944V3.15173L14.9545 3.07844V3.08616Z" fill="#4C7DA7"/>
<path d="M62.452 2.86369V2.41669L61.459 2.54783V2.53497L62.0843 1.71297L61.6896 1.48926L61.2885 2.40983H61.2748L60.8676 1.49569L60.4656 1.72583L61.0845 2.52854V2.5414L60.1172 2.41669V2.86369L61.0909 2.73897V2.75183L60.4656 3.55411L60.8406 3.79112L61.2683 2.86369H61.2812L61.6759 3.78469L62.0908 3.54769L61.459 2.75826V2.7454L62.452 2.86369Z" fill="#4C7DA7"/>
<path d="M41.5636 1.78399L42.1461 1.10985L41.8182 0.895993L41.4235 1.66699L41.4119 1.66614L41.1102 0.857422L40.7519 1.03399L41.2413 1.75828L41.2405 1.76942L40.4146 1.60999L40.3906 1.99485L41.2358 1.93956L41.2349 1.95114L40.6538 2.60814L40.9636 2.83228L41.3819 2.05656L41.3931 2.05742L41.6832 2.87128L42.0531 2.68999L41.5516 1.97642L41.5525 1.96528L42.4011 2.12042L42.4251 1.73514L41.5632 1.79514L41.5636 1.78399Z" fill="#4C7DA7"/>
</g>
<defs>
<clipPath id="clip0_2_6207">
<rect width="72" height="72" fill="white"/>
</clipPath>
</defs>
</svg>
