<svg width="71" height="71" viewBox="0 0 71 71" fill="none" xmlns="http://www.w3.org/2000/svg">
    <path
        d="M19.1183 25.7167C19.3258 25.7997 19.5575 25.7982 19.7638 25.7124C19.9701 25.6267 20.1347 25.4635 20.2222 25.2579C20.7863 23.876 21.6195 22.6201 22.6733 21.5631C23.7272 20.5061 24.9806 19.6691 26.3608 19.1008C27.741 18.5325 29.2203 18.2442 30.7129 18.2527C32.2055 18.2612 33.6815 18.5663 35.0551 19.1503C34.9096 19.254 34.8009 19.4014 34.7446 19.571C34.6884 19.7406 34.6875 19.9237 34.7421 20.0938C34.7967 20.264 34.904 20.4124 35.0485 20.5175C35.193 20.6227 35.3671 20.6793 35.5458 20.679C35.5716 20.679 38.1133 20.4472 38.1133 20.4472C38.2575 20.434 38.396 20.3839 38.5153 20.3018C38.6346 20.2196 38.7308 20.1082 38.7947 19.9782C38.8585 19.8482 38.8879 19.704 38.88 19.5593C38.8721 19.4147 38.8272 19.2745 38.7495 19.1523L37.3025 16.8746C37.1902 16.6976 37.016 16.5688 36.814 16.513C36.612 16.4572 36.3964 16.4785 36.2092 16.5728C36.022 16.667 35.8765 16.8275 35.8009 17.023C35.7254 17.2185 35.7251 17.4351 35.8003 17.6307C34.2188 16.945 32.5163 16.5819 30.7926 16.5627C29.069 16.5435 27.3588 16.8686 25.7624 17.5188C24.1659 18.1691 22.7154 19.1315 21.4957 20.3497C20.2761 21.5678 19.3119 23.0172 18.6596 24.6128C18.5741 24.82 18.5744 25.0527 18.6604 25.2597C18.7465 25.4667 18.9112 25.6311 19.1183 25.7167Z"
        fill="#2D4356" />
    <path
        d="M41.294 24.3868C41.294 24.3868 48.955 19.1711 48.9636 19.1652C49.1488 19.0426 49.3744 18.9965 49.5928 19.0368C49.8113 19.077 50.0057 19.2003 50.1351 19.3809L51.3307 21.1135L53.0073 20.5667L51.5263 18.4206C51.1446 17.871 50.5614 17.4941 49.9035 17.3719C49.2456 17.2496 48.566 17.3918 48.0123 17.7677L35.5273 26.2675L41.294 24.3868Z"
        fill="#2D4356" />
    <path
        d="M45.3332 26.6263L54.2798 23.7085C54.4893 23.6437 54.716 23.6639 54.9108 23.7647C55.1056 23.8655 55.2529 24.0389 55.3211 24.2474L56.0864 26.6263H57.8622C57.8622 26.6263 56.931 23.7316 56.9302 23.7294C56.7198 23.0962 56.2693 22.571 55.6757 22.2665C55.082 21.962 54.3926 21.9027 53.7556 22.1012L39.8809 26.6263H45.3332Z"
        fill="#0BCEB2" />
    <path
        d="M25.6676 53.677L16.7212 56.5948C16.5117 56.6589 16.2854 56.6384 16.0908 56.5377C15.8961 56.4371 15.7487 56.2642 15.6799 56.0562L14.9145 53.677H13.1387L14.0707 56.5742C14.2815 57.2071 14.732 57.7321 15.3256 58.0365C15.9191 58.3408 16.6084 58.4003 17.2453 58.2021L31.1199 53.677H25.6676Z"
        fill="#0BCEB2" />
    <path
        d="M19.5897 35.5023H21.1318C21.3557 35.5018 21.5702 35.4125 21.7284 35.2541C21.8865 35.0956 21.9753 34.8808 21.9753 34.657C21.9753 34.4331 21.8865 34.2184 21.7284 34.0599C21.5702 33.9014 21.3557 33.8121 21.1318 33.8116H19.5897C19.0727 33.8441 18.5894 34.0794 18.2451 34.4664C17.9007 34.8533 17.7231 35.3607 17.7509 35.8779V44.4254C17.7231 44.9426 17.9007 45.45 18.2451 45.8369C18.5895 46.2239 19.0727 46.4592 19.5897 46.4917H21.1318C21.3557 46.4912 21.5702 46.4019 21.7284 46.2434C21.8865 46.0849 21.9753 45.8702 21.9753 45.6463C21.9753 45.4225 21.8865 45.2077 21.7284 45.0493C21.5702 44.8908 21.3557 44.8015 21.1318 44.801L19.5961 44.8018C19.5413 44.7567 19.4985 44.6987 19.4715 44.633C19.4445 44.5674 19.4342 44.496 19.4414 44.4254V35.8779C19.435 35.8081 19.4451 35.7377 19.4709 35.6725C19.4966 35.6072 19.5373 35.549 19.5897 35.5023Z"
        fill="#0BCEB2" />
    <path
        d="M23.6675 40.997C24.1343 40.997 24.5127 40.6186 24.5127 40.1518C24.5127 39.6849 24.1343 39.3065 23.6675 39.3065C23.2007 39.3065 22.8223 39.6849 22.8223 40.1518C22.8223 40.6186 23.2007 40.997 23.6675 40.997Z"
        fill="#2D4356" />
    <path
        d="M51.2429 33.8116H49.8669C49.643 33.8121 49.4285 33.9014 49.2704 34.0599C49.1122 34.2184 49.0234 34.4331 49.0234 34.657C49.0234 34.8808 49.1122 35.0956 49.2704 35.2541C49.4285 35.4125 49.643 35.5018 49.8669 35.5023H51.2429C51.334 35.5113 51.4179 35.5557 51.4766 35.6259C51.5353 35.6962 51.5641 35.7867 51.5567 35.8779V44.4254C51.5641 44.5166 51.5353 44.6071 51.4766 44.6774C51.4179 44.7476 51.334 44.792 51.2429 44.801H49.8669C49.643 44.8015 49.4285 44.8908 49.2704 45.0492C49.1122 45.2077 49.0234 45.4224 49.0234 45.6463C49.0234 45.8702 49.1122 46.0849 49.2704 46.2434C49.4285 46.4019 49.643 46.4912 49.8669 46.4917H51.2429C51.7824 46.4827 52.2964 46.2601 52.6721 45.8728C53.0479 45.4855 53.2547 44.965 53.2472 44.4254V35.8779C53.2547 35.3383 53.0479 34.8178 52.6722 34.4304C52.2964 34.0431 51.7824 33.8206 51.2429 33.8116Z"
        fill="#0BCEB2" />
    <path
        d="M47.3335 40.997C47.8003 40.997 48.1788 40.6186 48.1788 40.1518C48.1788 39.6849 47.8003 39.3065 47.3335 39.3065C46.8667 39.3065 46.4883 39.6849 46.4883 40.1518C46.4883 40.6186 46.8667 40.997 47.3335 40.997Z"
        fill="#2D4356" />
    <path
        d="M60.0126 28.317H10.9888C10.3165 28.3178 9.67195 28.5852 9.19657 29.0607C8.72119 29.5361 8.45382 30.1807 8.45312 30.853V49.4504C8.45382 50.1227 8.72119 50.7673 9.19657 51.2427C9.67195 51.7182 10.3165 51.9856 10.9888 51.9864H60.0126C60.685 51.9856 61.3295 51.7182 61.8049 51.2427C62.2803 50.7673 62.5477 50.1227 62.5484 49.4504V30.853C62.5477 30.1807 62.2803 29.5361 61.8049 29.0607C61.3295 28.5852 60.685 28.3178 60.0126 28.317ZM10.1436 30.853C10.1438 30.6289 10.2329 30.414 10.3914 30.2556C10.5499 30.0971 10.7647 30.0079 10.9888 30.0077H14.1448C13.7618 31.0613 12.7582 32.6218 10.1731 32.5396C10.1631 32.5392 10.1536 32.5414 10.1436 32.5413V30.853ZM10.9888 50.2957C10.7647 50.2954 10.5499 50.2063 10.3914 50.0478C10.233 49.8893 10.1438 49.6745 10.1436 49.4504V47.7724C10.1536 47.7725 10.163 47.7748 10.1731 47.7746C12.775 47.686 13.7707 49.2306 14.1491 50.2957H10.9888ZM60.8579 49.4504C60.8576 49.6745 60.7685 49.8893 60.6101 50.0478C60.4516 50.2063 60.2368 50.2954 60.0126 50.2957H57.7292C57.9502 49.6211 58.3646 49.0264 58.9208 48.5855C59.4771 48.1446 60.1507 47.877 60.8579 47.8159V49.4504ZM60.8579 46.1128C59.7005 46.1915 58.5992 46.6407 57.717 47.3941C56.8348 48.1475 56.2187 49.1649 55.9598 50.2957H15.9167C15.451 48.4662 13.8652 45.9687 10.1436 46.0852V34.2297C10.2275 34.2322 14.722 34.4259 15.919 30.0077H55.957C56.2127 31.1417 56.8279 32.1628 57.711 32.9188C58.5942 33.6747 59.698 34.125 60.8579 34.2026V46.1128ZM60.8579 32.498C60.149 32.4362 59.4741 32.1671 58.9171 31.7243C58.3602 31.2814 57.946 30.6844 57.7261 30.0077H60.0126C60.2368 30.0079 60.4516 30.0971 60.6101 30.2555C60.7686 30.414 60.8577 30.6289 60.8579 30.853V32.498Z"
        fill="#2D4356" />
    <path
        d="M35.6836 39.16C35.0501 38.9836 34.7431 38.874 34.6653 38.6372C34.604 38.4482 34.8638 38.2926 34.9688 38.2489C35.1666 38.1761 35.3787 38.1505 35.5882 38.1741C35.7976 38.1976 35.9987 38.2697 36.1754 38.3847C36.3648 38.5046 36.5941 38.5443 36.8129 38.4951C36.9212 38.4708 37.0237 38.4254 37.1144 38.3614C37.2052 38.2975 37.2824 38.2163 37.3418 38.1225C37.4012 38.0287 37.4415 37.9241 37.4604 37.8147C37.4794 37.7054 37.4766 37.5933 37.4523 37.485C37.4279 37.3767 37.3825 37.2742 37.3186 37.1835C37.2546 37.0927 37.1734 37.0155 37.0796 36.9561C36.9266 36.8614 36.7656 36.7804 36.5984 36.7138V36.3477C36.5984 36.1235 36.5094 35.9085 36.3509 35.75C36.1923 35.5915 35.9773 35.5024 35.7532 35.5024C35.529 35.5024 35.314 35.5915 35.1555 35.75C34.997 35.9085 34.9079 36.1235 34.9079 36.3477V36.5219C34.7055 36.5555 34.5074 36.6114 34.3173 36.6888C33.8304 36.8609 33.4282 37.2136 33.1939 37.6738C32.9595 38.134 32.911 38.6667 33.0582 39.1617C33.4275 40.2864 34.4692 40.5766 35.2299 40.7888C35.6904 40.9171 36.1254 41.0385 36.2707 41.2729C36.3147 41.3377 36.3399 41.4133 36.3435 41.4915C36.347 41.5697 36.3287 41.6474 36.2907 41.7158C36.117 41.9759 35.5972 42.0374 35.1987 41.9647C35.0428 41.9318 34.8968 41.8628 34.7724 41.7633C34.5957 41.6253 34.3714 41.5632 34.1489 41.5906C33.9264 41.6179 33.7239 41.7326 33.5859 41.9093C33.448 42.086 33.3858 42.3102 33.4132 42.5327C33.4406 42.7552 33.5552 42.9577 33.7319 43.0957C34.0139 43.3159 34.3364 43.4784 34.6811 43.5739V43.9555C34.6811 44.1796 34.7702 44.3946 34.9287 44.5531C35.0872 44.7117 35.3022 44.8007 35.5264 44.8007C35.7506 44.8007 35.9655 44.7117 36.1241 44.5531C36.2826 44.3946 36.3716 44.1796 36.3716 43.9555V43.5693C36.9103 43.4371 37.3818 43.1117 37.6964 42.6549C37.9156 42.317 38.0332 41.9233 38.0352 41.5206C38.0373 41.1178 37.9237 40.7229 37.708 40.3828C37.2152 39.587 36.366 39.3503 35.6836 39.16Z"
        fill="#2D4356" />
    <path
        d="M35.501 31.6984C33.829 31.6982 32.1946 32.1938 30.8044 33.1226C29.4141 34.0513 28.3305 35.3715 27.6906 36.9161C27.0507 38.4607 26.8831 40.1604 27.2092 41.8002C27.5353 43.44 28.3403 44.9463 29.5224 46.1286C30.7046 47.3109 32.2108 48.1161 33.8506 48.4423C35.4904 48.7686 37.1901 48.6012 38.7347 47.9615C40.2794 47.3217 41.5997 46.2383 42.5286 44.8481C43.4575 43.458 43.9533 41.8236 43.9533 40.1517C43.9509 37.9107 43.0596 35.7621 41.4751 34.1773C39.8905 32.5926 37.742 31.7011 35.501 31.6984ZM35.501 46.9142C34.1634 46.9143 32.8559 46.5178 31.7437 45.7748C30.6315 45.0318 29.7646 43.9756 29.2527 42.74C28.7407 41.5043 28.6067 40.1445 28.8676 38.8327C29.1285 37.5208 29.7725 36.3158 30.7182 35.3699C31.664 34.4241 32.869 33.78 34.1808 33.519C35.4926 33.258 36.8524 33.3919 38.0881 33.9038C39.3239 34.4156 40.3801 35.2824 41.1232 36.3945C41.8663 37.5066 42.2629 38.8142 42.2629 40.1517C42.2609 41.9445 41.5478 43.6633 40.2802 44.9311C39.0125 46.1988 37.2938 46.912 35.501 46.9142Z"
        fill="#0BCEB2" />
    <path
        d="M18.805 8.87458C19.0557 8.87458 19.3009 8.80022 19.5093 8.66091C19.7178 8.5216 19.8804 8.32358 19.9763 8.09191C20.0723 7.86024 20.0974 7.60532 20.0485 7.35938C19.9995 7.11344 19.8788 6.88753 19.7015 6.71021C19.5242 6.5329 19.2983 6.41215 19.0523 6.36323C18.8064 6.31431 18.5515 6.33942 18.3198 6.43538C18.0881 6.53134 17.8901 6.69384 17.7508 6.90234C17.6115 7.11084 17.5371 7.35597 17.5371 7.60672C17.5375 7.94286 17.6712 8.26512 17.9089 8.50281C18.1466 8.7405 18.4688 8.8742 18.805 8.87458ZM18.805 6.9728C18.9303 6.9728 19.0529 7.00998 19.1572 7.07963C19.2614 7.14929 19.3427 7.2483 19.3906 7.36413C19.4386 7.47997 19.4512 7.60743 19.4267 7.7304C19.4023 7.85337 19.3419 7.96632 19.2532 8.05498C19.1646 8.14364 19.0516 8.20401 18.9286 8.22847C18.8057 8.25293 18.6782 8.24038 18.5624 8.1924C18.4465 8.14442 18.3475 8.06317 18.2779 7.95892C18.2082 7.85467 18.171 7.7321 18.171 7.60672C18.1712 7.43865 18.238 7.2775 18.3569 7.15865C18.4757 7.0398 18.6369 6.97296 18.805 6.9728Z"
        fill="#2D4356" />
    <path
        d="M68.6753 8.4519C68.5081 8.4519 68.3447 8.50148 68.2057 8.59435C68.0667 8.68723 67.9584 8.81924 67.8944 8.97368C67.8304 9.12813 67.8137 9.29808 67.8463 9.46204C67.8789 9.626 67.9594 9.77661 68.0776 9.89482C68.1958 10.013 68.3465 10.0935 68.5104 10.1261C68.6744 10.1588 68.8443 10.142 68.9988 10.078C69.1532 10.0141 69.2852 9.90573 69.3781 9.76673C69.471 9.62773 69.5206 9.46431 69.5206 9.29714C69.5203 9.07305 69.4312 8.85821 69.2727 8.69975C69.1142 8.54129 68.8994 8.45216 68.6753 8.4519ZM68.6753 9.71976C68.5917 9.71976 68.51 9.69497 68.4405 9.64854C68.371 9.6021 68.3169 9.5361 68.2849 9.45887C68.2529 9.38165 68.2445 9.29667 68.2608 9.21469C68.2771 9.13271 68.3174 9.05741 68.3765 8.99831C68.4356 8.9392 68.5109 8.89895 68.5929 8.88264C68.6748 8.86634 68.7598 8.87471 68.837 8.90669C68.9143 8.93868 68.9803 8.99285 69.0267 9.06235C69.0731 9.13185 69.0979 9.21356 69.0979 9.29714C69.0978 9.40919 69.0533 9.51662 68.974 9.59586C68.8948 9.67509 68.7874 9.71965 68.6753 9.71976Z"
        fill="#2D4356" />
    <path
        d="M2.32375 5.91626C2.15658 5.91626 1.99316 5.96583 1.85417 6.05871C1.71517 6.15158 1.60683 6.28359 1.54286 6.43804C1.47888 6.59249 1.46214 6.76244 1.49476 6.9264C1.52737 7.09036 1.60787 7.24096 1.72608 7.35917C1.84429 7.47738 1.9949 7.55788 2.15886 7.5905C2.32282 7.62311 2.49277 7.60637 2.64721 7.5424C2.80166 7.47842 2.93367 7.37009 3.02654 7.23109C3.11942 7.09209 3.16899 6.92867 3.16899 6.7615C3.16874 6.53741 3.0796 6.32256 2.92114 6.16411C2.76269 6.00565 2.54785 5.91652 2.32375 5.91626ZM2.32375 7.18412C2.24017 7.18412 2.15846 7.15933 2.08896 7.11289C2.01946 7.06645 1.96529 7.00045 1.9333 6.92323C1.90132 6.846 1.89295 6.76103 1.90926 6.67905C1.92556 6.59707 1.96581 6.52177 2.02492 6.46266C2.08402 6.40356 2.15933 6.36331 2.24131 6.347C2.32329 6.33069 2.40826 6.33906 2.48548 6.37105C2.56271 6.40304 2.62871 6.4572 2.67515 6.5267C2.72159 6.5962 2.74637 6.67791 2.74637 6.7615C2.74626 6.87355 2.7017 6.98098 2.62247 7.06021C2.54324 7.13944 2.43581 7.18401 2.32375 7.18412Z"
        fill="#2D4356" />
    <path
        d="M30.0507 1.50684C29.9309 1.62342 29.8484 1.7729 29.8135 1.9364C29.7786 2.0999 29.793 2.27006 29.8549 2.42537C29.9167 2.58068 30.0233 2.71416 30.161 2.80894C30.2987 2.90371 30.4614 2.95552 30.6286 2.95782C30.7957 2.96011 30.9598 2.91279 31.1001 2.82183C31.2403 2.73087 31.3505 2.60036 31.4165 2.44681C31.4826 2.29325 31.5017 2.12355 31.4713 1.95916C31.441 1.79476 31.3626 1.64307 31.246 1.52325C31.0895 1.36281 30.8758 1.27098 30.6518 1.2679C30.4277 1.26483 30.2115 1.35076 30.0507 1.50684ZM30.9349 2.41557C30.875 2.47386 30.7991 2.51307 30.7169 2.52825C30.6347 2.54343 30.5499 2.5339 30.4731 2.50086C30.3963 2.46781 30.3311 2.41274 30.2856 2.34261C30.2401 2.27248 30.2164 2.19044 30.2176 2.10686C30.2187 2.02328 30.2446 1.94192 30.292 1.87307C30.3394 1.80421 30.4061 1.75095 30.4838 1.72003C30.5615 1.68911 30.6465 1.6819 30.7283 1.69933C30.81 1.71677 30.8848 1.75805 30.9431 1.81796C31.0211 1.89835 31.0641 2.00642 31.0626 2.11846C31.061 2.2305 31.0151 2.33735 30.9349 2.41557Z"
        fill="#2D4356" />
    <path
        d="M53.46 16.0591C53.46 15.8919 53.4104 15.7285 53.3176 15.5895C53.2247 15.4505 53.0927 15.3422 52.9382 15.2782C52.7838 15.2142 52.6138 15.1975 52.4499 15.2301C52.2859 15.2627 52.1353 15.3432 52.0171 15.4614C51.8989 15.5796 51.8184 15.7302 51.7858 15.8942C51.7532 16.0582 51.7699 16.2281 51.8339 16.3826C51.8978 16.537 52.0062 16.669 52.1452 16.7619C52.2842 16.8548 52.4476 16.9043 52.6148 16.9043C52.8389 16.9041 53.0537 16.815 53.2122 16.6565C53.3706 16.498 53.4598 16.2832 53.46 16.0591ZM52.1922 16.0591C52.1922 15.9755 52.2169 15.8938 52.2634 15.8243C52.3098 15.7548 52.3758 15.7006 52.453 15.6687C52.5303 15.6367 52.6152 15.6283 52.6972 15.6446C52.7792 15.6609 52.8545 15.7012 52.9136 15.7603C52.9727 15.8194 53.013 15.8947 53.0293 15.9767C53.0456 16.0586 53.0372 16.1436 53.0052 16.2208C52.9732 16.2981 52.9191 16.3641 52.8496 16.4105C52.7801 16.4569 52.6984 16.4817 52.6148 16.4817C52.5027 16.4816 52.3953 16.4371 52.3161 16.3578C52.2368 16.2786 52.1923 16.1712 52.1922 16.0591Z"
        fill="#2D4356" />
    <path
        d="M10.601 16.909L11.2294 16.0827L10.8325 15.8579L10.4294 16.7834H10.4158L10.0059 15.8642L9.6023 16.0958L10.224 16.9026V16.9157L9.25195 16.7902V17.2399L10.2307 17.1144V17.1275L9.6023 17.9338L9.97928 18.1722L10.4095 17.2399H10.4222L10.819 18.1654L11.2357 17.9275L10.601 17.1338V17.1207L11.5992 17.2399V16.7902L10.601 16.9225V16.909Z"
        fill="#0BCEB2" />
    <path
        d="M40.6888 9.7481L40.3266 10.2126L40.5438 10.3495L40.7915 9.81276H40.7991L41.0273 10.3457L41.2673 10.2088L40.9018 9.75148V9.74387L41.4765 9.81276V9.55369L40.9018 9.62976V9.62216L41.2635 9.14629L41.0353 9.01697L40.8029 9.54989H40.7953L40.5595 9.02077L40.3266 9.1539L40.685 9.61835V9.62596L40.125 9.55369V9.81276L40.6888 9.74049V9.7481Z"
        fill="#0BCEB2" />
    <path
        d="M55.5739 5.37231V4.93152L54.5947 5.06126V5.04816L55.2113 4.23758L54.8221 4.01697L54.4265 4.92475H54.413L54.0111 4.02331L53.6151 4.25068L54.2249 5.04182V5.05492L53.2715 4.93152V5.37231L54.2313 5.24932V5.26243L53.6151 6.05357L53.9849 6.28728L54.4066 5.37231H54.4193L54.8085 6.28052L55.2172 6.04723L54.5947 5.26877V5.25566L55.5739 5.37231Z"
        fill="#0BCEB2" />
    <path
        d="M29.411 12.875L29.9427 12.176L29.6071 11.9858L29.2661 12.769H29.2547L28.9077 11.9913L28.5662 12.187L29.0924 12.8695V12.8809L28.2695 12.7744V13.1548L29.0979 13.0487V13.0597L28.5662 13.7422L28.8849 13.9438L29.2492 13.1548H29.2602L29.5957 13.9383L29.9482 13.7368L29.411 13.0652V13.0542L30.2558 13.1548V12.7744L29.411 12.8864V12.875Z"
        fill="#0BCEB2" />
    <path
        d="M0.845238 63.8155C1.31205 63.8155 1.69048 63.4371 1.69048 62.9702C1.69048 62.5034 1.31205 62.125 0.845238 62.125C0.378426 62.125 0 62.5034 0 62.9702C0 63.4371 0.378426 63.8155 0.845238 63.8155Z"
        fill="#2D4356" />
    <path
        d="M4.64825 62.125H3.38039C3.15622 62.125 2.94123 62.2141 2.78272 62.3726C2.62421 62.5311 2.53516 62.7461 2.53516 62.9702C2.53516 63.1944 2.62421 63.4094 2.78272 63.5679C2.94123 63.7264 3.15622 63.8155 3.38039 63.8155H4.64825C4.87242 63.8155 5.08741 63.7264 5.24593 63.5679C5.40444 63.4094 5.49349 63.1944 5.49349 62.9702C5.49349 62.7461 5.40444 62.5311 5.24593 62.3726C5.08741 62.2141 4.87242 62.125 4.64825 62.125Z"
        fill="#2D4356" />
    <path
        d="M67.619 62.125H66.3511C66.1269 62.125 65.9119 62.2141 65.7534 62.3726C65.5949 62.5311 65.5059 62.7461 65.5059 62.9702C65.5059 63.1944 65.5949 63.4094 65.7534 63.5679C65.9119 63.7264 66.1269 63.8155 66.3511 63.8155H67.619C67.8431 63.8155 68.0581 63.7264 68.2166 63.5679C68.3751 63.4094 68.4642 63.1944 68.4642 62.9702C68.4642 62.7461 68.3751 62.5311 68.2166 62.3726C68.0581 62.2141 67.8431 62.125 67.619 62.125Z"
        fill="#2D4356" />
    <path
        d="M70.1538 63.8155C70.6206 63.8155 70.9991 63.4371 70.9991 62.9702C70.9991 62.5034 70.6206 62.125 70.1538 62.125C69.687 62.125 69.3086 62.5034 69.3086 62.9702C69.3086 63.4371 69.687 63.8155 70.1538 63.8155Z"
        fill="#2D4356" />
    <path
        d="M49.9338 65.506H46.4228C46.2103 65.523 46.012 65.6194 45.8675 65.7761C45.7229 65.9327 45.6426 66.1381 45.6426 66.3512C45.6426 66.5644 45.7229 66.7697 45.8675 66.9264C46.012 67.083 46.2103 67.1794 46.4228 67.1965H49.9338C50.1463 67.1794 50.3446 67.083 50.4892 66.9264C50.6337 66.7697 50.714 66.5644 50.714 66.3512C50.714 66.1381 50.6337 65.9327 50.4892 65.7761C50.3446 65.6194 50.1463 65.523 49.9338 65.506Z"
        fill="#0BCEB2" />
    <path
        d="M24.5764 65.506H21.0654C20.8529 65.523 20.6546 65.6194 20.51 65.7761C20.3654 65.9327 20.2852 66.1381 20.2852 66.3512C20.2852 66.5644 20.3654 66.7697 20.51 66.9264C20.6546 67.083 20.8529 67.1794 21.0654 67.1965H24.5764C24.7889 67.1794 24.9871 67.083 25.1317 66.9264C25.2763 66.7697 25.3566 66.5644 25.3566 66.3512C25.3566 66.1381 25.2763 65.9327 25.1317 65.7761C24.9871 65.6194 24.7889 65.523 24.5764 65.506Z"
        fill="#0BCEB2" />
    <path
        d="M43.9531 65.506H27.0484C26.8242 65.506 26.6092 65.595 26.4507 65.7535C26.2922 65.9121 26.2031 66.127 26.2031 66.3512C26.2031 66.5754 26.2922 66.7904 26.4507 66.9489C26.6092 67.1074 26.8242 67.1965 27.0484 67.1965H33.7849V68.0417H30.4293C30.2051 68.0417 29.9902 68.1307 29.8316 68.2893C29.6731 68.4478 29.5841 68.6628 29.5841 68.8869C29.5841 69.1111 29.6731 69.3261 29.8316 69.4846C29.9902 69.6431 30.2051 69.7322 30.4293 69.7322H40.9948C41.219 69.7322 41.434 69.6431 41.5925 69.4846C41.751 69.3261 41.84 69.1111 41.84 68.8869C41.84 68.6628 41.751 68.4478 41.5925 68.2893C41.434 68.1307 41.219 68.0417 40.9948 68.0417H37.2166V67.1965H43.9531C44.1773 67.1965 44.3923 67.1074 44.5508 66.9489C44.7093 66.7904 44.7984 66.5754 44.7984 66.3512C44.7984 66.127 44.7093 65.9121 44.5508 65.7535C44.3923 65.595 44.1773 65.506 43.9531 65.506Z"
        fill="#0BCEB2" />
    <path
        d="M63.6981 62.125H46.6076C49.1949 60.6946 51.2174 58.425 52.3412 55.6906C52.3836 55.588 52.4053 55.478 52.4052 55.367C52.4051 55.256 52.3832 55.1461 52.3406 55.0436C52.298 54.9411 52.2357 54.848 52.1571 54.7695C52.0785 54.6911 51.9853 54.6289 51.8827 54.5866C51.7801 54.5442 51.6702 54.5224 51.5591 54.5225C51.4481 54.5226 51.3382 54.5446 51.2357 54.5872C51.1332 54.6297 51.0401 54.6921 50.9616 54.7706C50.8832 54.8492 50.821 54.9425 50.7787 55.0451C50.2145 56.4269 49.3813 57.6829 48.3275 58.7399C47.2736 59.797 46.0202 60.634 44.64 61.2023C43.2598 61.7706 41.7805 62.0589 40.2879 62.0504C38.7953 62.0419 37.3193 61.7368 35.9457 61.1528C36.0966 61.0451 36.2078 60.8907 36.2621 60.7134C36.3164 60.5361 36.3107 60.3458 36.2458 60.1721C36.181 59.9984 36.0607 59.8509 35.9035 59.7525C35.7464 59.6541 35.5612 59.6102 35.3766 59.6278L32.8873 59.8564C32.7431 59.8696 32.6047 59.9197 32.4854 60.0018C32.3661 60.084 32.2699 60.1954 32.2061 60.3254C32.1422 60.4554 32.1128 60.5996 32.1208 60.7442C32.1287 60.8888 32.1736 61.0289 32.2513 61.1512C32.2513 61.1512 32.5464 61.6157 32.87 62.125H23.5907L35.4725 54.0356L29.7056 55.9165L22.036 61.138C21.8518 61.2638 21.6253 61.3117 21.4059 61.2713C21.1866 61.231 20.992 61.1056 20.8645 60.9226L19.6689 59.1898L17.9924 59.7366L19.4733 61.8826C19.5329 61.9676 19.598 62.0486 19.6682 62.125H7.30271C7.18246 62.1093 7.06025 62.1194 6.94422 62.1547C6.8282 62.19 6.72105 62.2496 6.62991 62.3296C6.53878 62.4096 6.46576 62.5081 6.41574 62.6186C6.36572 62.7291 6.33984 62.8489 6.33984 62.9702C6.33984 63.0915 6.36572 63.2113 6.41574 63.3218C6.46576 63.4323 6.53878 63.5308 6.62991 63.6108C6.72105 63.6908 6.8282 63.7505 6.94422 63.7857C7.06025 63.821 7.18246 63.8312 7.30271 63.8154H63.6981C63.8183 63.8312 63.9406 63.821 64.0566 63.7857C64.1726 63.7505 64.2798 63.6908 64.3709 63.6108C64.462 63.5308 64.535 63.4323 64.5851 63.3218C64.6351 63.2113 64.661 63.0915 64.661 62.9702C64.661 62.8489 64.6351 62.7291 64.5851 62.6186C64.535 62.5081 64.462 62.4096 64.3709 62.3296C64.2798 62.2496 64.1726 62.19 64.0566 62.1547C63.9406 62.1194 63.8183 62.1093 63.6981 62.125Z"
        fill="#2D4356" />
</svg>
    