<svg width="71" height="71" viewBox="0 0 71 71" fill="none" xmlns="http://www.w3.org/2000/svg">
<path d="M19.1164 25.7165C19.3238 25.7996 19.5555 25.798 19.7619 25.7123C19.9682 25.6265 20.1327 25.4634 20.2202 25.2578C20.7843 23.8759 21.6176 22.62 22.6714 21.5629C23.7252 20.5059 24.9787 19.669 26.3588 19.1006C27.739 18.5323 29.2184 18.2441 30.7109 18.2526C32.2035 18.2611 33.6795 18.5662 35.0531 19.1501C34.9076 19.2539 34.7989 19.4013 34.7427 19.5709C34.6864 19.7405 34.6855 19.9236 34.7402 20.0937C34.7948 20.2639 34.9021 20.4122 35.0465 20.5174C35.191 20.6226 35.3652 20.6791 35.5439 20.6788C35.5696 20.6788 38.1114 20.4471 38.1114 20.4471C38.2556 20.4339 38.394 20.3838 38.5133 20.3016C38.6326 20.2195 38.7288 20.1081 38.7927 19.9781C38.8566 19.8481 38.886 19.7039 38.8781 19.5592C38.8702 19.4146 38.8252 19.2744 38.7475 19.1521L37.3006 16.8744C37.1882 16.6975 37.0141 16.5686 36.8121 16.5129C36.61 16.4571 36.3945 16.4784 36.2072 16.5727C36.02 16.6669 35.8745 16.8274 35.799 17.0229C35.7234 17.2184 35.7232 17.435 35.7984 17.6306C34.2168 16.9449 32.5143 16.5818 30.7907 16.5626C29.067 16.5434 27.3568 16.8684 25.7604 17.5187C24.164 18.169 22.7134 19.1314 21.4938 20.3496C20.2741 21.5677 19.3099 23.0171 18.6577 24.6127C18.5722 24.8199 18.5725 25.0526 18.6585 25.2596C18.7445 25.4666 18.9092 25.6309 19.1164 25.7165Z" fill="#2D4356"/>
<path d="M41.294 24.3868C41.294 24.3868 48.955 19.1711 48.9636 19.1652C49.1488 19.0426 49.3744 18.9965 49.5928 19.0368C49.8113 19.077 50.0057 19.2003 50.1351 19.3809L51.3307 21.1135L53.0073 20.5667L51.5263 18.4206C51.1446 17.871 50.5614 17.4941 49.9035 17.3719C49.2456 17.2496 48.566 17.3918 48.0123 17.7677L35.5273 26.2675L41.294 24.3868Z" fill="#2D4356"/>
<path d="M45.3352 26.6268L54.2817 23.709C54.4913 23.6442 54.7179 23.6644 54.9127 23.7652C55.1075 23.866 55.2549 24.0394 55.323 24.2479L56.0884 26.6268H57.8642C57.8642 26.6268 56.9329 23.7321 56.9322 23.7298C56.7217 23.0967 56.2713 22.5714 55.6776 22.267C55.084 21.9625 54.3945 21.9032 53.7576 22.1017L39.8828 26.6268H45.3352Z" fill="#4C7DA7"/>
<path d="M25.6696 53.6768L16.7232 56.5946C16.5136 56.6587 16.2873 56.6382 16.0927 56.5375C15.8981 56.4368 15.7506 56.264 15.6819 56.0559L14.9165 53.6768H13.1406L14.0727 56.5739C14.2834 57.2068 14.734 57.7318 15.3275 58.0362C15.9211 58.3406 16.6104 58.4001 17.2473 58.2019L31.1219 53.6768H25.6696Z" fill="#4C7DA7"/>
<path d="M19.5917 35.5022H21.1338C21.3577 35.5017 21.5722 35.4124 21.7303 35.2539C21.8884 35.0955 21.9772 34.8807 21.9772 34.6569C21.9772 34.433 21.8884 34.2183 21.7303 34.0598C21.5722 33.9013 21.3577 33.812 21.1338 33.8115H19.5917C19.0747 33.844 18.5914 34.0793 18.247 34.4662C17.9026 34.8532 17.725 35.3605 17.7528 35.8778V44.4253C17.7251 44.9425 17.9027 45.4498 18.2471 45.8368C18.5914 46.2238 19.0747 46.4591 19.5917 46.4915H21.1338C21.3577 46.491 21.5722 46.4018 21.7303 46.2433C21.8884 46.0848 21.9772 45.8701 21.9772 45.6462C21.9772 45.4223 21.8884 45.2076 21.7303 45.0491C21.5722 44.8907 21.3577 44.8014 21.1338 44.8009L19.5981 44.8017C19.5433 44.7566 19.5005 44.6986 19.4735 44.6329C19.4465 44.5672 19.4361 44.4959 19.4433 44.4253V35.8778C19.4369 35.808 19.4471 35.7376 19.4728 35.6723C19.4986 35.6071 19.5393 35.5488 19.5917 35.5022Z" fill="#4C7DA7"/>
<path d="M23.6656 40.9971C24.1324 40.9971 24.5108 40.6187 24.5108 40.1519C24.5108 39.6851 24.1324 39.3066 23.6656 39.3066C23.1987 39.3066 22.8203 39.6851 22.8203 40.1519C22.8203 40.6187 23.1987 40.9971 23.6656 40.9971Z" fill="#2D4356"/>
<path d="M51.2429 33.8115H49.8669C49.643 33.812 49.4285 33.9013 49.2704 34.0598C49.1122 34.2183 49.0234 34.433 49.0234 34.6569C49.0234 34.8807 49.1122 35.0955 49.2704 35.2539C49.4285 35.4124 49.643 35.5017 49.8669 35.5022H51.2429C51.334 35.5112 51.4179 35.5556 51.4766 35.6258C51.5353 35.6961 51.5641 35.7865 51.5567 35.8778V44.4253C51.5641 44.5165 51.5353 44.607 51.4766 44.6772C51.4179 44.7475 51.334 44.7919 51.2429 44.8009H49.8669C49.643 44.8014 49.4285 44.8906 49.2704 45.0491C49.1122 45.2076 49.0234 45.4223 49.0234 45.6462C49.0234 45.8701 49.1122 46.0848 49.2704 46.2433C49.4285 46.4017 49.643 46.491 49.8669 46.4915H51.2429C51.7824 46.4826 52.2964 46.26 52.6721 45.8727C53.0479 45.4853 53.2547 44.9648 53.2472 44.4252V35.8778C53.2547 35.3382 53.0479 34.8177 52.6722 34.4303C52.2964 34.043 51.7824 33.8204 51.2429 33.8115Z" fill="#4C7DA7"/>
<path d="M47.3335 40.9971C47.8003 40.9971 48.1788 40.6187 48.1788 40.1519C48.1788 39.6851 47.8003 39.3066 47.3335 39.3066C46.8667 39.3066 46.4883 39.6851 46.4883 40.1519C46.4883 40.6187 46.8667 40.9971 47.3335 40.9971Z" fill="#2D4356"/>
<path d="M60.0126 28.3174H10.9888C10.3165 28.3182 9.67195 28.5856 9.19657 29.061C8.72119 29.5365 8.45382 30.1811 8.45312 30.8534V49.4507C8.45382 50.1231 8.72119 50.7677 9.19657 51.2431C9.67195 51.7185 10.3165 51.986 10.9888 51.9867H60.0126C60.685 51.986 61.3295 51.7185 61.8049 51.2431C62.2803 50.7677 62.5477 50.1231 62.5484 49.4507V30.8534C62.5477 30.1811 62.2803 29.5365 61.8049 29.061C61.3295 28.5856 60.685 28.3182 60.0126 28.3174ZM10.1436 30.8534C10.1438 30.6293 10.2329 30.4144 10.3914 30.2559C10.5499 30.0974 10.7647 30.0083 10.9888 30.0081H14.1448C13.7618 31.0617 12.7582 32.6222 10.1731 32.5399C10.1631 32.5395 10.1536 32.5418 10.1436 32.5417V30.8534ZM10.9888 50.2961C10.7647 50.2958 10.5499 50.2066 10.3914 50.0482C10.233 49.8897 10.1438 49.6748 10.1436 49.4507V47.7728C10.1536 47.7729 10.163 47.7752 10.1731 47.7749C12.775 47.6863 13.7707 49.231 14.1491 50.2961H10.9888ZM60.8579 49.4507C60.8576 49.6748 60.7685 49.8897 60.6101 50.0482C60.4516 50.2066 60.2368 50.2958 60.0126 50.2961H57.7292C57.9502 49.6215 58.3646 49.0268 58.9208 48.5859C59.4771 48.145 60.1507 47.8773 60.8579 47.8162V49.4507ZM60.8579 46.1132C59.7005 46.1918 58.5992 46.6411 57.717 47.3945C56.8348 48.1478 56.2187 49.1652 55.9598 50.2961H15.9167C15.451 48.4666 13.8652 45.969 10.1436 46.0855V34.2301C10.2275 34.2326 14.722 34.4263 15.919 30.008H55.957C56.2127 31.1421 56.8279 32.1632 57.711 32.9191C58.5942 33.6751 59.698 34.1254 60.8579 34.203V46.1132ZM60.8579 32.4983C60.149 32.4366 59.4741 32.1675 58.9171 31.7246C58.3602 31.2818 57.946 30.6848 57.7261 30.008H60.0126C60.2368 30.0083 60.4516 30.0974 60.6101 30.2559C60.7686 30.4144 60.8577 30.6293 60.8579 30.8534V32.4983Z" fill="#2D4356"/>
<path d="M35.6856 39.1595C35.0521 38.9831 34.745 38.8735 34.6672 38.6368C34.6059 38.4477 34.8657 38.2921 34.9708 38.2484C35.1686 38.1756 35.3807 38.15 35.5901 38.1736C35.7996 38.1972 36.0006 38.2693 36.1773 38.3842C36.3668 38.5041 36.5961 38.5438 36.8148 38.4947C36.9231 38.4703 37.0256 38.4249 37.1164 38.3609C37.2071 38.297 37.2844 38.2158 37.3437 38.122C37.4031 38.0282 37.4434 37.9236 37.4624 37.8143C37.4814 37.7049 37.4786 37.5928 37.4542 37.4845C37.4299 37.3762 37.3845 37.2737 37.3205 37.183C37.2566 37.0922 37.1754 37.015 37.0816 36.9556C36.9286 36.861 36.7675 36.7799 36.6004 36.7133V36.3472C36.6004 36.123 36.5113 35.908 36.3528 35.7495C36.1943 35.591 35.9793 35.502 35.7551 35.502C35.531 35.502 35.316 35.591 35.1575 35.7495C34.9989 35.908 34.9099 36.123 34.9099 36.3472V36.5214C34.7074 36.555 34.5094 36.6109 34.3193 36.6883C33.8324 36.8605 33.4302 37.2131 33.1958 37.6733C32.9615 38.1335 32.9129 38.6662 33.0601 39.1612C33.4295 40.286 34.4712 40.5761 35.2318 40.7883C35.6924 40.9166 36.1274 41.038 36.2727 41.2724C36.3167 41.3372 36.3419 41.4129 36.3454 41.4911C36.3489 41.5693 36.3307 41.6469 36.2927 41.7153C36.1189 41.9754 35.5991 42.0369 35.2006 41.9642C35.0448 41.9313 34.8987 41.8623 34.7743 41.7628C34.5976 41.6248 34.3734 41.5627 34.1509 41.5901C33.9284 41.6175 33.7259 41.7321 33.5879 41.9088C33.4499 42.0855 33.3878 42.3097 33.4152 42.5322C33.4425 42.7547 33.5572 42.9572 33.7339 43.0952C34.0158 43.3154 34.3384 43.4779 34.6831 43.5734V43.955C34.6831 44.1791 34.7722 44.3941 34.9307 44.5527C35.0892 44.7112 35.3042 44.8002 35.5283 44.8002C35.7525 44.8002 35.9675 44.7112 36.126 44.5527C36.2845 44.3941 36.3736 44.1791 36.3736 43.955V43.5688C36.9123 43.4366 37.3837 43.1112 37.6984 42.6544C37.9175 42.3165 38.0351 41.9228 38.0372 41.5201C38.0392 41.1173 37.9257 40.7225 37.7099 40.3824C37.2172 39.5865 36.368 39.3498 35.6856 39.1595Z" fill="#2D4356"/>
<path d="M35.501 31.6982C33.829 31.6981 32.1946 32.1937 30.8044 33.1224C29.4141 34.0512 28.3305 35.3713 27.6906 36.9159C27.0507 38.4605 26.8831 40.1602 27.2092 41.8001C27.5353 43.4399 28.3403 44.9462 29.5224 46.1285C30.7046 47.3108 32.2108 48.1159 33.8506 48.4422C35.4904 48.7684 37.1901 48.6011 38.7347 47.9613C40.2794 47.3216 41.5997 46.2381 42.5286 44.848C43.4575 43.4579 43.9533 41.8235 43.9533 40.1516C43.9509 37.9105 43.0596 35.762 41.4751 34.1772C39.8905 32.5924 37.742 31.7009 35.501 31.6982ZM35.501 46.914C34.1634 46.9142 32.8559 46.5177 31.7437 45.7747C30.6315 45.0317 29.7646 43.9755 29.2527 42.7398C28.7407 41.5041 28.6067 40.1444 28.8676 38.8325C29.1285 37.5207 29.7725 36.3156 30.7182 35.3698C31.664 34.424 32.869 33.7799 34.1808 33.5189C35.4926 33.2579 36.8524 33.3918 38.0881 33.9036C39.3239 34.4155 40.3801 35.2823 41.1232 36.3944C41.8663 37.5065 42.2629 38.814 42.2629 40.1516C42.2609 41.9444 41.5478 43.6632 40.2802 44.931C39.0125 46.1987 37.2938 46.9119 35.501 46.914Z" fill="#4C7DA7"/>
<path d="M18.803 8.87458C19.0538 8.87458 19.2989 8.80022 19.5074 8.66091C19.7159 8.5216 19.8784 8.32358 19.9744 8.09191C20.0703 7.86024 20.0954 7.60532 20.0465 7.35938C19.9976 7.11344 19.8768 6.88753 19.6995 6.71021C19.5222 6.5329 19.2963 6.41215 19.0504 6.36323C18.8044 6.31431 18.5495 6.33942 18.3178 6.43538C18.0862 6.53134 17.8881 6.69384 17.7488 6.90234C17.6095 7.11084 17.5352 7.35597 17.5352 7.60672C17.5355 7.94286 17.6692 8.26512 17.9069 8.50281C18.1446 8.7405 18.4669 8.8742 18.803 8.87458ZM18.803 6.9728C18.9284 6.9728 19.051 7.00998 19.1552 7.07963C19.2595 7.14929 19.3407 7.2483 19.3887 7.36413C19.4367 7.47997 19.4492 7.60743 19.4248 7.7304C19.4003 7.85337 19.3399 7.96632 19.2513 8.05498C19.1626 8.14364 19.0497 8.20401 18.9267 8.22847C18.8037 8.25293 18.6763 8.24038 18.5604 8.1924C18.4446 8.14442 18.3456 8.06317 18.2759 7.95892C18.2063 7.85467 18.1691 7.7321 18.1691 7.60672C18.1693 7.43865 18.2361 7.2775 18.3549 7.15865C18.4738 7.0398 18.6349 6.97296 18.803 6.9728Z" fill="#2D4356"/>
<path d="M68.6734 8.45117C68.5062 8.45117 68.3428 8.50074 68.2038 8.59362C68.0648 8.6865 67.9564 8.8185 67.8925 8.97295C67.8285 9.1274 67.8118 9.29735 67.8444 9.46131C67.877 9.62527 67.9575 9.77587 68.0757 9.89408C68.1939 10.0123 68.3445 10.0928 68.5085 10.1254C68.6724 10.158 68.8424 10.1413 68.9968 10.0773C69.1513 10.0133 69.2833 9.905 69.3761 9.766C69.469 9.627 69.5186 9.46358 69.5186 9.29641C69.5183 9.07232 69.4292 8.85748 69.2708 8.69902C69.1123 8.54056 68.8975 8.45143 68.6734 8.45117ZM68.6734 9.71903C68.5898 9.71903 68.5081 9.69424 68.4386 9.6478C68.3691 9.60137 68.3149 9.53536 68.2829 9.45814C68.2509 9.38092 68.2426 9.29594 68.2589 9.21396C68.2752 9.13198 68.3154 9.05668 68.3745 8.99757C68.4336 8.93847 68.5089 8.89822 68.5909 8.88191C68.6729 8.8656 68.7579 8.87397 68.8351 8.90596C68.9123 8.93795 68.9783 8.99212 69.0248 9.06162C69.0712 9.13111 69.096 9.21282 69.096 9.29641C69.0959 9.40846 69.0513 9.51589 68.9721 9.59512C68.8928 9.67436 68.7854 9.71892 68.6734 9.71903Z" fill="#2D4356"/>
<path d="M2.3218 5.91602C2.15463 5.91602 1.99121 5.96559 1.85221 6.05846C1.71321 6.15134 1.60488 6.28335 1.5409 6.4378C1.47693 6.59224 1.46019 6.76219 1.4928 6.92615C1.52542 7.09011 1.60592 7.24072 1.72413 7.35893C1.84234 7.47714 1.99294 7.55764 2.1569 7.59025C2.32086 7.62286 2.49081 7.60613 2.64526 7.54215C2.79971 7.47818 2.93171 7.36984 3.02459 7.23084C3.11747 7.09184 3.16704 6.92843 3.16704 6.76125C3.16678 6.53716 3.07765 6.32232 2.91919 6.16386C2.76073 6.00541 2.54589 5.91627 2.3218 5.91602ZM2.3218 7.18387C2.23821 7.18387 2.15651 7.15909 2.08701 7.11265C2.01751 7.06621 1.96334 7.00021 1.93135 6.92298C1.89936 6.84576 1.891 6.76078 1.9073 6.6788C1.92361 6.59682 1.96386 6.52152 2.02296 6.46242C2.08207 6.40331 2.15737 6.36306 2.23935 6.34676C2.32133 6.33045 2.40631 6.33882 2.48353 6.3708C2.56075 6.40279 2.62676 6.45696 2.6732 6.52646C2.71963 6.59596 2.74442 6.67767 2.74442 6.76125C2.74431 6.8733 2.69975 6.98073 2.62051 7.05997C2.54128 7.1392 2.43385 7.18376 2.3218 7.18387Z" fill="#2D4356"/>
<path d="M30.0488 1.5066C29.929 1.62317 29.8464 1.77266 29.8116 1.93616C29.7767 2.09965 29.7911 2.26982 29.8529 2.42513C29.9148 2.58044 30.0213 2.71392 30.159 2.80869C30.2967 2.90347 30.4595 2.95528 30.6266 2.95757C30.7938 2.95987 30.9578 2.91254 31.0981 2.82159C31.2384 2.73063 31.3485 2.60012 31.4146 2.44656C31.4807 2.29301 31.4998 2.1233 31.4694 1.95891C31.439 1.79452 31.3606 1.64282 31.244 1.523C31.0876 1.36256 30.8739 1.27073 30.6498 1.26766C30.4257 1.26458 30.2096 1.35051 30.0488 1.5066ZM30.9329 2.41533C30.873 2.47362 30.7972 2.51283 30.715 2.52801C30.6328 2.54319 30.5479 2.53365 30.4711 2.50061C30.3944 2.46757 30.3291 2.4125 30.2836 2.34237C30.2381 2.27224 30.2145 2.1902 30.2156 2.10662C30.2168 2.02304 30.2427 1.94168 30.2901 1.87282C30.3375 1.80397 30.4042 1.75071 30.4819 1.71979C30.5595 1.68886 30.6446 1.68166 30.7263 1.69909C30.8081 1.71652 30.8828 1.7578 30.9411 1.81771C31.0192 1.8981 31.0621 2.00618 31.0606 2.11822C31.0591 2.23026 31.0131 2.33711 30.9329 2.41533Z" fill="#2D4356"/>
<path d="M53.4561 16.0591C53.4561 15.8919 53.4065 15.7285 53.3137 15.5895C53.2208 15.4505 53.0888 15.3422 52.9343 15.2782C52.7799 15.2142 52.6099 15.1975 52.446 15.2301C52.282 15.2627 52.1314 15.3432 52.0132 15.4614C51.895 15.5796 51.8145 15.7302 51.7819 15.8942C51.7493 16.0582 51.766 16.2281 51.83 16.3826C51.8939 16.537 52.0023 16.669 52.1413 16.7619C52.2803 16.8548 52.4437 16.9043 52.6109 16.9043C52.835 16.9041 53.0498 16.815 53.2083 16.6565C53.3667 16.498 53.4558 16.2832 53.4561 16.0591ZM52.1882 16.0591C52.1882 15.9755 52.213 15.8938 52.2595 15.8243C52.3059 15.7548 52.3719 15.7006 52.4491 15.6687C52.5264 15.6367 52.6113 15.6283 52.6933 15.6446C52.7753 15.6609 52.8506 15.7012 52.9097 15.7603C52.9688 15.8194 53.0091 15.8947 53.0254 15.9767C53.0417 16.0586 53.0333 16.1436 53.0013 16.2208C52.9693 16.2981 52.9152 16.3641 52.8457 16.4105C52.7762 16.4569 52.6944 16.4817 52.6109 16.4817C52.4988 16.4816 52.3914 16.4371 52.3121 16.3578C52.2329 16.2786 52.1884 16.1712 52.1882 16.0591Z" fill="#2D4356"/>
<path d="M10.599 16.9085L11.2274 16.0823L10.8306 15.8574L10.4274 16.783H10.4139L10.004 15.8638L9.60035 16.0954L10.222 16.9021V16.9152L9.25 16.7897V17.2394L10.2288 17.1139V17.127L9.60035 17.9333L9.97733 18.1717L10.4076 17.2394H10.4202L10.8171 18.1649L11.2338 17.927L10.599 17.1333V17.1202L11.5972 17.2394V16.7897L10.599 16.922V16.9085Z" fill="#4C7DA7"/>
<path d="M40.6888 9.74773L40.3266 10.2122L40.5438 10.3491L40.7915 9.81239H40.7991L41.0273 10.3453L41.2673 10.2084L40.9018 9.75111V9.74351L41.4765 9.81239V9.55333L40.9018 9.6294V9.62179L41.2635 9.14592L41.0353 9.0166L40.8029 9.54952H40.7953L40.5595 9.0204L40.3266 9.15353L40.685 9.61799V9.6256L40.125 9.55333V9.81239L40.6888 9.74013V9.74773Z" fill="#4C7DA7"/>
<path d="M55.5759 5.37194V4.93115L54.5967 5.06089V5.04779L55.2133 4.23721L54.824 4.0166L54.4285 4.92439H54.4149L54.013 4.02294L53.617 4.25031L54.2269 5.04145V5.05455L53.2734 4.93115V5.37194L54.2332 5.24896V5.26206L53.617 6.0532L53.9868 6.28691L54.4086 5.37194H54.4213L54.8105 6.28015L55.2192 6.04686L54.5967 5.2684V5.2553L55.5759 5.37194Z" fill="#4C7DA7"/>
<path d="M29.411 12.8755L29.9427 12.1765L29.6071 11.9863L29.2661 12.7694H29.2547L28.9077 11.9918L28.5662 12.1875L29.0924 12.87V12.8814L28.2695 12.7749V13.1553L29.0979 13.0492V13.0602L28.5662 13.7427L28.8849 13.9443L29.2492 13.1553H29.2602L29.5957 13.9388L29.9482 13.7372L29.411 13.0657V13.0547L30.2558 13.1553V12.7749L29.411 12.8869V12.8755Z" fill="#4C7DA7"/>
<path d="M0.845238 63.8155C1.31205 63.8155 1.69048 63.4371 1.69048 62.9702C1.69048 62.5034 1.31205 62.125 0.845238 62.125C0.378426 62.125 0 62.5034 0 62.9702C0 63.4371 0.378426 63.8155 0.845238 63.8155Z" fill="#2D4356"/>
<path d="M4.64825 62.125H3.38039C3.15622 62.125 2.94123 62.2141 2.78272 62.3726C2.62421 62.5311 2.53516 62.7461 2.53516 62.9702C2.53516 63.1944 2.62421 63.4094 2.78272 63.5679C2.94123 63.7264 3.15622 63.8155 3.38039 63.8155H4.64825C4.87242 63.8155 5.08741 63.7264 5.24593 63.5679C5.40444 63.4094 5.49349 63.1944 5.49349 62.9702C5.49349 62.7461 5.40444 62.5311 5.24593 62.3726C5.08741 62.2141 4.87242 62.125 4.64825 62.125Z" fill="#2D4356"/>
<path d="M67.6209 62.125H66.3531C66.1289 62.125 65.9139 62.2141 65.7554 62.3726C65.5969 62.5311 65.5078 62.7461 65.5078 62.9702C65.5078 63.1944 65.5969 63.4094 65.7554 63.5679C65.9139 63.7264 66.1289 63.8155 66.3531 63.8155H67.6209C67.8451 63.8155 68.0601 63.7264 68.2186 63.5679C68.3771 63.4094 68.4661 63.1944 68.4661 62.9702C68.4661 62.7461 68.3771 62.5311 68.2186 62.3726C68.0601 62.2141 67.8451 62.125 67.6209 62.125Z" fill="#2D4356"/>
<path d="M70.1538 63.8155C70.6206 63.8155 70.9991 63.4371 70.9991 62.9702C70.9991 62.5034 70.6206 62.125 70.1538 62.125C69.687 62.125 69.3086 62.5034 69.3086 62.9702C69.3086 63.4371 69.687 63.8155 70.1538 63.8155Z" fill="#2D4356"/>
<path d="M49.9319 65.5059H46.4208C46.2084 65.5229 46.0101 65.6193 45.8655 65.7759C45.7209 65.9326 45.6406 66.1379 45.6406 66.3511C45.6406 66.5643 45.7209 66.7696 45.8655 66.9262C46.0101 67.0829 46.2084 67.1793 46.4208 67.1963H49.9319C50.1443 67.1793 50.3426 67.0829 50.4872 66.9262C50.6318 66.7696 50.7121 66.5643 50.7121 66.3511C50.7121 66.1379 50.6318 65.9326 50.4872 65.7759C50.3426 65.6193 50.1443 65.5229 49.9319 65.5059Z" fill="#4C7DA7"/>
<path d="M24.5764 65.5059H21.0654C20.8529 65.5229 20.6546 65.6193 20.51 65.7759C20.3654 65.9326 20.2852 66.1379 20.2852 66.3511C20.2852 66.5643 20.3654 66.7696 20.51 66.9262C20.6546 67.0829 20.8529 67.1793 21.0654 67.1963H24.5764C24.7889 67.1793 24.9871 67.0829 25.1317 66.9262C25.2763 66.7696 25.3566 66.5643 25.3566 66.3511C25.3566 66.1379 25.2763 65.9326 25.1317 65.7759C24.9871 65.6193 24.7889 65.5229 24.5764 65.5059Z" fill="#4C7DA7"/>
<path d="M43.9531 65.5059H27.0484C26.8242 65.5059 26.6092 65.5949 26.4507 65.7534C26.2922 65.9119 26.2031 66.1269 26.2031 66.3511C26.2031 66.5753 26.2922 66.7903 26.4507 66.9488C26.6092 67.1073 26.8242 67.1963 27.0484 67.1963H33.7849V68.0416H30.4293C30.2051 68.0416 29.9902 68.1306 29.8316 68.2891C29.6731 68.4477 29.5841 68.6626 29.5841 68.8868C29.5841 69.111 29.6731 69.326 29.8316 69.4845C29.9902 69.643 30.2051 69.732 30.4293 69.732H40.9948C41.219 69.732 41.434 69.643 41.5925 69.4845C41.751 69.326 41.84 69.111 41.84 68.8868C41.84 68.6626 41.751 68.4477 41.5925 68.2891C41.434 68.1306 41.219 68.0416 40.9948 68.0416H37.2166V67.1963H43.9531C44.1773 67.1963 44.3923 67.1073 44.5508 66.9488C44.7093 66.7903 44.7984 66.5753 44.7984 66.3511C44.7984 66.1269 44.7093 65.9119 44.5508 65.7534C44.3923 65.5949 44.1773 65.5059 43.9531 65.5059Z" fill="#4C7DA7"/>
<path d="M63.6981 62.1245H46.6076C49.1949 60.6941 51.2174 58.4245 52.3412 55.6901C52.3836 55.5875 52.4053 55.4776 52.4052 55.3666C52.4051 55.2555 52.3832 55.1456 52.3406 55.0431C52.298 54.9406 52.2357 54.8475 52.1571 54.7691C52.0785 54.6906 51.9853 54.6285 51.8827 54.5861C51.7801 54.5437 51.6702 54.5219 51.5591 54.522C51.4481 54.5221 51.3382 54.5441 51.2357 54.5867C51.1332 54.6292 51.0401 54.6916 50.9616 54.7702C50.8832 54.8487 50.821 54.942 50.7787 55.0446C50.2145 56.4265 49.3813 57.6824 48.3275 58.7394C47.2736 59.7965 46.0202 60.6335 44.64 61.2018C43.2598 61.7701 41.7805 62.0584 40.2879 62.0499C38.7953 62.0414 37.3193 61.7363 35.9457 61.1523C36.0966 61.0446 36.2078 60.8902 36.2621 60.7129C36.3164 60.5356 36.3107 60.3453 36.2458 60.1716C36.181 59.9979 36.0607 59.8504 35.9035 59.752C35.7464 59.6536 35.5612 59.6097 35.3766 59.6273L32.8873 59.8559C32.7431 59.8691 32.6047 59.9192 32.4854 60.0014C32.3661 60.0835 32.2699 60.1949 32.2061 60.3249C32.1422 60.4549 32.1128 60.5991 32.1208 60.7437C32.1287 60.8883 32.1736 61.0284 32.2513 61.1507C32.2513 61.1507 32.5464 61.6152 32.87 62.1245H23.5907L35.4725 54.0352L29.7056 55.916L22.036 61.1375C21.8518 61.2633 21.6253 61.3112 21.4059 61.2708C21.1866 61.2305 20.992 61.1051 20.8645 60.9221L19.6689 59.1893L17.9924 59.7361L19.4733 61.8821C19.5329 61.9671 19.598 62.0481 19.6682 62.1245H7.30271C7.18246 62.1088 7.06025 62.1189 6.94422 62.1542C6.8282 62.1895 6.72105 62.2491 6.62991 62.3291C6.53878 62.4091 6.46576 62.5076 6.41574 62.6181C6.36572 62.7286 6.33984 62.8484 6.33984 62.9697C6.33984 63.091 6.36572 63.2109 6.41574 63.3213C6.46576 63.4318 6.53878 63.5303 6.62991 63.6103C6.72105 63.6903 6.8282 63.75 6.94422 63.7853C7.06025 63.8205 7.18246 63.8307 7.30271 63.815H63.6981C63.8183 63.8307 63.9406 63.8205 64.0566 63.7853C64.1726 63.75 64.2798 63.6903 64.3709 63.6103C64.462 63.5303 64.535 63.4318 64.5851 63.3213C64.6351 63.2109 64.661 63.091 64.661 62.9697C64.661 62.8484 64.6351 62.7286 64.5851 62.6181C64.535 62.5076 64.462 62.4091 64.3709 62.3291C64.2798 62.2491 64.1726 62.1895 64.0566 62.1542C63.9406 62.1189 63.8183 62.1088 63.6981 62.1245Z" fill="#2D4356"/>
</svg>
