<svg width="71" height="71" viewBox="0 0 71 71" fill="none" xmlns="http://www.w3.org/2000/svg">
    <g clip-path="url(#clip0_715_31633)">
        <path
            d="M42.6837 16.4822H20.7073C20.5959 16.4816 20.4855 16.503 20.3824 16.5452C20.2793 16.5874 20.1856 16.6496 20.1066 16.7281C20.0276 16.8067 19.965 16.9 19.9222 17.0029C19.8794 17.1057 19.8574 17.216 19.8574 17.3274C19.8574 17.4388 19.8794 17.5491 19.9222 17.6519C19.965 17.7548 20.0276 17.8482 20.1066 17.9267C20.1856 18.0053 20.2793 18.0674 20.3824 18.1096C20.4855 18.1518 20.5959 18.1733 20.7073 18.1726H42.6837C42.7951 18.1733 42.9055 18.1518 43.0086 18.1096C43.1117 18.0674 43.2054 18.0053 43.2844 17.9267C43.3634 17.8482 43.4261 17.7548 43.4688 17.6519C43.5116 17.5491 43.5336 17.4388 43.5336 17.3274C43.5336 17.216 43.5116 17.1057 43.4688 17.0029C43.4261 16.9 43.3634 16.8067 43.2844 16.7281C43.2054 16.6496 43.1117 16.5874 43.0086 16.5452C42.9055 16.503 42.7951 16.4816 42.6837 16.4822Z"
            fill="#0BCEB2" />
        <path
            d="M42.6849 19.8633H20.7085C20.5975 19.8633 20.4876 19.8851 20.385 19.9276C20.2825 19.9701 20.1893 20.0324 20.1108 20.1108C20.0324 20.1893 19.9701 20.2825 19.9276 20.385C19.8851 20.4876 19.8633 20.5975 19.8633 20.7085C19.8633 20.8195 19.8851 20.9294 19.9276 21.0319C19.9701 21.1345 20.0324 21.2277 20.1108 21.3062C20.1893 21.3846 20.2825 21.4469 20.385 21.4894C20.4876 21.5318 20.5975 21.5537 20.7085 21.5537H42.6849C42.7959 21.5537 42.9058 21.5318 43.0084 21.4894C43.1109 21.4469 43.2041 21.3846 43.2826 21.3062C43.3611 21.2277 43.4233 21.1345 43.4658 21.0319C43.5083 20.9294 43.5302 20.8195 43.5302 20.7085C43.5302 20.5975 43.5083 20.4876 43.4658 20.385C43.4233 20.2825 43.3611 20.1893 43.2826 20.1108C43.2041 20.0324 43.1109 19.9701 43.0084 19.9276C42.9058 19.8851 42.7959 19.8633 42.6849 19.8633Z"
            fill="#2D4356" />
        <path
            d="M42.6837 23.2442H20.7073C20.5959 23.2435 20.4855 23.265 20.3824 23.3072C20.2793 23.3494 20.1856 23.4115 20.1066 23.4901C20.0276 23.5686 19.965 23.662 19.9222 23.7649C19.8794 23.8677 19.8574 23.978 19.8574 24.0894C19.8574 24.2008 19.8794 24.3111 19.9222 24.4139C19.965 24.5168 20.0276 24.6101 20.1066 24.6887C20.1856 24.7672 20.2793 24.8294 20.3824 24.8716C20.4855 24.9138 20.5959 24.9352 20.7073 24.9346H42.6837C42.7951 24.9352 42.9055 24.9138 43.0086 24.8716C43.1117 24.8294 43.2054 24.7672 43.2844 24.6887C43.3634 24.6101 43.4261 24.5168 43.4688 24.4139C43.5116 24.3111 43.5336 24.2008 43.5336 24.0894C43.5336 23.978 43.5116 23.8677 43.4688 23.7649C43.4261 23.662 43.3634 23.5686 43.2844 23.4901C43.2054 23.4115 43.1117 23.3494 43.0086 23.3072C42.9055 23.265 42.7951 23.2435 42.6837 23.2442Z"
            fill="#0BCEB2" />
        <path
            d="M43.529 27.4703C43.529 27.2461 43.4399 27.0311 43.2814 26.8726C43.1229 26.7141 42.9079 26.625 42.6837 26.625H20.7073C20.5959 26.6244 20.4855 26.6458 20.3824 26.688C20.2793 26.7302 20.1856 26.7924 20.1066 26.8709C20.0276 26.9495 19.965 27.0429 19.9222 27.1457C19.8794 27.2486 19.8574 27.3589 19.8574 27.4702C19.8574 27.5816 19.8794 27.6919 19.9222 27.7948C19.965 27.8976 20.0276 27.991 20.1066 28.0695C20.1856 28.1481 20.2793 28.2103 20.3824 28.2525C20.4855 28.2947 20.5959 28.3161 20.7073 28.3155H42.6837C42.9079 28.3155 43.1229 28.2264 43.2814 28.0679C43.4399 27.9094 43.529 27.6944 43.529 27.4703Z"
            fill="#2D4356" />
        <path
            d="M21.8423 53.7413C21.738 53.7034 21.6271 53.6866 21.5162 53.6916C21.4053 53.6966 21.2965 53.7235 21.196 53.7707C21.0954 53.8178 21.0052 53.8843 20.9304 53.9664C20.8557 54.0485 20.7978 54.1445 20.7602 54.2489C20.1139 56.0372 20.1271 57.4508 20.7998 58.4502C21.0108 58.7853 21.2911 59.0715 21.6218 59.2895C21.9525 59.5074 22.3261 59.6521 22.7173 59.7139C23.8878 59.8874 25.0492 59.2977 25.8408 58.7485C25.9967 59.0664 26.1939 59.3622 26.4272 59.6284C26.758 60.0065 27.1644 60.3109 27.6201 60.522C28.0759 60.7332 28.5709 60.8463 29.0732 60.8542C29.7087 60.8578 30.3244 60.6332 30.8083 60.2212C31.3193 59.7187 31.6763 59.0807 31.8371 58.3822C31.9094 58.1544 31.9779 57.9392 32.0579 57.7493C32.4946 56.7153 33.5598 56.8676 34.1578 57.0504C34.6627 57.2643 35.1219 57.5731 35.5103 57.96C35.9205 58.3381 36.3721 58.6686 36.8566 58.945C37.1194 59.1035 37.4119 59.2063 37.7161 59.2469C38.0203 59.2876 38.3295 59.2652 38.6247 59.1813C39.5372 58.8833 39.9821 57.9743 40.3746 57.1722L40.4823 56.9534C40.5811 56.7528 40.5963 56.5213 40.5247 56.3094C40.4531 56.0976 40.3005 55.9228 40.1003 55.8232C39.9001 55.7236 39.6686 55.7075 39.4565 55.7782C39.2443 55.8489 39.0689 56.0008 38.9685 56.2006C38.9685 56.2006 38.3329 57.4982 38.0997 57.5744C37.938 57.5831 37.7778 57.5391 37.6433 57.4489C37.2723 57.2286 36.9259 56.9695 36.6098 56.6759C36.0506 56.131 35.3843 55.7082 34.6531 55.4342C32.7988 54.8657 31.1661 55.5151 30.5004 57.0919C30.3902 57.3536 30.3064 57.6165 30.2259 57.8709C29.9742 58.6633 29.8313 58.9978 29.4256 59.1158C29.1092 59.1817 28.7808 59.1601 28.4757 59.0533C28.1707 58.9465 27.9005 58.7586 27.6943 58.5098C27.4657 58.2413 27.2934 57.9296 27.1874 57.5933C27.6635 57.0987 28.0914 56.5599 28.4652 55.9842C29.358 54.6258 29.9983 53.1174 30.3555 51.5316C30.8656 49.2454 30.1557 48.2101 29.6869 47.7963C29.4336 47.5708 29.123 47.4195 28.7893 47.3591C28.4556 47.2988 28.1116 47.3317 27.7954 47.4542C26.6274 47.8727 25.7458 49.265 25.4379 51.1789C25.1889 52.6096 25.0991 54.0635 25.1701 55.5139C25.1938 56.0197 25.2433 56.5239 25.3182 57.0246C25.3075 57.0335 25.2968 57.0424 25.2861 57.051C24.4218 57.7584 23.5494 58.1272 22.9641 58.0416C22.805 58.0156 22.6538 57.9539 22.5218 57.8612C22.3899 57.7685 22.2806 57.6472 22.2022 57.5063C21.8572 56.9939 21.91 56.0411 22.35 54.8234C22.3877 54.719 22.4046 54.6082 22.3995 54.4974C22.3944 54.3865 22.3675 54.2777 22.3204 54.1772C22.2732 54.0767 22.2067 53.9865 22.1247 53.9117C22.0427 53.8369 21.9467 53.779 21.8423 53.7413ZM27.107 51.4474C27.336 50.025 27.92 49.2052 28.3658 49.0456C28.3977 49.0288 28.4339 49.0215 28.4698 49.0247C28.5058 49.028 28.54 49.0415 28.5684 49.0638C28.7434 49.2184 28.9972 49.856 28.7054 51.1633C28.3888 52.5501 27.8282 53.8697 27.0496 55.0603C26.9856 55.1583 26.9203 55.2546 26.8536 55.349C26.7974 54.0432 26.8824 52.7351 27.107 51.4474Z"
            fill="#0BCEB2" />
        <path
            d="M20.7073 40.1488C20.5959 40.1482 20.4855 40.1696 20.3824 40.2118C20.2793 40.254 20.1856 40.3162 20.1066 40.3947C20.0276 40.4733 19.965 40.5667 19.9222 40.6695C19.8794 40.7724 19.8574 40.8827 19.8574 40.994C19.8574 41.1054 19.8794 41.2157 19.9222 41.3186C19.965 41.4214 20.0276 41.5148 20.1066 41.5934C20.1856 41.6719 20.2793 41.7341 20.3824 41.7763C20.4855 41.8185 20.5959 41.8399 20.7073 41.8393H39.2487L39.8025 40.1488H20.7073Z"
            fill="#2D4356" />
        <path
            d="M56.894 24.7309C56.7886 24.6961 56.6772 24.6825 56.5665 24.6908C56.4557 24.6991 56.3477 24.7292 56.2486 24.7793C56.1495 24.8294 56.0612 24.8986 55.9889 24.9829C55.9166 25.0672 55.8616 25.1649 55.8271 25.2705L55.5997 25.9638L54.1972 25.4358L54.7099 23.8708C54.9085 23.2969 54.8766 22.6682 54.6211 22.1173C54.3655 21.5664 53.9061 21.1361 53.3397 20.917L50.7057 19.9857C50.1267 19.8045 49.4995 19.8603 48.9616 20.1408C48.4237 20.4213 48.0189 20.9037 47.8361 21.4822L40.2875 44.522C39.4879 46.944 39.5416 49.5668 40.4397 51.9541C40.4822 52.065 40.5369 52.1707 40.6028 52.2693L40.1698 53.361C40.0872 53.5694 40.0908 53.8021 40.1797 54.0078C40.2687 54.2136 40.4357 54.3756 40.644 54.4582C40.8526 54.5381 41.0842 54.5332 41.2892 54.4447C41.4943 54.3561 41.6566 54.1909 41.7415 53.9842L42.1657 52.9145C42.3404 52.8791 42.5074 52.8134 42.6594 52.7203C44.6703 51.451 46.2012 49.5481 47.0103 47.312C47.0388 47.2624 53.6703 27.0437 53.6703 27.0437L55.0721 27.5714L52.74 34.6781C52.6702 34.8911 52.6878 35.1231 52.7889 35.3231C52.8901 35.5232 53.0665 35.6748 53.2795 35.7448C53.4925 35.8122 53.7236 35.7935 53.923 35.6926C54.1224 35.5918 54.2744 35.4168 54.3464 35.2052L57.4334 25.7976C57.5033 25.5846 57.4858 25.3526 57.3846 25.1525C57.2835 24.9525 57.107 24.8008 56.894 24.7309ZM41.9511 51.1671C41.3972 49.5891 41.2732 47.8921 41.592 46.2503L41.595 46.2516L45.1427 47.4115C44.4508 48.9371 43.3451 50.2382 41.9511 51.1671ZM45.7371 45.8275C45.7371 45.8275 42.0615 44.632 42.0322 44.6258L46.4882 31.0253L50.165 32.3134L45.7371 45.8275ZM50.6915 30.7065L47.0146 29.4184L48.438 25.0739L52.0869 26.4476L50.6915 30.7065ZM53.1036 23.3446L52.6138 24.8397L48.9648 23.466L49.4424 22.0085C49.4813 21.8606 49.5757 21.7335 49.7061 21.6536C49.8364 21.5737 49.9926 21.5472 50.142 21.5796L52.7759 22.5109C52.9258 22.5828 53.0429 22.7087 53.1037 22.8633C53.1645 23.018 53.1644 23.1899 53.1036 23.3446Z"
            fill="#2D4356" />
        <path
            d="M40.9102 36.768H20.7073C20.5959 36.7673 20.4855 36.7888 20.3824 36.831C20.2793 36.8732 20.1856 36.9353 20.1066 37.0139C20.0276 37.0924 19.965 37.1858 19.9222 37.2887C19.8794 37.3915 19.8574 37.5018 19.8574 37.6132C19.8574 37.7246 19.8794 37.8349 19.9222 37.9377C19.965 38.0406 20.0276 38.1339 20.1066 38.2125C20.1856 38.291 20.2793 38.3532 20.3824 38.3954C20.4855 38.4376 20.5959 38.459 20.7073 38.4584H40.3563L40.9102 36.768Z"
            fill="#0BCEB2" />
        <path
            d="M42.0178 33.3869H20.7073C20.5959 33.3862 20.4855 33.4077 20.3824 33.4499C20.2793 33.4921 20.1856 33.5542 20.1066 33.6328C20.0276 33.7113 19.965 33.8047 19.9222 33.9076C19.8794 34.0104 19.8574 34.1207 19.8574 34.2321C19.8574 34.3435 19.8794 34.4538 19.9222 34.5566C19.965 34.6595 20.0276 34.7528 20.1066 34.8314C20.1856 34.9099 20.2793 34.9721 20.3824 35.0143C20.4855 35.0565 20.5959 35.0779 20.7073 35.0773H41.464L42.0178 33.3869Z"
            fill="#2D4356" />
        <path
            d="M43.09 30.1142C42.966 30.0441 42.8262 30.0068 42.6837 30.0059H20.7073C20.5959 30.0053 20.4855 30.0267 20.3824 30.0689C20.2793 30.1111 20.1856 30.1732 20.1066 30.2518C20.0276 30.3303 19.965 30.4237 19.9222 30.5266C19.8794 30.6294 19.8574 30.7397 19.8574 30.8511C19.8574 30.9625 19.8794 31.0728 19.9222 31.1756C19.965 31.2785 20.0276 31.3719 20.1066 31.4504C20.1856 31.529 20.2793 31.5911 20.3824 31.6333C20.4855 31.6755 20.5959 31.6969 20.7073 31.6963H42.5716L43.09 30.1142Z"
            fill="#0BCEB2" />
        <path
            d="M36.0608 5.35188C36.3116 5.35188 36.5567 5.27752 36.7652 5.1382C36.9737 4.99889 37.1362 4.80088 37.2322 4.56921C37.3281 4.33754 37.3532 4.08261 37.3043 3.83667C37.2554 3.59073 37.1347 3.36482 36.9573 3.18751C36.78 3.0102 36.5541 2.88944 36.3082 2.84052C36.0622 2.7916 35.8073 2.81671 35.5756 2.91267C35.344 3.00863 35.146 3.17114 35.0066 3.37964C34.8673 3.58813 34.793 3.83326 34.793 4.08402C34.7934 4.42016 34.9271 4.74242 35.1647 4.98011C35.4024 5.21779 35.7247 5.35149 36.0608 5.35188ZM36.0608 3.45009C36.1862 3.45009 36.3088 3.48727 36.413 3.55693C36.5173 3.62658 36.5985 3.72559 36.6465 3.84143C36.6945 3.95726 36.707 4.08472 36.6826 4.20769C36.6581 4.33066 36.5977 4.44362 36.5091 4.53228C36.4204 4.62093 36.3075 4.68131 36.1845 4.70577C36.0615 4.73023 35.9341 4.71767 35.8182 4.66969C35.7024 4.62171 35.6034 4.54046 35.5337 4.43621C35.4641 4.33196 35.4269 4.2094 35.4269 4.08402C35.4271 3.91594 35.4939 3.7548 35.6128 3.63595C35.7316 3.5171 35.8927 3.45026 36.0608 3.45009Z"
            fill="#2D4356" />
        <path
            d="M12.5386 0.845215C12.3714 0.845215 12.208 0.894787 12.069 0.987663C11.93 1.08054 11.8217 1.21255 11.7577 1.36699C11.6937 1.52144 11.677 1.69139 11.7096 1.85535C11.7422 2.01931 11.8227 2.16992 11.9409 2.28813C12.0591 2.40634 12.2097 2.48684 12.3737 2.51945C12.5377 2.55206 12.7076 2.53533 12.8621 2.47135C13.0165 2.40738 13.1485 2.29904 13.2414 2.16004C13.3343 2.02104 13.3838 1.85763 13.3838 1.69045C13.3836 1.46636 13.2944 1.25152 13.136 1.09306C12.9775 0.934605 12.7627 0.845471 12.5386 0.845215ZM12.5386 2.11307C12.455 2.11307 12.3733 2.08829 12.3038 2.04185C12.2343 1.99541 12.1801 1.92941 12.1481 1.85218C12.1162 1.77496 12.1078 1.68998 12.1241 1.608C12.1404 1.52602 12.1807 1.45072 12.2398 1.39162C12.2989 1.33251 12.3742 1.29226 12.4561 1.27595C12.5381 1.25965 12.6231 1.26802 12.7003 1.3C12.7776 1.33199 12.8436 1.38616 12.89 1.45566C12.9364 1.52516 12.9612 1.60687 12.9612 1.69045C12.9611 1.8025 12.9165 1.90993 12.8373 1.98917C12.7581 2.0684 12.6506 2.11296 12.5386 2.11307Z"
            fill="#2D4356" />
        <path
            d="M57.9429 0.845215C57.7757 0.845215 57.6123 0.894787 57.4733 0.987663C57.3343 1.08054 57.226 1.21255 57.162 1.36699C57.098 1.52144 57.0813 1.69139 57.1139 1.85535C57.1465 2.01931 57.227 2.16992 57.3452 2.28813C57.4634 2.40634 57.614 2.48684 57.778 2.51945C57.942 2.55206 58.1119 2.53533 58.2664 2.47135C58.4208 2.40738 58.5528 2.29904 58.6457 2.16004C58.7386 2.02104 58.7881 1.85763 58.7881 1.69045C58.7879 1.46636 58.6987 1.25152 58.5403 1.09306C58.3818 0.934605 58.167 0.845471 57.9429 0.845215ZM57.9429 2.11307C57.8593 2.11307 57.7776 2.08829 57.7081 2.04185C57.6386 1.99541 57.5844 1.92941 57.5524 1.85218C57.5205 1.77496 57.5121 1.68998 57.5284 1.608C57.5447 1.52602 57.585 1.45072 57.6441 1.39162C57.7032 1.33251 57.7785 1.29226 57.8604 1.27595C57.9424 1.25965 58.0274 1.26802 58.1046 1.3C58.1818 1.33199 58.2479 1.38616 58.2943 1.45566C58.3407 1.52516 58.3655 1.60687 58.3655 1.69045C58.3654 1.8025 58.3208 1.90993 58.2416 1.98917C58.1624 2.0684 58.0549 2.11296 57.9429 2.11307Z"
            fill="#2D4356" />
        <path
            d="M47.8003 5.99414C47.6331 5.99414 47.4697 6.04371 47.3307 6.13659C47.1917 6.22946 47.0834 6.36147 47.0194 6.51592C46.9554 6.67037 46.9387 6.84032 46.9713 7.00428C47.0039 7.16824 47.0844 7.31884 47.2026 7.43705C47.3209 7.55526 47.4715 7.63576 47.6354 7.66838C47.7994 7.70099 47.9693 7.68425 48.1238 7.62028C48.2782 7.5563 48.4102 7.44797 48.5031 7.30897C48.596 7.16997 48.6456 7.00655 48.6456 6.83938C48.6453 6.61529 48.5562 6.40045 48.3977 6.24199C48.2393 6.08353 48.0244 5.9944 47.8003 5.99414ZM47.8003 7.262C47.7167 7.262 47.635 7.23721 47.5655 7.19077C47.496 7.14434 47.4419 7.07833 47.4099 7.00111C47.3779 6.92388 47.3695 6.83891 47.3858 6.75693C47.4021 6.67495 47.4424 6.59965 47.5015 6.54054C47.5606 6.48144 47.6359 6.44119 47.7179 6.42488C47.7998 6.40857 47.8848 6.41694 47.962 6.44893C48.0393 6.48092 48.1053 6.53508 48.1517 6.60458C48.1981 6.67408 48.2229 6.75579 48.2229 6.83938C48.2228 6.95143 48.1783 7.05886 48.099 7.13809C48.0198 7.21732 47.9124 7.26189 47.8003 7.262Z"
            fill="#2D4356" />
        <path
            d="M3.30766 5.28274C3.30766 5.11557 3.25809 4.95215 3.16522 4.81315C3.07234 4.67415 2.94033 4.56581 2.78588 4.50184C2.63144 4.43787 2.46149 4.42113 2.29753 4.45374C2.13357 4.48636 1.98296 4.56686 1.86475 4.68507C1.74654 4.80327 1.66604 4.95388 1.63343 5.11784C1.60082 5.2818 1.61755 5.45175 1.68153 5.6062C1.7455 5.76064 1.85384 5.89265 1.99284 5.98553C2.13184 6.0784 2.29525 6.12798 2.46243 6.12798C2.68652 6.12772 2.90136 6.03859 3.05982 5.88013C3.21827 5.72167 3.30741 5.50683 3.30766 5.28274ZM2.03981 5.28274C2.03981 5.19915 2.06459 5.11744 2.11103 5.04794C2.15747 4.97844 2.22347 4.92428 2.3007 4.89229C2.37792 4.8603 2.46289 4.85193 2.54487 4.86824C2.62686 4.88455 2.70216 4.9248 2.76126 4.9839C2.82037 5.04301 2.86062 5.11831 2.87692 5.20029C2.89323 5.28227 2.88486 5.36724 2.85288 5.44447C2.82089 5.52169 2.76672 5.5877 2.69722 5.63413C2.62772 5.68057 2.54601 5.70536 2.46243 5.70536C2.35037 5.70525 2.24295 5.66068 2.16371 5.58145C2.08448 5.50222 2.03992 5.39479 2.03981 5.28274Z"
            fill="#2D4356" />
        <path
            d="M22.9974 7.71243L23.6259 6.88621L23.229 6.66138L22.8259 7.58691H22.8123L22.4028 6.66772L21.9988 6.89931L22.6209 7.70609V7.71919L21.6484 7.59367V8.04334L22.6272 7.91782V7.93092L21.9988 8.73728L22.3758 8.97564L22.806 8.04334H22.8187L23.2155 8.96888L23.6322 8.73094L22.9974 7.93726V7.92416L23.9957 8.04334V7.59367L22.9974 7.72595V7.71243Z"
            fill="#0BCEB2" />
        <path
            d="M9.70635 18.0112L9.34459 18.4756L9.56139 18.613L9.80905 18.0758H9.81666L10.0453 18.6092L10.2849 18.4718L9.91977 18.015V18.0074L10.4945 18.0758V17.8172L9.91977 17.8932V17.8856L10.2815 17.4098L10.0529 17.28L9.82046 17.813H9.81285L9.57703 17.2838L9.34459 17.4174L9.70255 17.8818V17.8894L9.14258 17.8172V18.0758L9.70635 18.0036V18.0112Z"
            fill="#0BCEB2" />
        <path
            d="M60.2462 17.032V16.5908L59.267 16.7205V16.7074L59.8832 15.8968L59.4939 15.6766L59.0984 16.5844H59.0853L58.6834 15.683L58.2874 15.9099L58.8972 16.7011V16.7142L57.9434 16.5908V17.032L58.9036 16.909V16.9217L58.2874 17.7128L58.6567 17.9465L59.0789 17.032H59.0916L59.4808 17.9398L59.8895 17.7065L59.267 16.928V16.9153L60.2462 17.032Z"
            fill="#0BCEB2" />
        <path
            d="M68.538 7.72885L69.0696 7.02941L68.7341 6.83923L68.393 7.62235H68.3816L68.0346 6.84473L67.6932 7.04082L68.2193 7.72335V7.73434L67.3965 7.62826V8.00862L68.2248 7.90254V7.91353L67.6932 8.59606L68.0118 8.79765L68.3761 8.00862H68.3871L68.7227 8.79173L69.0751 8.59057L68.538 7.91903V7.90804L69.3828 8.00862V7.62826L68.538 7.73983V7.72885Z"
            fill="#0BCEB2" />
        <path
            d="M0.845238 64.2381C1.31205 64.2381 1.69048 63.8597 1.69048 63.3928C1.69048 62.926 1.31205 62.5476 0.845238 62.5476C0.378426 62.5476 0 62.926 0 63.3928C0 63.8597 0.378426 64.2381 0.845238 64.2381Z"
            fill="#2D4356" />
        <path
            d="M4.64825 62.5476H3.38039C3.15622 62.5476 2.94123 62.6367 2.78272 62.7952C2.62421 62.9537 2.53516 63.1687 2.53516 63.3928C2.53516 63.617 2.62421 63.832 2.78272 63.9905C2.94123 64.149 3.15622 64.2381 3.38039 64.2381H4.64825C4.87242 64.2381 5.08741 64.149 5.24592 63.9905C5.40444 63.832 5.49349 63.617 5.49349 63.3928C5.49349 63.1687 5.40444 62.9537 5.24592 62.7952C5.08741 62.6367 4.87242 62.5476 4.64825 62.5476Z"
            fill="#2D4356" />
        <path
            d="M67.619 62.5476H66.3511C66.1269 62.5476 65.9119 62.6367 65.7534 62.7952C65.5949 62.9537 65.5059 63.1687 65.5059 63.3928C65.5059 63.617 65.5949 63.832 65.7534 63.9905C65.9119 64.149 66.1269 64.2381 66.3511 64.2381H67.619C67.8431 64.2381 68.0581 64.149 68.2166 63.9905C68.3751 63.832 68.4642 63.617 68.4642 63.3928C68.4642 63.1687 68.3751 62.9537 68.2166 62.7952C68.0581 62.6367 67.8431 62.5476 67.619 62.5476Z"
            fill="#2D4356" />
        <path
            d="M70.1538 64.2381C70.6206 64.2381 70.9991 63.8597 70.9991 63.3928C70.9991 62.926 70.6206 62.5476 70.1538 62.5476C69.687 62.5476 69.3086 62.926 69.3086 63.3928C69.3086 63.8597 69.687 64.2381 70.1538 64.2381Z"
            fill="#2D4356" />
        <path
            d="M49.9338 65.9286H46.4228C46.2103 65.9456 46.012 66.042 45.8675 66.1987C45.7229 66.3553 45.6426 66.5607 45.6426 66.7738C45.6426 66.987 45.7229 67.1923 45.8675 67.349C46.012 67.5056 46.2103 67.602 46.4228 67.6191H49.9338C50.1463 67.602 50.3446 67.5056 50.4892 67.349C50.6337 67.1923 50.714 66.987 50.714 66.7738C50.714 66.5607 50.6337 66.3553 50.4892 66.1987C50.3446 66.042 50.1463 65.9456 49.9338 65.9286Z"
            fill="#0BCEB2" />
        <path
            d="M24.5764 65.9286H21.0654C20.8529 65.9456 20.6546 66.042 20.51 66.1987C20.3654 66.3553 20.2852 66.5607 20.2852 66.7738C20.2852 66.987 20.3654 67.1923 20.51 67.349C20.6546 67.5056 20.8529 67.602 21.0654 67.6191H24.5764C24.7889 67.602 24.9871 67.5056 25.1317 67.349C25.2763 67.1923 25.3566 66.987 25.3566 66.7738C25.3566 66.5607 25.2763 66.3553 25.1317 66.1987C24.9871 66.042 24.7889 65.9456 24.5764 65.9286Z"
            fill="#0BCEB2" />
        <path
            d="M43.9531 65.9286H27.0484C26.8242 65.9286 26.6092 66.0176 26.4507 66.1762C26.2922 66.3347 26.2031 66.5497 26.2031 66.7738C26.2031 66.998 26.2922 67.213 26.4507 67.3715C26.6092 67.53 26.8242 67.6191 27.0484 67.6191H33.7849V68.4643H30.4293C30.2051 68.4643 29.9902 68.5534 29.8316 68.7119C29.6731 68.8704 29.5841 69.0854 29.5841 69.3095C29.5841 69.5337 29.6731 69.7487 29.8316 69.9072C29.9902 70.0657 30.2051 70.1548 30.4293 70.1548H40.9948C41.219 70.1548 41.434 70.0657 41.5925 69.9072C41.751 69.7487 41.84 69.5337 41.84 69.3095C41.84 69.0854 41.751 68.8704 41.5925 68.7119C41.434 68.5534 41.219 68.4643 40.9948 68.4643H37.2166V67.6191H43.9531C44.1773 67.6191 44.3923 67.53 44.5508 67.3715C44.7093 67.213 44.7984 66.998 44.7984 66.7738C44.7984 66.5497 44.7093 66.3347 44.5508 66.1762C44.3923 66.0176 44.1773 65.9286 43.9531 65.9286Z"
            fill="#0BCEB2" />
        <path
            d="M63.6981 62.5476H49.7211C49.8184 62.2764 49.8684 61.9905 49.869 61.7023V44.0776C49.4299 45.724 48.8647 47.3341 48.1785 48.8937V61.7023C48.1783 61.9264 48.0891 62.1413 47.9307 62.2997C47.7722 62.4582 47.5574 62.5473 47.3333 62.5476H16.06C15.8359 62.5473 15.621 62.4582 15.4626 62.2997C15.3041 62.1413 15.215 61.9264 15.2147 61.7023V12.6785C15.215 12.4544 15.3041 12.2396 15.4626 12.0811C15.621 11.9227 15.8359 11.8336 16.06 11.8333H47.3333C47.5574 11.8335 47.7723 11.9227 47.9307 12.0811C48.0892 12.2396 48.1783 12.4544 48.1786 12.6785V18.6313C48.2142 18.6123 48.248 18.5901 48.2842 18.5723C48.7782 18.3289 49.3186 18.1941 49.8691 18.1769V12.6785C49.8683 12.0062 49.6009 11.3617 49.1255 10.8863C48.6502 10.4109 48.0056 10.1436 47.3333 10.1428H16.06C15.3877 10.1436 14.7431 10.4109 14.2677 10.8863C13.7923 11.3617 13.525 12.0062 13.5242 12.6785V61.7023C13.5248 61.9905 13.5748 62.2764 13.6721 62.5476H7.30271C7.18246 62.5319 7.06025 62.542 6.94422 62.5773C6.8282 62.6126 6.72105 62.6722 6.62991 62.7522C6.53878 62.8322 6.46576 62.9307 6.41574 63.0412C6.36572 63.1517 6.33984 63.2716 6.33984 63.3928C6.33984 63.5141 6.36572 63.634 6.41574 63.7444C6.46576 63.8549 6.53878 63.9534 6.62991 64.0334C6.72105 64.1134 6.8282 64.1731 6.94422 64.2084C7.06025 64.2436 7.18246 64.2538 7.30271 64.2381H63.6981C63.8183 64.2538 63.9406 64.2436 64.0566 64.2084C64.1726 64.1731 64.2798 64.1134 64.3709 64.0334C64.462 63.9534 64.535 63.8549 64.5851 63.7444C64.6351 63.634 64.661 63.5141 64.661 63.3928C64.661 63.2716 64.6351 63.1517 64.5851 63.0412C64.535 62.9307 64.462 62.8322 64.3709 62.7522C64.2798 62.6722 64.1726 62.6126 64.0566 62.5773C63.9406 62.542 63.8183 62.5319 63.6981 62.5476Z"
            fill="#2D4356" />
    </g>
    <defs>
        <clipPath id="clip0_715_31633">
            <rect width="71" height="71" fill="white" />
        </clipPath>
    </defs>
</svg>
    