<svg width="71" height="71" viewBox="0 0 71 71" fill="none" xmlns="http://www.w3.org/2000/svg">
<g clip-path="url(#clip0_2_6300)">
<path d="M42.6857 16.4824H20.7092C20.5979 16.4818 20.4874 16.5032 20.3844 16.5454C20.2813 16.5876 20.1876 16.6498 20.1086 16.7284C20.0296 16.8069 19.9669 16.9003 19.9242 17.0031C19.8814 17.106 19.8594 17.2163 19.8594 17.3277C19.8594 17.439 19.8814 17.5493 19.9242 17.6522C19.9669 17.755 20.0296 17.8484 20.1086 17.927C20.1876 18.0055 20.2813 18.0677 20.3844 18.1099C20.4874 18.1521 20.5979 18.1735 20.7092 18.1729H42.6857C42.7971 18.1735 42.9075 18.1521 43.0106 18.1099C43.1137 18.0677 43.2074 18.0055 43.2864 17.927C43.3653 17.8484 43.428 17.755 43.4708 17.6522C43.5135 17.5493 43.5356 17.439 43.5356 17.3277C43.5356 17.2163 43.5135 17.106 43.4708 17.0031C43.428 16.9003 43.3653 16.8069 43.2864 16.7284C43.2074 16.6498 43.1137 16.5876 43.0106 16.5454C42.9075 16.5032 42.7971 16.4818 42.6857 16.4824Z" fill="#4C7DA7"/>
<path d="M42.6849 19.8633H20.7085C20.5975 19.8633 20.4876 19.8851 20.385 19.9276C20.2825 19.9701 20.1893 20.0324 20.1108 20.1108C20.0324 20.1893 19.9701 20.2825 19.9276 20.385C19.8851 20.4876 19.8633 20.5975 19.8633 20.7085C19.8633 20.8195 19.8851 20.9294 19.9276 21.0319C19.9701 21.1345 20.0324 21.2277 20.1108 21.3062C20.1893 21.3846 20.2825 21.4469 20.385 21.4894C20.4876 21.5318 20.5975 21.5537 20.7085 21.5537H42.6849C42.7959 21.5537 42.9058 21.5318 43.0084 21.4894C43.1109 21.4469 43.2041 21.3846 43.2826 21.3062C43.3611 21.2277 43.4233 21.1345 43.4658 21.0319C43.5083 20.9294 43.5302 20.8195 43.5302 20.7085C43.5302 20.5975 43.5083 20.4876 43.4658 20.385C43.4233 20.2825 43.3611 20.1893 43.2826 20.1108C43.2041 20.0324 43.1109 19.9701 43.0084 19.9276C42.9058 19.8851 42.7959 19.8633 42.6849 19.8633Z" fill="#2D4356"/>
<path d="M42.6857 23.2442H20.7092C20.5979 23.2435 20.4874 23.265 20.3844 23.3072C20.2813 23.3494 20.1876 23.4115 20.1086 23.4901C20.0296 23.5686 19.9669 23.662 19.9242 23.7649C19.8814 23.8677 19.8594 23.978 19.8594 24.0894C19.8594 24.2008 19.8814 24.3111 19.9242 24.4139C19.9669 24.5168 20.0296 24.6101 20.1086 24.6887C20.1876 24.7672 20.2813 24.8294 20.3844 24.8716C20.4874 24.9138 20.5979 24.9352 20.7092 24.9346H42.6857C42.7971 24.9352 42.9075 24.9138 43.0106 24.8716C43.1137 24.8294 43.2074 24.7672 43.2864 24.6887C43.3653 24.6101 43.428 24.5168 43.4708 24.4139C43.5135 24.3111 43.5356 24.2008 43.5356 24.0894C43.5356 23.978 43.5135 23.8677 43.4708 23.7649C43.428 23.662 43.3653 23.5686 43.2864 23.4901C43.2074 23.4115 43.1137 23.3494 43.0106 23.3072C42.9075 23.265 42.7971 23.2435 42.6857 23.2442Z" fill="#4C7DA7"/>
<path d="M43.531 27.4703C43.5309 27.2461 43.4419 27.0311 43.2834 26.8726C43.1248 26.7141 42.9099 26.625 42.6857 26.625H20.7092C20.5979 26.6244 20.4874 26.6458 20.3844 26.688C20.2813 26.7302 20.1876 26.7924 20.1086 26.8709C20.0296 26.9495 19.9669 27.0429 19.9242 27.1457C19.8814 27.2486 19.8594 27.3589 19.8594 27.4702C19.8594 27.5816 19.8814 27.6919 19.9242 27.7948C19.9669 27.8976 20.0296 27.991 20.1086 28.0695C20.1876 28.1481 20.2813 28.2103 20.3844 28.2525C20.4874 28.2947 20.5979 28.3161 20.7092 28.3155H42.6857C42.9099 28.3155 43.1248 28.2264 43.2834 28.0679C43.4419 27.9094 43.5309 27.6944 43.531 27.4703Z" fill="#2D4356"/>
<path d="M21.8423 53.7417C21.738 53.7038 21.6271 53.6869 21.5162 53.692C21.4053 53.697 21.2965 53.7239 21.196 53.771C21.0954 53.8182 21.0052 53.8847 20.9304 53.9668C20.8557 54.0488 20.7978 54.1448 20.7602 54.2493C20.1139 56.0376 20.1271 57.4511 20.7998 58.4505C21.0108 58.7857 21.2911 59.0719 21.6218 59.2898C21.9525 59.5078 22.3261 59.6525 22.7173 59.7142C23.8878 59.8878 25.0492 59.298 25.8408 58.7489C25.9967 59.0667 26.1939 59.3626 26.4272 59.6288C26.758 60.0068 27.1644 60.3112 27.6201 60.5224C28.0759 60.7335 28.5709 60.8467 29.0732 60.8546C29.7087 60.8582 30.3244 60.6336 30.8083 60.2216C31.3193 59.7191 31.6763 59.0811 31.8371 58.3826C31.9094 58.1548 31.9779 57.9396 32.0579 57.7497C32.4946 56.7157 33.5598 56.8679 34.1578 57.0508C34.6627 57.2647 35.1219 57.5735 35.5103 57.9604C35.9205 58.3385 36.3721 58.6689 36.8566 58.9454C37.1194 59.1039 37.4119 59.2067 37.7161 59.2473C38.0203 59.2879 38.3295 59.2656 38.6247 59.1816C39.5372 58.8837 39.9821 57.9746 40.3746 57.1725L40.4823 56.9538C40.5811 56.7532 40.5963 56.5216 40.5247 56.3098C40.4531 56.098 40.3005 55.9231 40.1003 55.8236C39.9001 55.724 39.6686 55.7078 39.4565 55.7786C39.2443 55.8493 39.0689 56.0012 38.9685 56.201C38.9685 56.201 38.3329 57.4986 38.0997 57.5747C37.938 57.5835 37.7778 57.5394 37.6433 57.4493C37.2723 57.229 36.9259 56.9699 36.6098 56.6763C36.0506 56.1313 35.3843 55.7085 34.6531 55.4346C32.7988 54.8661 31.1661 55.5155 30.5004 57.0923C30.3902 57.3539 30.3064 57.6168 30.2259 57.8713C29.9742 58.6637 29.8313 58.9982 29.4256 59.1162C29.1092 59.1821 28.7808 59.1605 28.4757 59.0537C28.1707 58.9469 27.9005 58.759 27.6943 58.5101C27.4657 58.2416 27.2934 57.93 27.1874 57.5937C27.6635 57.0991 28.0914 56.5603 28.4652 55.9845C29.358 54.6261 29.9983 53.1178 30.3555 51.532C30.8656 49.2457 30.1557 48.2105 29.6869 47.7967C29.4336 47.5712 29.123 47.4199 28.7893 47.3595C28.4556 47.2991 28.1116 47.332 27.7954 47.4546C26.6274 47.8731 25.7458 49.2654 25.4379 51.1793C25.1889 52.61 25.0991 54.0638 25.1701 55.5143C25.1938 56.02 25.2433 56.5243 25.3182 57.025C25.3075 57.0339 25.2968 57.0427 25.2861 57.0514C24.4218 57.7588 23.5494 58.1276 22.9641 58.0419C22.805 58.0159 22.6538 57.9543 22.5218 57.8616C22.3899 57.7689 22.2806 57.6475 22.2022 57.5066C21.8572 56.9942 21.91 56.0415 22.35 54.8238C22.3877 54.7194 22.4046 54.6086 22.3995 54.4977C22.3944 54.3868 22.3675 54.278 22.3204 54.1775C22.2732 54.0771 22.2067 53.9868 22.1247 53.912C22.0427 53.8373 21.9467 53.7794 21.8423 53.7417ZM27.107 51.4478C27.336 50.0254 27.92 49.2055 28.3658 49.046C28.3977 49.0291 28.4339 49.0219 28.4698 49.0251C28.5058 49.0283 28.54 49.0419 28.5684 49.0642C28.7434 49.2187 28.9972 49.8564 28.7054 51.1636C28.3888 52.5505 27.8282 53.8701 27.0496 55.0607C26.9856 55.1587 26.9203 55.2549 26.8536 55.3494C26.7974 54.0435 26.8824 52.7354 27.107 51.4478Z" fill="#4C7DA7"/>
<path d="M20.7092 40.1485C20.5979 40.1478 20.4874 40.1693 20.3844 40.2115C20.2813 40.2537 20.1876 40.3158 20.1086 40.3944C20.0296 40.4729 19.9669 40.5663 19.9242 40.6691C19.8814 40.772 19.8594 40.8823 19.8594 40.9937C19.8594 41.1051 19.8814 41.2154 19.9242 41.3182C19.9669 41.4211 20.0296 41.5144 20.1086 41.593C20.1876 41.6715 20.2813 41.7337 20.3844 41.7759C20.4874 41.8181 20.5979 41.8395 20.7092 41.8389H39.2506L39.8045 40.1485H20.7092Z" fill="#2D4356"/>
<path d="M56.896 24.7307C56.7905 24.6959 56.6792 24.6822 56.5684 24.6905C56.4577 24.6988 56.3496 24.7289 56.2505 24.779C56.1514 24.8292 56.0632 24.8984 55.9909 24.9827C55.9185 25.067 55.8636 25.1647 55.8291 25.2703L55.6016 25.9635L54.1991 25.4355L54.7119 23.8706C54.9105 23.2966 54.8786 22.668 54.623 22.1171C54.3675 21.5661 53.9081 21.1358 53.3416 20.9168L50.7077 19.9855C50.1287 19.8043 49.5015 19.86 48.9635 20.1406C48.4256 20.4211 48.0209 20.9035 47.838 21.482L40.2894 44.5217C39.4898 46.9438 39.5436 49.5666 40.4417 51.9539C40.4841 52.0647 40.5388 52.1704 40.6048 52.2691L40.1718 53.3608C40.0892 53.5692 40.0928 53.8018 40.1817 54.0076C40.2706 54.2134 40.4376 54.3754 40.646 54.458C40.8546 54.5379 41.0861 54.533 41.2912 54.4444C41.4963 54.3559 41.6586 54.1906 41.7434 53.984L42.1677 52.9143C42.3423 52.8789 42.5094 52.8131 42.6613 52.7201C44.6723 51.4508 46.2031 49.5478 47.0122 47.3117C47.0408 47.2621 53.6723 27.0435 53.6723 27.0435L55.0741 27.5712L52.742 34.6779C52.6721 34.8909 52.6897 35.1229 52.7909 35.3229C52.892 35.5229 53.0685 35.6746 53.2814 35.7445C53.4945 35.812 53.7255 35.7933 53.925 35.6924C54.1244 35.5915 54.2764 35.4165 54.3483 35.2049L57.4354 25.7973C57.5053 25.5843 57.4877 25.3523 57.3866 25.1523C57.2854 24.9523 57.1089 24.8006 56.896 24.7307ZM41.9531 51.1668C41.3991 49.5888 41.2752 47.8918 41.5939 46.2501L41.5969 46.2514L45.1447 47.4113C44.4527 48.9368 43.3471 50.2379 41.9531 51.1668ZM45.739 45.8273C45.739 45.8273 42.0634 44.6318 42.0342 44.6256L46.4901 31.0251L50.167 32.3131L45.739 45.8273ZM50.6934 30.7063L47.0166 29.4182L48.44 25.0737L52.0889 26.4474L50.6934 30.7063ZM53.1056 23.3444L52.6157 24.8394L48.9668 23.4657L49.4443 22.0082C49.4832 21.8604 49.5777 21.7332 49.708 21.6534C49.8384 21.5735 49.9945 21.547 50.1439 21.5794L52.7779 22.5107C52.9277 22.5825 53.0448 22.7084 53.1056 22.8631C53.1664 23.0178 53.1664 23.1897 53.1056 23.3444Z" fill="#2D4356"/>
<path d="M40.9121 36.7676H20.7092C20.5979 36.767 20.4874 36.7884 20.3844 36.8306C20.2813 36.8728 20.1876 36.935 20.1086 37.0135C20.0296 37.0921 19.9669 37.1854 19.9242 37.2883C19.8814 37.3911 19.8594 37.5014 19.8594 37.6128C19.8594 37.7242 19.8814 37.8345 19.9242 37.9373C19.9669 38.0402 20.0296 38.1336 20.1086 38.2121C20.1876 38.2907 20.2813 38.3528 20.3844 38.395C20.4874 38.4372 20.5979 38.4587 20.7092 38.458H40.3583L40.9121 36.7676Z" fill="#4C7DA7"/>
<path d="M42.0198 33.3867H20.7092C20.5979 33.3861 20.4874 33.4075 20.3844 33.4497C20.2813 33.4919 20.1876 33.5541 20.1086 33.6326C20.0296 33.7112 19.9669 33.8046 19.9242 33.9074C19.8814 34.0103 19.8594 34.1206 19.8594 34.232C19.8594 34.3433 19.8814 34.4536 19.9242 34.5565C19.9669 34.6593 20.0296 34.7527 20.1086 34.8313C20.1876 34.9098 20.2813 34.972 20.3844 35.0142C20.4874 35.0564 20.5979 35.0778 20.7092 35.0772H41.4659L42.0198 33.3867Z" fill="#2D4356"/>
<path d="M43.0919 30.1142C42.968 30.0441 42.8281 30.0068 42.6857 30.0059H20.7092C20.5979 30.0053 20.4874 30.0267 20.3844 30.0689C20.2813 30.1111 20.1876 30.1732 20.1086 30.2518C20.0296 30.3303 19.9669 30.4237 19.9242 30.5266C19.8814 30.6294 19.8594 30.7397 19.8594 30.8511C19.8594 30.9625 19.8814 31.0728 19.9242 31.1756C19.9669 31.2785 20.0296 31.3719 20.1086 31.4504C20.1876 31.529 20.2813 31.5911 20.3844 31.6333C20.4874 31.6755 20.5979 31.6969 20.7092 31.6963H42.5736L43.0919 30.1142Z" fill="#4C7DA7"/>
<path d="M36.0608 5.35212C36.3116 5.35212 36.5567 5.27776 36.7652 5.13845C36.9737 4.99913 37.1362 4.80112 37.2322 4.56945C37.3281 4.33778 37.3532 4.08286 37.3043 3.83692C37.2554 3.59098 37.1347 3.36507 36.9573 3.18775C36.78 3.01044 36.5541 2.88969 36.3082 2.84077C36.0622 2.79185 35.8073 2.81696 35.5756 2.91292C35.344 3.00888 35.146 3.17138 35.0066 3.37988C34.8673 3.58838 34.793 3.83351 34.793 4.08426C34.7934 4.4204 34.9271 4.74266 35.1647 4.98035C35.4024 5.21804 35.7247 5.35174 36.0608 5.35212ZM36.0608 3.45034C36.1862 3.45034 36.3088 3.48751 36.413 3.55717C36.5173 3.62683 36.5985 3.72583 36.6465 3.84167C36.6945 3.95751 36.707 4.08497 36.6826 4.20794C36.6581 4.33091 36.5977 4.44386 36.5091 4.53252C36.4204 4.62118 36.3075 4.68155 36.1845 4.70601C36.0615 4.73047 35.9341 4.71792 35.8182 4.66994C35.7024 4.62196 35.6034 4.5407 35.5337 4.43646C35.4641 4.33221 35.4269 4.20964 35.4269 4.08426C35.4271 3.91619 35.4939 3.75504 35.6128 3.63619C35.7316 3.51734 35.8927 3.4505 36.0608 3.45034Z" fill="#2D4356"/>
<path d="M12.5406 0.845703C12.3734 0.845703 12.21 0.895275 12.071 0.988151C11.932 1.08103 11.8236 1.21304 11.7597 1.36748C11.6957 1.52193 11.6789 1.69188 11.7116 1.85584C11.7442 2.0198 11.8247 2.17041 11.9429 2.28861C12.0611 2.40682 12.2117 2.48732 12.3757 2.51994C12.5396 2.55255 12.7096 2.53581 12.864 2.47184C13.0185 2.40787 13.1505 2.29953 13.2433 2.16053C13.3362 2.02153 13.3858 1.85811 13.3858 1.69094C13.3855 1.46685 13.2964 1.25201 13.1379 1.09355C12.9795 0.935093 12.7646 0.845959 12.5406 0.845703ZM12.5406 2.11356C12.457 2.11356 12.3753 2.08877 12.3058 2.04234C12.2363 1.9959 12.1821 1.92989 12.1501 1.85267C12.1181 1.77545 12.1097 1.69047 12.1261 1.60849C12.1424 1.52651 12.1826 1.45121 12.2417 1.3921C12.3008 1.333 12.3761 1.29275 12.4581 1.27644C12.5401 1.26014 12.6251 1.26851 12.7023 1.30049C12.7795 1.33248 12.8455 1.38665 12.8919 1.45615C12.9384 1.52565 12.9632 1.60736 12.9632 1.69094C12.9631 1.80299 12.9185 1.91042 12.8393 1.98965C12.76 2.06889 12.6526 2.11345 12.5406 2.11356Z" fill="#2D4356"/>
<path d="M57.9429 0.845703C57.7757 0.845703 57.6123 0.895275 57.4733 0.988151C57.3343 1.08103 57.226 1.21304 57.162 1.36748C57.098 1.52193 57.0813 1.69188 57.1139 1.85584C57.1465 2.0198 57.227 2.17041 57.3452 2.28861C57.4634 2.40682 57.614 2.48732 57.778 2.51994C57.942 2.55255 58.1119 2.53581 58.2664 2.47184C58.4208 2.40787 58.5528 2.29953 58.6457 2.16053C58.7386 2.02153 58.7881 1.85811 58.7881 1.69094C58.7879 1.46685 58.6987 1.25201 58.5403 1.09355C58.3818 0.935093 58.167 0.845959 57.9429 0.845703ZM57.9429 2.11356C57.8593 2.11356 57.7776 2.08877 57.7081 2.04234C57.6386 1.9959 57.5844 1.92989 57.5524 1.85267C57.5205 1.77545 57.5121 1.69047 57.5284 1.60849C57.5447 1.52651 57.585 1.45121 57.6441 1.3921C57.7032 1.333 57.7785 1.29275 57.8604 1.27644C57.9424 1.26014 58.0274 1.26851 58.1046 1.30049C58.1818 1.33248 58.2479 1.38665 58.2943 1.45615C58.3407 1.52565 58.3655 1.60736 58.3655 1.69094C58.3654 1.80299 58.3208 1.91042 58.2416 1.98965C58.1624 2.06889 58.0549 2.11345 57.9429 2.11356Z" fill="#2D4356"/>
<path d="M47.7984 5.99414C47.6312 5.99414 47.4678 6.04371 47.3288 6.13659C47.1898 6.22946 47.0814 6.36147 47.0175 6.51592C46.9535 6.67037 46.9368 6.84032 46.9694 7.00428C47.002 7.16824 47.0825 7.31884 47.2007 7.43705C47.3189 7.55526 47.4695 7.63576 47.6335 7.66838C47.7974 7.70099 47.9674 7.68425 48.1218 7.62028C48.2763 7.5563 48.4083 7.44797 48.5012 7.30897C48.594 7.16997 48.6436 7.00655 48.6436 6.83938C48.6433 6.61529 48.5542 6.40045 48.3958 6.24199C48.2373 6.08353 48.0225 5.9944 47.7984 5.99414ZM47.7984 7.262C47.7148 7.262 47.6331 7.23721 47.5636 7.19077C47.4941 7.14434 47.4399 7.07833 47.4079 7.00111C47.3759 6.92388 47.3676 6.83891 47.3839 6.75693C47.4002 6.67495 47.4404 6.59965 47.4995 6.54054C47.5586 6.48144 47.6339 6.44119 47.7159 6.42488C47.7979 6.40857 47.8829 6.41694 47.9601 6.44893C48.0373 6.48092 48.1033 6.53508 48.1498 6.60458C48.1962 6.67408 48.221 6.75579 48.221 6.83938C48.2209 6.95143 48.1763 7.05886 48.0971 7.13809C48.0178 7.21732 47.9104 7.26189 47.7984 7.262Z" fill="#2D4356"/>
<path d="M3.30766 5.28274C3.30766 5.11557 3.25809 4.95215 3.16522 4.81315C3.07234 4.67415 2.94033 4.56581 2.78588 4.50184C2.63144 4.43787 2.46149 4.42113 2.29753 4.45374C2.13357 4.48636 1.98296 4.56686 1.86475 4.68507C1.74654 4.80327 1.66604 4.95388 1.63343 5.11784C1.60082 5.2818 1.61755 5.45175 1.68153 5.6062C1.7455 5.76064 1.85384 5.89265 1.99284 5.98553C2.13184 6.0784 2.29525 6.12798 2.46243 6.12798C2.68652 6.12772 2.90136 6.03859 3.05982 5.88013C3.21827 5.72167 3.30741 5.50683 3.30766 5.28274ZM2.03981 5.28274C2.03981 5.19915 2.06459 5.11744 2.11103 5.04794C2.15747 4.97844 2.22347 4.92428 2.3007 4.89229C2.37792 4.8603 2.46289 4.85193 2.54487 4.86824C2.62686 4.88455 2.70216 4.9248 2.76126 4.9839C2.82037 5.04301 2.86062 5.11831 2.87692 5.20029C2.89323 5.28227 2.88486 5.36724 2.85288 5.44447C2.82089 5.52169 2.76672 5.5877 2.69722 5.63413C2.62772 5.68057 2.54601 5.70536 2.46243 5.70536C2.35037 5.70525 2.24295 5.66068 2.16371 5.58145C2.08448 5.50222 2.03992 5.39479 2.03981 5.28274Z" fill="#2D4356"/>
<path d="M22.9974 7.71219L23.6259 6.88597L23.229 6.66113L22.8259 7.58667H22.8123L22.4028 6.66747L21.9988 6.89907L22.6209 7.70585V7.71895L21.6484 7.59343V8.0431L22.6272 7.91758V7.93068L21.9988 8.73704L22.3758 8.97539L22.806 8.0431H22.8187L23.2155 8.96863L23.6322 8.7307L22.9974 7.93702V7.92392L23.9957 8.0431V7.59343L22.9974 7.72571V7.71219Z" fill="#4C7DA7"/>
<path d="M9.7044 18.0114L9.34264 18.4759L9.55944 18.6132L9.8071 18.0761H9.8147L10.0433 18.6094L10.283 18.4721L9.91782 18.0152V18.0076L10.4926 18.0761V17.8174L9.91782 17.8935V17.8859L10.2796 17.41L10.0509 17.2803L9.81851 17.8132H9.8109L9.57508 17.2841L9.34264 17.4176L9.7006 17.8821V17.8897L9.14062 17.8174V18.0761L9.7044 18.0038V18.0114Z" fill="#4C7DA7"/>
<path d="M60.2482 17.0321V16.5909L59.269 16.7206V16.7075L59.8851 15.8969L59.4959 15.6768L59.1003 16.5845H59.0872L58.6853 15.6831L58.2893 15.91L58.8992 16.7012V16.7143L57.9453 16.5909V17.0321L58.9055 16.9091V16.9218L58.2893 17.7129L58.6587 17.9466L59.0809 17.0321H59.0936L59.4828 17.9399L59.8915 17.7066L59.269 16.9281V16.9155L60.2482 17.0321Z" fill="#4C7DA7"/>
<path d="M68.5399 7.72848L69.0716 7.02905L68.736 6.83887L68.395 7.62198H68.3836L68.0366 6.84436L67.6951 7.04046L68.2213 7.72299V7.73397L67.3984 7.6279V8.00825L68.2268 7.90218V7.91316L67.6951 8.59569L68.0138 8.79728L68.3781 8.00825H68.3891L68.7246 8.79137L69.0771 8.5902L68.5399 7.91866V7.90767L69.3847 8.00825V7.6279L68.5399 7.73947V7.72848Z" fill="#4C7DA7"/>
<path d="M0.845238 64.2383C1.31205 64.2383 1.69048 63.8599 1.69048 63.3931C1.69048 62.9263 1.31205 62.5479 0.845238 62.5479C0.378426 62.5479 0 62.9263 0 63.3931C0 63.8599 0.378426 64.2383 0.845238 64.2383Z" fill="#2D4356"/>
<path d="M4.64825 62.5479H3.38039C3.15622 62.5479 2.94123 62.6369 2.78272 62.7954C2.62421 62.9539 2.53516 63.1689 2.53516 63.3931C2.53516 63.6173 2.62421 63.8323 2.78272 63.9908C2.94123 64.1493 3.15622 64.2383 3.38039 64.2383H4.64825C4.87242 64.2383 5.08741 64.1493 5.24592 63.9908C5.40444 63.8323 5.49349 63.6173 5.49349 63.3931C5.49349 63.1689 5.40444 62.9539 5.24592 62.7954C5.08741 62.6369 4.87242 62.5479 4.64825 62.5479Z" fill="#2D4356"/>
<path d="M67.6209 62.5479H66.3531C66.1289 62.5479 65.9139 62.6369 65.7554 62.7954C65.5969 62.9539 65.5078 63.1689 65.5078 63.3931C65.5078 63.6173 65.5969 63.8323 65.7554 63.9908C65.9139 64.1493 66.1289 64.2383 66.3531 64.2383H67.6209C67.8451 64.2383 68.0601 64.1493 68.2186 63.9908C68.3771 63.8323 68.4661 63.6173 68.4661 63.3931C68.4661 63.1689 68.3771 62.9539 68.2186 62.7954C68.0601 62.6369 67.8451 62.5479 67.6209 62.5479Z" fill="#2D4356"/>
<path d="M70.1538 64.2383C70.6206 64.2383 70.9991 63.8599 70.9991 63.3931C70.9991 62.9263 70.6206 62.5479 70.1538 62.5479C69.687 62.5479 69.3086 62.9263 69.3086 63.3931C69.3086 63.8599 69.687 64.2383 70.1538 64.2383Z" fill="#2D4356"/>
<path d="M49.9319 65.9287H46.4208C46.2084 65.9457 46.0101 66.0422 45.8655 66.1988C45.7209 66.3554 45.6406 66.5608 45.6406 66.7739C45.6406 66.9871 45.7209 67.1925 45.8655 67.3491C46.0101 67.5057 46.2084 67.6022 46.4208 67.6192H49.9319C50.1443 67.6022 50.3426 67.5057 50.4872 67.3491C50.6318 67.1925 50.7121 66.9871 50.7121 66.7739C50.7121 66.5608 50.6318 66.3554 50.4872 66.1988C50.3426 66.0422 50.1443 65.9457 49.9319 65.9287Z" fill="#4C7DA7"/>
<path d="M24.5764 65.9287H21.0654C20.8529 65.9457 20.6546 66.0422 20.51 66.1988C20.3654 66.3554 20.2852 66.5608 20.2852 66.7739C20.2852 66.9871 20.3654 67.1925 20.51 67.3491C20.6546 67.5057 20.8529 67.6022 21.0654 67.6192H24.5764C24.7889 67.6022 24.9871 67.5057 25.1317 67.3491C25.2763 67.1925 25.3566 66.9871 25.3566 66.7739C25.3566 66.5608 25.2763 66.3554 25.1317 66.1988C24.9871 66.0422 24.7889 65.9457 24.5764 65.9287Z" fill="#4C7DA7"/>
<path d="M43.9531 65.9287H27.0484C26.8242 65.9287 26.6092 66.0178 26.4507 66.1763C26.2922 66.3348 26.2031 66.5498 26.2031 66.7739C26.2031 66.9981 26.2922 67.2131 26.4507 67.3716C26.6092 67.5301 26.8242 67.6192 27.0484 67.6192H33.7849V68.4644H30.4293C30.2051 68.4644 29.9902 68.5535 29.8316 68.712C29.6731 68.8705 29.5841 69.0855 29.5841 69.3097C29.5841 69.5338 29.6731 69.7488 29.8316 69.9073C29.9902 70.0659 30.2051 70.1549 30.4293 70.1549H40.9948C41.219 70.1549 41.434 70.0659 41.5925 69.9073C41.751 69.7488 41.84 69.5338 41.84 69.3097C41.84 69.0855 41.751 68.8705 41.5925 68.712C41.434 68.5535 41.219 68.4644 40.9948 68.4644H37.2166V67.6192H43.9531C44.1773 67.6192 44.3923 67.5301 44.5508 67.3716C44.7093 67.2131 44.7984 66.9981 44.7984 66.7739C44.7984 66.5498 44.7093 66.3348 44.5508 66.1763C44.3923 66.0178 44.1773 65.9287 43.9531 65.9287Z" fill="#4C7DA7"/>
<path d="M63.6981 62.5473H49.7211C49.8184 62.2761 49.8684 61.9902 49.869 61.7021V44.0774C49.4299 45.7237 48.8647 47.3339 48.1785 48.8935V61.7021C48.1783 61.9262 48.0891 62.141 47.9307 62.2995C47.7722 62.458 47.5574 62.5471 47.3333 62.5473H16.06C15.8359 62.5471 15.621 62.458 15.4626 62.2995C15.3041 62.141 15.215 61.9262 15.2147 61.7021V12.6783C15.215 12.4542 15.3041 12.2394 15.4626 12.0809C15.621 11.9224 15.8359 11.8333 16.06 11.8331H47.3333C47.5574 11.8333 47.7723 11.9224 47.9307 12.0809C48.0892 12.2394 48.1783 12.4542 48.1786 12.6783V18.631C48.2142 18.6121 48.248 18.5899 48.2842 18.5721C48.7782 18.3286 49.3186 18.1938 49.8691 18.1767V12.6783C49.8683 12.006 49.6009 11.3615 49.1255 10.8861C48.6502 10.4107 48.0056 10.1433 47.3333 10.1426H16.06C15.3877 10.1433 14.7431 10.4107 14.2677 10.8861C13.7923 11.3615 13.525 12.006 13.5242 12.6783V61.7021C13.5248 61.9902 13.5748 62.2761 13.6721 62.5473H7.30271C7.18246 62.5316 7.06025 62.5418 6.94422 62.577C6.8282 62.6123 6.72105 62.672 6.62991 62.752C6.53878 62.832 6.46576 62.9305 6.41574 63.041C6.36572 63.1514 6.33984 63.2713 6.33984 63.3926C6.33984 63.5138 6.36572 63.6337 6.41574 63.7442C6.46576 63.8547 6.53878 63.9532 6.62991 64.0332C6.72105 64.1132 6.8282 64.1728 6.94422 64.2081C7.06025 64.2434 7.18246 64.2535 7.30271 64.2378H63.6981C63.8183 64.2535 63.9406 64.2434 64.0566 64.2081C64.1726 64.1728 64.2798 64.1132 64.3709 64.0332C64.462 63.9532 64.535 63.8547 64.5851 63.7442C64.6351 63.6337 64.661 63.5138 64.661 63.3926C64.661 63.2713 64.6351 63.1514 64.5851 63.041C64.535 62.9305 64.462 62.832 64.3709 62.752C64.2798 62.672 64.1726 62.6123 64.0566 62.577C63.9406 62.5418 63.8183 62.5316 63.6981 62.5473Z" fill="#2D4356"/>
</g>
<defs>
<clipPath id="clip0_2_6300">
<rect width="71" height="71" fill="white"/>
</clipPath>
</defs>
</svg>
