<svg width="70" height="70" viewBox="0 0 70 70" fill="none" xmlns="http://www.w3.org/2000/svg">
    <g clip-path="url(#clip0_715_31566)">
        <path
            d="M10.8327 43.2874V12.551C10.8329 12.3166 10.9261 12.0919 11.0918 11.9262C11.2576 11.7604 11.4823 11.6672 11.7167 11.6669H32.4487C32.6831 11.6672 32.9078 11.7604 33.0735 11.9262C33.2392 12.0919 33.3324 12.3166 33.3327 12.551V15.0007H34.9993V12.551C34.9986 11.8747 34.7297 11.2263 34.2515 10.7481C33.7733 10.2698 33.125 10.0008 32.4487 10H11.7167C11.0404 10.0008 10.392 10.2698 9.91385 10.7481C9.43567 11.2263 9.16673 11.8747 9.16602 12.551V43.2874C9.16673 43.9637 9.43567 44.6121 9.91385 45.0903C10.392 45.5686 11.0404 45.8376 11.7167 45.8384H14.166V44.1715H11.7167C11.4823 44.1713 11.2576 44.078 11.0918 43.9123C10.9261 43.7465 10.8329 43.5218 10.8327 43.2874Z"
            fill="#2D4356" />
        <path
            d="M17.5007 49.955V19.2186C17.5009 18.9842 17.5941 18.7595 17.7598 18.5938C17.9255 18.428 18.1503 18.3348 18.3846 18.3345H39.1167C39.351 18.3348 39.5758 18.428 39.7415 18.5938C39.9072 18.7595 40.0004 18.9842 40.0007 19.2186V21.6683H41.6673V19.2186C41.6666 18.5423 41.3977 17.8939 40.9195 17.4157C40.4413 16.9374 39.793 16.6684 39.1167 16.6676H18.3846C17.7084 16.6684 17.06 16.9374 16.5818 17.4157C16.1036 17.8939 15.8347 18.5423 15.834 19.2186V49.955C15.8347 50.6313 16.1036 51.2797 16.5818 51.7579C17.06 52.2362 17.7084 52.5052 18.3846 52.506H20.834V50.8391H18.3846C18.1503 50.8388 17.9255 50.7456 17.7598 50.5799C17.5941 50.4141 17.5009 50.1894 17.5007 49.955Z"
            fill="#0BCEB2" />
        <path
            d="M42.9174 28.7527H27.9174C27.6964 28.7527 27.4844 28.8405 27.3281 28.9968C27.1718 29.1531 27.084 29.3651 27.084 29.5861C27.084 29.8072 27.1718 30.0192 27.3281 30.1755C27.4844 30.3318 27.6964 30.4196 27.9174 30.4196H42.9174C43.1385 30.4196 43.3505 30.3318 43.5068 30.1755C43.6631 30.0192 43.7509 29.8072 43.7509 29.5861C43.7509 29.3651 43.6631 29.1531 43.5068 28.9968C43.3505 28.8405 43.1385 28.7527 42.9174 28.7527Z"
            fill="#0BCEB2" />
        <path
            d="M27.084 52.9228C27.084 53.1438 27.1718 53.3558 27.328 53.5121C27.4843 53.6684 27.6963 53.7562 27.9173 53.7563H37.9704C37.2057 53.2842 36.4984 52.7248 35.8629 52.0894H27.9173C27.6963 52.0894 27.4843 52.1772 27.328 52.3335C27.1718 52.4898 27.084 52.7018 27.084 52.9228Z"
            fill="#2D4356" />
        <path
            d="M27.9174 48.7555C27.6964 48.7555 27.4844 48.8433 27.3281 48.9996C27.1718 49.1559 27.084 49.3679 27.084 49.5889C27.084 49.81 27.1718 50.022 27.3281 50.1783C27.4844 50.3346 27.6964 50.4224 27.9174 50.4224H34.4833C34.1244 49.8939 33.8104 49.3363 33.5443 48.7555H27.9174Z"
            fill="#0BCEB2" />
        <path
            d="M27.9174 47.0885H32.9309C32.7771 46.5421 32.6644 45.9849 32.5938 45.4216H27.9174C27.6964 45.4216 27.4844 45.5094 27.3281 45.6657C27.1718 45.822 27.084 46.034 27.084 46.2551C27.084 46.4761 27.1718 46.6881 27.3281 46.8444C27.4844 47.0007 27.6964 47.0885 27.9174 47.0885Z"
            fill="#2D4356" />
        <path
            d="M27.9174 43.7548H32.5067C32.5175 43.1961 32.5691 42.639 32.6611 42.0879H27.9174C27.6964 42.0879 27.4844 42.1757 27.3281 42.332C27.1718 42.4883 27.084 42.7003 27.084 42.9213C27.084 43.1424 27.1718 43.3544 27.3281 43.5107C27.4844 43.667 27.6964 43.7548 27.9174 43.7548Z"
            fill="#0BCEB2" />
        <path
            d="M27.084 39.5875C27.084 39.8085 27.1718 40.0205 27.328 40.1768C27.4843 40.3331 27.6963 40.4209 27.9173 40.4209H33.0719C33.2604 39.8477 33.4941 39.2903 33.7709 38.754H27.9173C27.6963 38.7541 27.4843 38.8419 27.328 38.9982C27.1718 39.1545 27.084 39.3665 27.084 39.5875Z"
            fill="#2D4356" />
        <path
            d="M36.3579 35.4203H27.9174C27.6964 35.4203 27.4844 35.5081 27.3281 35.6644C27.1718 35.8207 27.084 36.0327 27.084 36.2537C27.084 36.4748 27.1718 36.6868 27.3281 36.8431C27.4844 36.9994 27.6964 37.0872 27.9174 37.0872H34.8175C35.2752 36.4825 35.7911 35.9242 36.3579 35.4203Z"
            fill="#0BCEB2" />
        <path
            d="M43.6403 32.5126C43.5686 32.3838 43.4638 32.2763 43.3367 32.2014C43.2097 32.1265 43.0649 32.0868 42.9174 32.0864H27.9174C27.6964 32.0864 27.4844 32.1742 27.3281 32.3305C27.1718 32.4868 27.084 32.6988 27.084 32.9199C27.084 33.1409 27.1718 33.3529 27.3281 33.5092C27.4844 33.6655 27.6964 33.7533 27.9174 33.7533H38.8007C40.303 32.9888 41.9555 32.5651 43.6403 32.5126Z"
            fill="#2D4356" />
        <path
            d="M46.6667 55.7864V56.6226C46.6664 56.857 46.5732 57.0817 46.4075 57.2475C46.2418 57.4132 46.0171 57.5065 45.7827 57.5067H25.0507C24.8163 57.5065 24.5916 57.4132 24.4258 57.2475C24.2601 57.0817 24.1669 56.857 24.1667 56.6226V25.8862C24.1669 25.6518 24.2601 25.4271 24.4258 25.2614C24.5916 25.0956 24.8163 25.0024 25.0507 25.0021H45.7827C46.0171 25.0024 46.2418 25.0956 46.4075 25.2614C46.5732 25.4271 46.6664 25.6518 46.6667 25.8862V32.8141C47.235 32.9481 47.7921 33.1255 48.3333 33.3446V25.8862C48.3326 25.2099 48.0637 24.5615 47.5855 24.0833C47.1073 23.6051 46.459 23.336 45.7827 23.3352H25.0507C24.3744 23.336 23.726 23.6051 23.2478 24.0833C22.7697 24.5615 22.5007 25.2099 22.5 25.8862V56.6226C22.5007 57.2989 22.7697 57.9473 23.2478 58.4255C23.726 58.9038 24.3744 59.1728 25.0507 59.1736H45.7827C46.3343 59.1727 46.8709 58.9932 47.312 58.662C47.7532 58.3307 48.0752 57.8655 48.2299 57.3359C48.2011 57.3091 46.6667 55.7864 46.6667 55.7864Z"
            fill="#2D4356" />
        <path
            d="M46.4038 41.4658L42.4811 44.6645L41.7668 43.6996C41.6353 43.522 41.4386 43.4039 41.22 43.3713C41.0014 43.3387 40.7788 43.3942 40.6011 43.5258C40.4235 43.6573 40.3054 43.854 40.2728 44.0726C40.2402 44.2912 40.2957 44.5138 40.4273 44.6914L41.6612 46.3583C41.8006 46.5359 42.0044 46.6513 42.2284 46.6795C42.4525 46.7076 42.6785 46.6461 42.8575 46.5085L47.4569 42.7579C47.6274 42.618 47.7354 42.4162 47.7574 42.1968C47.7794 41.9773 47.7135 41.7581 47.5742 41.5872C47.4348 41.4162 47.2334 41.3075 47.0141 41.2847C46.7947 41.262 46.5753 41.3271 46.4038 41.4658Z"
            fill="#0BCEB2" />
        <path
            d="M41.2754 13.3334C41.5226 13.3334 41.7643 13.2601 41.9699 13.1227C42.1754 12.9854 42.3356 12.7901 42.4302 12.5617C42.5249 12.3333 42.5496 12.082 42.5014 11.8395C42.4531 11.597 42.3341 11.3743 42.1593 11.1995C41.9845 11.0247 41.7617 10.9056 41.5193 10.8574C41.2768 10.8092 41.0254 10.8339 40.797 10.9285C40.5686 11.0231 40.3734 11.1834 40.2361 11.3889C40.0987 11.5945 40.0254 11.8361 40.0254 12.0834C40.0258 12.4148 40.1576 12.7325 40.3919 12.9668C40.6263 13.2012 40.944 13.333 41.2754 13.3334ZM41.2754 11.4584C41.399 11.4584 41.5198 11.495 41.6226 11.5637C41.7254 11.6324 41.8055 11.73 41.8528 11.8442C41.9001 11.9584 41.9125 12.0841 41.8884 12.2053C41.8643 12.3265 41.8047 12.4379 41.7173 12.5253C41.6299 12.6127 41.5186 12.6722 41.3973 12.6964C41.2761 12.7205 41.1504 12.7081 41.0362 12.6608C40.922 12.6135 40.8244 12.5334 40.7557 12.4306C40.687 12.3278 40.6504 12.207 40.6504 12.0834C40.6506 11.9177 40.7165 11.7588 40.8336 11.6416C40.9508 11.5244 41.1097 11.4585 41.2754 11.4584Z"
            fill="#2D4356" />
        <path
            d="M52.1087 2.08337C51.9439 2.08337 51.7828 2.13225 51.6458 2.22382C51.5087 2.31538 51.4019 2.44553 51.3388 2.5978C51.2758 2.75008 51.2592 2.91763 51.2914 3.07928C51.3236 3.24093 51.4029 3.38942 51.5195 3.50596C51.636 3.62251 51.7845 3.70187 51.9462 3.73403C52.1078 3.76618 52.2754 3.74968 52.4276 3.68661C52.5799 3.62353 52.71 3.51672 52.8016 3.37968C52.8932 3.24264 52.9421 3.08153 52.9421 2.91671C52.9418 2.69577 52.8539 2.48396 52.6977 2.32773C52.5415 2.17151 52.3297 2.08363 52.1087 2.08337ZM52.1087 3.33337C52.0263 3.33337 51.9458 3.30894 51.8772 3.26315C51.8087 3.21737 51.7553 3.15229 51.7238 3.07616C51.6922 3.00002 51.684 2.91625 51.7001 2.83542C51.7161 2.75459 51.7558 2.68035 51.8141 2.62208C51.8724 2.56381 51.9466 2.52412 52.0274 2.50805C52.1083 2.49197 52.192 2.50022 52.2682 2.53176C52.3443 2.56329 52.4094 2.6167 52.4552 2.68522C52.501 2.75374 52.5254 2.8343 52.5254 2.91671C52.5253 3.02718 52.4813 3.1331 52.4032 3.21121C52.3251 3.28933 52.2192 3.33326 52.1087 3.33337Z"
            fill="#2D4356" />
        <path
            d="M25.4408 0.833374C25.2759 0.833374 25.1148 0.882248 24.9778 0.973816C24.8407 1.06538 24.7339 1.19553 24.6709 1.3478C24.6078 1.50008 24.5913 1.66763 24.6234 1.82928C24.6556 1.99093 24.735 2.13942 24.8515 2.25596C24.968 2.37251 25.1165 2.45187 25.2782 2.48403C25.4398 2.51618 25.6074 2.49968 25.7597 2.43661C25.9119 2.37353 26.0421 2.26672 26.1336 2.12968C26.2252 1.99264 26.2741 1.83153 26.2741 1.66671C26.2738 1.44577 26.186 1.23396 26.0297 1.07773C25.8735 0.921505 25.6617 0.833627 25.4408 0.833374ZM25.4408 2.08337C25.3583 2.08337 25.2778 2.05894 25.2093 2.01315C25.1407 1.96737 25.0873 1.90229 25.0558 1.82616C25.0243 1.75002 25.016 1.66625 25.0321 1.58542C25.0482 1.50459 25.0879 1.43035 25.1461 1.37208C25.2044 1.31381 25.2786 1.27412 25.3595 1.25805C25.4403 1.24197 25.5241 1.25022 25.6002 1.28176C25.6763 1.31329 25.7414 1.3667 25.7872 1.43522C25.833 1.50374 25.8574 1.5843 25.8574 1.66671C25.8573 1.77718 25.8134 1.8831 25.7353 1.96121C25.6571 2.03933 25.5512 2.08326 25.4408 2.08337Z"
            fill="#2D4356" />
        <path
            d="M56.2747 9.58337C56.1099 9.58337 55.9488 9.63225 55.8118 9.72382C55.6747 9.81538 55.5679 9.94553 55.5048 10.0978C55.4418 10.2501 55.4253 10.4176 55.4574 10.5793C55.4896 10.7409 55.5689 10.8894 55.6855 11.006C55.802 11.1225 55.9505 11.2019 56.1122 11.234C56.2738 11.2662 56.4414 11.2497 56.5936 11.1866C56.7459 11.1235 56.8761 11.0167 56.9676 10.8797C57.0592 10.7426 57.1081 10.5815 57.1081 10.4167C57.1078 10.1958 57.0199 9.98396 56.8637 9.82773C56.7075 9.67151 56.4957 9.58363 56.2747 9.58337ZM56.2747 10.8334C56.1923 10.8334 56.1118 10.8089 56.0433 10.7632C55.9747 10.7174 55.9213 10.6523 55.8898 10.5762C55.8583 10.5 55.85 10.4162 55.8661 10.3354C55.8822 10.2546 55.9218 10.1804 55.9801 10.1221C56.0384 10.0638 56.1126 10.0241 56.1935 10.008C56.2743 9.99197 56.3581 10.0002 56.4342 10.0318C56.5103 10.0633 56.5754 10.1167 56.6212 10.1852C56.667 10.2537 56.6914 10.3343 56.6914 10.4167C56.6913 10.5272 56.6474 10.6331 56.5692 10.7112C56.4911 10.7893 56.3852 10.8333 56.2747 10.8334Z"
            fill="#2D4356" />
        <path
            d="M7.10807 23.75C7.10807 23.5852 7.0592 23.4241 6.96763 23.287C6.87606 23.15 6.74591 23.0432 6.59364 22.9801C6.44137 22.917 6.27382 22.9005 6.11216 22.9327C5.95051 22.9649 5.80203 23.0442 5.68548 23.1608C5.56894 23.2773 5.48957 23.4258 5.45742 23.5874C5.42526 23.7491 5.44177 23.9167 5.50484 24.0689C5.56791 24.2212 5.67472 24.3513 5.81176 24.4429C5.94881 24.5345 6.10992 24.5834 6.27474 24.5834C6.49568 24.5831 6.70749 24.4952 6.86372 24.339C7.01994 24.1828 7.10782 23.971 7.10807 23.75ZM5.85807 23.75C5.85807 23.6676 5.88251 23.5871 5.92829 23.5185C5.97408 23.45 6.03915 23.3966 6.11529 23.3651C6.19142 23.3335 6.2752 23.3253 6.35603 23.3414C6.43685 23.3574 6.5111 23.3971 6.56937 23.4554C6.62764 23.5137 6.66732 23.5879 6.6834 23.6687C6.69948 23.7496 6.69123 23.8333 6.65969 23.9095C6.62815 23.9856 6.57475 24.0507 6.50623 24.0965C6.43771 24.1423 6.35715 24.1667 6.27474 24.1667C6.16427 24.1666 6.05835 24.1226 5.98023 24.0445C5.90212 23.9664 5.85818 23.8605 5.85807 23.75Z"
            fill="#2D4356" />
        <path
            d="M16.9339 6.25457L17.5535 5.43999L17.1623 5.21832L16.7648 6.13082H16.7514L16.3473 5.22457L15.9493 5.45291L16.5623 6.24832V6.26124L15.6035 6.13749V6.58082L16.5685 6.45707V6.46999L15.9493 7.26499L16.3206 7.49999L16.7448 6.58082H16.7577L17.1489 7.49332L17.5598 7.25874L16.9339 6.47624V6.46332L17.9181 6.58082V6.13749L16.9339 6.26749V6.25457Z"
            fill="#0BCEB2" />
        <path
            d="M3.68042 6.27796L3.32375 6.73588L3.53792 6.87088L3.78208 6.34171H3.78917L4.01458 6.86713L4.25125 6.73213L3.89083 6.2813V6.2738L4.4575 6.34171V6.0863L3.89083 6.1613V6.1538L4.2475 5.68463L4.0225 5.55713L3.79333 6.08255H3.78583L3.55292 5.56046L3.32375 5.69213L3.67708 6.15005V6.15755L3.125 6.0863V6.34171L3.68042 6.27046V6.27796Z"
            fill="#0BCEB2" />
        <path
            d="M66.2743 19.8804V19.4459L65.3089 19.5738V19.5609L65.9164 18.7617L65.5327 18.5442L65.1427 19.4392H65.1297L64.7335 18.5504L64.3431 18.7746L64.9443 19.5546V19.5675L64.0039 19.4459V19.8804L64.9506 19.7592V19.7721L64.3431 20.5521L64.7077 20.7825L65.1235 19.8804H65.136L65.5197 20.7759L65.9227 20.5459L65.3089 19.7784V19.7654L66.2743 19.8804Z"
            fill="#0BCEB2" />
        <path
            d="M66.0414 2.32752L66.5656 1.63794L66.2348 1.45044L65.8981 2.22252H65.8868L65.5452 1.45586L65.2081 1.64919L65.7268 2.32211V2.33294L64.916 2.22836V2.60336L65.7323 2.49836V2.50961L65.2081 3.18252L65.5227 3.38127L65.8814 2.60336H65.8923L66.2235 3.37544L66.571 3.17711L66.0414 2.51502V2.50377L66.8739 2.60336V2.22836L66.0414 2.33836V2.32752Z"
            fill="#0BCEB2" />
        <path
            d="M0.833333 63.3334C1.29357 63.3334 1.66667 62.9603 1.66667 62.5C1.66667 62.0398 1.29357 61.6667 0.833333 61.6667C0.373096 61.6667 0 62.0398 0 62.5C0 62.9603 0.373096 63.3334 0.833333 63.3334Z"
            fill="#2D4356" />
        <path
            d="M4.58333 61.6667H3.33333C3.11232 61.6667 2.90036 61.7545 2.74408 61.9108C2.5878 62.067 2.5 62.279 2.5 62.5C2.5 62.721 2.5878 62.933 2.74408 63.0893C2.90036 63.2456 3.11232 63.3334 3.33333 63.3334H4.58333C4.80435 63.3334 5.01631 63.2456 5.17259 63.0893C5.32887 62.933 5.41667 62.721 5.41667 62.5C5.41667 62.279 5.32887 62.067 5.17259 61.9108C5.01631 61.7545 4.80435 61.6667 4.58333 61.6667Z"
            fill="#2D4356" />
        <path
            d="M66.6673 61.6666H65.4173C65.1963 61.6666 64.9843 61.7544 64.8281 61.9107C64.6718 62.067 64.584 62.2789 64.584 62.5C64.584 62.721 64.6718 62.9329 64.8281 63.0892C64.9843 63.2455 65.1963 63.3333 65.4173 63.3333H66.6673C66.8883 63.3333 67.1003 63.2455 67.2566 63.0892C67.4129 62.9329 67.5007 62.721 67.5007 62.5C67.5007 62.2789 67.4129 62.067 67.2566 61.9107C67.1003 61.7544 66.8883 61.6666 66.6673 61.6666Z"
            fill="#2D4356" />
        <path
            d="M69.1673 63.3333C69.6276 63.3333 70.0007 62.9602 70.0007 62.5C70.0007 62.0397 69.6276 61.6666 69.1673 61.6666C68.7071 61.6666 68.334 62.0397 68.334 62.5C68.334 62.9602 68.7071 63.3333 69.1673 63.3333Z"
            fill="#2D4356" />
        <path
            d="M49.2308 65H45.7692C45.5597 65.0168 45.3643 65.1119 45.2217 65.2663C45.0792 65.4207 45 65.6232 45 65.8333C45 66.0435 45.0792 66.246 45.2217 66.4004C45.3643 66.5548 45.5597 66.6499 45.7692 66.6667H49.2308C49.4403 66.6499 49.6358 66.5548 49.7783 66.4004C49.9209 66.246 50 66.0435 50 65.8333C50 65.6232 49.9209 65.4207 49.7783 65.2663C49.6358 65.1119 49.4403 65.0168 49.2308 65Z"
            fill="#0BCEB2" />
        <path
            d="M24.2308 65H20.7692C20.5597 65.0168 20.3643 65.1119 20.2217 65.2663C20.0792 65.4207 20 65.6232 20 65.8333C20 66.0435 20.0792 66.246 20.2217 66.4004C20.3643 66.5548 20.5597 66.6499 20.7692 66.6667H24.2308C24.4403 66.6499 24.6358 66.5548 24.7783 66.4004C24.9209 66.246 25 66.0435 25 65.8333C25 65.6232 24.9209 65.4207 24.7783 65.2663C24.6358 65.1119 24.4403 65.0168 24.2308 65Z"
            fill="#0BCEB2" />
        <path
            d="M43.334 65H26.6673C26.4463 65 26.2343 65.0878 26.0781 65.2441C25.9218 65.4004 25.834 65.6123 25.834 65.8333C25.834 66.0543 25.9218 66.2663 26.0781 66.4226C26.2343 66.5789 26.4463 66.6667 26.6673 66.6667H33.309V67.5H30.0007C29.7796 67.5 29.5677 67.5878 29.4114 67.7441C29.2551 67.9004 29.1673 68.1123 29.1673 68.3333C29.1673 68.5543 29.2551 68.7663 29.4114 68.9226C29.5677 69.0789 29.7796 69.1667 30.0007 69.1667H40.4173C40.6383 69.1667 40.8503 69.0789 41.0066 68.9226C41.1629 68.7663 41.2507 68.5543 41.2507 68.3333C41.2507 68.1123 41.1629 67.9004 41.0066 67.7441C40.8503 67.5878 40.6383 67.5 40.4173 67.5H36.6923V66.6667H43.334C43.555 66.6667 43.767 66.5789 43.9232 66.4226C44.0795 66.2663 44.1673 66.0543 44.1673 65.8333C44.1673 65.6123 44.0795 65.4004 43.9232 65.2441C43.767 65.0878 43.555 65 43.334 65Z"
            fill="#0BCEB2" />
        <path
            d="M62.8004 61.6667H60.3366L53.2622 54.616L54.7041 53.1791L59.4239 57.6925C59.5838 57.8446 59.7975 57.9272 60.0181 57.9219C60.2388 57.9167 60.4484 57.8242 60.6009 57.6646C60.7534 57.5051 60.8365 57.2915 60.8317 57.0709C60.827 56.8502 60.735 56.6404 60.5758 56.4875L55.867 51.9847C56.1206 51.6493 56.2437 51.2333 56.2136 50.8139C56.1835 50.3946 56.0022 50.0004 55.7034 49.7047L53.2851 47.2946C53.6673 46.2338 53.8624 45.1147 53.8617 43.9871C53.8688 41.9225 53.227 39.9078 52.0269 38.2277C50.8268 36.5476 49.1292 35.287 47.1739 34.6241C45.2186 33.9611 43.1043 33.9293 41.1299 34.5331C39.1555 35.1369 37.4207 36.3458 36.1707 37.989C34.9206 39.6322 34.2184 41.6266 34.1633 43.6906C34.1082 45.7545 34.703 47.7836 35.8636 49.4911C37.0243 51.1987 38.6921 52.4984 40.6315 53.2067C42.5709 53.9149 44.6838 53.9959 46.6717 53.4382L49.3185 56.0763C49.65 56.3995 50.0947 56.5803 50.5577 56.5803C51.0207 56.5803 51.4654 56.3995 51.7969 56.0763L52.0816 55.7925C52.0816 55.7925 55.8417 59.5399 57.9757 61.6667H7.1993C7.08075 61.6512 6.96025 61.6612 6.84587 61.696C6.73148 61.7308 6.62584 61.7895 6.53598 61.8684C6.44613 61.9473 6.37414 62.0444 6.32483 62.1533C6.27551 62.2623 6.25 62.3804 6.25 62.5C6.25 62.6196 6.27551 62.7378 6.32483 62.8467C6.37414 62.9556 6.44613 63.0527 6.53598 63.1316C6.62584 63.2105 6.73148 63.2693 6.84587 63.3041C6.96025 63.3389 7.08075 63.3488 7.1993 63.3333H62.8004C62.9189 63.3488 63.0394 63.3389 63.1538 63.3041C63.2682 63.2693 63.3739 63.2105 63.4637 63.1316C63.5536 63.0527 63.6256 62.9556 63.6749 62.8467C63.7242 62.7378 63.7497 62.6196 63.7497 62.5C63.7497 62.3804 63.7242 62.2623 63.6749 62.1533C63.6256 62.0444 63.5536 61.9473 63.4637 61.8684C63.3739 61.7895 63.2682 61.7308 63.1538 61.696C63.0394 61.6612 62.9189 61.6512 62.8004 61.6667ZM44.0141 52.1375C42.4034 52.1315 40.8307 51.6483 39.4944 50.7491C38.1581 49.8498 37.1182 48.5748 36.5061 47.085C35.8939 45.5952 35.7368 43.9575 36.0548 42.3785C36.3727 40.7995 37.1513 39.3501 38.2924 38.2133C39.4334 37.0765 40.8857 36.3033 42.4659 35.9913C44.046 35.6793 45.6832 35.8425 47.1707 36.4602C48.6582 37.078 49.9293 38.1226 50.8235 39.4623C51.7178 40.8019 52.195 42.3765 52.1951 43.9871C52.1885 46.152 51.3235 48.226 49.7898 49.7539C48.2562 51.2819 46.179 52.1391 44.0141 52.1375ZM50.6205 54.8955C50.6038 54.9119 50.5812 54.9211 50.5577 54.9211C50.5342 54.9211 50.5116 54.9119 50.4948 54.8955L48.3773 52.7849C50.1134 51.9246 51.5589 50.5737 52.5346 48.8997C52.5346 48.8997 54.5208 50.8791 54.527 50.8853C54.5422 50.901 54.5506 50.922 54.5506 50.9438C54.5506 50.9656 54.5422 50.9866 54.527 51.0023L50.6205 54.8955Z"
            fill="#2D4356" />
    </g>
    <defs>
        <clipPath id="clip0_715_31566">
            <rect width="70" height="70" fill="white" />
        </clipPath>
    </defs>
</svg>
    