<svg width="70" height="70" viewBox="0 0 70 70" fill="none" xmlns="http://www.w3.org/2000/svg">
<g clip-path="url(#clip0_2_6233)">
<path d="M10.8307 43.2874V12.551C10.831 12.3166 10.9242 12.0919 11.0899 11.9262C11.2556 11.7604 11.4803 11.6672 11.7147 11.6669H32.4467C32.6811 11.6672 32.9058 11.7604 33.0716 11.9262C33.2373 12.0919 33.3305 12.3166 33.3307 12.551V15.0007H34.9974V12.551C34.9967 11.8747 34.7277 11.2263 34.2496 10.7481C33.7714 10.2698 33.123 10.0008 32.4467 10H11.7147C11.0384 10.0008 10.3901 10.2698 9.9119 10.7481C9.43372 11.2263 9.16477 11.8747 9.16406 12.551V43.2874C9.16477 43.9637 9.43372 44.6121 9.9119 45.0903C10.3901 45.5686 11.0384 45.8376 11.7147 45.8384H14.1641V44.1715H11.7147C11.4803 44.1713 11.2556 44.078 11.0899 43.9123C10.9242 43.7465 10.831 43.5218 10.8307 43.2874Z" fill="#2D4356"/>
<path d="M17.5026 49.9554V19.219C17.5028 18.9846 17.596 18.7599 17.7618 18.5941C17.9275 18.4284 18.1522 18.3351 18.3866 18.3349H39.1186C39.353 18.3351 39.5777 18.4284 39.7434 18.5941C39.9092 18.7599 40.0024 18.9846 40.0026 19.219V21.6687H41.6693V19.219C41.6686 18.5427 41.3996 17.8943 40.9214 17.4161C40.4433 16.9378 39.7949 16.6688 39.1186 16.668H18.3866C17.7103 16.6688 17.0619 16.9378 16.5838 17.4161C16.1056 17.8943 15.8366 18.5427 15.8359 19.219V49.9554C15.8366 50.6316 16.1056 51.28 16.5838 51.7583C17.0619 52.2365 17.7103 52.5056 18.3866 52.5064H20.8359V50.8395H18.3866C18.1522 50.8392 17.9275 50.746 17.7618 50.5802C17.596 50.4145 17.5028 50.1897 17.5026 49.9554Z" fill="#4C7DA7"/>
<path d="M42.9194 28.7529H27.9194C27.6983 28.7529 27.4864 28.8407 27.3301 28.997C27.1738 29.1533 27.0859 29.3653 27.0859 29.5864C27.0859 29.8074 27.1738 30.0194 27.3301 30.1757C27.4864 30.332 27.6983 30.4198 27.9194 30.4198H42.9194C43.1404 30.4198 43.3524 30.332 43.5087 30.1757C43.665 30.0194 43.7528 29.8074 43.7528 29.5864C43.7528 29.3653 43.665 29.1533 43.5087 28.997C43.3524 28.8407 43.1404 28.7529 42.9194 28.7529Z" fill="#4C7DA7"/>
<path d="M27.0859 52.9233C27.0859 53.1443 27.1737 53.3563 27.33 53.5126C27.4863 53.6689 27.6982 53.7567 27.9193 53.7567H37.9724C37.2076 53.2847 36.5003 52.7253 35.8648 52.0898H27.9193C27.6982 52.0899 27.4863 52.1777 27.33 52.334C27.1737 52.4903 27.0859 52.7023 27.0859 52.9233Z" fill="#2D4356"/>
<path d="M27.9194 48.7559C27.6983 48.7559 27.4864 48.8437 27.3301 49C27.1738 49.1563 27.0859 49.3683 27.0859 49.5893C27.0859 49.8104 27.1738 50.0223 27.3301 50.1787C27.4864 50.335 27.6983 50.4228 27.9194 50.4228H34.4852C34.1264 49.8942 33.8123 49.3367 33.5463 48.7559H27.9194Z" fill="#4C7DA7"/>
<path d="M27.9194 47.0888H32.9328C32.779 46.5423 32.6663 45.9851 32.5957 45.4219H27.9194C27.6983 45.4219 27.4864 45.5097 27.3301 45.666C27.1738 45.8223 27.0859 46.0343 27.0859 46.2553C27.0859 46.4764 27.1738 46.6884 27.3301 46.8447C27.4864 47.001 27.6983 47.0888 27.9194 47.0888Z" fill="#2D4356"/>
<path d="M27.9194 43.7548H32.5086C32.5194 43.1961 32.571 42.639 32.663 42.0879H27.9194C27.6983 42.0879 27.4864 42.1757 27.3301 42.332C27.1738 42.4883 27.0859 42.7003 27.0859 42.9213C27.0859 43.1424 27.1738 43.3544 27.3301 43.5107C27.4864 43.667 27.6983 43.7548 27.9194 43.7548Z" fill="#4C7DA7"/>
<path d="M27.0859 39.5874C27.0859 39.8084 27.1737 40.0204 27.33 40.1767C27.4863 40.333 27.6982 40.4208 27.9193 40.4208H33.0738C33.2623 39.8475 33.496 39.2902 33.7728 38.7539H27.9193C27.6982 38.7539 27.4863 38.8418 27.33 38.9981C27.1737 39.1544 27.0859 39.3663 27.0859 39.5874Z" fill="#2D4356"/>
<path d="M36.3598 35.4199H27.9194C27.6983 35.4199 27.4864 35.5077 27.33 35.664C27.1737 35.8203 27.0859 36.0323 27.0859 36.2534C27.0859 36.4744 27.1737 36.6864 27.33 36.8427C27.4864 36.999 27.6983 37.0868 27.9194 37.0868H34.8194C35.2771 36.4821 35.793 35.9238 36.3598 35.4199Z" fill="#4C7DA7"/>
<path d="M43.6423 32.5122C43.5705 32.3833 43.4657 32.2758 43.3387 32.2009C43.2116 32.126 43.0669 32.0863 42.9194 32.0859H27.9194C27.6983 32.0859 27.4864 32.1737 27.3301 32.33C27.1738 32.4864 27.0859 32.6983 27.0859 32.9194C27.0859 33.1404 27.1738 33.3524 27.3301 33.5087C27.4864 33.665 27.6983 33.7528 27.9194 33.7528H38.8027C40.305 32.9883 41.9574 32.5646 43.6423 32.5122Z" fill="#2D4356"/>
<path d="M46.6667 55.7861V56.6224C46.6664 56.8568 46.5732 57.0815 46.4075 57.2472C46.2418 57.413 46.0171 57.5062 45.7827 57.5065H25.0507C24.8163 57.5062 24.5916 57.413 24.4258 57.2472C24.2601 57.0815 24.1669 56.8568 24.1667 56.6224V25.886C24.1669 25.6516 24.2601 25.4269 24.4258 25.2611C24.5916 25.0954 24.8163 25.0021 25.0507 25.0019H45.7827C46.0171 25.0021 46.2418 25.0954 46.4075 25.2611C46.5732 25.4269 46.6664 25.6516 46.6667 25.886V32.8139C47.235 32.9479 47.7921 33.1252 48.3333 33.3443V25.886C48.3326 25.2097 48.0637 24.5613 47.5855 24.0831C47.1073 23.6048 46.459 23.3358 45.7827 23.335H25.0507C24.3744 23.3358 23.726 23.6048 23.2478 24.0831C22.7697 24.5613 22.5007 25.2097 22.5 25.886V56.6224C22.5007 57.2987 22.7697 57.947 23.2478 58.4253C23.726 58.9035 24.3744 59.1726 25.0507 59.1734H45.7827C46.3343 59.1725 46.8709 58.993 47.312 58.6617C47.7532 58.3305 48.0752 57.8652 48.2299 57.3357C48.2011 57.3089 46.6667 55.7861 46.6667 55.7861Z" fill="#2D4356"/>
<path d="M46.4058 41.4658L42.4831 44.6645L41.7687 43.6996C41.6372 43.522 41.4405 43.4039 41.2219 43.3713C41.0033 43.3387 40.7807 43.3942 40.6031 43.5258C40.4255 43.6573 40.3074 43.854 40.2747 44.0726C40.2421 44.2912 40.2977 44.5138 40.4292 44.6914L41.6631 46.3583C41.8025 46.5359 42.0064 46.6513 42.2304 46.6795C42.4544 46.7076 42.6805 46.6461 42.8594 46.5085L47.4588 42.7579C47.6293 42.618 47.7374 42.4162 47.7594 42.1968C47.7813 41.9773 47.7154 41.7581 47.5761 41.5872C47.4368 41.4162 47.2354 41.3075 47.016 41.2847C46.7967 41.262 46.5772 41.3271 46.4058 41.4658Z" fill="#4C7DA7"/>
<path d="M41.2734 13.333C41.5207 13.333 41.7623 13.2597 41.9679 13.1223C42.1735 12.985 42.3337 12.7898 42.4283 12.5614C42.5229 12.333 42.5477 12.0816 42.4994 11.8391C42.4512 11.5967 42.3321 11.3739 42.1573 11.1991C41.9825 11.0243 41.7598 10.9053 41.5173 10.857C41.2748 10.8088 41.0235 10.8335 40.7951 10.9282C40.5667 11.0228 40.3715 11.183 40.2341 11.3885C40.0967 11.5941 40.0234 11.8358 40.0234 12.083C40.0238 12.4144 40.1556 12.7321 40.39 12.9665C40.6243 13.2008 40.942 13.3326 41.2734 13.333ZM41.2734 11.458C41.3971 11.458 41.5179 11.4947 41.6207 11.5633C41.7235 11.632 41.8036 11.7296 41.8509 11.8438C41.8982 11.958 41.9105 12.0837 41.8864 12.2049C41.8623 12.3262 41.8028 12.4375 41.7154 12.5249C41.628 12.6124 41.5166 12.6719 41.3954 12.696C41.2741 12.7201 41.1485 12.7077 41.0343 12.6604C40.9201 12.6131 40.8224 12.533 40.7538 12.4302C40.6851 12.3275 40.6484 12.2066 40.6484 12.083C40.6486 11.9173 40.7145 11.7584 40.8317 11.6412C40.9489 11.5241 41.1077 11.4582 41.2734 11.458Z" fill="#2D4356"/>
<path d="M52.1068 2.08301C51.942 2.08301 51.7808 2.13188 51.6438 2.22345C51.5068 2.31502 51.3999 2.44517 51.3369 2.59744C51.2738 2.74971 51.2573 2.91727 51.2894 3.07892C51.3216 3.24057 51.401 3.38905 51.5175 3.5056C51.6341 3.62214 51.7825 3.70151 51.9442 3.73366C52.1058 3.76582 52.2734 3.74931 52.4257 3.68624C52.5779 3.62317 52.7081 3.51636 52.7997 3.37932C52.8912 3.24228 52.9401 3.08116 52.9401 2.91634C52.9399 2.6954 52.852 2.48359 52.6957 2.32736C52.5395 2.17114 52.3277 2.08326 52.1068 2.08301ZM52.1068 3.33301C52.0244 3.33301 51.9438 3.30857 51.8753 3.26279C51.8068 3.217 51.7534 3.15193 51.7218 3.07579C51.6903 2.99966 51.682 2.91588 51.6981 2.83505C51.7142 2.75423 51.7539 2.67999 51.8121 2.62171C51.8704 2.56344 51.9447 2.52376 52.0255 2.50768C52.1063 2.4916 52.1901 2.49985 52.2662 2.53139C52.3424 2.56293 52.4074 2.61633 52.4532 2.68485C52.499 2.75337 52.5234 2.83393 52.5234 2.91634C52.5233 3.02681 52.4794 3.13273 52.4013 3.21085C52.3232 3.28896 52.2172 3.3329 52.1068 3.33301Z" fill="#2D4356"/>
<path d="M25.4427 0.833008C25.2779 0.833008 25.1168 0.881882 24.9797 0.97345C24.8427 1.06502 24.7359 1.19517 24.6728 1.34744C24.6097 1.49971 24.5932 1.66727 24.6254 1.82892C24.6575 1.99057 24.7369 2.13905 24.8535 2.2556C24.97 2.37214 25.1185 2.45151 25.2801 2.48366C25.4418 2.51582 25.6093 2.49931 25.7616 2.43624C25.9139 2.37317 26.044 2.26636 26.1356 2.12932C26.2272 1.99228 26.276 1.83116 26.276 1.66634C26.2758 1.4454 26.1879 1.23359 26.0317 1.07736C25.8755 0.921139 25.6636 0.83326 25.4427 0.833008ZM25.4427 2.08301C25.3603 2.08301 25.2797 2.05857 25.2112 2.01279C25.1427 1.967 25.0893 1.90193 25.0578 1.82579C25.0262 1.74966 25.018 1.66588 25.034 1.58505C25.0501 1.50423 25.0898 1.42999 25.1481 1.37171C25.2064 1.31344 25.2806 1.27376 25.3614 1.25768C25.4422 1.2416 25.526 1.24985 25.6022 1.28139C25.6783 1.31293 25.7434 1.36633 25.7892 1.43485C25.8349 1.50337 25.8594 1.58393 25.8594 1.66634C25.8593 1.77681 25.8153 1.88273 25.7372 1.96085C25.6591 2.03896 25.5532 2.0829 25.4427 2.08301Z" fill="#2D4356"/>
<path d="M56.2747 9.58301C56.1099 9.58301 55.9488 9.63188 55.8118 9.72345C55.6747 9.81502 55.5679 9.94517 55.5048 10.0974C55.4418 10.2497 55.4253 10.4173 55.4574 10.5789C55.4896 10.7406 55.5689 10.8891 55.6855 11.0056C55.802 11.1221 55.9505 11.2015 56.1122 11.2337C56.2738 11.2658 56.4414 11.2493 56.5936 11.1862C56.7459 11.1232 56.8761 11.0164 56.9676 10.8793C57.0592 10.7423 57.1081 10.5812 57.1081 10.4163C57.1078 10.1954 57.0199 9.98359 56.8637 9.82736C56.7075 9.67114 56.4957 9.58326 56.2747 9.58301ZM56.2747 10.833C56.1923 10.833 56.1118 10.8086 56.0433 10.7628C55.9747 10.717 55.9213 10.6519 55.8898 10.5758C55.8583 10.4997 55.85 10.4159 55.8661 10.3351C55.8822 10.2542 55.9218 10.18 55.9801 10.1217C56.0384 10.0634 56.1126 10.0238 56.1935 10.0077C56.2743 9.9916 56.3581 9.99985 56.4342 10.0314C56.5103 10.0629 56.5754 10.1163 56.6212 10.1849C56.667 10.2534 56.6914 10.3339 56.6914 10.4163C56.6913 10.5268 56.6474 10.6327 56.5692 10.7108C56.4911 10.789 56.3852 10.8329 56.2747 10.833Z" fill="#2D4356"/>
<path d="M7.10807 23.7493C7.10807 23.5845 7.0592 23.4234 6.96763 23.2864C6.87606 23.1493 6.74591 23.0425 6.59364 22.9794C6.44137 22.9164 6.27382 22.8999 6.11216 22.932C5.95051 22.9642 5.80203 23.0435 5.68548 23.1601C5.56894 23.2766 5.48957 23.4251 5.45742 23.5868C5.42526 23.7484 5.44177 23.916 5.50484 24.0683C5.56791 24.2205 5.67472 24.3507 5.81176 24.4422C5.94881 24.5338 6.10992 24.5827 6.27474 24.5827C6.49568 24.5824 6.70749 24.4946 6.86372 24.3383C7.01994 24.1821 7.10782 23.9703 7.10807 23.7493ZM5.85807 23.7493C5.85807 23.6669 5.88251 23.5864 5.92829 23.5179C5.97408 23.4493 6.03915 23.3959 6.11529 23.3644C6.19142 23.3329 6.2752 23.3246 6.35603 23.3407C6.43685 23.3568 6.5111 23.3964 6.56937 23.4547C6.62764 23.513 6.66732 23.5872 6.6834 23.6681C6.69948 23.7489 6.69123 23.8327 6.65969 23.9088C6.62815 23.9849 6.57475 24.05 6.50623 24.0958C6.43771 24.1416 6.35715 24.166 6.27474 24.166C6.16427 24.1659 6.05835 24.122 5.98023 24.0439C5.90212 23.9657 5.85818 23.8598 5.85807 23.7493Z" fill="#2D4356"/>
<path d="M16.932 6.255L17.5516 5.44042L17.1603 5.21875L16.7628 6.13125H16.7495L16.3453 5.225L15.9474 5.45333L16.5603 6.24875V6.26167L15.6016 6.13792V6.58125L16.5666 6.4575V6.47042L15.9474 7.26542L16.3186 7.50042L16.7428 6.58125H16.7557L17.147 7.49375L17.5578 7.25917L16.932 6.47667V6.46375L17.9161 6.58125V6.13792L16.932 6.26792V6.255Z" fill="#4C7DA7"/>
<path d="M3.68042 6.27747L3.32375 6.73539L3.53792 6.87039L3.78208 6.34122H3.78917L4.01458 6.86664L4.25125 6.73164L3.89083 6.28081V6.27331L4.4575 6.34122V6.08581L3.89083 6.16081V6.15331L4.2475 5.68414L4.0225 5.55664L3.79333 6.08206H3.78583L3.55292 5.55997L3.32375 5.69164L3.67708 6.14956V6.15706L3.125 6.08581V6.34122L3.68042 6.26997V6.27747Z" fill="#4C7DA7"/>
<path d="M66.2743 19.8802V19.4456L65.3089 19.5735V19.5606L65.9164 18.7614L65.5327 18.5439L65.1427 19.4389H65.1297L64.7335 18.5502L64.3431 18.7744L64.9443 19.5544V19.5673L64.0039 19.4456V19.8802L64.9506 19.7589V19.7719L64.3431 20.5519L64.7077 20.7823L65.1235 19.8802H65.136L65.5197 20.7756L65.9227 20.5456L65.3089 19.7781V19.7652L66.2743 19.8802Z" fill="#4C7DA7"/>
<path d="M66.0395 2.32728L66.5636 1.6377L66.2328 1.4502L65.8961 2.22228H65.8849L65.5432 1.45561L65.2061 1.64895L65.7249 2.32186V2.3327L64.9141 2.22811V2.60311L65.7303 2.49811V2.50936L65.2061 3.18228L65.5207 3.38103L65.8795 2.60311H65.8903L66.2216 3.3752L66.5691 3.17686L66.0395 2.51478V2.50353L66.872 2.60311V2.22811L66.0395 2.33811V2.32728Z" fill="#4C7DA7"/>
<path d="M0.833333 63.3337C1.29357 63.3337 1.66667 62.9606 1.66667 62.5003C1.66667 62.0401 1.29357 61.667 0.833333 61.667C0.373096 61.667 0 62.0401 0 62.5003C0 62.9606 0.373096 63.3337 0.833333 63.3337Z" fill="#2D4356"/>
<path d="M4.58333 61.667H3.33333C3.11232 61.667 2.90036 61.7548 2.74408 61.9111C2.5878 62.0673 2.5 62.2793 2.5 62.5003C2.5 62.7213 2.5878 62.9333 2.74408 63.0896C2.90036 63.2459 3.11232 63.3337 3.33333 63.3337H4.58333C4.80435 63.3337 5.01631 63.2459 5.17259 63.0896C5.32887 62.9333 5.41667 62.7213 5.41667 62.5003C5.41667 62.2793 5.32887 62.0673 5.17259 61.9111C5.01631 61.7548 4.80435 61.667 4.58333 61.667Z" fill="#2D4356"/>
<path d="M66.6693 61.667H65.4193C65.1983 61.667 64.9863 61.7548 64.83 61.9111C64.6737 62.0673 64.5859 62.2793 64.5859 62.5003C64.5859 62.7213 64.6737 62.9333 64.83 63.0896C64.9863 63.2459 65.1983 63.3337 65.4193 63.3337H66.6693C66.8903 63.3337 67.1022 63.2459 67.2585 63.0896C67.4148 62.9333 67.5026 62.7213 67.5026 62.5003C67.5026 62.2793 67.4148 62.0673 67.2585 61.9111C67.1022 61.7548 66.8903 61.667 66.6693 61.667Z" fill="#2D4356"/>
<path d="M69.1693 63.3337C69.6295 63.3337 70.0026 62.9606 70.0026 62.5003C70.0026 62.0401 69.6295 61.667 69.1693 61.667C68.709 61.667 68.3359 62.0401 68.3359 62.5003C68.3359 62.9606 68.709 63.3337 69.1693 63.3337Z" fill="#2D4356"/>
<path d="M49.2308 65H45.7692C45.5597 65.0168 45.3643 65.1119 45.2217 65.2663C45.0792 65.4207 45 65.6232 45 65.8333C45 66.0435 45.0792 66.246 45.2217 66.4004C45.3643 66.5548 45.5597 66.6499 45.7692 66.6667H49.2308C49.4403 66.6499 49.6358 66.5548 49.7783 66.4004C49.9209 66.246 50 66.0435 50 65.8333C50 65.6232 49.9209 65.4207 49.7783 65.2663C49.6358 65.1119 49.4403 65.0168 49.2308 65Z" fill="#4C7DA7"/>
<path d="M24.2308 65H20.7692C20.5597 65.0168 20.3643 65.1119 20.2217 65.2663C20.0792 65.4207 20 65.6232 20 65.8333C20 66.0435 20.0792 66.246 20.2217 66.4004C20.3643 66.5548 20.5597 66.6499 20.7692 66.6667H24.2308C24.4403 66.6499 24.6358 66.5548 24.7783 66.4004C24.9209 66.246 25 66.0435 25 65.8333C25 65.6232 24.9209 65.4207 24.7783 65.2663C24.6358 65.1119 24.4403 65.0168 24.2308 65Z" fill="#4C7DA7"/>
<path d="M43.3359 65H26.6693C26.4483 65 26.2363 65.0878 26.08 65.2441C25.9237 65.4004 25.8359 65.6123 25.8359 65.8333C25.8359 66.0543 25.9237 66.2663 26.08 66.4226C26.2363 66.5789 26.4483 66.6667 26.6693 66.6667H33.3109V67.5H30.0026C29.7816 67.5 29.5696 67.5878 29.4133 67.7441C29.2571 67.9004 29.1693 68.1123 29.1693 68.3333C29.1693 68.5543 29.2571 68.7663 29.4133 68.9226C29.5696 69.0789 29.7816 69.1667 30.0026 69.1667H40.4193C40.6403 69.1667 40.8522 69.0789 41.0085 68.9226C41.1648 68.7663 41.2526 68.5543 41.2526 68.3333C41.2526 68.1123 41.1648 67.9004 41.0085 67.7441C40.8522 67.5878 40.6403 67.5 40.4193 67.5H36.6943V66.6667H43.3359C43.557 66.6667 43.7689 66.5789 43.9252 66.4226C44.0815 66.2663 44.1693 66.0543 44.1693 65.8333C44.1693 65.6123 44.0815 65.4004 43.9252 65.2441C43.7689 65.0878 43.557 65 43.3359 65Z" fill="#4C7DA7"/>
<path d="M62.8004 61.6668H60.3366L53.2622 54.6161L54.7041 53.1792L59.4239 57.6926C59.5838 57.8448 59.7975 57.9273 60.0181 57.9221C60.2388 57.9168 60.4484 57.8243 60.6009 57.6647C60.7534 57.5052 60.8365 57.2917 60.8317 57.071C60.827 56.8503 60.735 56.6405 60.5758 56.4876L55.867 51.9848C56.1206 51.6495 56.2437 51.2334 56.2136 50.8141C56.1835 50.3947 56.0022 50.0005 55.7034 49.7048L53.2851 47.2947C53.6673 46.2339 53.8624 45.1148 53.8617 43.9872C53.8688 41.9226 53.227 39.9079 52.0269 38.2278C50.8268 36.5477 49.1292 35.2871 47.1739 34.6242C45.2186 33.9612 43.1043 33.9294 41.1299 34.5332C39.1555 35.137 37.4207 36.3459 36.1707 37.9891C34.9206 39.6323 34.2184 41.6268 34.1633 43.6907C34.1082 45.7546 34.703 47.7837 35.8636 49.4913C37.0243 51.1988 38.6921 52.4985 40.6315 53.2068C42.5709 53.915 44.6838 53.996 46.6717 53.4383L49.3185 56.0764C49.65 56.3996 50.0947 56.5805 50.5577 56.5805C51.0207 56.5805 51.4654 56.3996 51.7969 56.0764L52.0816 55.7926C52.0816 55.7926 55.8417 59.54 57.9757 61.6668H7.1993C7.08075 61.6513 6.96025 61.6613 6.84587 61.6961C6.73148 61.7309 6.62584 61.7897 6.53598 61.8685C6.44613 61.9474 6.37414 62.0446 6.32483 62.1535C6.27551 62.2624 6.25 62.3806 6.25 62.5001C6.25 62.6197 6.27551 62.7379 6.32483 62.8468C6.37414 62.9557 6.44613 63.0529 6.53598 63.1317C6.62584 63.2106 6.73148 63.2694 6.84587 63.3042C6.96025 63.339 7.08075 63.349 7.1993 63.3335H62.8004C62.9189 63.349 63.0394 63.339 63.1538 63.3042C63.2682 63.2694 63.3739 63.2106 63.4637 63.1317C63.5536 63.0529 63.6256 62.9557 63.6749 62.8468C63.7242 62.7379 63.7497 62.6197 63.7497 62.5001C63.7497 62.3806 63.7242 62.2624 63.6749 62.1535C63.6256 62.0446 63.5536 61.9474 63.4637 61.8685C63.3739 61.7897 63.2682 61.7309 63.1538 61.6961C63.0394 61.6613 62.9189 61.6513 62.8004 61.6668ZM44.0141 52.1376C42.4034 52.1316 40.8307 51.6484 39.4944 50.7492C38.1581 49.85 37.1182 48.575 36.5061 47.0852C35.8939 45.5954 35.7368 43.9576 36.0548 42.3786C36.3727 40.7996 37.1513 39.3502 38.2924 38.2134C39.4334 37.0767 40.8857 36.3035 42.4659 35.9914C44.046 35.6794 45.6832 35.8426 47.1707 36.4604C48.6582 37.0781 49.9293 38.1228 50.8235 39.4624C51.7178 40.802 52.195 42.3766 52.1951 43.9873C52.1885 46.1522 51.3235 48.2261 49.7898 49.754C48.2562 51.282 46.179 52.1392 44.0141 52.1376ZM50.6205 54.8956C50.6038 54.912 50.5812 54.9212 50.5577 54.9212C50.5342 54.9212 50.5116 54.912 50.4948 54.8956L48.3773 52.7851C50.1134 51.9247 51.5589 50.5738 52.5346 48.8998C52.5346 48.8998 54.5208 50.8792 54.527 50.8854C54.5422 50.9011 54.5506 50.9221 54.5506 50.9439C54.5506 50.9657 54.5422 50.9867 54.527 51.0024L50.6205 54.8956Z" fill="#2D4356"/>
</g>
<defs>
<clipPath id="clip0_2_6233">
<rect width="70" height="70" fill="white"/>
</clipPath>
</defs>
</svg>
