<svg width="64" height="64" viewBox="0 0 64 64" fill="none" xmlns="http://www.w3.org/2000/svg">
<g clip-path="url(#clip0_2_6332)">
<path d="M44.9526 32.0993C47.213 32.0992 49.4225 31.4288 51.3018 30.173C53.1812 28.9171 54.6459 27.1322 55.5108 25.0439C56.3757 22.9555 56.602 20.6577 56.1609 18.4408C55.7199 16.2239 54.6313 14.1876 53.033 12.5893C51.4347 10.9911 49.3983 9.90267 47.1814 9.46174C44.9645 9.02082 42.6666 9.24718 40.5783 10.1122C38.4901 10.9772 36.7052 12.442 35.4495 14.3215C34.1937 16.2009 33.5234 18.4104 33.5234 20.6708C33.527 23.7008 34.7322 26.6058 36.8749 28.7483C39.0175 30.8909 41.9226 32.096 44.9526 32.0993ZM44.9526 10.766C46.9116 10.7661 48.8265 11.3471 50.4553 12.4355C52.084 13.5239 53.3535 15.0709 54.103 16.8808C54.8526 18.6906 55.0487 20.6821 54.6665 22.6034C54.2842 24.5247 53.3408 26.2895 51.9556 27.6747C50.5704 29.0598 48.8055 30.0031 46.8842 30.3852C44.9629 30.7674 42.9714 30.5712 41.1616 29.8215C39.3517 29.0718 37.8049 27.8023 36.7165 26.1735C35.6282 24.5447 35.0473 22.6297 35.0473 20.6708C35.0504 18.0447 36.095 15.5271 37.9519 13.6702C39.8089 11.8133 42.3266 10.7689 44.9526 10.766Z" fill="#2D4356"/>
<path d="M42.3032 23.3202V26.0199C42.3032 26.7228 42.5824 27.3969 43.0794 27.894C43.5764 28.391 44.2505 28.6702 44.9534 28.6702C45.6563 28.6702 46.3304 28.391 46.8274 27.894C47.3245 27.3969 47.6037 26.7228 47.6037 26.0199V23.3202H50.3036C51.0065 23.3202 51.6805 23.041 52.1775 22.544C52.6745 22.047 52.9537 21.3729 52.9537 20.6701C52.9537 19.9672 52.6745 19.2931 52.1775 18.7961C51.6805 18.2992 51.0065 18.0199 50.3036 18.0199H47.6037V15.3202C47.6037 14.6173 47.3245 13.9432 46.8274 13.4462C46.3304 12.9491 45.6563 12.6699 44.9534 12.6699C44.2505 12.6699 43.5764 12.9491 43.0794 13.4462C42.5824 13.9432 42.3032 14.6173 42.3032 15.3202V18.0199H39.6032C38.9004 18.0199 38.2263 18.2992 37.7293 18.7961C37.2323 19.2931 36.9531 19.9672 36.9531 20.6701C36.9531 21.3729 37.2323 22.047 37.7293 22.544C38.2263 23.041 38.9004 23.3202 39.6032 23.3202H42.3032ZM38.4769 20.6701C38.4772 20.3714 38.596 20.0851 38.8071 19.874C39.0183 19.6628 39.3046 19.5441 39.6032 19.5438H43.0651C43.2672 19.5438 43.461 19.4635 43.6039 19.3206C43.7468 19.1777 43.827 18.9839 43.8271 18.7819V15.3202C43.8276 15.0218 43.9465 14.7358 44.1577 14.525C44.3689 14.3143 44.6551 14.1959 44.9534 14.1959C45.2518 14.1959 45.538 14.3143 45.7492 14.525C45.9603 14.7358 46.0792 15.0218 46.0798 15.3202V18.7819C46.0798 18.9839 46.1601 19.1777 46.303 19.3206C46.4459 19.4635 46.6397 19.5438 46.8417 19.5438H50.3036C50.6023 19.5438 50.8888 19.6624 51.1 19.8736C51.3113 20.0849 51.4299 20.3713 51.4299 20.6701C51.4299 20.9688 51.3113 21.2553 51.1 21.4665C50.8888 21.6777 50.6023 21.7964 50.3036 21.7964H46.8417C46.6397 21.7964 46.4459 21.8766 46.303 22.0195C46.1601 22.1624 46.0798 22.3562 46.0798 22.5583V26.0199C46.0792 26.3183 45.9603 26.6043 45.7492 26.8151C45.538 27.0259 45.2518 27.1443 44.9534 27.1443C44.6551 27.1443 44.3689 27.0259 44.1577 26.8151C43.9465 26.6043 43.8276 26.3183 43.8271 26.0199V22.5583C43.827 22.3562 43.7468 22.1624 43.6039 22.0195C43.461 21.8766 43.2672 21.7964 43.0651 21.7964H39.6032C39.3046 21.796 39.0183 21.6773 38.8071 21.4661C38.596 21.255 38.4772 20.9687 38.4769 20.6701Z" fill="#4C7DA7"/>
<path d="M30.971 5.81306C31.197 5.81306 31.418 5.74603 31.6059 5.62045C31.7939 5.49487 31.9403 5.31638 32.0268 5.10755C32.1133 4.89872 32.136 4.66893 32.0919 4.44724C32.0478 4.22555 31.9389 4.02191 31.7791 3.86208C31.6193 3.70225 31.4156 3.5934 31.1939 3.5493C30.9723 3.50521 30.7425 3.52784 30.5336 3.61434C30.3248 3.70084 30.1463 3.84732 30.0207 4.03526C29.8952 4.22321 29.8281 4.44417 29.8281 4.6702C29.8285 4.9732 29.949 5.26369 30.1632 5.47794C30.3775 5.69219 30.668 5.81271 30.971 5.81306ZM30.971 4.09877C31.084 4.09877 31.1945 4.13229 31.2885 4.19508C31.3824 4.25787 31.4557 4.34711 31.4989 4.45153C31.5422 4.55594 31.5535 4.67084 31.5314 4.78168C31.5094 4.89253 31.455 4.99435 31.375 5.07426C31.2951 5.15418 31.1933 5.2086 31.0825 5.23065C30.9716 5.2527 30.8567 5.24138 30.7523 5.19813C30.6479 5.15488 30.5586 5.08164 30.4959 4.98767C30.4331 4.8937 30.3996 4.78322 30.3996 4.6702C30.3997 4.5187 30.46 4.37344 30.5671 4.26631C30.6742 4.15917 30.8195 4.09892 30.971 4.09877Z" fill="#2D4356"/>
<path d="M62.2072 19.9092C62.0565 19.9092 61.9092 19.9539 61.7839 20.0376C61.6586 20.1213 61.561 20.2403 61.5033 20.3795C61.4456 20.5187 61.4306 20.6719 61.46 20.8197C61.4894 20.9675 61.5619 21.1033 61.6685 21.2098C61.775 21.3164 61.9108 21.389 62.0586 21.4183C62.2064 21.4477 62.3596 21.4327 62.4988 21.375C62.638 21.3173 62.757 21.2197 62.8407 21.0944C62.9244 20.9691 62.9691 20.8218 62.9691 20.6711C62.9689 20.4691 62.8885 20.2754 62.7457 20.1326C62.6029 19.9898 62.4092 19.9094 62.2072 19.9092ZM62.2072 21.052C62.1319 21.052 62.0582 21.0297 61.9956 20.9878C61.9329 20.946 61.8841 20.8865 61.8553 20.8169C61.8264 20.7473 61.8189 20.6707 61.8336 20.5968C61.8483 20.5229 61.8846 20.455 61.9378 20.4017C61.9911 20.3484 62.059 20.3122 62.1329 20.2975C62.2068 20.2828 62.2834 20.2903 62.353 20.3191C62.4226 20.348 62.4821 20.3968 62.524 20.4594C62.5658 20.5221 62.5882 20.5957 62.5882 20.6711C62.5881 20.7721 62.5479 20.8689 62.4765 20.9403C62.4051 21.0118 62.3082 21.0519 62.2072 21.052Z" fill="#2D4356"/>
<path d="M11.926 1.62305C11.7753 1.62305 11.628 1.66773 11.5027 1.75145C11.3774 1.83517 11.2797 1.95416 11.2221 2.09338C11.1644 2.2326 11.1493 2.3858 11.1787 2.53359C11.2081 2.68139 11.2807 2.81715 11.3872 2.9237C11.4938 3.03025 11.6295 3.10282 11.7773 3.13222C11.9251 3.16161 12.0783 3.14653 12.2175 3.08886C12.3568 3.03119 12.4757 2.93354 12.5595 2.80824C12.6432 2.68295 12.6879 2.53564 12.6879 2.38495C12.6876 2.18295 12.6073 1.98929 12.4645 1.84646C12.3216 1.70362 12.128 1.62328 11.926 1.62305ZM11.926 2.7659C11.8506 2.7659 11.777 2.74356 11.7143 2.7017C11.6517 2.65984 11.6028 2.60035 11.574 2.53074C11.5452 2.46113 11.5376 2.38453 11.5523 2.31063C11.567 2.23673 11.6033 2.16885 11.6566 2.11558C11.7099 2.0623 11.7777 2.02602 11.8516 2.01132C11.9255 1.99662 12.0021 2.00416 12.0718 2.033C12.1414 2.06183 12.2009 2.11066 12.2427 2.17331C12.2846 2.23595 12.3069 2.30961 12.3069 2.38495C12.3068 2.48596 12.2667 2.58279 12.1952 2.65421C12.1238 2.72563 12.027 2.7658 11.926 2.7659Z" fill="#2D4356"/>
<path d="M57.258 10.7656C57.1073 10.7656 56.96 10.8103 56.8347 10.894C56.7094 10.9777 56.6118 11.0967 56.5541 11.236C56.4964 11.3752 56.4813 11.5284 56.5107 11.6762C56.5401 11.824 56.6127 11.9597 56.7193 12.0663C56.8258 12.1728 56.9616 12.2454 57.1094 12.2748C57.2572 12.3042 57.4103 12.2891 57.5496 12.2314C57.6888 12.1738 57.8078 12.0761 57.8915 11.9508C57.9752 11.8255 58.0199 11.6782 58.0199 11.5275C58.0197 11.3255 57.9393 11.1319 57.7965 10.989C57.6537 10.8462 57.46 10.7659 57.258 10.7656ZM57.258 11.9085C57.1827 11.9085 57.109 11.8861 57.0464 11.8443C56.9837 11.8024 56.9349 11.7429 56.906 11.6733C56.8772 11.6037 56.8697 11.5271 56.8844 11.4532C56.8991 11.3793 56.9354 11.3114 56.9886 11.2582C57.0419 11.2049 57.1098 11.1686 57.1837 11.1539C57.2576 11.1392 57.3342 11.1467 57.4038 11.1756C57.4734 11.2044 57.5329 11.2532 57.5748 11.3159C57.6166 11.3785 57.6389 11.4522 57.6389 11.5275C57.6388 11.6285 57.5987 11.7254 57.5273 11.7968C57.4558 11.8682 57.359 11.9084 57.258 11.9085Z" fill="#2D4356"/>
<path d="M4.30506 21.4328C4.30506 21.2821 4.26038 21.1348 4.17666 21.0095C4.09294 20.8842 3.97394 20.7866 3.83472 20.7289C3.6955 20.6712 3.54231 20.6561 3.39451 20.6855C3.24672 20.7149 3.11096 20.7875 3.00441 20.8941C2.89785 21.0006 2.82529 21.1364 2.79589 21.2842C2.76649 21.432 2.78158 21.5852 2.83925 21.7244C2.89691 21.8636 2.99457 21.9826 3.11986 22.0663C3.24516 22.15 3.39246 22.1947 3.54316 22.1947C3.74515 22.1945 3.93881 22.1141 4.08165 21.9713C4.22448 21.8285 4.30483 21.6348 4.30506 21.4328ZM3.1622 21.4328C3.1622 21.3575 3.18455 21.2838 3.2264 21.2212C3.26826 21.1585 3.32776 21.1097 3.39737 21.0809C3.46698 21.052 3.54358 21.0445 3.61748 21.0592C3.69137 21.0739 3.75925 21.1102 3.81253 21.1634C3.86581 21.2167 3.90209 21.2846 3.91679 21.3585C3.93149 21.4324 3.92394 21.509 3.89511 21.5786C3.86628 21.6482 3.81745 21.7077 3.7548 21.7496C3.69215 21.7914 3.6185 21.8138 3.54316 21.8138C3.44215 21.8137 3.34531 21.7735 3.27389 21.7021C3.20247 21.6306 3.1623 21.5338 3.1622 21.4328Z" fill="#2D4356"/>
<path d="M1.86482 6.57965L2.43129 5.8345L2.07358 5.63184L1.70977 6.46612H1.69796L1.32844 5.63793L0.964628 5.84631L1.52501 6.57355V6.58574L0.648438 6.47222V6.87755L1.53072 6.76441V6.77622L0.964628 7.50345L1.30406 7.71793L1.69187 6.87755H1.70368L2.06139 7.71184L2.43701 7.49736L1.86482 6.78231V6.77012L2.76463 6.87755V6.47222L1.86482 6.59146V6.57965Z" fill="#4C7DA7"/>
<path d="M23.2699 13.077L22.9438 13.4957L23.1396 13.6195L23.3629 13.1353H23.3693L23.5754 13.6161L23.7918 13.4923L23.4623 13.0804V13.0736L23.9804 13.1353V12.9018L23.4623 12.9704V12.9639L23.7884 12.5345L23.5827 12.418L23.3731 12.8983H23.3663L23.1533 12.4214L22.9438 12.5414L23.2665 12.9604V12.9673L22.7617 12.9018V13.1353L23.2699 13.0702V13.077Z" fill="#4C7DA7"/>
<path d="M62.2086 3.03714V2.63943L61.326 2.75638V2.74495L61.8814 2.01391L61.5305 1.81543L61.174 2.63372H61.1621L60.7999 1.82114L60.4429 2.02572L60.9926 2.73924V2.75067L60.1328 2.63943V3.03714L60.9983 2.92629V2.93772L60.4429 3.65086L60.7762 3.86153L61.1564 3.03714H61.1679L61.5187 3.85581L61.8871 3.64514L61.326 2.94343V2.932L62.2086 3.03714Z" fill="#4C7DA7"/>
<path d="M45.2399 1.46461L45.7191 0.834514L45.4163 0.663086L45.1088 1.36899H45.0986L44.7862 0.668038L44.478 0.844419L44.9523 1.45966V1.46994L44.2109 1.37394V1.7168L44.9572 1.62118V1.63109L44.478 2.24632L44.7656 2.42804L45.0936 1.7168H45.1035L45.4064 2.42309L45.7241 2.24137L45.2399 1.63604V1.62613L46.001 1.7168V1.37394L45.2399 1.4749V1.46461Z" fill="#4C7DA7"/>
<path d="M0.761905 58.0033C1.18269 58.0033 1.52381 57.6622 1.52381 57.2414C1.52381 56.8206 1.18269 56.4795 0.761905 56.4795C0.341116 56.4795 0 56.8206 0 57.2414C0 57.6622 0.341116 58.0033 0.761905 58.0033Z" fill="#2D4356"/>
<path d="M4.18992 56.4795H3.04706C2.84499 56.4795 2.6512 56.5598 2.50831 56.7026C2.36543 56.8455 2.28516 57.0393 2.28516 57.2414C2.28516 57.4435 2.36543 57.6373 2.50831 57.7801C2.6512 57.923 2.84499 58.0033 3.04706 58.0033H4.18992C4.39199 58.0033 4.58578 57.923 4.72867 57.7801C4.87155 57.6373 4.95182 57.4435 4.95182 57.2414C4.95182 57.0393 4.87155 56.8455 4.72867 56.7026C4.58578 56.5598 4.39199 56.4795 4.18992 56.4795Z" fill="#2D4356"/>
<path d="M60.9516 56.4795H59.8088C59.6067 56.4795 59.4129 56.5598 59.27 56.7026C59.1271 56.8455 59.0469 57.0393 59.0469 57.2414C59.0469 57.4435 59.1271 57.6373 59.27 57.7801C59.4129 57.923 59.6067 58.0033 59.8088 58.0033H60.9516C61.1537 58.0033 61.3475 57.923 61.4904 57.7801C61.6333 57.6373 61.7135 57.4435 61.7135 57.2414C61.7135 57.0393 61.6333 56.8455 61.4904 56.7026C61.3475 56.5598 61.1537 56.4795 60.9516 56.4795Z" fill="#2D4356"/>
<path d="M63.2385 58.0033C63.6593 58.0033 64.0004 57.6622 64.0004 57.2414C64.0004 56.8206 63.6593 56.4795 63.2385 56.4795C62.8177 56.4795 62.4766 56.8206 62.4766 57.2414C62.4766 57.6622 62.8177 58.0033 63.2385 58.0033Z" fill="#2D4356"/>
<path d="M45.0088 59.5273H41.8439C41.6524 59.5427 41.4737 59.6296 41.3433 59.7708C41.213 59.912 41.1406 60.0971 41.1406 60.2892C41.1406 60.4814 41.213 60.6665 41.3433 60.8077C41.4737 60.9489 41.6524 61.0358 41.8439 61.0512H45.0088C45.2003 61.0358 45.379 60.9489 45.5094 60.8077C45.6397 60.6665 45.7121 60.4814 45.7121 60.2892C45.7121 60.0971 45.6397 59.912 45.5094 59.7708C45.379 59.6296 45.2003 59.5427 45.0088 59.5273Z" fill="#4C7DA7"/>
<path d="M22.1533 59.5273H18.9885C18.7969 59.5427 18.6182 59.6296 18.4879 59.7708C18.3575 59.912 18.2852 60.0971 18.2852 60.2892C18.2852 60.4814 18.3575 60.6665 18.4879 60.8077C18.6182 60.9489 18.7969 61.0358 18.9885 61.0512H22.1533C22.3448 61.0358 22.5236 60.9489 22.6539 60.8077C22.7842 60.6665 22.8566 60.4814 22.8566 60.2892C22.8566 60.0971 22.7842 59.912 22.6539 59.7708C22.5236 59.6296 22.3448 59.5427 22.1533 59.5273Z" fill="#4C7DA7"/>
<path d="M39.6172 59.5273H24.3791C24.177 59.5273 23.9832 59.6076 23.8403 59.7505C23.6975 59.8934 23.6172 60.0872 23.6172 60.2892C23.6172 60.4913 23.6975 60.6851 23.8403 60.828C23.9832 60.9709 24.177 61.0512 24.3791 61.0512H30.4515V61.8131H27.4267C27.2246 61.8131 27.0308 61.8933 26.888 62.0362C26.7451 62.1791 26.6648 62.3729 26.6648 62.575C26.6648 62.777 26.7451 62.9708 26.888 63.1137C27.0308 63.2566 27.2246 63.3369 27.4267 63.3369H36.9505C37.1526 63.3369 37.3464 63.2566 37.4893 63.1137C37.6322 62.9708 37.7124 62.777 37.7124 62.575C37.7124 62.3729 37.6322 62.1791 37.4893 62.0362C37.3464 61.8933 37.1526 61.8131 36.9505 61.8131H33.5448V61.0512H39.6172C39.8193 61.0512 40.0131 60.9709 40.1559 60.828C40.2988 60.6851 40.3791 60.4913 40.3791 60.2892C40.3791 60.0872 40.2988 59.8934 40.1559 59.7505C40.0131 59.6076 39.8193 59.5273 39.6172 59.5273Z" fill="#4C7DA7"/>
<path d="M57.4181 56.4796H52.3728C52.6827 56.0174 52.8752 55.4865 52.9337 54.9331C52.9921 54.3797 52.9148 53.8203 52.7084 53.3035C52.502 52.7866 52.1727 52.3279 51.7491 51.967C51.3254 51.6062 50.8202 51.354 50.2771 51.2324C50.2817 51.2039 50.2846 51.1751 50.2858 51.1463V49.6225H53.7146C53.9166 49.6225 54.1104 49.5422 54.2533 49.3993C54.3962 49.2565 54.4765 49.0627 54.4765 48.8606C54.4765 48.6585 54.3962 48.4647 54.2533 48.3218C54.1104 48.179 53.9166 48.0987 53.7146 48.0987H29.9681C29.8462 48.1007 29.7264 48.0665 29.624 48.0004C29.5216 47.9342 29.4412 47.8392 29.3929 47.7272C29.3447 47.6238 29.3253 47.5093 29.3366 47.3958C29.348 47.2823 29.3897 47.1739 29.4574 47.0821L34.217 43.2091L52.7524 40.7241C53.2059 40.6599 53.627 40.4525 53.9543 40.1321C54.2816 39.8117 54.4978 39.395 54.5716 38.943L56.352 28.2328C56.4171 27.8352 56.3697 27.4273 56.2151 27.0552C55.767 27.8426 55.2379 28.5812 54.6365 29.2588L53.0681 38.693C53.0473 38.8244 52.9851 38.9458 52.8907 39.0395C52.7963 39.1333 52.6745 39.1946 52.543 39.2146L28.8432 42.392C28.705 42.4196 28.5616 42.4038 28.4327 42.3468C28.3038 42.2898 28.1957 42.1944 28.1231 42.0736L20.6335 25.3122L33.1663 26.0331C32.9338 25.5264 32.7344 25.0051 32.5696 24.4725L19.9346 23.7457L18.5993 20.7415C18.5369 20.6011 18.4334 20.4828 18.3025 20.4023L16.8742 19.5234L17.3682 18.658C17.4453 18.5181 17.4934 18.3641 17.5096 18.2052C17.5258 18.0464 17.5097 17.8858 17.4624 17.7333C17.4151 17.5807 17.3375 17.4393 17.2342 17.3174C17.131 17.1956 17.0042 17.0958 16.8615 17.0241L10.9384 14.1115C10.6912 13.9657 10.4174 13.8707 10.1331 13.8321C9.8487 13.7935 9.55949 13.8121 9.28241 13.8868C8.99094 13.9652 8.71854 14.1022 8.48192 14.2896C8.24531 14.477 8.04947 14.7107 7.90641 14.9765C7.62278 15.4964 7.5454 16.1041 7.68967 16.6785C7.83394 17.253 8.18928 17.752 8.68492 18.0762C8.68492 18.0762 13.9395 21.9562 13.9445 21.9599C14.0805 22.0581 14.2355 22.1269 14.3996 22.1619C14.5637 22.1969 14.7333 22.1973 14.8976 22.1632C15.0618 22.129 15.2172 22.061 15.3537 21.9634C15.4902 21.8659 15.6049 21.741 15.6905 21.5966L16.1183 20.8474L17.3026 21.5762C17.3026 21.5762 18.7312 24.7904 18.7331 24.7947L20.2546 28.2177C20.2617 28.2337 20.2738 28.2453 20.2818 28.2606C20.2818 28.2606 26.7282 42.6872 26.7319 42.6954C26.9455 43.1125 27.2838 43.4528 27.6996 43.6689C28.1155 43.885 28.5883 43.9663 29.0525 43.9015L31.3266 43.5966L28.4355 45.9493C27.755 46.503 27.6639 47.6086 28.0065 48.3597C28.1757 48.7378 28.4512 49.0585 28.7995 49.2827C29.1478 49.507 29.5539 49.625 29.9681 49.6225H32.3801V51.2347C31.8381 51.3575 31.3341 51.6105 30.9117 51.9716C30.4894 52.3328 30.1613 52.7914 29.9558 53.3078C29.7504 53.8241 29.6737 54.3828 29.7325 54.9354C29.7912 55.488 29.9836 56.018 30.2931 56.4796H6.58278C6.47439 56.4655 6.36422 56.4746 6.25964 56.5064C6.15506 56.5382 6.05846 56.592 5.97631 56.6641C5.89416 56.7362 5.82835 56.825 5.78326 56.9246C5.73817 57.0242 5.71484 57.1322 5.71484 57.2415C5.71484 57.3509 5.73817 57.4589 5.78326 57.5585C5.82835 57.6581 5.89416 57.7469 5.97631 57.819C6.05846 57.8911 6.15506 57.9449 6.25964 57.9767C6.36422 58.0085 6.47439 58.0176 6.58278 58.0034H57.4181C57.5265 58.0176 57.6366 58.0085 57.7412 57.9767C57.8458 57.9449 57.9424 57.8911 58.0245 57.819C58.1067 57.7469 58.1725 57.6581 58.2176 57.5585C58.2627 57.4589 58.286 57.3509 58.286 57.2415C58.286 57.1322 58.2627 57.0242 58.2176 56.9246C58.1725 56.825 58.1067 56.7362 58.0245 56.6641C57.9424 56.592 57.8458 56.5382 57.7412 56.5064C57.6366 56.4746 57.5265 56.4655 57.4181 56.4796ZM14.5532 20.5152L9.56517 16.8319C9.54676 16.8184 9.5276 16.8055 9.50788 16.7934C9.33608 16.6788 9.21349 16.5039 9.16432 16.3033C9.11514 16.1026 9.14294 15.8909 9.24223 15.7097C9.28694 15.6248 9.34853 15.5498 9.42322 15.4894C9.49791 15.4291 9.58413 15.3846 9.67661 15.3587C9.7303 15.3443 9.78564 15.337 9.84123 15.337C9.96074 15.3373 10.0778 15.3707 10.1796 15.4333C10.1988 15.4448 10.2185 15.4556 10.2386 15.4657L15.8585 18.2291L14.5532 20.5152ZM51.4287 54.5749C51.4287 54.9516 51.317 55.3199 51.1077 55.6332C50.8984 55.9465 50.6009 56.1906 50.2529 56.3348C49.9048 56.479 49.5218 56.5167 49.1523 56.4433C48.7828 56.3698 48.4433 56.1884 48.1769 55.922C47.9105 55.6556 47.7291 55.3161 47.6556 54.9466C47.5821 54.5771 47.6198 54.1941 47.764 53.846C47.9081 53.498 48.1523 53.2005 48.4656 52.9911C48.7788 52.7818 49.1471 52.6701 49.5239 52.6701C50.0289 52.6707 50.513 52.8716 50.8701 53.2286C51.2272 53.5857 51.4281 54.0699 51.4287 54.5749ZM33.904 49.6225H48.7619V51.1463C48.7631 51.1751 48.766 51.2039 48.7706 51.2324C48.2275 51.354 47.7223 51.6062 47.2986 51.967C46.875 52.3279 46.5457 52.7866 46.3393 53.3035C46.1329 53.8203 46.0556 54.3797 46.1141 54.9331C46.1725 55.4865 46.365 56.0174 46.6749 56.4796H35.9909C36.3004 56.018 36.4928 55.488 36.5516 54.9354C36.6103 54.3828 36.5337 53.8241 36.3282 53.3078C36.1227 52.7914 35.7946 52.3328 35.3723 51.9716C34.9499 51.6105 34.446 51.3575 33.9039 51.2347L33.904 49.6225ZM31.2371 54.5749C31.2371 54.1981 31.3488 53.8298 31.5581 53.5166C31.7674 53.2033 32.0649 52.9591 32.413 52.8149C32.761 52.6707 33.144 52.633 33.5135 52.7065C33.8831 52.78 34.2225 52.9614 34.4889 53.2278C34.7553 53.4942 34.9367 53.8336 35.0102 54.2031C35.0837 54.5726 35.046 54.9556 34.9019 55.3037C34.7577 55.6518 34.5135 55.9493 34.2003 56.1586C33.887 56.3679 33.5188 56.4796 33.142 56.4796C32.637 56.4791 32.1528 56.2782 31.7957 55.9211C31.4386 55.564 31.2377 55.0799 31.2371 54.5749Z" fill="#2D4356"/>
</g>
<defs>
<clipPath id="clip0_2_6332">
<rect width="64" height="64" fill="white"/>
</clipPath>
</defs>
</svg>
