<svg width="64" height="64" viewBox="0 0 64 64" fill="none" xmlns="http://www.w3.org/2000/svg">
    <g clip-path="url(#clip0_715_31665)">
        <path
            d="M44.9526 32.0988C47.213 32.0987 49.4225 31.4283 51.3018 30.1725C53.1812 28.9166 54.6459 27.1317 55.5108 25.0434C56.3757 22.9551 56.602 20.6572 56.1609 18.4403C55.7199 16.2234 54.6313 14.1871 53.033 12.5888C51.4347 10.9906 49.3983 9.90218 47.1814 9.46126C44.9645 9.02033 42.6666 9.24669 40.5783 10.1117C38.4901 10.9767 36.7052 12.4416 35.4495 14.321C34.1937 16.2004 33.5234 18.4099 33.5234 20.6703C33.527 23.7003 34.7322 26.6053 36.8749 28.7478C39.0175 30.8904 41.9226 32.0955 44.9526 32.0988ZM44.9526 10.7655C46.9116 10.7656 48.8265 11.3466 50.4553 12.435C52.084 13.5235 53.3535 15.0704 54.103 16.8803C54.8526 18.6901 55.0487 20.6816 54.6665 22.6029C54.2842 24.5242 53.3408 26.289 51.9556 27.6742C50.5704 29.0593 48.8055 30.0026 46.8842 30.3848C44.9629 30.7669 42.9714 30.5707 41.1616 29.821C39.3517 29.0713 37.8049 27.8018 36.7165 26.173C35.6282 24.5442 35.0473 22.6292 35.0473 20.6703C35.0504 18.0442 36.095 15.5266 37.9519 13.6697C39.8089 11.8129 42.3266 10.7684 44.9526 10.7655Z"
            fill="#2D4356" />
        <path
            d="M42.3012 23.3204V26.0202C42.3012 26.7231 42.5804 27.3972 43.0775 27.8942C43.5745 28.3912 44.2486 28.6704 44.9515 28.6704C45.6544 28.6704 46.3285 28.3912 46.8255 27.8942C47.3225 27.3972 47.6017 26.7231 47.6017 26.0202V23.3204H50.3017C51.0045 23.3204 51.6786 23.0412 52.1756 22.5442C52.6726 22.0472 52.9518 21.3732 52.9518 20.6703C52.9518 19.9675 52.6726 19.2934 52.1756 18.7964C51.6786 18.2994 51.0045 18.0202 50.3017 18.0202H47.6017V15.3204C47.6017 14.6175 47.3225 13.9434 46.8255 13.4464C46.3285 12.9494 45.6544 12.6702 44.9515 12.6702C44.2486 12.6702 43.5745 12.9494 43.0775 13.4464C42.5804 13.9434 42.3012 14.6175 42.3012 15.3204V18.0202H39.6013C38.8984 18.0202 38.2244 18.2994 37.7274 18.7964C37.2304 19.2934 36.9512 19.9675 36.9512 20.6703C36.9512 21.3732 37.2304 22.0472 37.7274 22.5442C38.2244 23.0412 38.8984 23.3204 39.6013 23.3204H42.3012ZM38.4749 20.6703C38.4752 20.3717 38.594 20.0854 38.8052 19.8742C39.0164 19.6631 39.3027 19.5443 39.6013 19.544H43.0631C43.2652 19.544 43.459 19.4637 43.6019 19.3208C43.7448 19.178 43.8251 18.9842 43.8251 18.7821V15.3204C43.8256 15.022 43.9446 14.7361 44.1557 14.5253C44.3669 14.3145 44.6531 14.1961 44.9515 14.1961C45.2498 14.1961 45.536 14.3145 45.7472 14.5253C45.9584 14.7361 46.0773 15.022 46.0778 15.3204V18.7821C46.0779 18.9842 46.1581 19.178 46.301 19.3208C46.4439 19.4637 46.6377 19.544 46.8398 19.544H50.3017C50.6004 19.544 50.8869 19.6627 51.0981 19.8739C51.3093 20.0851 51.428 20.3716 51.428 20.6703C51.428 20.969 51.3093 21.2555 51.0981 21.4667C50.8869 21.6779 50.6004 21.7966 50.3017 21.7966H46.8398C46.6377 21.7966 46.4439 21.8769 46.301 22.0198C46.1581 22.1627 46.0779 22.3564 46.0778 22.5585V26.0202C46.0773 26.3186 45.9584 26.6045 45.7472 26.8153C45.536 27.0261 45.2498 27.1445 44.9515 27.1445C44.6531 27.1445 44.3669 27.0261 44.1557 26.8153C43.9446 26.6045 43.8256 26.3186 43.8251 26.0202V22.5585C43.8251 22.3564 43.7448 22.1626 43.6019 22.0198C43.459 21.8769 43.2652 21.7966 43.0631 21.7966H39.6013C39.3027 21.7963 39.0164 21.6775 38.8052 21.4664C38.594 21.2552 38.4752 20.9689 38.4749 20.6703Z"
            fill="#0BCEB2" />
        <path
            d="M30.9729 5.81318C31.199 5.81318 31.4199 5.74615 31.6079 5.62057C31.7958 5.495 31.9423 5.31651 32.0288 5.10768C32.1153 4.89885 32.1379 4.66906 32.0938 4.44736C32.0497 4.22567 31.9409 4.02203 31.7811 3.8622C31.6212 3.70237 31.4176 3.59352 31.1959 3.54943C30.9742 3.50533 30.7444 3.52796 30.5356 3.61446C30.3268 3.70096 30.1483 3.84744 30.0227 4.03539C29.8971 4.22333 29.8301 4.44429 29.8301 4.67032C29.8304 4.97332 29.9509 5.26381 30.1652 5.47806C30.3794 5.69231 30.6699 5.81283 30.9729 5.81318ZM30.9729 4.0989C31.086 4.0989 31.1964 4.13241 31.2904 4.1952C31.3844 4.25799 31.4576 4.34723 31.5009 4.45165C31.5441 4.55606 31.5554 4.67096 31.5334 4.7818C31.5113 4.89265 31.4569 4.99447 31.377 5.07438C31.2971 5.1543 31.1953 5.20872 31.0844 5.23077C30.9736 5.25282 30.8587 5.2415 30.7543 5.19825C30.6498 5.155 30.5606 5.08176 30.4978 4.98779C30.435 4.89382 30.4015 4.78334 30.4015 4.67032C30.4017 4.51882 30.4619 4.37356 30.569 4.26643C30.6762 4.1593 30.8214 4.09904 30.9729 4.0989Z"
            fill="#2D4356" />
        <path
            d="M62.2111 19.9084C62.0604 19.9084 61.9131 19.9531 61.7878 20.0369C61.6625 20.1206 61.5649 20.2396 61.5072 20.3788C61.4495 20.518 61.4345 20.6712 61.4639 20.819C61.4933 20.9668 61.5658 21.1025 61.6724 21.2091C61.7789 21.3157 61.9147 21.3882 62.0625 21.4176C62.2103 21.447 62.3635 21.4319 62.5027 21.3743C62.6419 21.3166 62.7609 21.2189 62.8446 21.0936C62.9283 20.9683 62.973 20.821 62.973 20.6704C62.9728 20.4684 62.8925 20.2747 62.7496 20.1319C62.6068 19.989 62.4131 19.9087 62.2111 19.9084ZM62.2111 21.0513C62.1358 21.0513 62.0621 21.029 61.9995 20.9871C61.9368 20.9452 61.888 20.8857 61.8592 20.8161C61.8303 20.7465 61.8228 20.6699 61.8375 20.596C61.8522 20.5221 61.8885 20.4543 61.9418 20.401C61.995 20.3477 62.0629 20.3114 62.1368 20.2967C62.2107 20.282 62.2873 20.2896 62.3569 20.3184C62.4265 20.3472 62.486 20.3961 62.5279 20.4587C62.5697 20.5214 62.5921 20.595 62.5921 20.6704C62.592 20.7714 62.5518 20.8682 62.4804 20.9396C62.409 21.011 62.3121 21.0512 62.2111 21.0513Z"
            fill="#2D4356" />
        <path
            d="M11.926 1.62268C11.7753 1.62268 11.628 1.66737 11.5027 1.75108C11.3774 1.8348 11.2797 1.9538 11.2221 2.09302C11.1644 2.23224 11.1493 2.38543 11.1787 2.53323C11.2081 2.68102 11.2807 2.81678 11.3872 2.92333C11.4938 3.02989 11.6295 3.10245 11.7773 3.13185C11.9251 3.16125 12.0783 3.14616 12.2175 3.08849C12.3568 3.03083 12.4757 2.93317 12.5595 2.80788C12.6432 2.68258 12.6879 2.53528 12.6879 2.38459C12.6876 2.18259 12.6073 1.98893 12.4645 1.84609C12.3216 1.70326 12.128 1.62291 11.926 1.62268ZM11.926 2.76554C11.8506 2.76554 11.777 2.7432 11.7143 2.70134C11.6517 2.65948 11.6028 2.59998 11.574 2.53037C11.5452 2.46076 11.5376 2.38416 11.5523 2.31027C11.567 2.23637 11.6033 2.16849 11.6566 2.11521C11.7099 2.06193 11.7777 2.02565 11.8516 2.01095C11.9255 1.99625 12.0021 2.0038 12.0718 2.03263C12.1414 2.06146 12.2009 2.11029 12.2427 2.17294C12.2846 2.23559 12.3069 2.30924 12.3069 2.38459C12.3068 2.48559 12.2667 2.58243 12.1952 2.65385C12.1238 2.72527 12.027 2.76544 11.926 2.76554Z"
            fill="#2D4356" />
        <path
            d="M57.2599 10.7655C57.1093 10.7655 56.962 10.8102 56.8367 10.8939C56.7114 10.9776 56.6137 11.0966 56.556 11.2358C56.4984 11.3751 56.4833 11.5283 56.5127 11.676C56.5421 11.8238 56.6147 11.9596 56.7212 12.0662C56.8278 12.1727 56.9635 12.2453 57.1113 12.2747C57.2591 12.3041 57.4123 12.289 57.5515 12.2313C57.6907 12.1736 57.8097 12.076 57.8935 11.9507C57.9772 11.8254 58.0219 11.6781 58.0219 11.5274C58.0216 11.3254 57.9413 11.1317 57.7984 10.9889C57.6556 10.8461 57.4619 10.7657 57.2599 10.7655ZM57.2599 11.9084C57.1846 11.9084 57.111 11.886 57.0483 11.8442C56.9857 11.8023 56.9368 11.7428 56.908 11.6732C56.8792 11.6036 56.8716 11.527 56.8863 11.4531C56.901 11.3792 56.9373 11.3113 56.9906 11.258C57.0439 11.2048 57.1117 11.1685 57.1856 11.1538C57.2595 11.1391 57.3361 11.1466 57.4057 11.1755C57.4753 11.2043 57.5348 11.2531 57.5767 11.3158C57.6186 11.3784 57.6409 11.4521 57.6409 11.5274C57.6408 11.6284 57.6006 11.7252 57.5292 11.7967C57.4578 11.8681 57.361 11.9083 57.2599 11.9084Z"
            fill="#2D4356" />
        <path
            d="M4.30701 21.4322C4.30701 21.2815 4.26233 21.1342 4.17861 21.0089C4.09489 20.8836 3.9759 20.786 3.83668 20.7283C3.69746 20.6706 3.54426 20.6555 3.39647 20.6849C3.24867 20.7143 3.11291 20.7869 3.00636 20.8934C2.89981 21 2.82724 21.1358 2.79784 21.2836C2.76844 21.4313 2.78353 21.5845 2.8412 21.7238C2.89887 21.863 2.99652 21.982 3.12182 22.0657C3.24711 22.1494 3.39442 22.1941 3.54511 22.1941C3.74711 22.1939 3.94077 22.1135 4.0836 21.9707C4.22644 21.8279 4.30678 21.6342 4.30701 21.4322ZM3.16416 21.4322C3.16416 21.3568 3.1865 21.2832 3.22836 21.2205C3.27022 21.1579 3.32971 21.1091 3.39932 21.0802C3.46893 21.0514 3.54553 21.0439 3.61943 21.0586C3.69333 21.0733 3.76121 21.1095 3.81448 21.1628C3.86776 21.2161 3.90404 21.284 3.91874 21.3579C3.93344 21.4318 3.9259 21.5084 3.89706 21.578C3.86823 21.6476 3.8194 21.7071 3.75675 21.7489C3.69411 21.7908 3.62045 21.8131 3.54511 21.8131C3.4441 21.813 3.34727 21.7729 3.27585 21.7015C3.20442 21.63 3.16426 21.5332 3.16416 21.4322Z"
            fill="#2D4356" />
        <path
            d="M1.86287 6.5794L2.42934 5.83426L2.07163 5.63159L1.70782 6.46588H1.69601L1.32648 5.63769L0.962675 5.84607L1.52306 6.57331V6.5855L0.646484 6.47197V6.87731L1.52877 6.76416V6.77597L0.962675 7.50321L1.3021 7.71769L1.68991 6.87731H1.70172L2.05944 7.71159L2.43506 7.49712L1.86287 6.78207V6.76988L2.76267 6.87731V6.47197L1.86287 6.59121V6.5794Z"
            fill="#0BCEB2" />
        <path
            d="M23.2699 13.0765L22.9438 13.4952L23.1396 13.619L23.3629 13.1348H23.3693L23.5754 13.6156L23.7918 13.4918L23.4623 13.08V13.0731L23.9804 13.1348V12.9013L23.4623 12.9699V12.9634L23.7884 12.5341L23.5827 12.4175L23.3731 12.8979H23.3663L23.1533 12.4209L22.9438 12.5409L23.2665 12.96V12.9668L22.7617 12.9013V13.1348L23.2699 13.0697V13.0765Z"
            fill="#0BCEB2" />
        <path
            d="M62.2106 3.03739V2.63967L61.3279 2.75663V2.7452L61.8833 2.01415L61.5325 1.81567L61.1759 2.63396H61.1641L60.8018 1.82139L60.4449 2.02596L60.9946 2.73948V2.75091L60.1348 2.63967V3.03739L61.0003 2.92653V2.93796L60.4449 3.6511L60.7782 3.86177L61.1584 3.03739H61.1698L61.5207 3.85605L61.889 3.64539L61.3279 2.94367V2.93225L62.2106 3.03739Z"
            fill="#0BCEB2" />
        <path
            d="M45.2379 1.46473L45.7172 0.834637L45.4143 0.663208L45.1069 1.36911H45.0966L44.7842 0.66816L44.476 0.844541L44.9503 1.45978V1.47007L44.209 1.37407V1.71692L44.9553 1.6213V1.63121L44.476 2.24645L44.7637 2.42816L45.0917 1.71692H45.1016L45.4044 2.42321L45.7221 2.24149L45.2379 1.63616V1.62626L45.9991 1.71692V1.37407L45.2379 1.47502V1.46473Z"
            fill="#0BCEB2" />
        <path
            d="M0.761905 58.0034C1.18269 58.0034 1.52381 57.6623 1.52381 57.2415C1.52381 56.8207 1.18269 56.4796 0.761905 56.4796C0.341116 56.4796 0 56.8207 0 57.2415C0 57.6623 0.341116 58.0034 0.761905 58.0034Z"
            fill="#2D4356" />
        <path
            d="M4.18992 56.4797H3.04706C2.84499 56.4797 2.6512 56.56 2.50831 56.7029C2.36543 56.8458 2.28516 57.0396 2.28516 57.2416C2.28516 57.4437 2.36543 57.6375 2.50831 57.7804C2.6512 57.9233 2.84499 58.0035 3.04706 58.0035H4.18992C4.39199 58.0035 4.58578 57.9233 4.72867 57.7804C4.87155 57.6375 4.95182 57.4437 4.95182 57.2416C4.95182 57.0396 4.87155 56.8458 4.72867 56.7029C4.58578 56.56 4.39199 56.4797 4.18992 56.4797Z"
            fill="#2D4356" />
        <path
            d="M60.9516 56.4797H59.8088C59.6067 56.4797 59.4129 56.56 59.27 56.7029C59.1271 56.8458 59.0469 57.0396 59.0469 57.2416C59.0469 57.4437 59.1271 57.6375 59.27 57.7804C59.4129 57.9233 59.6067 58.0035 59.8088 58.0035H60.9516C61.1537 58.0035 61.3475 57.9233 61.4904 57.7804C61.6333 57.6375 61.7135 57.4437 61.7135 57.2416C61.7135 57.0396 61.6333 56.8458 61.4904 56.7029C61.3475 56.56 61.1537 56.4797 60.9516 56.4797Z"
            fill="#2D4356" />
        <path
            d="M63.2385 58.0034C63.6593 58.0034 64.0004 57.6623 64.0004 57.2415C64.0004 56.8207 63.6593 56.4796 63.2385 56.4796C62.8177 56.4796 62.4766 56.8207 62.4766 57.2415C62.4766 57.6623 62.8177 58.0034 63.2385 58.0034Z"
            fill="#2D4356" />
        <path
            d="M45.0107 59.5273H41.8459C41.6543 59.5427 41.4756 59.6296 41.3453 59.7708C41.215 59.912 41.1426 60.0971 41.1426 60.2892C41.1426 60.4814 41.215 60.6665 41.3453 60.8077C41.4756 60.9489 41.6543 61.0358 41.8459 61.0512H45.0107C45.2023 61.0358 45.381 60.9489 45.5113 60.8077C45.6417 60.6665 45.714 60.4814 45.714 60.2892C45.714 60.0971 45.6417 59.912 45.5113 59.7708C45.381 59.6296 45.2023 59.5427 45.0107 59.5273Z"
            fill="#0BCEB2" />
        <path
            d="M22.1533 59.5273H18.9885C18.7969 59.5427 18.6182 59.6296 18.4879 59.7708C18.3575 59.912 18.2852 60.0971 18.2852 60.2892C18.2852 60.4814 18.3575 60.6665 18.4879 60.8077C18.6182 60.9489 18.7969 61.0358 18.9885 61.0512H22.1533C22.3448 61.0358 22.5236 60.9489 22.6539 60.8077C22.7842 60.6665 22.8566 60.4814 22.8566 60.2892C22.8566 60.0971 22.7842 59.912 22.6539 59.7708C22.5236 59.6296 22.3448 59.5427 22.1533 59.5273Z"
            fill="#0BCEB2" />
        <path
            d="M39.6191 59.5274H24.381C24.179 59.5274 23.9852 59.6077 23.8423 59.7506C23.6994 59.8934 23.6191 60.0872 23.6191 60.2893C23.6191 60.4914 23.6994 60.6852 23.8423 60.8281C23.9852 60.9709 24.179 61.0512 24.381 61.0512H30.4534V61.8131H27.4287C27.2266 61.8131 27.0328 61.8934 26.8899 62.0363C26.747 62.1792 26.6668 62.373 26.6668 62.575C26.6668 62.7771 26.747 62.9709 26.8899 63.1138C27.0328 63.2567 27.2266 63.3369 27.4287 63.3369H36.9525C37.1545 63.3369 37.3483 63.2567 37.4912 63.1138C37.6341 62.9709 37.7144 62.7771 37.7144 62.575C37.7144 62.373 37.6341 62.1792 37.4912 62.0363C37.3483 61.8934 37.1545 61.8131 36.9525 61.8131H33.5468V61.0512H39.6191C39.8212 61.0512 40.015 60.9709 40.1579 60.8281C40.3008 60.6852 40.381 60.4914 40.381 60.2893C40.381 60.0872 40.3008 59.8934 40.1579 59.7506C40.015 59.6077 39.8212 59.5274 39.6191 59.5274Z"
            fill="#0BCEB2" />
        <path
            d="M57.4181 56.4798H52.3728C52.6827 56.0175 52.8752 55.4867 52.9337 54.9332C52.9921 54.3798 52.9148 53.8204 52.7084 53.3036C52.502 52.7868 52.1727 52.3281 51.7491 51.9672C51.3254 51.6063 50.8202 51.3541 50.2771 51.2325C50.2817 51.204 50.2846 51.1753 50.2858 51.1464V49.6226H53.7146C53.9166 49.6226 54.1104 49.5423 54.2533 49.3995C54.3962 49.2566 54.4765 49.0628 54.4765 48.8607C54.4765 48.6586 54.3962 48.4649 54.2533 48.322C54.1104 48.1791 53.9166 48.0988 53.7146 48.0988H29.9681C29.8462 48.1008 29.7264 48.0666 29.624 48.0005C29.5216 47.9343 29.4412 47.8393 29.3929 47.7273C29.3447 47.6239 29.3253 47.5095 29.3366 47.3959C29.348 47.2824 29.3897 47.1741 29.4574 47.0823L34.217 43.2092L52.7524 40.7242C53.2059 40.66 53.627 40.4526 53.9543 40.1322C54.2816 39.8118 54.4978 39.3951 54.5716 38.9431L56.352 28.2329C56.4171 27.8353 56.3697 27.4274 56.2151 27.0553C55.767 27.8428 55.2379 28.5813 54.6365 29.2589L53.0681 38.6931C53.0473 38.8245 52.9851 38.9459 52.8907 39.0397C52.7963 39.1334 52.6745 39.1947 52.543 39.2147L28.8432 42.3922C28.705 42.4198 28.5616 42.404 28.4327 42.347C28.3038 42.29 28.1957 42.1945 28.1231 42.0737L20.6335 25.3124L33.1663 26.0332C32.9338 25.5265 32.7344 25.0052 32.5696 24.4726L19.9346 23.7459L18.5993 20.7417C18.5369 20.6012 18.4334 20.4829 18.3025 20.4024L16.8742 19.5235L17.3682 18.6581C17.4453 18.5183 17.4934 18.3643 17.5096 18.2054C17.5258 18.0465 17.5097 17.886 17.4624 17.7334C17.4151 17.5809 17.3375 17.4394 17.2342 17.3176C17.131 17.1957 17.0042 17.0959 16.8615 17.0242L10.9384 14.1116C10.6912 13.9658 10.4174 13.8708 10.1331 13.8322C9.8487 13.7936 9.55949 13.8122 9.28241 13.8869C8.99094 13.9653 8.71854 14.1023 8.48192 14.2897C8.24531 14.4771 8.04947 14.7108 7.90641 14.9766C7.62278 15.4965 7.5454 16.1042 7.68967 16.6787C7.83394 17.2531 8.18928 17.7521 8.68492 18.0763C8.68492 18.0763 13.9395 21.9564 13.9445 21.96C14.0805 22.0583 14.2355 22.1271 14.3996 22.162C14.5637 22.197 14.7333 22.1975 14.8976 22.1633C15.0618 22.1291 15.2172 22.0611 15.3537 21.9635C15.4902 21.866 15.6049 21.7411 15.6905 21.5968L16.1183 20.8475L17.3026 21.5763C17.3026 21.5763 18.7312 24.7905 18.7331 24.7948L20.2546 28.2178C20.2617 28.2338 20.2738 28.2455 20.2818 28.2607C20.2818 28.2607 26.7282 42.6873 26.7319 42.6955C26.9455 43.1127 27.2838 43.4529 27.6996 43.669C28.1155 43.8852 28.5883 43.9665 29.0525 43.9016L31.3266 43.5967L28.4355 45.9494C27.755 46.5031 27.6639 47.6088 28.0065 48.3598C28.1757 48.7379 28.4512 49.0586 28.7995 49.2829C29.1478 49.5071 29.5539 49.6252 29.9681 49.6226H32.3801V51.2348C31.8381 51.3577 31.3341 51.6106 30.9117 51.9718C30.4894 52.3329 30.1613 52.7915 29.9558 53.3079C29.7504 53.8243 29.6737 54.3829 29.7325 54.9355C29.7912 55.4881 29.9836 56.0181 30.2931 56.4798H6.58278C6.47439 56.4656 6.36422 56.4747 6.25964 56.5065C6.15506 56.5383 6.05846 56.5921 5.97631 56.6642C5.89416 56.7363 5.82835 56.8251 5.78326 56.9247C5.73817 57.0243 5.71484 57.1324 5.71484 57.2417C5.71484 57.351 5.73817 57.459 5.78326 57.5586C5.82835 57.6582 5.89416 57.747 5.97631 57.8191C6.05846 57.8912 6.15506 57.945 6.25964 57.9768C6.36422 58.0086 6.47439 58.0177 6.58278 58.0036H57.4181C57.5265 58.0177 57.6366 58.0086 57.7412 57.9768C57.8458 57.945 57.9424 57.8912 58.0245 57.8191C58.1067 57.747 58.1725 57.6582 58.2176 57.5586C58.2627 57.459 58.286 57.351 58.286 57.2417C58.286 57.1324 58.2627 57.0243 58.2176 56.9247C58.1725 56.8251 58.1067 56.7363 58.0245 56.6642C57.9424 56.5921 57.8458 56.5383 57.7412 56.5065C57.6366 56.4747 57.5265 56.4656 57.4181 56.4798ZM14.5532 20.5153L9.56517 16.8321C9.54676 16.8185 9.5276 16.8057 9.50788 16.7936C9.33608 16.6789 9.21349 16.504 9.16432 16.3034C9.11514 16.1028 9.14294 15.891 9.24223 15.7099C9.28694 15.6249 9.34853 15.5499 9.42322 15.4896C9.49791 15.4292 9.58413 15.3847 9.67661 15.3588C9.7303 15.3444 9.78564 15.3371 9.84123 15.3371C9.96074 15.3374 10.0778 15.3708 10.1796 15.4334C10.1988 15.445 10.2185 15.4558 10.2386 15.4658L15.8585 18.2292L14.5532 20.5153ZM51.4287 54.575C51.4287 54.9518 51.317 55.32 51.1077 55.6333C50.8984 55.9466 50.6009 56.1908 50.2529 56.3349C49.9048 56.4791 49.5218 56.5169 49.1523 56.4434C48.7828 56.3699 48.4433 56.1885 48.1769 55.9221C47.9105 55.6557 47.7291 55.3163 47.6556 54.9468C47.5821 54.5772 47.6198 54.1942 47.764 53.8462C47.9081 53.4981 48.1523 53.2006 48.4656 52.9913C48.7788 52.782 49.1471 52.6702 49.5239 52.6702C50.0289 52.6708 50.513 52.8717 50.8701 53.2288C51.2272 53.5858 51.4281 54.07 51.4287 54.575ZM33.904 49.6226H48.7619V51.1464C48.7631 51.1753 48.766 51.204 48.7706 51.2325C48.2275 51.3541 47.7223 51.6063 47.2986 51.9672C46.875 52.3281 46.5457 52.7868 46.3393 53.3036C46.1329 53.8204 46.0556 54.3798 46.1141 54.9332C46.1725 55.4867 46.365 56.0175 46.6749 56.4798H35.9909C36.3004 56.0181 36.4928 55.4881 36.5516 54.9355C36.6103 54.3829 36.5337 53.8243 36.3282 53.3079C36.1227 52.7915 35.7946 52.3329 35.3723 51.9718C34.9499 51.6106 34.446 51.3577 33.9039 51.2348L33.904 49.6226ZM31.2371 54.575C31.2371 54.1982 31.3488 53.83 31.5581 53.5167C31.7674 53.2034 32.0649 52.9593 32.413 52.8151C32.761 52.6709 33.144 52.6331 33.5135 52.7066C33.8831 52.7801 34.2225 52.9615 34.4889 53.2279C34.7553 53.4943 34.9367 53.8337 35.0102 54.2032C35.0837 54.5727 35.046 54.9557 34.9019 55.3038C34.7577 55.6519 34.5135 55.9494 34.2003 56.1587C33.887 56.368 33.5188 56.4798 33.142 56.4798C32.637 56.4792 32.1528 56.2783 31.7957 55.9212C31.4386 55.5642 31.2377 55.08 31.2371 54.575Z"
            fill="#2D4356" />
    </g>
    <defs>
        <clipPath id="clip0_715_31665">
            <rect width="64" height="64" fill="white" />
        </clipPath>
    </defs>
</svg>
    