<svg width="35" height="35" viewBox="0 0 35 35" fill="none" xmlns="http://www.w3.org/2000/svg">
    <circle cx="17.5" cy="17.5" r="17.5" fill="white" />
    <path d="M18 23V16H17V23H18Z" fill="black" />
    <path
        d="M17.5 14C18.0523 14 18.5 13.5523 18.5 13C18.5 12.4477 18.0523 12 17.5 12C16.9477 12 16.5 12.4477 16.5 13C16.5 13.5523 16.9477 14 17.5 14Z"
        fill="black" />
    <path fill-rule="evenodd" clip-rule="evenodd"
        d="M17.5 28C23.299 28 28 23.299 28 17.5C28 11.701 23.299 7 17.5 7C11.701 7 7 11.701 7 17.5C7 23.299 11.701 28 17.5 28ZM17.5 27C22.7467 27 27 22.7467 27 17.5C27 12.2533 22.7467 8 17.5 8C12.2533 8 8 12.2533 8 17.5C8 22.7467 12.2533 27 17.5 27Z"
        fill="black" />
</svg>
    