<svg width="252" height="204" viewBox="0 0 252 204" fill="none" xmlns="http://www.w3.org/2000/svg">
<path d="M9.07054 68.9851L0.113856 39.5307L14.7579 35.0776C16.0059 34.6981 17.213 34.4826 18.379 34.431C19.5365 34.3517 20.6102 34.4948 21.6001 34.8604C22.5899 35.226 23.4585 35.8406 24.2059 36.7041C24.981 37.5591 25.5963 38.7355 26.0517 40.2332C26.3722 41.2871 26.4346 42.3892 26.239 43.5395C26.0627 44.6536 25.629 45.6187 24.9379 46.4348C26.2714 46.6353 27.4855 47.1903 28.5802 48.0997C29.6664 48.9814 30.4793 50.3097 31.0191 52.0848C31.5842 53.943 31.7194 55.5835 31.4249 57.0062C31.1303 58.429 30.5199 59.6599 29.5936 60.6991C28.6673 61.7382 27.5114 62.62 26.1258 63.3443C24.7679 64.0602 23.2985 64.6585 21.7176 65.1393L9.07054 68.9851ZM14.4879 59.7477L20.4786 57.926C21.1443 57.7236 21.6959 57.4953 22.1337 57.2409C22.563 56.9589 22.8965 56.6605 23.1341 56.3459C23.3717 56.0312 23.5135 55.7003 23.5594 55.353C23.5969 54.978 23.5566 54.5964 23.4385 54.2081C23.312 53.7921 23.1372 53.4665 22.9142 53.2313C22.6828 52.9684 22.385 52.7863 22.0208 52.6849C21.676 52.5474 21.2691 52.5044 20.8 52.5562C20.3503 52.5717 19.8342 52.6681 19.2517 52.8452L12.9698 54.7555L14.4879 59.7477ZM11.1228 48.6815L16.4063 47.0749C16.9887 46.8978 17.4711 46.6905 17.8534 46.453C18.2272 46.1879 18.5052 45.9064 18.6874 45.6086C18.8695 45.3108 18.9739 45.0064 19.0005 44.6953C19.0548 44.3758 19.0314 44.0496 18.9302 43.7168C18.7784 43.2176 18.5451 42.8492 18.2305 42.6115C17.9436 42.3655 17.5572 42.2406 17.0712 42.2369C16.6046 42.197 16.0385 42.2782 15.3728 42.4806L9.75653 44.1885L11.1228 48.6815Z" fill="white" fill-opacity="0.06"/>
<path d="M51.2901 56.5103C48.2948 57.4211 45.4841 57.5941 42.858 57.0291C40.232 56.4642 37.9534 55.2482 36.0222 53.3812C34.1103 51.4781 32.6989 49.0288 31.788 46.0334C30.8519 42.9549 30.6801 40.0983 31.2728 37.4639C31.857 34.8017 33.0965 32.5007 34.9913 30.5611C36.886 28.6215 39.331 27.1962 42.3264 26.2854C45.294 25.3829 48.0867 25.2003 50.7043 25.7375C53.3219 26.2747 55.6102 27.4726 57.5691 29.3312C59.5196 31.162 60.9587 33.6028 61.8864 36.6537C62.7973 39.649 62.9648 42.4917 62.389 45.1816C61.8325 47.8354 60.6015 50.1641 58.6959 52.1676C56.8095 54.135 54.341 55.5825 51.2901 56.5103ZM49.2933 49.3457C51.0683 48.8059 52.3744 47.9694 53.2115 46.8362C54.0401 45.6752 54.5046 44.4129 54.605 43.0492C54.7332 41.677 54.6159 40.3947 54.2533 39.2021C53.9834 38.3146 53.5706 37.4553 53.0149 36.6244C52.4786 35.7574 51.7969 35.0102 50.9699 34.383C50.1706 33.7474 49.2236 33.3233 48.1288 33.1108C47.034 32.8984 45.7932 33.003 44.4065 33.4247C42.6592 33.956 41.367 34.7883 40.5299 35.9215C39.6844 37.027 39.1976 38.2658 39.0694 39.6379C38.9413 41.0101 39.0754 42.3479 39.4718 43.6515C39.8682 44.955 40.5015 46.141 41.3719 47.2096C42.2699 48.2696 43.3778 49.0235 44.6956 49.4712C46.0412 49.9104 47.5737 49.8686 49.2933 49.3457Z" fill="white" fill-opacity="0.06"/>
<path d="M70.378 50.3423L61.4213 20.8879L86.7987 13.171L95.7554 42.6254L88.2254 44.9152L81.3687 22.3667L71.0513 25.5041L77.908 48.0525L70.378 50.3423Z" fill="white" fill-opacity="0.06"/>
<path d="M101.336 40.9284L92.3792 11.474L104.735 7.71677C107.037 7.01676 109.163 6.73391 111.113 6.86822C113.054 6.97479 114.756 7.63898 116.218 8.86078C117.672 10.0548 118.799 11.9693 119.601 14.6041C120.334 17.017 120.419 19.188 119.854 21.1171C119.281 23.0185 118.211 24.6316 116.644 25.9564C115.078 27.2811 113.157 28.2893 110.883 28.9809L106.348 30.3598L108.866 38.6387L101.336 40.9284ZM104.312 23.6618L108.846 22.2829C110.289 21.8444 111.306 21.1561 111.9 20.2181C112.493 19.2802 112.596 18.1733 112.208 16.8975C111.854 15.7327 111.228 14.9686 110.329 14.6055C109.459 14.2339 108.192 14.3011 106.528 14.8072L102.035 16.1734L104.312 23.6618Z" fill="white" fill-opacity="0.06"/>
<path d="M142.986 28.6269C139.99 29.5377 137.18 29.7107 134.554 29.1457C131.928 28.5808 129.649 27.3649 127.718 25.4978C125.806 23.5947 124.395 21.1454 123.484 18.15C122.548 15.0715 122.376 12.215 122.968 9.58048C123.553 6.91827 124.792 4.61734 126.687 2.6777C128.582 0.738064 131.027 -0.68718 134.022 -1.59803C136.99 -2.50044 139.782 -2.68305 142.4 -2.14586C145.018 -1.60866 147.306 -0.410782 149.265 1.44779C151.215 3.27862 152.654 5.71946 153.582 8.77029C154.493 11.7657 154.66 14.6083 154.085 17.2983C153.528 19.952 152.297 22.2807 150.391 24.2842C148.505 26.2516 146.037 27.6992 142.986 28.6269ZM140.989 21.4623C142.764 20.9225 144.07 20.086 144.907 18.9528C145.736 17.7918 146.2 16.5295 146.301 15.1658C146.429 13.7936 146.312 12.5113 145.949 11.3187C145.679 10.4312 145.266 9.57195 144.711 8.74103C144.174 7.87396 143.493 7.12681 142.666 6.49961C141.866 5.86398 140.919 5.43992 139.824 5.22745C138.73 5.01496 137.489 5.11957 136.102 5.54126C134.355 6.07259 133.063 6.90487 132.226 8.0381C131.38 9.14359 130.893 10.3824 130.765 11.7546C130.637 13.1267 130.771 14.4645 131.167 15.7681C131.564 17.0716 132.197 18.2576 133.067 19.3262C133.966 20.3863 135.073 21.1401 136.391 21.5878C137.737 22.027 139.269 21.9852 140.989 21.4623Z" fill="white" fill-opacity="0.06"/>
<path d="M175.196 18.8321C172.145 19.7598 169.343 19.9605 166.79 19.4342C164.227 18.8801 162.027 17.6708 160.187 15.8062C158.339 13.9139 156.951 11.4423 156.023 8.3915C155.07 5.25747 154.844 2.37199 155.345 -0.264918C155.866 -2.938 157.022 -5.21362 158.814 -7.09179C160.626 -9.00613 162.988 -10.4061 165.9 -11.2916C168.202 -11.9916 170.422 -12.2124 172.561 -11.9538C174.728 -11.7037 176.661 -10.9279 178.359 -9.62648C180.058 -8.32504 181.406 -6.43225 182.404 -3.94811L175.29 -1.78485C174.552 -3.01491 173.616 -3.85135 172.482 -4.29414C171.339 -4.76466 169.949 -4.75113 168.313 -4.25353C166.565 -3.7222 165.297 -2.91223 164.507 -1.8236C163.717 -0.734977 163.281 0.47311 163.2 1.80064C163.147 3.11975 163.314 4.4172 163.702 5.69301C164.09 6.96881 164.695 8.16328 165.519 9.27641C166.37 10.3811 167.435 11.1934 168.714 11.7134C170.012 12.1973 171.535 12.1735 173.283 11.6422C174.337 11.3217 175.205 10.8908 175.889 10.3496C176.565 9.78065 177.059 9.11518 177.373 8.35321C177.706 7.55507 177.834 6.68271 177.759 5.73617L185.039 3.52229C185.632 6.06903 185.547 8.38229 184.786 10.4621C184.016 12.5141 182.773 14.2556 181.057 15.6864C179.369 17.1088 177.415 18.1574 175.196 18.8321Z" fill="white" fill-opacity="0.06"/>
<path d="M192.3 13.2674L183.344 -16.187L190.874 -18.4768L193.948 -8.36742L197.733 -9.51863C199.065 -9.92345 200.429 -10.1715 201.825 -10.2628C203.24 -10.3903 204.595 -10.2718 205.887 -9.90735C207.207 -9.55133 208.372 -8.86015 209.381 -7.83379C210.409 -6.8436 211.202 -5.43325 211.758 -3.60275C212.357 -1.63358 212.48 0.116636 212.128 1.64789C211.795 3.14297 211.118 4.45468 210.098 5.58304C209.105 6.70297 207.91 7.65706 206.514 8.4453C205.109 9.20581 203.658 9.81377 202.16 10.2692L192.3 13.2674ZM197.718 4.03005L200.422 3.20776C201.143 2.98848 201.782 2.74868 202.339 2.48837C202.916 2.19189 203.392 1.86523 203.768 1.50841C204.136 1.12386 204.376 0.71757 204.488 0.28955C204.62 -0.17464 204.597 -0.69795 204.42 -1.28038C204.234 -1.89055 203.962 -2.33796 203.603 -2.62261C203.244 -2.90726 202.813 -3.07918 202.31 -3.13838C201.835 -3.20602 201.311 -3.18324 200.74 -3.07004C200.16 -2.98456 199.565 -2.84904 198.955 -2.6635L195.959 -1.75266L197.718 4.03005ZM218.26 5.37339L209.303 -24.081L216.833 -26.3708L225.79 3.08361L218.26 5.37339Z" fill="white" fill-opacity="0.06"/>
<path d="M232.832 -10.1472C232.736 -10.3606 232.641 -10.5741 232.546 -10.7875C232.451 -11.001 232.369 -11.2186 232.302 -11.4405C232.074 -12.1894 231.978 -12.9026 232.015 -13.5802C232.051 -14.2579 232.178 -14.8873 232.395 -15.4684C232.632 -16.0857 232.899 -16.6517 233.197 -17.1665C233.514 -17.7175 233.83 -18.2226 234.145 -18.682C234.526 -19.2221 234.856 -19.7314 235.135 -20.21C235.441 -20.6971 235.66 -21.1727 235.791 -21.6369C235.923 -22.1011 235.925 -22.5412 235.799 -22.9572C235.689 -23.3178 235.495 -23.6072 235.217 -23.8255C234.938 -24.0438 234.58 -24.1772 234.141 -24.2255C233.702 -24.2739 233.177 -24.2052 232.567 -24.0197C231.791 -23.7836 231.204 -23.469 230.809 -23.076C230.441 -22.6914 230.223 -22.2616 230.156 -21.7866C230.088 -21.3115 230.13 -20.8244 230.282 -20.3252L223.168 -18.1619C222.594 -20.0479 222.395 -21.6992 222.57 -23.116C222.773 -24.5411 223.251 -25.7619 224.002 -26.7781C224.753 -27.7944 225.693 -28.6407 226.82 -29.3168C227.976 -30.0014 229.219 -30.5462 230.55 -30.951C232.242 -31.4654 233.935 -31.6772 235.629 -31.5864C237.323 -31.4956 238.837 -31.0014 240.17 -30.104C241.504 -29.2066 242.47 -27.7733 243.069 -25.8041C243.398 -24.7225 243.476 -23.7163 243.305 -22.7854C243.161 -21.863 242.852 -20.9359 242.378 -20.0039C241.932 -19.0804 241.387 -18.0816 240.744 -17.0074C240.543 -16.6734 240.34 -16.2936 240.136 -15.8681C239.924 -15.4702 239.752 -15.0392 239.62 -14.575C239.481 -14.1385 239.431 -13.6538 239.472 -13.1209C239.478 -13.0015 239.492 -12.8544 239.515 -12.6795C239.557 -12.5409 239.604 -12.3883 239.654 -12.2219L232.832 -10.1472ZM239.527 -0.684477C238.417 -0.347123 237.295 -0.399844 236.161 -0.842633C235.026 -1.28542 234.227 -2.26953 233.763 -3.79494C233.308 -5.29263 233.437 -6.51344 234.149 -7.45739C234.854 -8.42908 235.761 -9.0836 236.87 -9.42096C238.007 -9.76674 239.125 -9.72788 240.223 -9.30439C241.313 -8.90864 242.086 -7.96193 242.541 -6.46424C243.005 -4.93883 242.903 -3.68062 242.235 -2.68963C241.567 -1.69864 240.664 -1.03026 239.527 -0.684477Z" fill="white" fill-opacity="0.06"/>
<path d="M21.9321 111.281L12.9754 81.8263L27.6194 77.3733C28.8675 76.9938 30.0745 76.7782 31.2405 76.7266C32.398 76.6473 33.4718 76.7905 34.4616 77.1561C35.4515 77.5216 36.3201 78.1362 37.0675 78.9997C37.8426 79.8548 38.4578 81.0312 38.9133 82.5289C39.2337 83.5828 39.2962 84.6849 39.1006 85.8351C38.9242 86.9492 38.4905 87.9143 37.7994 88.7305C39.133 88.931 40.3471 89.4859 41.4417 90.3953C42.5279 91.277 43.3409 92.6054 43.8806 94.3804C44.4457 96.2386 44.5809 97.8791 44.2864 99.3019C43.9918 100.725 43.3814 101.956 42.4551 102.995C41.5289 104.034 40.3729 104.916 38.9873 105.64C37.6294 106.356 36.16 106.954 34.5792 107.435L21.9321 111.281ZM27.3494 102.043L33.3401 100.222C34.0058 100.019 34.5575 99.7909 34.9952 99.5366C35.4246 99.2545 35.758 98.9562 35.9956 98.6415C36.2333 98.3269 36.375 97.9959 36.4209 97.6487C36.4584 97.2737 36.4181 96.8921 36.3 96.5038C36.1735 96.0877 35.9987 95.7621 35.7757 95.527C35.5443 95.264 35.2465 95.0819 34.8824 94.9805C34.5376 94.843 34.1306 94.8001 33.6616 94.8518C33.2118 94.8674 32.6957 94.9637 32.1133 95.1408L25.8313 97.0511L27.3494 102.043ZM23.9843 90.9772L29.2678 89.3705C29.8503 89.1934 30.3326 88.9861 30.7149 88.7487C31.0888 88.4835 31.3668 88.202 31.5489 87.9042C31.731 87.6065 31.8354 87.302 31.862 86.9909C31.9164 86.6714 31.8929 86.3453 31.7917 86.0124C31.6399 85.5132 31.4067 85.1448 31.092 84.9072C30.8051 84.6611 30.4187 84.5362 29.9328 84.5325C29.4661 84.4926 28.9 84.5739 28.2344 84.7763L22.6181 86.4841L23.9843 90.9772Z" fill="white" fill-opacity="0.06"/>
<path d="M64.1517 98.8059C61.1563 99.7168 58.3456 99.8897 55.7196 99.3248C53.0935 98.7599 50.8149 97.5439 48.8837 95.6769C46.9718 93.7737 45.5604 91.3244 44.6496 88.3291C43.7134 85.2505 43.5417 82.394 44.1343 79.7595C44.7186 77.0973 45.9581 74.7964 47.8528 72.8567C49.7475 70.9171 52.1926 69.4919 55.1879 68.581C58.1556 67.6786 60.9482 67.496 63.5658 68.0332C66.1834 68.5704 68.4717 69.7683 70.4306 71.6268C72.3811 73.4577 73.8202 75.8985 74.748 78.9493C75.6588 81.9447 75.8263 84.7873 75.2505 87.4773C74.694 90.1311 73.463 92.4597 71.5574 94.4633C69.6711 96.4306 67.2025 97.8782 64.1517 98.8059ZM62.1548 91.6413C63.9298 91.1016 65.2359 90.2651 66.073 89.1318C66.9016 87.9709 67.3661 86.7085 67.4666 85.3448C67.5947 83.9727 67.4774 82.6903 67.1148 81.4977C66.8449 80.6102 66.4321 79.751 65.8765 78.9201C65.3401 78.053 64.6584 77.3058 63.8314 76.6786C63.0321 76.043 62.0851 75.619 60.9903 75.4065C59.8955 75.194 58.6547 75.2986 57.268 75.7203C55.5207 76.2516 54.2285 77.0839 53.3914 78.2171C52.5459 79.3226 52.0591 80.5614 51.931 81.9336C51.8028 83.3057 51.9369 84.6436 52.3333 85.9471C52.7297 87.2506 53.3631 88.4367 54.2334 89.5052C55.1314 90.5653 56.2394 91.3192 57.5572 91.7668C58.9027 92.206 60.4353 92.1642 62.1548 91.6413Z" fill="white" fill-opacity="0.06"/>
<path d="M83.2395 92.638L74.2828 63.1836L99.6602 55.4666L108.617 84.921L101.087 87.2108L94.2302 64.6624L83.9129 67.7998L90.7695 90.3482L83.2395 92.638Z" fill="white" fill-opacity="0.06"/>
<path d="M114.197 83.2241L105.241 53.7697L117.597 50.0124C119.899 49.3124 122.024 49.0296 123.974 49.1639C125.915 49.2704 127.617 49.9346 129.08 51.1564C130.533 52.3505 131.661 54.2649 132.462 56.8997C133.196 59.3127 133.28 61.4837 132.716 63.4128C132.142 65.3142 131.073 66.9272 129.506 68.252C127.939 69.5768 126.019 70.5849 123.745 71.2765L119.21 72.6554L121.727 80.9343L114.197 83.2241ZM117.173 65.9575L121.708 64.5786C123.15 64.14 124.168 63.4517 124.761 62.5138C125.355 61.5758 125.458 60.469 125.07 59.1932C124.715 58.0283 124.089 57.2643 123.191 56.9011C122.321 56.5295 121.053 56.5968 119.389 57.1028L114.896 58.4691L117.173 65.9575Z" fill="white" fill-opacity="0.06"/>
<path d="M155.847 70.9225C152.852 71.8334 150.041 72.0063 147.415 71.4414C144.789 70.8765 142.511 69.6605 140.579 67.7935C138.667 65.8903 137.256 63.4411 136.345 60.4457C135.409 57.3671 135.237 54.5106 135.83 51.8761C136.414 49.2139 137.654 46.913 139.548 44.9733C141.443 43.0337 143.888 41.6085 146.884 40.6976C149.851 39.7952 152.644 39.6126 155.261 40.1498C157.879 40.687 160.167 41.8849 162.126 43.7434C164.077 45.5743 165.516 48.0151 166.444 51.0659C167.354 54.0613 167.522 56.904 166.946 59.5939C166.39 62.2477 165.159 64.5763 163.253 66.5799C161.367 68.5472 158.898 69.9948 155.847 70.9225ZM153.85 63.7579C155.625 63.2182 156.932 62.3817 157.769 61.2484C158.597 60.0875 159.062 58.8251 159.162 57.4614C159.29 56.0893 159.173 54.8069 158.81 53.6143C158.541 52.7268 158.128 51.8676 157.572 51.0367C157.036 50.1696 156.354 49.4225 155.527 48.7953C154.728 48.1596 153.781 47.7356 152.686 47.5231C151.591 47.3106 150.35 47.4152 148.964 47.8369C147.216 48.3682 145.924 49.2005 145.087 50.3337C144.242 51.4392 143.755 52.6781 143.627 54.0502C143.498 55.4223 143.633 56.7602 144.029 58.0637C144.425 59.3672 145.059 60.5533 145.929 61.6218C146.827 62.6819 147.935 63.4358 149.253 63.8834C150.598 64.3226 152.131 64.2808 153.85 63.7579Z" fill="white" fill-opacity="0.06"/>
<path d="M188.058 61.1277C185.007 62.0554 182.205 62.2561 179.651 61.7298C177.089 61.1757 174.888 59.9664 173.048 58.1019C171.2 56.2095 169.813 53.738 168.885 50.6871C167.932 47.5531 167.706 44.6676 168.207 42.0307C168.727 39.3576 169.884 37.082 171.676 35.2039C173.487 33.2895 175.849 31.8896 178.761 31.004C181.063 30.304 183.284 30.0833 185.423 30.3418C187.589 30.592 189.522 31.3677 191.221 32.6692C192.919 33.9706 194.268 35.8634 195.265 38.3475L188.151 40.5108C187.414 39.2807 186.478 38.4443 185.343 38.0015C184.2 37.531 182.811 37.5445 181.174 38.0421C179.427 38.5734 178.158 39.3834 177.368 40.472C176.578 41.5607 176.143 42.7688 176.061 44.0963C176.008 45.4154 176.175 46.7128 176.563 47.9887C176.951 49.2645 177.557 50.4589 178.38 51.572C179.231 52.6767 180.296 53.4891 181.576 54.0091C182.874 54.4929 184.397 54.4692 186.144 53.9378C187.198 53.6173 188.067 53.1865 188.751 52.6453C189.426 52.0763 189.921 51.4108 190.234 50.6488C190.567 49.8507 190.696 48.9784 190.62 48.0318L197.901 45.8179C198.493 48.3647 198.409 50.6779 197.648 52.7577C196.878 54.8098 195.635 56.5512 193.919 57.982C192.23 59.4045 190.277 60.453 188.058 61.1277Z" fill="white" fill-opacity="0.06"/>
<path d="M205.162 55.5631L196.205 26.1086L203.735 23.8189L206.809 33.9282L210.595 32.777C211.926 32.3722 213.29 32.1241 214.686 32.0328C216.102 31.9054 217.456 32.0238 218.749 32.3883C220.069 32.7443 221.233 33.4355 222.242 34.4618C223.271 35.452 224.063 36.8624 224.62 38.6929C225.219 40.6621 225.342 42.4123 224.989 43.9435C224.656 45.4386 223.979 46.7503 222.959 47.8787C221.966 48.9986 220.772 49.9527 219.375 50.7409C217.971 51.5014 216.519 52.1094 215.022 52.5648L205.162 55.5631ZM210.579 46.3257L213.283 45.5034C214.004 45.2841 214.644 45.0443 215.201 44.784C215.777 44.4875 216.253 44.1609 216.63 43.8041C216.998 43.4195 217.238 43.0132 217.35 42.5852C217.481 42.121 217.459 41.5977 217.281 41.0153C217.096 40.4051 216.824 39.9577 216.464 39.673C216.105 39.3884 215.674 39.2165 215.171 39.1573C214.696 39.0896 214.173 39.1124 213.601 39.2256C213.021 39.3111 212.426 39.4466 211.816 39.6321L208.821 40.543L210.579 46.3257ZM231.122 47.669L222.165 18.2146L229.695 15.9248L238.652 45.3793L231.122 47.669Z" fill="white" fill-opacity="0.06"/>
<path d="M245.693 32.1484C245.598 31.935 245.503 31.7216 245.407 31.5081C245.312 31.2947 245.231 31.077 245.163 30.8551C244.936 30.1063 244.84 29.3931 244.876 28.7154C244.913 28.0378 245.039 27.4084 245.257 26.8273C245.493 26.21 245.76 25.6439 246.058 25.1291C246.376 24.5782 246.692 24.073 247.006 23.6137C247.388 23.0736 247.717 22.5642 247.996 22.0856C248.302 21.5985 248.521 21.1229 248.653 20.6587C248.784 20.1945 248.787 19.7544 248.661 19.3384C248.551 18.9778 248.357 18.6884 248.078 18.4701C247.8 18.2518 247.441 18.1185 247.002 18.0701C246.563 18.0218 246.039 18.0904 245.429 18.2759C244.652 18.5121 244.066 18.8267 243.67 19.2196C243.303 19.6042 243.085 20.034 243.017 20.5091C242.95 20.9841 242.992 21.4713 243.143 21.9705L236.029 24.1338C235.456 22.2478 235.257 20.5964 235.432 19.1797C235.635 17.7545 236.112 16.5338 236.864 15.5175C237.615 14.5012 238.554 13.655 239.682 12.9788C240.837 12.2942 242.081 11.7495 243.412 11.3447C245.104 10.8302 246.797 10.6184 248.491 10.7092C250.185 10.8001 251.699 11.2942 253.032 12.1916C254.365 13.089 255.331 14.5223 255.93 16.4915C256.259 17.5732 256.338 18.5794 256.166 19.5102C256.023 20.4326 255.714 21.3598 255.24 22.2917C254.793 23.2152 254.249 24.2141 253.606 25.2883C253.404 25.6222 253.202 26.002 252.998 26.4276C252.785 26.8255 252.614 27.2565 252.482 27.7207C252.342 28.1571 252.292 28.6418 252.333 29.1748C252.339 29.2942 252.354 29.4413 252.377 29.6161C252.419 29.7548 252.465 29.9073 252.516 30.0737L245.693 32.1484ZM252.388 41.6112C251.279 41.9485 250.157 41.8958 249.022 41.453C247.888 41.0102 247.089 40.0261 246.625 38.5007C246.169 37.003 246.298 35.7822 247.011 34.8382C247.715 33.8666 248.622 33.212 249.732 32.8747C250.869 32.5289 251.986 32.5678 253.085 32.9912C254.175 33.387 254.947 34.3337 255.403 35.8314C255.867 37.3568 255.765 38.615 255.096 39.606C254.428 40.597 253.525 41.2654 252.388 41.6112Z" fill="white" fill-opacity="0.06"/>
<path d="M47.6551 195.872L38.6984 166.418L53.3424 161.965C54.5905 161.585 55.7975 161.37 56.9635 161.318C58.1211 161.239 59.1948 161.382 60.1847 161.747C61.1745 162.113 62.0431 162.727 62.7905 163.591C63.5656 164.446 64.1809 165.622 64.6363 167.12C64.9568 168.174 65.0192 169.276 64.8236 170.426C64.6473 171.541 64.2136 172.506 63.5225 173.322C64.856 173.522 66.0701 174.077 67.1648 174.987C68.2509 175.868 69.0639 177.197 69.6037 178.972C70.1687 180.83 70.304 182.47 70.0095 183.893C69.7149 185.316 69.1045 186.547 68.1782 187.586C67.2519 188.625 66.096 189.507 64.7104 190.231C63.3525 190.947 61.8831 191.545 60.3022 192.026L47.6551 195.872ZM53.0725 186.635L59.0632 184.813C59.7288 184.611 60.2805 184.382 60.7183 184.128C61.1476 183.846 61.4811 183.547 61.7187 183.233C61.9563 182.918 62.0981 182.587 62.144 182.24C62.1814 181.865 62.1411 181.483 62.0231 181.095C61.8966 180.679 61.7218 180.353 61.4988 180.118C61.2673 179.855 60.9696 179.673 60.6054 179.572C60.2606 179.434 59.8537 179.391 59.3846 179.443C58.9349 179.459 58.4188 179.555 57.8363 179.732L51.5544 181.642L53.0725 186.635ZM49.7074 175.568L54.9909 173.962C55.5733 173.785 56.0557 173.577 56.438 173.34C56.8118 173.075 57.0898 172.793 57.272 172.496C57.4541 172.198 57.5585 171.893 57.5851 171.582C57.6394 171.263 57.616 170.937 57.5148 170.604C57.363 170.105 57.1297 169.736 56.8151 169.498C56.5282 169.252 56.1417 169.128 55.6558 169.124C55.1892 169.084 54.6231 169.165 53.9574 169.368L48.3411 171.075L49.7074 175.568Z" fill="white" fill-opacity="0.06"/>
<path d="M89.8747 183.397C86.8794 184.308 84.0687 184.481 81.4426 183.916C78.8166 183.351 76.538 182.135 74.6068 180.268C72.6949 178.365 71.2835 175.916 70.3726 172.92C69.4365 169.842 69.2647 166.985 69.8574 164.351C70.4416 161.689 71.6811 159.388 73.5758 157.448C75.4706 155.508 77.9156 154.083 80.911 153.172C83.8786 152.27 86.6712 152.087 89.2889 152.624C91.9065 153.162 94.1947 154.36 96.1537 156.218C98.1042 158.049 99.5433 160.49 100.471 163.541C101.382 166.536 101.549 169.379 100.974 172.069C100.417 174.722 99.1861 177.051 97.2804 179.055C95.3941 181.022 92.9256 182.469 89.8747 183.397ZM87.8779 176.233C89.6529 175.693 90.959 174.856 91.796 173.723C92.6247 172.562 93.0892 171.3 93.1896 169.936C93.3178 168.564 93.2005 167.282 92.8378 166.089C92.568 165.201 92.1552 164.342 91.5995 163.511C91.0632 162.644 90.3815 161.897 89.5545 161.27C88.7552 160.634 87.8082 160.21 86.7134 159.998C85.6186 159.785 84.3778 159.89 82.9911 160.312C81.2438 160.843 79.9516 161.675 79.1145 162.808C78.269 163.914 77.7822 165.153 77.654 166.525C77.5259 167.897 77.66 169.235 78.0564 170.538C78.4528 171.842 79.0861 173.028 79.9564 174.096C80.8545 175.157 81.9624 175.91 83.2802 176.358C84.6258 176.797 86.1583 176.755 87.8779 176.233Z" fill="white" fill-opacity="0.06"/>
<path d="M108.963 177.229L100.006 147.775L125.383 140.058L134.34 169.512L126.81 171.802L119.953 149.254L109.636 152.391L116.493 174.939L108.963 177.229Z" fill="white" fill-opacity="0.06"/>
<path d="M139.921 167.815L130.964 138.361L143.32 134.604C145.622 133.904 147.748 133.621 149.697 133.755C151.639 133.862 153.34 134.526 154.803 135.748C156.257 136.942 157.384 138.856 158.185 141.491C158.919 143.904 159.003 146.075 158.439 148.004C157.866 149.905 156.796 151.519 155.229 152.843C153.662 154.168 151.742 155.176 149.468 155.868L144.933 157.247L147.451 165.526L139.921 167.815ZM142.896 150.549L147.431 149.17C148.873 148.731 149.891 148.043 150.484 147.105C151.078 146.167 151.181 145.06 150.793 143.784C150.438 142.62 149.812 141.856 148.914 141.492C148.044 141.121 146.776 141.188 145.112 141.694L140.619 143.06L142.896 150.549Z" fill="white" fill-opacity="0.06"/>
<path d="M181.57 155.514C178.575 156.425 175.764 156.598 173.138 156.033C170.512 155.468 168.234 154.252 166.302 152.385C164.39 150.482 162.979 148.032 162.068 145.037C161.132 141.958 160.96 139.102 161.553 136.467C162.137 133.805 163.377 131.504 165.271 129.565C167.166 127.625 169.611 126.2 172.607 125.289C175.574 124.386 178.367 124.204 180.984 124.741C183.602 125.278 185.89 126.476 187.849 128.335C189.8 130.166 191.239 132.606 192.167 135.657C193.077 138.653 193.245 141.495 192.669 144.185C192.113 146.839 190.882 149.168 188.976 151.171C187.09 153.139 184.621 154.586 181.57 155.514ZM179.574 148.349C181.349 147.809 182.655 146.973 183.492 145.84C184.32 144.679 184.785 143.416 184.885 142.053C185.013 140.681 184.896 139.398 184.533 138.206C184.264 137.318 183.851 136.459 183.295 135.628C182.759 134.761 182.077 134.014 181.25 133.387C180.451 132.751 179.504 132.327 178.409 132.114C177.314 131.902 176.073 132.006 174.687 132.428C172.939 132.96 171.647 133.792 170.81 134.925C169.965 136.031 169.478 137.269 169.35 138.641C169.221 140.014 169.356 141.351 169.752 142.655C170.148 143.959 170.782 145.145 171.652 146.213C172.55 147.273 173.658 148.027 174.976 148.475C176.321 148.914 177.854 148.872 179.574 148.349Z" fill="white" fill-opacity="0.06"/>
<path d="M213.781 145.719C210.73 146.647 207.928 146.847 205.374 146.321C202.812 145.767 200.611 144.558 198.772 142.693C196.924 140.801 195.536 138.329 194.608 135.278C193.655 132.144 193.429 129.259 193.93 126.622C194.45 123.949 195.607 121.673 197.399 119.795C199.21 117.881 201.572 116.481 204.484 115.595C206.786 114.895 209.007 114.675 211.146 114.933C213.313 115.183 215.245 115.959 216.944 117.26C218.642 118.562 219.991 120.455 220.988 122.939L213.874 125.102C213.137 123.872 212.201 123.036 211.066 122.593C209.923 122.122 208.534 122.136 206.897 122.633C205.15 123.165 203.881 123.975 203.091 125.063C202.301 126.152 201.866 127.36 201.785 128.688C201.731 130.007 201.898 131.304 202.286 132.58C202.674 133.856 203.28 135.05 204.103 136.163C204.954 137.268 206.019 138.08 207.299 138.6C208.597 139.084 210.12 139.06 211.867 138.529C212.921 138.209 213.79 137.778 214.474 137.237C215.149 136.668 215.644 136.002 215.957 135.24C216.29 134.442 216.419 133.57 216.343 132.623L223.624 130.409C224.216 132.956 224.132 135.269 223.371 137.349C222.601 139.401 221.358 141.142 219.642 142.573C217.953 143.996 216 145.044 213.781 145.719Z" fill="white" fill-opacity="0.06"/>
<path d="M230.885 140.154L221.928 110.7L229.458 108.41L232.532 118.52L236.318 117.368C237.649 116.963 239.013 116.715 240.409 116.624C241.825 116.497 243.179 116.615 244.472 116.98C245.792 117.336 246.956 118.027 247.965 119.053C248.994 120.043 249.786 121.454 250.343 123.284C250.942 125.253 251.065 127.004 250.712 128.535C250.379 130.03 249.702 131.342 248.682 132.47C247.689 133.59 246.495 134.544 245.098 135.332C243.694 136.093 242.242 136.701 240.745 137.156L230.885 140.154ZM236.302 130.917L239.006 130.095C239.727 129.875 240.367 129.636 240.924 129.375C241.5 129.079 241.977 128.752 242.353 128.395C242.721 128.011 242.961 127.604 243.073 127.176C243.204 126.712 243.182 126.189 243.005 125.607C242.819 124.996 242.547 124.549 242.187 124.264C241.828 123.98 241.397 123.808 240.894 123.749C240.419 123.681 239.896 123.704 239.324 123.817C238.744 123.902 238.149 124.038 237.539 124.223L234.544 125.134L236.302 130.917ZM256.845 132.26L247.888 102.806L255.418 100.516L264.375 129.971L256.845 132.26Z" fill="white" fill-opacity="0.06"/>
<path d="M271.416 116.74C271.321 116.526 271.226 116.313 271.13 116.099C271.035 115.886 270.954 115.668 270.886 115.446C270.659 114.698 270.563 113.984 270.599 113.307C270.636 112.629 270.763 112 270.98 111.419C271.216 110.801 271.483 110.235 271.781 109.72C272.099 109.169 272.415 108.664 272.729 108.205C273.111 107.665 273.44 107.156 273.719 106.677C274.026 106.19 274.244 105.714 274.376 105.25C274.508 104.786 274.51 104.346 274.384 103.93C274.274 103.569 274.08 103.28 273.801 103.061C273.523 102.843 273.164 102.71 272.725 102.661C272.286 102.613 271.762 102.682 271.152 102.867C270.375 103.103 269.789 103.418 269.393 103.811C269.026 104.195 268.808 104.625 268.74 105.1C268.673 105.575 268.715 106.063 268.867 106.562L261.753 108.725C261.179 106.839 260.98 105.188 261.155 103.771C261.358 102.346 261.835 101.125 262.587 100.109C263.338 99.0925 264.278 98.2463 265.405 97.5701C266.56 96.8855 267.804 96.3408 269.135 95.936C270.827 95.4215 272.52 95.2097 274.214 95.3005C275.908 95.3913 277.422 95.8855 278.755 96.7829C280.088 97.6803 281.054 99.1136 281.653 101.083C281.982 102.164 282.061 103.171 281.889 104.101C281.746 105.024 281.437 105.951 280.963 106.883C280.516 107.807 279.972 108.805 279.329 109.88C279.127 110.214 278.925 110.593 278.721 111.019C278.509 111.417 278.337 111.848 278.205 112.312C278.065 112.748 278.016 113.233 278.056 113.766C278.062 113.885 278.077 114.033 278.1 114.207C278.142 114.346 278.188 114.499 278.239 114.665L271.416 116.74ZM278.111 126.202C277.002 126.54 275.88 126.487 274.745 126.044C273.611 125.602 272.812 124.617 272.348 123.092C271.892 121.594 272.021 120.373 272.734 119.43C273.438 118.458 274.345 117.803 275.455 117.466C276.592 117.12 277.71 117.159 278.808 117.583C279.898 117.978 280.671 118.925 281.126 120.423C281.59 121.948 281.488 123.206 280.819 124.197C280.151 125.188 279.248 125.857 278.111 126.202Z" fill="white" fill-opacity="0.06"/>
<path d="M34.7936 153.576L25.8369 124.122L40.4809 119.669C41.729 119.289 42.936 119.074 44.102 119.022C45.2596 118.943 46.3333 119.086 47.3231 119.452C48.313 119.817 49.1816 120.432 49.929 121.295C50.7041 122.15 51.3194 123.327 51.7748 124.825C52.0953 125.878 52.1577 126.981 51.9621 128.131C51.7858 129.245 51.3521 130.21 50.661 131.026C51.9945 131.227 53.2086 131.782 54.3032 132.691C55.3894 133.573 56.2024 134.901 56.7422 136.676C57.3072 138.534 57.4425 140.175 57.1479 141.598C56.8534 143.02 56.243 144.251 55.3167 145.29C54.3904 146.33 53.2344 147.211 51.8488 147.936C50.491 148.652 49.0216 149.25 47.4407 149.731L34.7936 153.576ZM40.2109 144.339L46.2017 142.517C46.8673 142.315 47.419 142.087 47.8568 141.832C48.2861 141.55 48.6196 141.252 48.8572 140.937C49.0948 140.623 49.2365 140.292 49.2824 139.944C49.3199 139.569 49.2796 139.188 49.1615 138.799C49.035 138.383 48.8603 138.058 48.6373 137.823C48.4058 137.56 48.108 137.378 47.7439 137.276C47.3991 137.139 46.9922 137.096 46.5231 137.147C46.0733 137.163 45.5572 137.259 44.9748 137.436L38.6929 139.347L40.2109 144.339ZM36.8459 133.273L42.1294 131.666C42.7118 131.489 43.1941 131.282 43.5764 131.044C43.9503 130.779 44.2283 130.498 44.4104 130.2C44.5926 129.902 44.6969 129.598 44.7235 129.287C44.7779 128.967 44.7544 128.641 44.6532 128.308C44.5014 127.809 44.2682 127.44 43.9536 127.203C43.6666 126.957 43.2802 126.832 42.7943 126.828C42.3277 126.788 41.7615 126.87 41.0959 127.072L35.4796 128.78L36.8459 133.273Z" fill="white" fill-opacity="0.06"/>
<path d="M77.0132 141.102C74.0178 142.012 71.2071 142.185 68.5811 141.62C65.9551 141.056 63.6764 139.84 61.7452 137.973C59.8333 136.069 58.4219 133.62 57.5111 130.625C56.5749 127.546 56.4032 124.69 56.9959 122.055C57.5801 119.393 58.8196 117.092 60.7143 115.152C62.6091 113.213 65.0541 111.787 68.0495 110.877C71.0171 109.974 73.8097 109.792 76.4273 110.329C79.0449 110.866 81.3332 112.064 83.2922 113.922C85.2427 115.753 86.6818 118.194 87.6095 121.245C88.5203 124.24 88.6879 127.083 88.1121 129.773C87.5556 132.427 86.3245 134.755 84.4189 136.759C82.5326 138.726 80.064 140.174 77.0132 141.102ZM75.0164 133.937C76.7914 133.397 78.0974 132.561 78.9345 131.427C79.7632 130.267 80.2277 129.004 80.3281 127.64C80.4562 126.268 80.339 124.986 79.9763 123.793C79.7064 122.906 79.2937 122.047 78.738 121.216C78.2016 120.349 77.52 119.602 76.6929 118.974C75.8937 118.339 74.9466 117.915 73.8518 117.702C72.757 117.49 71.5163 117.594 70.1295 118.016C68.3822 118.547 67.09 119.38 66.253 120.513C65.4075 121.618 64.9206 122.857 64.7925 124.229C64.6643 125.601 64.7985 126.939 65.1949 128.243C65.5912 129.546 66.2246 130.732 67.0949 131.801C67.993 132.861 69.1009 133.615 70.4187 134.062C71.7642 134.502 73.2968 134.46 75.0164 133.937Z" fill="white" fill-opacity="0.06"/>
<path d="M96.101 134.934L87.1444 105.479L112.522 97.7623L121.478 127.217L113.948 129.506L107.092 106.958L96.7744 110.095L103.631 132.644L96.101 134.934Z" fill="white" fill-opacity="0.06"/>
<path d="M127.059 125.52L118.102 96.0653L130.458 92.3081C132.76 91.608 134.886 91.3252 136.836 91.4595C138.777 91.5661 140.479 92.2303 141.941 93.4521C143.395 94.6461 144.523 96.5606 145.324 99.1954C146.057 101.608 146.142 103.779 145.577 105.708C145.004 107.61 143.934 109.223 142.367 110.548C140.801 111.872 138.88 112.881 136.606 113.572L132.071 114.951L134.589 123.23L127.059 125.52ZM130.035 108.253L134.569 106.874C136.012 106.436 137.029 105.747 137.623 104.809C138.216 103.871 138.319 102.765 137.931 101.489C137.577 100.324 136.951 99.5599 136.053 99.1968C135.182 98.8252 133.915 98.8924 132.251 99.3984L127.758 100.765L130.035 108.253Z" fill="white" fill-opacity="0.06"/>
<path d="M168.709 113.218C165.713 114.129 162.903 114.302 160.277 113.737C157.651 113.172 155.372 111.956 153.441 110.089C151.529 108.186 150.118 105.737 149.207 102.741C148.271 99.6628 148.099 96.8062 148.691 94.1718C149.276 91.5095 150.515 89.2086 152.41 87.269C154.305 85.3294 156.75 83.9041 159.745 82.9933C162.713 82.0908 165.505 81.9082 168.123 82.4454C170.741 82.9826 173.029 84.1805 174.988 86.0391C176.938 87.8699 178.377 90.3107 179.305 93.3616C180.216 96.3569 180.383 99.1996 179.808 101.89C179.251 104.543 178.02 106.872 176.115 108.876C174.228 110.843 171.76 112.29 168.709 113.218ZM166.712 106.054C168.487 105.514 169.793 104.677 170.63 103.544C171.459 102.383 171.923 101.121 172.024 99.7571C172.152 98.3849 172.035 97.1026 171.672 95.91C171.402 95.0224 170.989 94.1632 170.434 93.3323C169.897 92.4652 169.216 91.7181 168.389 91.0909C167.589 90.4553 166.642 90.0312 165.547 89.8187C164.453 89.6063 163.212 89.7109 161.825 90.1325C160.078 90.6639 158.786 91.4962 157.949 92.6294C157.103 93.7349 156.616 94.9737 156.488 96.3458C156.36 97.718 156.494 99.0558 156.89 100.359C157.287 101.663 157.92 102.849 158.791 103.917C159.689 104.978 160.797 105.731 162.114 106.179C163.46 106.618 164.992 106.576 166.712 106.054Z" fill="white" fill-opacity="0.06"/>
<path d="M200.919 103.423C197.869 104.351 195.066 104.552 192.513 104.025C189.95 103.471 187.75 102.262 185.91 100.397C184.062 98.5052 182.674 96.0336 181.746 92.9828C180.793 89.8488 180.567 86.9633 181.068 84.3264C181.589 81.6533 182.745 79.3777 184.537 77.4995C186.349 75.5852 188.711 74.1852 191.623 73.2997C193.925 72.5997 196.145 72.3789 198.284 72.6375C200.451 72.8876 202.384 73.6634 204.082 74.9648C205.781 76.2662 207.129 78.159 208.127 80.6432L201.013 82.8064C200.275 81.5764 199.339 80.7399 198.205 80.2972C197.062 79.8266 195.672 79.8402 194.036 80.3378C192.288 80.8691 191.02 81.6791 190.23 82.7677C189.44 83.8563 189.004 85.0644 188.923 86.3919C188.87 87.711 189.037 89.0085 189.425 90.2843C189.813 91.5601 190.418 92.7546 191.242 93.8677C192.093 94.9724 193.158 95.7847 194.437 96.3047C195.736 96.7886 197.258 96.7648 199.006 96.2335C200.06 95.913 200.929 95.4821 201.612 94.9409C202.288 94.3719 202.782 93.7065 203.096 92.9445C203.429 92.1464 203.558 91.274 203.482 90.3275L210.762 88.1136C211.355 90.6603 211.27 92.9736 210.509 95.0534C209.739 97.1054 208.496 98.8468 206.78 100.278C205.092 101.7 203.138 102.749 200.919 103.423Z" fill="white" fill-opacity="0.06"/>
<path d="M218.023 97.8587L209.067 68.4043L216.597 66.1145L219.671 76.2239L223.457 75.0727C224.788 74.6678 226.152 74.4198 227.548 74.3285C228.964 74.201 230.318 74.3195 231.61 74.6839C232.93 75.04 234.095 75.7311 235.104 76.7575C236.132 77.7477 236.925 79.158 237.481 80.9885C238.08 82.9577 238.203 84.7079 237.851 86.2392C237.518 87.7343 236.841 89.046 235.821 90.1743C234.828 91.2943 233.633 92.2483 232.237 93.0366C230.832 93.7971 229.381 94.4051 227.883 94.8605L218.023 97.8587ZM223.441 88.6213L226.145 87.799C226.866 87.5798 227.505 87.34 228.062 87.0797C228.639 86.7832 229.115 86.4565 229.491 86.0997C229.859 85.7151 230.099 85.3089 230.211 84.8808C230.343 84.4166 230.32 83.8933 230.143 83.3109C229.957 82.7007 229.685 82.2533 229.326 81.9687C228.967 81.684 228.536 81.5121 228.033 81.4529C227.558 81.3853 227.034 81.408 226.463 81.5212C225.883 81.6067 225.288 81.7422 224.678 81.9278L221.682 82.8386L223.441 88.6213ZM243.983 89.9647L235.026 60.5103L242.556 58.2205L251.513 87.6749L243.983 89.9647Z" fill="white" fill-opacity="0.06"/>
<path d="M258.555 74.4441C258.459 74.2306 258.364 74.0172 258.269 73.8038C258.174 73.5903 258.092 73.3726 258.025 73.1508C257.797 72.4019 257.702 71.6887 257.738 71.0111C257.774 70.3334 257.901 69.704 258.118 69.1229C258.355 68.5056 258.622 67.9395 258.92 67.4248C259.237 66.8738 259.553 66.3686 259.868 65.9093C260.249 65.3692 260.579 64.8599 260.858 64.3812C261.164 63.8942 261.383 63.4186 261.514 62.9544C261.646 62.4902 261.649 62.0501 261.522 61.634C261.412 61.2735 261.218 60.9841 260.94 60.7657C260.661 60.5474 260.303 60.4141 259.864 60.3658C259.425 60.3174 258.9 60.386 258.29 60.5716C257.514 60.8077 256.928 61.1223 256.532 61.5153C256.164 61.8998 255.946 62.3297 255.879 62.8047C255.811 63.2798 255.853 63.7669 256.005 64.2661L248.891 66.4294C248.318 64.5434 248.118 62.8921 248.294 61.4753C248.496 60.0501 248.974 58.8294 249.725 57.8131C250.476 56.7968 251.416 55.9506 252.544 55.2744C253.699 54.5898 254.942 54.0451 256.273 53.6403C257.965 53.1258 259.658 52.914 261.352 53.0049C263.046 53.0957 264.56 53.5898 265.893 54.4873C267.227 55.3847 268.193 56.818 268.792 58.7871C269.121 59.8688 269.199 60.875 269.028 61.8059C268.884 62.7282 268.575 63.6554 268.101 64.5874C267.655 65.5109 267.11 66.5097 266.467 67.5839C266.266 67.9179 266.063 68.2976 265.859 68.7232C265.647 69.1211 265.475 69.5521 265.344 70.0163C265.204 70.4527 265.154 70.9375 265.195 71.4704C265.201 71.5898 265.215 71.7369 265.238 71.9118C265.28 72.0504 265.327 72.203 265.377 72.3694L258.555 74.4441ZM265.25 83.9068C264.14 84.2442 263.018 84.1914 261.884 83.7486C260.749 83.3059 259.95 82.3218 259.486 80.7963C259.031 79.2987 259.16 78.0778 259.872 77.1339C260.577 76.1622 261.484 75.5077 262.593 75.1703C263.73 74.8246 264.848 74.8634 265.946 75.2869C267.036 75.6826 267.809 76.6294 268.264 78.127C268.728 79.6525 268.626 80.9107 267.958 81.9017C267.29 82.8926 266.387 83.561 265.25 83.9068Z" fill="white" fill-opacity="0.06"/>
<path d="M60.5167 238.168L51.56 208.713L66.204 204.26C67.452 203.881 68.6591 203.665 69.8251 203.614C70.9826 203.534 72.0563 203.677 73.0462 204.043C74.0361 204.409 74.9047 205.023 75.652 205.887C76.4272 206.742 77.0424 207.918 77.4978 209.416C77.8183 210.47 77.8808 211.572 77.6852 212.722C77.5088 213.836 77.0751 214.801 76.384 215.617C77.7176 215.818 78.9317 216.373 80.0263 217.282C81.1125 218.164 81.9255 219.492 82.4652 221.267C83.0303 223.126 83.1655 224.766 82.871 226.189C82.5764 227.612 81.966 228.843 81.0397 229.882C80.1135 230.921 78.9575 231.803 77.5719 232.527C76.214 233.243 74.7446 233.841 73.1638 234.322L60.5167 238.168ZM65.934 228.93L71.9247 227.109C72.5904 226.906 73.1421 226.678 73.5798 226.424C74.0092 226.141 74.3426 225.843 74.5802 225.528C74.8179 225.214 74.9596 224.883 75.0055 224.536C75.043 224.161 75.0027 223.779 74.8846 223.391C74.7581 222.975 74.5833 222.649 74.3603 222.414C74.1289 222.151 73.8311 221.969 73.467 221.867C73.1222 221.73 72.7152 221.687 72.2462 221.739C71.7964 221.754 71.2803 221.851 70.6979 222.028L64.4159 223.938L65.934 228.93ZM62.5689 217.864L67.8524 216.257C68.4349 216.08 68.9172 215.873 69.2995 215.636C69.6733 215.37 69.9513 215.089 70.1335 214.791C70.3156 214.493 70.42 214.189 70.4466 213.878C70.5009 213.558 70.4775 213.232 70.3763 212.899C70.2245 212.4 69.9913 212.032 69.6766 211.794C69.3897 211.548 69.0033 211.423 68.5174 211.419C68.0507 211.38 67.4846 211.461 66.819 211.663L61.2027 213.371L62.5689 217.864Z" fill="white" fill-opacity="0.06"/>
<path d="M102.736 225.693C99.7409 226.604 96.9302 226.777 94.3042 226.212C91.6781 225.647 89.3995 224.431 87.4683 222.564C85.5564 220.661 84.145 218.211 83.2342 215.216C82.298 212.137 82.1263 209.281 82.7189 206.646C83.3032 203.984 84.5426 201.683 86.4374 199.744C88.3321 197.804 90.7772 196.379 93.7725 195.468C96.7402 194.566 99.5328 194.383 102.15 194.92C104.768 195.457 107.056 196.655 109.015 198.514C110.966 200.345 112.405 202.785 113.333 205.836C114.243 208.832 114.411 211.674 113.835 214.364C113.279 217.018 112.048 219.347 110.142 221.35C108.256 223.318 105.787 224.765 102.736 225.693ZM100.739 218.528C102.514 217.988 103.82 217.152 104.658 216.019C105.486 214.858 105.951 213.595 106.051 212.232C106.179 210.86 106.062 209.577 105.699 208.385C105.429 207.497 105.017 206.638 104.461 205.807C103.925 204.94 103.243 204.193 102.416 203.566C101.617 202.93 100.67 202.506 99.5749 202.293C98.4801 202.081 97.2393 202.186 95.8526 202.607C94.1053 203.139 92.8131 203.971 91.976 205.104C91.1305 206.21 90.6437 207.448 90.5156 208.821C90.3874 210.193 90.5215 211.53 90.9179 212.834C91.3143 214.138 91.9477 215.324 92.818 216.392C93.716 217.452 94.824 218.206 96.1418 218.654C97.4873 219.093 99.0198 219.051 100.739 218.528Z" fill="white" fill-opacity="0.06"/>
<path d="M121.824 219.525L112.867 190.07L138.245 182.354L147.201 211.808L139.671 214.098L132.815 191.549L122.497 194.687L129.354 217.235L121.824 219.525Z" fill="white" fill-opacity="0.06"/>
<path d="M152.782 210.111L143.825 180.657L156.181 176.899C158.483 176.199 160.609 175.916 162.559 176.051C164.5 176.157 166.202 176.822 167.664 178.043C169.118 179.237 170.246 181.152 171.047 183.787C171.781 186.2 171.865 188.371 171.3 190.3C170.727 192.201 169.657 193.814 168.091 195.139C166.524 196.464 164.603 197.472 162.329 198.163L157.795 199.542L160.312 207.821L152.782 210.111ZM155.758 192.844L160.292 191.466C161.735 191.027 162.753 190.339 163.346 189.401C163.939 188.463 164.042 187.356 163.654 186.08C163.3 184.915 162.674 184.151 161.776 183.788C160.905 183.416 159.638 183.484 157.974 183.99L153.481 185.356L155.758 192.844Z" fill="white" fill-opacity="0.06"/>
<path d="M194.432 197.809C191.437 198.72 188.626 198.893 186 198.328C183.374 197.763 181.095 196.547 179.164 194.68C177.252 192.777 175.841 190.328 174.93 187.333C173.994 184.254 173.822 181.398 174.415 178.763C174.999 176.101 176.238 173.8 178.133 171.86C180.028 169.921 182.473 168.495 185.468 167.585C188.436 166.682 191.228 166.5 193.846 167.037C196.464 167.574 198.752 168.772 200.711 170.63C202.661 172.461 204.1 174.902 205.028 177.953C205.939 180.948 206.107 183.791 205.531 186.481C204.974 189.135 203.743 191.463 201.838 193.467C199.951 195.434 197.483 196.882 194.432 197.809ZM192.435 190.645C194.21 190.105 195.516 189.269 196.353 188.135C197.182 186.974 197.646 185.712 197.747 184.348C197.875 182.976 197.758 181.694 197.395 180.501C197.125 179.614 196.712 178.755 196.157 177.924C195.62 177.057 194.939 176.309 194.112 175.682C193.312 175.047 192.365 174.622 191.271 174.41C190.176 174.198 188.935 174.302 187.548 174.724C185.801 175.255 184.509 176.087 183.672 177.221C182.826 178.326 182.339 179.565 182.211 180.937C182.083 182.309 182.217 183.647 182.614 184.951C183.01 186.254 183.643 187.44 184.514 188.509C185.412 189.569 186.52 190.323 187.837 190.77C189.183 191.21 190.715 191.168 192.435 190.645Z" fill="white" fill-opacity="0.06"/>
<path d="M226.642 188.015C223.592 188.942 220.789 189.143 218.236 188.617C215.674 188.063 213.473 186.853 211.633 184.989C209.785 183.096 208.397 180.625 207.469 177.574C206.516 174.44 206.29 171.555 206.792 168.918C207.312 166.245 208.468 163.969 210.26 162.091C212.072 160.176 214.434 158.776 217.346 157.891C219.648 157.191 221.868 156.97 224.007 157.229C226.174 157.479 228.107 158.255 229.805 159.556C231.504 160.858 232.852 162.75 233.85 165.234L226.736 167.398C225.998 166.168 225.062 165.331 223.928 164.888C222.785 164.418 221.395 164.431 219.759 164.929C218.011 165.46 216.743 166.27 215.953 167.359C215.163 168.448 214.727 169.656 214.646 170.983C214.593 172.302 214.76 173.6 215.148 174.876C215.536 176.151 216.141 177.346 216.965 178.459C217.816 179.564 218.881 180.376 220.16 180.896C221.459 181.38 222.981 181.356 224.729 180.825C225.783 180.504 226.652 180.073 227.335 179.532C228.011 178.963 228.505 178.298 228.819 177.536C229.152 176.738 229.281 175.865 229.205 174.919L236.485 172.705C237.078 175.252 236.994 177.565 236.232 179.645C235.462 181.697 234.219 183.438 232.503 184.869C230.815 186.291 228.861 187.34 226.642 188.015Z" fill="white" fill-opacity="0.06"/>
<path d="M243.746 182.45L234.79 152.996L242.32 150.706L245.394 160.815L249.18 159.664C250.511 159.259 251.875 159.011 253.271 158.92C254.687 158.792 256.041 158.911 257.333 159.275C258.653 159.631 259.818 160.322 260.827 161.349C261.855 162.339 262.648 163.749 263.204 165.58C263.803 167.549 263.926 169.299 263.574 170.83C263.241 172.326 262.564 173.637 261.544 174.766C260.551 175.886 259.356 176.84 257.96 177.628C256.555 178.388 255.104 178.996 253.606 179.452L243.746 182.45ZM249.164 173.213L251.868 172.39C252.589 172.171 253.228 171.931 253.785 171.671C254.362 171.374 254.838 171.048 255.214 170.691C255.582 170.306 255.822 169.9 255.934 169.472C256.066 169.008 256.043 168.485 255.866 167.902C255.681 167.292 255.408 166.845 255.049 166.56C254.69 166.275 254.259 166.103 253.756 166.044C253.281 165.977 252.757 165.999 252.186 166.113C251.606 166.198 251.011 166.334 250.401 166.519L247.405 167.43L249.164 173.213ZM269.706 174.556L260.749 145.102L268.28 142.812L277.236 172.266L269.706 174.556Z" fill="white" fill-opacity="0.06"/>
<path d="M284.278 159.035C284.182 158.822 284.087 158.608 283.992 158.395C283.897 158.182 283.815 157.964 283.748 157.742C283.52 156.993 283.425 156.28 283.461 155.602C283.497 154.925 283.624 154.295 283.841 153.714C284.078 153.097 284.345 152.531 284.643 152.016C284.96 151.465 285.276 150.96 285.591 150.501C285.972 149.961 286.302 149.451 286.581 148.973C286.887 148.485 287.106 148.01 287.238 147.546C287.369 147.081 287.372 146.641 287.245 146.225C287.135 145.865 286.941 145.575 286.663 145.357C286.384 145.139 286.026 145.005 285.587 144.957C285.148 144.909 284.623 144.977 284.013 145.163C283.237 145.399 282.651 145.714 282.255 146.107C281.887 146.491 281.669 146.921 281.602 147.396C281.534 147.871 281.576 148.358 281.728 148.857L274.614 151.021C274.041 149.135 273.841 147.483 274.017 146.067C274.22 144.641 274.697 143.421 275.448 142.404C276.2 141.388 277.139 140.542 278.267 139.866C279.422 139.181 280.665 138.636 281.996 138.232C283.688 137.717 285.381 137.505 287.075 137.596C288.769 137.687 290.283 138.181 291.617 139.079C292.95 139.976 293.916 141.409 294.515 143.378C294.844 144.46 294.922 145.466 294.751 146.397C294.607 147.32 294.298 148.247 293.824 149.179C293.378 150.102 292.833 151.101 292.19 152.175C291.989 152.509 291.786 152.889 291.582 153.315C291.37 153.712 291.198 154.143 291.067 154.608C290.927 155.044 290.877 155.529 290.918 156.062C290.924 156.181 290.938 156.328 290.961 156.503C291.003 156.642 291.05 156.794 291.1 156.961L284.278 159.035ZM290.973 168.498C289.863 168.835 288.742 168.783 287.607 168.34C286.472 167.897 285.673 166.913 285.209 165.388C284.754 163.89 284.883 162.669 285.596 161.725C286.3 160.753 287.207 160.099 288.316 159.762C289.453 159.416 290.571 159.455 291.669 159.878C292.759 160.274 293.532 161.221 293.987 162.718C294.451 164.244 294.349 165.502 293.681 166.493C293.013 167.484 292.11 168.152 290.973 168.498Z" fill="white" fill-opacity="0.06"/>
</svg>
