<svg width="34" height="34" viewBox="0 0 34 34" fill="none" xmlns="http://www.w3.org/2000/svg">
    <g clip-path="url(#clip0_838_29105)">
        <path
            d="M9.71439 12.6304H7.28582C6.96388 12.6307 6.65522 12.7588 6.42758 12.9864C6.19993 13.2141 6.07188 13.5227 6.07153 13.8447V16.2732C6.07188 16.5952 6.19993 16.9038 6.42758 17.1315C6.65522 17.3591 6.96388 17.4872 7.28582 17.4875H9.71439C10.0363 17.4872 10.345 17.3591 10.5726 17.1315C10.8003 16.9038 10.9283 16.5952 10.9287 16.2732V13.8447C10.9283 13.5227 10.8003 13.2141 10.5726 12.9864C10.345 12.7588 10.0363 12.6307 9.71439 12.6304ZM10.1192 16.2732C10.119 16.3805 10.0763 16.4834 10.0004 16.5593C9.92457 16.6352 9.8217 16.6778 9.71439 16.678H7.28582C7.17851 16.6778 7.07564 16.6352 6.99977 16.5593C6.92389 16.4834 6.8812 16.3805 6.88106 16.2732V13.8447C6.8812 13.7374 6.92389 13.6345 6.99977 13.5586C7.07564 13.4827 7.17851 13.44 7.28582 13.4399H9.71439C9.8217 13.44 9.92457 13.4827 10.0004 13.5586C10.0763 13.6345 10.119 13.7374 10.1192 13.8447V16.2732Z"
            fill="#2D4356" />
        <path
            d="M15.3809 12.6304H12.9523C12.6304 12.6307 12.3217 12.7588 12.0941 12.9864C11.8664 13.2141 11.7384 13.5227 11.738 13.8447V16.2732C11.7384 16.5952 11.8664 16.9038 12.0941 17.1315C12.3217 17.3591 12.6304 17.4872 12.9523 17.4875H15.3809C15.7028 17.4872 16.0115 17.3591 16.2391 17.1315C16.4668 16.9038 16.5948 16.5952 16.5952 16.2732V13.8447C16.5948 13.5227 16.4668 13.2141 16.2391 12.9864C16.0115 12.7588 15.7028 12.6307 15.3809 12.6304ZM15.7857 16.2732C15.7855 16.3805 15.7428 16.4834 15.6669 16.5593C15.5911 16.6352 15.4882 16.6778 15.3809 16.678H12.9523C12.845 16.6778 12.7421 16.6352 12.6663 16.5593C12.5904 16.4834 12.5477 16.3805 12.5476 16.2732V13.8447C12.5477 13.7374 12.5904 13.6345 12.6663 13.5586C12.7421 13.4827 12.845 13.44 12.9523 13.4399H15.3809C15.4882 13.44 15.5911 13.4827 15.6669 13.5586C15.7428 13.6345 15.7855 13.7374 15.7857 13.8447V16.2732Z"
            fill="#0BCEB2" />
        <path
            d="M9.71439 18.2969H7.28582C6.96388 18.2972 6.65522 18.4253 6.42758 18.6529C6.19993 18.8806 6.07188 19.1892 6.07153 19.5112V21.9397C6.07188 22.2617 6.19993 22.5703 6.42758 22.798C6.65522 23.0256 6.96388 23.1537 7.28582 23.154H9.71439C10.0363 23.1537 10.345 23.0256 10.5726 22.798C10.8003 22.5703 10.9283 22.2617 10.9287 21.9397V19.5112C10.9283 19.1892 10.8003 18.8806 10.5726 18.6529C10.345 18.4253 10.0363 18.2972 9.71439 18.2969ZM10.1192 21.9397C10.119 22.047 10.0763 22.1499 10.0004 22.2258C9.92457 22.3017 9.8217 22.3444 9.71439 22.3445H7.28582C7.17851 22.3444 7.07564 22.3017 6.99977 22.2258C6.92389 22.1499 6.8812 22.047 6.88106 21.9397V19.5112C6.8812 19.4039 6.92389 19.301 6.99977 19.2251C7.07564 19.1492 7.17851 19.1065 7.28582 19.1064H9.71439C9.8217 19.1065 9.92457 19.1492 10.0004 19.2251C10.0763 19.301 10.119 19.4039 10.1192 19.5112V21.9397Z"
            fill="#0BCEB2" />
        <path
            d="M15.3809 18.2969H12.9523C12.6304 18.2972 12.3217 18.4253 12.0941 18.6529C11.8664 18.8806 11.7384 19.1892 11.738 19.5112V21.9397C11.7384 22.2617 11.8664 22.5703 12.0941 22.798C12.3217 23.0256 12.6304 23.1537 12.9523 23.154H15.3809C15.7028 23.1537 16.0115 23.0256 16.2391 22.798C16.4668 22.5703 16.5948 22.2617 16.5952 21.9397V19.5112C16.5948 19.1892 16.4668 18.8806 16.2391 18.6529C16.0115 18.4253 15.7028 18.2972 15.3809 18.2969ZM15.7857 21.9397C15.7855 22.047 15.7428 22.1499 15.6669 22.2258C15.5911 22.3017 15.4882 22.3444 15.3809 22.3445H12.9523C12.845 22.3444 12.7421 22.3017 12.6663 22.2258C12.5904 22.1499 12.5477 22.047 12.5476 21.9397V19.5112C12.5477 19.4039 12.5904 19.301 12.6663 19.2251C12.7421 19.1492 12.845 19.1065 12.9523 19.1064H15.3809C15.4882 19.1065 15.5911 19.1492 15.6669 19.2251C15.7428 19.301 15.7855 19.4039 15.7857 19.5112V21.9397Z"
            fill="#2D4356" />
        <path
            d="M9.71439 23.9636H7.28582C6.96388 23.964 6.65522 24.092 6.42758 24.3197C6.19993 24.5473 6.07188 24.856 6.07153 25.1779V27.6065C6.07188 27.9284 6.19993 28.2371 6.42758 28.4647C6.65522 28.6924 6.96388 28.8204 7.28582 28.8208H9.71439C10.0363 28.8204 10.345 28.6924 10.5726 28.4647C10.8003 28.2371 10.9283 27.9284 10.9287 27.6065V25.1779C10.9283 24.856 10.8003 24.5473 10.5726 24.3197C10.345 24.092 10.0363 23.964 9.71439 23.9636ZM10.1192 27.6065C10.119 27.7138 10.0763 27.8167 10.0004 27.8925C9.92457 27.9684 9.8217 28.0111 9.71439 28.0112H7.28582C7.17851 28.0111 7.07564 27.9684 6.99977 27.8925C6.92389 27.8167 6.8812 27.7138 6.88106 27.6065V25.1779C6.8812 25.0706 6.92389 24.9677 6.99977 24.8919C7.07564 24.816 7.17851 24.7733 7.28582 24.7731H9.71439C9.8217 24.7733 9.92457 24.816 10.0004 24.8919C10.0763 24.9677 10.119 25.0706 10.1192 25.1779V27.6065Z"
            fill="#2D4356" />
        <path
            d="M15.3809 23.9636H12.9523C12.6304 23.964 12.3217 24.092 12.0941 24.3197C11.8664 24.5473 11.7384 24.856 11.738 25.1779V27.6065C11.7384 27.9284 11.8664 28.2371 12.0941 28.4647C12.3217 28.6924 12.6304 28.8204 12.9523 28.8208H15.3809C15.7028 28.8204 16.0115 28.6924 16.2391 28.4647C16.4668 28.2371 16.5948 27.9284 16.5952 27.6065V25.1779C16.5948 24.856 16.4668 24.5473 16.2391 24.3197C16.0115 24.092 15.7028 23.964 15.3809 23.9636ZM15.7857 27.6065C15.7855 27.7138 15.7428 27.8167 15.6669 27.8925C15.5911 27.9684 15.4882 28.0111 15.3809 28.0112H12.9523C12.845 28.0111 12.7421 27.9684 12.6663 27.8925C12.5904 27.8167 12.5477 27.7138 12.5476 27.6065V25.1779C12.5477 25.0706 12.5904 24.9677 12.6663 24.8919C12.7421 24.816 12.845 24.7733 12.9523 24.7731H15.3809C15.4882 24.7733 15.5911 24.816 15.6669 24.8919C15.7428 24.9677 15.7855 25.0706 15.7857 25.1779V27.6065Z"
            fill="#0BCEB2" />
        <path
            d="M21.0476 18.2969H18.6191C18.2971 18.2972 17.9885 18.4253 17.7608 18.6529C17.5332 18.8806 17.4051 19.1892 17.4048 19.5112V21.9397C17.4051 22.2617 17.5332 22.5703 17.7608 22.798C17.9885 23.0256 18.2971 23.1537 18.6191 23.154H21.0476C21.3696 23.1537 21.6782 23.0256 21.9059 22.798C22.1335 22.5703 22.2616 22.2617 22.2619 21.9397V19.5112C22.2616 19.1892 22.1335 18.8806 21.9059 18.6529C21.6782 18.4253 21.3696 18.2972 21.0476 18.2969ZM21.4524 21.9397C21.4523 22.047 21.4096 22.1499 21.3337 22.2258C21.2578 22.3017 21.1549 22.3444 21.0476 22.3445H18.6191C18.5118 22.3444 18.4089 22.3017 18.333 22.2258C18.2571 22.1499 18.2145 22.047 18.2143 21.9397V19.5112C18.2145 19.4039 18.2571 19.301 18.333 19.2251C18.4089 19.1492 18.5118 19.1065 18.6191 19.1064H21.0476C21.1549 19.1065 21.2578 19.1492 21.3337 19.2251C21.4096 19.301 21.4523 19.4039 21.4524 19.5112V21.9397Z"
            fill="#0BCEB2" />
        <path
            d="M26.7144 18.2969H24.2858C23.9639 18.2972 23.6552 18.4253 23.4276 18.6529C23.1999 18.8806 23.0719 19.1892 23.0715 19.5112V21.9397C23.0719 22.2617 23.1999 22.5703 23.4276 22.798C23.6552 23.0256 23.9639 23.1537 24.2858 23.154H26.7144C27.0363 23.1537 27.345 23.0256 27.5726 22.798C27.8003 22.5703 27.9283 22.2617 27.9287 21.9397V19.5112C27.9283 19.1892 27.8003 18.8806 27.5726 18.6529C27.345 18.4253 27.0363 18.2972 26.7144 18.2969ZM27.1192 21.9397C27.119 22.047 27.0763 22.1499 27.0004 22.2258C26.9246 22.3017 26.8217 22.3444 26.7144 22.3445H24.2858C24.1785 22.3444 24.0756 22.3017 23.9998 22.2258C23.9239 22.1499 23.8812 22.047 23.8811 21.9397V19.5112C23.8812 19.4039 23.9239 19.301 23.9998 19.2251C24.0756 19.1492 24.1785 19.1065 24.2858 19.1064H26.7144C26.8217 19.1065 26.9246 19.1492 27.0004 19.2251C27.0763 19.301 27.119 19.4039 27.1192 19.5112V21.9397Z"
            fill="#2D4356" />
        <path
            d="M21.0476 23.9636H18.6191C18.2971 23.964 17.9885 24.092 17.7608 24.3197C17.5332 24.5473 17.4051 24.856 17.4048 25.1779V27.6065C17.4051 27.9284 17.5332 28.2371 17.7608 28.4647C17.9885 28.6924 18.2971 28.8204 18.6191 28.8208H21.0476C21.3696 28.8204 21.6782 28.6924 21.9059 28.4647C22.1335 28.2371 22.2616 27.9284 22.2619 27.6065V25.1779C22.2616 24.856 22.1335 24.5473 21.9059 24.3197C21.6782 24.092 21.3696 23.964 21.0476 23.9636ZM21.4524 27.6065C21.4523 27.7138 21.4096 27.8167 21.3337 27.8925C21.2578 27.9684 21.1549 28.0111 21.0476 28.0112H18.6191C18.5118 28.0111 18.4089 27.9684 18.333 27.8925C18.2571 27.8167 18.2145 27.7138 18.2143 27.6065V25.1779C18.2145 25.0706 18.2571 24.9677 18.333 24.8919C18.4089 24.816 18.5118 24.7733 18.6191 24.7731H21.0476C21.1549 24.7733 21.2578 24.816 21.3337 24.8919C21.4096 24.9677 21.4523 25.0706 21.4524 25.1779V27.6065Z"
            fill="#2D4356" />
        <path
            d="M26.7144 23.9636H24.2858C23.9639 23.964 23.6552 24.092 23.4276 24.3197C23.1999 24.5473 23.0719 24.856 23.0715 25.1779V27.6065C23.0719 27.9284 23.1999 28.2371 23.4276 28.4647C23.6552 28.6924 23.9639 28.8204 24.2858 28.8208H26.7144C27.0363 28.8204 27.345 28.6924 27.5726 28.4647C27.8003 28.2371 27.9283 27.9284 27.9287 27.6065V25.1779C27.9283 24.856 27.8003 24.5473 27.5726 24.3197C27.345 24.092 27.0363 23.964 26.7144 23.9636ZM27.1192 27.6065C27.119 27.7138 27.0763 27.8167 27.0004 27.8925C26.9246 27.9684 26.8217 28.0111 26.7144 28.0112H24.2858C24.1785 28.0111 24.0756 27.9684 23.9998 27.8925C23.9239 27.8167 23.8812 27.7138 23.8811 27.6065V25.1779C23.8812 25.0706 23.9239 24.9677 23.9998 24.8919C24.0756 24.816 24.1785 24.7733 24.2858 24.7731H26.7144C26.8217 24.7733 26.9246 24.816 27.0004 24.8919C27.0763 24.9677 27.119 25.0706 27.1192 25.1779V27.6065Z"
            fill="#0BCEB2" />
        <path
            d="M21.0476 12.6304H18.6191C18.2971 12.6307 17.9885 12.7588 17.7608 12.9864C17.5332 13.2141 17.4051 13.5227 17.4048 13.8447V16.2732C17.4051 16.5952 17.5332 16.9038 17.7608 17.1315C17.9885 17.3591 18.2971 17.4872 18.6191 17.4875H21.0476C21.3696 17.4872 21.6782 17.3591 21.9059 17.1315C22.1335 16.9038 22.2616 16.5952 22.2619 16.2732V13.8447C22.2616 13.5227 22.1335 13.2141 21.9059 12.9864C21.6782 12.7588 21.3696 12.6307 21.0476 12.6304ZM21.4524 16.2732C21.4523 16.3805 21.4096 16.4834 21.3337 16.5593C21.2578 16.6352 21.1549 16.6778 21.0476 16.678H18.6191C18.5118 16.6778 18.4089 16.6352 18.333 16.5593C18.2571 16.4834 18.2145 16.3805 18.2143 16.2732V13.8447C18.2145 13.7374 18.2571 13.6345 18.333 13.5586C18.4089 13.4827 18.5118 13.44 18.6191 13.4399H21.0476C21.1549 13.44 21.2578 13.4827 21.3337 13.5586C21.4096 13.6345 21.4523 13.7374 21.4524 13.8447V16.2732Z"
            fill="#2D4356" />
        <path
            d="M26.7144 12.6304H24.2858C23.9639 12.6307 23.6552 12.7588 23.4276 12.9864C23.1999 13.2141 23.0719 13.5227 23.0715 13.8447V16.2732C23.0719 16.5952 23.1999 16.9038 23.4276 17.1315C23.6552 17.3591 23.9639 17.4872 24.2858 17.4875H26.7144C27.0363 17.4872 27.345 17.3591 27.5726 17.1315C27.8003 16.9038 27.9283 16.5952 27.9287 16.2732V13.8447C27.9283 13.5227 27.8003 13.2141 27.5726 12.9864C27.345 12.7588 27.0363 12.6307 26.7144 12.6304ZM27.1192 16.2732C27.119 16.3805 27.0763 16.4834 27.0004 16.5593C26.9246 16.6352 26.8217 16.6778 26.7144 16.678H24.2858C24.1785 16.6778 24.0756 16.6352 23.9998 16.5593C23.9239 16.4834 23.8812 16.3805 23.8811 16.2732V13.8447C23.8812 13.7374 23.9239 13.6345 23.9998 13.5586C24.0756 13.4827 24.1785 13.44 24.2858 13.4399H26.7144C26.8217 13.44 26.9246 13.4827 27.0004 13.5586C27.0763 13.6345 27.119 13.7374 27.1192 13.8447V16.2732Z"
            fill="#2D4356" />
        <path
            d="M14.8121 20.0132L13.8531 20.5486L13.6606 20.2598C13.6313 20.2152 13.5935 20.1769 13.5493 20.147C13.5051 20.1171 13.4554 20.0962 13.4031 20.0856C13.3508 20.075 13.2969 20.0748 13.2445 20.0851C13.1922 20.0953 13.1424 20.1159 13.098 20.1455C13.0536 20.1751 13.0154 20.2132 12.9858 20.2576C12.9562 20.3019 12.9356 20.3517 12.9253 20.4041C12.915 20.4565 12.9152 20.5103 12.9258 20.5626C12.9364 20.6149 12.9572 20.6646 12.9871 20.7089L13.3869 21.3089C13.4444 21.3924 13.5307 21.4518 13.6292 21.4756C13.7278 21.4994 13.8317 21.4859 13.9209 21.4377L15.2066 20.7199C15.3001 20.6675 15.369 20.5801 15.3982 20.477C15.4274 20.3738 15.4144 20.2632 15.3622 20.1696C15.3099 20.076 15.2226 20.0069 15.1195 19.9776C15.0164 19.9483 14.9058 19.9611 14.8121 20.0132Z"
            fill="#0BCEB2" />
        <path
            d="M26.1456 14.3465L25.1866 14.8819L24.9941 14.5932C24.9648 14.5486 24.927 14.5103 24.8828 14.4804C24.8386 14.4505 24.7889 14.4296 24.7366 14.419C24.6843 14.4083 24.6304 14.4082 24.578 14.4184C24.5257 14.4287 24.4759 14.4493 24.4315 14.4789C24.3871 14.5085 24.3489 14.5465 24.3193 14.5909C24.2897 14.6353 24.2691 14.6851 24.2588 14.7375C24.2485 14.7898 24.2487 14.8437 24.2593 14.896C24.2699 14.9483 24.2907 14.998 24.3206 15.0422L24.7204 15.6423C24.7776 15.7262 24.8639 15.7858 24.9626 15.8096C25.0613 15.8334 25.1653 15.8197 25.2544 15.7711L26.5401 15.0533C26.5866 15.0274 26.6275 14.9927 26.6605 14.951C26.6936 14.9093 26.7181 14.8615 26.7326 14.8103C26.7472 14.7592 26.7515 14.7056 26.7454 14.6528C26.7392 14.5999 26.7227 14.5488 26.6968 14.5024C26.6708 14.4559 26.636 14.415 26.5943 14.3821C26.5525 14.3491 26.5047 14.3247 26.4535 14.3102C26.4023 14.2957 26.3487 14.2915 26.2959 14.2977C26.2431 14.304 26.192 14.3205 26.1456 14.3465Z"
            fill="#0BCEB2" />
        <path
            d="M26.1456 25.6799L25.1866 26.2153L24.9941 25.9266C24.9648 25.882 24.927 25.8436 24.8828 25.8137C24.8386 25.7838 24.7889 25.763 24.7366 25.7523C24.6843 25.7417 24.6304 25.7415 24.578 25.7518C24.5257 25.7621 24.4759 25.7826 24.4315 25.8122C24.3871 25.8418 24.3489 25.8799 24.3193 25.9243C24.2897 25.9687 24.2691 26.0185 24.2588 26.0709C24.2485 26.1232 24.2487 26.1771 24.2593 26.2294C24.2699 26.2817 24.2907 26.3314 24.3206 26.3756L24.7204 26.9756C24.7778 27.0592 24.8641 27.1187 24.9627 27.1425C25.0613 27.1663 25.1652 27.1527 25.2544 27.1045L26.5401 26.3867C26.6336 26.3343 26.7025 26.2469 26.7317 26.1437C26.7609 26.0405 26.7479 25.93 26.6957 25.8364C26.6434 25.7427 26.5561 25.6737 26.453 25.6443C26.3499 25.615 26.2393 25.6278 26.1456 25.6799Z"
            fill="#2D4356" />
        <path
            d="M0.404762 30.8444C0.628306 30.8444 0.809524 30.6632 0.809524 30.4397C0.809524 30.2161 0.628306 30.0349 0.404762 30.0349C0.181218 30.0349 0 30.2161 0 30.4397C0 30.6632 0.181218 30.8444 0.404762 30.8444Z"
            fill="#2D4356" />
        <path
            d="M2.22626 30.0349H1.61912C1.51177 30.0349 1.40882 30.0776 1.33291 30.1535C1.257 30.2294 1.21436 30.3323 1.21436 30.4397C1.21436 30.547 1.257 30.65 1.33291 30.7259C1.40882 30.8018 1.51177 30.8444 1.61912 30.8444H2.22626C2.33361 30.8444 2.43656 30.8018 2.51247 30.7259C2.58838 30.65 2.63102 30.547 2.63102 30.4397C2.63102 30.3323 2.58838 30.2294 2.51247 30.1535C2.43656 30.0776 2.33361 30.0349 2.22626 30.0349Z"
            fill="#2D4356" />
        <path
            d="M32.381 30.0349H31.7739C31.6666 30.0349 31.5636 30.0776 31.4877 30.1535C31.4118 30.2294 31.3691 30.3323 31.3691 30.4397C31.3691 30.547 31.4118 30.65 31.4877 30.7259C31.5636 30.8018 31.6666 30.8444 31.7739 30.8444H32.381C32.4884 30.8444 32.5913 30.8018 32.6673 30.7259C32.7432 30.65 32.7858 30.547 32.7858 30.4397C32.7858 30.3323 32.7432 30.2294 32.6673 30.1535C32.5913 30.0776 32.4884 30.0349 32.381 30.0349Z"
            fill="#2D4356" />
        <path
            d="M33.5952 30.8444C33.8187 30.8444 34 30.6632 34 30.4397C34 30.2161 33.8187 30.0349 33.5952 30.0349C33.3716 30.0349 33.1904 30.2161 33.1904 30.4397C33.1904 30.6632 33.3716 30.8444 33.5952 30.8444Z"
            fill="#2D4356" />
        <path
            d="M23.9121 31.6541H22.2308C22.1291 31.6622 22.0341 31.7084 21.9649 31.7834C21.8956 31.8584 21.8572 31.9567 21.8572 32.0588C21.8572 32.1609 21.8956 32.2592 21.9649 32.3342C22.0341 32.4092 22.1291 32.4554 22.2308 32.4636H23.9121C24.0139 32.4554 24.1088 32.4092 24.1781 32.3342C24.2473 32.2592 24.2858 32.1609 24.2858 32.0588C24.2858 31.9567 24.2473 31.8584 24.1781 31.7834C24.1088 31.7084 24.0139 31.6622 23.9121 31.6541Z"
            fill="#0BCEB2" />
        <path
            d="M11.7693 31.6541H10.088C9.98623 31.6622 9.89128 31.7084 9.82204 31.7834C9.7528 31.8584 9.71436 31.9567 9.71436 32.0588C9.71436 32.1609 9.7528 32.2592 9.82204 32.3342C9.89128 32.4092 9.98623 32.4554 10.088 32.4636H11.7693C11.8711 32.4554 11.966 32.4092 12.0353 32.3342C12.1045 32.2592 12.1429 32.1609 12.1429 32.0588C12.1429 31.9567 12.1045 31.8584 12.0353 31.7834C11.966 31.7084 11.8711 31.6622 11.7693 31.6541Z"
            fill="#0BCEB2" />
        <path
            d="M21.0476 31.6541H12.9524C12.845 31.6541 12.7421 31.6967 12.6662 31.7726C12.5903 31.8485 12.5476 31.9515 12.5476 32.0588C12.5476 32.1662 12.5903 32.2691 12.6662 32.345C12.7421 32.4209 12.845 32.4636 12.9524 32.4636H16.1783V32.8683H14.5714C14.4641 32.8683 14.3611 32.911 14.2852 32.9869C14.2093 33.0628 14.1667 33.1658 14.1667 33.2731C14.1667 33.3804 14.2093 33.4834 14.2852 33.5593C14.3611 33.6352 14.4641 33.6779 14.5714 33.6779H19.6309C19.7383 33.6779 19.8412 33.6352 19.9172 33.5593C19.9931 33.4834 20.0357 33.3804 20.0357 33.2731C20.0357 33.1658 19.9931 33.0628 19.9172 32.9869C19.8412 32.911 19.7383 32.8683 19.6309 32.8683H17.8217V32.4636H21.0476C21.155 32.4636 21.2579 32.4209 21.3338 32.345C21.4097 32.2691 21.4524 32.1662 21.4524 32.0588C21.4524 31.9515 21.4097 31.8485 21.3338 31.7726C21.2579 31.6967 21.155 31.6541 21.0476 31.6541Z"
            fill="#0BCEB2" />
        <path
            d="M29.5032 32.0348H28.8816C28.9282 31.905 28.9522 31.768 28.9525 31.6301V11.392C28.9521 11.07 28.8241 10.7614 28.5964 10.5337C28.3688 10.3061 28.0601 10.178 27.7382 10.1777H26.9287V9.77293C26.9287 9.66558 26.886 9.56262 26.8101 9.48672C26.7342 9.41081 26.6313 9.36816 26.5239 9.36816C26.4166 9.36816 26.3136 9.41081 26.2377 9.48672C26.1618 9.56262 26.1191 9.66558 26.1191 9.77293V10.1777H25.3096V9.77293C25.3096 9.66558 25.267 9.56262 25.1911 9.48672C25.1152 9.41081 25.0122 9.36816 24.9049 9.36816C24.7975 9.36816 24.6946 9.41081 24.6187 9.48672C24.5427 9.56262 24.5001 9.66558 24.5001 9.77293V10.1777H23.6906V9.77293C23.6906 9.66558 23.6479 9.56262 23.572 9.48672C23.4961 9.41081 23.3932 9.36816 23.2858 9.36816C23.1785 9.36816 23.0755 9.41081 22.9996 9.48672C22.9237 9.56262 22.8811 9.66558 22.8811 9.77293V10.1777H22.0715V9.77293C22.0715 9.66558 22.0289 9.56262 21.953 9.48672C21.8771 9.41081 21.7741 9.36816 21.6668 9.36816C21.5594 9.36816 21.4565 9.41081 21.3806 9.48672C21.3046 9.56262 21.262 9.66558 21.262 9.77293V10.1777H20.4525V9.77293C20.4525 9.66558 20.4098 9.56262 20.3339 9.48672C20.258 9.41081 20.1551 9.36816 20.0477 9.36816C19.9404 9.36816 19.8374 9.41081 19.7615 9.48672C19.6856 9.56262 19.643 9.66558 19.643 9.77293V10.1777H18.8334V9.77293C18.8334 9.66558 18.7908 9.56262 18.7149 9.48672C18.639 9.41081 18.536 9.36816 18.4287 9.36816C18.3213 9.36816 18.2184 9.41081 18.1425 9.48672C18.0666 9.56262 18.0239 9.66558 18.0239 9.77293V10.1777H17.2144V9.77293C17.2144 9.66558 17.1717 9.56262 17.0958 9.48672C17.0199 9.41081 16.917 9.36816 16.8096 9.36816C16.7023 9.36816 16.5993 9.41081 16.5234 9.48672C16.4475 9.56262 16.4049 9.66558 16.4049 9.77293V10.1777H15.5953V9.77293C15.5953 9.66558 15.5527 9.56262 15.4768 9.48672C15.4009 9.41081 15.2979 9.36816 15.1906 9.36816C15.0832 9.36816 14.9803 9.41081 14.9044 9.48672C14.8285 9.56262 14.7858 9.66558 14.7858 9.77293V10.1777H13.9763V9.77293C13.9763 9.66558 13.9336 9.56262 13.8577 9.48672C13.7818 9.41081 13.6789 9.36816 13.5715 9.36816C13.4642 9.36816 13.3612 9.41081 13.2853 9.48672C13.2094 9.56262 13.1668 9.66558 13.1668 9.77293V10.1777H12.3572V9.77293C12.3572 9.66558 12.3146 9.56262 12.2387 9.48672C12.1628 9.41081 12.0598 9.36816 11.9525 9.36816C11.8451 9.36816 11.7422 9.41081 11.6663 9.48672C11.5904 9.56262 11.5477 9.66558 11.5477 9.77293V10.1777H10.7382V9.77293C10.7382 9.66558 10.6956 9.56262 10.6196 9.48672C10.5437 9.41081 10.4408 9.36816 10.3334 9.36816C10.2261 9.36816 10.1231 9.41081 10.0472 9.48672C9.97132 9.56262 9.92867 9.66558 9.92867 9.77293V10.1777H9.11915V9.77293C9.11915 9.66558 9.0765 9.56262 9.0006 9.48672C8.92469 9.41081 8.82174 9.36816 8.71439 9.36816C8.60704 9.36816 8.50408 9.41081 8.42818 9.48672C8.35227 9.56262 8.30962 9.66558 8.30962 9.77293V10.1777H7.5001V9.77293C7.5001 9.66558 7.45746 9.56262 7.38155 9.48672C7.30564 9.41081 7.20269 9.36816 7.09534 9.36816C6.98799 9.36816 6.88504 9.41081 6.80913 9.48672C6.73322 9.56262 6.69058 9.66558 6.69058 9.77293V10.1777H5.88105V9.77293C5.88105 9.66558 5.83841 9.56262 5.7625 9.48672C5.68659 9.41081 5.58364 9.36816 5.47629 9.36816C5.36894 9.36816 5.26599 9.41081 5.19008 9.48672C5.11417 9.56262 5.07153 9.66558 5.07153 9.77293V10.1777H4.262C3.94006 10.178 3.63141 10.3061 3.40376 10.5337C3.17612 10.7614 3.04807 11.07 3.04772 11.392V31.6301C3.04801 31.768 3.07197 31.905 3.11855 32.0348H2.49698C2.4394 32.0273 2.38087 32.0322 2.32531 32.0491C2.26975 32.066 2.21844 32.0945 2.17479 32.1328C2.13115 32.1711 2.09619 32.2183 2.07223 32.2712C2.04828 32.3241 2.03589 32.3815 2.03589 32.4396C2.03589 32.4977 2.04828 32.5551 2.07223 32.608C2.09619 32.6609 2.13115 32.7081 2.17479 32.7464C2.21844 32.7847 2.26975 32.8132 2.32531 32.8301C2.38087 32.847 2.4394 32.8519 2.49698 32.8444H29.5032C29.5608 32.8519 29.6193 32.847 29.6749 32.8301C29.7304 32.8132 29.7818 32.7847 29.8254 32.7464C29.869 32.7081 29.904 32.6609 29.928 32.608C29.9519 32.5551 29.9643 32.4977 29.9643 32.4396C29.9643 32.3815 29.9519 32.3241 29.928 32.2712C29.904 32.2183 29.869 32.1711 29.8254 32.1328C29.7818 32.0945 29.7304 32.066 29.6749 32.0491C29.6193 32.0322 29.5608 32.0273 29.5032 32.0348ZM3.85724 11.392C3.85738 11.2847 3.90007 11.1818 3.97595 11.1059C4.05183 11.03 4.1547 10.9874 4.262 10.9872H5.07153V11.392C5.07153 11.4993 5.11417 11.6023 5.19008 11.6782C5.26599 11.7541 5.36894 11.7967 5.47629 11.7967C5.58364 11.7967 5.68659 11.7541 5.7625 11.6782C5.83841 11.6023 5.88105 11.4993 5.88105 11.392V10.9872H6.69058V11.392C6.69058 11.4993 6.73322 11.6023 6.80913 11.6782C6.88504 11.7541 6.98799 11.7967 7.09534 11.7967C7.20269 11.7967 7.30564 11.7541 7.38155 11.6782C7.45746 11.6023 7.5001 11.4993 7.5001 11.392V10.9872H8.30962V11.392C8.30962 11.4993 8.35227 11.6023 8.42818 11.6782C8.50408 11.7541 8.60704 11.7967 8.71439 11.7967C8.82174 11.7967 8.92469 11.7541 9.0006 11.6782C9.0765 11.6023 9.11915 11.4993 9.11915 11.392V10.9872H9.92867V11.392C9.92867 11.4993 9.97132 11.6023 10.0472 11.6782C10.1231 11.7541 10.2261 11.7967 10.3334 11.7967C10.4408 11.7967 10.5437 11.7541 10.6196 11.6782C10.6956 11.6023 10.7382 11.4993 10.7382 11.392V10.9872H11.5477V11.392C11.5477 11.4993 11.5904 11.6023 11.6663 11.6782C11.7422 11.7541 11.8451 11.7967 11.9525 11.7967C12.0598 11.7967 12.1628 11.7541 12.2387 11.6782C12.3146 11.6023 12.3572 11.4993 12.3572 11.392V10.9872H13.1668V11.392C13.1668 11.4993 13.2094 11.6023 13.2853 11.6782C13.3612 11.7541 13.4642 11.7967 13.5715 11.7967C13.6789 11.7967 13.7818 11.7541 13.8577 11.6782C13.9336 11.6023 13.9763 11.4993 13.9763 11.392V10.9872H14.7858V11.392C14.7858 11.4993 14.8285 11.6023 14.9044 11.6782C14.9803 11.7541 15.0832 11.7967 15.1906 11.7967C15.2979 11.7967 15.4009 11.7541 15.4768 11.6782C15.5527 11.6023 15.5953 11.4993 15.5953 11.392V10.9872H16.4049V11.392C16.4049 11.4993 16.4475 11.6023 16.5234 11.6782C16.5993 11.7541 16.7023 11.7967 16.8096 11.7967C16.917 11.7967 17.0199 11.7541 17.0958 11.6782C17.1717 11.6023 17.2144 11.4993 17.2144 11.392V10.9872H18.0239V11.392C18.0239 11.4993 18.0666 11.6023 18.1425 11.6782C18.2184 11.7541 18.3213 11.7967 18.4287 11.7967C18.536 11.7967 18.639 11.7541 18.7149 11.6782C18.7908 11.6023 18.8334 11.4993 18.8334 11.392V10.9872H19.643V11.392C19.643 11.4993 19.6856 11.6023 19.7615 11.6782C19.8374 11.7541 19.9404 11.7967 20.0477 11.7967C20.1551 11.7967 20.258 11.7541 20.3339 11.6782C20.4098 11.6023 20.4525 11.4993 20.4525 11.392V10.9872H21.262V11.392C21.262 11.4993 21.3046 11.6023 21.3806 11.6782C21.4565 11.7541 21.5594 11.7967 21.6668 11.7967C21.7741 11.7967 21.8771 11.7541 21.953 11.6782C22.0289 11.6023 22.0715 11.4993 22.0715 11.392V10.9872H22.8811V11.392C22.8811 11.4993 22.9237 11.6023 22.9996 11.6782C23.0755 11.7541 23.1785 11.7967 23.2858 11.7967C23.3932 11.7967 23.4961 11.7541 23.572 11.6782C23.6479 11.6023 23.6906 11.4993 23.6906 11.392V10.9872H24.5001V11.392C24.5001 11.4993 24.5427 11.6023 24.6187 11.6782C24.6946 11.7541 24.7975 11.7967 24.9049 11.7967C25.0122 11.7967 25.1152 11.7541 25.1911 11.6782C25.267 11.6023 25.3096 11.4993 25.3096 11.392V10.9872H26.1191V11.392C26.1191 11.4993 26.1618 11.6023 26.2377 11.6782C26.3136 11.7541 26.4166 11.7967 26.5239 11.7967C26.6313 11.7967 26.7342 11.7541 26.8101 11.6782C26.886 11.6023 26.9287 11.4993 26.9287 11.392V10.9872H27.7382C27.8455 10.9874 27.9484 11.03 28.0242 11.1059C28.1001 11.1818 28.1428 11.2847 28.143 11.392V12.6063H3.85724V11.392ZM4.262 32.0348C4.1547 32.0347 4.05183 31.992 3.97595 31.9161C3.90007 31.8402 3.85738 31.7374 3.85724 31.6301V13.4158H28.143V31.6301C28.1428 31.7374 28.1001 31.8402 28.0242 31.9161C27.9484 31.992 27.8455 32.0347 27.7382 32.0348H4.262Z"
            fill="#2D4356" />
        <path
            d="M12.8237 3.70159C12.9438 3.70159 13.0612 3.66598 13.161 3.59927C13.2609 3.53255 13.3387 3.43773 13.3846 3.32679C13.4306 3.21585 13.4426 3.09377 13.4192 2.976C13.3957 2.85823 13.3379 2.75004 13.253 2.66513C13.1681 2.58022 13.0599 2.5224 12.9421 2.49897C12.8244 2.47554 12.7023 2.48757 12.5914 2.53352C12.4804 2.57947 12.3856 2.65729 12.3189 2.75714C12.2522 2.85698 12.2166 2.97437 12.2166 3.09445C12.2167 3.25542 12.2808 3.40974 12.3946 3.52356C12.5084 3.63738 12.6627 3.70141 12.8237 3.70159ZM12.8237 2.79088C12.8837 2.79088 12.9424 2.80868 12.9924 2.84204C13.0423 2.87539 13.0812 2.92281 13.1042 2.97828C13.1271 3.03375 13.1331 3.09478 13.1214 3.15367C13.1097 3.21256 13.0808 3.26665 13.0384 3.30911C12.9959 3.35156 12.9418 3.38047 12.8829 3.39219C12.824 3.4039 12.763 3.39789 12.7075 3.37491C12.6521 3.35193 12.6046 3.31303 12.5713 3.2631C12.5379 3.21318 12.5201 3.15449 12.5201 3.09445C12.5202 3.01396 12.5522 2.93679 12.6091 2.87988C12.666 2.82296 12.7432 2.79096 12.8237 2.79088Z"
            fill="#2D4356" />
        <path
            d="M31.7917 12.9575C31.7117 12.9575 31.6334 12.9813 31.5669 13.0257C31.5003 13.0702 31.4484 13.1334 31.4178 13.2074C31.3871 13.2813 31.3791 13.3627 31.3947 13.4412C31.4104 13.5198 31.4489 13.5919 31.5055 13.6485C31.5621 13.7051 31.6342 13.7436 31.7128 13.7593C31.7913 13.7749 31.8727 13.7669 31.9466 13.7362C32.0206 13.7056 32.0838 13.6537 32.1283 13.5872C32.1727 13.5206 32.1965 13.4423 32.1965 13.3623C32.1964 13.255 32.1537 13.1521 32.0778 13.0762C32.0019 13.0003 31.899 12.9576 31.7917 12.9575ZM31.7917 13.5647C31.7517 13.5647 31.7126 13.5528 31.6793 13.5306C31.646 13.5083 31.6201 13.4767 31.6047 13.4397C31.5894 13.4027 31.5854 13.3621 31.5932 13.3228C31.601 13.2835 31.6203 13.2475 31.6486 13.2192C31.6769 13.1909 31.713 13.1716 31.7522 13.1638C31.7915 13.156 31.8322 13.16 31.8692 13.1753C31.9062 13.1906 31.9378 13.2166 31.96 13.2498C31.9822 13.2831 31.9941 13.3223 31.9941 13.3623C31.9941 13.4159 31.9727 13.4674 31.9348 13.5053C31.8968 13.5433 31.8454 13.5646 31.7917 13.5647Z"
            fill="#2D4356" />
        <path
            d="M0.714821 2.6897C0.634766 2.6897 0.55651 2.71344 0.489947 2.75791C0.423384 2.80239 0.371505 2.8656 0.340869 2.93956C0.310234 3.01352 0.302218 3.09491 0.317836 3.17342C0.333454 3.25194 0.372004 3.32406 0.428611 3.38067C0.485218 3.43728 0.557339 3.47583 0.635855 3.49144C0.714372 3.50706 0.795756 3.49905 0.869716 3.46841C0.943677 3.43778 1.00689 3.3859 1.05137 3.31933C1.09584 3.25277 1.11958 3.17451 1.11958 3.09446C1.11946 2.98715 1.07678 2.88427 1.0009 2.80838C0.925014 2.7325 0.822132 2.68982 0.714821 2.6897ZM0.714821 3.29684C0.674793 3.29684 0.635665 3.28497 0.602384 3.26273C0.569102 3.24049 0.543163 3.20889 0.527845 3.17191C0.512527 3.13493 0.508519 3.09423 0.516328 3.05498C0.524137 3.01572 0.543412 2.97966 0.571716 2.95135C0.600019 2.92305 0.63608 2.90378 0.675338 2.89597C0.714596 2.88816 0.755288 2.89217 0.792269 2.90748C0.829249 2.9228 0.860856 2.94874 0.883094 2.98202C0.905332 3.0153 0.917202 3.05443 0.917202 3.09446C0.917148 3.14812 0.895809 3.19956 0.857866 3.2375C0.819924 3.27545 0.768479 3.29679 0.714821 3.29684Z"
            fill="#2D4356" />
        <path
            d="M28.9526 8.30273C28.8726 8.30273 28.7943 8.32647 28.7277 8.37095C28.6612 8.41542 28.6093 8.47864 28.5787 8.5526C28.548 8.62656 28.54 8.70795 28.5556 8.78646C28.5712 8.86498 28.6098 8.9371 28.6664 8.99371C28.723 9.05031 28.7951 9.08886 28.8736 9.10448C28.9522 9.1201 29.0335 9.11208 29.1075 9.08145C29.1815 9.05081 29.2447 8.99893 29.2892 8.93237C29.3336 8.86581 29.3574 8.78755 29.3574 8.7075C29.3573 8.60018 29.3146 8.4973 29.2387 8.42142C29.1628 8.34554 29.0599 8.30286 28.9526 8.30273ZM28.9526 8.90988C28.9126 8.90988 28.8735 8.89801 28.8402 8.87577C28.8069 8.85353 28.781 8.82192 28.7656 8.78494C28.7503 8.74796 28.7463 8.70727 28.7541 8.66801C28.7619 8.62876 28.7812 8.59269 28.8095 8.56439C28.8378 8.53609 28.8739 8.51681 28.9131 8.509C28.9524 8.5012 28.9931 8.5052 29.0301 8.52052C29.067 8.53584 29.0986 8.56178 29.1209 8.59506C29.1431 8.62834 29.155 8.66747 29.155 8.7075C29.1549 8.76115 29.1336 8.8126 29.0957 8.85054C29.0577 8.88848 29.0063 8.90982 28.9526 8.90988Z"
            fill="#2D4356" />
        <path
            d="M6.69063 6.08933C6.69063 6.00928 6.66689 5.93102 6.62241 5.86446C6.57794 5.7979 6.51472 5.74602 6.44076 5.71538C6.3668 5.68475 6.28542 5.67673 6.2069 5.69235C6.12838 5.70797 6.05626 5.74652 5.99966 5.80312C5.94305 5.85973 5.9045 5.93185 5.88888 6.01037C5.87326 6.08888 5.88128 6.17027 5.91191 6.24423C5.94255 6.31819 5.99443 6.3814 6.06099 6.42588C6.12755 6.47036 6.20581 6.49409 6.28587 6.49409C6.39318 6.49397 6.49606 6.45129 6.57194 6.37541C6.64782 6.29953 6.6905 6.19664 6.69063 6.08933ZM6.08348 6.08933C6.08348 6.04931 6.09535 6.01018 6.11759 5.9769C6.13983 5.94361 6.17144 5.91767 6.20842 5.90236C6.2454 5.88704 6.28609 5.88303 6.32535 5.89084C6.36461 5.89865 6.40067 5.91792 6.42897 5.94623C6.45727 5.97453 6.47655 6.01059 6.48436 6.04985C6.49217 6.08911 6.48816 6.1298 6.47284 6.16678C6.45752 6.20376 6.43158 6.23537 6.3983 6.25761C6.36502 6.27984 6.32589 6.29171 6.28587 6.29171C6.23221 6.29166 6.18076 6.27032 6.14282 6.23238C6.10488 6.19444 6.08354 6.14299 6.08348 6.08933Z"
            fill="#2D4356" />
        <path
            d="M1.79879 8.48497L2.09973 8.08911L1.90969 7.98145L1.71642 8.42466H1.71015L1.51384 7.98468L1.32056 8.09559L1.61827 8.48193V8.48821L1.15259 8.4279V8.64323L1.6213 8.58312V8.5896L1.32056 8.97574L1.50089 9.08989L1.70691 8.64323H1.71318L1.90322 9.08665L2.10277 8.97271L1.79879 8.59264V8.58636L2.27681 8.64323V8.4279L1.79879 8.49124V8.48497Z"
            fill="#0BCEB2" />
        <path
            d="M16.5415 5.58352L16.3683 5.80593L16.4723 5.87151L16.5909 5.61448H16.5945L16.7038 5.86968L16.8188 5.80411L16.6437 5.58534V5.5817L16.9189 5.61448V5.49042L16.6437 5.52685V5.52321L16.8169 5.29533L16.7077 5.2334L16.5963 5.4886H16.5927L16.4798 5.23522L16.3683 5.29897L16.5399 5.52139V5.52503L16.2717 5.49042V5.61448L16.5415 5.57987V5.58352Z"
            fill="#0BCEB2" />
        <path
            d="M33.3428 2.72252V2.51124L32.8739 2.57337V2.5673L33.1692 2.17893L32.9828 2.07349L32.7933 2.5082H32.7869L32.5944 2.07652L32.4048 2.1852L32.6968 2.56426V2.57033L32.2402 2.51124V2.72252L32.6998 2.66363V2.6697L32.4048 3.04856L32.5819 3.16047L32.7838 2.72252H32.7899L32.9763 3.15724L33.172 3.04552L32.8739 2.67274V2.66666L33.3428 2.72252Z"
            fill="#0BCEB2" />
        <path
            d="M24.3235 0.748075L24.5781 0.413337L24.4174 0.322266L24.2539 0.697278H24.2486L24.0825 0.324897L23.9189 0.418599L24.1709 0.745444V0.750908L23.7769 0.699908V0.882051L24.1735 0.831254V0.836516L23.9189 1.16336L24.0715 1.2599L24.246 0.882051H24.2512L24.4119 1.25727L24.5807 1.16073L24.3235 0.839147V0.833885L24.728 0.882051V0.699908L24.3235 0.753539V0.748075Z"
            fill="#0BCEB2" />
    </g>
    <defs>
        <clipPath id="clip0_838_29105">
            <rect width="34" height="34" fill="white" />
        </clipPath>
    </defs>
</svg>