<svg width="25" height="25" viewBox="0 0 25 25" fill="none" xmlns="http://www.w3.org/2000/svg">
<path d="M13 0H12C11.1716 0 10.5 0.671573 10.5 1.5V3.5C10.5 4.32843 11.1716 5 12 5H13C13.8284 5 14.5 4.32843 14.5 3.5V1.5C14.5 0.671573 13.8284 0 13 0Z" fill="#4C7DA7"/>
<path d="M20 0H19C18.1716 0 17.5 0.671573 17.5 1.5V3.5C17.5 4.32843 18.1716 5 19 5H20C20.8284 5 21.5 4.32843 21.5 3.5V1.5C21.5 0.671573 20.8284 0 20 0Z" fill="#4C7DA7"/>
<path d="M6 0H5C4.17157 0 3.5 0.671573 3.5 1.5V3.5C3.5 4.32843 4.17157 5 5 5H6C6.82843 5 7.5 4.32843 7.5 3.5V1.5C7.5 0.671573 6.82843 0 6 0Z" fill="#4C7DA7"/>
<path d="M14 17.5H11C10.7239 17.5 10.5 17.7239 10.5 18V21C10.5 21.2761 10.7239 21.5 11 21.5H14C14.2761 21.5 14.5 21.2761 14.5 21V18C14.5 17.7239 14.2761 17.5 14 17.5Z" fill="#4C7DA7"/>
<path d="M21 10H18C17.7239 10 17.5 10.2239 17.5 10.5V13.5C17.5 13.7761 17.7239 14 18 14H21C21.2761 14 21.5 13.7761 21.5 13.5V10.5C21.5 10.2239 21.2761 10 21 10Z" fill="#4C7DA7"/>
<path d="M7 10H4C3.72386 10 3.5 10.2239 3.5 10.5V13.5C3.5 13.7761 3.72386 14 4 14H7C7.27614 14 7.5 13.7761 7.5 13.5V10.5C7.5 10.2239 7.27614 10 7 10Z" fill="#4C7DA7"/>
<path d="M0 23.5C0 24.3272 0.672849 25 1.5 25H18.5V22.5H18C17.1728 22.5 16.5 21.8272 16.5 21V18C16.5 17.1729 17.1728 16.5 18 16.5H21C21.8272 16.5 22.5 17.1729 22.5 18V18.5H25V7.5H0V23.5ZM16.5 10.5C16.5 9.67285 17.1728 9 18 9H21C21.8272 9 22.5 9.67285 22.5 10.5V13.5C22.5 14.3272 21.8272 15 21 15H18C17.1728 15 16.5 14.3272 16.5 13.5V10.5ZM9.5 10.5C9.5 9.67285 10.1728 9 11 9H14C14.8271 9 15.5 9.67285 15.5 10.5V13.5C15.5 14.3272 14.8272 15 14 15H11C10.1729 15 9.5 14.3272 9.5 13.5V10.5ZM9.5 18C9.5 17.1729 10.1728 16.5 11 16.5H14C14.8271 16.5 15.5 17.1729 15.5 18V21C15.5 21.8272 14.8272 22.5 14 22.5H11C10.1729 22.5 9.5 21.8272 9.5 21V18ZM2.5 10.5C2.5 9.67285 3.17285 9 4 9H7C7.82715 9 8.5 9.67285 8.5 10.5V13.5C8.5 14.3272 7.82715 15 7 15H4C3.17285 15 2.5 14.3272 2.5 13.5V10.5ZM2.5 18C2.5 17.1729 3.17285 16.5 4 16.5H7C7.82715 16.5 8.5 17.1729 8.5 18V21C8.5 21.8272 7.82715 22.5 7 22.5H4C3.17285 22.5 2.5 21.8272 2.5 21V18Z" fill="#4C7DA7"/>
<path d="M19.5 24.707L24.707 19.5H19.5V24.707Z" fill="#4C7DA7"/>
<path d="M21.5 18C21.5 17.7241 21.2759 17.5 21 17.5H18C17.7241 17.5 17.5 17.7241 17.5 18V21C17.5 21.2759 17.7241 21.5 18 21.5H18.5V19C18.5 18.7236 18.7236 18.5 19 18.5H21.5V18Z" fill="#4C7DA7"/>
<path d="M14 10H11C10.7239 10 10.5 10.2239 10.5 10.5V13.5C10.5 13.7761 10.7239 14 11 14H14C14.2761 14 14.5 13.7761 14.5 13.5V10.5C14.5 10.2239 14.2761 10 14 10Z" fill="#4C7DA7"/>
<path d="M7 17.5H4C3.72386 17.5 3.5 17.7239 3.5 18V21C3.5 21.2761 3.72386 21.5 4 21.5H7C7.27614 21.5 7.5 21.2761 7.5 21V18C7.5 17.7239 7.27614 17.5 7 17.5Z" fill="#4C7DA7"/>
<path d="M23.5 2H22.5V3.5C22.5 4.87842 21.3784 6 20 6H19C17.6216 6 16.5 4.87842 16.5 3.5V2H15.5V3.5C15.5 4.87842 14.3784 6 13 6H12C10.6216 6 9.5 4.87842 9.5 3.5V2H8.5V3.5C8.5 4.87842 7.37842 6 6 6H5C3.62158 6 2.5 4.87842 2.5 3.5V2H1.5C0.672849 2 0 2.67285 0 3.5V6.5H25V3.5C25 2.67285 24.3272 2 23.5 2Z" fill="#4C7DA7"/>
</svg>
