<svg width="21" height="25" viewBox="0 0 21 25" fill="none" xmlns="http://www.w3.org/2000/svg">
<path d="M8.24291 3.10961H8.77944V3.69745C9.32624 3.61464 9.88597 3.57143 10.4557 3.57143C11.0254 3.57143 11.5851 3.61464 12.1319 3.69745V3.10961H12.6682C12.8431 3.10961 12.9851 2.96846 12.9851 2.79449V1.15546C12.9851 0.518441 12.464 0 11.8233 0H9.08783C8.44733 0 7.92606 0.518441 7.92606 1.15546V2.79449C7.92606 2.96846 8.06799 3.10961 8.24291 3.10961Z" fill="#4C7DA7"/>
<path d="M10.4559 7.35294C6.43755 7.35294 3.16845 10.6043 3.16845 14.6008C3.16845 18.5974 6.43755 21.8487 10.4559 21.8487C14.4742 21.8487 17.7433 18.5974 17.7433 14.6008C17.7433 10.6043 14.4742 7.35294 10.4559 7.35294ZM10.139 8.548C10.139 8.37403 10.2809 8.23287 10.4559 8.23287C10.6308 8.23287 10.7727 8.37403 10.7727 8.548V9.4466C10.7727 9.62058 10.6308 9.76173 10.4559 9.76173C10.2809 9.76173 10.139 9.62058 10.139 9.4466V8.548ZM5.27352 14.916H4.37002C4.1951 14.916 4.05318 14.7748 4.05318 14.6008C4.05318 14.4269 4.1951 14.2857 4.37002 14.2857H5.27352C5.44845 14.2857 5.59037 14.4269 5.59037 14.6008C5.59037 14.7748 5.44845 14.916 5.27352 14.916ZM7.01534 18.4683L6.3765 19.1037C6.31461 19.1652 6.23354 19.196 6.15248 19.196C6.07141 19.196 5.99034 19.1652 5.92846 19.1037C5.80469 18.9806 5.80469 18.7812 5.92846 18.6581L6.56731 18.0227C6.69108 17.8996 6.89158 17.8996 7.01535 18.0227C7.13912 18.1458 7.13911 18.3452 7.01534 18.4683ZM7.01534 11.179C6.95346 11.2405 6.87239 11.2713 6.79133 11.2713C6.71026 11.2713 6.62919 11.2405 6.56731 11.179L5.92846 10.5436C5.80469 10.4205 5.80469 10.2211 5.92846 10.098C6.05223 9.97489 6.25273 9.97489 6.3765 10.098L7.01535 10.7334C7.13912 10.8565 7.13911 11.0559 7.01534 11.179ZM10.7727 20.6537C10.7727 20.8277 10.6308 20.9688 10.4559 20.9688C10.2809 20.9688 10.139 20.8277 10.139 20.6537V19.7551C10.139 19.5811 10.2809 19.44 10.4559 19.44C10.6308 19.44 10.7727 19.5811 10.7727 19.7551V20.6537ZM12.8545 14.2857C13.0294 14.2857 13.1713 14.4269 13.1713 14.6008C13.1713 14.7748 13.0294 14.916 12.8545 14.916H10.4559C10.3278 14.916 10.2123 14.8392 10.1632 14.7215C10.1141 14.6037 10.1413 14.4681 10.2319 14.378L12.6305 11.9922C12.7542 11.8691 12.9547 11.8691 13.0785 11.9922C13.2023 12.1153 13.2023 12.3147 13.0785 12.4378L11.2208 14.2857L12.8545 14.2857ZM14.9833 19.1037C14.9214 19.1652 14.8405 19.196 14.7593 19.196C14.678 19.196 14.5971 19.1652 14.5352 19.1037L13.8962 18.4683C13.7724 18.3454 13.7724 18.1458 13.8962 18.0227C14.02 17.8996 14.2205 17.8996 14.3442 18.0227L14.9833 18.6581C15.107 18.781 15.107 18.9806 14.9833 19.1037ZM14.9833 10.5436L14.3442 11.179C14.2823 11.2405 14.2015 11.2713 14.1202 11.2713C14.0389 11.2713 13.9581 11.2405 13.8962 11.179C13.7724 11.0559 13.7724 10.8563 13.8962 10.7334L14.5352 10.098C14.659 9.97489 14.8595 9.97489 14.9833 10.098C15.107 10.2211 15.107 10.4207 14.9833 10.5436ZM16.5419 14.2857C16.7168 14.2857 16.8588 14.4269 16.8588 14.6008C16.8588 14.7748 16.7168 14.916 16.5419 14.916H15.6384C15.4635 14.916 15.3216 14.7748 15.3216 14.6008C15.3216 14.4269 15.4635 14.2857 15.6384 14.2857H16.5419Z" fill="#4C7DA7"/>
<path d="M10.4559 4.20168C4.69058 4.20168 0 8.86682 0 14.6008C0 20.3349 4.69058 25 10.4559 25C16.2212 25 20.9117 20.3349 20.9117 14.6008C20.9117 8.86682 16.2214 4.20168 10.4559 4.20168ZM10.4559 22.479C6.08812 22.479 2.53476 18.9449 2.53476 14.6008C2.53476 10.2568 6.08812 6.72269 10.4559 6.72269C14.8236 6.72269 18.377 10.2568 18.377 14.6008C18.377 18.9449 14.8236 22.479 10.4559 22.479Z" fill="#4C7DA7"/>
<path d="M19.5826 8.34579L20.4121 7.52076C20.7912 7.14388 21 6.64268 21 6.10967C21 5.57666 20.7912 5.07546 20.4121 4.69858C20.0334 4.32149 19.5292 4.11387 18.9933 4.11387C18.4574 4.11387 17.9533 4.32149 17.5745 4.69837L16.7449 5.5235C17.8537 6.28573 18.8162 7.24305 19.5826 8.34579Z" fill="#4C7DA7"/>
</svg>
