<svg width="79" height="78" viewBox="0 0 79 78" fill="none" xmlns="http://www.w3.org/2000/svg">
    <g clip-path="url(#clip0_715_31417)">
        <path
            d="M26.8805 65.0374C26.7361 64.9538 26.6307 64.8164 26.5875 64.6552C26.5442 64.4941 26.5667 64.3223 26.6499 64.1777L27.9145 61.9868C27.941 61.5413 27.9914 61.0976 28.0656 60.6575C28.0131 60.5798 27.9492 60.5106 27.8759 60.4522C26.6393 59.488 25.5265 58.3748 24.5627 57.1379C24.425 56.9611 24.228 56.84 24.008 56.7971C23.788 56.7542 23.5599 56.7924 23.3659 56.9046L20.8382 58.3641C20.6937 58.4474 20.522 58.47 20.3609 58.4268C20.1998 58.3837 20.0624 58.2783 19.979 58.1339L18.8108 56.1097C18.7276 55.9651 18.7051 55.7935 18.7483 55.6324C18.7914 55.4712 18.8968 55.3338 19.0411 55.2502L21.5641 53.793C21.7583 53.6808 21.9054 53.5021 21.9782 53.29C22.0509 53.0778 22.0445 52.8464 21.9599 52.6387C21.3699 51.1858 20.9636 49.6649 20.7507 48.1113C20.7202 47.889 20.6102 47.6852 20.4411 47.5377C20.272 47.3901 20.0551 47.3088 19.8307 47.3088H16.914C16.7472 47.3086 16.5873 47.2422 16.4693 47.1242C16.3514 47.0062 16.2851 46.8463 16.2849 46.6795V44.3423C16.285 44.1755 16.3514 44.0156 16.4693 43.8976C16.5873 43.7796 16.7472 43.7133 16.914 43.713H19.8307C20.0552 43.713 20.272 43.6317 20.4411 43.4841C20.6102 43.3366 20.7202 43.1328 20.7507 42.9105C20.9637 41.3569 21.3699 39.836 21.9599 38.3831C22.0445 38.1754 22.051 37.944 21.9782 37.7319C21.9054 37.5197 21.7584 37.341 21.5641 37.2288L19.0411 35.7716C18.8968 35.688 18.7915 35.5506 18.7483 35.3895C18.7051 35.2283 18.7276 35.0567 18.8108 34.9121L19.979 32.8881C20.0626 32.7438 20.2 32.6385 20.3611 32.5952C20.5221 32.552 20.6938 32.5744 20.8384 32.6575L23.3659 34.1173C23.56 34.2293 23.788 34.2673 24.008 34.2245C24.2279 34.1816 24.4249 34.0606 24.5627 33.8839C25.5265 32.647 26.6393 31.5338 27.8759 30.5696C27.9797 30.4883 28.065 30.3858 28.1259 30.2689C28.1869 30.152 28.2222 30.0234 28.2294 29.8918C27.7754 29.1856 26.6503 26.845 26.65 26.8441C26.5886 26.7325 26.5618 26.6052 26.5729 26.4783C26.5841 26.3514 26.6326 26.2306 26.7124 26.1313C26.619 25.7136 26.5512 25.2906 26.5092 24.8646C26.4851 24.5821 26.5044 24.2975 26.5663 24.0208L25.9517 24.3757C25.3812 24.7061 24.965 25.2493 24.7944 25.8862C24.6238 26.5231 24.7127 27.2016 25.0417 27.773L26.1047 29.6151C25.2037 30.3756 24.3687 31.2109 23.6085 32.1121L21.767 31.0488C21.1958 30.7198 20.5173 30.6308 19.8806 30.8015C19.2439 30.9721 18.7009 31.3884 18.3708 31.959L17.2026 33.9832C16.8728 34.5544 16.7834 35.2332 16.9541 35.8702C17.1247 36.5073 17.5415 37.0505 18.1126 37.3803L19.9489 38.441C19.5481 39.551 19.2431 40.6933 19.0371 41.8553H16.914C16.2547 41.8562 15.6227 42.1185 15.1566 42.5847C14.6905 43.051 14.4284 43.6831 14.4277 44.3423V46.6795C14.4284 47.3388 14.6905 47.9708 15.1566 48.4371C15.6227 48.9033 16.2547 49.1657 16.914 49.1665H19.037C19.2431 50.3286 19.5481 51.4708 19.9488 52.5809L18.1125 53.6415C17.5414 53.9713 17.1247 54.5145 16.954 55.1516C16.7834 55.7886 16.8728 56.4674 17.2025 57.0386L18.3707 59.063C18.7009 59.6336 19.2439 60.0499 19.8806 60.2205C20.5174 60.391 21.1958 60.302 21.767 59.9728L23.6082 58.9095C24.3685 59.8107 25.2037 60.6461 26.1047 61.4067L25.0417 63.2488C24.7128 63.8202 24.6239 64.4987 24.7945 65.1356C24.9651 65.7724 25.3812 66.3156 25.9517 66.6461L27.9752 67.8147C28.4472 68.0851 28.9955 68.1916 29.5344 68.1173C29.0465 67.4418 28.6611 66.6979 28.3907 65.9096L26.8805 65.0374Z"
            fill="#2D4356" />
        <path
            d="M62.0851 41.8553H59.962C59.756 40.6933 59.451 39.551 59.0503 38.441L60.8865 37.3803C61.4577 37.0505 61.8744 36.5073 62.0451 35.8703C62.2157 35.2332 62.1263 34.5544 61.7965 33.9832L60.6283 31.9588C60.2982 31.3883 59.7551 30.9721 59.1184 30.8015C58.4817 30.6309 57.8033 30.7198 57.2321 31.0488L55.3906 32.1121C54.6304 31.2109 53.7954 30.3756 52.8944 29.6151L53.9574 27.773C54.2864 27.2016 54.3753 26.5231 54.2048 25.8862C54.0342 25.2493 53.618 24.7061 53.0474 24.3757L52.4328 24.0208C52.4947 24.2975 52.514 24.5821 52.49 24.8646C52.4479 25.2906 52.3801 25.7136 52.2867 26.1313C52.3701 26.2289 52.4209 26.35 52.4321 26.4777C52.4433 26.6055 52.4143 26.7336 52.3492 26.8441C52.3492 26.8441 51.2237 29.1855 50.7697 29.8918C50.7769 30.0234 50.8122 30.152 50.8732 30.2689C50.9342 30.3858 51.0194 30.4883 51.1232 30.5696C52.3598 31.5338 53.4726 32.647 54.4364 33.8839C54.5741 34.0608 54.7711 34.1818 54.9911 34.2247C55.2111 34.2676 55.4392 34.2294 55.6332 34.1173L58.1607 32.6575C58.3053 32.5745 58.4769 32.5521 58.638 32.5953C58.799 32.6385 58.9364 32.7437 59.0201 32.8879L60.1883 34.9121C60.2715 35.0567 60.294 35.2283 60.2508 35.3895C60.2077 35.5506 60.1023 35.688 59.958 35.7716L57.435 37.2289C57.2408 37.341 57.0937 37.5197 57.0209 37.7319C56.9482 37.944 56.9547 38.1754 57.0392 38.3831C57.6292 39.836 58.0355 41.3569 58.2484 42.9105C58.2789 43.1328 58.3889 43.3366 58.558 43.4842C58.7271 43.6317 58.944 43.713 59.1684 43.713H62.0851C62.2519 43.7133 62.4118 43.7796 62.5298 43.8976C62.6477 44.0156 62.714 44.1755 62.7142 44.3424V46.6795C62.714 46.8463 62.6477 47.0062 62.5298 47.1242C62.4118 47.2422 62.2519 47.3086 62.0851 47.3088H59.1684C58.9439 47.3088 58.7271 47.3901 58.558 47.5377C58.3889 47.6852 58.2789 47.889 58.2484 48.1114C58.0354 49.6649 57.6292 51.1858 57.0392 52.6387C56.9546 52.8465 56.9481 53.0778 57.0209 53.29C57.0936 53.5022 57.2407 53.6808 57.435 53.793L59.958 55.2502C60.1023 55.3338 60.2076 55.4712 60.2508 55.6324C60.294 55.7935 60.2715 55.9652 60.1883 56.1097L59.0201 58.1337C58.9367 58.2782 58.7993 58.3837 58.6381 58.4269C58.4769 58.4701 58.3052 58.4475 58.1607 58.3641L55.6332 56.9046C55.4392 56.7923 55.2111 56.7541 54.9911 56.797C54.7711 56.8399 54.574 56.961 54.4364 57.1379C53.4726 58.3748 52.3598 59.488 51.1232 60.4522C51.05 60.5106 50.9861 60.5797 50.9337 60.6573C51.0079 61.0975 51.0583 61.5414 51.0848 61.987L52.3492 64.1777C52.4324 64.3223 52.4549 64.494 52.4117 64.6552C52.3685 64.8163 52.2632 64.9538 52.1188 65.0374L50.6087 65.9095C50.3384 66.6979 49.9529 67.442 49.4648 68.1177C50.0037 68.192 50.5521 68.0855 51.0239 67.8147L53.0476 66.6462C53.6181 66.3156 54.0341 65.7724 54.2047 65.1355C54.3752 64.4987 54.2863 63.8202 53.9574 63.2488L52.8944 61.4067C53.7954 60.6461 54.6305 59.8108 55.3909 58.9095L57.2319 59.9728C57.8031 60.3022 58.4816 60.3914 59.1185 60.2208C59.7553 60.0501 60.2984 59.6336 60.6284 59.0628L61.7965 57.0386C62.1263 56.4674 62.2157 55.7887 62.0451 55.1516C61.8744 54.5145 61.4577 53.9713 60.8865 53.6415L59.0503 52.5809C59.451 51.4708 59.756 50.3286 59.9621 49.1665H62.0851C62.7444 49.1657 63.3764 48.9033 63.8425 48.4371C64.3086 47.9708 64.5707 47.3388 64.5714 46.6795V44.3424C64.5707 43.6831 64.3086 43.051 63.8425 42.5847C63.3764 42.1185 62.7444 41.8562 62.0851 41.8553Z"
            fill="#2D4356" />
        <path
            d="M54.3571 45.5109C54.3596 42.4597 53.4176 39.4826 51.6605 36.9882C51.3952 37.6467 51.0631 38.2763 50.6695 38.8671C52.1641 41.374 52.7699 44.3116 52.389 47.2052C52.0081 50.0989 50.6628 52.7796 48.5703 54.8144C48.9059 55.3453 49.2261 55.8975 49.5197 56.4738C51.0444 55.0836 52.2622 53.3905 53.0952 51.5028C53.9282 49.6151 54.358 47.5743 54.3571 45.5109Z"
            fill="#0BCEB2" />
        <path
            d="M27.3393 36.9882C25.2644 39.9406 24.3372 43.5483 24.7313 47.1353C25.1255 50.7223 26.8139 54.0426 29.4803 56.4741C29.7738 55.8979 30.0941 55.3455 30.4296 54.8146C28.3371 52.7799 26.9917 50.0991 26.6108 47.2054C26.2298 44.3117 26.8356 41.374 28.3302 38.8671C27.9366 38.2763 27.6045 37.6467 27.3393 36.9882Z"
            fill="#0BCEB2" />
        <path
            d="M30.998 39.1279C32.7703 40.6707 35.131 40.8668 36.2165 40.8668C36.8815 40.8668 37.7125 40.7074 37.6397 39.8414C37.6274 39.6958 37.3112 36.2551 35.0025 34.2455C32.6769 32.2213 29.3381 32.5158 29.1973 32.529C28.9539 32.5523 28.7295 32.6708 28.5729 32.8586C28.4163 33.0464 28.34 33.2884 28.3608 33.532C28.373 33.6776 28.6893 37.1182 30.998 39.1279ZM33.7832 35.6469C34.7091 36.5545 35.3436 37.7174 35.6057 38.9871C34.372 38.9324 33.1867 38.4914 32.2172 37.7264C31.2913 36.8189 30.6569 35.656 30.3947 34.3863C31.6285 34.441 32.8138 34.882 33.7832 35.6469Z"
            fill="#0BCEB2" />
        <path
            d="M30.998 30.3036C32.7703 31.8462 35.1308 32.0425 36.2161 32.0425C36.8634 32.0425 37.7125 31.8751 37.6397 31.017C37.6274 30.8714 37.3112 27.4308 35.0025 25.4211C32.6769 23.3969 29.3381 23.6913 29.1973 23.7046C28.9539 23.728 28.7295 23.8464 28.5729 24.0342C28.4163 24.222 28.34 24.464 28.3608 24.7077C28.373 24.8532 28.6893 28.2939 30.998 30.3036ZM33.7832 26.8226C34.7091 27.7302 35.3436 28.893 35.6057 30.1627C34.372 30.108 33.1867 29.667 32.2172 28.9021C31.2913 27.9945 30.6569 26.8316 30.3947 25.5619C31.6284 25.6166 32.8138 26.0576 33.7832 26.8226Z"
            fill="#0BCEB2" />
        <path
            d="M49.8028 32.5289C49.6625 32.5158 46.3234 32.2209 43.9976 34.2454C41.689 36.255 41.3727 39.6955 41.3604 39.8413C41.3469 40.0084 41.3795 40.176 41.4548 40.3258C41.5301 40.4755 41.6451 40.6017 41.7873 40.6905C42.0958 40.8434 42.4417 40.9046 42.7839 40.8668C43.8691 40.8668 46.23 40.6706 48.0021 39.1279C50.3108 37.1182 50.6271 33.6775 50.6393 33.532C50.6601 33.2883 50.5839 33.0463 50.4272 32.8585C50.2706 32.6707 50.0462 32.5523 49.8028 32.5289ZM46.7829 37.7264C45.813 38.4874 44.6298 38.9268 43.3983 38.9832C43.6617 37.7158 44.2945 36.5549 45.2169 35.6468C46.1867 34.8858 47.37 34.4464 48.6015 34.39C48.3381 35.6574 47.7053 36.8183 46.7829 37.7264Z"
            fill="#0BCEB2" />
        <path
            d="M42.1973 32.0201C42.2309 32.0233 42.4453 32.0426 42.7842 32.0426C43.8695 32.0426 46.2303 31.8464 48.0025 30.3036C50.3112 28.294 50.6274 24.8533 50.6397 24.7077C50.6604 24.4641 50.5842 24.2221 50.4276 24.0343C50.2709 23.8465 50.0466 23.7281 49.8032 23.7047C49.6628 23.6918 46.3237 23.3968 43.998 25.4212C41.6893 27.4309 41.373 30.8715 41.3608 31.0171C41.34 31.2607 41.4163 31.5027 41.5729 31.6905C41.7295 31.8783 41.9539 31.9968 42.1973 32.0201ZM45.2172 26.8226C46.1871 26.0616 47.3703 25.6222 48.6018 25.5659C48.3384 26.8332 47.7056 27.9941 46.7832 28.9022C45.8134 29.6632 44.6301 30.1026 43.3986 30.159C43.662 28.8917 44.2948 27.7307 45.2172 26.8226Z"
            fill="#0BCEB2" />
        <path
            d="M39.8463 59.2675C39.2235 59.0552 38.8628 58.9187 38.691 58.5792C38.615 58.4319 38.5738 58.269 38.5707 58.1033C38.5676 57.9375 38.6026 57.7732 38.6731 57.6231C38.9612 57.0947 39.7116 57.2453 39.7948 57.2644C40.0121 57.3306 40.2033 57.4629 40.3418 57.6429C40.4198 57.7366 40.5155 57.8141 40.6235 57.8708C40.7314 57.9276 40.8495 57.9626 40.9709 57.9737C41.0923 57.9848 41.2148 57.9719 41.3313 57.9358C41.4477 57.8996 41.5559 57.8408 41.6497 57.7628C41.7434 57.6848 41.8209 57.5891 41.8776 57.4812C41.9344 57.3733 41.9694 57.2552 41.9805 57.1338C41.9916 57.0123 41.9787 56.8899 41.9426 56.7734C41.9064 56.6569 41.8476 56.5488 41.7696 56.455C41.4117 56.0173 40.9359 55.6912 40.3985 55.5154V54.7995C40.3985 54.5533 40.3007 54.3171 40.1266 54.1429C39.9524 53.9688 39.7162 53.871 39.47 53.871C39.2237 53.871 38.9875 53.9688 38.8134 54.1429C38.6392 54.3171 38.5414 54.5533 38.5414 54.7995V55.5149C37.903 55.71 37.3658 56.1464 37.044 56.7312C36.8268 57.1457 36.7125 57.6064 36.711 58.0744C36.7094 58.5424 36.8205 59.0039 37.035 59.4199C37.5559 60.4496 38.5337 60.7828 39.2473 61.0259C40.0122 61.2867 40.2899 61.4153 40.4015 61.8298C40.4432 61.9944 40.4282 62.1683 40.3589 62.3234C40.2897 62.4785 40.1702 62.6057 40.0197 62.6845C39.7915 62.7791 39.5394 62.7998 39.2989 62.7438C39.0583 62.6878 38.8413 62.5579 38.6783 62.3723C38.5929 62.2852 38.4912 62.2158 38.379 62.168C38.2668 62.1202 38.1463 62.095 38.0244 62.0938C37.9024 62.0926 37.7814 62.1154 37.6683 62.161C37.5552 62.2065 37.4521 62.2739 37.365 62.3593C37.278 62.4447 37.2086 62.5464 37.1608 62.6586C37.113 62.7708 37.0878 62.8913 37.0866 63.0133C37.0854 63.1352 37.1082 63.2562 37.1538 63.3693C37.1993 63.4825 37.2667 63.5855 37.3521 63.6726C37.6868 64.0152 38.0928 64.2798 38.5414 64.4476V65.0171C38.5414 65.2634 38.6392 65.4996 38.8134 65.6737C38.9875 65.8479 39.2237 65.9457 39.4699 65.9457C39.7162 65.9457 39.9524 65.8479 40.1265 65.6737C40.3007 65.4996 40.3985 65.2634 40.3985 65.0171V64.5204C40.5589 64.4741 40.7147 64.4134 40.8642 64.3391C41.3921 64.0658 41.8114 63.6212 42.0534 63.0782C42.2954 62.5352 42.3456 61.9261 42.1958 61.3509C41.8163 59.939 40.6778 59.5509 39.8463 59.2675Z"
            fill="#0BCEB2" />
        <path
            d="M1.42857 70.5714C1.94141 70.5714 2.35714 70.1556 2.35714 69.6428C2.35714 69.13 1.94141 68.7142 1.42857 68.7142C0.915736 68.7142 0.5 69.13 0.5 69.6428C0.5 70.1556 0.915736 70.5714 1.42857 70.5714Z"
            fill="#2D4356" />
        <path
            d="M5.60658 68.7142H4.21373C3.96746 68.7142 3.73127 68.8121 3.55713 68.9862C3.38299 69.1603 3.28516 69.3965 3.28516 69.6428C3.28516 69.8891 3.38299 70.1253 3.55713 70.2994C3.73127 70.4735 3.96746 70.5714 4.21373 70.5714H5.60658C5.85286 70.5714 6.08904 70.4735 6.26318 70.2994C6.43732 70.1253 6.53516 69.8891 6.53516 69.6428C6.53516 69.3965 6.43732 69.1603 6.26318 68.9862C6.08904 68.8121 5.85286 68.7142 5.60658 68.7142Z"
            fill="#2D4356" />
        <path
            d="M74.7863 68.7142H73.3934C73.1471 68.7142 72.911 68.8121 72.7368 68.9862C72.5627 69.1603 72.4648 69.3965 72.4648 69.6428C72.4648 69.8891 72.5627 70.1253 72.7368 70.2994C72.911 70.4735 73.1471 70.5714 73.3934 70.5714H74.7863C75.0325 70.5714 75.2687 70.4735 75.4429 70.2994C75.617 70.1253 75.7148 69.8891 75.7148 69.6428C75.7148 69.3965 75.617 69.1603 75.4429 68.9862C75.2687 68.8121 75.0325 68.7142 74.7863 68.7142Z"
            fill="#2D4356" />
        <path
            d="M77.5711 70.5714C78.084 70.5714 78.4997 70.1556 78.4997 69.6428C78.4997 69.13 78.084 68.7142 77.5711 68.7142C77.0583 68.7142 76.6426 69.13 76.6426 69.6428C76.6426 70.1556 77.0583 70.5714 77.5711 70.5714Z"
            fill="#2D4356" />
        <path
            d="M55.3569 72.4286H51.4997C51.2663 72.4473 51.0485 72.5532 50.8896 72.7253C50.7308 72.8974 50.6426 73.123 50.6426 73.3572C50.6426 73.5913 50.7308 73.8169 50.8896 73.989C51.0485 74.1611 51.2663 74.267 51.4997 74.2857H55.3569C55.5903 74.267 55.8081 74.1611 55.967 73.989C56.1258 73.8169 56.214 73.5913 56.214 73.3572C56.214 73.123 56.1258 72.8974 55.967 72.7253C55.8081 72.5532 55.5903 72.4473 55.3569 72.4286Z"
            fill="#0BCEB2" />
        <path
            d="M27.4995 72.4286H23.6423C23.4089 72.4473 23.191 72.5532 23.0322 72.7253C22.8734 72.8974 22.7852 73.123 22.7852 73.3572C22.7852 73.5913 22.8734 73.8169 23.0322 73.989C23.191 74.1611 23.4089 74.267 23.6423 74.2857H27.4995C27.7329 74.267 27.9507 74.1611 28.1096 73.989C28.2684 73.8169 28.3566 73.5913 28.3566 73.3572C28.3566 73.123 28.2684 72.8974 28.1096 72.7253C27.9507 72.5532 27.7329 72.4473 27.4995 72.4286Z"
            fill="#0BCEB2" />
        <path
            d="M48.7852 72.4286H30.2137C29.9675 72.4286 29.7313 72.5264 29.5571 72.7006C29.383 72.8747 29.2852 73.1109 29.2852 73.3572C29.2852 73.6034 29.383 73.8396 29.5571 74.0138C29.7313 74.1879 29.9675 74.2857 30.2137 74.2857H37.6144V75.2143H33.928C33.6817 75.2143 33.4456 75.3121 33.2714 75.4863C33.0973 75.6604 32.9994 75.8966 32.9994 76.1429C32.9994 76.3891 33.0973 76.6253 33.2714 76.7995C33.4456 76.9736 33.6817 77.0714 33.928 77.0714H45.5352C45.7814 77.0714 46.0176 76.9736 46.1918 76.7995C46.3659 76.6253 46.4637 76.3891 46.4637 76.1429C46.4637 75.8966 46.3659 75.6604 46.1918 75.4863C46.0176 75.3121 45.7814 75.2143 45.5352 75.2143H41.3844V74.2857H48.7852C49.0314 74.2857 49.2676 74.1879 49.4418 74.0138C49.6159 73.8396 49.7137 73.6034 49.7137 73.3572C49.7137 73.1109 49.6159 72.8747 49.4418 72.7006C49.2676 72.5264 49.0314 72.4286 48.7852 72.4286Z"
            fill="#0BCEB2" />
        <path
            d="M70.4781 68.7143H46.2333C47.1038 68.115 47.8261 67.3249 48.345 66.4042C48.8639 65.4835 49.1658 64.4565 49.2277 63.4014C49.4735 59.6029 47.7147 56.6521 45.7778 54.0294C45.7778 54.0294 43.669 51.1841 42.9265 50.0682C42.1492 48.8996 43.1453 47.1113 44.2475 45.9209C45.0132 45.094 45.3745 43.8143 44.2951 43.0578C43.9081 42.7826 43.4278 42.6719 42.9594 42.7501C42.3565 42.8985 41.8031 43.2023 41.3544 43.6314C41.1501 43.8304 40.911 43.9902 40.6491 44.1031C40.5546 44.0853 40.4381 44.027 40.429 43.7192V24.4182C41.2612 23.4936 43.1664 21.0624 43.2138 18.1241C43.2734 14.435 40.3773 11.5322 40.2542 11.4104C40.0823 11.2409 39.8512 11.1449 39.6098 11.1429C39.3683 11.1408 39.1356 11.2328 38.9608 11.3993C38.8337 11.5206 35.8464 14.4132 35.787 18.0942C35.7353 21.2972 37.9144 23.9043 38.5718 24.617V43.0422C38.2563 43.1745 37.9689 43.3656 37.7249 43.6054C37.6073 43.7421 37.4437 43.831 37.265 43.8552C37.0538 43.8167 36.8532 43.7338 36.6766 43.6118C36.2217 43.3423 35.7003 43.2059 35.1717 43.2182C34.9497 43.2447 34.7367 43.3218 34.5491 43.4435C34.3615 43.5652 34.2044 43.7283 34.0897 43.9203C33.9244 44.2028 33.4937 45.2211 34.8861 46.4577C34.8992 46.4695 34.9126 46.4808 34.9264 46.4917C35.5239 47.0026 35.965 47.6719 36.1989 48.4224C36.4145 49.2524 35.9371 50.1777 35.4415 50.9732C34.9813 51.7123 33.4425 53.7326 33.2232 54.0292C31.2863 56.6524 29.5275 59.6032 29.7731 63.4014C29.8351 64.4565 30.137 65.4835 30.656 66.4042C31.1749 67.3248 31.8972 68.1149 32.7677 68.7143H8.52264C8.39053 68.697 8.25627 68.7081 8.12881 68.7469C8.00135 68.7857 7.88363 68.8512 7.78351 68.9391C7.68339 69.027 7.60318 69.1352 7.54822 69.2566C7.49327 69.3779 7.46484 69.5096 7.46484 69.6428C7.46484 69.7761 7.49327 69.9078 7.54822 70.0291C7.60318 70.1505 7.68339 70.2587 7.78351 70.3466C7.88363 70.4345 8.00135 70.5 8.12881 70.5388C8.25627 70.5775 8.39053 70.5887 8.52264 70.5714H70.4781C70.6102 70.5887 70.7445 70.5775 70.872 70.5388C70.9994 70.5 71.1171 70.4345 71.2173 70.3466C71.3174 70.2587 71.3976 70.1505 71.4526 70.0291C71.5075 69.9078 71.5359 69.7761 71.5359 69.6428C71.5359 69.5096 71.5075 69.3779 71.4526 69.2566C71.3976 69.1352 71.3174 69.027 71.2173 68.9391C71.1171 68.8512 70.9994 68.7857 70.872 68.7469C70.7445 68.7081 70.6102 68.697 70.4781 68.7143ZM37.6437 18.1241C37.6752 16.1793 38.8275 14.4286 39.5872 13.4827C40.3113 14.4288 41.3881 16.1652 41.3571 18.0942C41.3256 20.039 40.1769 21.7893 39.4192 22.7356C38.6931 21.79 37.6126 20.0533 37.6437 18.1241ZM38.6736 45.2358C38.7805 45.1538 38.8831 45.0664 38.981 44.9739L38.9989 44.9573C39.1007 45.1922 39.2536 45.4014 39.4465 45.5697C39.6393 45.738 39.8673 45.8612 40.1138 45.9302C41.1945 46.1508 41.9533 45.5431 42.5099 45.0861C41.7101 46.0066 41.1486 47.1093 40.8746 48.2975H38.0562C38.0422 48.1826 38.0223 48.0686 37.9967 47.9557C37.7514 47.0876 37.3042 46.2898 36.6918 45.6274C37.0292 45.7269 37.3857 45.7432 37.7308 45.675C38.0759 45.6068 38.3994 45.4561 38.6736 45.2358ZM38.2522 68.6975C35.1167 68.5229 31.8519 66.7804 31.6261 63.2817C31.4194 60.0789 32.9895 57.4726 34.717 55.1332C34.9308 54.844 36.5113 52.7688 37.018 51.9556C37.3827 51.3938 37.6766 50.7891 37.8931 50.1552H40.9428C41.0407 50.4894 41.1882 50.807 41.3804 51.0973C42.1492 52.2527 44.284 55.1332 44.284 55.1332C46.0115 57.4724 47.5816 60.0785 47.3744 63.2819C47.1491 66.7806 43.8844 68.5229 40.7479 68.6977C40.5519 68.7088 40.3531 68.7085 40.1555 68.7143H38.8519C38.6519 68.7085 38.4517 68.7087 38.2522 68.6975Z"
            fill="#2D4356" />
        <path
            d="M32.2132 3.7143C32.4887 3.7143 32.7579 3.63261 32.987 3.47956C33.2161 3.32652 33.3946 3.10898 33.5 2.85447C33.6054 2.59996 33.633 2.3199 33.5793 2.04971C33.5255 1.77953 33.3929 1.53134 33.1981 1.33655C33.0033 1.14175 32.7551 1.0091 32.4849 0.955353C32.2147 0.901609 31.9347 0.929192 31.6801 1.03461C31.4256 1.14004 31.2081 1.31856 31.0551 1.54762C30.902 1.77667 30.8203 2.04597 30.8203 2.32145C30.8207 2.69073 30.9676 3.04476 31.2287 3.30588C31.4899 3.567 31.8439 3.71388 32.2132 3.7143ZM32.2132 1.62502C32.3509 1.62502 32.4856 1.66586 32.6001 1.74239C32.7146 1.81891 32.8039 1.92768 32.8566 2.05493C32.9093 2.18219 32.9231 2.32222 32.8962 2.45731C32.8693 2.59241 32.803 2.7165 32.7056 2.8139C32.6082 2.91129 32.4841 2.97762 32.349 3.00449C32.2139 3.03137 32.0739 3.01757 31.9467 2.96486C31.8194 2.91215 31.7106 2.82289 31.6341 2.70836C31.5576 2.59383 31.5167 2.45919 31.5167 2.32145C31.5169 2.1368 31.5904 1.95976 31.7209 1.8292C31.8515 1.69863 32.0285 1.6252 32.2132 1.62502Z"
            fill="#2D4356" />
        <path
            d="M73.9989 32.0356C73.8152 32.0356 73.6357 32.0901 73.483 32.1921C73.3303 32.2942 73.2113 32.4392 73.141 32.6089C73.0707 32.7785 73.0523 32.9652 73.0882 33.1454C73.124 33.3255 73.2124 33.491 73.3423 33.6208C73.4722 33.7507 73.6376 33.8391 73.8177 33.8749C73.9979 33.9108 74.1846 33.8924 74.3542 33.8221C74.5239 33.7518 74.6689 33.6328 74.771 33.4801C74.873 33.3274 74.9275 33.1479 74.9275 32.9642C74.9272 32.718 74.8293 32.482 74.6552 32.3079C74.4811 32.1338 74.2451 32.0359 73.9989 32.0356ZM73.9989 33.4285C73.9071 33.4285 73.8173 33.4013 73.7409 33.3503C73.6646 33.2992 73.6051 33.2267 73.5699 33.1419C73.5348 33.0571 73.5256 32.9637 73.5435 32.8736C73.5614 32.7836 73.6057 32.7008 73.6706 32.6359C73.7355 32.571 73.8182 32.5268 73.9083 32.5089C73.9984 32.4909 74.0917 32.5001 74.1766 32.5353C74.2614 32.5704 74.3339 32.6299 74.3849 32.7063C74.4359 32.7826 74.4632 32.8724 74.4632 32.9642C74.463 33.0873 74.4141 33.2053 74.327 33.2924C74.24 33.3794 74.122 33.4284 73.9989 33.4285Z"
            fill="#2D4356" />
        <path
            d="M46.1415 18.5714C45.9578 18.5714 45.7783 18.6259 45.6256 18.7279C45.4729 18.8299 45.3539 18.975 45.2836 19.1446C45.2133 19.3143 45.1949 19.501 45.2307 19.6811C45.2666 19.8613 45.355 20.0267 45.4849 20.1566C45.6147 20.2864 45.7802 20.3749 45.9603 20.4107C46.1404 20.4465 46.3271 20.4282 46.4968 20.3579C46.6665 20.2876 46.8115 20.1686 46.9135 20.0159C47.0156 19.8632 47.07 19.6836 47.07 19.5C47.0698 19.2538 46.9718 19.0178 46.7978 18.8437C46.6237 18.6696 46.3876 18.5717 46.1415 18.5714ZM46.1415 19.9643C46.0496 19.9643 45.9599 19.937 45.8835 19.886C45.8072 19.835 45.7477 19.7625 45.7125 19.6777C45.6774 19.5928 45.6682 19.4995 45.6861 19.4094C45.704 19.3193 45.7482 19.2366 45.8132 19.1717C45.8781 19.1068 45.9608 19.0625 46.0509 19.0446C46.1409 19.0267 46.2343 19.0359 46.3191 19.071C46.404 19.1062 46.4765 19.1657 46.5275 19.242C46.5785 19.3184 46.6057 19.4082 46.6057 19.5C46.6056 19.6231 46.5567 19.7411 46.4696 19.8281C46.3826 19.9152 46.2646 19.9641 46.1415 19.9643Z"
            fill="#2D4356" />
        <path
            d="M73.9989 4.64282C73.8152 4.64282 73.6357 4.69728 73.483 4.79931C73.3303 4.90135 73.2113 5.04637 73.141 5.21605C73.0707 5.38572 73.0523 5.57242 73.0882 5.75255C73.124 5.93267 73.2124 6.09813 73.3423 6.22799C73.4722 6.35786 73.6376 6.44629 73.8177 6.48212C73.9979 6.51795 74.1846 6.49956 74.3542 6.42928C74.5239 6.359 74.6689 6.23998 74.771 6.08728C74.873 5.93458 74.9275 5.75505 74.9275 5.57139C74.9272 5.32521 74.8293 5.08919 74.6552 4.91511C74.4811 4.74103 74.2451 4.6431 73.9989 4.64282ZM73.9989 6.03568C73.9071 6.03568 73.8173 6.00845 73.7409 5.95743C73.6646 5.90642 73.6051 5.83391 73.5699 5.74907C73.5348 5.66423 73.5256 5.57088 73.5435 5.48082C73.5614 5.39075 73.6057 5.30803 73.6706 5.24309C73.7355 5.17816 73.8182 5.13394 73.9083 5.11603C73.9984 5.09811 74.0917 5.10731 74.1766 5.14245C74.2614 5.17759 74.3339 5.2371 74.3849 5.31345C74.4359 5.3898 74.4632 5.47957 74.4632 5.57139C74.463 5.69449 74.4141 5.81251 74.327 5.89956C74.24 5.9866 74.122 6.03556 73.9989 6.03568Z"
            fill="#2D4356" />
        <path
            d="M8.53488 13C8.53488 12.8163 8.48042 12.6368 8.37839 12.4841C8.27635 12.3314 8.13133 12.2124 7.96165 12.1421C7.79198 12.0718 7.60528 12.0534 7.42515 12.0893C7.24503 12.1251 7.07957 12.2135 6.94971 12.3434C6.81984 12.4732 6.73141 12.6387 6.69558 12.8188C6.65975 12.999 6.67814 13.1857 6.74842 13.3553C6.8187 13.525 6.93772 13.67 7.09042 13.7721C7.24312 13.8741 7.42265 13.9286 7.60631 13.9286C7.85249 13.9283 8.08851 13.8304 8.26259 13.6563C8.43667 13.4822 8.5346 13.2462 8.53488 13ZM7.14202 13C7.14202 12.9082 7.16925 12.8184 7.22027 12.742C7.27128 12.6657 7.34379 12.6062 7.42863 12.571C7.51347 12.5359 7.60682 12.5267 7.69688 12.5446C7.78695 12.5625 7.86967 12.6068 7.93461 12.6717C7.99954 12.7366 8.04376 12.8193 8.06167 12.9094C8.07959 12.9995 8.07039 13.0928 8.03525 13.1777C8.00011 13.2625 7.9406 13.335 7.86425 13.386C7.7879 13.437 7.69813 13.4643 7.60631 13.4643C7.48321 13.4641 7.36519 13.4152 7.27814 13.3281C7.1911 13.2411 7.14214 13.1231 7.14202 13Z"
            fill="#2D4356" />
        <path
            d="M5.55473 32.0409L6.24512 31.1332L5.80916 30.8862L5.36577 31.903H5.35137L4.90102 30.8932L4.45762 31.1476L5.14059 32.0339V32.0483L4.07227 31.9104V32.4044L5.14755 32.2666V32.2809L4.45762 33.1668L4.8713 33.4287L5.34394 32.4044H5.35834L5.7943 33.4212L6.25209 33.1598L5.55473 32.2879V32.2735L6.65137 32.4044V31.9104L5.55473 32.0553V32.0409Z"
            fill="#0BCEB2" />
        <path
            d="M24.6799 15.8169L24.2825 16.3271L24.5211 16.4776L24.7932 15.8879H24.8011L25.0523 16.4734L25.316 16.323L24.9144 15.8206V15.8122L25.5458 15.8879V15.6033L24.9144 15.6869V15.6785L25.3118 15.1557L25.0611 15.0137L24.8057 15.5991H24.7974L24.5378 15.0174L24.2825 15.1641L24.6757 15.6743V15.6827L24.0605 15.6033V15.8879L24.6799 15.8085V15.8169Z"
            fill="#0BCEB2" />
        <path
            d="M72.6061 22.1524V21.6682L71.5303 21.8107V21.7963L72.2072 20.9058L71.7796 20.6635L71.3451 21.6607H71.3307L70.8891 20.6704L70.4541 20.9202L71.1241 21.7893V21.8037L70.0762 21.6682V22.1524L71.131 22.0173V22.0317L70.4541 22.9008L70.8603 23.1576L71.3237 22.1524H71.3376L71.7652 23.1502L72.2142 22.8939L71.5303 22.0387V22.0243L72.6061 22.1524Z"
            fill="#0BCEB2" />
        <path
            d="M54.7052 9.09353L55.2893 8.32514L54.9202 8.11621L54.5455 8.97653H54.533L54.1522 8.12225L53.7766 8.33767L54.3547 9.0875V9.09957L53.4512 8.98303V9.40089L54.3607 9.28389V9.29643L53.7766 10.0462L54.1272 10.2677L54.5269 9.40089H54.539L54.9081 10.2612L55.2953 10.0402L54.7052 9.30246V9.28993L55.6329 9.40089V8.98303L54.7052 9.1056V9.09353Z"
            fill="#0BCEB2" />
    </g>
    <defs>
        <clipPath id="clip0_715_31417">
            <rect width="78" height="78" fill="white" transform="translate(0.5)" />
        </clipPath>
    </defs>
</svg>
    