<svg width="78" height="78" viewBox="0 0 78 78" fill="none" xmlns="http://www.w3.org/2000/svg">
<g clip-path="url(#clip0_2_6084)">
<path d="M26.3824 65.0372C26.238 64.9536 26.1326 64.8161 26.0894 64.655C26.0462 64.4938 26.0686 64.3221 26.1519 64.1775L27.4164 61.9865C27.4429 61.5411 27.4934 61.0973 27.5675 60.6573C27.5151 60.5796 27.4512 60.5104 27.3779 60.452C26.1413 59.4878 25.0284 58.3746 24.0646 57.1377C23.927 56.9608 23.7299 56.8398 23.5099 56.7969C23.29 56.754 23.0619 56.7921 22.8679 56.9043L20.3401 58.3638C20.1957 58.4472 20.024 58.4698 19.8629 58.4266C19.7018 58.3834 19.5644 58.2781 19.4809 58.1337L18.3127 56.1095C18.2295 55.9649 18.207 55.7932 18.2502 55.6321C18.2934 55.471 18.3987 55.3336 18.5431 55.25L21.066 53.7927C21.2603 53.6806 21.4074 53.5019 21.4801 53.2897C21.5529 53.0775 21.5464 52.8462 21.4619 52.6384C20.8718 51.1856 20.4656 49.6647 20.2526 48.1111C20.2221 47.8887 20.1122 47.685 19.943 47.5374C19.7739 47.3899 19.5571 47.3086 19.3327 47.3085H16.4159C16.2491 47.3083 16.0892 47.2419 15.9713 47.124C15.8533 47.006 15.787 46.8461 15.7868 46.6792V44.3421C15.787 44.1753 15.8533 44.0153 15.9713 43.8974C16.0892 43.7794 16.2491 43.713 16.4159 43.7128H19.3327C19.5571 43.7128 19.7739 43.6314 19.9431 43.4839C20.1122 43.3364 20.2222 43.1326 20.2526 42.9102C20.4656 41.3567 20.8718 39.8358 21.4619 38.3829C21.5464 38.1751 21.5529 37.9438 21.4802 37.7316C21.4074 37.5194 21.2603 37.3408 21.0661 37.2286L18.5431 35.7713C18.3987 35.6878 18.2934 35.5503 18.2502 35.3892C18.2071 35.2281 18.2295 35.0564 18.3128 34.9119L19.481 32.8879C19.5645 32.7436 19.7019 32.6382 19.863 32.595C20.0241 32.5518 20.1958 32.5742 20.3404 32.6573L22.8679 34.117C23.062 34.229 23.29 34.2671 23.5099 34.2242C23.7298 34.1813 23.9269 34.0604 24.0646 33.8837C25.0284 32.6467 26.1413 31.5336 27.3779 30.5694C27.4817 30.4881 27.5669 30.3855 27.6279 30.2686C27.6888 30.1517 27.7241 30.0232 27.7314 29.8916C27.2773 29.1854 26.1523 26.8447 26.1519 26.8439C26.0906 26.7322 26.0638 26.6049 26.0749 26.478C26.086 26.3511 26.1345 26.2304 26.2143 26.1311C26.121 25.7134 26.0531 25.2903 26.0111 24.8644C25.9871 24.5818 26.0064 24.2972 26.0683 24.0205L25.4537 24.3754C24.8831 24.7059 24.4669 25.2491 24.2963 25.886C24.1257 26.5228 24.2147 27.2014 24.5437 27.7728L25.6067 29.6149C24.7057 30.3753 23.8706 31.2106 23.1105 32.1119L21.269 31.0485C20.6977 30.7195 20.0193 30.6306 19.3826 30.8012C18.7458 30.9719 18.2028 31.3882 17.8727 31.9588L16.7045 33.983C16.3748 34.5542 16.2854 35.2329 16.456 35.87C16.6267 36.5071 17.0434 37.0503 17.6145 37.3801L19.4508 38.4407C19.0501 39.5508 18.745 40.693 18.539 41.8551H16.4159C15.7567 41.8559 15.1247 42.1183 14.6586 42.5845C14.1925 43.0507 13.9303 43.6828 13.9297 44.3421V46.6792C13.9303 47.3385 14.1925 47.9706 14.6586 48.4368C15.1247 48.9031 15.7567 49.1654 16.4159 49.1663H18.539C18.745 50.3283 19.0501 51.4706 19.4508 52.5806L17.6145 53.6412C17.0434 53.9711 16.6266 54.5143 16.456 55.1513C16.2853 55.7884 16.3747 56.4672 16.7045 57.0383L17.8727 59.0628C18.2028 59.6333 18.7458 60.0496 19.3826 60.2202C20.0193 60.3908 20.6978 60.3017 21.2689 59.9726L23.1102 58.9092C23.8705 59.8105 24.7056 60.6459 25.6067 61.4065L24.5436 63.2486C24.2147 63.82 24.1258 64.4985 24.2964 65.1353C24.467 65.7722 24.8832 66.3154 25.4536 66.6459L27.4772 67.8145C27.9492 68.0849 28.4975 68.1913 29.0364 68.1171C28.5484 67.4416 28.163 66.6976 27.8927 65.9094L26.3824 65.0372Z" fill="#2D4356"/>
<path d="M61.5851 41.8551H59.462C59.256 40.693 58.951 39.5508 58.5503 38.4407L60.3865 37.3801C60.9577 37.0503 61.3744 36.5071 61.5451 35.87C61.7157 35.2329 61.6263 34.5542 61.2965 33.983L60.1283 31.9586C59.7982 31.3881 59.2551 30.9718 58.6184 30.8012C57.9817 30.6306 57.3033 30.7196 56.7321 31.0485L54.8906 32.1119C54.1304 31.2106 53.2954 30.3753 52.3944 29.6149L53.4574 27.7728C53.7864 27.2014 53.8753 26.5228 53.7048 25.886C53.5342 25.2491 53.118 24.7059 52.5474 24.3754L51.9328 24.0205C51.9947 24.2972 52.014 24.5818 51.99 24.8644C51.9479 25.2903 51.8801 25.7134 51.7867 26.1311C51.8701 26.2286 51.9209 26.3497 51.9321 26.4775C51.9433 26.6053 51.9143 26.7334 51.8492 26.8439C51.8492 26.8439 50.7237 29.1853 50.2697 29.8915C50.2769 30.0232 50.3122 30.1517 50.3732 30.2686C50.4342 30.3855 50.5194 30.4881 50.6232 30.5694C51.8598 31.5336 52.9726 32.6467 53.9364 33.8837C54.0741 34.0605 54.2711 34.1816 54.4911 34.2245C54.7111 34.2674 54.9392 34.2292 55.1332 34.117L57.6607 32.6573C57.8053 32.5742 57.9769 32.5519 58.138 32.595C58.299 32.6382 58.4364 32.7434 58.5201 32.8877L59.6883 34.9119C59.7715 35.0564 59.794 35.2281 59.7508 35.3892C59.7077 35.5503 59.6023 35.6878 59.458 35.7713L56.935 37.2286C56.7408 37.3408 56.5937 37.5194 56.5209 37.7316C56.4482 37.9438 56.4547 38.1751 56.5392 38.3829C57.1292 39.8358 57.5355 41.3567 57.7484 42.9102C57.7789 43.1326 57.8889 43.3364 58.058 43.4839C58.2271 43.6314 58.444 43.7128 58.6684 43.7128H61.5851C61.7519 43.713 61.9118 43.7794 62.0298 43.8974C62.1477 44.0154 62.214 44.1753 62.2142 44.3421V46.6792C62.214 46.8461 62.1477 47.006 62.0298 47.124C61.9118 47.2419 61.7519 47.3083 61.5851 47.3085H58.6684C58.4439 47.3086 58.2271 47.3899 58.058 47.5374C57.8889 47.685 57.7789 47.8888 57.7484 48.1111C57.5354 49.6647 57.1292 51.1856 56.5392 52.6385C56.4546 52.8462 56.4481 53.0776 56.5209 53.2897C56.5936 53.5019 56.7407 53.6806 56.935 53.7927L59.458 55.25C59.6023 55.3336 59.7076 55.471 59.7508 55.6321C59.794 55.7932 59.7715 55.9649 59.6883 56.1095L58.5201 58.1334C58.4367 58.278 58.2993 58.3834 58.1381 58.4266C57.9769 58.4698 57.8052 58.4473 57.6607 58.3638L55.1332 56.9043C54.9392 56.7921 54.7111 56.7538 54.4911 56.7967C54.2711 56.8396 54.074 56.9607 53.9364 57.1377C52.9726 58.3746 51.8598 59.4878 50.6232 60.452C50.55 60.5103 50.4861 60.5795 50.4337 60.6571C50.5079 61.0973 50.5583 61.5411 50.5848 61.9868L51.8492 64.1775C51.9324 64.3221 51.9549 64.4938 51.9117 64.6549C51.8685 64.8161 51.7632 64.9535 51.6188 65.0372L50.1087 65.9092C49.8384 66.6977 49.4529 67.4418 48.9648 68.1174C49.5037 68.1918 50.0521 68.0853 50.5239 67.8145L52.5476 66.6459C53.1181 66.3154 53.5341 65.7721 53.7047 65.1353C53.8752 64.4984 53.7863 63.82 53.4574 63.2486L52.3944 61.4065C53.2954 60.6459 54.1305 59.8105 54.8909 58.9093L56.7319 59.9726C57.3031 60.302 57.9816 60.3912 58.6185 60.2205C59.2553 60.0499 59.7984 59.6334 60.1284 59.0625L61.2965 57.0384C61.6263 56.4672 61.7157 55.7884 61.5451 55.1514C61.3744 54.5143 60.9577 53.9711 60.3865 53.6413L58.5503 52.5806C58.951 51.4706 59.256 50.3283 59.4621 49.1663H61.5851C62.2444 49.1654 62.8764 48.9031 63.3425 48.4368C63.8086 47.9706 64.0707 47.3385 64.0714 46.6792V44.3421C64.0707 43.6828 63.8086 43.0507 63.3425 42.5845C62.8764 42.1183 62.2444 41.8559 61.5851 41.8551Z" fill="#2D4356"/>
<path d="M53.8532 45.5111C53.8557 42.4599 52.9137 39.4827 51.1566 36.9883C50.8913 37.6468 50.5592 38.2764 50.1656 38.8672C51.6602 41.3741 52.266 44.3117 51.8851 47.2053C51.5042 50.099 50.1589 52.7798 48.0664 54.8145C48.402 55.3454 48.7222 55.8977 49.0157 56.4739C50.5405 55.0838 51.7583 53.3907 52.5913 51.5029C53.4242 49.6152 53.8541 47.5744 53.8532 45.5111Z" fill="#4C7DA7"/>
<path d="M26.8373 36.9883C24.7625 39.9407 23.8353 43.5484 24.2294 47.1354C24.6235 50.7224 26.3119 54.0427 28.9784 56.4742C29.2719 55.898 29.5921 55.3457 29.9277 54.8147C27.8352 52.78 26.4897 50.0992 26.1088 47.2055C25.7279 44.3118 26.3336 41.3741 27.8283 38.8672C27.4347 38.2764 27.1026 37.6468 26.8373 36.9883Z" fill="#4C7DA7"/>
<path d="M30.496 39.1279C32.2684 40.6707 34.629 40.8668 35.7145 40.8668C36.3795 40.8668 37.2105 40.7074 37.1377 39.8414C37.1255 39.6958 36.8092 36.2551 34.5005 34.2455C32.175 32.2213 28.8361 32.5158 28.6953 32.529C28.4519 32.5523 28.2275 32.6708 28.0709 32.8586C27.9143 33.0464 27.8381 33.2884 27.8588 33.532C27.8711 33.6776 28.1873 37.1182 30.496 39.1279ZM33.2813 35.6469C34.2071 36.5545 34.8416 37.7174 35.1038 38.9871C33.8701 38.9324 32.6847 38.4914 31.7152 37.7264C30.7894 36.8189 30.1549 35.656 29.8928 34.3863C31.1265 34.441 32.3118 34.882 33.2813 35.6469Z" fill="#4C7DA7"/>
<path d="M30.496 30.3038C32.2683 31.8465 34.6288 32.0427 35.7141 32.0427C36.3614 32.0427 37.2106 31.8753 37.1377 31.0172C37.1255 30.8716 36.8092 27.431 34.5005 25.4213C32.175 23.3971 28.8361 23.6915 28.6953 23.7049C28.4519 23.7282 28.2275 23.8467 28.0709 24.0344C27.9143 24.2222 27.8381 24.4642 27.8588 24.7079C27.8711 24.8535 28.1873 28.2941 30.496 30.3038ZM33.2813 26.8228C34.2071 27.7304 34.8416 28.8932 35.1037 30.163C33.87 30.1082 32.6847 29.6673 31.7152 28.9023C30.7894 27.9947 30.1549 26.8319 29.8928 25.5622C31.1265 25.6168 32.3118 26.0578 33.2813 26.8228Z" fill="#4C7DA7"/>
<path d="M49.3008 32.529C49.1605 32.5159 45.8214 32.2211 43.4957 34.2455C41.187 36.2551 40.8707 39.6956 40.8585 39.8414C40.8449 40.0085 40.8775 40.1761 40.9528 40.3259C41.0281 40.4757 41.1432 40.6019 41.2854 40.6906C41.5938 40.8435 41.9397 40.9047 42.2819 40.8669C43.3671 40.8669 45.728 40.6707 47.5002 39.128C49.8089 37.1183 50.1251 33.6777 50.1374 33.5321C50.1581 33.2884 50.0819 33.0464 49.9253 32.8586C49.7687 32.6708 49.5443 32.5524 49.3008 32.529ZM46.281 37.7265C45.3111 38.4876 44.1278 38.9269 42.8963 38.9833C43.1597 37.716 43.7925 36.5551 44.7149 35.647C45.6848 34.8859 46.868 34.4465 48.0996 34.3902C47.8362 35.6575 47.2033 36.8184 46.281 37.7265Z" fill="#4C7DA7"/>
<path d="M41.6953 32.0201C41.7289 32.0233 41.9434 32.0426 42.2823 32.0426C43.3675 32.0426 45.7284 31.8464 47.5005 30.3036C49.8092 28.294 50.1255 24.8533 50.1377 24.7077C50.1585 24.4641 50.0822 24.2221 49.9256 24.0343C49.769 23.8465 49.5446 23.7281 49.3012 23.7047C49.1609 23.6918 45.8218 23.3968 43.496 25.4212C41.1873 27.4309 40.8711 30.8715 40.8588 31.0171C40.8381 31.2607 40.9143 31.5027 41.0709 31.6905C41.2275 31.8783 41.4519 31.9968 41.6953 32.0201ZM44.7152 26.8226C45.6851 26.0616 46.8683 25.6222 48.0999 25.5659C47.8365 26.8332 47.2037 27.9941 46.2813 28.9022C45.3114 29.6632 44.1282 30.1026 42.8966 30.159C43.16 28.8917 43.7928 27.7307 44.7152 26.8226Z" fill="#4C7DA7"/>
<path d="M39.3463 59.2676C38.7235 59.0553 38.3628 58.9188 38.191 58.5793C38.115 58.432 38.0738 58.2692 38.0707 58.1034C38.0676 57.9376 38.1026 57.7733 38.1731 57.6232C38.4612 57.0949 39.2116 57.2454 39.2948 57.2645C39.5121 57.3307 39.7033 57.463 39.8418 57.643C39.9198 57.7367 40.0155 57.8142 40.1235 57.871C40.2314 57.9277 40.3495 57.9627 40.4709 57.9738C40.5923 57.985 40.7148 57.9721 40.8313 57.9359C40.9477 57.8997 41.0559 57.8409 41.1497 57.7629C41.2434 57.6849 41.3209 57.5892 41.3776 57.4813C41.4344 57.3734 41.4694 57.2553 41.4805 57.1339C41.4916 57.0124 41.4787 56.89 41.4426 56.7735C41.4064 56.6571 41.3476 56.5489 41.2696 56.4551C40.9117 56.0174 40.4359 55.6914 39.8985 55.5155V54.7997C39.8985 54.5534 39.8007 54.3172 39.6266 54.1431C39.4524 53.9689 39.2162 53.8711 38.97 53.8711C38.7237 53.8711 38.4875 53.9689 38.3134 54.1431C38.1392 54.3172 38.0414 54.5534 38.0414 54.7997V55.5151C37.403 55.7101 36.8658 56.1465 36.544 56.7313C36.3268 57.1458 36.2125 57.6066 36.211 58.0746C36.2094 58.5425 36.3205 59.004 36.535 59.42C37.0559 60.4498 38.0337 60.7829 38.7473 61.026C39.5122 61.2868 39.7899 61.4154 39.9015 61.8299C39.9432 61.9946 39.9282 62.1685 39.8589 62.3235C39.7897 62.4786 39.6702 62.6058 39.5197 62.6846C39.2915 62.7792 39.0394 62.7999 38.7989 62.7439C38.5583 62.6879 38.3413 62.558 38.1783 62.3724C38.0929 62.2853 37.9912 62.2159 37.879 62.1681C37.7668 62.1203 37.6463 62.0951 37.5244 62.0939C37.4024 62.0927 37.2814 62.1155 37.1683 62.1611C37.0552 62.2067 36.9521 62.2741 36.865 62.3594C36.778 62.4448 36.7086 62.5465 36.6608 62.6587C36.613 62.7709 36.5878 62.8914 36.5866 63.0134C36.5854 63.1353 36.6082 63.2563 36.6538 63.3695C36.6993 63.4826 36.7667 63.5856 36.8521 63.6727C37.1868 64.0153 37.5928 64.2799 38.0414 64.4477V65.0172C38.0414 65.2635 38.1392 65.4997 38.3134 65.6738C38.4875 65.848 38.7237 65.9458 38.9699 65.9458C39.2162 65.9458 39.4524 65.848 39.6265 65.6738C39.8007 65.4997 39.8985 65.2635 39.8985 65.0172V64.5205C40.0589 64.4742 40.2147 64.4135 40.3642 64.3392C40.8921 64.0659 41.3114 63.6213 41.5534 63.0783C41.7954 62.5354 41.8456 61.9263 41.6958 61.351C41.3163 59.9391 40.1778 59.5511 39.3463 59.2676Z" fill="#4C7DA7"/>
<path d="M0.928572 70.571C1.44141 70.571 1.85714 70.1553 1.85714 69.6424C1.85714 69.1296 1.44141 68.7139 0.928572 68.7139C0.415736 68.7139 0 69.1296 0 69.6424C0 70.1553 0.415736 70.571 0.928572 70.571Z" fill="#2D4356"/>
<path d="M5.10658 68.7139H3.71373C3.46746 68.7139 3.23127 68.8117 3.05713 68.9858C2.88299 69.16 2.78516 69.3962 2.78516 69.6424C2.78516 69.8887 2.88299 70.1249 3.05713 70.299C3.23127 70.4732 3.46746 70.571 3.71373 70.571H5.10658C5.35286 70.571 5.58904 70.4732 5.76318 70.299C5.93732 70.1249 6.03516 69.8887 6.03516 69.6424C6.03516 69.3962 5.93732 69.16 5.76318 68.9858C5.58904 68.8117 5.35286 68.7139 5.10658 68.7139Z" fill="#2D4356"/>
<path d="M74.2863 68.7139H72.8934C72.6471 68.7139 72.411 68.8117 72.2368 68.9858C72.0627 69.16 71.9648 69.3962 71.9648 69.6424C71.9648 69.8887 72.0627 70.1249 72.2368 70.299C72.411 70.4732 72.6471 70.571 72.8934 70.571H74.2863C74.5325 70.571 74.7687 70.4732 74.9429 70.299C75.117 70.1249 75.2148 69.8887 75.2148 69.6424C75.2148 69.3962 75.117 69.16 74.9429 68.9858C74.7687 68.8117 74.5325 68.7139 74.2863 68.7139Z" fill="#2D4356"/>
<path d="M77.0692 70.571C77.582 70.571 77.9978 70.1553 77.9978 69.6424C77.9978 69.1296 77.582 68.7139 77.0692 68.7139C76.5564 68.7139 76.1406 69.1296 76.1406 69.6424C76.1406 70.1553 76.5564 70.571 77.0692 70.571Z" fill="#2D4356"/>
<path d="M54.8549 72.4287H50.9978C50.7643 72.4474 50.5465 72.5534 50.3877 72.7254C50.2288 72.8975 50.1406 73.1231 50.1406 73.3573C50.1406 73.5915 50.2288 73.8171 50.3877 73.9891C50.5465 74.1612 50.7643 74.2671 50.9978 74.2859H54.8549C55.0884 74.2671 55.3062 74.1612 55.465 73.9891C55.6239 73.8171 55.7121 73.5915 55.7121 73.3573C55.7121 73.1231 55.6239 72.8975 55.465 72.7254C55.3062 72.5534 55.0884 72.4474 54.8549 72.4287Z" fill="#4C7DA7"/>
<path d="M26.9995 72.4287H23.1423C22.9089 72.4474 22.691 72.5534 22.5322 72.7254C22.3734 72.8975 22.2852 73.1231 22.2852 73.3573C22.2852 73.5915 22.3734 73.8171 22.5322 73.9891C22.691 74.1612 22.9089 74.2671 23.1423 74.2859H26.9995C27.2329 74.2671 27.4507 74.1612 27.6096 73.9891C27.7684 73.8171 27.8566 73.5915 27.8566 73.3573C27.8566 73.1231 27.7684 72.8975 27.6096 72.7254C27.4507 72.5534 27.2329 72.4474 26.9995 72.4287Z" fill="#4C7DA7"/>
<path d="M48.2852 72.4287H29.7137C29.4675 72.4287 29.2313 72.5265 29.0571 72.7007C28.883 72.8748 28.7852 73.111 28.7852 73.3573C28.7852 73.6036 28.883 73.8397 29.0571 74.0139C29.2313 74.188 29.4675 74.2859 29.7137 74.2859H37.1144V75.2144H33.428C33.1817 75.2144 32.9456 75.3123 32.7714 75.4864C32.5973 75.6605 32.4994 75.8967 32.4994 76.143C32.4994 76.3893 32.5973 76.6255 32.7714 76.7996C32.9456 76.9737 33.1817 77.0716 33.428 77.0716H45.0352C45.2814 77.0716 45.5176 76.9737 45.6918 76.7996C45.8659 76.6255 45.9637 76.3893 45.9637 76.143C45.9637 75.8967 45.8659 75.6605 45.6918 75.4864C45.5176 75.3123 45.2814 75.2144 45.0352 75.2144H40.8844V74.2859H48.2852C48.5314 74.2859 48.7676 74.188 48.9418 74.0139C49.1159 73.8397 49.2137 73.6036 49.2137 73.3573C49.2137 73.111 49.1159 72.8748 48.9418 72.7007C48.7676 72.5265 48.5314 72.4287 48.2852 72.4287Z" fill="#4C7DA7"/>
<path d="M69.9781 68.714H45.7333C46.6038 68.1147 47.3261 67.3246 47.845 66.4039C48.3639 65.4832 48.6658 64.4562 48.7277 63.4011C48.9735 59.6027 47.2147 56.6519 45.2778 54.0292C45.2778 54.0292 43.169 51.1839 42.4265 50.0679C41.6492 48.8994 42.6453 47.111 43.7475 45.9207C44.5132 45.0938 44.8745 43.814 43.7951 43.0576C43.4081 42.7823 42.9278 42.6717 42.4594 42.7499C41.8565 42.8982 41.3031 43.2021 40.8544 43.6311C40.6501 43.8301 40.411 43.99 40.1491 44.1028C40.0546 44.0851 39.9381 44.0268 39.929 43.719V24.418C40.7612 23.4934 42.6664 21.0622 42.7138 18.1239C42.7734 14.4347 39.8773 11.532 39.7542 11.4102C39.5823 11.2407 39.3512 11.1447 39.1098 11.1426C38.8683 11.1405 38.6356 11.2325 38.4608 11.3991C38.3337 11.5204 35.3464 14.4129 35.287 18.0939C35.2353 21.2969 37.4144 23.9041 38.0718 24.6167V43.0419C37.7563 43.1742 37.4689 43.3654 37.2249 43.6052C37.1073 43.7419 36.9437 43.8307 36.765 43.8549C36.5538 43.8165 36.3532 43.7335 36.1766 43.6116C35.7217 43.3421 35.2003 43.2057 34.6717 43.218C34.4497 43.2445 34.2367 43.3215 34.0491 43.4432C33.8615 43.5649 33.7044 43.7281 33.5897 43.92C33.4244 44.2026 32.9937 45.2208 34.3861 46.4574C34.3992 46.4692 34.4126 46.4805 34.4264 46.4914C35.0239 47.0024 35.465 47.6716 35.6989 48.4222C35.9145 49.2522 35.4371 50.1774 34.9415 50.973C34.4813 51.712 32.9425 53.7324 32.7232 54.029C30.7863 56.6521 29.0275 59.6029 29.2731 63.4012C29.3351 64.4562 29.637 65.4832 30.156 66.4039C30.6749 67.3246 31.3972 68.1147 32.2677 68.714H8.02264C7.89053 68.6968 7.75627 68.7079 7.62881 68.7467C7.50135 68.7854 7.38363 68.8509 7.28351 68.9388C7.18339 69.0267 7.10318 69.135 7.04822 69.2563C6.99327 69.3777 6.96484 69.5094 6.96484 69.6426C6.96484 69.7758 6.99327 69.9075 7.04822 70.0289C7.10318 70.1502 7.18339 70.2585 7.28351 70.3464C7.38363 70.4343 7.50135 70.4998 7.62881 70.5385C7.75627 70.5773 7.89053 70.5884 8.02264 70.5712H69.9781C70.1102 70.5884 70.2445 70.5773 70.372 70.5385C70.4994 70.4998 70.6171 70.4343 70.7173 70.3464C70.8174 70.2585 70.8976 70.1502 70.9526 70.0289C71.0075 69.9075 71.0359 69.7758 71.0359 69.6426C71.0359 69.5094 71.0075 69.3777 70.9526 69.2563C70.8976 69.135 70.8174 69.0267 70.7173 68.9388C70.6171 68.8509 70.4994 68.7854 70.372 68.7467C70.2445 68.7079 70.1102 68.6968 69.9781 68.714ZM37.1437 18.1239C37.1752 16.1791 38.3275 14.4284 39.0872 13.4825C39.8113 14.4286 40.8881 16.165 40.8571 18.0939C40.8256 20.0388 39.6769 21.789 38.9192 22.7353C38.1931 21.7897 37.1126 20.0531 37.1437 18.1239ZM38.1736 45.2356C38.2805 45.1536 38.3831 45.0661 38.481 44.9736L38.4989 44.9571C38.6007 45.192 38.7536 45.4012 38.9465 45.5695C39.1393 45.7378 39.3673 45.8609 39.6138 45.93C40.6945 46.1506 41.4533 45.5428 42.0099 45.0859C41.2101 46.0063 40.6486 47.1091 40.3746 48.2973H37.5562C37.5422 48.1824 37.5223 48.0683 37.4967 47.9555C37.2514 47.0874 36.8042 46.2896 36.1918 45.6272C36.5292 45.7266 36.8857 45.743 37.2308 45.6748C37.5759 45.6066 37.8994 45.4559 38.1736 45.2356ZM37.7522 68.6973C34.6167 68.5226 31.3519 66.7801 31.1261 63.2814C30.9194 60.0787 32.4895 57.4723 34.217 55.1329C34.4308 54.8438 36.0113 52.7686 36.518 51.9553C36.8827 51.3936 37.1766 50.7889 37.3931 50.155H40.4428C40.5407 50.4892 40.6882 50.8067 40.8804 51.097C41.6492 52.2524 43.784 55.1329 43.784 55.1329C45.5115 57.4721 47.0816 60.0782 46.8744 63.2817C46.6491 66.7804 43.3844 68.5226 40.2479 68.6975C40.0519 68.7085 39.8531 68.7083 39.6555 68.714H38.3519C38.1519 68.7082 37.9517 68.7085 37.7522 68.6973Z" fill="#2D4356"/>
<path d="M31.7132 3.71443C31.9887 3.71443 32.2579 3.63274 32.487 3.47969C32.7161 3.32664 32.8946 3.1091 33 2.85459C33.1054 2.60008 33.133 2.32002 33.0793 2.04984C33.0255 1.77965 32.8929 1.53146 32.6981 1.33667C32.5033 1.14188 32.2551 1.00922 31.9849 0.955475C31.7147 0.901731 31.4347 0.929314 31.1801 1.03474C30.9256 1.14016 30.7081 1.31868 30.5551 1.54774C30.402 1.77679 30.3203 2.04609 30.3203 2.32157C30.3207 2.69085 30.4676 3.04488 30.7287 3.306C30.9899 3.56712 31.3439 3.714 31.7132 3.71443ZM31.7132 1.62514C31.8509 1.62514 31.9856 1.66599 32.1001 1.74251C32.2146 1.81903 32.3039 1.9278 32.3566 2.05506C32.4093 2.18231 32.4231 2.32234 32.3962 2.45744C32.3693 2.59253 32.303 2.71662 32.2056 2.81402C32.1082 2.91142 31.9841 2.97774 31.849 3.00462C31.7139 3.03149 31.5739 3.0177 31.4467 2.96498C31.3194 2.91227 31.2106 2.82301 31.1341 2.70848C31.0576 2.59396 31.0167 2.45931 31.0167 2.32157C31.0169 2.13692 31.0904 1.95989 31.2209 1.82932C31.3515 1.69875 31.5285 1.62532 31.7132 1.62514Z" fill="#2D4356"/>
<path d="M73.4989 32.0361C73.3152 32.0361 73.1357 32.0906 72.983 32.1926C72.8303 32.2947 72.7113 32.4397 72.641 32.6094C72.5707 32.779 72.5523 32.9657 72.5882 33.1459C72.624 33.326 72.7124 33.4914 72.8423 33.6213C72.9722 33.7512 73.1376 33.8396 73.3177 33.8754C73.4979 33.9113 73.6846 33.8929 73.8542 33.8226C74.0239 33.7523 74.1689 33.6333 74.271 33.4806C74.373 33.3279 74.4275 33.1484 74.4275 32.9647C74.4272 32.7185 74.3293 32.4825 74.1552 32.3084C73.9811 32.1343 73.7451 32.0364 73.4989 32.0361ZM73.4989 33.429C73.4071 33.429 73.3173 33.4018 73.2409 33.3507C73.1646 33.2997 73.1051 33.2272 73.0699 33.1424C73.0348 33.0575 73.0256 32.9642 73.0435 32.8741C73.0614 32.7841 73.1057 32.7013 73.1706 32.6364C73.2355 32.5715 73.3182 32.5273 73.4083 32.5093C73.4984 32.4914 73.5917 32.5006 73.6766 32.5358C73.7614 32.5709 73.8339 32.6304 73.8849 32.7068C73.9359 32.7831 73.9632 32.8729 73.9632 32.9647C73.963 33.0878 73.9141 33.2058 73.827 33.2929C73.74 33.3799 73.622 33.4289 73.4989 33.429Z" fill="#2D4356"/>
<path d="M45.6434 18.5713C45.4598 18.5713 45.2802 18.6257 45.1275 18.7278C44.9748 18.8298 44.8558 18.9748 44.7855 19.1445C44.7152 19.3142 44.6969 19.5009 44.7327 19.681C44.7685 19.8611 44.857 20.0266 44.9868 20.1565C45.1167 20.2863 45.2821 20.3748 45.4623 20.4106C45.6424 20.4464 45.8291 20.428 45.9988 20.3577C46.1684 20.2875 46.3135 20.1685 46.4155 20.0157C46.5175 19.863 46.572 19.6835 46.572 19.4999C46.5717 19.2537 46.4738 19.0177 46.2997 18.8436C46.1256 18.6695 45.8896 18.5716 45.6434 18.5713ZM45.6434 19.9641C45.5516 19.9641 45.4618 19.9369 45.3855 19.8859C45.3091 19.8349 45.2496 19.7624 45.2145 19.6775C45.1793 19.5927 45.1701 19.4993 45.188 19.4093C45.206 19.3192 45.2502 19.2365 45.3151 19.1716C45.38 19.1066 45.4628 19.0624 45.5528 19.0445C45.6429 19.0266 45.7363 19.0358 45.8211 19.0709C45.9059 19.1061 45.9784 19.1656 46.0295 19.2419C46.0805 19.3183 46.1077 19.408 46.1077 19.4999C46.1076 19.623 46.0586 19.741 45.9716 19.828C45.8845 19.9151 45.7665 19.964 45.6434 19.9641Z" fill="#2D4356"/>
<path d="M73.4989 4.64258C73.3152 4.64258 73.1357 4.69704 72.983 4.79907C72.8303 4.9011 72.7113 5.04613 72.641 5.2158C72.5707 5.38548 72.5523 5.57218 72.5882 5.7523C72.624 5.93243 72.7124 6.09789 72.8423 6.22775C72.9722 6.35761 73.1376 6.44605 73.3177 6.48188C73.4979 6.51771 73.6846 6.49932 73.8542 6.42904C74.0239 6.35876 74.1689 6.23974 74.271 6.08704C74.373 5.93433 74.4275 5.7548 74.4275 5.57115C74.4272 5.32496 74.3293 5.08894 74.1552 4.91486C73.9811 4.74078 73.7451 4.64286 73.4989 4.64258ZM73.4989 6.03544C73.4071 6.03544 73.3173 6.00821 73.2409 5.95719C73.1646 5.90617 73.1051 5.83366 73.0699 5.74882C73.0348 5.66399 73.0256 5.57063 73.0435 5.48057C73.0614 5.39051 73.1057 5.30778 73.1706 5.24285C73.2355 5.17792 73.3182 5.1337 73.4083 5.11578C73.4984 5.09787 73.5917 5.10706 73.6766 5.14221C73.7614 5.17735 73.8339 5.23685 73.8849 5.31321C73.9359 5.38956 73.9632 5.47932 73.9632 5.57115C73.963 5.69425 73.9141 5.81227 73.827 5.89931C73.74 5.98636 73.622 6.03531 73.4989 6.03544Z" fill="#2D4356"/>
<path d="M8.03683 12.9999C8.03683 12.8162 7.98237 12.6367 7.88034 12.484C7.77831 12.3313 7.63328 12.2123 7.46361 12.142C7.29393 12.0717 7.10723 12.0533 6.9271 12.0891C6.74698 12.125 6.58152 12.2134 6.45166 12.3433C6.3218 12.4731 6.23336 12.6386 6.19753 12.8187C6.1617 12.9988 6.18009 13.1855 6.25037 13.3552C6.32065 13.5249 6.43967 13.6699 6.59237 13.7719C6.74508 13.874 6.92461 13.9284 7.10826 13.9284C7.35445 13.9282 7.59047 13.8302 7.76455 13.6561C7.93863 13.4821 8.03655 13.246 8.03683 12.9999ZM6.64397 12.9999C6.64397 12.908 6.6712 12.8183 6.72222 12.7419C6.77324 12.6656 6.84575 12.6061 6.93058 12.5709C7.01542 12.5358 7.10877 12.5266 7.19884 12.5445C7.2889 12.5624 7.37163 12.6066 7.43656 12.6716C7.50149 12.7365 7.54571 12.8192 7.56362 12.9093C7.58154 12.9993 7.57234 13.0927 7.5372 13.1775C7.50206 13.2624 7.44255 13.3349 7.3662 13.3859C7.28985 13.4369 7.20009 13.4641 7.10826 13.4641C6.98516 13.464 6.86714 13.4151 6.7801 13.328C6.69305 13.241 6.6441 13.123 6.64397 12.9999Z" fill="#2D4356"/>
<path d="M5.05278 32.0404L5.74317 31.1327L5.30721 30.8857L4.86381 31.9025H4.84942L4.39906 30.8927L3.95567 31.1471L4.63863 32.0335V32.0478L3.57031 31.91V32.404L4.6456 32.2661V32.2805L3.95567 33.1663L4.36935 33.4282L4.84199 32.404H4.85638L5.29235 33.4207L5.75013 33.1593L5.05278 32.2874V32.273L6.14942 32.404V31.91L5.05278 32.0548V32.0404Z" fill="#4C7DA7"/>
<path d="M24.1819 15.8169L23.7844 16.3271L24.0231 16.4776L24.2951 15.8879H24.303L24.5542 16.4734L24.8179 16.323L24.4163 15.8206V15.8122L25.0477 15.8879V15.6033L24.4163 15.6869V15.6785L24.8137 15.1557L24.563 15.0137L24.3077 15.5991H24.2993L24.0398 15.0174L23.7844 15.1641L24.1777 15.6743V15.6827L23.5625 15.6033V15.8879L24.1819 15.8085V15.8169Z" fill="#4C7DA7"/>
<path d="M72.1041 22.1521V21.6678L71.0284 21.8103V21.7959L71.7053 20.9054L71.2777 20.6631L70.8431 21.6604H70.8287L70.3872 20.67L69.9521 20.9198L70.6221 21.789V21.8034L69.5742 21.6678V22.1521L70.6291 22.0169V22.0313L69.9521 22.9005L70.3584 23.1572L70.8218 22.1521H70.8357L71.2633 23.1498L71.7123 22.8935L71.0284 22.0383V22.0239L72.1041 22.1521Z" fill="#4C7DA7"/>
<path d="M54.2072 9.09353L54.7912 8.32514L54.4221 8.11621L54.0474 8.97653H54.0349L53.6542 8.12225L53.2786 8.33767L53.8566 9.0875V9.09957L52.9531 8.98303V9.40089L53.8627 9.28389V9.29643L53.2786 10.0462L53.6291 10.2677L54.0289 9.40089H54.0409L54.4101 10.2612L54.7973 10.0402L54.2072 9.30246V9.28993L55.1348 9.40089V8.98303L54.2072 9.1056V9.09353Z" fill="#4C7DA7"/>
</g>
<defs>
<clipPath id="clip0_2_6084">
<rect width="78" height="78" fill="white"/>
</clipPath>
</defs>
</svg>
