<svg width="80" height="80" viewBox="0 0 80 80" fill="none" xmlns="http://www.w3.org/2000/svg">
<path d="M39.9998 25.2383H25.7141C25.4615 25.2383 25.2193 25.3386 25.0407 25.5172C24.8621 25.6958 24.7617 25.9381 24.7617 26.1907C24.7617 26.4432 24.8621 26.6855 25.0407 26.8641C25.2193 27.0427 25.4615 27.143 25.7141 27.143H39.9998C40.2524 27.143 40.4946 27.0427 40.6732 26.8641C40.8519 26.6855 40.9522 26.4432 40.9522 26.1907C40.9522 25.9381 40.8519 25.6958 40.6732 25.5172C40.4946 25.3386 40.2524 25.2383 39.9998 25.2383Z" fill="#2D4356"/>
<path d="M25.7141 30.9526H35.2379C35.4905 30.9526 35.7327 30.8523 35.9113 30.6737C36.09 30.4951 36.1903 30.2528 36.1903 30.0002C36.1903 29.7476 36.09 29.5054 35.9113 29.3268C35.7327 29.1482 35.4905 29.0479 35.2379 29.0479H25.7141C25.4615 29.0479 25.2193 29.1482 25.0407 29.3268C24.8621 29.5054 24.7617 29.7476 24.7617 30.0002C24.7617 30.2528 24.8621 30.4951 25.0407 30.6737C25.2193 30.8523 25.4615 30.9526 25.7141 30.9526Z" fill="#4C7DA7"/>
<path d="M40.9522 36.6662C40.9522 36.4137 40.8518 36.1714 40.6732 35.9928C40.4946 35.8142 40.2524 35.7139 39.9998 35.7139H25.7141C25.4615 35.7139 25.2193 35.8142 25.0407 35.9928C24.8621 36.1714 24.7617 36.4137 24.7617 36.6662C24.7617 36.9188 24.8621 37.1611 25.0407 37.3397C25.2193 37.5183 25.4615 37.6186 25.7141 37.6186H39.9998C40.2524 37.6186 40.4946 37.5183 40.6732 37.3397C40.8518 37.1611 40.9522 36.9188 40.9522 36.6662Z" fill="#4C7DA7"/>
<path d="M25.7141 39.5234C25.4615 39.5234 25.2193 39.6238 25.0407 39.8024C24.8621 39.981 24.7617 40.2232 24.7617 40.4758C24.7617 40.7284 24.8621 40.9706 25.0407 41.1493C25.2193 41.3279 25.4615 41.4282 25.7141 41.4282H35.2379C35.4905 41.4282 35.7327 41.3279 35.9113 41.1493C36.09 40.9706 36.1903 40.7284 36.1903 40.4758C36.1903 40.2232 36.09 39.981 35.9113 39.8024C35.7327 39.6238 35.4905 39.5234 35.2379 39.5234H25.7141Z" fill="#2D4356"/>
<path d="M62.4671 54.7012C62.338 54.5004 62.1604 54.3352 61.9508 54.2211C61.7411 54.1069 61.506 54.0473 61.2673 54.0479H58.5692C58.1904 54.0483 57.8273 54.1989 57.5595 54.4667C57.2917 54.7346 57.141 55.0977 57.1406 55.4764V58.8098C57.141 59.1885 57.2917 59.5516 57.5595 59.8195C57.8273 60.0873 58.1904 60.2379 58.5692 60.2383H63.4227C63.6796 60.2383 63.9317 60.1691 64.1525 60.0378C64.3733 59.9066 64.5547 59.7183 64.6775 59.4926C64.8002 59.267 64.8599 59.0125 64.8502 58.7558C64.8405 58.4991 64.7617 58.2498 64.6222 58.0341L62.4671 54.7012ZM59.0454 58.3336V55.9526H61.008L62.5478 58.3336H59.0454Z" fill="#4C7DA7"/>
<path d="M22.8566 25.7143C22.856 25.2093 22.6551 24.7252 22.2981 24.3681C21.941 24.011 21.4568 23.8101 20.9518 23.8096H16.1899C15.6849 23.8101 15.2008 24.011 14.8437 24.3681C14.4866 24.7252 14.2857 25.2093 14.2852 25.7143V30.4762C14.2857 30.9812 14.4866 31.4654 14.8437 31.8225C15.2008 32.1796 15.6849 32.3804 16.1899 32.381H20.9518C21.4568 32.3804 21.941 32.1796 22.2981 31.8225C22.6551 31.4654 22.856 30.9812 22.8566 30.4762V25.7143ZM16.1899 30.4762V25.7143H20.3157L18.6533 27.3629L18.5126 27.4344L18.289 27.2127C18.2003 27.1241 18.095 27.0539 17.9791 27.0061C17.8632 26.9583 17.739 26.9339 17.6137 26.9342C17.4883 26.9345 17.3642 26.9596 17.2486 27.008C17.1329 27.0563 17.028 27.1271 16.9397 27.2161C16.8514 27.3051 16.7816 27.4107 16.7342 27.5268C16.6869 27.6428 16.6629 27.7671 16.6636 27.8925C16.6644 28.0178 16.6899 28.1418 16.7387 28.2573C16.7875 28.3728 16.8586 28.4775 16.9479 28.5654L17.8764 29.486C18.0547 29.6628 18.2958 29.762 18.547 29.762C18.7982 29.7619 19.0392 29.6626 19.2175 29.4857L20.9523 27.7653L20.953 30.4762H16.1899Z" fill="#4C7DA7"/>
<path d="M22.8566 36.1909C22.856 35.6859 22.6551 35.2017 22.2981 34.8447C21.941 34.4876 21.4568 34.2867 20.9518 34.2861H16.1899C15.6849 34.2867 15.2008 34.4876 14.8437 34.8447C14.4866 35.2017 14.2857 35.6859 14.2852 36.1909V40.9528C14.2857 41.4578 14.4865 41.942 14.8436 42.2991C15.2007 42.6562 15.6849 42.857 16.1899 42.8576H20.9518C21.4568 42.857 21.941 42.6562 22.2981 42.2991C22.6552 41.942 22.856 41.4578 22.8566 40.9528V36.1909ZM16.1899 40.9528V36.1909H20.3157L18.6533 37.8394L18.5126 37.911L18.289 37.6892C18.2003 37.6006 18.095 37.5304 17.9791 37.4827C17.8632 37.4349 17.739 37.4105 17.6137 37.4108C17.4883 37.4111 17.3642 37.4362 17.2486 37.4845C17.1329 37.5329 17.028 37.6036 16.9397 37.6927C16.8514 37.7817 16.7816 37.8873 16.7342 38.0033C16.6869 38.1194 16.6629 38.2437 16.6636 38.369C16.6644 38.4944 16.6899 38.6184 16.7387 38.7338C16.7875 38.8493 16.8586 38.954 16.9479 39.042L17.8764 39.9625C18.0547 40.1394 18.2958 40.2386 18.547 40.2385C18.7982 40.2385 19.0392 40.1392 19.2175 39.9623L20.9523 38.2419L20.953 40.9528H16.1899Z" fill="#2D4356"/>
<path d="M22.8566 46.6665C22.856 46.1615 22.6552 45.6773 22.2981 45.3202C21.941 44.9631 21.4568 44.7623 20.9518 44.7617H16.1899C15.6849 44.7623 15.2007 44.9631 14.8436 45.3202C14.4865 45.6773 14.2857 46.1615 14.2852 46.6665V51.4284C14.2857 51.9334 14.4865 52.4176 14.8436 52.7747C15.2007 53.1318 15.6849 53.3326 16.1899 53.3331H20.9518C21.4568 53.3326 21.941 53.1318 22.2981 52.7747C22.6552 52.4176 22.856 51.9334 22.8566 51.4284V46.6665ZM16.1899 51.4284V46.6665H20.3157L18.6533 48.315L18.5126 48.3866L18.289 48.1648C18.2003 48.0767 18.095 48.007 17.9792 47.9597C17.8635 47.9123 17.7396 47.8882 17.6145 47.8887C17.4895 47.8892 17.3657 47.9143 17.2504 47.9627C17.1351 48.011 17.0304 48.0816 16.9423 48.1704C16.8543 48.2592 16.7846 48.3644 16.7372 48.4802C16.6898 48.5959 16.6657 48.7198 16.6662 48.8449C16.6667 48.97 16.6919 49.0937 16.7402 49.209C16.7885 49.3244 16.8591 49.429 16.9479 49.5171L17.8763 50.4379C18.0547 50.6148 18.2957 50.7141 18.5469 50.7141C18.7981 50.7141 19.0392 50.6148 19.2175 50.4379L20.9523 48.7175L20.953 51.4284H16.1899Z" fill="#4C7DA7"/>
<path d="M20.9479 55.2373H16.186C15.681 55.2378 15.1968 55.4387 14.8397 55.7958C14.4826 56.1529 14.2818 56.6371 14.2812 57.1421V61.904C14.2818 62.409 14.4826 62.8932 14.8397 63.2502C15.1968 63.6073 15.681 63.8082 16.186 63.8087H20.9479C21.4529 63.8082 21.9371 63.6073 22.2942 63.2502C22.6513 62.8932 22.8521 62.409 22.8527 61.904V57.1421C22.8521 56.6371 22.6513 56.1529 22.2942 55.7958C21.9371 55.4387 21.4529 55.2378 20.9479 55.2373ZM16.186 61.904V57.1421H20.3118L18.6494 58.7906L18.5087 58.8622L18.2851 58.6404C18.1963 58.5523 18.0911 58.4826 17.9753 58.4352C17.8596 58.3879 17.7357 58.3637 17.6106 58.3643C17.4856 58.3648 17.3618 58.3899 17.2465 58.4383C17.1312 58.4866 17.0265 58.5572 16.9384 58.646C16.8504 58.7348 16.7806 58.84 16.7333 58.9558C16.6859 59.0715 16.6618 59.1954 16.6623 59.3205C16.6628 59.4455 16.688 59.5693 16.7363 59.6846C16.7846 59.7999 16.8552 59.9046 16.944 59.9927L17.8724 60.9135C18.0508 61.0904 18.2918 61.1897 18.543 61.1897C18.7942 61.1897 19.0352 61.0904 19.2136 60.9135L20.9484 59.193L20.9491 61.904H16.186Z" fill="#2D4356"/>
<path d="M12.3806 69.166H23.9071C23.4042 68.6383 23.0637 67.9771 22.9263 67.2612H12.3806C12.1281 67.2609 11.886 67.1605 11.7075 66.9819C11.5289 66.8034 11.4285 66.5613 11.4282 66.3088V21.5469C11.4285 21.2944 11.5289 21.0523 11.7074 20.8738C11.886 20.6952 12.1281 20.5948 12.3806 20.5945H44.7615C45.014 20.5948 45.2561 20.6952 45.4347 20.8738C45.6132 21.0523 45.7137 21.2944 45.7139 21.5469V45.5945H47.6187V21.5469C47.6178 20.7894 47.3166 20.0632 46.7809 19.5275C46.2453 18.9919 45.519 18.6906 44.7615 18.6898V16.785C44.761 16.28 44.5601 15.7959 44.203 15.4388C43.8459 15.0817 43.3618 14.8808 42.8568 14.8803H33.7224C33.2734 12.4449 31.1343 10.3564 28.5711 10.3564C26.0078 10.3564 23.8687 12.4449 23.4197 14.8803H14.2853C13.7803 14.8808 13.2962 15.0817 12.9391 15.4388C12.582 15.7959 12.3812 16.28 12.3806 16.785V18.6898C11.6231 18.6906 10.8968 18.9919 10.3612 19.5275C9.82555 20.0632 9.52426 20.7894 9.52344 21.5469V66.3088C9.52426 67.0663 9.82555 67.7926 10.3612 68.3282C10.8968 68.8639 11.6231 69.1651 12.3806 69.166ZM14.2853 16.785H24.2853C24.5379 16.785 24.7802 16.6847 24.9588 16.5061C25.1374 16.3275 25.2377 16.0852 25.2377 15.8326C25.2377 13.9946 26.733 12.2612 28.5711 12.2612C30.4091 12.2612 31.9044 13.9946 31.9044 15.8326C31.9044 16.0852 32.0047 16.3275 32.1833 16.5061C32.362 16.6847 32.6042 16.785 32.8568 16.785H42.8568V18.6898H14.2853V16.785Z" fill="#2D4356"/>
<path d="M42.4051 10.3523C42.6877 10.3523 42.9639 10.2685 43.1988 10.1115C43.4337 9.95453 43.6168 9.73142 43.725 9.47038C43.8331 9.20934 43.8614 8.9221 43.8063 8.64499C43.7511 8.36787 43.6151 8.11333 43.4153 7.91354C43.2155 7.71375 42.961 7.57769 42.6838 7.52257C42.4067 7.46745 42.1195 7.49574 41.8584 7.60386C41.5974 7.71199 41.3743 7.89509 41.2173 8.13002C41.0603 8.36494 40.9766 8.64114 40.9766 8.92369C40.977 9.30244 41.1276 9.66555 41.3955 9.93336C41.6633 10.2012 42.0264 10.3518 42.4051 10.3523ZM42.4051 8.2094C42.5464 8.2094 42.6845 8.2513 42.802 8.32978C42.9194 8.40827 43.011 8.51983 43.065 8.65034C43.1191 8.78086 43.1333 8.92448 43.1057 9.06304C43.0781 9.2016 43.0101 9.32887 42.9102 9.42877C42.8103 9.52866 42.683 9.59669 42.5445 9.62425C42.4059 9.65181 42.2623 9.63767 42.1318 9.5836C42.0013 9.52954 41.8897 9.43799 41.8112 9.32053C41.7327 9.20306 41.6908 9.06496 41.6908 8.92369C41.691 8.73431 41.7664 8.55273 41.9003 8.41882C42.0342 8.2849 42.2158 8.20959 42.4051 8.2094Z" fill="#2D4356"/>
<path d="M59.5461 3.45215C59.3578 3.45215 59.1736 3.508 59.017 3.61265C58.8604 3.7173 58.7383 3.86604 58.6662 4.04007C58.5942 4.21409 58.5753 4.40559 58.612 4.59033C58.6488 4.77507 58.7395 4.94477 58.8727 5.07796C59.0059 5.21116 59.1756 5.30186 59.3603 5.33861C59.5451 5.37536 59.7366 5.3565 59.9106 5.28441C60.0846 5.21233 60.2334 5.09026 60.338 4.93364C60.4427 4.77703 60.4985 4.59289 60.4985 4.40453C60.4982 4.15203 60.3978 3.90996 60.2192 3.73141C60.0407 3.55287 59.7986 3.45244 59.5461 3.45215ZM59.5461 4.88072C59.4519 4.88072 59.3599 4.85279 59.2816 4.80047C59.2033 4.74814 59.1422 4.67377 59.1062 4.58676C59.0701 4.49975 59.0607 4.404 59.0791 4.31163C59.0975 4.21926 59.1428 4.13441 59.2094 4.06781C59.276 4.00122 59.3609 3.95586 59.4532 3.93749C59.5456 3.91911 59.6413 3.92854 59.7284 3.96459C59.8154 4.00063 59.8897 4.06166 59.9421 4.13997C59.9944 4.21828 60.0223 4.31035 60.0223 4.40453C60.0222 4.53078 59.972 4.65183 59.8827 4.74111C59.7934 4.83038 59.6724 4.88059 59.5461 4.88072Z" fill="#2D4356"/>
<path d="M29.0735 2.02344C28.8851 2.02344 28.701 2.07929 28.5444 2.18394C28.3877 2.28859 28.2657 2.43733 28.1936 2.61136C28.1215 2.78538 28.1026 2.97687 28.1394 3.16162C28.1761 3.34636 28.2668 3.51606 28.4 3.64925C28.5332 3.78245 28.7029 3.87315 28.8877 3.9099C29.0724 3.94665 29.2639 3.92779 29.4379 3.8557C29.612 3.78362 29.7607 3.66155 29.8654 3.50493C29.97 3.34831 30.0259 3.16418 30.0259 2.97582C30.0256 2.72332 29.9251 2.48125 29.7466 2.3027C29.568 2.12416 29.326 2.02373 29.0735 2.02344ZM29.0735 3.45201C28.9793 3.45201 28.8872 3.42408 28.8089 3.37176C28.7306 3.31943 28.6696 3.24506 28.6335 3.15805C28.5975 3.07104 28.5881 2.97529 28.6064 2.88292C28.6248 2.79055 28.6702 2.7057 28.7368 2.6391C28.8034 2.5725 28.8882 2.52715 28.9806 2.50878C29.0729 2.4904 29.1687 2.49983 29.2557 2.53588C29.3427 2.57192 29.4171 2.63295 29.4694 2.71126C29.5217 2.78957 29.5497 2.88164 29.5497 2.97582C29.5495 3.10207 29.4993 3.22312 29.4101 3.3124C29.3208 3.40167 29.1997 3.45188 29.0735 3.45201Z" fill="#2D4356"/>
<path d="M63.3586 14.5234C63.1703 14.5234 62.9861 14.5793 62.8295 14.6839C62.6729 14.7886 62.5508 14.9373 62.4787 15.1114C62.4067 15.2854 62.3878 15.4769 62.4245 15.6616C62.4613 15.8464 62.552 16.0161 62.6852 16.1493C62.8184 16.2824 62.9881 16.3732 63.1728 16.4099C63.3576 16.4466 63.5491 16.4278 63.7231 16.3557C63.8971 16.2836 64.0459 16.1616 64.1505 16.0049C64.2552 15.8483 64.311 15.6642 64.311 15.4758C64.3107 15.2233 64.2103 14.9812 64.0318 14.8027C63.8532 14.6242 63.6111 14.5237 63.3586 14.5234ZM63.3586 15.952C63.2645 15.952 63.1724 15.9241 63.0941 15.8718C63.0158 15.8194 62.9547 15.7451 62.9187 15.658C62.8826 15.571 62.8732 15.4753 62.8916 15.3829C62.91 15.2905 62.9553 15.2057 63.0219 15.1391C63.0885 15.0725 63.1734 15.0272 63.2657 15.0088C63.3581 14.9904 63.4538 14.9998 63.5409 15.0359C63.6279 15.0719 63.7022 15.133 63.7546 15.2113C63.8069 15.2896 63.8348 15.3816 63.8348 15.4758C63.8347 15.6021 63.7845 15.7231 63.6952 15.8124C63.6059 15.9017 63.4849 15.9519 63.3586 15.952Z" fill="#2D4356"/>
<path d="M5.09226 23.3049C5.09226 23.1166 5.03641 22.9324 4.93176 22.7758C4.82711 22.6192 4.67837 22.4971 4.50434 22.425C4.33032 22.353 4.13882 22.3341 3.95408 22.3708C3.76934 22.4076 3.59964 22.4983 3.46645 22.6315C3.33325 22.7647 3.24255 22.9344 3.2058 23.1191C3.16905 23.3039 3.18791 23.4954 3.26 23.6694C3.33208 23.8434 3.45415 23.9921 3.61077 24.0968C3.76739 24.2014 3.95152 24.2573 4.13988 24.2573C4.39238 24.257 4.63445 24.1566 4.813 23.978C4.99154 23.7995 5.09197 23.5574 5.09226 23.3049ZM3.66369 23.3049C3.66369 23.2107 3.69162 23.1187 3.74394 23.0404C3.79627 22.9621 3.87064 22.901 3.95765 22.865C4.04466 22.8289 4.14041 22.8195 4.23278 22.8379C4.32515 22.8563 4.41 22.9016 4.4766 22.9682C4.5432 23.0348 4.58855 23.1196 4.60692 23.212C4.6253 23.3044 4.61587 23.4001 4.57982 23.4872C4.54378 23.5742 4.48275 23.6485 4.40444 23.7009C4.32613 23.7532 4.23406 23.7811 4.13988 23.7811C4.01363 23.781 3.89258 23.7308 3.8033 23.6415C3.71403 23.5522 3.66382 23.4312 3.66369 23.3049Z" fill="#2D4356"/>
<path d="M18.77 9.63643L19.4781 8.70548L19.031 8.45215L18.5767 9.49501H18.5614L18.1 8.45929L17.6448 8.72024L18.3457 9.62929V9.64405L17.25 9.50262V10.0093L18.3529 9.86786V9.88262L17.6448 10.7912L18.0695 11.0598L18.5543 10.0093H18.5686L19.0157 11.0521L19.4852 10.7841L18.77 9.88977V9.87501L19.8948 10.0093V9.50262L18.77 9.65167V9.63643Z" fill="#4C7DA7"/>
<path d="M4.20507 8.24568L3.79746 8.76902L4.04222 8.9233L4.32126 8.31854H4.32936L4.58698 8.91902L4.85746 8.76473L4.44555 8.24949V8.24092L5.09317 8.31854V8.02664L4.44555 8.11235V8.10378L4.85317 7.56759L4.59603 7.42188L4.33412 8.02235H4.32555L4.05936 7.42568L3.79746 7.57616L4.20127 8.09949V8.10807L3.57031 8.02664V8.31854L4.20507 8.23711V8.24568Z" fill="#4C7DA7"/>
<path d="M75.7432 23.7918V23.2951L74.6399 23.4413V23.4266L75.3342 22.5132L74.8956 22.2646L74.4499 23.2875H74.4351L73.9823 22.2718L73.5361 22.528L74.2232 23.4194V23.4342L73.1484 23.2951V23.7918L74.2303 23.6532V23.668L73.5361 24.5594L73.9527 24.8227L74.428 23.7918H74.4423L74.8808 24.8151L75.3413 24.5523L74.6399 23.6751V23.6604L75.7432 23.7918Z" fill="#4C7DA7"/>
<path d="M75.4776 3.73187L76.0766 2.94378L75.6985 2.72949L75.3138 3.61187H75.3009L74.9105 2.73568L74.5252 2.95664L75.1181 3.72568V3.73806L74.1914 3.61854V4.04711L75.1243 3.92711V3.93997L74.5252 4.70902L74.8847 4.93616L75.2947 4.04711H75.3071L75.6857 4.92949L76.0828 4.70283L75.4776 3.94616V3.9333L76.429 4.04711V3.61854L75.4776 3.74425V3.73187Z" fill="#4C7DA7"/>
<path d="M0.952381 71.3091C1.47837 71.3091 1.90476 70.8827 1.90476 70.3567C1.90476 69.8307 1.47837 69.4043 0.952381 69.4043C0.426395 69.4043 0 69.8307 0 70.3567C0 70.8827 0.426395 71.3091 0.952381 71.3091Z" fill="#2D4356"/>
<path d="M5.24033 69.4043H3.81176C3.55917 69.4043 3.31693 69.5046 3.13832 69.6832C2.95971 69.8618 2.85938 70.1041 2.85938 70.3567C2.85938 70.6093 2.95971 70.8515 3.13832 71.0301C3.31693 71.2087 3.55917 71.3091 3.81176 71.3091H5.24033C5.49291 71.3091 5.73516 71.2087 5.91376 71.0301C6.09237 70.8515 6.19271 70.6093 6.19271 70.3567C6.19271 70.1041 6.09237 69.8618 5.91376 69.6832C5.73516 69.5046 5.49291 69.4043 5.24033 69.4043Z" fill="#2D4356"/>
<path d="M76.1895 69.4043H74.761C74.5084 69.4043 74.2661 69.5046 74.0875 69.6832C73.9089 69.8618 73.8086 70.1041 73.8086 70.3567C73.8086 70.6093 73.9089 70.8515 74.0875 71.0301C74.2661 71.2087 74.5084 71.3091 74.761 71.3091H76.1895C76.4421 71.3091 76.6844 71.2087 76.863 71.0301C77.0416 70.8515 77.1419 70.6093 77.1419 70.3567C77.1419 70.1041 77.0416 69.8618 76.863 69.6832C76.6844 69.5046 76.4421 69.4043 76.1895 69.4043Z" fill="#2D4356"/>
<path d="M79.0461 71.3091C79.5721 71.3091 79.9985 70.8827 79.9985 70.3567C79.9985 69.8307 79.5721 69.4043 79.0461 69.4043C78.5201 69.4043 78.0938 69.8307 78.0938 70.3567C78.0938 70.8827 78.5201 71.3091 79.0461 71.3091Z" fill="#2D4356"/>
<path d="M56.2649 73.2139H52.3088C52.0694 73.2331 51.846 73.3417 51.6831 73.5182C51.5202 73.6947 51.4297 73.9261 51.4297 74.1662C51.4297 74.4064 51.5202 74.6378 51.6831 74.8143C51.846 74.9908 52.0694 75.0994 52.3088 75.1186H56.2649C56.5043 75.0994 56.7277 74.9908 56.8906 74.8143C57.0535 74.6378 57.144 74.4064 57.144 74.1662C57.144 73.9261 57.0535 73.6947 56.8906 73.5182C56.7277 73.3417 56.5043 73.2331 56.2649 73.2139Z" fill="#4C7DA7"/>
<path d="M27.6946 73.2139H23.7385C23.4991 73.2331 23.2757 73.3417 23.1128 73.5182C22.9498 73.6947 22.8594 73.9261 22.8594 74.1662C22.8594 74.4064 22.9498 74.6378 23.1128 74.8143C23.2757 74.9908 23.4991 75.0994 23.7385 75.1186H27.6946C27.934 75.0994 28.1574 74.9908 28.3203 74.8143C28.4832 74.6378 28.5737 74.4064 28.5737 74.1662C28.5737 73.9261 28.4832 73.6947 28.3203 73.5182C28.1574 73.3417 27.934 73.2331 27.6946 73.2139Z" fill="#4C7DA7"/>
<path d="M49.5234 73.2139H30.4758C30.2232 73.2139 29.981 73.3142 29.8024 73.4928C29.6238 73.6714 29.5234 73.9137 29.5234 74.1662C29.5234 74.4188 29.6238 74.6611 29.8024 74.8397C29.981 75.0183 30.2232 75.1186 30.4758 75.1186H38.0663V76.071H34.2853C34.0328 76.071 33.7905 76.1713 33.6119 76.35C33.4333 76.5286 33.333 76.7708 33.333 77.0234C33.333 77.276 33.4333 77.5182 33.6119 77.6968C33.7905 77.8754 34.0328 77.9758 34.2853 77.9758H46.1901C46.4427 77.9758 46.6849 77.8754 46.8635 77.6968C47.0421 77.5182 47.1425 77.276 47.1425 77.0234C47.1425 76.7708 47.0421 76.5286 46.8635 76.35C46.6849 76.1713 46.4427 76.071 46.1901 76.071H41.933V75.1186H49.5234C49.776 75.1186 50.0183 75.0183 50.1969 74.8397C50.3755 74.6611 50.4758 74.4188 50.4758 74.1662C50.4758 73.9137 50.3755 73.6714 50.1969 73.4928C50.0183 73.3142 49.776 73.2139 49.5234 73.2139Z" fill="#4C7DA7"/>
<path d="M71.7696 69.4048H65.1928C65.3667 69.1067 65.4992 68.7863 65.5865 68.4524H68.1149C68.7419 68.4501 69.3423 68.1992 69.7846 67.7548C70.2268 67.3103 70.4746 66.7086 70.4738 66.0817V61.171C70.4743 60.5289 70.2889 59.9005 69.9399 59.3615L64.679 51.2216C64.508 50.9559 64.2729 50.7375 63.9954 50.5865C63.7178 50.4354 63.4067 50.3565 63.0907 50.3572H55.2287C54.7256 50.3577 54.2432 50.5579 53.8874 50.9136C53.5316 51.2694 53.3315 51.7518 53.3309 52.2549V62.7381H51.9024V49.4048C51.9018 48.8998 51.701 48.4156 51.3439 48.0585C50.9868 47.7014 50.5026 47.5005 49.9976 47.5H28.0928C27.5878 47.5005 27.1037 47.7014 26.7466 48.0585C26.3895 48.4156 26.1886 48.8998 26.1881 49.4048V62.8057C25.7802 62.9107 25.4187 63.148 25.1602 63.4804C24.9016 63.8129 24.7607 64.2217 24.7595 64.6429V66.5476C24.76 67.0526 24.9609 67.5368 25.318 67.8939C25.6751 68.251 26.1593 68.4518 26.6643 68.4524H33.9325C34.0198 68.7863 34.1523 69.1067 34.3262 69.4048H8.22554C8.09005 69.3871 7.95234 69.3985 7.82162 69.4382C7.69089 69.478 7.57015 69.5452 7.46746 69.6353C7.36478 69.7255 7.2825 69.8365 7.22614 69.961C7.16978 70.0854 7.14062 70.2205 7.14062 70.3571C7.14062 70.4938 7.16978 70.6289 7.22614 70.7533C7.2825 70.8778 7.36478 70.9888 7.46746 71.079C7.57015 71.1691 7.69089 71.2363 7.82162 71.2761C7.95234 71.3158 8.09005 71.3272 8.22554 71.3095H71.7696C71.9051 71.3272 72.0428 71.3158 72.1736 71.2761C72.3043 71.2363 72.425 71.1691 72.5277 71.079C72.6304 70.9888 72.7127 70.8778 72.7691 70.7533C72.8254 70.6289 72.8546 70.4938 72.8546 70.3571C72.8546 70.2205 72.8254 70.0854 72.7691 69.961C72.7127 69.8365 72.6304 69.7255 72.5277 69.6353C72.425 69.5452 72.3043 69.478 72.1736 69.4382C72.0428 69.3985 71.9051 69.3871 71.7696 69.4048ZM59.9976 67.5C59.9976 67.1233 60.1093 66.755 60.3186 66.4418C60.5279 66.1285 60.8254 65.8844 61.1734 65.7402C61.5215 65.5961 61.9045 65.5583 62.274 65.6318C62.6434 65.7053 62.9828 65.8867 63.2492 66.1531C63.5156 66.4195 63.697 66.7589 63.7705 67.1284C63.844 67.4979 63.8063 67.8809 63.6621 68.2289C63.518 68.577 63.2738 68.8745 62.9606 69.0838C62.6473 69.2931 62.2791 69.4048 61.9024 69.4048C61.3973 69.4042 60.9132 69.2034 60.5561 68.8463C60.199 68.4892 59.9981 68.005 59.9976 67.5ZM63.0796 52.2559L68.3405 60.3957C68.4898 60.6267 68.5692 60.8959 68.569 61.171V66.0817C68.5705 66.2036 68.5235 66.3212 68.4384 66.4086C68.3532 66.4959 68.2369 66.5459 68.1149 66.5476L65.5872 66.5506C65.3775 65.7317 64.901 65.006 64.2329 64.4881C63.5648 63.9701 62.7433 63.6895 61.898 63.6905C61.0527 63.6915 60.2317 63.974 59.5649 64.4934C58.898 65.0129 58.4231 65.7397 58.2153 66.559L55.2357 66.5625V62.7381H55.2337L55.2283 52.2619L63.0796 52.2559ZM55.221 68.4524H58.2182C58.3056 68.7863 58.438 69.1067 58.6119 69.4048H40.907C41.081 69.1067 41.2134 68.7863 41.3008 68.4524H55.221ZM36.1881 49.4048H41.9024V54.1667H36.1881V49.4048ZM28.0928 49.4048H34.2833V54.1667C34.2838 54.6717 34.4847 55.1558 34.8418 55.5129C35.1989 55.87 35.6831 56.0709 36.1881 56.0714H41.9024C42.4074 56.0709 42.8915 55.87 43.2486 55.5129C43.6057 55.1558 43.8066 54.6717 43.8071 54.1667V49.4048H49.9976V62.7381H43.559C42.8463 61.8466 41.9421 61.1269 40.9134 60.6323C39.8848 60.1378 38.758 59.881 37.6166 59.881C36.4753 59.881 35.3485 60.1378 34.3199 60.6323C33.2912 61.1269 32.387 61.8466 31.6743 62.7381H28.0928V49.4048ZM26.6643 66.5476L26.6631 64.6429H32.6464L32.9305 64.236C33.456 63.4797 34.1566 62.8619 34.9726 62.4352C35.7886 62.0086 36.6958 61.7857 37.6166 61.7857C38.5375 61.7857 39.4446 62.0086 40.2607 62.4352C41.0767 62.8619 41.7773 63.4797 42.3027 64.236L42.5869 64.6429H53.3309V66.5476H41.3008C41.0907 65.7301 40.6147 65.0057 39.9478 64.4884C39.2808 63.9712 38.4607 63.6904 37.6166 63.6904C36.7726 63.6904 35.9525 63.9712 35.2855 64.4884C34.6185 65.0057 34.1425 65.7301 33.9325 66.5476H26.6643ZM35.7119 67.5C35.7119 67.1233 35.8236 66.755 36.0329 66.4418C36.2422 66.1285 36.5397 65.8844 36.8877 65.7402C37.2358 65.5961 37.6188 65.5583 37.9882 65.6318C38.3577 65.7053 38.6971 65.8867 38.9635 66.1531C39.2299 66.4195 39.4113 66.7589 39.4848 67.1284C39.5583 67.4979 39.5206 67.8809 39.3764 68.2289C39.2322 68.577 38.9881 68.8745 38.6749 69.0838C38.3616 69.2931 37.9934 69.4048 37.6166 69.4048C37.1116 69.4042 36.6275 69.2034 36.2704 68.8463C35.9133 68.4892 35.7124 68.005 35.7119 67.5Z" fill="#2D4356"/>
</svg>
