<svg width="80" height="80" viewBox="0 0 80 80" fill="none" xmlns="http://www.w3.org/2000/svg">
    <g clip-path="url(#clip0_715_31449)">
        <path
            d="M39.9998 25.238H25.7141C25.4615 25.238 25.2193 25.3384 25.0407 25.517C24.8621 25.6956 24.7617 25.9378 24.7617 26.1904C24.7617 26.443 24.8621 26.6852 25.0407 26.8639C25.2193 27.0425 25.4615 27.1428 25.7141 27.1428H39.9998C40.2524 27.1428 40.4946 27.0425 40.6732 26.8639C40.8519 26.6852 40.9522 26.443 40.9522 26.1904C40.9522 25.9378 40.8519 25.6956 40.6732 25.517C40.4946 25.3384 40.2524 25.238 39.9998 25.238Z"
            fill="#2D4356" />
        <path
            d="M25.7141 30.9524H35.2379C35.4905 30.9524 35.7327 30.852 35.9113 30.6734C36.09 30.4948 36.1903 30.2526 36.1903 30C36.1903 29.7474 36.09 29.5052 35.9113 29.3266C35.7327 29.1479 35.4905 29.0476 35.2379 29.0476H25.7141C25.4615 29.0476 25.2193 29.1479 25.0407 29.3266C24.8621 29.5052 24.7617 29.7474 24.7617 30C24.7617 30.2526 24.8621 30.4948 25.0407 30.6734C25.2193 30.852 25.4615 30.9524 25.7141 30.9524Z"
            fill="#0BCEB2" />
        <path
            d="M40.9522 36.6666C40.9522 36.414 40.8518 36.1718 40.6732 35.9932C40.4946 35.8146 40.2524 35.7142 39.9998 35.7142H25.7141C25.4615 35.7142 25.2193 35.8146 25.0407 35.9932C24.8621 36.1718 24.7617 36.414 24.7617 36.6666C24.7617 36.9192 24.8621 37.1614 25.0407 37.3401C25.2193 37.5187 25.4615 37.619 25.7141 37.619H39.9998C40.2524 37.619 40.4946 37.5186 40.6732 37.34C40.8518 37.1614 40.9522 36.9192 40.9522 36.6666Z"
            fill="#0BCEB2" />
        <path
            d="M25.7141 39.5238C25.4615 39.5238 25.2193 39.6241 25.0407 39.8027C24.8621 39.9814 24.7617 40.2236 24.7617 40.4762C24.7617 40.7288 24.8621 40.971 25.0407 41.1496C25.2193 41.3282 25.4615 41.4286 25.7141 41.4286H35.2379C35.4905 41.4286 35.7327 41.3282 35.9113 41.1496C36.09 40.971 36.1903 40.7288 36.1903 40.4762C36.1903 40.2236 36.09 39.9814 35.9113 39.8027C35.7327 39.6241 35.4905 39.5238 35.2379 39.5238H25.7141Z"
            fill="#2D4356" />
        <path
            d="M62.469 54.701C62.34 54.5001 62.1624 54.335 61.9527 54.2208C61.743 54.1066 61.508 54.0471 61.2692 54.0476H58.5711C58.1924 54.048 57.8293 54.1987 57.5615 54.4665C57.2936 54.7343 57.143 55.0974 57.1426 55.4762V58.8095C57.143 59.1883 57.2936 59.5514 57.5615 59.8192C57.8293 60.087 58.1924 60.2377 58.5711 60.2381H63.4247C63.6815 60.2381 63.9336 60.1688 64.1545 60.0376C64.3753 59.9064 64.5566 59.718 64.6794 59.4924C64.8022 59.2668 64.8619 59.0122 64.8521 58.7555C64.8424 58.4989 64.7637 58.2495 64.6242 58.0338L62.469 54.701ZM59.0473 58.3333V55.9524H61.01L62.5497 58.3333H59.0473Z"
            fill="#0BCEB2" />
        <path
            d="M22.8566 25.7143C22.856 25.2093 22.6551 24.7252 22.2981 24.3681C21.941 24.011 21.4568 23.8101 20.9518 23.8096H16.1899C15.6849 23.8101 15.2008 24.011 14.8437 24.3681C14.4866 24.7252 14.2857 25.2093 14.2852 25.7143V30.4762C14.2857 30.9812 14.4866 31.4654 14.8437 31.8225C15.2008 32.1796 15.6849 32.3804 16.1899 32.381H20.9518C21.4568 32.3804 21.941 32.1796 22.2981 31.8225C22.6551 31.4654 22.856 30.9812 22.8566 30.4762V25.7143ZM16.1899 30.4762V25.7143H20.3157L18.6533 27.3629L18.5126 27.4344L18.289 27.2127C18.2003 27.1241 18.095 27.0539 17.9791 27.0061C17.8632 26.9583 17.739 26.9339 17.6137 26.9342C17.4883 26.9345 17.3642 26.9596 17.2486 27.008C17.1329 27.0563 17.028 27.1271 16.9397 27.2161C16.8514 27.3051 16.7816 27.4107 16.7342 27.5268C16.6869 27.6428 16.6629 27.7671 16.6636 27.8925C16.6644 28.0178 16.6899 28.1418 16.7387 28.2573C16.7875 28.3728 16.8586 28.4775 16.9479 28.5654L17.8764 29.486C18.0547 29.6628 18.2958 29.762 18.547 29.762C18.7982 29.7619 19.0392 29.6626 19.2175 29.4857L20.9523 27.7653L20.953 30.4762H16.1899Z"
            fill="#0BCEB2" />
        <path
            d="M22.8566 36.1904C22.856 35.6854 22.6551 35.2013 22.2981 34.8442C21.941 34.4871 21.4568 34.2862 20.9518 34.2856H16.1899C15.6849 34.2862 15.2008 34.4871 14.8437 34.8442C14.4866 35.2013 14.2857 35.6854 14.2852 36.1904V40.9523C14.2857 41.4573 14.4865 41.9415 14.8436 42.2986C15.2007 42.6557 15.6849 42.8565 16.1899 42.8571H20.9518C21.4568 42.8565 21.941 42.6557 22.2981 42.2986C22.6552 41.9415 22.856 41.4573 22.8566 40.9523V36.1904ZM16.1899 40.9523V36.1904H20.3157L18.6533 37.8389L18.5126 37.9105L18.289 37.6887C18.2003 37.6002 18.095 37.53 17.9791 37.4822C17.8632 37.4344 17.739 37.41 17.6137 37.4103C17.4883 37.4106 17.3642 37.4357 17.2486 37.484C17.1329 37.5324 17.028 37.6031 16.9397 37.6922C16.8514 37.7812 16.7816 37.8868 16.7342 38.0028C16.6869 38.1189 16.6629 38.2432 16.6636 38.3685C16.6644 38.4939 16.6899 38.6179 16.7387 38.7334C16.7875 38.8488 16.8586 38.9536 16.9479 39.0415L17.8764 39.962C18.0547 40.1389 18.2958 40.2381 18.547 40.238C18.7982 40.238 19.0392 40.1387 19.2175 39.9618L20.9523 38.2414L20.953 40.9523H16.1899Z"
            fill="#2D4356" />
        <path
            d="M22.8566 46.6667C22.856 46.1617 22.6552 45.6775 22.2981 45.3204C21.941 44.9634 21.4568 44.7625 20.9518 44.762H16.1899C15.6849 44.7625 15.2007 44.9634 14.8436 45.3204C14.4865 45.6775 14.2857 46.1617 14.2852 46.6667V51.4286C14.2857 51.9336 14.4865 52.4178 14.8436 52.7749C15.2007 53.132 15.6849 53.3329 16.1899 53.3334H20.9518C21.4568 53.3329 21.941 53.132 22.2981 52.7749C22.6552 52.4178 22.856 51.9336 22.8566 51.4286V46.6667ZM16.1899 51.4286V46.6667H20.3157L18.6533 48.3153L18.5126 48.3868L18.289 48.165C18.2003 48.077 18.095 48.0073 17.9792 47.9599C17.8635 47.9125 17.7396 47.8884 17.6145 47.8889C17.4895 47.8894 17.3657 47.9146 17.2504 47.9629C17.1351 48.0113 17.0304 48.0818 16.9423 48.1706C16.8543 48.2594 16.7846 48.3647 16.7372 48.4804C16.6898 48.5962 16.6657 48.7201 16.6662 48.8451C16.6667 48.9702 16.6919 49.0939 16.7402 49.2093C16.7885 49.3246 16.8591 49.4293 16.9479 49.5174L17.8763 50.4381C18.0547 50.615 18.2957 50.7143 18.5469 50.7143C18.7981 50.7143 19.0392 50.615 19.2175 50.4381L20.9523 48.7177L20.953 51.4286H16.1899Z"
            fill="#0BCEB2" />
        <path
            d="M20.9518 55.238H16.1899C15.6849 55.2386 15.2007 55.4394 14.8436 55.7965C14.4865 56.1536 14.2857 56.6378 14.2852 57.1428V61.9047C14.2857 62.4097 14.4865 62.8939 14.8436 63.251C15.2007 63.6081 15.6849 63.8089 16.1899 63.8095H20.9518C21.4568 63.8089 21.941 63.6081 22.2981 63.251C22.6552 62.8939 22.856 62.4097 22.8566 61.9047V57.1428C22.856 56.6378 22.6552 56.1536 22.2981 55.7965C21.941 55.4394 21.4568 55.2386 20.9518 55.238ZM16.1899 61.9047V57.1428H20.3157L18.6533 58.7913L18.5126 58.8629L18.289 58.6411C18.2003 58.5531 18.095 58.4834 17.9792 58.436C17.8635 58.3886 17.7396 58.3645 17.6145 58.365C17.4895 58.3655 17.3657 58.3907 17.2504 58.439C17.1351 58.4873 17.0304 58.5579 16.9423 58.6467C16.8543 58.7355 16.7846 58.8408 16.7372 58.9565C16.6898 59.0722 16.6657 59.1962 16.6662 59.3212C16.6667 59.4463 16.6919 59.57 16.7402 59.6853C16.7885 59.8007 16.8591 59.9054 16.9479 59.9934L17.8763 60.9142C18.0547 61.0911 18.2957 61.1904 18.5469 61.1904C18.7981 61.1904 19.0392 61.0911 19.2175 60.9142L20.9523 59.1938L20.953 61.9047H16.1899Z"
            fill="#2D4356" />
        <path
            d="M12.3806 69.1667H23.9071C23.4042 68.639 23.0637 67.9778 22.9263 67.2619H12.3806C12.1281 67.2617 11.886 67.1612 11.7075 66.9827C11.5289 66.8041 11.4285 66.5621 11.4282 66.3096V21.5477C11.4285 21.2951 11.5289 21.053 11.7074 20.8745C11.886 20.6959 12.1281 20.5955 12.3806 20.5953H44.7615C45.014 20.5955 45.2561 20.6959 45.4347 20.8745C45.6132 21.053 45.7137 21.2951 45.7139 21.5477V45.5953H47.6187V21.5477C47.6178 20.7901 47.3166 20.0639 46.7809 19.5283C46.2453 18.9926 45.519 18.6913 44.7615 18.6905V16.7857C44.761 16.2808 44.5601 15.7966 44.203 15.4395C43.8459 15.0824 43.3618 14.8816 42.8568 14.881H33.7224C33.2734 12.4456 31.1343 10.3572 28.5711 10.3572C26.0078 10.3572 23.8687 12.4456 23.4197 14.881H14.2853C13.7803 14.8816 13.2962 15.0824 12.9391 15.4395C12.582 15.7966 12.3812 16.2808 12.3806 16.7857V18.6905C11.6231 18.6913 10.8968 18.9926 10.3612 19.5283C9.82555 20.0639 9.52426 20.7901 9.52344 21.5477V66.3096C9.52426 67.0671 9.82555 67.7933 10.3612 68.3289C10.8968 68.8646 11.6231 69.1659 12.3806 69.1667ZM14.2853 16.7857H24.2853C24.5379 16.7857 24.7802 16.6854 24.9588 16.5068C25.1374 16.3282 25.2377 16.086 25.2377 15.8334C25.2377 13.9953 26.733 12.2619 28.5711 12.2619C30.4091 12.2619 31.9044 13.9953 31.9044 15.8334C31.9044 16.086 32.0047 16.3282 32.1833 16.5068C32.362 16.6854 32.6042 16.7857 32.8568 16.7857H42.8568V18.6905H14.2853V16.7857Z"
            fill="#2D4356" />
        <path
            d="M42.4071 10.3525C42.6896 10.3525 42.9658 10.2687 43.2008 10.1117C43.4357 9.95477 43.6188 9.73166 43.7269 9.47062C43.835 9.20959 43.8633 8.92235 43.8082 8.64523C43.7531 8.36812 43.617 8.11357 43.4172 7.91378C43.2175 7.71399 42.9629 7.57793 42.6858 7.52281C42.4087 7.46769 42.1214 7.49598 41.8604 7.60411C41.5994 7.71223 41.3762 7.89533 41.2193 8.13026C41.0623 8.36519 40.9785 8.64139 40.9785 8.92393C40.9789 9.30268 41.1296 9.66579 41.3974 9.93361C41.6652 10.2014 42.0283 10.3521 42.4071 10.3525ZM42.4071 8.20965C42.5484 8.20965 42.6865 8.25154 42.8039 8.33003C42.9214 8.40851 43.0129 8.52007 43.067 8.65059C43.1211 8.78111 43.1352 8.92473 43.1077 9.06328C43.0801 9.20184 43.0121 9.32911 42.9122 9.42901C42.8123 9.5289 42.685 9.59693 42.5464 9.62449C42.4079 9.65206 42.2643 9.63791 42.1337 9.58385C42.0032 9.52978 41.8917 9.43823 41.8132 9.32077C41.7347 9.20331 41.6928 9.06521 41.6928 8.92393C41.693 8.73455 41.7683 8.55298 41.9022 8.41906C42.0361 8.28515 42.2177 8.20983 42.4071 8.20965Z"
            fill="#2D4356" />
        <path
            d="M59.55 3.45239C59.3617 3.45239 59.1775 3.50825 59.0209 3.6129C58.8643 3.71755 58.7422 3.86629 58.6702 4.04031C58.5981 4.21434 58.5792 4.40583 58.616 4.59057C58.6527 4.77532 58.7434 4.94502 58.8766 5.07821C59.0098 5.2114 59.1795 5.30211 59.3642 5.33885C59.549 5.3756 59.7405 5.35674 59.9145 5.28466C60.0885 5.21258 60.2373 5.09051 60.3419 4.93389C60.4466 4.77727 60.5024 4.59314 60.5024 4.40477C60.5021 4.15228 60.4017 3.9102 60.2232 3.73166C60.0446 3.55311 59.8025 3.45268 59.55 3.45239ZM59.55 4.88096C59.4559 4.88096 59.3638 4.85304 59.2855 4.80071C59.2072 4.74839 59.1461 4.67402 59.1101 4.587C59.0741 4.49999 59.0646 4.40425 59.083 4.31187C59.1014 4.2195 59.1467 4.13465 59.2133 4.06806C59.2799 4.00146 59.3648 3.95611 59.4571 3.93773C59.5495 3.91936 59.6453 3.92879 59.7323 3.96483C59.8193 4.00087 59.8937 4.06191 59.946 4.14022C59.9983 4.21853 60.0262 4.31059 60.0262 4.40477C60.0261 4.53103 59.9759 4.65208 59.8866 4.74135C59.7973 4.83063 59.6763 4.88084 59.55 4.88096Z"
            fill="#2D4356" />
        <path
            d="M29.0754 2.0238C28.8871 2.0238 28.7029 2.07966 28.5463 2.18431C28.3897 2.28896 28.2676 2.4377 28.1955 2.61172C28.1235 2.78575 28.1046 2.97724 28.1413 3.16198C28.1781 3.34673 28.2688 3.51643 28.402 3.64962C28.5352 3.78281 28.7049 3.87352 28.8896 3.91027C29.0744 3.94701 29.2659 3.92815 29.4399 3.85607C29.6139 3.78399 29.7627 3.66192 29.8673 3.5053C29.972 3.34868 30.0278 3.16455 30.0278 2.97618C30.0275 2.72369 29.9271 2.48161 29.7485 2.30307C29.57 2.12452 29.3279 2.02409 29.0754 2.0238ZM29.0754 3.45238C28.9812 3.45238 28.8892 3.42445 28.8109 3.37212C28.7326 3.3198 28.6715 3.24543 28.6355 3.15841C28.5994 3.0714 28.59 2.97566 28.6084 2.88328C28.6268 2.79091 28.6721 2.70606 28.7387 2.63947C28.8053 2.57287 28.8902 2.52752 28.9825 2.50914C29.0749 2.49077 29.1706 2.5002 29.2577 2.53624C29.3447 2.57228 29.419 2.63332 29.4714 2.71163C29.5237 2.78994 29.5516 2.882 29.5516 2.97618C29.5515 3.10244 29.5013 3.22349 29.412 3.31276C29.3227 3.40204 29.2017 3.45225 29.0754 3.45238Z"
            fill="#2D4356" />
        <path
            d="M63.3606 14.5238C63.1722 14.5238 62.9881 14.5797 62.8315 14.6843C62.6749 14.789 62.5528 14.9377 62.4807 15.1117C62.4086 15.2857 62.3898 15.4772 62.4265 15.662C62.4633 15.8467 62.554 16.0164 62.6872 16.1496C62.8203 16.2828 62.99 16.3735 63.1748 16.4103C63.3595 16.447 63.551 16.4282 63.725 16.3561C63.8991 16.284 64.0478 16.1619 64.1525 16.0053C64.2571 15.8487 64.313 15.6645 64.313 15.4762C64.3127 15.2237 64.2122 14.9816 64.0337 14.8031C63.8552 14.6245 63.6131 14.5241 63.3606 14.5238ZM63.3606 15.9524C63.2664 15.9524 63.1743 15.9244 63.096 15.8721C63.0177 15.8198 62.9567 15.7454 62.9206 15.6584C62.8846 15.5714 62.8752 15.4757 62.8935 15.3833C62.9119 15.2909 62.9573 15.2061 63.0239 15.1395C63.0905 15.0729 63.1753 15.0275 63.2677 15.0091C63.3601 14.9908 63.4558 15.0002 63.5428 15.0362C63.6298 15.0723 63.7042 15.1333 63.7565 15.2116C63.8088 15.2899 63.8368 15.382 63.8368 15.4762C63.8367 15.6024 63.7864 15.7235 63.6972 15.8128C63.6079 15.902 63.4868 15.9522 63.3606 15.9524Z"
            fill="#2D4356" />
        <path
            d="M5.09422 23.3057C5.09422 23.1173 5.03836 22.9332 4.93371 22.7765C4.82906 22.6199 4.68032 22.4979 4.5063 22.4258C4.33227 22.3537 4.14078 22.3348 3.95603 22.3716C3.77129 22.4083 3.60159 22.499 3.4684 22.6322C3.33521 22.7654 3.2445 22.9351 3.20775 23.1199C3.17101 23.3046 3.18987 23.4961 3.26195 23.6701C3.33403 23.8441 3.4561 23.9929 3.61272 24.0975C3.76934 24.2022 3.95347 24.258 4.14183 24.258C4.39433 24.2577 4.63641 24.1573 4.81495 23.9788C4.99349 23.8002 5.09393 23.5582 5.09422 23.3057ZM3.66564 23.3057C3.66564 23.2115 3.69357 23.1194 3.7459 23.0411C3.79822 22.9628 3.87259 22.9018 3.9596 22.8657C4.04662 22.8297 4.14236 22.8202 4.23473 22.8386C4.32711 22.857 4.41196 22.9023 4.47855 22.9689C4.54515 23.0355 4.5905 23.1204 4.60888 23.2128C4.62725 23.3051 4.61782 23.4009 4.58178 23.4879C4.54574 23.5749 4.4847 23.6493 4.40639 23.7016C4.32808 23.7539 4.23602 23.7818 4.14183 23.7818C4.01558 23.7817 3.89453 23.7315 3.80526 23.6422C3.71598 23.553 3.66577 23.4319 3.66564 23.3057Z"
            fill="#2D4356" />
        <path
            d="M18.77 9.63668L19.4781 8.70573L19.031 8.45239L18.5767 9.49525H18.5614L18.1 8.45954L17.6448 8.72049L18.3457 9.62954V9.6443L17.25 9.50287V10.0095L18.3529 9.86811V9.88287L17.6448 10.7914L18.0695 11.06L18.5543 10.0095H18.5686L19.0157 11.0524L19.4852 10.7843L18.77 9.89001V9.87525L19.8948 10.0095V9.50287L18.77 9.65192V9.63668Z"
            fill="#0BCEB2" />
        <path
            d="M4.20703 8.24617L3.79941 8.76951L4.04417 8.92379L4.32322 8.31903H4.33131L4.58893 8.91951L4.85941 8.76522L4.4475 8.24998V8.24141L5.09512 8.31903V8.02713L4.4475 8.11284V8.10427L4.85512 7.56808L4.59798 7.42236L4.33607 8.02284H4.3275L4.06131 7.42617L3.79941 7.57665L4.20322 8.09998V8.10855L3.57227 8.02713V8.31903L4.20703 8.2376V8.24617Z"
            fill="#0BCEB2" />
        <path
            d="M75.7412 23.7919V23.2952L74.6379 23.4414V23.4267L75.3322 22.5133L74.8936 22.2648L74.4479 23.2876H74.4332L73.9803 22.2719L73.5341 22.5281L74.2212 23.4195V23.4343L73.1465 23.2952V23.7919L74.2284 23.6533V23.6681L73.5341 24.5595L73.9508 24.8229L74.426 23.7919H74.4403L74.8789 24.8152L75.3393 24.5524L74.6379 23.6752V23.6605L75.7412 23.7919Z"
            fill="#0BCEB2" />
        <path
            d="M75.4776 3.73138L76.0766 2.94329L75.6985 2.729L75.3138 3.61138H75.3009L74.9105 2.73519L74.5252 2.95615L75.1181 3.72519V3.73758L74.1914 3.61805V4.04662L75.1243 3.92662V3.93948L74.5252 4.70853L74.8847 4.93567L75.2947 4.04662H75.3071L75.6857 4.929L76.0828 4.70234L75.4776 3.94567V3.93281L76.429 4.04662V3.61805L75.4776 3.74377V3.73138Z"
            fill="#0BCEB2" />
        <path
            d="M0.952381 71.3095C1.47837 71.3095 1.90476 70.8832 1.90476 70.3572C1.90476 69.8312 1.47837 69.4048 0.952381 69.4048C0.426395 69.4048 0 69.8312 0 70.3572C0 70.8832 0.426395 71.3095 0.952381 71.3095Z"
            fill="#2D4356" />
        <path
            d="M5.23837 69.4048H3.8098C3.55722 69.4048 3.31497 69.5051 3.13637 69.6837C2.95776 69.8623 2.85742 70.1046 2.85742 70.3572C2.85742 70.6098 2.95776 70.852 3.13637 71.0306C3.31497 71.2092 3.55722 71.3095 3.8098 71.3095H5.23837C5.49096 71.3095 5.7332 71.2092 5.91181 71.0306C6.09042 70.852 6.19076 70.6098 6.19076 70.3572C6.19076 70.1046 6.09042 69.8623 5.91181 69.6837C5.7332 69.5051 5.49096 69.4048 5.23837 69.4048Z"
            fill="#2D4356" />
        <path
            d="M76.1895 69.4048H74.761C74.5084 69.4048 74.2661 69.5051 74.0875 69.6837C73.9089 69.8623 73.8086 70.1046 73.8086 70.3572C73.8086 70.6098 73.9089 70.852 74.0875 71.0306C74.2661 71.2092 74.5084 71.3095 74.761 71.3095H76.1895C76.4421 71.3095 76.6844 71.2092 76.863 71.0306C77.0416 70.852 77.1419 70.6098 77.1419 70.3572C77.1419 70.1046 77.0416 69.8623 76.863 69.6837C76.6844 69.5051 76.4421 69.4048 76.1895 69.4048Z"
            fill="#2D4356" />
        <path
            d="M79.0481 71.3095C79.5741 71.3095 80.0005 70.8832 80.0005 70.3572C80.0005 69.8312 79.5741 69.4048 79.0481 69.4048C78.5221 69.4048 78.0957 69.8312 78.0957 70.3572C78.0957 70.8832 78.5221 71.3095 79.0481 71.3095Z"
            fill="#2D4356" />
        <path
            d="M56.2629 73.2142H52.3069C52.0674 73.2334 51.844 73.3421 51.6811 73.5186C51.5182 73.695 51.4277 73.9264 51.4277 74.1666C51.4277 74.4068 51.5182 74.6382 51.6811 74.8147C51.844 74.9912 52.0674 75.0998 52.3069 75.119H56.2629C56.5023 75.0998 56.7258 74.9912 56.8887 74.8147C57.0516 74.6382 57.142 74.4068 57.142 74.1666C57.142 73.9264 57.0516 73.695 56.8887 73.5186C56.7258 73.3421 56.5023 73.2334 56.2629 73.2142Z"
            fill="#0BCEB2" />
        <path
            d="M27.6926 73.2142H23.7365C23.4971 73.2334 23.2737 73.3421 23.1108 73.5186C22.9479 73.695 22.8574 73.9264 22.8574 74.1666C22.8574 74.4068 22.9479 74.6382 23.1108 74.8147C23.2737 74.9912 23.4971 75.0998 23.7365 75.119H27.6926C27.932 75.0998 28.1554 74.9912 28.3184 74.8147C28.4813 74.6382 28.5717 74.4068 28.5717 74.1666C28.5717 73.9264 28.4813 73.695 28.3184 73.5186C28.1554 73.3421 27.932 73.2334 27.6926 73.2142Z"
            fill="#0BCEB2" />
        <path
            d="M49.5234 73.2142H30.4758C30.2232 73.2142 29.981 73.3146 29.8024 73.4932C29.6238 73.6718 29.5234 73.914 29.5234 74.1666C29.5234 74.4192 29.6238 74.6614 29.8024 74.8401C29.981 75.0187 30.2232 75.119 30.4758 75.119H38.0663V76.0714H34.2853C34.0328 76.0714 33.7905 76.1717 33.6119 76.3503C33.4333 76.5289 33.333 76.7712 33.333 77.0238C33.333 77.2763 33.4333 77.5186 33.6119 77.6972C33.7905 77.8758 34.0328 77.9761 34.2853 77.9761H46.1901C46.4427 77.9761 46.6849 77.8758 46.8635 77.6972C47.0421 77.5186 47.1425 77.2763 47.1425 77.0238C47.1425 76.7712 47.0421 76.5289 46.8635 76.3503C46.6849 76.1717 46.4427 76.0714 46.1901 76.0714H41.933V75.119H49.5234C49.776 75.119 50.0183 75.0187 50.1969 74.8401C50.3755 74.6614 50.4758 74.4192 50.4758 74.1666C50.4758 73.914 50.3755 73.6718 50.1969 73.4932C50.0183 73.3146 49.776 73.2142 49.5234 73.2142Z"
            fill="#0BCEB2" />
        <path
            d="M71.7716 69.4048H65.1947C65.3686 69.1067 65.5011 68.7863 65.5884 68.4524H68.1169C68.7438 68.4501 69.3443 68.1992 69.7865 67.7548C70.2287 67.3103 70.4766 66.7086 70.4757 66.0817V61.171C70.4762 60.5289 70.2908 59.9005 69.9419 59.3615L64.681 51.2216C64.51 50.9559 64.2749 50.7375 63.9973 50.5865C63.7198 50.4354 63.4087 50.3565 63.0927 50.3572H55.2307C54.7275 50.3577 54.2451 50.5579 53.8894 50.9136C53.5336 51.2694 53.3335 51.7518 53.3329 52.2549V62.7381H51.9043V49.4048C51.9038 48.8998 51.7029 48.4156 51.3458 48.0585C50.9887 47.7014 50.5046 47.5005 49.9995 47.5H28.0948C27.5898 47.5005 27.1056 47.7014 26.7485 48.0585C26.3914 48.4156 26.1906 48.8998 26.19 49.4048V62.8057C25.7822 62.9107 25.4206 63.148 25.1621 63.4804C24.9036 63.8129 24.7627 64.2217 24.7615 64.6429V66.5476C24.762 67.0526 24.9628 67.5368 25.3199 67.8939C25.677 68.251 26.1612 68.4518 26.6662 68.4524H33.9345C34.0218 68.7863 34.1543 69.1067 34.3282 69.4048H8.22749C8.092 69.3871 7.9543 69.3985 7.82357 69.4382C7.69284 69.478 7.5721 69.5452 7.46942 69.6353C7.36673 69.7255 7.28446 69.8365 7.2281 69.961C7.17173 70.0854 7.14258 70.2205 7.14258 70.3571C7.14258 70.4938 7.17173 70.6289 7.2281 70.7533C7.28446 70.8778 7.36673 70.9888 7.46942 71.079C7.5721 71.1691 7.69284 71.2363 7.82357 71.2761C7.9543 71.3158 8.092 71.3272 8.22749 71.3095H71.7716C71.9071 71.3272 72.0448 71.3158 72.1755 71.2761C72.3063 71.2363 72.427 71.1691 72.5297 71.079C72.6324 70.9888 72.7146 70.8778 72.771 70.7533C72.8274 70.6289 72.8565 70.4938 72.8565 70.3571C72.8565 70.2205 72.8274 70.0854 72.771 69.961C72.7146 69.8365 72.6324 69.7255 72.5297 69.6353C72.427 69.5452 72.3063 69.478 72.1755 69.4382C72.0448 69.3985 71.9071 69.3871 71.7716 69.4048ZM59.9995 67.5C59.9995 67.1233 60.1113 66.755 60.3206 66.4418C60.5299 66.1285 60.8273 65.8844 61.1754 65.7402C61.5234 65.5961 61.9064 65.5583 62.2759 65.6318C62.6454 65.7053 62.9848 65.8867 63.2512 66.1531C63.5176 66.4195 63.699 66.7589 63.7725 67.1284C63.846 67.4979 63.8082 67.8809 63.6641 68.2289C63.5199 68.577 63.2758 68.8745 62.9625 69.0838C62.6493 69.2931 62.281 69.4048 61.9043 69.4048C61.3993 69.4042 60.9151 69.2034 60.558 68.8463C60.2009 68.4892 60.0001 68.005 59.9995 67.5ZM63.0815 52.2559L68.3424 60.3957C68.4918 60.6267 68.5711 60.8959 68.571 61.171V66.0817C68.5724 66.2036 68.5254 66.3212 68.4403 66.4086C68.3552 66.4959 68.2388 66.5459 68.1169 66.5476L65.5892 66.5506C65.3795 65.7317 64.9029 65.006 64.2349 64.4881C63.5668 63.9701 62.7452 63.6895 61.8999 63.6905C61.0546 63.6915 60.2337 63.974 59.5668 64.4934C58.8999 65.0129 58.4251 65.7397 58.2172 66.559L55.2376 66.5625V62.7381H55.2357L55.2302 52.2619L63.0815 52.2559ZM55.223 68.4524H58.2202C58.3075 68.7863 58.44 69.1067 58.6139 69.4048H40.909C41.0829 69.1067 41.2154 68.7863 41.3027 68.4524H55.223ZM36.19 49.4048H41.9043V54.1667H36.19V49.4048ZM28.0948 49.4048H34.2853V54.1667C34.2858 54.6717 34.4867 55.1558 34.8437 55.5129C35.2008 55.87 35.685 56.0709 36.19 56.0714H41.9043C42.4093 56.0709 42.8935 55.87 43.2506 55.5129C43.6077 55.1558 43.8085 54.6717 43.8091 54.1667V49.4048H49.9995V62.7381H43.561C42.8482 61.8466 41.944 61.1269 40.9154 60.6323C39.8867 60.1378 38.76 59.881 37.6186 59.881C36.4772 59.881 35.3505 60.1378 34.3218 60.6323C33.2932 61.1269 32.389 61.8466 31.6762 62.7381H28.0948V49.4048ZM26.6662 66.5476L26.6651 64.6429H32.6484L32.9325 64.236C33.4579 63.4797 34.1586 62.8619 34.9746 62.4352C35.7906 62.0086 36.6978 61.7857 37.6186 61.7857C38.5394 61.7857 39.4466 62.0086 40.2626 62.4352C41.0786 62.8619 41.7793 63.4797 42.3047 64.236L42.5888 64.6429H53.3329V66.5476H41.3027C41.0927 65.7301 40.6167 65.0057 39.9497 64.4884C39.2827 63.9712 38.4626 63.6904 37.6186 63.6904C36.7745 63.6904 35.9545 63.9712 35.2875 64.4884C34.6205 65.0057 34.1445 65.7301 33.9345 66.5476H26.6662ZM35.7138 67.5C35.7138 67.1233 35.8255 66.755 36.0348 66.4418C36.2441 66.1285 36.5416 65.8844 36.8897 65.7402C37.2377 65.5961 37.6207 65.5583 37.9902 65.6318C38.3597 65.7053 38.6991 65.8867 38.9655 66.1531C39.2318 66.4195 39.4133 66.7589 39.4868 67.1284C39.5603 67.4979 39.5225 67.8809 39.3784 68.2289C39.2342 68.577 38.9901 68.8745 38.6768 69.0838C38.3636 69.2931 37.9953 69.4048 37.6186 69.4048C37.1136 69.4042 36.6294 69.2034 36.2723 68.8463C35.9152 68.4892 35.7144 68.005 35.7138 67.5Z"
            fill="#2D4356" />
    </g>
    <defs>
        <clipPath id="clip0_715_31449">
            <rect width="80" height="80" fill="white" />
        </clipPath>
    </defs>
</svg>
    