<svg width="77" height="77" viewBox="0 0 77 77" fill="none" xmlns="http://www.w3.org/2000/svg">
<path d="M14.4019 18.3006L17.416 17.6883V15.8174L14.047 16.5018C13.3673 16.6303 12.7662 17.023 12.3753 17.5938C11.9845 18.1646 11.8358 18.867 11.9617 19.5472L17.416 48.2441V38.4265L13.7628 19.2052C13.7451 19.1038 13.7477 19 13.7703 18.8996C13.7929 18.7992 13.8351 18.7042 13.8945 18.6202C13.9539 18.5361 14.0292 18.4646 14.1163 18.4098C14.2034 18.355 14.3005 18.3179 14.4019 18.3006Z" fill="#2D4356"/>
<path d="M62.9652 16.5039L59.5859 15.8174V17.6883L62.6103 18.3027C62.8132 18.3392 62.9934 18.4547 63.1113 18.6239C63.2292 18.7931 63.2752 19.0021 63.2392 19.2051L59.5859 38.4264V48.244L65.0403 19.5471C65.1665 18.8686 65.0191 18.1677 64.6303 17.5975C64.2415 17.0274 63.6429 16.6342 62.9652 16.5039Z" fill="#2D4356"/>
<path d="M52.2526 43.3701H24.7526C24.5095 43.3701 24.2763 43.4667 24.1044 43.6386C23.9325 43.8105 23.8359 44.0437 23.8359 44.2868C23.8359 44.5299 23.9325 44.7631 24.1044 44.935C24.2763 45.1069 24.5095 45.2035 24.7526 45.2035H52.2526C52.4957 45.2035 52.7289 45.1069 52.9008 44.935C53.0727 44.7631 53.1693 44.5299 53.1693 44.2868C53.1693 44.0437 53.0727 43.8105 52.9008 43.6386C52.7289 43.4667 52.4957 43.3701 52.2526 43.3701Z" fill="#2D4356"/>
<path d="M52.2526 47.0371H24.7526C24.5095 47.0371 24.2763 47.1337 24.1044 47.3056C23.9325 47.4775 23.8359 47.7107 23.8359 47.9538C23.8359 48.1969 23.9325 48.43 24.1044 48.602C24.2763 48.7739 24.5095 48.8704 24.7526 48.8704H52.2526C52.4957 48.8704 52.7289 48.7739 52.9008 48.602C53.0727 48.43 53.1693 48.1969 53.1693 47.9538C53.1693 47.7107 53.0727 47.4775 52.9008 47.3056C52.7289 47.1337 52.4957 47.0371 52.2526 47.0371Z" fill="#4C7DA7"/>
<path d="M52.2526 36.0371H24.7526C24.5095 36.0371 24.2763 36.1337 24.1044 36.3056C23.9325 36.4775 23.8359 36.7107 23.8359 36.9538C23.8359 37.1969 23.9325 37.43 24.1044 37.602C24.2763 37.7739 24.5095 37.8704 24.7526 37.8704H52.2526C52.4957 37.8704 52.7289 37.7739 52.9008 37.602C53.0727 37.43 53.1693 37.1969 53.1693 36.9538C53.1693 36.7107 53.0727 36.4775 52.9008 36.3056C52.7289 36.1337 52.4957 36.0371 52.2526 36.0371Z" fill="#2D4356"/>
<path d="M52.2526 39.7031H24.7526C24.5095 39.7031 24.2763 39.7997 24.1044 39.9716C23.9325 40.1435 23.8359 40.3767 23.8359 40.6198C23.8359 40.8629 23.9325 41.0961 24.1044 41.268C24.2763 41.4399 24.5095 41.5365 24.7526 41.5365H52.2526C52.4957 41.5365 52.7289 41.4399 52.9008 41.268C53.0727 41.0961 53.1693 40.8629 53.1693 40.6198C53.1693 40.3767 53.0727 40.1435 52.9008 39.9716C52.7289 39.7997 52.4957 39.7031 52.2526 39.7031Z" fill="#4C7DA7"/>
<path d="M52.2526 32.3701H24.7526C24.5095 32.3701 24.2763 32.4667 24.1044 32.6386C23.9325 32.8105 23.8359 33.0437 23.8359 33.2868C23.8359 33.5299 23.9325 33.7631 24.1044 33.935C24.2763 34.1069 24.5095 34.2035 24.7526 34.2035H52.2526C52.4957 34.2035 52.7289 34.1069 52.9008 33.935C53.0727 33.7631 53.1693 33.5299 53.1693 33.2868C53.1693 33.0437 53.0727 32.8105 52.9008 32.6386C52.7289 32.4667 52.4957 32.3701 52.2526 32.3701Z" fill="#4C7DA7"/>
<path d="M52.2526 25.0371H24.7526C24.5095 25.0371 24.2763 25.1337 24.1044 25.3056C23.9325 25.4775 23.8359 25.7107 23.8359 25.9538C23.8359 26.1969 23.9325 26.43 24.1044 26.602C24.2763 26.7739 24.5095 26.8704 24.7526 26.8704H52.2526C52.4957 26.8704 52.7289 26.7739 52.9008 26.602C53.0727 26.43 53.1693 26.1969 53.1693 25.9538C53.1693 25.7107 53.0727 25.4775 52.9008 25.3056C52.7289 25.1337 52.4957 25.0371 52.2526 25.0371Z" fill="#4C7DA7"/>
<path d="M52.2526 28.7031H24.7526C24.5095 28.7031 24.2763 28.7997 24.1044 28.9716C23.9325 29.1435 23.8359 29.3767 23.8359 29.6198C23.8359 29.8629 23.9325 30.0961 24.1044 30.268C24.2763 30.4399 24.5095 30.5365 24.7526 30.5365H52.2526C52.4957 30.5365 52.7289 30.4399 52.9008 30.268C53.0727 30.0961 53.1693 29.8629 53.1693 29.6198C53.1693 29.3767 53.0727 29.1435 52.9008 28.9716C52.7289 28.7997 52.4957 28.7031 52.2526 28.7031Z" fill="#2D4356"/>
<path d="M39.8776 50.7031H24.7526C24.5095 50.7031 24.2763 50.7997 24.1044 50.9716C23.9325 51.1435 23.8359 51.3767 23.8359 51.6198C23.8359 51.8629 23.9325 52.0961 24.1044 52.268C24.2763 52.4399 24.5095 52.5365 24.7526 52.5365H39.8776C40.1207 52.5365 40.3539 52.4399 40.5258 52.268C40.6977 52.0961 40.7943 51.8629 40.7943 51.6198C40.7943 51.3767 40.6977 51.1435 40.5258 50.9716C40.3539 50.7997 40.1207 50.7031 39.8776 50.7031Z" fill="#2D4356"/>
<path d="M24.7526 23.2035H39.8776C40.1207 23.2035 40.3539 23.1069 40.5258 22.935C40.6977 22.7631 40.7943 22.5299 40.7943 22.2868C40.7943 22.0437 40.6977 21.8105 40.5258 21.6386C40.3539 21.4667 40.1207 21.3701 39.8776 21.3701H24.7526C24.5095 21.3701 24.2763 21.4667 24.1044 21.6386C23.9325 21.8105 23.8359 22.0437 23.8359 22.2868C23.8359 22.5299 23.9325 22.7631 24.1044 22.935C24.2763 23.1069 24.5095 23.2035 24.7526 23.2035Z" fill="#2D4356"/>
<path d="M39.8776 54.3701H24.7526C24.5095 54.3701 24.2763 54.4667 24.1044 54.6386C23.9325 54.8105 23.8359 55.0437 23.8359 55.2868C23.8359 55.5299 23.9325 55.7631 24.1044 55.935C24.2763 56.1069 24.5095 56.2035 24.7526 56.2035H39.8776C40.1207 56.2035 40.3539 56.1069 40.5258 55.935C40.6977 55.7631 40.7943 55.5299 40.7943 55.2868C40.7943 55.0437 40.6977 54.8105 40.5258 54.6386C40.3539 54.4667 40.1207 54.3701 39.8776 54.3701Z" fill="#4C7DA7"/>
<path d="M71.8438 4.75488C72.1157 4.75488 72.3815 4.67424 72.6077 4.52315C72.8338 4.37207 73.01 4.15732 73.1141 3.90607C73.2182 3.65482 73.2454 3.37836 73.1923 3.11163C73.1393 2.84491 73.0083 2.59991 72.816 2.40761C72.6237 2.21531 72.3787 2.08436 72.112 2.0313C71.8453 1.97825 71.5688 2.00548 71.3176 2.10955C71.0663 2.21362 70.8516 2.38986 70.7005 2.61597C70.5494 2.84209 70.4688 3.10793 70.4688 3.37988C70.4692 3.74443 70.6142 4.09392 70.8719 4.35169C71.1297 4.60947 71.4792 4.75447 71.8438 4.75488ZM71.8438 2.69238C71.9797 2.69238 72.1126 2.7327 72.2257 2.80825C72.3388 2.88379 72.4269 2.99116 72.4789 3.11679C72.531 3.24241 72.5446 3.38065 72.518 3.51401C72.4915 3.64737 72.426 3.76987 72.3299 3.86602C72.2337 3.96217 72.1112 4.02765 71.9779 4.05417C71.8445 4.0807 71.7063 4.06709 71.5807 4.01505C71.455 3.96302 71.3477 3.8749 71.2721 3.76184C71.1966 3.64878 71.1562 3.51586 71.1562 3.37988C71.1564 3.1976 71.2289 3.02284 71.3578 2.89395C71.4867 2.76505 71.6615 2.69256 71.8438 2.69238Z" fill="#2D4356"/>
<path d="M40.5651 4.86914C40.3838 4.86914 40.2066 4.9229 40.0558 5.02363C39.9051 5.12435 39.7876 5.26752 39.7182 5.43501C39.6488 5.60251 39.6307 5.78682 39.6661 5.96464C39.7014 6.14246 39.7887 6.30579 39.9169 6.43399C40.0451 6.56219 40.2085 6.64949 40.3863 6.68486C40.5641 6.72023 40.7484 6.70208 40.9159 6.6327C41.0834 6.56332 41.2266 6.44582 41.3273 6.29508C41.428 6.14433 41.4818 5.96711 41.4818 5.78581C41.4815 5.54278 41.3848 5.30978 41.213 5.13793C41.0411 4.96608 40.8081 4.86942 40.5651 4.86914ZM40.5651 6.24414C40.4745 6.24414 40.3858 6.21726 40.3105 6.1669C40.2351 6.11654 40.1763 6.04495 40.1417 5.9612C40.107 5.87745 40.0979 5.7853 40.1156 5.69639C40.1333 5.60748 40.1769 5.52582 40.241 5.46172C40.3051 5.39762 40.3868 5.35397 40.4757 5.33628C40.5646 5.3186 40.6568 5.32767 40.7405 5.36236C40.8242 5.39705 40.8958 5.4558 40.9462 5.53117C40.9966 5.60654 41.0234 5.69516 41.0234 5.78581C41.0233 5.90733 40.975 6.02384 40.8891 6.10976C40.8031 6.19569 40.6866 6.24402 40.5651 6.24414Z" fill="#2D4356"/>
<path d="M70.8151 19.9941C70.6338 19.9941 70.4566 20.0479 70.3058 20.1486C70.1551 20.2494 70.0376 20.3925 69.9682 20.56C69.8988 20.7275 69.8807 20.9118 69.9161 21.0896C69.9514 21.2675 70.0387 21.4308 70.1669 21.559C70.2951 21.6872 70.4585 21.7745 70.6363 21.8099C70.8141 21.8452 70.9984 21.8271 71.1659 21.7577C71.3334 21.6883 71.4766 21.5708 71.5773 21.4201C71.678 21.2693 71.7318 21.0921 71.7318 20.9108C71.7315 20.6678 71.6348 20.4348 71.463 20.2629C71.2911 20.0911 71.0581 19.9944 70.8151 19.9941ZM70.8151 21.3691C70.7245 21.3691 70.6358 21.3423 70.5605 21.2919C70.4851 21.2415 70.4264 21.17 70.3917 21.0862C70.357 21.0025 70.3479 20.9103 70.3656 20.8214C70.3833 20.7325 70.4269 20.6508 70.491 20.5867C70.5551 20.5226 70.6368 20.479 70.7257 20.4613C70.8146 20.4436 70.9068 20.4527 70.9905 20.4874C71.0743 20.5221 71.1458 20.5808 71.1962 20.6562C71.2466 20.7315 71.2734 20.8202 71.2734 20.9108C71.2733 21.0323 71.225 21.1488 71.1391 21.2348C71.0531 21.3207 70.9366 21.369 70.8151 21.3691Z" fill="#2D4356"/>
<path d="M7.5651 19.5361C7.38381 19.5361 7.20658 19.5899 7.05583 19.6906C6.90509 19.7913 6.7876 19.9345 6.71822 20.102C6.64883 20.2695 6.63068 20.4538 6.66605 20.6316C6.70142 20.8094 6.78873 20.9728 6.91692 21.101C7.04512 21.2292 7.20846 21.3165 7.38627 21.3519C7.56409 21.3872 7.7484 21.3691 7.9159 21.2997C8.0834 21.2303 8.22656 21.1128 8.32729 20.9621C8.42801 20.8113 8.48177 20.6341 8.48177 20.4528C8.48149 20.2098 8.38483 19.9768 8.21298 19.8049C8.04113 19.6331 7.80813 19.5364 7.5651 19.5361ZM7.5651 20.9111C7.47445 20.9111 7.38584 20.8843 7.31047 20.8339C7.2351 20.7835 7.17635 20.7119 7.14166 20.6282C7.10697 20.5444 7.09789 20.4523 7.11558 20.3634C7.13326 20.2745 7.17692 20.1928 7.24101 20.1287C7.30511 20.0646 7.38678 20.021 7.47569 20.0033C7.5646 19.9856 7.65675 19.9947 7.7405 20.0294C7.82425 20.064 7.89583 20.1228 7.9462 20.1982C7.99656 20.2735 8.02344 20.3621 8.02344 20.4528C8.02332 20.5743 7.97499 20.6908 7.88906 20.7768C7.80313 20.8627 7.68663 20.911 7.5651 20.9111Z" fill="#2D4356"/>
<path d="M27.4337 2.83734C27.3037 2.96377 27.2142 3.12589 27.1764 3.3032C27.1386 3.48052 27.1542 3.66506 27.2213 3.83349C27.2884 4.00193 27.4039 4.14669 27.5532 4.24948C27.7026 4.35226 27.8791 4.40845 28.0603 4.41094C28.2416 4.41343 28.4196 4.3621 28.5717 4.26346C28.7238 4.16481 28.8432 4.02327 28.9149 3.85674C28.9866 3.69021 29.0073 3.50617 28.9743 3.32788C28.9414 3.1496 28.8564 2.98508 28.7299 2.85513C28.5603 2.68114 28.3285 2.58155 28.0855 2.57821C27.8425 2.57488 27.6081 2.66807 27.4337 2.83734ZM28.3925 3.82287C28.3276 3.88608 28.2453 3.92861 28.1562 3.94507C28.067 3.96153 27.975 3.95119 27.8917 3.91536C27.8085 3.87952 27.7377 3.8198 27.6884 3.74374C27.639 3.66769 27.6134 3.57871 27.6146 3.48807C27.6159 3.39743 27.644 3.30919 27.6954 3.23452C27.7467 3.15984 27.8191 3.10209 27.9033 3.06855C27.9876 3.03501 28.0798 3.0272 28.1685 3.0461C28.2571 3.06501 28.3382 3.10978 28.4014 3.17475C28.4861 3.26193 28.5327 3.37914 28.531 3.50065C28.5294 3.62217 28.4795 3.73804 28.3925 3.82287Z" fill="#2D4356"/>
<path d="M3.24816 3.49971L3.9297 2.60321L3.49932 2.35938L3.06207 3.36313H3.04741L2.60282 2.36671L2.16511 2.61742L2.83932 3.49283V3.50704L1.78516 3.37046V3.85813L2.84666 3.722V3.73621L2.16511 4.61117L2.57395 4.86967L3.04053 3.85813H3.05428L3.48466 4.86233L3.93657 4.60429L3.24816 3.74354V3.72888L4.33074 3.85813V3.37046L3.24816 3.51392V3.49971Z" fill="#4C7DA7"/>
<path d="M61.5411 12.2333L61.1483 12.7371L61.3839 12.886L61.6525 12.3035H61.6607L61.9082 12.8819L62.1686 12.7329L61.7721 12.2375V12.2292L62.3954 12.3035V12.0225L61.7721 12.1055V12.0972L62.1644 11.5807L61.9169 11.4404L61.6649 12.0184H61.6566L61.4009 11.4446L61.1483 11.5889L61.537 12.0931V12.1013L60.9297 12.0225V12.3035L61.5411 12.2251V12.2333Z" fill="#4C7DA7"/>
<path d="M57.5204 3.47769V2.99919L56.4585 3.1399V3.12615L57.1272 2.2466L56.7051 2.00781L56.2761 2.99231H56.2614L55.8255 2.01469L55.3961 2.26081L56.0574 3.11927V3.13302L55.0234 2.99919V3.47769L56.0643 3.34431V3.35806L55.3961 4.21606L55.7971 4.46952L56.2545 3.47769H56.2683L56.6904 4.46265L57.1336 4.20919L56.4585 3.36494V3.35119L57.5204 3.47769Z" fill="#4C7DA7"/>
<path d="M14.8278 10.2817L15.4044 9.52363L15.0405 9.31738L14.6701 10.1667H14.6582L14.2819 9.32334L13.9116 9.53555L14.4822 10.2758V10.2881L13.5898 10.1726V10.5851L14.4882 10.4701V10.482L13.9116 11.2222L14.2572 11.4408L14.6523 10.5851H14.6637L15.0281 11.4349L15.4103 11.2163L14.8278 10.488V10.4761L15.744 10.5851V10.1726L14.8278 10.2941V10.2817Z" fill="#4C7DA7"/>
<path d="M0.916667 68.5785C1.42293 68.5785 1.83333 68.168 1.83333 67.6618C1.83333 67.1555 1.42293 66.7451 0.916667 66.7451C0.410406 66.7451 0 67.1555 0 67.6618C0 68.168 0.410406 68.5785 0.916667 68.5785Z" fill="#2D4356"/>
<path d="M5.04167 66.7451H3.66667C3.42355 66.7451 3.19039 66.8417 3.01849 67.0136C2.84658 67.1855 2.75 67.4187 2.75 67.6618C2.75 67.9049 2.84658 68.1381 3.01849 68.31C3.19039 68.4819 3.42355 68.5785 3.66667 68.5785H5.04167C5.28478 68.5785 5.51794 68.4819 5.68985 68.31C5.86176 68.1381 5.95833 67.9049 5.95833 67.6618C5.95833 67.4187 5.86176 67.1855 5.68985 67.0136C5.51794 66.8417 5.28478 66.7451 5.04167 66.7451Z" fill="#2D4356"/>
<path d="M73.3307 66.7451H71.9557C71.7126 66.7451 71.4795 66.8417 71.3075 67.0136C71.1356 67.1855 71.0391 67.4187 71.0391 67.6618C71.0391 67.9049 71.1356 68.1381 71.3075 68.31C71.4795 68.4819 71.7126 68.5785 71.9557 68.5785H73.3307C73.5738 68.5785 73.807 68.4819 73.9789 68.31C74.1508 68.1381 74.2474 67.9049 74.2474 67.6618C74.2474 67.4187 74.1508 67.1855 73.9789 67.0136C73.807 66.8417 73.5738 66.7451 73.3307 66.7451Z" fill="#2D4356"/>
<path d="M76.0807 68.5785C76.587 68.5785 76.9974 68.168 76.9974 67.6618C76.9974 67.1555 76.587 66.7451 76.0807 66.7451C75.5745 66.7451 75.1641 67.1555 75.1641 67.6618C75.1641 68.168 75.5745 68.5785 76.0807 68.5785Z" fill="#2D4356"/>
<path d="M54.1539 70.4121H50.3462C50.1157 70.4306 49.9007 70.5352 49.7439 70.705C49.5871 70.8749 49.5 71.0976 49.5 71.3288C49.5 71.56 49.5871 71.7827 49.7439 71.9525C49.9007 72.1224 50.1157 72.227 50.3462 72.2454H54.1539C54.3843 72.227 54.5993 72.1224 54.7562 71.9525C54.913 71.7827 55 71.56 55 71.3288C55 71.0976 54.913 70.8749 54.7562 70.705C54.5993 70.5352 54.3843 70.4306 54.1539 70.4121Z" fill="#4C7DA7"/>
<path d="M26.6539 70.4121H22.8462C22.6157 70.4306 22.4007 70.5352 22.2439 70.705C22.0871 70.8749 22 71.0976 22 71.3288C22 71.56 22.0871 71.7827 22.2439 71.9525C22.4007 72.1224 22.6157 72.227 22.8462 72.2454H26.6539C26.8843 72.227 27.0993 72.1224 27.2561 71.9525C27.413 71.7827 27.5 71.56 27.5 71.3288C27.5 71.0976 27.413 70.8749 27.2561 70.705C27.0993 70.5352 26.8843 70.4306 26.6539 70.4121Z" fill="#4C7DA7"/>
<path d="M47.6641 70.4121H29.3307C29.0876 70.4121 28.8545 70.5087 28.6825 70.6806C28.5106 70.8525 28.4141 71.0857 28.4141 71.3288C28.4141 71.5719 28.5106 71.805 28.6825 71.977C28.8545 72.1489 29.0876 72.2454 29.3307 72.2454H36.6366V73.1621H32.9974C32.7543 73.1621 32.5211 73.2587 32.3492 73.4306C32.1773 73.6025 32.0807 73.8357 32.0807 74.0788C32.0807 74.3219 32.1773 74.555 32.3492 74.727C32.5211 74.8989 32.7543 74.9954 32.9974 74.9954H44.4557C44.6988 74.9954 44.932 74.8989 45.1039 74.727C45.2758 74.555 45.3724 74.3219 45.3724 74.0788C45.3724 73.8357 45.2758 73.6025 45.1039 73.4306C44.932 73.2587 44.6988 73.1621 44.4557 73.1621H40.3582V72.2454H47.6641C47.9072 72.2454 48.1403 72.1489 48.3122 71.977C48.4842 71.805 48.5807 71.5719 48.5807 71.3288C48.5807 71.0857 48.4842 70.8525 48.3122 70.6806C48.1403 70.5087 47.9072 70.4121 47.6641 70.4121Z" fill="#4C7DA7"/>
<path d="M69.0804 66.7455H47.9268L52.6082 61.674L57.4858 56.7324C57.655 56.5607 57.7498 56.3294 57.7498 56.0883V12.6357C57.7455 11.9102 57.4536 11.216 56.9382 10.7054C56.4227 10.1949 55.7258 9.90956 55.0003 9.91213H21.9994C21.2739 9.90956 20.5769 10.1949 20.0615 10.7054C19.546 11.216 19.2542 11.9102 19.2498 12.6357V65.8552C19.2504 66.1585 19.3025 66.4595 19.4038 66.7455H7.91923C7.78882 66.7284 7.65628 66.7394 7.53046 66.7777C7.40463 66.8159 7.28842 66.8806 7.18958 66.9674C7.09075 67.0541 7.01156 67.161 6.95731 67.2808C6.90306 67.4006 6.875 67.5306 6.875 67.6621C6.875 67.7936 6.90306 67.9236 6.95731 68.0434C7.01156 68.1633 7.09075 68.2701 7.18958 68.3569C7.28842 68.4436 7.40463 68.5083 7.53046 68.5466C7.65628 68.5848 7.78882 68.5958 7.91923 68.5788H69.0804C69.2108 68.5958 69.3434 68.5848 69.4692 68.5466C69.595 68.5083 69.7113 68.4436 69.8101 68.3569C69.9089 68.2701 69.9881 68.1633 70.0424 68.0434C70.0966 67.9236 70.1247 67.7936 70.1247 67.6621C70.1247 67.5306 70.0966 67.4006 70.0424 67.2808C69.9881 67.161 69.9089 67.0541 69.8101 66.9674C69.7113 66.8806 69.595 66.8159 69.4692 66.7777C69.3434 66.7394 69.2108 66.7284 69.0804 66.7455ZM46.7498 65.3176V57.5309C46.7388 57.3127 46.8144 57.099 46.9602 56.9363C47.1059 56.7736 47.3101 56.675 47.5282 56.6621H54.7393L46.7498 65.3176ZM21.9994 66.7455C21.7599 66.7486 21.529 66.6567 21.3572 66.4898C21.1854 66.3229 21.0869 66.0947 21.0832 65.8552V12.6357C21.0869 12.3963 21.1854 12.168 21.3572 12.0011C21.529 11.8343 21.7599 11.7423 21.9994 11.7455H50.4165V18.9678L48.9945 18.2534C48.8668 18.1894 48.726 18.1561 48.5832 18.1561C48.4403 18.1561 48.2995 18.1894 48.1718 18.2534L46.7498 18.9678V14.9538C46.7498 14.7107 46.6533 14.4775 46.4813 14.3056C46.3094 14.1337 46.0763 14.0371 45.8332 14.0371C45.59 14.0371 45.3569 14.1337 45.185 14.3056C45.0131 14.4775 44.9165 14.7107 44.9165 14.9538V20.4538C44.9165 20.6102 44.9565 20.7639 45.0328 20.9005C45.109 21.037 45.2189 21.1518 45.352 21.2339C45.485 21.316 45.6369 21.3627 45.7932 21.3695C45.9494 21.3763 46.1048 21.3431 46.2445 21.2729L48.5832 20.0984L50.9218 21.2729C51.0616 21.3431 51.2169 21.3763 51.3732 21.3695C51.5294 21.3627 51.6813 21.316 51.8144 21.2339C51.9475 21.1518 52.0574 21.037 52.1336 20.9005C52.2098 20.7639 52.2498 20.6102 52.2498 20.4538V11.7455H55.0003C55.2398 11.7423 55.4707 11.8343 55.6425 12.0011C55.8142 12.168 55.9128 12.3963 55.9165 12.6357V54.8288H47.5282C46.8239 54.8418 46.1534 55.1335 45.6639 55.6401C45.1743 56.1466 44.9055 56.8265 44.9165 57.5309V66.7455L21.9994 66.7455Z" fill="#2D4356"/>
</svg>
