<svg width="77" height="77" viewBox="0 0 77 77" fill="none" xmlns="http://www.w3.org/2000/svg">
    <path
        d="M14.4019 18.3004L17.416 17.6881V15.8171L14.047 16.5015C13.3673 16.6301 12.7662 17.0228 12.3753 17.5935C11.9845 18.1643 11.8358 18.8667 11.9617 19.5469L17.416 48.2439V38.4262L13.7628 19.205C13.7451 19.1036 13.7477 18.9997 13.7703 18.8993C13.7929 18.7989 13.8351 18.704 13.8945 18.6199C13.9539 18.5359 14.0292 18.4644 14.1163 18.4096C14.2034 18.3547 14.3005 18.3176 14.4019 18.3004Z"
        fill="#2D4356" />
    <path
        d="M62.9633 16.5039L59.584 15.8174V17.6883L62.6084 18.3027C62.8113 18.3392 62.9914 18.4547 63.1093 18.6239C63.2272 18.7931 63.2732 19.0021 63.2372 19.2051L59.584 38.4264V48.244L65.0383 19.5471C65.1645 18.8686 65.0172 18.1677 64.6284 17.5975C64.2396 17.0274 63.641 16.6342 62.9633 16.5039Z"
        fill="#2D4356" />
    <path
        d="M52.2507 43.37H24.7507C24.5075 43.37 24.2744 43.4666 24.1025 43.6385C23.9306 43.8104 23.834 44.0435 23.834 44.2867C23.834 44.5298 23.9306 44.7629 24.1025 44.9348C24.2744 45.1067 24.5075 45.2033 24.7507 45.2033H52.2507C52.4938 45.2033 52.7269 45.1067 52.8988 44.9348C53.0707 44.7629 53.1673 44.5298 53.1673 44.2867C53.1673 44.0435 53.0707 43.8104 52.8988 43.6385C52.7269 43.4666 52.4938 43.37 52.2507 43.37Z"
        fill="#2D4356" />
    <path
        d="M52.2507 47.0366H24.7507C24.5075 47.0366 24.2744 47.1332 24.1025 47.3051C23.9306 47.477 23.834 47.7102 23.834 47.9533C23.834 48.1964 23.9306 48.4296 24.1025 48.6015C24.2744 48.7734 24.5075 48.87 24.7507 48.87H52.2507C52.4938 48.87 52.7269 48.7734 52.8988 48.6015C53.0707 48.4296 53.1673 48.1964 53.1673 47.9533C53.1673 47.7102 53.0707 47.477 52.8988 47.3051C52.7269 47.1332 52.4938 47.0366 52.2507 47.0366Z"
        fill="#0BCEB2" />
    <path
        d="M52.2507 36.0366H24.7507C24.5075 36.0366 24.2744 36.1332 24.1025 36.3051C23.9306 36.477 23.834 36.7102 23.834 36.9533C23.834 37.1964 23.9306 37.4296 24.1025 37.6015C24.2744 37.7734 24.5075 37.87 24.7507 37.87H52.2507C52.4938 37.87 52.7269 37.7734 52.8988 37.6015C53.0707 37.4296 53.1673 37.1964 53.1673 36.9533C53.1673 36.7102 53.0707 36.477 52.8988 36.3051C52.7269 36.1332 52.4938 36.0366 52.2507 36.0366Z"
        fill="#2D4356" />
    <path
        d="M52.2507 39.7034H24.7507C24.5075 39.7034 24.2744 39.7999 24.1025 39.9719C23.9306 40.1438 23.834 40.3769 23.834 40.62C23.834 40.8632 23.9306 41.0963 24.1025 41.2682C24.2744 41.4401 24.5075 41.5367 24.7507 41.5367H52.2507C52.4938 41.5367 52.7269 41.4401 52.8988 41.2682C53.0707 41.0963 53.1673 40.8632 53.1673 40.62C53.1673 40.3769 53.0707 40.1438 52.8988 39.9719C52.7269 39.7999 52.4938 39.7034 52.2507 39.7034Z"
        fill="#0BCEB2" />
    <path
        d="M52.2507 32.37H24.7507C24.5075 32.37 24.2744 32.4666 24.1025 32.6385C23.9306 32.8104 23.834 33.0435 23.834 33.2867C23.834 33.5298 23.9306 33.7629 24.1025 33.9348C24.2744 34.1067 24.5075 34.2033 24.7507 34.2033H52.2507C52.4938 34.2033 52.7269 34.1067 52.8988 33.9348C53.0707 33.7629 53.1673 33.5298 53.1673 33.2867C53.1673 33.0435 53.0707 32.8104 52.8988 32.6385C52.7269 32.4666 52.4938 32.37 52.2507 32.37Z"
        fill="#0BCEB2" />
    <path
        d="M52.2507 25.0366H24.7507C24.5075 25.0366 24.2744 25.1332 24.1025 25.3051C23.9306 25.477 23.834 25.7102 23.834 25.9533C23.834 26.1964 23.9306 26.4296 24.1025 26.6015C24.2744 26.7734 24.5075 26.87 24.7507 26.87H52.2507C52.4938 26.87 52.7269 26.7734 52.8988 26.6015C53.0707 26.4296 53.1673 26.1964 53.1673 25.9533C53.1673 25.7102 53.0707 25.477 52.8988 25.3051C52.7269 25.1332 52.4938 25.0366 52.2507 25.0366Z"
        fill="#0BCEB2" />
    <path
        d="M52.2507 28.7034H24.7507C24.5075 28.7034 24.2744 28.7999 24.1025 28.9719C23.9306 29.1438 23.834 29.3769 23.834 29.62C23.834 29.8632 23.9306 30.0963 24.1025 30.2682C24.2744 30.4401 24.5075 30.5367 24.7507 30.5367H52.2507C52.4938 30.5367 52.7269 30.4401 52.8988 30.2682C53.0707 30.0963 53.1673 29.8632 53.1673 29.62C53.1673 29.3769 53.0707 29.1438 52.8988 28.9719C52.7269 28.7999 52.4938 28.7034 52.2507 28.7034Z"
        fill="#2D4356" />
    <path
        d="M39.8757 50.7034H24.7507C24.5075 50.7034 24.2744 50.7999 24.1025 50.9719C23.9306 51.1438 23.834 51.3769 23.834 51.62C23.834 51.8632 23.9306 52.0963 24.1025 52.2682C24.2744 52.4401 24.5075 52.5367 24.7507 52.5367H39.8757C40.1188 52.5367 40.3519 52.4401 40.5238 52.2682C40.6957 52.0963 40.7923 51.8632 40.7923 51.62C40.7923 51.3769 40.6957 51.1438 40.5238 50.9719C40.3519 50.7999 40.1188 50.7034 39.8757 50.7034Z"
        fill="#2D4356" />
    <path
        d="M24.7507 23.2033H39.8757C40.1188 23.2033 40.3519 23.1068 40.5238 22.9348C40.6957 22.7629 40.7923 22.5298 40.7923 22.2867C40.7923 22.0435 40.6957 21.8104 40.5238 21.6385C40.3519 21.4666 40.1188 21.37 39.8757 21.37H24.7507C24.5075 21.37 24.2744 21.4666 24.1025 21.6385C23.9306 21.8104 23.834 22.0435 23.834 22.2867C23.834 22.5298 23.9306 22.7629 24.1025 22.9348C24.2744 23.1068 24.5075 23.2033 24.7507 23.2033Z"
        fill="#2D4356" />
    <path
        d="M39.8757 54.37H24.7507C24.5075 54.37 24.2744 54.4666 24.1025 54.6385C23.9306 54.8104 23.834 55.0435 23.834 55.2867C23.834 55.5298 23.9306 55.7629 24.1025 55.9348C24.2744 56.1067 24.5075 56.2033 24.7507 56.2033H39.8757C40.1188 56.2033 40.3519 56.1067 40.5238 55.9348C40.6957 55.7629 40.7923 55.5298 40.7923 55.2867C40.7923 55.0435 40.6957 54.8104 40.5238 54.6385C40.3519 54.4666 40.1188 54.37 39.8757 54.37Z"
        fill="#0BCEB2" />
    <path
        d="M71.8438 4.75501C72.1157 4.75501 72.3815 4.67436 72.6077 4.52328C72.8338 4.37219 73.01 4.15744 73.1141 3.9062C73.2182 3.65495 73.2454 3.37848 73.1923 3.11176C73.1393 2.84503 73.0083 2.60003 72.816 2.40773C72.6237 2.21544 72.3787 2.08448 72.112 2.03143C71.8453 1.97837 71.5688 2.0056 71.3176 2.10967C71.0663 2.21374 70.8516 2.38998 70.7005 2.6161C70.5494 2.84221 70.4688 3.10806 70.4688 3.38001C70.4692 3.74455 70.6142 4.09404 70.8719 4.35182C71.1297 4.60959 71.4792 4.75459 71.8438 4.75501ZM71.8438 2.69251C71.9797 2.69251 72.1126 2.73283 72.2257 2.80837C72.3388 2.88391 72.4269 2.99129 72.4789 3.11691C72.531 3.24253 72.5446 3.38077 72.518 3.51413C72.4915 3.64749 72.426 3.76999 72.3299 3.86614C72.2337 3.96229 72.1112 4.02777 71.9779 4.0543C71.8445 4.08082 71.7063 4.06721 71.5807 4.01517C71.455 3.96314 71.3477 3.87502 71.2721 3.76196C71.1966 3.6489 71.1562 3.51598 71.1562 3.38001C71.1564 3.19772 71.2289 3.02296 71.3578 2.89407C71.4867 2.76518 71.6615 2.69269 71.8438 2.69251Z"
        fill="#2D4356" />
    <path
        d="M40.5632 4.86963C40.3819 4.86963 40.2046 4.92339 40.0539 5.02412C39.9031 5.12484 39.7856 5.268 39.7163 5.4355C39.6469 5.603 39.6287 5.78731 39.6641 5.96513C39.6995 6.14294 39.7868 6.30628 39.915 6.43448C40.0432 6.56268 40.2065 6.64998 40.3843 6.68535C40.5621 6.72072 40.7464 6.70257 40.9139 6.63319C41.0814 6.5638 41.2246 6.44631 41.3253 6.29557C41.4261 6.14482 41.4798 5.9676 41.4798 5.7863C41.4795 5.54327 41.3829 5.31027 41.211 5.13842C41.0392 4.96657 40.8062 4.86991 40.5632 4.86963ZM40.5632 6.24463C40.4725 6.24463 40.3839 6.21775 40.3085 6.16739C40.2331 6.11702 40.1744 6.04544 40.1397 5.96169C40.105 5.87794 40.0959 5.78579 40.1136 5.69688C40.1313 5.60797 40.175 5.5263 40.2391 5.46221C40.3032 5.39811 40.3848 5.35445 40.4737 5.33677C40.5626 5.31908 40.6548 5.32816 40.7385 5.36285C40.8223 5.39754 40.8939 5.45629 40.9442 5.53166C40.9946 5.60703 41.0215 5.69565 41.0215 5.7863C41.0214 5.90782 40.973 6.02432 40.8871 6.11025C40.8012 6.19618 40.6847 6.24451 40.5632 6.24463Z"
        fill="#2D4356" />
    <path
        d="M70.8131 19.9946C70.6318 19.9946 70.4546 20.0484 70.3039 20.1491C70.1531 20.2498 70.0356 20.393 69.9663 20.5605C69.8969 20.728 69.8787 20.9123 69.9141 21.0901C69.9495 21.2679 70.0368 21.4313 70.165 21.5595C70.2932 21.6877 70.4565 21.775 70.6343 21.8103C70.8121 21.8457 70.9964 21.8276 71.1639 21.7582C71.3314 21.6888 71.4746 21.5713 71.5753 21.4206C71.6761 21.2698 71.7298 21.0926 71.7298 20.9113C71.7295 20.6683 71.6329 20.4353 71.461 20.2634C71.2892 20.0916 71.0562 19.9949 70.8131 19.9946ZM70.8131 21.3696C70.7225 21.3696 70.6339 21.3427 70.5585 21.2924C70.4831 21.242 70.4244 21.1704 70.3897 21.0867C70.355 21.0029 70.3459 20.9108 70.3636 20.8219C70.3813 20.733 70.425 20.6513 70.4891 20.5872C70.5532 20.5231 70.6348 20.4795 70.7237 20.4618C70.8126 20.4441 70.9048 20.4532 70.9885 20.4878C71.0723 20.5225 71.1439 20.5813 71.1942 20.6567C71.2446 20.732 71.2715 20.8206 71.2715 20.9113C71.2714 21.0328 71.223 21.1493 71.1371 21.2353C71.0512 21.3212 70.9347 21.3695 70.8131 21.3696Z"
        fill="#2D4356" />
    <path
        d="M7.56315 19.5363C7.38185 19.5363 7.20462 19.59 7.05388 19.6907C6.90313 19.7915 6.78564 19.9346 6.71626 20.1021C6.64688 20.2696 6.62873 20.4539 6.6641 20.6318C6.69947 20.8096 6.78677 20.9729 6.91497 21.1011C7.04317 21.2293 7.2065 21.3166 7.38432 21.352C7.56213 21.3873 7.74645 21.3692 7.91394 21.2998C8.08144 21.2304 8.22461 21.1129 8.32533 20.9622C8.42606 20.8114 8.47982 20.6342 8.47982 20.4529C8.47954 20.2099 8.38287 19.9769 8.21103 19.805C8.03918 19.6332 7.80618 19.5365 7.56315 19.5363ZM7.56315 20.9113C7.4725 20.9113 7.38389 20.8844 7.30851 20.834C7.23314 20.7836 7.1744 20.7121 7.13971 20.6283C7.10502 20.5446 7.09594 20.4524 7.11362 20.3635C7.13131 20.2746 7.17496 20.1929 7.23906 20.1288C7.30316 20.0647 7.38483 20.0211 7.47373 20.0034C7.56264 19.9857 7.6548 19.9948 7.73855 20.0295C7.8223 20.0642 7.89388 20.1229 7.94424 20.1983C7.9946 20.2737 8.02148 20.3623 8.02148 20.4529C8.02136 20.5744 7.97304 20.6909 7.88711 20.7769C7.80118 20.8628 7.68467 20.9111 7.56315 20.9113Z"
        fill="#2D4356" />
    <path
        d="M27.4337 2.83759C27.3037 2.96401 27.2142 3.12613 27.1764 3.30345C27.1386 3.48076 27.1542 3.6653 27.2213 3.83374C27.2884 4.00217 27.4039 4.14694 27.5532 4.24972C27.7026 4.35251 27.8791 4.40869 28.0603 4.41118C28.2416 4.41367 28.4196 4.36235 28.5717 4.2637C28.7238 4.16505 28.8432 4.02352 28.9149 3.85699C28.9866 3.69045 29.0073 3.50641 28.9743 3.32813C28.9414 3.14984 28.8564 2.98532 28.7299 2.85538C28.5603 2.68138 28.3285 2.58179 28.0855 2.57846C27.8425 2.57512 27.6081 2.66831 27.4337 2.83759ZM28.3925 3.82311C28.3276 3.88633 28.2453 3.92885 28.1562 3.94532C28.067 3.96178 27.975 3.95144 27.8917 3.9156C27.8085 3.87977 27.7377 3.82004 27.6884 3.74399C27.639 3.66793 27.6134 3.57895 27.6146 3.48831C27.6159 3.39767 27.644 3.30944 27.6954 3.23476C27.7467 3.16009 27.8191 3.10233 27.9033 3.06879C27.9876 3.03525 28.0798 3.02744 28.1685 3.04635C28.2571 3.06525 28.3382 3.11002 28.4014 3.17499C28.4861 3.26218 28.5327 3.37939 28.531 3.5009C28.5294 3.62241 28.4795 3.73828 28.3925 3.82311Z"
        fill="#2D4356" />
    <path
        d="M3.2462 3.49983L3.92774 2.60333L3.49737 2.3595L3.06012 3.36325H3.04545L2.60087 2.36683L2.16316 2.61754L2.83737 3.49296V3.50716L1.7832 3.37058V3.85825L2.8447 3.72212V3.73633L2.16316 4.61129L2.57199 4.86979L3.03858 3.85825H3.05233L3.4827 4.86246L3.93462 4.60441L3.2462 3.74366V3.729L4.32879 3.85825V3.37058L3.2462 3.51404V3.49983Z"
        fill="#0BCEB2" />
    <path
        d="M61.5431 12.2333L61.1503 12.7371L61.3859 12.886L61.6544 12.3035H61.6627L61.9102 12.8819L62.1705 12.7329L61.7741 12.2375V12.2292L62.3974 12.3035V12.0225L61.7741 12.1055V12.0972L62.1664 11.5807L61.9189 11.4404L61.6668 12.0184H61.6586L61.4028 11.4446L61.1503 11.5889L61.5389 12.0931V12.1013L60.9316 12.0225V12.3035L61.5431 12.2251V12.2333Z"
        fill="#0BCEB2" />
    <path
        d="M57.5204 3.47781V2.99931L56.4585 3.14002V3.12627L57.1272 2.24673L56.7051 2.00793L56.2761 2.99243H56.2614L55.8255 2.01481L55.3961 2.26093L56.0574 3.11939V3.13314L55.0234 2.99931V3.47781L56.0643 3.34443V3.35818L55.3961 4.21619L55.7971 4.46964L56.2545 3.47781H56.2683L56.6904 4.46277L57.1336 4.20931L56.4585 3.36506V3.35131L57.5204 3.47781Z"
        fill="#0BCEB2" />
    <path
        d="M14.8278 10.2813L15.4044 9.52327L15.0405 9.31702L14.6701 10.1663H14.6582L14.2819 9.32298L13.9116 9.53518L14.4822 10.2754V10.2878L13.5898 10.1723V10.5848L14.4882 10.4697V10.4816L13.9116 11.2218L14.2572 11.4405L14.6523 10.5848H14.6637L15.0281 11.4345L15.4103 11.2159L14.8278 10.4876V10.4757L15.744 10.5848V10.1723L14.8278 10.2937V10.2813Z"
        fill="#0BCEB2" />
    <path
        d="M0.916667 68.5781C1.42293 68.5781 1.83333 68.1677 1.83333 67.6614C1.83333 67.1552 1.42293 66.7448 0.916667 66.7448C0.410406 66.7448 0 67.1552 0 67.6614C0 68.1677 0.410406 68.5781 0.916667 68.5781Z"
        fill="#2D4356" />
    <path
        d="M5.04167 66.745H3.66667C3.42355 66.745 3.19039 66.8416 3.01849 67.0135C2.84658 67.1854 2.75 67.4185 2.75 67.6617C2.75 67.9048 2.84658 68.1379 3.01849 68.3098C3.19039 68.4818 3.42355 68.5783 3.66667 68.5783H5.04167C5.28478 68.5783 5.51794 68.4818 5.68985 68.3098C5.86176 68.1379 5.95833 67.9048 5.95833 67.6617C5.95833 67.4185 5.86176 67.1854 5.68985 67.0135C5.51794 66.8416 5.28478 66.745 5.04167 66.745Z"
        fill="#2D4356" />
    <path
        d="M73.3327 66.745H71.9577C71.7146 66.745 71.4814 66.8416 71.3095 67.0135C71.1376 67.1854 71.041 67.4185 71.041 67.6617C71.041 67.9048 71.1376 68.1379 71.3095 68.3098C71.4814 68.4818 71.7146 68.5783 71.9577 68.5783H73.3327C73.5758 68.5783 73.809 68.4818 73.9809 68.3098C74.1528 68.1379 74.2493 67.9048 74.2493 67.6617C74.2493 67.4185 74.1528 67.1854 73.9809 67.0135C73.809 66.8416 73.5758 66.745 73.3327 66.745Z"
        fill="#2D4356" />
    <path
        d="M76.0827 68.5781C76.5889 68.5781 76.9993 68.1677 76.9993 67.6614C76.9993 67.1552 76.5889 66.7448 76.0827 66.7448C75.5764 66.7448 75.166 67.1552 75.166 67.6614C75.166 68.1677 75.5764 68.5781 76.0827 68.5781Z"
        fill="#2D4356" />
    <path
        d="M54.1539 70.4116H50.3462C50.1157 70.4301 49.9007 70.5347 49.7439 70.7045C49.5871 70.8744 49.5 71.0971 49.5 71.3283C49.5 71.5595 49.5871 71.7822 49.7439 71.952C49.9007 72.1219 50.1157 72.2265 50.3462 72.245H54.1539C54.3843 72.2265 54.5993 72.1219 54.7562 71.952C54.913 71.7822 55 71.5595 55 71.3283C55 71.0971 54.913 70.8744 54.7562 70.7045C54.5993 70.5347 54.3843 70.4301 54.1539 70.4116Z"
        fill="#0BCEB2" />
    <path
        d="M26.6539 70.4116H22.8462C22.6157 70.4301 22.4007 70.5347 22.2439 70.7045C22.0871 70.8744 22 71.0971 22 71.3283C22 71.5595 22.0871 71.7822 22.2439 71.952C22.4007 72.1219 22.6157 72.2265 22.8462 72.245H26.6539C26.8843 72.2265 27.0993 72.1219 27.2561 71.952C27.413 71.7822 27.5 71.5595 27.5 71.3283C27.5 71.0971 27.413 70.8744 27.2561 70.7045C27.0993 70.5347 26.8843 70.4301 26.6539 70.4116Z"
        fill="#0BCEB2" />
    <path
        d="M47.666 70.4116H29.3327C29.0896 70.4116 28.8564 70.5082 28.6845 70.6801C28.5126 70.852 28.416 71.0852 28.416 71.3283C28.416 71.5714 28.5126 71.8046 28.6845 71.9765C28.8564 72.1484 29.0896 72.245 29.3327 72.245H36.6385V73.1616H32.9993C32.7562 73.1616 32.5231 73.2582 32.3512 73.4301C32.1793 73.602 32.0827 73.8352 32.0827 74.0783C32.0827 74.3214 32.1793 74.5546 32.3512 74.7265C32.5231 74.8984 32.7562 74.995 32.9993 74.995H44.4577C44.7008 74.995 44.934 74.8984 45.1059 74.7265C45.2778 74.5546 45.3743 74.3214 45.3743 74.0783C45.3743 73.8352 45.2778 73.602 45.1059 73.4301C44.934 73.2582 44.7008 73.1616 44.4577 73.1616H40.3602V72.245H47.666C47.9091 72.245 48.1423 72.1484 48.3142 71.9765C48.4861 71.8046 48.5827 71.5714 48.5827 71.3283C48.5827 71.0852 48.4861 70.852 48.3142 70.6801C48.1423 70.5082 47.9091 70.4116 47.666 70.4116Z"
        fill="#0BCEB2" />
    <path
        d="M69.0804 66.745H47.9268L52.6082 61.6735L57.4858 56.7319C57.655 56.5602 57.7498 56.3289 57.7498 56.0878V12.6352C57.7455 11.9097 57.4536 11.2155 56.9382 10.705C56.4227 10.1944 55.7258 9.90908 55.0003 9.91164H21.9994C21.2739 9.90908 20.5769 10.1944 20.0615 10.705C19.546 11.2155 19.2542 11.9097 19.2498 12.6352V65.8547C19.2504 66.158 19.3025 66.4591 19.4038 66.745H7.91923C7.78882 66.7279 7.65628 66.7389 7.53046 66.7772C7.40463 66.8155 7.28842 66.8801 7.18958 66.9669C7.09075 67.0537 7.01156 67.1605 6.95731 67.2803C6.90306 67.4001 6.875 67.5301 6.875 67.6616C6.875 67.7932 6.90306 67.9232 6.95731 68.043C7.01156 68.1628 7.09075 68.2696 7.18958 68.3564C7.28842 68.4431 7.40463 68.5078 7.53046 68.5461C7.65628 68.5844 7.78882 68.5953 7.91923 68.5783H69.0804C69.2108 68.5953 69.3434 68.5844 69.4692 68.5461C69.595 68.5078 69.7113 68.4431 69.8101 68.3564C69.9089 68.2696 69.9881 68.1628 70.0424 68.043C70.0966 67.9232 70.1247 67.7932 70.1247 67.6616C70.1247 67.5301 70.0966 67.4001 70.0424 67.2803C69.9881 67.1605 69.9089 67.0537 69.8101 66.9669C69.7113 66.8801 69.595 66.8155 69.4692 66.7772C69.3434 66.7389 69.2108 66.7279 69.0804 66.745ZM46.7498 65.3172V57.5304C46.7388 57.3122 46.8144 57.0985 46.9602 56.9358C47.1059 56.7731 47.3101 56.6745 47.5282 56.6616H54.7393L46.7498 65.3172ZM21.9994 66.745C21.7599 66.7481 21.529 66.6562 21.3572 66.4893C21.1854 66.3224 21.0869 66.0942 21.0832 65.8547V12.6352C21.0869 12.3958 21.1854 12.1676 21.3572 12.0007C21.529 11.8338 21.7599 11.7418 21.9994 11.745H50.4165V18.9673L48.9945 18.2529C48.8668 18.1889 48.726 18.1556 48.5832 18.1556C48.4403 18.1556 48.2995 18.1889 48.1718 18.2529L46.7498 18.9673V14.9533C46.7498 14.7102 46.6533 14.477 46.4813 14.3051C46.3094 14.1332 46.0763 14.0366 45.8332 14.0366C45.59 14.0366 45.3569 14.1332 45.185 14.3051C45.0131 14.477 44.9165 14.7102 44.9165 14.9533V20.4533C44.9165 20.6097 44.9565 20.7634 45.0328 20.9C45.109 21.0365 45.2189 21.1513 45.352 21.2334C45.485 21.3155 45.6369 21.3622 45.7932 21.369C45.9494 21.3758 46.1048 21.3426 46.2445 21.2724L48.5832 20.0979L50.9218 21.2724C51.0616 21.3426 51.2169 21.3758 51.3732 21.369C51.5294 21.3622 51.6813 21.3155 51.8144 21.2334C51.9475 21.1513 52.0574 21.0365 52.1336 20.9C52.2098 20.7634 52.2498 20.6097 52.2498 20.4533V11.745H55.0003C55.2398 11.7418 55.4707 11.8338 55.6425 12.0007C55.8142 12.1676 55.9128 12.3958 55.9165 12.6352V54.8283H47.5282C46.8239 54.8413 46.1534 55.133 45.6639 55.6396C45.1743 56.1461 44.9055 56.8261 44.9165 57.5304V66.745L21.9994 66.745Z"
        fill="#2D4356" />
</svg>
    