<svg width="765" height="532" viewBox="0 0 765 532" fill="none" xmlns="http://www.w3.org/2000/svg">
<g clip-path="url(#clip0_1_1253)">
<path opacity="0.31" d="M716.811 341.241C714.801 342.881 713.092 345.104 710.593 345.793C708.387 339.673 707.376 333.123 707.635 326.625C707.699 325.044 707.826 323.412 707.282 321.925C706.764 320.509 705.689 319.383 704.613 318.329C699.377 313.195 693.185 308.669 686.007 307.164C681.791 306.28 677.43 306.484 673.125 306.688C663.66 307.139 653.732 307.725 645.666 312.698C642.308 314.768 638.959 317.675 635.028 317.335C632.032 317.075 629.567 314.963 626.8 313.777C621.942 311.695 616.388 312.558 611.181 313.48C609.69 313.743 608.168 314.024 606.851 314.763C605.214 315.681 604.029 317.237 603.047 318.839C599.324 324.929 597.921 332.392 599.171 339.418C599.392 340.659 599.728 341.866 600.089 343.064C578.771 315.133 559.756 285.205 526.98 271.753C501.213 261.179 471.934 263.228 443.863 261.859C394.312 259.45 342.11 246.236 296.805 265.285C285.678 269.964 275.295 276.513 263.434 279.127C252.452 281.55 241.002 280.419 229.731 280.062C207.083 279.34 184.32 281.813 162.445 287.372C139.057 293.314 116.005 302.842 91.8017 301.933C82.8979 301.597 74.126 299.842 65.269 298.945C50.4577 297.445 35.3787 298.358 20.8947 301.635C17.8305 302.328 14.6642 303.267 11.8125 304.606C13.5932 314.763 13.181 325.099 12.756 335.444C14.32 337.025 15.918 338.546 17.4437 339.979C24.4137 346.528 30.4997 353.897 35.6082 361.824C24.6815 361.08 13.6315 362.113 3.0957 365.126C8.1702 367.429 14.3497 365.351 19.5432 367.37C22.3312 368.454 24.5455 370.621 26.56 372.827C34.703 381.752 41.2225 393.635 38.9105 405.492C38.664 406.755 38.3027 408.038 37.4995 409.045C36.539 410.248 35.077 410.907 33.6957 411.591C30.1045 413.363 26.645 415.633 24.299 418.876C21.953 422.118 20.8735 426.479 22.2845 430.223C30.9715 429.11 39.6542 427.996 48.3412 426.883C38.341 437.121 34.0995 451.503 30.198 465.273C39.1527 459.132 41.1757 445.863 50.4067 440.143C58.214 435.306 68.3715 437.576 76.9437 440.865C86.57 444.558 95.9837 449.947 106.111 452.17C113.285 453.747 122.899 452.995 130.043 451.936C135.309 451.159 140.388 449.144 144.757 446.101C145.543 445.553 146.321 444.954 146.814 444.133C147.383 443.186 147.506 442.042 147.613 440.942C148.174 435.259 148.701 429.309 146.52 424.035C145.148 420.716 142.772 417.868 141.531 414.494C139.967 410.252 140.324 405.535 139.176 401.162C138.836 399.87 138.331 398.561 137.332 397.681C136.435 396.895 135.254 396.542 134.123 396.172C129.253 394.557 124.658 392.118 120.595 388.99C119.915 388.467 119.252 387.923 118.585 387.387L162.993 387.341C175.828 387.328 190.032 387.8 199.339 396.121C203.028 399.419 205.714 403.797 210.092 406.228C213.632 408.195 217.861 408.65 221.949 409.067C232.825 410.163 344.035 424.894 308.093 386.962C348.935 383.852 388.192 403.563 429.405 399.729C437.548 398.973 445.793 397.281 452.69 393.138C457.455 390.273 461.394 386.35 465.925 383.163C480.213 373.107 499.266 371.144 517.031 372.674C534.796 374.204 552.128 378.828 569.871 380.541C589.63 382.445 609.779 380.677 628.823 375.368C622.975 370.162 617.612 364.442 612.49 358.47C612.711 358.415 612.941 358.368 613.158 358.313C629.316 354.097 646.142 355.984 662.504 357.761C670.958 358.679 679.424 359.618 687.932 359.754C694.549 359.856 701.566 362.295 706.968 357.591C709.446 355.432 711.443 352.75 714.048 350.748C716.955 348.521 720.487 347.25 724.044 346.388C729.03 345.181 734.189 344.713 739.306 345.002C734.784 337.688 723.479 335.801 716.811 341.241Z" fill="#232323"/>
<path d="M664.551 313.361C664.551 313.361 664.644 336.15 674.925 354.144C674.925 354.144 676.608 360.753 693.009 360.536C709.41 360.319 711.093 354.144 711.093 354.144C711.093 354.144 719.223 345.041 721.467 314.207L664.551 313.361Z" fill="#295365"/>
<path d="M689.362 353.315C682.214 345.185 681.232 321.075 681.232 321.075C681.232 321.075 678.869 317.675 675.584 313.527L664.551 313.361C664.551 313.361 664.644 336.15 674.925 354.144C674.925 354.144 676.608 360.753 693.009 360.536C695.121 360.506 696.978 360.379 698.632 360.179C695.55 359.108 692.614 357.013 689.362 353.315Z" fill="#3EBEC4"/>
<path d="M721.458 313.361C721.458 318.916 708.721 323.421 693.005 323.421C677.288 323.421 664.551 318.916 664.551 313.361C664.551 307.806 677.292 303.301 693.005 303.301C708.721 303.301 721.458 307.806 721.458 313.361Z" fill="#E9F9F8"/>
<path d="M716.625 313.361C716.625 317.284 706.051 320.463 693.008 320.463C679.965 320.463 669.391 317.284 669.391 313.361C669.391 309.438 679.965 306.259 693.008 306.259C706.051 306.259 716.625 309.438 716.625 313.361Z" fill="#636060"/>
<path d="M686.763 290.883C687.162 291.376 687.557 291.873 687.957 292.366C688.692 288.966 691.276 286.021 694.557 284.856C694.617 285.264 694.676 285.668 694.731 286.076C696.453 282.876 699.173 280.224 702.411 278.583C701.884 278.928 701.621 279.633 701.795 280.241C704.71 276.378 709.224 273.755 714.026 273.139C712.539 273.543 711.255 274.648 710.631 276.059C714.184 274.431 718.255 273.964 722.089 274.737C720.669 275.09 719.296 275.638 718.021 276.352C721.498 276.539 724.979 276.726 728.455 276.917C728.107 276.573 727.512 277.194 727.699 277.648C727.886 278.103 728.417 278.282 728.889 278.413C731.158 279.038 733.428 279.667 735.697 280.292C733.555 280.033 731.366 280.156 729.267 280.657C730.678 281.558 732.085 282.464 733.496 283.369C730.975 283.866 728.417 284.168 725.854 284.274C728.54 285.133 731.094 286.408 733.394 288.04C729.008 288.703 724.626 289.366 720.24 290.029C722.263 290.913 724.171 292.056 725.905 293.424C720.831 293.114 715.743 292.919 710.66 292.838C712.428 294.087 714.192 295.333 715.96 296.582C712.28 296.888 708.591 297.062 704.897 297.101C706.194 298.167 707.647 299.043 709.194 299.689C706.806 300.288 704.417 300.887 702.029 301.487C702.292 302.324 702.828 303.072 703.533 303.59C702.713 303.879 701.837 304.211 701.357 304.938C700.877 305.66 701.094 306.884 701.939 307.075C700.01 307.611 699.343 310.548 700.851 311.865C700.358 311.436 697.167 311.733 696.321 311.551C694.621 311.189 693.019 310.531 691.484 309.727C689.631 308.758 688.288 307.751 687.098 306.03C684.043 301.589 682.398 295.12 686.763 290.883Z" fill="url(#paint0_linear_1_1253)"/>
<path d="M708.745 285.668C716.897 281.027 724.296 281.023 724.296 281.023C724.296 281.023 715.651 279.531 705.422 285.592C702.557 287.292 700.19 289.463 698.248 291.716C698.163 289.684 698.299 286.157 698.299 286.157C697.143 288.295 696.977 291.418 696.989 293.254C692.905 298.554 691.154 303.773 691.154 303.773C691.154 303.773 697.661 293.225 706.123 287.334C708.333 287.343 712.625 287.479 715.928 288.337C715.928 288.337 712.523 286.28 708.745 285.668Z" fill="url(#paint1_linear_1_1253)"/>
<path d="M700.259 316.956C702.362 315.694 704.1 313.484 706.553 313.357C707.662 313.301 708.746 313.701 709.859 313.777C710.968 313.85 712.269 313.437 712.63 312.388C711.865 312.048 711.105 311.703 710.34 311.359C711.704 310.79 713.264 311.21 714.734 311.045C716.205 310.883 717.815 309.502 717.195 308.163C719.6 307.917 722.002 307.67 724.407 307.424C725.623 307.3 727.271 306.472 726.732 305.375C731.883 306.841 737.357 304.33 742.682 304.869C745.491 305.154 748.135 306.272 750.88 306.926C750.506 305.571 749.312 304.474 747.931 304.215C748.607 304.104 749.282 303.99 749.962 303.879C750.625 302.366 749.788 300.539 748.488 299.51C747.191 298.486 745.538 298.057 743.957 297.572C734.076 294.559 725.066 288.541 714.806 287.342C714.742 287.92 715.359 288.469 715.924 288.333C708.491 290.394 700.437 292.889 696.123 299.281C693.352 303.386 692.511 308.635 689.349 312.447C685.571 317.012 697.275 318.746 700.259 316.956Z" fill="url(#paint2_linear_1_1253)"/>
<path d="M725.227 298.648C735.129 299.408 744.662 302.498 744.662 302.498C744.662 302.498 734.232 296.62 720.522 296.123C719.315 296.081 718.104 296.157 716.892 296.285C719.867 294.249 721.015 291.189 721.015 291.189C719.094 292.999 716.093 295.167 713.743 296.778C702.421 299.153 692.2 307.296 691.154 308.342C691.154 308.342 695.579 305.579 701.886 302.949C703.73 303.454 708.303 304.746 712.672 306.259C712.672 306.259 707.419 303.038 704.198 302.031C707.415 300.807 710.993 299.689 714.657 299.005C716.31 298.694 718.07 298.546 719.867 298.495C722.626 299.289 727.632 300.819 730.552 302.226C730.552 302.226 728.163 300.003 725.227 298.648Z" fill="url(#paint3_linear_1_1253)"/>
<path d="M662.186 318.253C662.713 317.845 663.244 317.437 663.771 317.029C655.39 314.109 645.976 314.249 637.689 317.416C635.496 318.253 633.383 319.294 631.348 320.459C631.399 318.567 632.465 316.736 634.085 315.754C633.485 315.499 632.89 315.248 632.295 314.993C633.205 313.531 634.663 312.418 636.312 311.92C634.76 312.333 633.179 310.39 633.898 308.954C634.531 307.696 636.167 307.407 637.57 307.267C640.23 307.007 642.891 306.744 645.551 306.485C645.02 306.047 644.659 305.405 644.552 304.721C646.252 304.636 647.957 304.555 649.661 304.47C648.875 304.049 649.04 302.757 649.754 302.218C650.468 301.678 651.437 301.669 652.33 301.686C654.599 301.729 656.869 301.771 659.134 301.814C658.492 301.457 658.084 300.717 658.131 299.986C662.764 300.314 667.362 301.138 671.816 302.447C671.378 302.575 671.174 301.793 671.54 301.521C671.905 301.244 672.42 301.359 672.857 301.491C677.855 302.987 682.688 305.023 687.248 307.551C686.725 307.309 686.207 307.067 685.684 306.825C688.03 307.985 690.376 309.145 692.726 310.305C693.857 310.862 695.191 312.018 694.562 313.11C693.763 314.496 689.526 316.085 687.979 316.727C685.748 317.654 683.793 317.36 681.383 317.237C678.178 317.071 674.965 317.067 671.761 317.237C669.606 317.356 663.894 316.931 662.186 318.253Z" fill="url(#paint4_linear_1_1253)"/>
<path d="M685.26 312.311C685.26 312.311 679.862 308.002 669.31 306.612C667.495 305.358 664.618 303.348 663.028 302.111L667.027 306.37C664.788 306.183 662.374 306.115 659.73 306.255C656.526 306.425 653.695 306.837 651.209 307.39C648.863 307.203 646.168 307.007 646.058 307.084C645.96 307.152 647.907 307.441 649.908 307.713C640.261 310.169 636.287 314.696 636.287 314.696C636.287 314.696 639.266 312.384 646.028 310.454C644.949 311.619 642.416 314.373 642.675 314.164C643.006 313.901 648.502 310.433 648.502 310.433L649.794 309.523C652.063 309.039 654.634 308.622 657.541 308.333C657.937 308.295 658.323 308.278 658.714 308.248C656.606 309.859 654.66 313.353 654.66 313.353C656.547 311.504 659.713 309.26 661.396 308.108C665.778 307.998 669.866 308.406 673.377 309.022C669.118 310.62 667.767 314.687 667.767 314.687C671.107 310.361 675.842 309.54 675.94 309.523C681.613 310.76 685.26 312.311 685.26 312.311Z" fill="url(#paint5_linear_1_1253)"/>
<path d="M685.26 328.406C685.728 329.847 686.935 331.16 688.452 331.322C687.645 335.134 690.254 338.814 692.821 341.823C695.737 345.236 698.801 348.53 701.997 351.688C703.119 350.744 703.268 348.87 702.311 347.735C702.898 348.258 703.918 348.19 704.407 347.591C704.895 346.991 704.755 345.988 704.118 345.525C704.776 345.767 705.431 346.01 706.09 346.252C707.178 344.458 707.097 342.146 706.379 340.153C705.66 338.164 704.373 336.422 703.106 334.713C703.948 335.47 704.793 336.222 705.635 336.978C703.846 333.277 701.814 329.681 699.566 326.23C701.117 327.399 702.668 328.568 704.215 329.736C702.868 326.421 700.977 323.315 698.639 320.578C699.472 321.045 700.31 321.508 701.143 321.976C701.903 322.401 700.798 318.057 700.764 317.943C700.645 317.543 699.953 316.315 699.795 315.937C699.506 315.24 699.676 314.445 699.273 313.676C697.747 310.764 692.889 309.88 689.906 309.6C684.019 309.043 678.205 312.269 679.217 318.89C679.672 318.461 680.717 318.223 681.189 317.785C681.423 319.732 682.353 324.755 685.056 324.088C684.852 325.465 684.814 327.046 685.26 328.406Z" fill="url(#paint6_linear_1_1253)"/>
<path d="M701.056 344.994C701.056 344.994 700.359 341.317 697.877 336.251C696.292 333.017 693.406 327.662 691.383 322.473L699.165 323.901C696.874 322.651 692.611 321.266 690.733 320.684C689.925 318.376 689.317 316.149 689.169 314.224C688.642 307.543 685.951 311.856 685.951 311.856C685.951 311.856 686.351 313.561 686.963 315.864C686.478 316.408 683.601 319.757 684.175 322.307C684.175 322.307 686.155 319.659 687.575 318.095C688.404 321.019 689.441 324.296 690.427 326.315C690.822 327.118 691.417 328.223 692.122 329.494C691.872 331.513 691.557 335.172 692.322 336.944L693.317 331.598C696.44 337.055 700.631 343.995 701.056 344.994Z" fill="url(#paint7_linear_1_1253)"/>
<path d="M698.133 320.11C700.539 320.756 702.94 321.398 705.345 322.044C705.643 322.125 706.03 322.171 706.191 321.912C706.353 321.653 705.758 321.385 705.796 321.691C708.184 322.401 710.573 323.111 712.961 323.82C716.391 324.84 719.897 325.894 722.792 327.998C724.84 329.49 726.493 331.445 728.125 333.379C732.307 338.334 736.489 343.29 740.671 348.245C741.215 345.338 741.088 342.312 740.302 339.46C741.241 340.497 742.529 341.211 743.901 341.466C743.714 338.797 742.133 336.26 739.821 334.917C741.079 335.363 742.337 335.805 743.595 336.252C741.708 332.886 739.09 329.936 735.979 327.654C737.641 328.245 739.307 328.835 740.969 329.426C738.393 326.409 735.435 323.718 732.188 321.436C733.659 322.29 735.321 322.817 737.016 322.962C735.746 320.756 734.471 318.55 733.2 316.349C732.609 315.32 732.001 314.279 731.117 313.484C729.188 311.755 726.298 311.529 724.207 309.995C724.921 309.838 725.635 309.685 726.349 309.528C717.955 303.501 706.603 303.603 696.493 305.724C692.646 306.531 687.33 308.792 687.92 313.71C688.443 318.079 694.725 319.196 698.133 320.11Z" fill="url(#paint8_linear_1_1253)"/>
<path d="M723.309 320.182C730.73 327.31 736.714 338.636 736.714 338.636C736.714 338.636 734.151 330.722 728.532 323.438L734.661 324.815L727.274 321.887C726.208 320.629 725.06 319.409 723.802 318.274C720.827 315.597 717.1 313.812 713.135 312.643C717.202 311.576 720.228 308.342 720.228 308.342C717.457 310.063 712.667 311.33 710.206 311.903C703.041 310.424 695.408 310.909 689.785 312.711C689.785 312.711 693.984 312.362 699.471 312.541C700.746 313.637 705.91 317.751 707.729 320.131C707.729 320.131 705.106 315.138 702.361 312.685C706.836 312.974 711.775 313.659 715.889 315.138C717.393 315.677 718.898 316.583 720.372 317.688C721.448 320.284 723.619 325.584 724.202 327.42C724.197 327.412 723.947 322.924 723.309 320.182Z" fill="url(#paint9_linear_1_1253)"/>
<path d="M693.815 307.925C694.903 305.656 695.464 302.409 697.062 300.42C698.605 298.503 699.523 299.073 700.492 296.344C700.739 295.651 700.994 295.014 701.261 294.393C701.372 293.586 701.508 292.778 701.708 291.988C702.005 290.828 702.417 289.659 702.315 288.465C702.145 286.442 700.522 284.478 701.24 282.583C701.546 281.771 702.256 281.129 702.426 280.279C702.553 279.633 702.349 278.974 702.124 278.358C700.858 274.928 698.716 271.664 698.762 268.009C698.784 266.348 699.268 264.69 699.06 263.037C698.439 258.047 691.86 254.737 692.698 249.777C692.851 248.859 693.246 247.839 692.723 247.07C692.145 246.224 690.747 246.22 690.258 245.319C689.88 244.622 690.216 243.644 689.701 243.041C688.966 242.178 687.228 242.892 686.612 241.944C686.399 241.621 686.403 241.188 686.187 240.865C685.626 240.036 684.325 240.61 683.615 241.319C680.985 243.946 679.523 247.707 679.693 251.422C678.855 251.256 678.231 252.161 677.92 252.956C676.616 256.284 676.501 260.066 677.602 263.47C677.827 264.163 678.09 264.958 677.716 265.587C677.444 266.042 676.909 266.258 676.471 266.56C674.287 268.065 674.703 271.405 675.719 273.853C676.739 276.301 678.137 278.996 677.143 281.452C675.927 280.067 673.364 280.929 672.684 282.646C672.004 284.363 672.748 286.34 673.887 287.793C674.469 288.533 675.171 289.23 675.421 290.135C675.672 291.04 675.222 292.234 674.287 292.341C672.935 292.494 671.431 290.483 670.593 291.554C670.368 291.839 670.364 292.234 670.389 292.6C670.925 300.02 680.581 307.619 686.08 311.823C687.432 312.855 689.2 313.336 691.023 313.361C691.992 311.572 692.936 309.766 693.815 307.925Z" fill="url(#paint10_linear_1_1253)"/>
<path d="M698.835 286.042C698.835 286.042 693.816 291.911 689.915 293.832C689.766 289.421 689.579 284.546 689.451 279.412C691.1 277.015 695.053 271.057 696.451 266.904C696.451 266.904 692.065 274.061 689.392 276.794C689.388 276.565 689.379 276.339 689.379 276.11C689.06 258.893 685.061 243.262 685.061 243.262C685.061 243.262 686.158 254.686 686.761 265.408C684.237 263.322 680.093 258.43 680.093 258.43C681.759 262.149 685.121 265.629 686.863 267.283C687.131 272.514 687.258 277.406 687.046 280.483C686.935 282.124 686.931 284.168 686.999 286.408L679.166 281.159C681.653 284.457 685.074 287.003 687.071 288.333C687.258 292.574 687.649 297.309 688.062 301.533L688.057 301.521C683.569 300.042 678.172 294.92 678.172 294.92C680.361 299.706 686.714 303.301 688.321 304.151C688.869 309.43 689.375 313.365 689.375 313.365C690.276 310.356 690.229 303.977 689.974 295.758C691.687 294.168 696.434 289.646 698.835 286.042Z" fill="url(#paint11_linear_1_1253)"/>
<path d="M626.35 296.408L577.543 278.549L601.555 275.808L650.362 293.662L626.35 296.408Z" fill="#3EBEC4"/>
<path d="M591.635 379.296L542.832 361.441L542.207 318.55L591.014 336.404L591.635 379.296Z" fill="#3EBEC4"/>
<path d="M590.491 300.5L541.684 282.646L540.621 209.822L589.428 227.677L590.491 300.5Z" fill="#3EBEC4"/>
<path d="M546.039 305.575L497.232 287.721L541.679 282.646L590.486 300.501L546.039 305.575Z" fill="#3EBEC4"/>
<path d="M593.272 164.756L544.465 146.901L575.571 143.348L624.378 161.203L593.272 164.756Z" fill="#3EBEC4"/>
<path d="M511.389 309.672L462.586 291.818L544.466 146.901L593.273 164.756L511.389 309.672Z" fill="#3EBEC4"/>
<path d="M511.911 345.436L463.104 327.582L462.586 291.818L511.389 309.672L511.911 345.436Z" fill="#3EBEC4"/>
<path d="M626.349 296.408L650.361 293.666L650.884 329.57L626.871 332.312L627.496 375.203L591.639 379.295L591.014 336.404L511.913 345.436L511.395 309.672L593.275 164.755L624.381 161.202L626.349 296.408ZM590.491 300.5L589.433 227.677L546.045 305.575L590.491 300.5Z" fill="#295365"/>
<path d="M423.424 366.516L374.617 348.661C376.967 349.52 379.5 349.792 382.195 349.486C386.691 348.972 390.661 346.944 394.133 343.4C397.605 339.855 400.245 333.884 402.059 325.529L450.866 343.383C449.052 351.743 446.412 357.71 442.94 361.254C439.468 364.799 435.503 366.826 431.002 367.34C428.307 367.646 425.774 367.374 423.424 366.516Z" fill="#3EBEC4"/>
<mask id="mask0_1_1253" style="mask-type:luminance" maskUnits="userSpaceOnUse" x="374" y="325" width="77" height="43">
<path d="M423.426 366.516L374.619 348.661C376.969 349.52 379.502 349.792 382.197 349.486C386.693 348.972 390.663 346.944 394.135 343.4C397.607 339.855 400.247 333.884 402.061 325.529L450.868 343.383C449.054 351.743 446.414 357.71 442.942 361.254C439.47 364.799 435.505 366.826 431.004 367.34C428.309 367.646 425.776 367.374 423.426 366.516Z" fill="white"/>
</mask>
<g mask="url(#mask0_1_1253)">
<path d="M423.426 366.516L374.619 348.662C376.969 349.52 379.502 349.792 382.197 349.486C384.862 349.184 387.339 348.347 389.639 346.983L438.446 364.837C436.146 366.206 433.669 367.039 431.004 367.345C428.309 367.646 425.776 367.374 423.426 366.516Z" fill="#3EBEC4"/>
<path d="M438.442 364.833L389.635 346.978C390.761 346.307 391.845 345.512 392.886 344.586L441.693 362.44C440.652 363.366 439.568 364.165 438.442 364.833Z" fill="#3EBEC4"/>
<path d="M441.696 362.444L392.889 344.59C393.309 344.216 393.726 343.821 394.134 343.4C394.482 343.047 394.818 342.665 395.15 342.261L443.957 360.115C443.625 360.519 443.285 360.897 442.941 361.254C442.533 361.671 442.116 362.066 441.696 362.444Z" fill="#3EBEC4"/>
<path d="M443.953 360.115L395.146 342.261C395.822 341.441 396.46 340.514 397.067 339.494L445.875 357.348C445.267 358.373 444.629 359.295 443.953 360.115Z" fill="#3EBEC4"/>
<path d="M445.879 357.348L397.072 339.494C397.982 337.956 398.811 336.192 399.567 334.203L448.374 352.057C447.618 354.046 446.789 355.81 445.879 357.348Z" fill="#3EBEC4"/>
<path d="M448.37 352.057L399.562 334.203C400.519 331.674 401.352 328.78 402.057 325.524L450.864 343.379C450.163 346.638 449.33 349.528 448.37 352.057Z" fill="#3EBEC4"/>
</g>
<path d="M387.516 200.43L436.323 218.284C437.904 218.862 439.404 219.708 440.832 220.817C444.364 223.563 447.305 229.491 449.753 238.586C452.171 247.686 453.561 264.741 453.922 289.748C454.287 314.721 453.276 332.609 450.862 343.379L402.055 325.524C404.469 314.755 405.476 296.867 405.115 271.894C404.749 246.887 403.36 229.831 400.946 220.732C398.498 211.637 395.557 205.708 392.025 202.963C390.597 201.854 389.097 201.012 387.516 200.43Z" fill="#3EBEC4"/>
<mask id="mask1_1_1253" style="mask-type:luminance" maskUnits="userSpaceOnUse" x="387" y="200" width="67" height="144">
<path d="M387.516 200.43L436.323 218.284C437.904 218.862 439.404 219.708 440.832 220.817C444.364 223.563 447.305 229.491 449.753 238.586C452.171 247.686 453.561 264.741 453.922 289.748C454.287 314.721 453.276 332.609 450.862 343.379L402.055 325.524C404.469 314.755 405.476 296.867 405.115 271.894C404.749 246.887 403.36 229.831 400.946 220.732C398.498 211.637 395.557 205.708 392.025 202.963C390.597 201.854 389.097 201.012 387.516 200.43Z" fill="white"/>
</mask>
<g mask="url(#mask1_1_1253)">
<path d="M450.87 343.383L402.063 325.529C404.477 314.759 405.484 296.871 405.123 271.898C404.757 246.891 403.367 229.836 400.953 220.736C398.505 211.641 395.564 205.713 392.033 202.967C390.605 201.858 389.104 201.012 387.523 200.434L436.33 218.288C437.911 218.866 439.412 219.712 440.84 220.821C444.371 223.567 447.312 229.496 449.76 238.591C452.179 247.69 453.568 264.745 453.93 289.752C454.291 314.721 453.284 332.609 450.87 343.383Z" fill="#3EBEC4"/>
</g>
<path d="M407.488 398.756L358.681 380.902C350.402 377.872 343.126 372.453 336.848 364.637C325.118 350.026 318.939 322.252 318.344 281.35C317.762 241.217 323.678 211.646 336.088 192.525C346.33 176.8 360.797 167.875 379.518 165.737C388.571 164.704 396.693 165.503 403.888 168.134L452.695 185.988C445.504 183.358 437.382 182.559 428.325 183.591C409.604 185.729 395.137 194.658 384.895 210.383C372.48 229.504 366.564 259.076 367.151 299.208C367.746 340.11 373.925 367.88 385.655 382.496C391.933 390.307 399.209 395.726 407.488 398.756Z" fill="#3EBEC4"/>
<mask id="mask2_1_1253" style="mask-type:luminance" maskUnits="userSpaceOnUse" x="318" y="165" width="135" height="234">
<path d="M407.49 398.756L358.683 380.902C350.404 377.872 343.128 372.453 336.85 364.637C325.12 350.026 318.941 322.252 318.346 281.35C317.764 241.217 323.68 211.646 336.09 192.525C346.332 176.8 360.799 167.875 379.52 165.737C388.573 164.704 396.695 165.503 403.89 168.134L452.697 185.988C445.506 183.358 437.384 182.559 428.327 183.591C409.606 185.729 395.139 194.658 384.897 210.383C372.482 229.504 366.566 259.076 367.153 299.208C367.748 340.11 373.927 367.88 385.657 382.496C391.935 390.307 399.211 395.726 407.49 398.756Z" fill="white"/>
</mask>
<g mask="url(#mask2_1_1253)">
<path d="M407.489 398.756L358.682 380.902C350.403 377.872 343.127 372.453 336.85 364.637C325.12 350.026 318.941 322.252 318.346 281.35C317.908 251.132 321.151 226.903 328.078 208.615L376.885 226.47C369.958 244.762 366.711 268.991 367.153 299.204C367.748 340.106 373.927 367.876 385.657 382.491C391.934 390.307 399.21 395.726 407.489 398.756Z" fill="#3EBEC4"/>
<path d="M376.883 226.465L328.076 208.611C329.946 203.673 332.088 199.163 334.498 195.092L383.305 212.946C380.895 217.022 378.753 221.527 376.883 226.465Z" fill="#3EBEC4"/>
<path d="M383.309 212.946L334.502 195.092C335.02 194.216 335.552 193.358 336.091 192.525C337.477 190.4 338.939 188.398 340.477 186.52L389.284 204.374C387.746 206.252 386.284 208.254 384.898 210.379C384.354 211.216 383.827 212.071 383.309 212.946Z" fill="#3EBEC4"/>
<path d="M389.286 204.374L340.479 186.52C342.514 184.038 344.686 181.768 346.994 179.72L395.801 197.574C393.493 199.627 391.321 201.892 389.286 204.374Z" fill="#3EBEC4"/>
<path d="M395.801 197.574L346.994 179.72C349.625 177.382 352.43 175.329 355.413 173.557L404.22 191.411C401.237 193.188 398.432 195.241 395.801 197.574Z" fill="#3EBEC4"/>
<path d="M404.217 191.416L355.41 173.561C362.461 169.375 370.498 166.766 379.52 165.737C388.573 164.704 396.695 165.503 403.89 168.134L452.697 185.988C445.506 183.358 437.384 182.559 428.327 183.591C419.3 184.62 411.268 187.229 404.217 191.416Z" fill="#3EBEC4"/>
</g>
<path d="M472.552 200.685C485.383 216.678 492.107 244.915 492.697 285.324C493.284 325.631 487.368 355.308 474.954 374.391C464.711 390.15 450.214 399.079 431.493 401.221C412.678 403.372 397.421 397.137 385.657 382.491C373.927 367.88 367.747 340.106 367.152 299.204C366.57 259.071 372.482 229.5 384.896 210.379C395.139 194.654 409.606 185.729 428.327 183.587C447.048 181.449 461.791 187.149 472.552 200.685ZM450.865 343.383C453.279 332.613 454.286 314.725 453.925 289.752C453.559 264.745 452.169 247.69 449.755 238.591C447.307 229.496 444.366 223.567 440.835 220.821C437.303 218.076 433.321 216.954 428.824 217.468C424.357 217.978 420.388 220.005 416.92 223.55C413.448 227.094 410.808 233.066 408.994 241.421C406.584 252.297 405.572 270.219 405.938 295.226C406.303 320.199 407.693 337.254 410.107 346.354C412.525 355.453 415.496 361.343 419.028 364.051C422.526 366.766 426.542 367.846 431.004 367.336C435.501 366.822 439.47 364.794 442.943 361.25C446.406 357.71 449.05 351.738 450.865 343.383Z" fill="#295365"/>
<path d="M326.014 330.697L277.207 312.842L301.22 310.101L350.022 327.955L326.014 330.697Z" fill="#3EBEC4"/>
<path d="M291.299 413.589L242.492 395.734L241.871 352.843L290.674 370.698L291.299 413.589Z" fill="#3EBEC4"/>
<path d="M290.15 334.794L241.348 316.939L240.285 244.116L289.092 261.97L290.15 334.794Z" fill="#3EBEC4"/>
<path d="M245.713 339.868L196.906 322.014L241.353 316.939L290.155 334.794L245.713 339.868Z" fill="#3EBEC4"/>
<path d="M292.939 199.049L244.137 181.194L275.242 177.641L324.049 195.496L292.939 199.049Z" fill="#3EBEC4"/>
<path d="M211.057 343.965L162.25 326.111L244.135 181.194L292.938 199.049L211.057 343.965Z" fill="#3EBEC4"/>
<path d="M211.58 379.729L162.773 361.875L162.25 326.111L211.057 343.965L211.58 379.729Z" fill="#3EBEC4"/>
<path d="M326.013 330.697L350.026 327.955L350.549 363.859L326.536 366.601L327.161 409.492L291.299 413.584L290.675 370.693L211.574 379.725L211.051 343.961L292.931 199.044L324.037 195.491L326.013 330.697ZM290.152 334.794L289.094 261.97L245.71 339.868L290.152 334.794Z" fill="#295365"/>
<path opacity="0.31" d="M528.974 419.709L532.684 418.323L460.999 394.655L456.49 214.17L452.784 215.556L453.252 235.599L403.293 239.972L402.796 220.044L399.094 221.425L402.698 402.921L475.279 425.582L478.99 424.197L438.67 410.882L479.402 404.23L528.974 419.709ZM455.317 323.612L405.494 327.977L404.496 287.955L454.369 283.084L455.317 323.612ZM405.592 331.917L455.398 327.055L456.422 370.808L406.671 375.165L405.592 331.917ZM453.337 239.041L454.288 279.633L404.394 284.002L403.395 243.916L453.337 239.041ZM430.973 408.344L407.33 401.634L406.769 379.117L456.503 374.264L456.605 397.116L473.392 402.356L430.973 408.344Z" fill="#232323"/>
<path d="M528.604 418.71L532.824 418.089L456.775 215.16L452.788 215.556L459.835 234.434L409.999 239.334L403.076 221.03L399.094 221.425L475.279 425.582L479.499 424.962L472.032 405.556L521.864 400.652L528.604 418.71ZM491.561 319.455L505.28 356.214L455.449 361.122L441.73 324.364L491.561 319.455ZM440.298 320.526L426.579 283.768L476.41 278.864L490.124 315.618L440.298 320.526ZM461.263 238.263L474.982 275.022L425.146 279.926L411.427 243.168L461.263 238.263ZM470.596 401.714L456.881 364.96L506.712 360.051L520.431 396.81L470.596 401.714Z" fill="#D3D3D3"/>
<path d="M88.7852 395.305C88.7852 395.305 88.8999 423.674 101.697 446.08C101.697 446.08 103.792 454.304 124.205 454.036C144.622 453.768 146.713 446.08 146.713 446.08C146.713 446.08 156.832 434.749 159.624 396.359L88.7852 395.305Z" fill="#295365"/>
<path d="M119.67 445.043C110.77 434.924 109.551 404.91 109.551 404.91C109.551 404.91 106.61 400.677 102.521 395.509L88.7852 395.305C88.7852 395.305 88.8999 423.674 101.697 446.08C101.697 446.08 103.792 454.304 124.205 454.036C126.831 454.002 129.147 453.84 131.204 453.594C127.375 452.259 123.72 449.65 119.67 445.043Z" fill="#3EBEC4"/>
<path d="M124.201 407.826C143.765 407.826 159.625 402.22 159.625 395.305C159.625 388.39 143.765 382.785 124.201 382.785C104.637 382.785 88.7773 388.39 88.7773 395.305C88.7773 402.22 104.637 407.826 124.201 407.826Z" fill="#E9F9F8"/>
<path d="M124.204 404.145C140.442 404.145 153.606 400.188 153.606 395.305C153.606 390.423 140.442 386.465 124.204 386.465C107.966 386.465 94.8027 390.423 94.8027 395.305C94.8027 400.188 107.966 404.145 124.204 404.145Z" fill="#636060"/>
<path d="M116.42 367.319C116.917 367.935 117.41 368.552 117.907 369.168C118.821 364.931 122.038 361.271 126.123 359.818C126.195 360.324 126.267 360.829 126.339 361.335C128.481 357.353 131.864 354.051 135.898 352.006C135.239 352.436 134.912 353.315 135.128 354.072C138.758 349.261 144.376 346.001 150.356 345.232C148.503 345.733 146.905 347.11 146.132 348.866C150.556 346.843 155.626 346.256 160.395 347.221C158.627 347.663 156.918 348.339 155.333 349.235C159.664 349.469 163.994 349.703 168.325 349.937C167.892 349.507 167.152 350.281 167.382 350.846C167.615 351.411 168.278 351.637 168.865 351.798C171.691 352.576 174.517 353.358 177.344 354.136C174.675 353.813 171.95 353.97 169.337 354.586C171.092 355.712 172.847 356.834 174.602 357.961C171.466 358.581 168.283 358.955 165.087 359.087C168.431 360.154 171.615 361.743 174.475 363.779C169.018 364.603 163.557 365.428 158.1 366.252C160.62 367.349 162.996 368.773 165.155 370.477C158.835 370.09 152.507 369.848 146.178 369.75C148.376 371.306 150.577 372.857 152.774 374.412C148.193 374.791 143.599 375.007 139.004 375.058C140.615 376.389 142.426 377.477 144.355 378.28C141.38 379.028 138.409 379.772 135.434 380.52C135.762 381.561 136.425 382.496 137.309 383.142C136.289 383.503 135.201 383.915 134.601 384.816C134.002 385.717 134.274 387.239 135.328 387.477C132.923 388.144 132.094 391.803 133.977 393.44C133.36 392.904 129.387 393.274 128.337 393.053C126.22 392.602 124.227 391.786 122.319 390.783C120.015 389.576 118.341 388.323 116.862 386.181C113.033 380.651 110.984 372.598 116.42 367.319Z" fill="url(#paint12_linear_1_1253)"/>
<path d="M143.797 360.834C153.946 355.058 163.155 355.049 163.155 355.049C163.155 355.049 152.399 353.192 139.661 360.736C136.091 362.848 133.15 365.56 130.732 368.36C130.626 365.836 130.796 361.437 130.796 361.437C129.355 364.098 129.147 367.986 129.164 370.273C124.081 376.869 121.896 383.363 121.896 383.363C121.896 383.363 129.997 370.235 140.533 362.899C143.282 362.912 148.625 363.078 152.739 364.144C152.739 364.144 148.501 361.594 143.797 360.834Z" fill="url(#paint13_linear_1_1253)"/>
<path d="M133.236 399.781C135.854 398.208 138.022 395.454 141.069 395.301C142.454 395.229 143.802 395.73 145.183 395.824C146.564 395.913 148.183 395.403 148.634 394.094C147.686 393.669 146.734 393.24 145.782 392.815C147.482 392.105 149.424 392.628 151.252 392.424C153.079 392.22 155.09 390.503 154.312 388.837C157.304 388.531 160.296 388.225 163.292 387.919C164.805 387.766 166.862 386.733 166.186 385.369C172.595 387.192 179.417 384.064 186.047 384.736C189.54 385.088 192.838 386.482 196.255 387.298C195.788 385.611 194.304 384.247 192.583 383.924C193.425 383.784 194.266 383.643 195.112 383.503C195.936 381.616 194.891 379.342 193.28 378.067C191.665 376.792 189.608 376.257 187.636 375.658C175.337 371.909 164.121 364.412 151.35 362.92C151.269 363.643 152.038 364.323 152.744 364.153C143.491 366.72 133.466 369.827 128.094 377.783C124.647 382.891 123.597 389.428 119.662 394.171C114.953 399.849 129.526 402.008 133.236 399.781Z" fill="url(#paint14_linear_1_1253)"/>
<path d="M164.311 376.988C176.636 377.936 188.507 381.782 188.507 381.782C188.507 381.782 175.523 374.463 158.455 373.847C156.95 373.792 155.446 373.89 153.937 374.047C157.643 371.514 159.071 367.706 159.071 367.706C156.683 369.963 152.943 372.657 150.019 374.663C135.921 377.621 123.197 387.757 121.896 389.058C121.896 389.058 127.404 385.615 135.258 382.343C137.553 382.972 143.244 384.583 148.684 386.465C148.684 386.465 142.143 382.458 138.136 381.2C142.143 379.674 146.593 378.284 151.158 377.43C153.215 377.047 155.403 376.856 157.643 376.797C161.077 377.787 167.312 379.691 170.941 381.438C170.95 381.438 167.971 378.679 164.311 376.988Z" fill="url(#paint15_linear_1_1253)"/>
<path d="M85.8333 401.396C86.492 400.89 87.1508 400.38 87.8095 399.874C77.3758 396.24 65.6585 396.415 55.3395 400.359C52.611 401.4 49.9803 402.696 47.4473 404.15C47.511 401.795 48.837 399.513 50.8515 398.293C50.1078 397.979 49.364 397.66 48.6203 397.345C49.755 395.526 51.5698 394.141 53.6225 393.52C51.693 394.035 49.721 391.612 50.6178 389.827C51.404 388.259 53.4398 387.898 55.1865 387.728C58.4973 387.405 61.8123 387.082 65.123 386.754C64.46 386.206 64.0095 385.411 63.882 384.561C66.0028 384.459 68.1193 384.353 70.24 384.251C69.2583 383.724 69.4665 382.118 70.3548 381.446C71.243 380.775 72.45 380.766 73.5635 380.787C76.3855 380.843 79.2118 380.894 82.0338 380.949C81.2348 380.507 80.729 379.585 80.7843 378.675C86.5515 379.079 92.272 380.107 97.8225 381.735C97.2785 381.897 97.0235 380.923 97.4783 380.579C97.933 380.235 98.5748 380.379 99.1188 380.541C105.337 382.402 111.355 384.94 117.033 388.089C116.382 387.787 115.736 387.485 115.086 387.184C118.006 388.629 120.93 390.074 123.85 391.514C125.256 392.211 126.918 393.648 126.136 395.004C125.142 396.725 119.867 398.71 117.942 399.509C115.163 400.66 112.727 400.295 109.731 400.142C105.74 399.938 101.741 399.929 97.7503 400.142C95.0728 400.282 87.9625 399.751 85.8333 401.396Z" fill="url(#paint16_linear_1_1253)"/>
<path d="M114.56 394C114.56 394 107.84 388.633 94.7079 386.907C92.4469 385.343 88.8684 382.844 86.8922 381.306L91.8689 386.605C89.0809 386.372 86.0719 386.287 82.7824 386.461C78.7917 386.673 75.2684 387.183 72.1744 387.872C69.2547 387.638 65.8972 387.396 65.7612 387.489C65.6379 387.574 68.0604 387.931 70.5552 388.271C58.5447 391.327 53.5977 396.963 53.5977 396.963C53.5977 396.963 57.3037 394.081 65.7272 391.684C64.3842 393.138 61.2264 396.563 61.5537 396.304C61.9659 395.972 68.8084 391.663 68.8084 391.663L70.4149 390.532C73.2412 389.933 76.4414 389.41 80.0624 389.053C80.5554 389.007 81.0357 388.985 81.5202 388.947C78.8937 390.953 76.4754 395.305 76.4754 395.305C78.8214 393.006 82.7654 390.209 84.8649 388.777C90.3177 388.637 95.4092 389.147 99.7824 389.916C94.4827 391.905 92.7997 396.971 92.7997 396.971C96.9604 391.586 102.851 390.562 102.974 390.545C110.021 392.067 114.56 394 114.56 394Z" fill="url(#paint17_linear_1_1253)"/>
<path d="M114.551 414.035C115.138 415.824 116.634 417.465 118.521 417.665C117.513 422.408 120.765 426.993 123.961 430.738C127.59 434.988 131.402 439.085 135.385 443.02C136.783 441.843 136.966 439.514 135.776 438.099C136.507 438.753 137.777 438.664 138.385 437.916C138.993 437.172 138.819 435.918 138.024 435.349C138.844 435.651 139.66 435.952 140.48 436.254C141.836 434.023 141.734 431.141 140.837 428.664C139.941 426.186 138.343 424.018 136.762 421.893C137.811 422.833 138.861 423.776 139.911 424.715C137.684 420.104 135.155 415.633 132.354 411.336C134.284 412.79 136.213 414.243 138.143 415.697C136.464 411.57 134.11 407.703 131.203 404.294C132.24 404.872 133.281 405.454 134.322 406.032C135.27 406.559 133.893 401.153 133.85 401.009C133.706 400.512 132.839 398.982 132.648 398.51C132.291 397.643 132.499 396.653 131.997 395.696C130.102 392.071 124.05 390.975 120.335 390.622C113.008 389.929 105.771 393.945 107.033 402.186C107.598 401.651 108.899 401.357 109.489 400.809C109.778 403.236 110.939 409.483 114.3 408.655C114.045 410.376 113.999 412.344 114.551 414.035Z" fill="url(#paint18_linear_1_1253)"/>
<path d="M134.214 434.686C134.214 434.686 133.347 430.113 130.258 423.802C128.286 419.777 124.694 413.113 122.174 406.653L131.86 408.429C129.008 406.874 123.7 405.148 121.362 404.426C120.355 401.553 119.603 398.778 119.416 396.385C118.761 388.068 115.412 393.44 115.412 393.44C115.412 393.44 115.91 395.565 116.67 398.429C116.067 399.105 112.488 403.278 113.198 406.453C113.198 406.453 115.663 403.155 117.431 401.213C118.464 404.855 119.752 408.931 120.984 411.447C121.473 412.45 122.217 413.823 123.096 415.404C122.782 417.915 122.395 422.471 123.343 424.677L124.58 418.022C128.464 424.8 133.683 433.445 134.214 434.686Z" fill="url(#paint19_linear_1_1253)"/>
<path d="M130.585 403.708C133.577 404.511 136.569 405.314 139.561 406.113C139.931 406.211 140.411 406.27 140.615 405.947C140.819 405.624 140.075 405.289 140.122 405.671C143.097 406.555 146.068 407.439 149.043 408.319C153.314 409.585 157.679 410.899 161.283 413.521C163.833 415.374 165.89 417.809 167.925 420.219C173.132 426.386 178.338 432.556 183.544 438.723C184.22 435.106 184.063 431.333 183.081 427.788C184.25 429.08 185.852 429.968 187.565 430.287C187.331 426.964 185.367 423.81 182.486 422.135C184.05 422.688 185.618 423.245 187.182 423.797C184.832 419.611 181.576 415.935 177.7 413.092C179.77 413.827 181.84 414.562 183.91 415.297C180.701 411.54 177.02 408.191 172.979 405.348C174.81 406.411 176.876 407.065 178.988 407.248C177.403 404.502 175.822 401.757 174.237 399.011C173.501 397.732 172.745 396.432 171.644 395.446C169.243 393.291 165.647 393.01 163.042 391.102C163.93 390.907 164.819 390.715 165.707 390.52C155.26 383.019 141.125 383.146 128.536 385.785C123.747 386.788 117.129 389.606 117.86 395.726C118.519 401.179 126.348 402.569 130.585 403.708Z" fill="url(#paint20_linear_1_1253)"/>
<path d="M161.926 403.797C171.166 412.671 178.616 426.772 178.616 426.772C178.616 426.772 175.428 416.921 168.433 407.851L176.062 409.564L166.865 405.918C165.539 404.354 164.106 402.832 162.542 401.421C158.841 398.089 154.2 395.862 149.261 394.413C154.327 393.083 158.088 389.058 158.088 389.058C154.642 391.2 148.679 392.777 145.615 393.491C136.694 391.646 127.191 392.25 120.195 394.498C120.195 394.498 125.423 394.064 132.253 394.285C133.838 395.654 140.268 400.771 142.533 403.733C142.533 403.733 139.269 397.515 135.848 394.46C141.42 394.821 147.565 395.671 152.687 397.511C154.561 398.187 156.431 399.309 158.267 400.686C159.606 403.92 162.309 410.516 163.035 412.798C163.035 412.798 162.721 407.21 161.926 403.797Z" fill="url(#paint21_linear_1_1253)"/>
<path d="M125.215 388.539C126.567 385.713 127.268 381.671 129.257 379.198C131.178 376.809 132.321 377.519 133.528 374.123C133.834 373.261 134.153 372.466 134.485 371.697C134.621 370.689 134.791 369.691 135.046 368.7C135.415 367.255 135.93 365.802 135.802 364.314C135.59 361.794 133.571 359.355 134.468 356.992C134.85 355.98 135.73 355.181 135.942 354.123C136.1 353.32 135.849 352.499 135.564 351.73C133.987 347.463 131.318 343.396 131.378 338.844C131.403 336.774 132.007 334.713 131.748 332.656C130.97 326.443 122.784 322.324 123.826 316.149C124.017 315.006 124.51 313.735 123.855 312.779C123.133 311.725 121.395 311.721 120.783 310.599C120.311 309.732 120.732 308.516 120.09 307.76C119.176 306.684 117.013 307.573 116.239 306.391C115.976 305.987 115.98 305.448 115.712 305.048C115.015 304.015 113.392 304.734 112.512 305.613C109.235 308.882 107.416 313.565 107.629 318.189C106.588 317.981 105.81 319.111 105.419 320.097C103.791 324.241 103.651 328.95 105.024 333.183C105.304 334.046 105.636 335.036 105.168 335.818C104.828 336.388 104.161 336.655 103.617 337.029C100.897 338.899 101.415 343.06 102.682 346.107C103.953 349.155 105.695 352.508 104.454 355.568C102.941 353.842 99.7494 354.918 98.9037 357.055C98.0579 359.193 98.9844 361.654 100.4 363.46C101.122 364.382 101.998 365.249 102.312 366.38C102.627 367.506 102.061 368.994 100.897 369.125C99.2182 369.317 97.3397 366.813 96.2984 368.148C96.0179 368.505 96.0137 368.998 96.0434 369.448C96.7064 378.684 108.73 388.148 115.576 393.38C117.259 394.668 119.457 395.263 121.726 395.297C122.946 393.078 124.119 390.83 125.215 388.539Z" fill="url(#paint22_linear_1_1253)"/>
<path d="M131.461 361.297C131.461 361.297 125.213 368.603 120.356 370.995C120.173 365.504 119.939 359.435 119.778 353.043C121.83 350.06 126.748 342.639 128.494 337.471C128.494 337.471 123.033 346.384 119.71 349.779C119.705 349.495 119.697 349.214 119.693 348.929C119.297 327.497 114.316 308.04 114.316 308.04C114.316 308.04 115.681 322.265 116.433 335.61C113.292 333.013 108.133 326.919 108.133 326.919C110.207 331.547 114.393 335.882 116.56 337.939C116.892 344.454 117.049 350.54 116.79 354.374C116.65 356.414 116.65 358.964 116.73 361.747L106.981 355.215C110.079 359.321 114.333 362.487 116.82 364.144C117.053 369.423 117.538 375.318 118.052 380.579L118.048 380.562C112.463 378.718 105.744 372.347 105.744 372.347C108.473 378.301 116.378 382.781 118.379 383.839C119.064 390.409 119.693 395.31 119.693 395.31C120.815 391.565 120.755 383.622 120.436 373.388C122.557 371.416 128.469 365.785 131.461 361.297Z" fill="url(#paint23_linear_1_1253)"/>
</g>
<defs>
<linearGradient id="paint0_linear_1_1253" x1="694.567" y1="311.809" x2="722.778" y2="270.883" gradientUnits="userSpaceOnUse">
<stop stop-color="#B7281D"/>
<stop offset="1" stop-color="#FA3823"/>
</linearGradient>
<linearGradient id="paint1_linear_1_1253" x1="690.664" y1="293.022" x2="724.772" y2="291.465" gradientUnits="userSpaceOnUse">
<stop stop-color="#E13221"/>
<stop offset="1" stop-color="#FF8073"/>
</linearGradient>
<linearGradient id="paint2_linear_1_1253" x1="694.873" y1="315.129" x2="744.342" y2="291.686" gradientUnits="userSpaceOnUse">
<stop stop-color="#B7281D"/>
<stop offset="1" stop-color="#FA3823"/>
</linearGradient>
<linearGradient id="paint3_linear_1_1253" x1="690.799" y1="300.461" x2="744.458" y2="298.011" gradientUnits="userSpaceOnUse">
<stop stop-color="#E13221"/>
<stop offset="1" stop-color="#FF8073"/>
</linearGradient>
<linearGradient id="paint4_linear_1_1253" x1="631.347" y1="310.232" x2="694.716" y2="310.232" gradientUnits="userSpaceOnUse">
<stop stop-color="#B7281D"/>
<stop offset="1" stop-color="#FA3823"/>
</linearGradient>
<linearGradient id="paint5_linear_1_1253" x1="636.062" y1="309.746" x2="685.041" y2="307.509" gradientUnits="userSpaceOnUse">
<stop stop-color="#E13221"/>
<stop offset="1" stop-color="#FF8073"/>
</linearGradient>
<linearGradient id="paint6_linear_1_1253" x1="676.687" y1="320.748" x2="710.59" y2="336.824" gradientUnits="userSpaceOnUse">
<stop stop-color="#B7281D"/>
<stop offset="1" stop-color="#FA3823"/>
</linearGradient>
<linearGradient id="paint7_linear_1_1253" x1="684.397" y1="328.196" x2="700.258" y2="327.471" gradientUnits="userSpaceOnUse">
<stop stop-color="#E13221"/>
<stop offset="1" stop-color="#FF8073"/>
</linearGradient>
<linearGradient id="paint8_linear_1_1253" x1="712.968" y1="331.516" x2="724.69" y2="315.424" gradientUnits="userSpaceOnUse">
<stop stop-color="#B7281D"/>
<stop offset="1" stop-color="#FA3823"/>
</linearGradient>
<linearGradient id="paint9_linear_1_1253" x1="690.356" y1="325.229" x2="736.008" y2="323.144" gradientUnits="userSpaceOnUse">
<stop stop-color="#E13221"/>
<stop offset="1" stop-color="#FF8073"/>
</linearGradient>
<linearGradient id="paint10_linear_1_1253" x1="687.241" y1="310.755" x2="685.055" y2="244.797" gradientUnits="userSpaceOnUse">
<stop stop-color="#B7281D"/>
<stop offset="1" stop-color="#FA3823"/>
</linearGradient>
<linearGradient id="paint11_linear_1_1253" x1="677.438" y1="278.758" x2="698.461" y2="277.798" gradientUnits="userSpaceOnUse">
<stop stop-color="#E13221"/>
<stop offset="1" stop-color="#FF8073"/>
</linearGradient>
<linearGradient id="paint12_linear_1_1253" x1="126.135" y1="393.374" x2="161.255" y2="342.425" gradientUnits="userSpaceOnUse">
<stop stop-color="#B7281D"/>
<stop offset="1" stop-color="#FA3823"/>
</linearGradient>
<linearGradient id="paint13_linear_1_1253" x1="121.287" y1="369.986" x2="163.748" y2="368.047" gradientUnits="userSpaceOnUse">
<stop stop-color="#E13221"/>
<stop offset="1" stop-color="#FF8073"/>
</linearGradient>
<linearGradient id="paint14_linear_1_1253" x1="126.531" y1="397.507" x2="188.115" y2="368.323" gradientUnits="userSpaceOnUse">
<stop stop-color="#B7281D"/>
<stop offset="1" stop-color="#FA3823"/>
</linearGradient>
<linearGradient id="paint15_linear_1_1253" x1="121.455" y1="379.248" x2="188.255" y2="376.197" gradientUnits="userSpaceOnUse">
<stop stop-color="#E13221"/>
<stop offset="1" stop-color="#FF8073"/>
</linearGradient>
<linearGradient id="paint16_linear_1_1253" x1="47.4422" y1="391.41" x2="126.33" y2="391.41" gradientUnits="userSpaceOnUse">
<stop stop-color="#B7281D"/>
<stop offset="1" stop-color="#FA3823"/>
</linearGradient>
<linearGradient id="paint17_linear_1_1253" x1="53.3121" y1="390.805" x2="114.285" y2="388.02" gradientUnits="userSpaceOnUse">
<stop stop-color="#E13221"/>
<stop offset="1" stop-color="#FF8073"/>
</linearGradient>
<linearGradient id="paint18_linear_1_1253" x1="103.879" y1="404.502" x2="146.085" y2="424.515" gradientUnits="userSpaceOnUse">
<stop stop-color="#B7281D"/>
<stop offset="1" stop-color="#FA3823"/>
</linearGradient>
<linearGradient id="paint19_linear_1_1253" x1="113.474" y1="413.774" x2="133.219" y2="412.872" gradientUnits="userSpaceOnUse">
<stop stop-color="#E13221"/>
<stop offset="1" stop-color="#FF8073"/>
</linearGradient>
<linearGradient id="paint20_linear_1_1253" x1="149.054" y1="417.907" x2="163.646" y2="397.874" gradientUnits="userSpaceOnUse">
<stop stop-color="#B7281D"/>
<stop offset="1" stop-color="#FA3823"/>
</linearGradient>
<linearGradient id="paint21_linear_1_1253" x1="120.903" y1="410.08" x2="177.734" y2="407.484" gradientUnits="userSpaceOnUse">
<stop stop-color="#E13221"/>
<stop offset="1" stop-color="#FF8073"/>
</linearGradient>
<linearGradient id="paint22_linear_1_1253" x1="117.03" y1="392.062" x2="114.309" y2="309.951" gradientUnits="userSpaceOnUse">
<stop stop-color="#B7281D"/>
<stop offset="1" stop-color="#FA3823"/>
</linearGradient>
<linearGradient id="paint23_linear_1_1253" x1="104.821" y1="352.228" x2="130.993" y2="351.033" gradientUnits="userSpaceOnUse">
<stop stop-color="#E13221"/>
<stop offset="1" stop-color="#FF8073"/>
</linearGradient>
<clipPath id="clip0_1_1253">
<rect width="765" height="531.25" fill="white"/>
</clipPath>
</defs>
</svg>
