<svg width="28" height="28" viewBox="0 0 28 28" fill="none" xmlns="http://www.w3.org/2000/svg">
<path d="M4.10156 26.7969C4.55461 26.7969 4.92188 26.4296 4.92188 25.9766C4.92188 25.5235 4.55461 25.1562 4.10156 25.1562C3.64852 25.1562 3.28125 25.5235 3.28125 25.9766C3.28125 26.4296 3.64852 26.7969 4.10156 26.7969Z" fill="#0BCEB2"/>
<path d="M23.2422 2.73438C23.6952 2.73438 24.0625 2.36711 24.0625 1.91406C24.0625 1.46102 23.6952 1.09375 23.2422 1.09375C22.7891 1.09375 22.4219 1.46102 22.4219 1.91406C22.4219 2.36711 22.7891 2.73438 23.2422 2.73438Z" fill="#2D4356"/>
<path d="M26.25 4.375C26.552 4.375 26.7969 4.13016 26.7969 3.82812C26.7969 3.52609 26.552 3.28125 26.25 3.28125C25.948 3.28125 25.7031 3.52609 25.7031 3.82812C25.7031 4.13016 25.948 4.375 26.25 4.375Z" fill="#0BCEB2"/>
<path d="M1.64062 23.5156C1.94266 23.5156 2.1875 23.2708 2.1875 22.9688C2.1875 22.6667 1.94266 22.4219 1.64062 22.4219C1.33859 22.4219 1.09375 22.6667 1.09375 22.9688C1.09375 23.2708 1.33859 23.5156 1.64062 23.5156Z" fill="#2D4356"/>
<path d="M26.25 25.1562C26.552 25.1562 26.7969 24.9114 26.7969 24.6094C26.7969 24.3073 26.552 24.0625 26.25 24.0625C25.948 24.0625 25.7031 24.3073 25.7031 24.6094C25.7031 24.9114 25.948 25.1562 26.25 25.1562Z" fill="#2D4356"/>
<path d="M3.28125 2.73438C3.58328 2.73438 3.82812 2.48953 3.82812 2.1875C3.82812 1.88547 3.58328 1.64062 3.28125 1.64062C2.97922 1.64062 2.73438 1.88547 2.73438 2.1875C2.73438 2.48953 2.97922 2.73438 3.28125 2.73438Z" fill="#0BCEB2"/>
<path d="M14.2188 16.4062C13.0126 16.4062 12.0312 15.4249 12.0312 14.2188V8.75C12.0312 7.54381 13.0126 6.5625 14.2188 6.5625C15.4249 6.5625 16.4062 7.54381 16.4062 8.75V14.2188C16.4062 15.4249 15.4249 16.4062 14.2188 16.4062ZM14.2188 7.65625C13.6157 7.65625 13.125 8.14691 13.125 8.75V14.2188C13.125 14.8218 13.6157 15.3125 14.2188 15.3125C14.8218 15.3125 15.3125 14.8218 15.3125 14.2188V8.75C15.3125 8.14691 14.8218 7.65625 14.2188 7.65625Z" fill="#0BCEB2"/>
<path d="M14.2188 21.875C13.0126 21.875 12.0312 20.8937 12.0312 19.6875C12.0312 18.4813 13.0126 17.5 14.2188 17.5C15.4249 17.5 16.4062 18.4813 16.4062 19.6875C16.4062 20.8937 15.4249 21.875 14.2188 21.875ZM14.2188 18.5938C13.6157 18.5938 13.125 19.0844 13.125 19.6875C13.125 20.2906 13.6157 20.7812 14.2188 20.7812C14.8218 20.7812 15.3125 20.2906 15.3125 19.6875C15.3125 19.0844 14.8218 18.5938 14.2188 18.5938Z" fill="#0BCEB2"/>
<path d="M14.2188 24.6094C8.48936 24.6094 3.82812 19.9482 3.82812 14.2188C3.82812 8.48936 8.48936 3.82812 14.2188 3.82812C19.9482 3.82812 24.6094 8.48936 24.6094 14.2188C24.6094 19.9482 19.9482 24.6094 14.2188 24.6094ZM14.2188 4.92188C9.09245 4.92188 4.92188 9.09245 4.92188 14.2188C4.92188 19.345 9.09245 23.5156 14.2188 23.5156C19.345 23.5156 23.5156 19.345 23.5156 14.2188C23.5156 9.09245 19.345 4.92188 14.2188 4.92188Z" fill="#2D4356"/>
<path d="M14.2188 27.3438C10.713 27.3438 7.41699 25.9785 4.93795 23.4995C2.45891 21.0206 1.09375 17.7245 1.09375 14.2188C1.09375 10.713 2.45897 7.41699 4.93795 4.93795C7.41694 2.45891 10.713 1.09375 14.2188 1.09375C17.7245 1.09375 21.0206 2.45897 23.4995 4.93795C25.9785 7.41694 27.3438 10.713 27.3438 14.2188C27.3438 17.7245 25.9785 21.0206 23.4995 23.4995C21.0206 25.9785 17.7245 27.3438 14.2188 27.3438ZM14.2188 2.1875C7.58466 2.1875 2.1875 7.58466 2.1875 14.2188C2.1875 20.8528 7.58466 26.25 14.2188 26.25C20.8528 26.25 26.25 20.8528 26.25 14.2188C26.25 7.58466 20.8528 2.1875 14.2188 2.1875Z" fill="#2D4356"/>
</svg>
