<svg width="224" height="31" viewBox="0 0 224 31" fill="none" xmlns="http://www.w3.org/2000/svg">
<path d="M109.191 27.9852L111.504 21.8604C111.614 21.6119 111.778 21.389 111.986 21.2051C112.194 21.0212 112.442 20.8801 112.715 20.7902C112.973 20.6909 113.255 20.6454 113.54 20.657C113.825 20.6686 114.107 20.7369 114.367 20.8574C114.642 20.964 114.894 21.1199 115.108 21.316C115.322 21.512 115.493 21.744 115.611 21.9984C115.73 22.2527 115.793 22.5241 115.797 22.7964C115.801 23.0686 115.747 23.3362 115.636 23.5833L114.315 26.5812C113.906 27.4888 113.15 28.2123 112.186 28.6183C112.125 28.6477 110.691 28.8759 110.616 28.9492C110.077 29.1314 110.824 28.9975 110.241 28.9695C109.657 28.9415 109.729 28.2191 109.191 27.9852Z" fill="url(#paint0_linear_1104_33235)"/>
<path d="M109.191 27.9852L111.504 21.8604C111.614 21.6119 111.778 21.389 111.986 21.2051C112.194 21.0212 112.442 20.8801 112.715 20.7902C112.973 20.6909 113.255 20.6454 113.54 20.657C113.825 20.6686 114.107 20.7369 114.367 20.8574C114.642 20.964 114.894 21.1199 115.108 21.316C115.322 21.512 115.493 21.744 115.611 21.9984C115.73 22.2527 115.793 22.5241 115.797 22.7964C115.801 23.0686 115.747 23.3362 115.636 23.5833L114.315 26.5812C113.906 27.4888 113.15 28.2123 112.186 28.6183C112.125 28.6477 110.691 28.8759 110.616 28.9492C110.077 29.1314 110.824 28.9975 110.241 28.9695C109.657 28.9415 109.729 28.2191 109.191 27.9852Z" fill="url(#paint1_linear_1104_33235)"/>
<path d="M135.907 9.81429V3.44901C135.907 3.19187 135.696 3 135.414 3H131.316C128.49 3 127.062 4.28571 126.512 6.34286L125.592 9.81429H124.816C124.533 9.81429 124.32 10.0062 124.32 10.2633V11.549C124.32 11.8062 124.533 12 124.816 12H136.827C137.109 12 137.32 11.8062 137.32 11.549V10.2633C137.32 10.0062 137.109 9.81429 136.827 9.81429H135.907ZM132.799 9.81429H128.772L129.69 6.34286C129.875 5.63472 130.396 5.18571 131.316 5.18571H132.799V9.81429Z" fill="#1C1C1E"/>
<path d="M142.82 10.7692C141.345 10.7692 140.406 9.82328 140.406 8C140.406 6.17464 141.345 5.22869 142.82 5.22869C144.296 5.22869 145.235 6.17464 145.235 8C145.235 9.82328 144.296 10.7692 142.82 10.7692ZM142.82 3C139.266 3 137.32 4.95842 137.32 8C137.32 11.0395 139.266 13 142.82 13C146.376 13 148.32 11.0395 148.32 8C148.32 4.95842 146.376 3 142.82 3Z" fill="#1C1C1E"/>
<path d="M157.138 7.24286C157.138 7.24286 158.02 6.98571 158.742 5.7L160.013 3.44901C160.12 3.25714 160.013 3 159.678 3H157.607C157.072 3 156.885 3.19187 156.737 3.44901L155.468 5.7C155.254 6.08571 154.999 6.34286 154.265 6.34286H153.261V3.44901C153.261 3.19187 153.062 3 152.794 3H150.789C150.522 3 150.32 3.19187 150.32 3.44901V11.549C150.32 11.8062 150.522 12 150.789 12H152.794C153.062 12 153.261 11.8062 153.261 11.549V8.52857H154.464C155.201 8.52857 155.454 8.78571 155.667 9.17143L157.004 11.549C157.152 11.8062 157.339 12 157.874 12H159.945C160.28 12 160.387 11.7429 160.28 11.549L158.944 9.17143C158.074 7.62857 157.138 7.37143 157.138 7.37143V7.24286Z" fill="#1C1C1E"/>
<path d="M171.32 3.44901C171.32 3.19187 171.11 3 170.828 3H161.814C161.533 3 161.32 3.19187 161.32 3.44901V4.73473C161.32 4.99187 161.533 5.18571 161.814 5.18571H164.772V11.549C164.772 11.8062 164.982 12 165.264 12H167.377C167.658 12 167.871 11.8062 167.871 11.549V5.18571H170.828C171.11 5.18571 171.32 4.99187 171.32 4.73473V3.44901Z" fill="#1C1C1E"/>
<path d="M177.82 10.7692C176.345 10.7692 175.406 9.82328 175.406 8C175.406 6.17464 176.345 5.22869 177.82 5.22869C179.296 5.22869 180.235 6.17464 180.235 8C180.235 9.82328 179.296 10.7692 177.82 10.7692ZM177.82 3C174.266 3 172.32 4.95842 172.32 8C172.32 11.0395 174.266 13 177.82 13C181.376 13 183.32 11.0395 183.32 8C183.32 4.95842 181.376 3 177.82 3Z" fill="#1C1C1E"/>
<path d="M194.32 6.27758C194.32 4.41429 192.813 3 189.595 3H184.801C184.527 3 184.32 3.19187 184.32 3.44901V11.549C184.32 11.8062 184.527 12 184.801 12H186.856C187.13 12 187.334 11.8062 187.334 11.549V9.55714H189.595C192.813 9.55714 194.32 8.14286 194.32 6.27758ZM187.334 7.5V5.05714H189.595C190.622 5.05714 191.17 5.57143 191.17 6.27758C191.17 6.98571 190.622 7.5 189.595 7.5H187.334Z" fill="#1C1C1E"/>
<path d="M101.985 28.9772H102.11C102.11 28.9772 105.167 24.3234 107.027 18.8744C108.368 14.9474 110.32 4.97269 110.32 4.97269C110.15 4.76599 109.962 4.5743 109.761 4.39964C109.191 3.89912 108.527 3.52247 107.811 3.2926C107.095 3.06273 106.245 2.94601 105.498 3.02408C105.498 3.02408 105.102 10.8116 103.204 16.3306C101.87 20.2102 97.3203 27.1307 97.3203 27.1307C97.9078 27.7838 98.6339 28.2899 99.4428 28.6101C100.252 28.9302 101.122 29.0559 101.985 28.9772Z" fill="url(#paint2_linear_1104_33235)"/>
<path d="M101.985 28.9772H102.11C102.11 28.9772 105.167 24.3234 107.027 18.8744C108.368 14.9474 110.32 4.97269 110.32 4.97269C110.15 4.76599 109.962 4.5743 109.761 4.39964C109.191 3.89912 108.527 3.52247 107.811 3.2926C107.095 3.06273 106.245 2.94601 105.498 3.02408C105.498 3.02408 105.102 10.8116 103.204 16.3306C101.87 20.2102 97.3203 27.1307 97.3203 27.1307C97.9078 27.7838 98.6339 28.2899 99.4428 28.6101C100.252 28.9302 101.122 29.0559 101.985 28.9772Z" fill="url(#paint3_linear_1104_33235)"/>
<g filter="url(#filter0_d_1104_33235)">
<path d="M110.898 28.9722C111.255 28.9328 111.601 28.8208 111.915 28.6426C112.23 28.4644 112.507 28.2237 112.73 27.9343C112.954 27.6448 113.12 27.3126 113.217 26.9567C113.315 26.6009 113.344 26.2285 113.301 25.8613L111.391 8.08469C111.26 6.84768 110.741 5.68851 109.912 4.78332L109.419 4.27542C108.853 3.80683 108.202 3.45889 107.504 3.25181C106.805 3.04473 106.042 2.94474 105.32 3.03125L107.879 26.4962C107.965 27.2356 108.317 27.915 108.865 28.4008C109.148 28.6343 109.474 28.8055 109.824 28.9038C110.174 29.0021 110.539 29.0254 110.898 28.9722Z" fill="url(#paint4_linear_1104_33235)"/>
<path d="M110.898 28.9722C111.255 28.9328 111.601 28.8208 111.915 28.6426C112.23 28.4644 112.507 28.2237 112.73 27.9343C112.954 27.6448 113.12 27.3126 113.217 26.9567C113.315 26.6009 113.344 26.2285 113.301 25.8613L111.391 8.08469C111.26 6.84768 110.741 5.68851 109.912 4.78332L109.419 4.27542C108.853 3.80683 108.202 3.45889 107.504 3.25181C106.805 3.04473 106.042 2.94474 105.32 3.03125L107.879 26.4962C107.965 27.2356 108.317 27.915 108.865 28.4008C109.148 28.6343 109.474 28.8055 109.824 28.9038C110.174 29.0021 110.539 29.0254 110.898 28.9722Z" fill="url(#paint5_radial_1104_33235)"/>
<path d="M110.898 28.9722C111.255 28.9328 111.601 28.8208 111.915 28.6426C112.23 28.4644 112.507 28.2237 112.73 27.9343C112.954 27.6448 113.12 27.3126 113.217 26.9567C113.315 26.6009 113.344 26.2285 113.301 25.8613L111.391 8.08469C111.26 6.84768 110.741 5.68851 109.912 4.78332L109.419 4.27542C108.853 3.80683 108.202 3.45889 107.504 3.25181C106.805 3.04473 106.042 2.94474 105.32 3.03125L107.879 26.4962C107.965 27.2356 108.317 27.915 108.865 28.4008C109.148 28.6343 109.474 28.8055 109.824 28.9038C110.174 29.0021 110.539 29.0254 110.898 28.9722Z" fill="url(#paint6_linear_1104_33235)"/>
<path d="M110.898 28.9722C111.255 28.9328 111.601 28.8208 111.915 28.6426C112.23 28.4644 112.507 28.2237 112.73 27.9343C112.954 27.6448 113.12 27.3126 113.217 26.9567C113.315 26.6009 113.344 26.2285 113.301 25.8613L111.391 8.08469C111.26 6.84768 110.741 5.68851 109.912 4.78332L109.419 4.27542C108.853 3.80683 108.202 3.45889 107.504 3.25181C106.805 3.04473 106.042 2.94474 105.32 3.03125L107.879 26.4962C107.965 27.2356 108.317 27.915 108.865 28.4008C109.148 28.6343 109.474 28.8055 109.824 28.9038C110.174 29.0021 110.539 29.0254 110.898 28.9722Z" fill="url(#paint7_linear_1104_33235)"/>
<path d="M110.898 28.9722C111.255 28.9328 111.601 28.8208 111.915 28.6426C112.23 28.4644 112.507 28.2237 112.73 27.9343C112.954 27.6448 113.12 27.3126 113.217 26.9567C113.315 26.6009 113.344 26.2285 113.301 25.8613L111.391 8.08469C111.26 6.84768 110.741 5.68851 109.912 4.78332L109.419 4.27542C108.853 3.80683 108.202 3.45889 107.504 3.25181C106.805 3.04473 106.042 2.94474 105.32 3.03125L107.879 26.4962C107.965 27.2356 108.317 27.915 108.865 28.4008C109.148 28.6343 109.474 28.8055 109.824 28.9038C110.174 29.0021 110.539 29.0254 110.898 28.9722Z" fill="url(#paint8_linear_1104_33235)"/>
<path d="M110.898 28.9722C111.255 28.9328 111.601 28.8208 111.915 28.6426C112.23 28.4644 112.507 28.2237 112.73 27.9343C112.954 27.6448 113.12 27.3126 113.217 26.9567C113.315 26.6009 113.344 26.2285 113.301 25.8613L111.391 8.08469C111.26 6.84768 110.741 5.68851 109.912 4.78332L109.419 4.27542C108.853 3.80683 108.202 3.45889 107.504 3.25181C106.805 3.04473 106.042 2.94474 105.32 3.03125L107.879 26.4962C107.965 27.2356 108.317 27.915 108.865 28.4008C109.148 28.6343 109.474 28.8055 109.824 28.9038C110.174 29.0021 110.539 29.0254 110.898 28.9722Z" fill="url(#paint9_linear_1104_33235)"/>
</g>
<path d="M89.0087 27.9609C89.0087 27.9609 92.4195 24.8537 94.5822 21.0645C96.0566 18.4813 98.3203 11.6425 98.3203 11.6425L97.9947 11.3335C97.4168 10.8395 96.7345 10.4683 95.9934 10.2444C95.2523 10.0206 94.4694 9.94934 93.6971 10.0354L93.5668 10.1591C93.5668 10.1591 92.1379 16.1463 89.9796 19.9247C88.5149 22.4887 84.3203 26.4156 84.3203 26.4156L84.6459 26.6629C85.2337 27.1617 85.9271 27.5356 86.6795 27.7595C87.4319 27.9834 88.226 28.052 89.0087 27.9609Z" fill="url(#paint10_linear_1104_33235)"/>
<path d="M89.0087 27.9609C89.0087 27.9609 92.4195 24.8537 94.5822 21.0645C96.0566 18.4813 98.3203 11.6425 98.3203 11.6425L97.9947 11.3335C97.4168 10.8395 96.7345 10.4683 95.9934 10.2444C95.2523 10.0206 94.4694 9.94934 93.6971 10.0354L93.5668 10.1591C93.5668 10.1591 92.1379 16.1463 89.9796 19.9247C88.5149 22.4887 84.3203 26.4156 84.3203 26.4156L84.6459 26.6629C85.2337 27.1617 85.9271 27.5356 86.6795 27.7595C87.4319 27.9834 88.226 28.052 89.0087 27.9609Z" fill="url(#paint11_linear_1104_33235)"/>
<g filter="url(#filter1_d_1104_33235)">
<path d="M89.3203 28.967L88.3138 21.7835C88.2765 21.5175 88.173 21.2603 88.0097 21.0274C87.8464 20.7945 87.6265 20.5907 87.3632 20.4281C87.1185 20.2606 86.8321 20.1377 86.5233 20.0675C86.2146 19.9973 85.8908 19.9816 85.5739 20.0215C85.2451 20.0439 84.9252 20.1195 84.6333 20.2438C84.3414 20.3682 84.0834 20.5387 83.8747 20.7452C83.666 20.9518 83.5109 21.1902 83.4186 21.4461C83.3263 21.7021 83.2986 21.9705 83.3373 22.2353L83.7846 25.443C83.9298 26.4168 84.5057 27.3153 85.4062 27.973C85.4621 28.0182 85.5739 28.0634 85.6298 28.1538C86.1482 28.4793 86.7411 28.7187 87.3745 28.8583C88.0079 28.9979 88.6692 29.0348 89.3203 28.967Z" fill="url(#paint12_linear_1104_33235)"/>
<path d="M89.3203 28.967L88.3138 21.7835C88.2765 21.5175 88.173 21.2603 88.0097 21.0274C87.8464 20.7945 87.6265 20.5907 87.3632 20.4281C87.1185 20.2606 86.8321 20.1377 86.5233 20.0675C86.2146 19.9973 85.8908 19.9816 85.5739 20.0215C85.2451 20.0439 84.9252 20.1195 84.6333 20.2438C84.3414 20.3682 84.0834 20.5387 83.8747 20.7452C83.666 20.9518 83.5109 21.1902 83.4186 21.4461C83.3263 21.7021 83.2986 21.9705 83.3373 22.2353L83.7846 25.443C83.9298 26.4168 84.5057 27.3153 85.4062 27.973C85.4621 28.0182 85.5739 28.0634 85.6298 28.1538C86.1482 28.4793 86.7411 28.7187 87.3745 28.8583C88.0079 28.9979 88.6692 29.0348 89.3203 28.967Z" fill="url(#paint13_linear_1104_33235)"/>
<path d="M89.3203 28.967L88.3138 21.7835C88.2765 21.5175 88.173 21.2603 88.0097 21.0274C87.8464 20.7945 87.6265 20.5907 87.3632 20.4281C87.1185 20.2606 86.8321 20.1377 86.5233 20.0675C86.2146 19.9973 85.8908 19.9816 85.5739 20.0215C85.2451 20.0439 84.9252 20.1195 84.6333 20.2438C84.3414 20.3682 84.0834 20.5387 83.8747 20.7452C83.666 20.9518 83.5109 21.1902 83.4186 21.4461C83.3263 21.7021 83.2986 21.9705 83.3373 22.2353L83.7846 25.443C83.9298 26.4168 84.5057 27.3153 85.4062 27.973C85.4621 28.0182 85.5739 28.0634 85.6298 28.1538C86.1482 28.4793 86.7411 28.7187 87.3745 28.8583C88.0079 28.9979 88.6692 29.0348 89.3203 28.967Z" fill="url(#paint14_radial_1104_33235)"/>
<path d="M89.3203 28.967L88.3138 21.7835C88.2765 21.5175 88.173 21.2603 88.0097 21.0274C87.8464 20.7945 87.6265 20.5907 87.3632 20.4281C87.1185 20.2606 86.8321 20.1377 86.5233 20.0675C86.2146 19.9973 85.8908 19.9816 85.5739 20.0215C85.2451 20.0439 84.9252 20.1195 84.6333 20.2438C84.3414 20.3682 84.0834 20.5387 83.8747 20.7452C83.666 20.9518 83.5109 21.1902 83.4186 21.4461C83.3263 21.7021 83.2986 21.9705 83.3373 22.2353L83.7846 25.443C83.9298 26.4168 84.5057 27.3153 85.4062 27.973C85.4621 28.0182 85.5739 28.0634 85.6298 28.1538C86.1482 28.4793 86.7411 28.7187 87.3745 28.8583C88.0079 28.9979 88.6692 29.0348 89.3203 28.967Z" fill="url(#paint15_linear_1104_33235)"/>
<path d="M89.3203 28.967L88.3138 21.7835C88.2765 21.5175 88.173 21.2603 88.0097 21.0274C87.8464 20.7945 87.6265 20.5907 87.3632 20.4281C87.1185 20.2606 86.8321 20.1377 86.5233 20.0675C86.2146 19.9973 85.8908 19.9816 85.5739 20.0215C85.2451 20.0439 84.9252 20.1195 84.6333 20.2438C84.3414 20.3682 84.0834 20.5387 83.8747 20.7452C83.666 20.9518 83.5109 21.1902 83.4186 21.4461C83.3263 21.7021 83.2986 21.9705 83.3373 22.2353L83.7846 25.443C83.9298 26.4168 84.5057 27.3153 85.4062 27.973C85.4621 28.0182 85.5739 28.0634 85.6298 28.1538C86.1482 28.4793 86.7411 28.7187 87.3745 28.8583C88.0079 28.9979 88.6692 29.0348 89.3203 28.967Z" fill="url(#paint16_linear_1104_33235)"/>
<path d="M89.3203 28.967L88.3138 21.7835C88.2765 21.5175 88.173 21.2603 88.0097 21.0274C87.8464 20.7945 87.6265 20.5907 87.3632 20.4281C87.1185 20.2606 86.8321 20.1377 86.5233 20.0675C86.2146 19.9973 85.8908 19.9816 85.5739 20.0215C85.2451 20.0439 84.9252 20.1195 84.6333 20.2438C84.3414 20.3682 84.0834 20.5387 83.8747 20.7452C83.666 20.9518 83.5109 21.1902 83.4186 21.4461C83.3263 21.7021 83.2986 21.9705 83.3373 22.2353L83.7846 25.443C83.9298 26.4168 84.5057 27.3153 85.4062 27.973C85.4621 28.0182 85.5739 28.0634 85.6298 28.1538C86.1482 28.4793 86.7411 28.7187 87.3745 28.8583C88.0079 28.9979 88.6692 29.0348 89.3203 28.967Z" fill="url(#paint17_linear_1104_33235)"/>
<path d="M89.3203 28.967L88.3138 21.7835C88.2765 21.5175 88.173 21.2603 88.0097 21.0274C87.8464 20.7945 87.6265 20.5907 87.3632 20.4281C87.1185 20.2606 86.8321 20.1377 86.5233 20.0675C86.2146 19.9973 85.8908 19.9816 85.5739 20.0215C85.2451 20.0439 84.9252 20.1195 84.6333 20.2438C84.3414 20.3682 84.0834 20.5387 83.8747 20.7452C83.666 20.9518 83.5109 21.1902 83.4186 21.4461C83.3263 21.7021 83.2986 21.9705 83.3373 22.2353L83.7846 25.443C83.9298 26.4168 84.5057 27.3153 85.4062 27.973C85.4621 28.0182 85.5739 28.0634 85.6298 28.1538C86.1482 28.4793 86.7411 28.7187 87.3745 28.8583C88.0079 28.9979 88.6692 29.0348 89.3203 28.967Z" fill="url(#paint18_linear_1104_33235)"/>
<path d="M89.3203 28.967L88.3138 21.7835C88.2765 21.5175 88.173 21.2603 88.0097 21.0274C87.8464 20.7945 87.6265 20.5907 87.3632 20.4281C87.1185 20.2606 86.8321 20.1377 86.5233 20.0675C86.2146 19.9973 85.8908 19.9816 85.5739 20.0215C85.2451 20.0439 84.9252 20.1195 84.6333 20.2438C84.3414 20.3682 84.0834 20.5387 83.8747 20.7452C83.666 20.9518 83.5109 21.1902 83.4186 21.4461C83.3263 21.7021 83.2986 21.9705 83.3373 22.2353L83.7846 25.443C83.9298 26.4168 84.5057 27.3153 85.4062 27.973C85.4621 28.0182 85.5739 28.0634 85.6298 28.1538C86.1482 28.4793 86.7411 28.7187 87.3745 28.8583C88.0079 28.9979 88.6692 29.0348 89.3203 28.967Z" fill="url(#paint19_linear_1104_33235)"/>
</g>
<g filter="url(#filter2_d_1104_33235)">
<path d="M101.32 28.9409L99.7465 14.9664C99.5548 13.6422 98.9059 12.4248 97.9105 11.5215C97.8329 11.4016 97.7177 11.3102 97.5826 11.2615C96.3984 10.3257 94.8935 9.88287 93.3859 10.0266H93.3203L94.8285 24.066C95.0041 25.2972 95.5796 26.438 96.4679 27.3159C97.0899 27.9472 97.8538 28.4235 98.6972 28.706C99.5406 28.9884 100.44 29.0689 101.32 28.9409Z" fill="url(#paint20_linear_1104_33235)"/>
<path d="M101.32 28.9409L99.7465 14.9664C99.5548 13.6422 98.9059 12.4248 97.9105 11.5215C97.8329 11.4016 97.7177 11.3102 97.5826 11.2615C96.3984 10.3257 94.8935 9.88287 93.3859 10.0266H93.3203L94.8285 24.066C95.0041 25.2972 95.5796 26.438 96.4679 27.3159C97.0899 27.9472 97.8538 28.4235 98.6972 28.706C99.5406 28.9884 100.44 29.0689 101.32 28.9409Z" fill="url(#paint21_linear_1104_33235)"/>
<path d="M101.32 28.9409L99.7465 14.9664C99.5548 13.6422 98.9059 12.4248 97.9105 11.5215C97.8329 11.4016 97.7177 11.3102 97.5826 11.2615C96.3984 10.3257 94.8935 9.88287 93.3859 10.0266H93.3203L94.8285 24.066C95.0041 25.2972 95.5796 26.438 96.4679 27.3159C97.0899 27.9472 97.8538 28.4235 98.6972 28.706C99.5406 28.9884 100.44 29.0689 101.32 28.9409Z" fill="url(#paint22_linear_1104_33235)"/>
</g>
<path d="M130.082 29C130.457 29 130.695 28.7429 130.77 28.549L132.445 24.3062H132.57V28.549C132.57 28.8062 132.757 29 133.007 29H134.882C135.132 29 135.32 28.8062 135.32 28.549V20.449C135.32 20.1919 135.132 20 134.882 20H132.257C131.882 20 131.645 20.2571 131.57 20.449L129.382 25.9143H129.257L127.07 20.449C126.995 20.2571 126.757 20 126.382 20H123.757C123.507 20 123.32 20.1919 123.32 20.449V28.549C123.32 28.8062 123.507 29 123.757 29H125.632C125.882 29 126.07 28.8062 126.07 28.549V24.3062H126.195L127.882 28.549C127.957 28.7429 128.195 29 128.57 29H130.082Z" fill="#1496DF"/>
<path d="M145.216 28.549C145.319 28.8062 145.537 29 145.793 29H147.966C148.221 29 148.4 28.8062 148.284 28.549L144.705 20.4371C144.591 20.18 144.387 20 144.131 20H141.51C141.254 20 141.049 20.1919 140.935 20.449L137.356 28.549C137.24 28.8062 137.419 29 137.675 29H139.72C139.976 29 140.194 28.8062 140.296 28.549L140.743 27.3919H144.77L145.216 28.549ZM142.725 22.7H142.853L143.875 25.2714H141.637L142.725 22.7Z" fill="#1496DF"/>
<path d="M159.32 23.2776C159.32 21.4143 157.813 20 154.593 20H149.799C149.525 20 149.32 20.1919 149.32 20.449V28.549C149.32 28.8062 149.525 29 149.799 29H151.854C152.127 29 152.334 28.8062 152.334 28.549V26.5571H154.593C157.813 26.5571 159.32 25.1429 159.32 23.2776ZM152.334 24.5V22.0571H154.593C155.622 22.0571 156.17 22.5714 156.17 23.2776C156.17 23.9857 155.622 24.5 154.593 24.5H152.334Z" fill="#1496DF"/>
<path d="M167.139 24.2429C167.139 24.2429 168.022 23.9857 168.744 22.7L170.013 20.449C170.12 20.2571 170.013 20 169.68 20H167.606C167.071 20 166.884 20.1919 166.738 20.449L165.467 22.7C165.253 23.0857 165 23.3429 164.264 23.3429H163.262V20.449C163.262 20.1919 163.06 20 162.793 20H160.787C160.52 20 160.32 20.1919 160.32 20.449V28.549C160.32 28.8062 160.52 29 160.787 29H162.793C163.06 29 163.262 28.8062 163.262 28.549V25.5286H164.465C165.2 25.5286 165.455 25.7857 165.669 26.1714L167.006 28.549C167.152 28.8062 167.339 29 167.874 29H169.947C170.28 29 170.387 28.7429 170.28 28.549L168.943 26.1714C168.075 24.6286 167.139 24.3714 167.139 24.3714V24.2429Z" fill="#1496DF"/>
<path d="M180.32 20.449C180.32 20.1919 180.121 20 179.856 20H171.783C171.518 20 171.32 20.1919 171.32 20.449V28.549C171.32 28.8062 171.518 29 171.783 29H179.856C180.121 29 180.32 28.8062 180.32 28.549V27.2633C180.32 27.0062 180.121 26.8143 179.856 26.8143H174.232V25.5286H178.4C178.665 25.5286 178.864 25.3347 178.864 25.0776V23.7919C178.864 23.5347 178.665 23.3429 178.4 23.3429H174.232V22.1857H179.856C180.121 22.1857 180.32 21.9919 180.32 21.7347V20.449Z" fill="#1496DF"/>
<path d="M191 20.449C191 20.1919 190.809 20 190.555 20H182.443C182.189 20 182 20.1919 182 20.449V21.7347C182 21.9919 182.189 22.1857 182.443 22.1857H185.105V28.549C185.105 28.8062 185.296 29 185.549 29H187.451C187.704 29 187.893 28.8062 187.893 28.549V22.1857H190.555C190.809 22.1857 191 21.9919 191 21.7347V20.449Z" fill="#1496DF"/>
<path d="M200.027 23.8571V28.549C200.027 28.8062 200.229 29 200.499 29H202.526C202.796 29 203 28.8062 203 28.549V20.449C203 20.1919 202.796 20 202.526 20H200.229C199.892 20 199.622 20.2571 199.486 20.449L196.108 25.1429H195.973V20.449C195.973 20.1919 195.769 20 195.499 20H193.472C193.202 20 193 20.1919 193 20.449V28.549C193 28.8062 193.202 29 193.472 29H195.769C196.108 29 196.378 28.7429 196.514 28.549L199.892 23.8571H200.027Z" fill="#1496DF"/>
<path d="M214 20.449C214 20.1919 213.793 20 213.519 20H211.465C211.191 20 210.986 20.1919 210.986 20.449V23.4714H207.014V20.449C207.014 20.1919 206.807 20 206.533 20H204.478C204.204 20 204 20.1919 204 20.449V28.549C204 28.8062 204.204 29 204.478 29H206.533C206.807 29 207.014 28.8062 207.014 28.549V25.6571H210.986V28.549C210.986 28.8062 211.191 29 211.465 29H213.519C213.793 29 214 28.8062 214 28.549V20.449Z" fill="#1496DF"/>
<path d="M224 20.449C224 20.1919 223.809 20 223.555 20H216.443C216.189 20 216 20.1919 216 20.449V28.549C216 28.8062 216.189 29 216.443 29H218.348C218.602 29 218.794 28.8062 218.794 28.549V22.1857H223.555C223.809 22.1857 224 21.9919 224 21.7347V20.449Z" fill="#1496DF"/>
<path d="M4.00054 14.5013V6.06999H4.83025L4.91566 6.75328H4.95227C5.2207 6.52552 5.51354 6.33029 5.83079 6.1676C6.15616 6.00492 6.49374 5.92357 6.84352 5.92357C7.60816 5.92357 8.18977 6.20014 8.58836 6.75328C8.98695 7.29829 9.18624 8.03039 9.18624 8.94958C9.18624 9.61661 9.06423 10.1901 8.82019 10.67C8.5843 11.15 8.27112 11.516 7.88067 11.7682C7.49835 12.0203 7.07942 12.1464 6.62389 12.1464C6.34732 12.1464 6.07075 12.0854 5.79418 11.9634C5.52574 11.8414 5.25324 11.6746 4.97667 11.4631L5.00107 12.5003V14.5013H4.00054ZM6.45307 11.3045C6.94114 11.3045 7.34379 11.0971 7.66104 10.6822C7.98641 10.2592 8.1491 9.68168 8.1491 8.94958C8.1491 8.29883 8.02709 7.77416 7.78305 7.37557C7.54715 6.96885 7.14857 6.76549 6.58729 6.76549C6.33512 6.76549 6.07889 6.83463 5.81858 6.97291C5.56642 7.1112 5.29391 7.31049 5.00107 7.5708V10.6822C5.26951 10.91 5.52981 11.0727 5.78198 11.1703C6.03415 11.2598 6.25784 11.3045 6.45307 11.3045ZM12.3955 12.1464C11.8993 12.1464 11.4844 12 11.1509 11.7072C10.8255 11.4062 10.6628 10.9913 10.6628 10.4626C10.6628 9.81183 10.9516 9.31563 11.5292 8.97399C12.1148 8.62421 13.0381 8.38017 14.2989 8.24189C14.2989 7.98972 14.2623 7.74975 14.1891 7.52199C14.124 7.29422 14.002 7.1112 13.8231 6.97291C13.6522 6.82649 13.4041 6.75328 13.0788 6.75328C12.7371 6.75328 12.4158 6.81836 12.1148 6.94851C11.8139 7.07866 11.5454 7.22508 11.3095 7.38777L10.9191 6.69228C11.1956 6.51332 11.5332 6.34249 11.9318 6.17981C12.3385 6.00898 12.7778 5.92357 13.2496 5.92357C13.9736 5.92357 14.4982 6.14727 14.8236 6.59466C15.149 7.03392 15.3117 7.62367 15.3117 8.3639V12H14.482L14.3965 11.2923H14.3599C14.0834 11.5201 13.7783 11.7194 13.4448 11.8902C13.1194 12.061 12.7697 12.1464 12.3955 12.1464ZM12.6883 11.3411C12.973 11.3411 13.2415 11.272 13.4936 11.1337C13.7458 10.9954 14.0142 10.8002 14.2989 10.548V8.90078C13.3147 9.02279 12.6232 9.20582 12.2246 9.44985C11.8342 9.69389 11.639 10.0071 11.639 10.3894C11.639 10.7229 11.7406 10.9669 11.944 11.1215C12.1474 11.2679 12.3955 11.3411 12.6883 11.3411ZM19.3005 12.1464C18.8937 12.1464 18.5033 12.0935 18.1291 11.9878C17.7631 11.8739 17.4051 11.6746 17.0554 11.3899L17.4824 10.7432C17.759 10.971 18.0396 11.1296 18.3243 11.2191C18.6172 11.3004 18.9141 11.3411 19.2151 11.3411C19.6218 11.3411 19.9675 11.2476 20.2522 11.0605C20.545 10.8652 20.6915 10.6049 20.6915 10.2796C20.6915 9.94605 20.5572 9.69795 20.2888 9.53526C20.0285 9.36444 19.6584 9.27903 19.1785 9.27903H18.3609V8.55913H19.032C19.512 8.55913 19.8699 8.47779 20.1058 8.3151C20.3417 8.14427 20.4596 7.91244 20.4596 7.6196C20.4596 7.31863 20.3417 7.09493 20.1058 6.94851C19.878 6.79396 19.5852 6.71668 19.2273 6.71668C18.8856 6.71668 18.5887 6.76142 18.3365 6.8509C18.0925 6.94038 17.8525 7.07053 17.6166 7.24135L17.1896 6.58246C17.4743 6.3791 17.7875 6.22048 18.1291 6.1066C18.4708 5.98458 18.8531 5.92357 19.2761 5.92357C19.6665 5.92357 20.0244 5.98051 20.3498 6.09439C20.6752 6.20828 20.9355 6.38317 21.1307 6.61907C21.3341 6.85496 21.4358 7.15594 21.4358 7.52199C21.4358 7.80669 21.3503 8.067 21.1795 8.3029C21.0087 8.53879 20.7687 8.71775 20.4596 8.83977V8.88858C20.8013 8.97805 21.09 9.14074 21.3259 9.37664C21.57 9.60441 21.692 9.93385 21.692 10.365C21.692 10.731 21.5781 11.0483 21.3503 11.3167C21.1307 11.577 20.8379 11.7804 20.4718 11.9268C20.1139 12.0732 19.7235 12.1464 19.3005 12.1464ZM23.5961 14.5013V6.06999H24.4258L24.5112 6.75328H24.5479C24.8163 6.52552 25.1091 6.33029 25.4264 6.1676C25.7518 6.00492 26.0893 5.92357 26.4391 5.92357C27.2037 5.92357 27.7854 6.20014 28.1839 6.75328C28.5825 7.29829 28.7818 8.03039 28.7818 8.94958C28.7818 9.61661 28.6598 10.1901 28.4158 10.67C28.1799 11.15 27.8667 11.516 27.4763 11.7682C27.0939 12.0203 26.675 12.1464 26.2195 12.1464C25.9429 12.1464 25.6663 12.0854 25.3898 11.9634C25.1213 11.8414 24.8488 11.6746 24.5723 11.4631L24.5967 12.5003V14.5013H23.5961ZM26.0487 11.3045C26.5367 11.3045 26.9394 11.0971 27.2566 10.6822C27.582 10.2592 27.7447 9.68168 27.7447 8.94958C27.7447 8.29883 27.6227 7.77416 27.3786 7.37557C27.1427 6.96885 26.7442 6.76549 26.1829 6.76549C25.9307 6.76549 25.6745 6.83463 25.4142 6.97291C25.162 7.1112 24.8895 7.31049 24.5967 7.5708V10.6822C24.8651 10.91 25.1254 11.0727 25.3776 11.1703C25.6297 11.2598 25.8534 11.3045 26.0487 11.3045ZM31.9911 12.1464C31.4949 12.1464 31.08 12 30.7465 11.7072C30.4211 11.4062 30.2584 10.9913 30.2584 10.4626C30.2584 9.81183 30.5472 9.31563 31.1247 8.97399C31.7104 8.62421 32.6337 8.38017 33.8945 8.24189C33.8945 7.98972 33.8579 7.74975 33.7847 7.52199C33.7196 7.29422 33.5976 7.1112 33.4187 6.97291C33.2478 6.82649 32.9997 6.75328 32.6744 6.75328C32.3327 6.75328 32.0114 6.81836 31.7104 6.94851C31.4094 7.07866 31.141 7.22508 30.9051 7.38777L30.5147 6.69228C30.7912 6.51332 31.1288 6.34249 31.5274 6.17981C31.9341 6.00898 32.3734 5.92357 32.8452 5.92357C33.5691 5.92357 34.0938 6.14727 34.4192 6.59466C34.7446 7.03392 34.9073 7.62367 34.9073 8.3639V12H34.0775L33.9921 11.2923H33.9555C33.679 11.5201 33.3739 11.7194 33.0404 11.8902C32.715 12.061 32.3652 12.1464 31.9911 12.1464ZM32.2839 11.3411C32.5686 11.3411 32.837 11.272 33.0892 11.1337C33.3414 10.9954 33.6098 10.8002 33.8945 10.548V8.90078C32.9103 9.02279 32.2188 9.20582 31.8202 9.44985C31.4298 9.69389 31.2346 10.0071 31.2346 10.3894C31.2346 10.7229 31.3362 10.9669 31.5396 11.1215C31.743 11.2679 31.9911 11.3411 32.2839 11.3411ZM37.8101 8.59574C37.8101 9.45799 37.9647 10.1291 38.2738 10.609C38.5829 11.0808 39.0384 11.3167 39.6404 11.3167C40.0959 11.3167 40.4701 11.1093 40.7629 10.6944C41.0639 10.2714 41.2144 9.72642 41.2144 9.0594C41.2144 8.44932 41.0761 7.96532 40.7995 7.6074C40.5229 7.24135 40.1284 7.05833 39.616 7.05833C39.3313 7.05833 39.0343 7.1356 38.7252 7.29016C38.4161 7.44471 38.1111 7.72535 37.8101 8.13207C37.8101 8.20528 37.8101 8.28256 37.8101 8.3639C37.8101 8.43711 37.8101 8.51439 37.8101 8.59574ZM39.6404 12.1464C38.7537 12.1464 38.0663 11.821 37.5783 11.1703C37.0902 10.5195 36.8462 9.59627 36.8462 8.40051C36.8462 7.39997 36.9316 6.5906 37.1024 5.97238C37.2814 5.35416 37.5335 4.8783 37.8589 4.54478C38.1843 4.20314 38.5747 3.95097 39.0303 3.78828C39.4939 3.62559 40.0064 3.50357 40.5677 3.42223C40.9012 3.37342 41.1452 3.32868 41.2998 3.28801C41.4543 3.2392 41.6211 3.17413 41.8001 3.09279L41.9953 4.00791C41.8407 4.11366 41.6618 4.195 41.4584 4.25194C41.255 4.30075 41.0273 4.34549 40.7751 4.38616C40.3033 4.45937 39.8925 4.54072 39.5427 4.63019C39.193 4.71154 38.9001 4.84576 38.6642 5.03285C38.4365 5.21181 38.2575 5.48024 38.1274 5.83816C37.9972 6.18794 37.9077 6.66787 37.8589 7.27796C38.1192 6.95258 38.4243 6.70854 38.774 6.54586C39.132 6.37503 39.498 6.28962 39.8722 6.28962C40.5718 6.28962 41.1412 6.53365 41.5804 7.02172C42.0278 7.50979 42.2515 8.18901 42.2515 9.0594C42.2515 9.68575 42.1336 10.2308 41.8977 10.6944C41.6618 11.1581 41.3445 11.516 40.9459 11.7682C40.5555 12.0203 40.1203 12.1464 39.6404 12.1464ZM46.5702 12.1464C46.0903 12.1464 45.6388 12.0244 45.2159 11.7804C44.801 11.5363 44.4634 11.1825 44.2031 10.7188C43.9509 10.2552 43.8249 9.69795 43.8249 9.0472C43.8249 8.38017 43.9509 7.81483 44.2031 7.35117C44.4634 6.8875 44.801 6.53365 45.2159 6.28962C45.6388 6.04559 46.0903 5.92357 46.5702 5.92357C47.0583 5.92357 47.5098 6.04559 47.9246 6.28962C48.3395 6.53365 48.673 6.8875 48.9252 7.35117C49.1855 7.81483 49.3156 8.38017 49.3156 9.0472C49.3156 9.69795 49.1855 10.2552 48.9252 10.7188C48.673 11.1825 48.3395 11.5363 47.9246 11.7804C47.5098 12.0244 47.0583 12.1464 46.5702 12.1464ZM46.5702 11.3167C47.0827 11.3167 47.4935 11.1093 47.8026 10.6944C48.1198 10.2714 48.2785 9.72236 48.2785 9.0472C48.2785 8.3639 48.1198 7.81076 47.8026 7.38777C47.4935 6.96478 47.0827 6.75328 46.5702 6.75328C46.0659 6.75328 45.6551 6.96478 45.3379 7.38777C45.0206 7.81076 44.862 8.3639 44.862 9.0472C44.862 9.72236 45.0206 10.2714 45.3379 10.6944C45.6551 11.1093 46.0659 11.3167 46.5702 11.3167ZM52.4074 12V6.8875H50.4185V6.06999H55.3968V6.8875H53.4079V12H52.4074ZM58.2456 12.1464C57.7494 12.1464 57.3345 12 57.001 11.7072C56.6757 11.4062 56.513 10.9913 56.513 10.4626C56.513 9.81183 56.8017 9.31563 57.3793 8.97399C57.965 8.62421 58.8882 8.38017 60.1491 8.24189C60.1491 7.98972 60.1125 7.74975 60.0393 7.52199C59.9742 7.29422 59.8522 7.1112 59.6732 6.97291C59.5024 6.82649 59.2543 6.75328 58.9289 6.75328C58.5873 6.75328 58.2659 6.81836 57.965 6.94851C57.664 7.07866 57.3956 7.22508 57.1597 7.38777L56.7692 6.69228C57.0458 6.51332 57.3834 6.34249 57.7819 6.17981C58.1887 6.00898 58.6279 5.92357 59.0997 5.92357C59.8237 5.92357 60.3484 6.14727 60.6737 6.59466C60.9991 7.03392 61.1618 7.62367 61.1618 8.3639V12H60.3321L60.2467 11.2923H60.2101C59.9335 11.5201 59.6285 11.7194 59.2949 11.8902C58.9696 12.061 58.6198 12.1464 58.2456 12.1464ZM58.5384 11.3411C58.8232 11.3411 59.0916 11.272 59.3438 11.1337C59.5959 10.9954 59.8644 10.8002 60.1491 10.548V8.90078C59.1648 9.02279 58.4734 9.20582 58.0748 9.44985C57.6843 9.69389 57.4891 10.0071 57.4891 10.3894C57.4891 10.7229 57.5908 10.9669 57.7941 11.1215C57.9975 11.2679 58.2456 11.3411 58.5384 11.3411ZM63.4546 12V6.06999H64.4551V8.47372H67.3103V6.06999H68.3108V12H67.3103V9.36444H64.4551V12H63.4546ZM73.0393 12.1464C72.5593 12.1464 72.1079 12.0244 71.6849 11.7804C71.27 11.5363 70.9324 11.1825 70.6721 10.7188C70.42 10.2552 70.2939 9.69795 70.2939 9.0472C70.2939 8.38017 70.42 7.81483 70.6721 7.35117C70.9324 6.8875 71.27 6.53365 71.6849 6.28962C72.1079 6.04559 72.5593 5.92357 73.0393 5.92357C73.5273 5.92357 73.9788 6.04559 74.3936 6.28962C74.8085 6.53365 75.142 6.8875 75.3942 7.35117C75.6545 7.81483 75.7846 8.38017 75.7846 9.0472C75.7846 9.69795 75.6545 10.2552 75.3942 10.7188C75.142 11.1825 74.8085 11.5363 74.3936 11.7804C73.9788 12.0244 73.5273 12.1464 73.0393 12.1464ZM73.0393 11.3167C73.5517 11.3167 73.9625 11.1093 74.2716 10.6944C74.5889 10.2714 74.7475 9.72236 74.7475 9.0472C74.7475 8.3639 74.5889 7.81076 74.2716 7.38777C73.9625 6.96478 73.5517 6.75328 73.0393 6.75328C72.5349 6.75328 72.1241 6.96478 71.8069 7.38777C71.4897 7.81076 71.331 8.3639 71.331 9.0472C71.331 9.72236 71.4897 10.2714 71.8069 10.6944C72.1241 11.1093 72.5349 11.3167 73.0393 11.3167ZM6.34326 27.1464C5.82265 27.1464 5.35085 27.0244 4.92786 26.7804C4.50487 26.5363 4.17136 26.1825 3.92733 25.7188C3.68329 25.2552 3.56128 24.698 3.56128 24.0472C3.56128 23.3802 3.69143 22.8148 3.95173 22.3512C4.22017 21.8875 4.56995 21.5337 5.00107 21.2896C5.44033 21.0456 5.91213 20.9236 6.41647 20.9236C6.80692 20.9236 7.14043 20.9927 7.417 21.131C7.70171 21.2693 7.94574 21.432 8.1491 21.6191L7.63663 22.278C7.46581 22.1234 7.28278 21.9973 7.08756 21.8997C6.90047 21.8021 6.68897 21.7533 6.45307 21.7533C6.09516 21.7533 5.77385 21.8509 5.48914 22.0461C5.21257 22.2332 4.99294 22.5017 4.83025 22.8514C4.6757 23.1931 4.59842 23.5917 4.59842 24.0472C4.59842 24.7224 4.76517 25.2714 5.09869 25.6944C5.44033 26.1093 5.88366 26.3167 6.42867 26.3167C6.70524 26.3167 6.96147 26.2598 7.19737 26.1459C7.43327 26.0239 7.6407 25.8815 7.81966 25.7188L8.25892 26.3899C7.99048 26.6258 7.69357 26.8129 7.3682 26.9512C7.04282 27.0813 6.70117 27.1464 6.34326 27.1464ZM12.5203 27.1464C12.4146 27.1464 12.3211 27.1383 12.2397 27.122C12.1584 27.1057 12.073 27.0813 11.9835 27.0488L12.1787 26.1215C12.2194 26.1296 12.26 26.1418 12.3007 26.1581C12.3414 26.1662 12.3902 26.1703 12.4471 26.1703C12.6586 26.1703 12.8295 26.0727 12.9596 25.8774C13.0898 25.6741 13.1833 25.3528 13.2402 24.9135C13.3216 24.2709 13.3989 23.6323 13.4721 22.9979C13.5453 22.3552 13.6185 21.7126 13.6917 21.07H17.34V27H16.3273V21.8875H14.4848C14.4279 22.4325 14.3628 22.9816 14.2896 23.5347C14.2245 24.0797 14.1594 24.6247 14.0944 25.1698C13.9235 26.4875 13.3989 27.1464 12.5203 27.1464ZM24.603 26.3167C25.0911 26.3167 25.4734 26.1093 25.75 25.6944C26.0347 25.2714 26.1771 24.7224 26.1771 24.0472C26.1771 23.3639 26.0347 22.8108 25.75 22.3878C25.4734 21.9648 25.0911 21.7533 24.603 21.7533C24.1231 21.7533 23.7327 21.9648 23.4317 22.3878C23.1388 22.8108 22.9924 23.3639 22.9924 24.0472C22.9924 24.7224 23.1388 25.2714 23.4317 25.6944C23.7327 26.1093 24.1231 26.3167 24.603 26.3167ZM24.6519 27.1464C24.1882 27.1464 23.7693 27.0407 23.3951 26.8292C23.0209 26.6095 22.7159 26.2964 22.48 25.8896C22.2441 25.4748 22.1017 24.9786 22.0529 24.401H20.7717V27H19.7712V21.07H20.7717V23.5103H22.0651C22.1627 22.6887 22.4515 22.0543 22.9314 21.6069C23.4114 21.1513 23.9848 20.9236 24.6519 20.9236C25.1237 20.9236 25.5507 21.0456 25.933 21.2896C26.3235 21.5337 26.6326 21.8875 26.8604 22.3512C27.0963 22.8148 27.2142 23.3802 27.2142 24.0472C27.2142 24.698 27.0963 25.2552 26.8604 25.7188C26.6326 26.1825 26.3235 26.5363 25.933 26.7804C25.5507 27.0244 25.1237 27.1464 24.6519 27.1464ZM29.8166 23.5957C29.8166 24.458 29.9711 25.1291 30.2803 25.609C30.5894 26.0808 31.0449 26.3167 31.6468 26.3167C32.1024 26.3167 32.4766 26.1093 32.7694 25.6944C33.0704 25.2714 33.2209 24.7264 33.2209 24.0594C33.2209 23.4493 33.0826 22.9653 32.806 22.6074C32.5294 22.2414 32.1349 22.0583 31.6224 22.0583C31.3377 22.0583 31.0408 22.1356 30.7317 22.2902C30.4226 22.4447 30.1176 22.7254 29.8166 23.1321C29.8166 23.2053 29.8166 23.2826 29.8166 23.3639C29.8166 23.4371 29.8166 23.5144 29.8166 23.5957ZM31.6468 27.1464C30.7602 27.1464 30.0728 26.821 29.5848 26.1703C29.0967 25.5195 28.8527 24.5963 28.8527 23.4005C28.8527 22.4 28.9381 21.5906 29.1089 20.9724C29.2878 20.3542 29.54 19.8783 29.8654 19.5448C30.1908 19.2031 30.5812 18.951 31.0368 18.7883C31.5004 18.6256 32.0129 18.5036 32.5742 18.4222C32.9077 18.3734 33.1517 18.3287 33.3063 18.288C33.4608 18.2392 33.6276 18.1741 33.8065 18.0928L34.0018 19.0079C33.8472 19.1137 33.6682 19.195 33.4649 19.2519C33.2615 19.3007 33.0338 19.3455 32.7816 19.3862C32.3098 19.4594 31.899 19.5407 31.5492 19.6302C31.1994 19.7115 30.9066 19.8458 30.6707 20.0328C30.4429 20.2118 30.264 20.4802 30.1338 20.8382C30.0037 21.1879 29.9142 21.6679 29.8654 22.278C30.1257 21.9526 30.4307 21.7085 30.7805 21.5459C31.1384 21.375 31.5045 21.2896 31.8787 21.2896C32.5782 21.2896 33.1476 21.5337 33.5869 22.0217C34.0343 22.5098 34.258 23.189 34.258 24.0594C34.258 24.6858 34.14 25.2308 33.9041 25.6944C33.6682 26.1581 33.351 26.516 32.9524 26.7682C32.562 27.0203 32.1268 27.1464 31.6468 27.1464ZM38.5767 27.1464C38.0968 27.1464 37.6453 27.0244 37.2223 26.7804C36.8075 26.5363 36.4699 26.1825 36.2096 25.7188C35.9574 25.2552 35.8313 24.698 35.8313 24.0472C35.8313 23.3802 35.9574 22.8148 36.2096 22.3512C36.4699 21.8875 36.8075 21.5337 37.2223 21.2896C37.6453 21.0456 38.0968 20.9236 38.5767 20.9236C39.0648 20.9236 39.5162 21.0456 39.9311 21.2896C40.346 21.5337 40.6795 21.8875 40.9316 22.3512C41.1919 22.8148 41.3221 23.3802 41.3221 24.0472C41.3221 24.698 41.1919 25.2552 40.9316 25.7188C40.6795 26.1825 40.346 26.5363 39.9311 26.7804C39.5162 27.0244 39.0648 27.1464 38.5767 27.1464ZM38.5767 26.3167C39.0892 26.3167 39.5 26.1093 39.8091 25.6944C40.1263 25.2714 40.2849 24.7224 40.2849 24.0472C40.2849 23.3639 40.1263 22.8108 39.8091 22.3878C39.5 21.9648 39.0892 21.7533 38.5767 21.7533C38.0724 21.7533 37.6616 21.9648 37.3443 22.3878C37.0271 22.8108 36.8685 23.3639 36.8685 24.0472C36.8685 24.7224 37.0271 25.2714 37.3443 25.6944C37.6616 26.1093 38.0724 26.3167 38.5767 26.3167ZM43.3109 27V21.07H45.5926C46.2433 21.07 46.768 21.1879 47.1666 21.4238C47.5733 21.6516 47.7767 22.0339 47.7767 22.5708C47.7767 22.8962 47.6872 23.1687 47.5082 23.3883C47.3374 23.5998 47.0974 23.7503 46.7883 23.8398V23.8764C47.1219 23.9577 47.4106 24.1082 47.6547 24.3278C47.9068 24.5475 48.0329 24.8728 48.0329 25.304C48.0329 25.8896 47.8133 26.3208 47.374 26.5973C46.9348 26.8658 46.3735 27 45.6902 27H43.3109ZM44.2992 23.5591H45.4218C45.918 23.5591 46.2718 23.4819 46.4833 23.3273C46.6948 23.1646 46.8005 22.945 46.8005 22.6684C46.8005 22.3918 46.6948 22.1763 46.4833 22.0217C46.2799 21.8672 45.9505 21.7899 45.495 21.7899H44.2992V23.5591ZM44.2992 26.2801H45.5804C46.0684 26.2801 46.4304 26.1906 46.6663 26.0117C46.9104 25.8246 47.0324 25.5683 47.0324 25.243C47.0324 24.942 46.9063 24.7061 46.6541 24.5353C46.402 24.3644 46.0237 24.279 45.5194 24.279H44.2992V26.2801ZM49.9341 27V21.07H50.9346V23.2541H52.0572C52.7567 23.2541 53.3221 23.4005 53.7532 23.6933C54.1925 23.9862 54.4121 24.458 54.4121 25.1087C54.4121 25.7676 54.1925 26.2476 53.7532 26.5485C53.3221 26.8495 52.7567 27 52.0572 27H49.9341ZM50.9346 26.1947H51.9474C52.9316 26.1947 53.4238 25.8327 53.4238 25.1087C53.4238 24.7346 53.3017 24.4621 53.0577 24.2912C52.8218 24.1204 52.4517 24.035 51.9474 24.035H50.9346V26.1947ZM61.1866 26.3167C61.6747 26.3167 62.057 26.1093 62.3335 25.6944C62.6183 25.2714 62.7606 24.7224 62.7606 24.0472C62.7606 23.3639 62.6183 22.8108 62.3335 22.3878C62.057 21.9648 61.6747 21.7533 61.1866 21.7533C60.7067 21.7533 60.3162 21.9648 60.0152 22.3878C59.7224 22.8108 59.576 23.3639 59.576 24.0472C59.576 24.7224 59.7224 25.2714 60.0152 25.6944C60.3162 26.1093 60.7067 26.3167 61.1866 26.3167ZM61.2354 27.1464C60.7717 27.1464 60.3528 27.0407 59.9786 26.8292C59.6044 26.6095 59.2994 26.2964 59.0635 25.8896C58.8276 25.4748 58.6852 24.9786 58.6364 24.401H57.3553V27H56.3547V21.07H57.3553V23.5103H58.6486C58.7463 22.6887 59.035 22.0543 59.515 21.6069C59.9949 21.1513 60.5684 20.9236 61.2354 20.9236C61.7072 20.9236 62.1343 21.0456 62.5166 21.2896C62.907 21.5337 63.2161 21.8875 63.4439 22.3512C63.6798 22.8148 63.7977 23.3802 63.7977 24.0472C63.7977 24.698 63.6798 25.2552 63.4439 25.7188C63.2161 26.1825 62.907 26.5363 62.5166 26.7804C62.1343 27.0244 61.7072 27.1464 61.2354 27.1464Z" fill="#1C1C1E"/>
<defs>
<filter id="filter0_d_1104_33235" x="104.26" y="2.47003" width="10.1199" height="28.1199" filterUnits="userSpaceOnUse" color-interpolation-filters="sRGB">
<feFlood flood-opacity="0" result="BackgroundImageFix"/>
<feColorMatrix in="SourceAlpha" type="matrix" values="0 0 0 0 0 0 0 0 0 0 0 0 0 0 0 0 0 0 127 0" result="hardAlpha"/>
<feOffset dy="0.529971"/>
<feGaussianBlur stdDeviation="0.529971"/>
<feComposite in2="hardAlpha" operator="out"/>
<feColorMatrix type="matrix" values="0 0 0 0 0.504167 0 0 0 0 0.504167 0 0 0 0 0.504167 0 0 0 0.25 0"/>
<feBlend mode="normal" in2="BackgroundImageFix" result="effect1_dropShadow_1104_33235"/>
<feBlend mode="normal" in="SourceGraphic" in2="effect1_dropShadow_1104_33235" result="shape"/>
</filter>
<filter id="filter1_d_1104_33235" x="82.2604" y="19.47" width="8.11988" height="11.1199" filterUnits="userSpaceOnUse" color-interpolation-filters="sRGB">
<feFlood flood-opacity="0" result="BackgroundImageFix"/>
<feColorMatrix in="SourceAlpha" type="matrix" values="0 0 0 0 0 0 0 0 0 0 0 0 0 0 0 0 0 0 127 0" result="hardAlpha"/>
<feOffset dy="0.529971"/>
<feGaussianBlur stdDeviation="0.529971"/>
<feComposite in2="hardAlpha" operator="out"/>
<feColorMatrix type="matrix" values="0 0 0 0 0.504167 0 0 0 0 0.504167 0 0 0 0 0.504167 0 0 0 0.25 0"/>
<feBlend mode="normal" in2="BackgroundImageFix" result="effect1_dropShadow_1104_33235"/>
<feBlend mode="normal" in="SourceGraphic" in2="effect1_dropShadow_1104_33235" result="shape"/>
</filter>
<filter id="filter2_d_1104_33235" x="92.2604" y="9.47003" width="10.1199" height="21.1199" filterUnits="userSpaceOnUse" color-interpolation-filters="sRGB">
<feFlood flood-opacity="0" result="BackgroundImageFix"/>
<feColorMatrix in="SourceAlpha" type="matrix" values="0 0 0 0 0 0 0 0 0 0 0 0 0 0 0 0 0 0 127 0" result="hardAlpha"/>
<feOffset dy="0.529971"/>
<feGaussianBlur stdDeviation="0.529971"/>
<feComposite in2="hardAlpha" operator="out"/>
<feColorMatrix type="matrix" values="0 0 0 0 0.504167 0 0 0 0 0.504167 0 0 0 0 0.504167 0 0 0 0.25 0"/>
<feBlend mode="normal" in2="BackgroundImageFix" result="effect1_dropShadow_1104_33235"/>
<feBlend mode="normal" in="SourceGraphic" in2="effect1_dropShadow_1104_33235" result="shape"/>
</filter>
<linearGradient id="paint0_linear_1104_33235" x1="113.95" y1="20.7091" x2="111.354" y2="29.3267" gradientUnits="userSpaceOnUse">
<stop stop-color="#77CAAC"/>
<stop offset="1" stop-color="#67A791"/>
</linearGradient>
<linearGradient id="paint1_linear_1104_33235" x1="113.95" y1="20.7091" x2="111.354" y2="29.3267" gradientUnits="userSpaceOnUse">
<stop stop-color="#51C1FF"/>
<stop offset="1" stop-color="#BBE7FF"/>
</linearGradient>
<linearGradient id="paint2_linear_1104_33235" x1="107.227" y1="3.90369" x2="100.725" y2="27.6615" gradientUnits="userSpaceOnUse">
<stop stop-color="#77CAAC"/>
<stop offset="1" stop-color="#67A791"/>
</linearGradient>
<linearGradient id="paint3_linear_1104_33235" x1="103.82" y1="3" x2="103.82" y2="29" gradientUnits="userSpaceOnUse">
<stop stop-color="#51C1FF"/>
<stop offset="1" stop-color="#BBE7FF"/>
</linearGradient>
<linearGradient id="paint4_linear_1104_33235" x1="113.32" y1="3.03161" x2="78.8041" y2="43.1536" gradientUnits="userSpaceOnUse">
<stop stop-color="#3E7662"/>
<stop offset="1" stop-color="#549D83"/>
</linearGradient>
<radialGradient id="paint5_radial_1104_33235" cx="0" cy="0" r="1" gradientUnits="userSpaceOnUse" gradientTransform="translate(112.562 7.95679) rotate(97.9764) scale(44.5329 153.065)">
<stop stop-color="#23654D"/>
<stop offset="1" stop-color="#1C5A73"/>
</radialGradient>
<linearGradient id="paint6_linear_1104_33235" x1="109.337" y1="3.03163" x2="109.337" y2="29.0003" gradientUnits="userSpaceOnUse">
<stop stop-color="#49BEFF"/>
<stop offset="1" stop-color="#278CFE"/>
</linearGradient>
<linearGradient id="paint7_linear_1104_33235" x1="113.32" y1="2.99998" x2="78.7775" y2="43.2684" gradientUnits="userSpaceOnUse">
<stop stop-color="#22654C"/>
<stop offset="1" stop-color="#549D83"/>
</linearGradient>
<linearGradient id="paint8_linear_1104_33235" x1="109.32" y1="3" x2="109.32" y2="29" gradientUnits="userSpaceOnUse">
<stop stop-color="#1DAA76"/>
<stop offset="1" stop-color="#006A46"/>
</linearGradient>
<linearGradient id="paint9_linear_1104_33235" x1="109.32" y1="3" x2="109.32" y2="29" gradientUnits="userSpaceOnUse">
<stop stop-color="#1496DF"/>
<stop offset="1" stop-color="#2295E1"/>
</linearGradient>
<linearGradient id="paint10_linear_1104_33235" x1="91.3203" y1="10" x2="91.3203" y2="28" gradientUnits="userSpaceOnUse">
<stop stop-color="#77CAAC"/>
<stop offset="1" stop-color="#67A791"/>
</linearGradient>
<linearGradient id="paint11_linear_1104_33235" x1="91.3203" y1="10" x2="91.3203" y2="28" gradientUnits="userSpaceOnUse">
<stop stop-color="#51C1FF"/>
<stop offset="1" stop-color="#BBE7FF"/>
</linearGradient>
<linearGradient id="paint12_linear_1104_33235" x1="89.3203" y1="20" x2="66.2873" y2="54.145" gradientUnits="userSpaceOnUse">
<stop stop-color="#006838"/>
<stop offset="1" stop-color="#96CF24"/>
</linearGradient>
<linearGradient id="paint13_linear_1104_33235" x1="89.3203" y1="20" x2="81.0389" y2="40.9173" gradientUnits="userSpaceOnUse">
<stop stop-color="#22654C"/>
<stop offset="1" stop-color="#549D83"/>
</linearGradient>
<radialGradient id="paint14_radial_1104_33235" cx="0" cy="0" r="1" gradientUnits="userSpaceOnUse" gradientTransform="translate(88.7496 21.7069) rotate(106.934) scale(15.9772 111.347)">
<stop stop-color="#23654D"/>
<stop offset="1" stop-color="#1C5A73"/>
</radialGradient>
<linearGradient id="paint15_linear_1104_33235" x1="86.3203" y1="20" x2="86.3203" y2="29" gradientUnits="userSpaceOnUse">
<stop stop-color="#00C2FF" stop-opacity="0"/>
<stop offset="1" stop-color="#23654D"/>
</linearGradient>
<linearGradient id="paint16_linear_1104_33235" x1="86.3203" y1="20" x2="86.3203" y2="29" gradientUnits="userSpaceOnUse">
<stop stop-color="#49BEFF"/>
<stop offset="1" stop-color="#278CFE"/>
</linearGradient>
<linearGradient id="paint17_linear_1104_33235" x1="89.3203" y1="20" x2="81.0389" y2="40.9173" gradientUnits="userSpaceOnUse">
<stop stop-color="#22654C"/>
<stop offset="1" stop-color="#549D83"/>
</linearGradient>
<linearGradient id="paint18_linear_1104_33235" x1="86.3203" y1="20" x2="86.3203" y2="29" gradientUnits="userSpaceOnUse">
<stop stop-color="#1DAA76"/>
<stop offset="1" stop-color="#006A46"/>
</linearGradient>
<linearGradient id="paint19_linear_1104_33235" x1="86.3203" y1="20" x2="86.3203" y2="29" gradientUnits="userSpaceOnUse">
<stop stop-color="#1496DF"/>
<stop offset="1" stop-color="#2295E1"/>
</linearGradient>
<linearGradient id="paint20_linear_1104_33235" x1="101.32" y1="9.99998" x2="78.3329" y2="46.6706" gradientUnits="userSpaceOnUse">
<stop stop-color="#22654C"/>
<stop offset="1" stop-color="#549D83"/>
</linearGradient>
<linearGradient id="paint21_linear_1104_33235" x1="97.3203" y1="10" x2="97.3203" y2="29" gradientUnits="userSpaceOnUse">
<stop stop-color="#1DAA76"/>
<stop offset="1" stop-color="#006A46"/>
</linearGradient>
<linearGradient id="paint22_linear_1104_33235" x1="97.3203" y1="10" x2="97.3203" y2="29" gradientUnits="userSpaceOnUse">
<stop stop-color="#1496DF"/>
<stop offset="1" stop-color="#2295E1"/>
</linearGradient>
</defs>
</svg>
