<svg width="280" height="30" viewBox="0 0 280 30" fill="none" xmlns="http://www.w3.org/2000/svg">
    <path d="M165.263 25.1892L167.518 19.4569C167.627 19.2251 167.798 19.0206 168.019 18.8557C168.241 18.6907 168.509 18.5688 168.808 18.497C169.091 18.4155 169.401 18.3866 169.719 18.4124C170.036 18.4383 170.353 18.5181 170.648 18.6467C170.96 18.7628 171.248 18.9248 171.496 19.1232C171.744 19.3215 171.946 19.5521 172.091 19.8012C172.236 20.0503 172.32 20.3129 172.339 20.5733C172.358 20.8336 172.311 21.0865 172.2 21.3168L170.887 24.1128C170.479 24.9589 169.676 25.611 168.626 25.949C168.559 25.974 166.977 26.1178 166.898 26.184C166.308 26.3302 167.131 26.2409 166.481 26.184C165.831 26.1271 165.873 25.4405 165.263 25.1892Z" fill="url(#paint0_linear_445_20441)"/>
    <path d="M192.198 7.65965V0.981061C192.198 0.711261 191.997 0.509949 191.727 0.509949H187.815C185.117 0.509949 183.754 1.85895 183.229 4.01735L182.351 7.65965H181.61C181.34 7.65965 181.137 7.86097 181.137 8.13077V9.47977C181.137 9.74957 181.34 9.95295 181.61 9.95295H193.076C193.346 9.95295 193.547 9.74957 193.547 9.47977V8.13077C193.547 7.86097 193.346 7.65965 193.076 7.65965H192.198ZM189.231 7.65965H185.387L186.263 4.01735C186.439 3.27436 186.937 2.80325 187.815 2.80325H189.231V7.65965Z" fill="#202020"/>
    <path d="M199.889 7.99571C198.405 7.99571 197.461 7.05141 197.461 5.23129C197.461 3.4091 198.405 2.4648 199.889 2.4648C201.373 2.4648 202.317 3.4091 202.317 5.23129C202.317 7.05141 201.373 7.99571 199.889 7.99571ZM199.889 0.23999C196.315 0.23999 194.358 2.195 194.358 5.23129C194.358 8.26551 196.315 10.2226 199.889 10.2226C203.465 10.2226 205.42 8.26551 205.42 5.23129C205.42 2.195 203.465 0.23999 199.889 0.23999Z" fill="#202020"/>
    <path d="M213.918 4.96165C213.918 4.96165 214.808 4.69185 215.537 3.34285L216.819 0.981061C216.927 0.779749 216.819 0.509949 216.481 0.509949H214.391C213.852 0.509949 213.663 0.711261 213.513 0.981061L212.233 3.34285C212.017 3.74755 211.76 4.01735 211.019 4.01735H210.006V0.981061C210.006 0.711261 209.805 0.509949 209.535 0.509949H207.511C207.241 0.509949 207.038 0.711261 207.038 0.981061V9.47977C207.038 9.74957 207.241 9.95295 207.511 9.95295H209.535C209.805 9.95295 210.006 9.74957 210.006 9.47977V6.31065H211.22C211.963 6.31065 212.218 6.58045 212.434 6.98515L213.783 9.47977C213.933 9.74957 214.121 9.95295 214.661 9.95295H216.751C217.089 9.95295 217.197 9.68316 217.089 9.47977L215.74 6.98515C214.862 5.36635 213.918 5.09655 213.918 5.09655V4.96165Z" fill="#202020"/>
    <path d="M227.109 0.981061C227.109 0.711261 226.908 0.509949 226.638 0.509949H218.004C217.735 0.509949 217.531 0.711261 217.531 0.981061V2.33006C217.531 2.59986 217.735 2.80325 218.004 2.80325H220.837V9.47977C220.837 9.74957 221.039 9.95295 221.308 9.95295H223.332C223.602 9.95295 223.805 9.74957 223.805 9.47977V2.80325H226.638C226.908 2.80325 227.109 2.59986 227.109 2.33006V0.981061Z" fill="#202020"/>
    <path d="M233.719 7.99571C232.235 7.99571 231.291 7.05141 231.291 5.23129C231.291 3.4091 232.235 2.4648 233.719 2.4648C235.203 2.4648 236.147 3.4091 236.147 5.23129C236.147 7.05141 235.203 7.99571 233.719 7.99571ZM233.719 0.23999C230.145 0.23999 228.188 2.195 228.188 5.23129C228.188 8.26551 230.145 10.2226 233.719 10.2226C237.295 10.2226 239.25 8.26551 239.25 5.23129C239.25 2.195 237.295 0.23999 233.719 0.23999Z" fill="#202020"/>
    <path d="M250.447 3.94886C250.447 1.99385 248.964 0.509949 245.794 0.509949H241.073C240.803 0.509949 240.6 0.711261 240.6 0.981061V9.47977C240.6 9.74957 240.803 9.95295 241.073 9.95295H243.096C243.366 9.95295 243.568 9.74957 243.568 9.47977V7.38985H245.794C248.964 7.38985 250.447 5.90595 250.447 3.94886ZM243.568 5.23145V2.66835H245.794C246.805 2.66835 247.345 3.20795 247.345 3.94886C247.345 4.69185 246.805 5.23145 245.794 5.23145H243.568Z" fill="#202020"/>
    <path d="M192.198 7.65965V0.981061C192.198 0.711261 191.997 0.509949 191.727 0.509949H187.815C185.117 0.509949 183.754 1.85895 183.229 4.01735L182.351 7.65965H181.61C181.34 7.65965 181.137 7.86097 181.137 8.13077V9.47977C181.137 9.74957 181.34 9.95295 181.61 9.95295H193.076C193.346 9.95295 193.547 9.74957 193.547 9.47977V8.13077C193.547 7.86097 193.346 7.65965 193.076 7.65965H192.198ZM189.231 7.65965H185.387L186.263 4.01735C186.439 3.27436 186.937 2.80325 187.815 2.80325H189.231V7.65965Z" fill="#202020"/>
    <path d="M199.889 7.99571C198.405 7.99571 197.461 7.05141 197.461 5.23129C197.461 3.4091 198.405 2.4648 199.889 2.4648C201.373 2.4648 202.317 3.4091 202.317 5.23129C202.317 7.05141 201.373 7.99571 199.889 7.99571ZM199.889 0.23999C196.315 0.23999 194.358 2.195 194.358 5.23129C194.358 8.26551 196.315 10.2226 199.889 10.2226C203.465 10.2226 205.42 8.26551 205.42 5.23129C205.42 2.195 203.465 0.23999 199.889 0.23999Z" fill="#202020"/>
    <path d="M213.918 4.96165C213.918 4.96165 214.808 4.69185 215.537 3.34285L216.819 0.981061C216.927 0.779749 216.819 0.509949 216.481 0.509949H214.391C213.852 0.509949 213.663 0.711261 213.513 0.981061L212.233 3.34285C212.017 3.74755 211.76 4.01735 211.019 4.01735H210.006V0.981061C210.006 0.711261 209.805 0.509949 209.535 0.509949H207.511C207.241 0.509949 207.038 0.711261 207.038 0.981061V9.47977C207.038 9.74957 207.241 9.95295 207.511 9.95295H209.535C209.805 9.95295 210.006 9.74957 210.006 9.47977V6.31065H211.22C211.963 6.31065 212.218 6.58045 212.434 6.98515L213.783 9.47977C213.933 9.74957 214.121 9.95295 214.661 9.95295H216.751C217.089 9.95295 217.197 9.68316 217.089 9.47977L215.74 6.98515C214.862 5.36635 213.918 5.09655 213.918 5.09655V4.96165Z" fill="#202020"/>
    <path d="M227.109 0.981061C227.109 0.711261 226.908 0.509949 226.638 0.509949H218.004C217.735 0.509949 217.531 0.711261 217.531 0.981061V2.33006C217.531 2.59986 217.735 2.80325 218.004 2.80325H220.837V9.47977C220.837 9.74957 221.039 9.95295 221.308 9.95295H223.332C223.602 9.95295 223.805 9.74957 223.805 9.47977V2.80325H226.638C226.908 2.80325 227.109 2.59986 227.109 2.33006V0.981061Z" fill="#202020"/>
    <path d="M233.719 7.99571C232.235 7.99571 231.291 7.05141 231.291 5.23129C231.291 3.4091 232.235 2.4648 233.719 2.4648C235.203 2.4648 236.147 3.4091 236.147 5.23129C236.147 7.05141 235.203 7.99571 233.719 7.99571ZM233.719 0.23999C230.145 0.23999 228.188 2.195 228.188 5.23129C228.188 8.26551 230.145 10.2226 233.719 10.2226C237.295 10.2226 239.25 8.26551 239.25 5.23129C239.25 2.195 237.295 0.23999 233.719 0.23999Z" fill="#202020"/>
    <path d="M250.447 3.94886C250.447 1.99385 248.964 0.509949 245.794 0.509949H241.073C240.803 0.509949 240.6 0.711261 240.6 0.981061V9.47977C240.6 9.74957 240.803 9.95295 241.073 9.95295H243.096C243.366 9.95295 243.568 9.74957 243.568 9.47977V7.38985H245.794C248.964 7.38985 250.447 5.90595 250.447 3.94886ZM243.568 5.23145V2.66835H245.794C246.805 2.66835 247.345 3.20795 247.345 3.94886C247.345 4.69185 246.805 5.23145 245.794 5.23145H243.568Z" fill="#202020"/>
    <path d="M158.489 26.2927H158.617C158.617 26.2927 161.755 21.6265 163.664 16.163C165.041 12.2256 167.044 2.22436 167.044 2.22436C166.869 2.01711 166.677 1.82491 166.47 1.64979C165.885 1.14794 165.204 0.770288 164.469 0.539809C163.733 0.309331 162.861 0.1923 162.095 0.270571C162.095 0.270571 161.689 8.07879 159.74 13.6124C158.371 17.5024 153.701 24.4413 153.701 24.4413C154.304 25.0961 155.05 25.6035 155.88 25.9246C156.71 26.2456 157.603 26.3715 158.489 26.2927Z" fill="url(#paint1_linear_445_20441)"/>
    <path d="M167.872 26.3572C168.242 26.3176 168.6 26.2049 168.926 26.0258C169.252 25.8466 169.539 25.6045 169.771 25.3135C170.003 25.0224 170.174 24.6883 170.276 24.3305C170.377 23.9727 170.406 23.5982 170.362 23.229L168.383 5.35326C168.247 4.10936 167.709 2.94372 166.851 2.03349L166.34 1.52276C165.753 1.05156 165.078 0.701678 164.355 0.493445C163.632 0.285213 162.84 0.18467 162.093 0.271657L164.744 23.8674C164.833 24.6109 165.198 25.2941 165.765 25.7826C166.059 26.0174 166.397 26.1896 166.759 26.2884C167.122 26.3872 167.5 26.4107 167.872 26.3572Z" fill="url(#paint2_linear_445_20441)"/>
    <path d="M146.232 26.2299C146.232 26.2299 149.577 23.0206 151.697 19.107C153.142 16.439 155.362 9.37565 155.362 9.37565L155.043 9.05644C154.476 8.54627 153.807 8.1628 153.08 7.93161C152.354 7.70043 151.586 7.62684 150.829 7.71576L150.701 7.84344C150.701 7.84344 149.3 14.0273 147.184 17.9298C145.748 20.578 141.636 24.6338 141.636 24.6338L141.955 24.8892C142.531 25.4045 143.211 25.7906 143.949 26.0218C144.687 26.2531 145.465 26.324 146.232 26.2299Z" fill="url(#paint3_linear_445_20441)"/>
    <path d="M146.171 26.2153L145.156 19.3716C145.118 19.1182 145.014 18.8732 144.849 18.6513C144.684 18.4294 144.463 18.2352 144.197 18.0803C143.95 17.9208 143.661 17.8036 143.35 17.7368C143.038 17.6699 142.712 17.655 142.392 17.6929C142.06 17.7143 141.738 17.7863 141.443 17.9048C141.149 18.0232 140.889 18.1857 140.678 18.3825C140.468 18.5792 140.311 18.8063 140.218 19.0502C140.125 19.2941 140.097 19.5497 140.136 19.802L140.587 22.858C140.734 23.7857 141.315 24.6418 142.223 25.2684C142.279 25.3114 142.392 25.3545 142.449 25.4405C142.971 25.7507 143.57 25.9788 144.208 26.1118C144.847 26.2448 145.514 26.2799 146.171 26.2153Z" fill="url(#paint4_linear_445_20441)"/>
    <path d="M158.615 26.2298L157.082 12.5038C156.896 11.2031 156.264 10.0074 155.295 9.12017C155.219 9.00236 155.107 8.91264 154.976 8.8648C153.823 7.94562 152.357 7.51066 150.89 7.65181H150.826L152.294 21.4416C152.465 22.6508 153.025 23.7714 153.89 24.6337C154.496 25.2538 155.24 25.7216 156.061 25.999C156.882 26.2764 157.757 26.3555 158.615 26.2298Z" fill="url(#paint5_linear_445_20441)"/>
    <path d="M188.065 26.5484C188.449 26.5484 188.694 26.2929 188.77 26.1003L190.487 21.8852H190.615V26.1003C190.615 26.3558 190.806 26.5484 191.062 26.5484H192.983C193.239 26.5484 193.432 26.3558 193.432 26.1003V18.0533C193.432 17.7979 193.239 17.6072 192.983 17.6072H190.293C189.909 17.6072 189.667 17.8627 189.59 18.0533L187.348 23.4828H187.22L184.98 18.0533C184.903 17.8627 184.659 17.6072 184.274 17.6072H181.585C181.329 17.6072 181.138 17.7979 181.138 18.0533V26.1003C181.138 26.3558 181.329 26.5484 181.585 26.5484H183.506C183.762 26.5484 183.955 26.3558 183.955 26.1003V21.8852H184.083L185.811 26.1003C185.888 26.2929 186.132 26.5484 186.517 26.5484H188.065Z" fill="#1496DF"/>
    <path d="M202.573 26.1003C202.677 26.3558 202.899 26.5484 203.158 26.5484H205.366C205.626 26.5484 205.808 26.3558 205.69 26.1003L202.053 18.0415C201.937 17.7861 201.73 17.6072 201.47 17.6072H198.807C198.547 17.6072 198.339 17.7979 198.223 18.0533L194.587 26.1003C194.469 26.3558 194.651 26.5484 194.91 26.5484H196.988C197.248 26.5484 197.47 26.3558 197.574 26.1003L198.027 24.9508H202.119L202.573 26.1003ZM200.041 20.2896H200.171L201.21 22.8442H198.936L200.041 20.2896Z" fill="#1496DF"/>
    <path d="M216.158 20.8634C216.158 19.0123 214.699 17.6072 211.579 17.6072H206.935C206.67 17.6072 206.472 17.7979 206.472 18.0533V26.1003C206.472 26.3558 206.67 26.5484 206.935 26.5484H208.926C209.191 26.5484 209.391 26.3558 209.391 26.1003V24.1215H211.579C214.699 24.1215 216.158 22.7165 216.158 20.8634ZM209.391 22.0778V19.6509H211.579C212.576 19.6509 213.106 20.1618 213.106 20.8634C213.106 21.5669 212.576 22.0778 211.579 22.0778H209.391Z" fill="#1496DF"/>
    <path d="M223.881 21.8223C223.881 21.8223 224.735 21.5669 225.435 20.2896L226.664 18.0533C226.768 17.8627 226.664 17.6072 226.341 17.6072H224.333C223.815 17.6072 223.634 17.7979 223.492 18.0533L222.261 20.2896C222.054 20.6728 221.809 20.9282 221.095 20.9282H220.125V18.0533C220.125 17.7979 219.93 17.6072 219.671 17.6072H217.728C217.469 17.6072 217.276 17.7979 217.276 18.0533V26.1003C217.276 26.3558 217.469 26.5484 217.728 26.5484H219.671C219.93 26.5484 220.125 26.3558 220.125 26.1003V23.0996H221.29C222.002 23.0996 222.249 23.3551 222.456 23.7383L223.751 26.1003C223.893 26.3558 224.074 26.5484 224.592 26.5484H226.6C226.923 26.5484 227.027 26.2929 226.923 26.1003L225.628 23.7383C224.787 22.2055 223.881 21.9501 223.881 21.9501V21.8223Z" fill="#1496DF"/>
    <path d="M237.02 18.0533C237.02 17.7979 236.822 17.6072 236.559 17.6072H228.539C228.276 17.6072 228.079 17.7979 228.079 18.0533V26.1003C228.079 26.3558 228.276 26.5484 228.539 26.5484H236.559C236.822 26.5484 237.02 26.3558 237.02 26.1003V24.823C237.02 24.5676 236.822 24.3769 236.559 24.3769H230.972V23.0996H235.113C235.376 23.0996 235.574 22.9071 235.574 22.6516V21.3743C235.574 21.1188 235.376 20.9282 235.113 20.9282H230.972V19.7787H236.559C236.822 19.7787 237.02 19.5861 237.02 19.3306V18.0533Z" fill="#1496DF"/>
    <path d="M246.707 18.0533C246.707 17.7979 246.517 17.6072 246.265 17.6072H238.206C237.954 17.6072 237.766 17.7979 237.766 18.0533V19.3306C237.766 19.5861 237.954 19.7787 238.206 19.7787H240.85V26.1003C240.85 26.3558 241.04 26.5484 241.292 26.5484H243.181C243.433 26.5484 243.621 26.3558 243.621 26.1003V19.7787H246.265C246.517 19.7787 246.707 19.5861 246.707 19.3306V18.0533Z" fill="#1496DF"/>
    <path d="M254.742 21.4391V26.1003C254.742 26.3558 254.93 26.5484 255.182 26.5484H257.07C257.321 26.5484 257.511 26.3558 257.511 26.1003V18.0533C257.511 17.7979 257.321 17.6072 257.07 17.6072H254.93C254.616 17.6072 254.365 17.8627 254.239 18.0533L251.092 22.7165H250.966V18.0533C250.966 17.7979 250.777 17.6072 250.525 17.6072H248.637C248.385 17.6072 248.198 17.7979 248.198 18.0533V26.1003C248.198 26.3558 248.385 26.5484 248.637 26.5484H250.777C251.092 26.5484 251.344 26.2929 251.47 26.1003L254.616 21.4391H254.742Z" fill="#1496DF"/>
    <path d="M269.06 18.0533C269.06 17.7979 268.868 17.6072 268.612 17.6072H266.699C266.443 17.6072 266.253 17.7979 266.253 18.0533V21.056H262.553V18.0533C262.553 17.7979 262.361 17.6072 262.106 17.6072H260.192C259.937 17.6072 259.746 17.7979 259.746 18.0533V26.1003C259.746 26.3558 259.937 26.5484 260.192 26.5484H262.106C262.361 26.5484 262.553 26.3558 262.553 26.1003V23.2274H266.253V26.1003C266.253 26.3558 266.443 26.5484 266.699 26.5484H268.612C268.868 26.5484 269.06 26.3558 269.06 26.1003V18.0533Z" fill="#1496DF"/>
    <path d="M279.119 18.0533C279.119 17.7979 278.923 17.6072 278.663 17.6072H271.377C271.117 17.6072 270.923 17.7979 270.923 18.0533V26.1003C270.923 26.3558 271.117 26.5484 271.377 26.5484H273.329C273.589 26.5484 273.785 26.3558 273.785 26.1003V19.7787H278.663C278.923 19.7787 279.119 19.5861 279.119 19.3306V18.0533Z" fill="#1496DF"/>
    <path d="M2.78198 12.1464C2.26137 12.1464 1.78957 12.0244 1.36658 11.7804C0.943593 11.5363 0.610081 11.1825 0.366047 10.7188C0.122014 10.2552 -2.70767e-06 9.69795 -2.70767e-06 9.0472C-2.70767e-06 8.38017 0.130148 7.81483 0.390451 7.35117C0.658887 6.8875 1.00867 6.53365 1.43979 6.28962C1.87905 6.04559 2.35085 5.92357 2.85519 5.92357C3.24564 5.92357 3.57915 5.99271 3.85572 6.131C4.14043 6.26928 4.38446 6.43197 4.58782 6.61907L4.07535 7.27796C3.90453 7.1234 3.72151 6.99732 3.52628 6.8997C3.33919 6.80209 3.12769 6.75328 2.89179 6.75328C2.53388 6.75328 2.21257 6.8509 1.92786 7.04612C1.65129 7.23322 1.43166 7.50165 1.26897 7.85143C1.11442 8.19308 1.03714 8.59167 1.03714 9.0472C1.03714 9.72236 1.20389 10.2714 1.53741 10.6944C1.87905 11.1093 2.32238 11.3167 2.86739 11.3167C3.14396 11.3167 3.40019 11.2598 3.63609 11.1459C3.87199 11.0239 4.07942 10.8815 4.25838 10.7188L4.69764 11.3899C4.4292 11.6258 4.13229 11.8129 3.80692 11.9512C3.48154 12.0813 3.13989 12.1464 2.78198 12.1464ZM7.67837 12.1464C7.18217 12.1464 6.76731 12 6.4338 11.7072C6.10842 11.4062 5.94573 10.9913 5.94573 10.4626C5.94573 9.81183 6.23451 9.31563 6.81205 8.97399C7.39773 8.62421 8.32099 8.38017 9.58183 8.24189C9.58183 7.98972 9.54523 7.74975 9.47202 7.52199C9.40694 7.29422 9.28492 7.1112 9.10597 6.97291C8.93514 6.82649 8.68704 6.75328 8.36166 6.75328C8.02002 6.75328 7.69871 6.81836 7.39773 6.94851C7.09676 7.07866 6.82832 7.22508 6.59242 7.38777L6.20197 6.69228C6.47854 6.51332 6.81612 6.34249 7.21471 6.17981C7.62143 6.00898 8.06069 5.92357 8.53249 5.92357C9.25645 5.92357 9.78112 6.14727 10.1065 6.59466C10.4319 7.03392 10.5946 7.62367 10.5946 8.3639V12H9.76486L9.67944 11.2923H9.64284C9.36627 11.5201 9.06123 11.7194 8.72771 11.8902C8.40234 12.061 8.05256 12.1464 7.67837 12.1464ZM7.97121 11.3411C8.25592 11.3411 8.52435 11.272 8.77652 11.1337C9.02869 10.9954 9.29713 10.8002 9.58183 10.548V8.90078C8.59756 9.02279 7.90614 9.20582 7.50755 9.44985C7.11709 9.69389 6.92187 10.0071 6.92187 10.3894C6.92187 10.7229 7.02355 10.9669 7.22691 11.1215C7.43027 11.2679 7.67837 11.3411 7.97121 11.3411ZM12.8873 12V6.06999H13.8635V8.53473C13.8635 8.85197 13.8513 9.20175 13.8269 9.58407C13.8106 9.95825 13.7903 10.3365 13.7659 10.7188H13.8147C13.9285 10.5317 14.0587 10.3202 14.2051 10.0843C14.3597 9.84031 14.4898 9.62881 14.5956 9.44985L16.8407 6.06999H17.7802V12H16.8041V9.53526C16.8041 9.21802 16.8122 8.86824 16.8285 8.48592C16.8529 8.1036 16.8773 7.72128 16.9017 7.33896H16.8529C16.7471 7.51792 16.617 7.72942 16.4624 7.97345C16.3079 8.21748 16.1777 8.42898 16.072 8.60794L13.8147 12H12.8873ZM15.3643 5.00845C14.9087 5.00845 14.5427 4.91897 14.2661 4.74001C13.9977 4.56105 13.7984 4.32922 13.6682 4.04451C13.5381 3.75981 13.4649 3.45883 13.4486 3.14159H14.2783C14.2946 3.49137 14.38 3.79235 14.5346 4.04451C14.6891 4.29668 14.9657 4.42277 15.3643 4.42277C15.771 4.42277 16.0516 4.29668 16.2062 4.04451C16.3607 3.79235 16.4421 3.49137 16.4502 3.14159H17.2799C17.2637 3.45883 17.1905 3.75981 17.0603 4.04451C16.9302 4.32922 16.7268 4.56105 16.4502 4.74001C16.1818 4.91897 15.8198 5.00845 15.3643 5.00845ZM21.5192 12V6.8875H19.5303V6.06999H24.5086V6.8875H22.5197V12H21.5192ZM29.1227 14.5013V6.06999H29.9524L30.0378 6.75328H30.0744C30.3429 6.52552 30.6357 6.33029 30.9529 6.1676C31.2783 6.00492 31.6159 5.92357 31.9657 5.92357C32.7303 5.92357 33.3119 6.20014 33.7105 6.75328C34.1091 7.29829 34.3084 8.03039 34.3084 8.94958C34.3084 9.61661 34.1864 10.1901 33.9424 10.67C33.7065 11.15 33.3933 11.516 33.0028 11.7682C32.6205 12.0203 32.2016 12.1464 31.7461 12.1464C31.4695 12.1464 31.1929 12.0854 30.9163 11.9634C30.6479 11.8414 30.3754 11.6746 30.0988 11.4631L30.1232 12.5003V14.5013H29.1227ZM31.5752 11.3045C32.0633 11.3045 32.466 11.0971 32.7832 10.6822C33.1086 10.2592 33.2713 9.68168 33.2713 8.94958C33.2713 8.29883 33.1492 7.77416 32.9052 7.37557C32.6693 6.96885 32.2707 6.76549 31.7095 6.76549C31.4573 6.76549 31.2011 6.83463 30.9407 6.97291C30.6886 7.1112 30.4161 7.31049 30.1232 7.5708V10.6822C30.3917 10.91 30.652 11.0727 30.9041 11.1703C31.1563 11.2598 31.38 11.3045 31.5752 11.3045ZM37.5176 12.1464C37.0214 12.1464 36.6066 12 36.2731 11.7072C35.9477 11.4062 35.785 10.9913 35.785 10.4626C35.785 9.81183 36.0738 9.31563 36.6513 8.97399C37.237 8.62421 38.1603 8.38017 39.4211 8.24189C39.4211 7.98972 39.3845 7.74975 39.3113 7.52199C39.2462 7.29422 39.1242 7.1112 38.9452 6.97291C38.7744 6.82649 38.5263 6.75328 38.2009 6.75328C37.8593 6.75328 37.538 6.81836 37.237 6.94851C36.936 7.07866 36.6676 7.22508 36.4317 7.38777L36.0412 6.69228C36.3178 6.51332 36.6554 6.34249 37.054 6.17981C37.4607 6.00898 37.9 5.92357 38.3718 5.92357C39.0957 5.92357 39.6204 6.14727 39.9458 6.59466C40.2711 7.03392 40.4338 7.62367 40.4338 8.3639V12H39.6041L39.5187 11.2923H39.4821C39.2055 11.5201 38.9005 11.7194 38.567 11.8902C38.2416 12.061 37.8918 12.1464 37.5176 12.1464ZM37.8105 11.3411C38.0952 11.3411 38.3636 11.272 38.6158 11.1337C38.868 10.9954 39.1364 10.8002 39.4211 10.548V8.90078C38.4368 9.02279 37.7454 9.20582 37.3468 9.44985C36.9564 9.69389 36.7611 10.0071 36.7611 10.3894C36.7611 10.7229 36.8628 10.9669 37.0662 11.1215C37.2695 11.2679 37.5176 11.3411 37.8105 11.3411ZM44.4226 12.1464C44.0159 12.1464 43.6255 12.0935 43.2513 11.9878C42.8852 11.8739 42.5273 11.6746 42.1775 11.3899L42.6046 10.7432C42.8812 10.971 43.1618 11.1296 43.4465 11.2191C43.7393 11.3004 44.0362 11.3411 44.3372 11.3411C44.7439 11.3411 45.0897 11.2476 45.3744 11.0605C45.6672 10.8652 45.8136 10.6049 45.8136 10.2796C45.8136 9.94605 45.6794 9.69795 45.411 9.53526C45.1507 9.36444 44.7805 9.27903 44.3006 9.27903H43.4831V8.55913H44.1542C44.6341 8.55913 44.992 8.47779 45.2279 8.3151C45.4638 8.14427 45.5818 7.91244 45.5818 7.6196C45.5818 7.31863 45.4638 7.09493 45.2279 6.94851C45.0002 6.79396 44.7073 6.71668 44.3494 6.71668C44.0078 6.71668 43.7109 6.76142 43.4587 6.8509C43.2147 6.94038 42.9747 7.07053 42.7388 7.24135L42.3117 6.58246C42.5965 6.3791 42.9096 6.22048 43.2513 6.1066C43.5929 5.98458 43.9752 5.92357 44.3982 5.92357C44.7887 5.92357 45.1466 5.98051 45.472 6.09439C45.7974 6.20828 46.0577 6.38317 46.2529 6.61907C46.4562 6.85496 46.5579 7.15594 46.5579 7.52199C46.5579 7.80669 46.4725 8.067 46.3017 8.3029C46.1309 8.53879 45.8909 8.71775 45.5818 8.83977V8.88858C45.9234 8.97805 46.2122 9.14074 46.4481 9.37664C46.6921 9.60441 46.8142 9.93385 46.8142 10.365C46.8142 10.731 46.7003 11.0483 46.4725 11.3167C46.2529 11.577 45.96 11.7804 45.594 11.9268C45.2361 12.0732 44.8456 12.1464 44.4226 12.1464ZM48.7183 14.5013V6.06999H49.548L49.6334 6.75328H49.67C49.9385 6.52552 50.2313 6.33029 50.5485 6.1676C50.8739 6.00492 51.2115 5.92357 51.5613 5.92357C52.3259 5.92357 52.9075 6.20014 53.3061 6.75328C53.7047 7.29829 53.904 8.03039 53.904 8.94958C53.904 9.61661 53.782 10.1901 53.5379 10.67C53.302 11.15 52.9889 11.516 52.5984 11.7682C52.2161 12.0203 51.7972 12.1464 51.3416 12.1464C51.0651 12.1464 50.7885 12.0854 50.5119 11.9634C50.2435 11.8414 49.971 11.6746 49.6944 11.4631L49.7188 12.5003V14.5013H48.7183ZM51.1708 11.3045C51.6589 11.3045 52.0615 11.0971 52.3788 10.6822C52.7042 10.2592 52.8669 9.68168 52.8669 8.94958C52.8669 8.29883 52.7448 7.77416 52.5008 7.37557C52.2649 6.96885 51.8663 6.76549 51.305 6.76549C51.0529 6.76549 50.7966 6.83463 50.5363 6.97291C50.2842 7.1112 50.0117 7.31049 49.7188 7.5708V10.6822C49.9873 10.91 50.2476 11.0727 50.4997 11.1703C50.7519 11.2598 50.9756 11.3045 51.1708 11.3045ZM57.1132 12.1464C56.617 12.1464 56.2022 12 55.8687 11.7072C55.5433 11.4062 55.3806 10.9913 55.3806 10.4626C55.3806 9.81183 55.6694 9.31563 56.2469 8.97399C56.8326 8.62421 57.7558 8.38017 59.0167 8.24189C59.0167 7.98972 58.9801 7.74975 58.9069 7.52199C58.8418 7.29422 58.7198 7.1112 58.5408 6.97291C58.37 6.82649 58.1219 6.75328 57.7965 6.75328C57.4549 6.75328 57.1336 6.81836 56.8326 6.94851C56.5316 7.07866 56.2632 7.22508 56.0273 7.38777L55.6368 6.69228C55.9134 6.51332 56.251 6.34249 56.6496 6.17981C57.0563 6.00898 57.4955 5.92357 57.9673 5.92357C58.6913 5.92357 59.216 6.14727 59.5414 6.59466C59.8667 7.03392 60.0294 7.62367 60.0294 8.3639V12H59.1997L59.1143 11.2923H59.0777C58.8011 11.5201 58.4961 11.7194 58.1626 11.8902C57.8372 12.061 57.4874 12.1464 57.1132 12.1464ZM57.4061 11.3411C57.6908 11.3411 57.9592 11.272 58.2114 11.1337C58.4635 10.9954 58.732 10.8002 59.0167 10.548V8.90078C58.0324 9.02279 57.341 9.20582 56.9424 9.44985C56.5519 9.69389 56.3567 10.0071 56.3567 10.3894C56.3567 10.7229 56.4584 10.9669 56.6618 11.1215C56.8651 11.2679 57.1132 11.3411 57.4061 11.3411ZM62.9323 8.59574C62.9323 9.45799 63.0868 10.1291 63.3959 10.609C63.705 11.0808 64.1606 11.3167 64.7625 11.3167C65.218 11.3167 65.5922 11.1093 65.8851 10.6944C66.186 10.2714 66.3365 9.72642 66.3365 9.0594C66.3365 8.44932 66.1982 7.96532 65.9217 7.6074C65.6451 7.24135 65.2506 7.05833 64.7381 7.05833C64.4534 7.05833 64.1565 7.1356 63.8474 7.29016C63.5383 7.44471 63.2332 7.72535 62.9323 8.13207C62.9323 8.20528 62.9323 8.28256 62.9323 8.3639C62.9323 8.43711 62.9323 8.51439 62.9323 8.59574ZM64.7625 12.1464C63.8759 12.1464 63.1885 11.821 62.7004 11.1703C62.2124 10.5195 61.9683 9.59627 61.9683 8.40051C61.9683 7.39997 62.0538 6.5906 62.2246 5.97238C62.4035 5.35416 62.6557 4.8783 62.9811 4.54478C63.3065 4.20314 63.6969 3.95097 64.1524 3.78828C64.6161 3.62559 65.1286 3.50357 65.6898 3.42223C66.0234 3.37342 66.2674 3.32868 66.4219 3.28801C66.5765 3.2392 66.7433 3.17413 66.9222 3.09279L67.1174 4.00791C66.9629 4.11366 66.7839 4.195 66.5806 4.25194C66.3772 4.30075 66.1494 4.34549 65.8973 4.38616C65.4255 4.45937 65.0147 4.54072 64.6649 4.63019C64.3151 4.71154 64.0223 4.84576 63.7864 5.03285C63.5586 5.21181 63.3797 5.48024 63.2495 5.83816C63.1194 6.18794 63.0299 6.66787 62.9811 7.27796C63.2414 6.95258 63.5464 6.70854 63.8962 6.54586C64.2541 6.37503 64.6202 6.28962 64.9944 6.28962C65.6939 6.28962 66.2633 6.53365 66.7026 7.02172C67.15 7.50979 67.3737 8.18901 67.3737 9.0594C67.3737 9.68575 67.2557 10.2308 67.0198 10.6944C66.7839 11.1581 66.4667 11.516 66.0681 11.7682C65.6776 12.0203 65.2425 12.1464 64.7625 12.1464ZM71.6924 12.1464C71.2125 12.1464 70.761 12.0244 70.338 11.7804C69.9232 11.5363 69.5856 11.1825 69.3253 10.7188C69.0731 10.2552 68.947 9.69795 68.947 9.0472C68.947 8.38017 69.0731 7.81483 69.3253 7.35117C69.5856 6.8875 69.9232 6.53365 70.338 6.28962C70.761 6.04559 71.2125 5.92357 71.6924 5.92357C72.1805 5.92357 72.6319 6.04559 73.0468 6.28962C73.4616 6.53365 73.7952 6.8875 74.0473 7.35117C74.3076 7.81483 74.4378 8.38017 74.4378 9.0472C74.4378 9.69795 74.3076 10.2552 74.0473 10.7188C73.7952 11.1825 73.4616 11.5363 73.0468 11.7804C72.6319 12.0244 72.1805 12.1464 71.6924 12.1464ZM71.6924 11.3167C72.2049 11.3167 72.6157 11.1093 72.9248 10.6944C73.242 10.2714 73.4006 9.72236 73.4006 9.0472C73.4006 8.3639 73.242 7.81076 72.9248 7.38777C72.6157 6.96478 72.2049 6.75328 71.6924 6.75328C71.1881 6.75328 70.7773 6.96478 70.46 7.38777C70.1428 7.81076 69.9842 8.3639 69.9842 9.0472C69.9842 9.72236 70.1428 10.2714 70.46 10.6944C70.7773 11.1093 71.1881 11.3167 71.6924 11.3167ZM77.5296 12V6.8875H75.5407V6.06999H80.519V6.8875H78.5301V12H77.5296ZM83.3678 12.1464C82.8716 12.1464 82.4567 12 82.1232 11.7072C81.7978 11.4062 81.6351 10.9913 81.6351 10.4626C81.6351 9.81183 81.9239 9.31563 82.5015 8.97399C83.0871 8.62421 84.0104 8.38017 85.2712 8.24189C85.2712 7.98972 85.2346 7.74975 85.1614 7.52199C85.0963 7.29422 84.9743 7.1112 84.7954 6.97291C84.6245 6.82649 84.3764 6.75328 84.0511 6.75328C83.7094 6.75328 83.3881 6.81836 83.0871 6.94851C82.7862 7.07866 82.5177 7.22508 82.2818 7.38777L81.8914 6.69228C82.1679 6.51332 82.5055 6.34249 82.9041 6.17981C83.3108 6.00898 83.7501 5.92357 84.2219 5.92357C84.9459 5.92357 85.4705 6.14727 85.7959 6.59466C86.1213 7.03392 86.284 7.62367 86.284 8.3639V12H85.4543L85.3688 11.2923H85.3322C85.0557 11.5201 84.7506 11.7194 84.4171 11.8902C84.0917 12.061 83.742 12.1464 83.3678 12.1464ZM83.6606 11.3411C83.9453 11.3411 84.2138 11.272 84.4659 11.1337C84.7181 10.9954 84.9865 10.8002 85.2712 10.548V8.90078C84.287 9.02279 83.5955 9.20582 83.1969 9.44985C82.8065 9.69389 82.6113 10.0071 82.6113 10.3894C82.6113 10.7229 82.7129 10.9669 82.9163 11.1215C83.1197 11.2679 83.3678 11.3411 83.6606 11.3411ZM88.5767 12V6.06999H89.5773V8.47372H92.4325V6.06999H93.433V12H92.4325V9.36444H89.5773V12H88.5767ZM0.439257 27V21.07H2.72097C3.37172 21.07 3.8964 21.1879 4.29498 21.4238C4.70171 21.6516 4.90507 22.0339 4.90507 22.5708C4.90507 22.8962 4.81559 23.1687 4.63663 23.3883C4.46581 23.5998 4.22584 23.7503 3.91673 23.8398V23.8764C4.25024 23.9577 4.53902 24.1082 4.78305 24.3278C5.03522 24.5475 5.1613 24.8728 5.1613 25.304C5.1613 25.8896 4.94167 26.3208 4.50241 26.5973C4.06315 26.8658 3.50188 27 2.81858 27H0.439257ZM1.42759 23.5591H2.55015C3.04635 23.5591 3.40019 23.4819 3.61169 23.3273C3.82319 23.1646 3.92893 22.945 3.92893 22.6684C3.92893 22.3918 3.82319 22.1763 3.61169 22.0217C3.40833 21.8672 3.07888 21.7899 2.62336 21.7899H1.42759V23.5591ZM1.42759 26.2801H2.70877C3.19683 26.2801 3.55882 26.1906 3.79472 26.0117C4.03875 25.8246 4.16076 25.5683 4.16076 25.243C4.16076 24.942 4.03468 24.7061 3.78251 24.5353C3.53035 24.3644 3.15209 24.279 2.64776 24.279H1.42759V26.2801ZM9.93225 27V21.07H14.6787V27H13.6782V21.8875H10.9328V27H9.93225ZM18.4702 27.1464C17.974 27.1464 17.5591 27 17.2256 26.7072C16.9002 26.4062 16.7375 25.9913 16.7375 25.4626C16.7375 24.8118 17.0263 24.3156 17.6039 23.974C18.1895 23.6242 19.1128 23.3802 20.3736 23.2419C20.3736 22.9897 20.337 22.7498 20.2638 22.522C20.1987 22.2942 20.0767 22.1112 19.8978 21.9729C19.7269 21.8265 19.4788 21.7533 19.1535 21.7533C18.8118 21.7533 18.4905 21.8184 18.1895 21.9485C17.8886 22.0787 17.6201 22.2251 17.3842 22.3878L16.9938 21.6923C17.2703 21.5133 17.6079 21.3425 18.0065 21.1798C18.4132 21.009 18.8525 20.9236 19.3243 20.9236C20.0483 20.9236 20.5729 21.1473 20.8983 21.5947C21.2237 22.0339 21.3864 22.6237 21.3864 23.3639V27H20.5567L20.4712 26.2923H20.4346C20.1581 26.5201 19.853 26.7194 19.5195 26.8902C19.1941 27.061 18.8444 27.1464 18.4702 27.1464ZM18.763 26.3411C19.0477 26.3411 19.3162 26.272 19.5683 26.1337C19.8205 25.9954 20.0889 25.8002 20.3736 25.548V23.9008C19.3894 24.0228 18.6979 24.2058 18.2993 24.4499C17.9089 24.6939 17.7137 25.0071 17.7137 25.3894C17.7137 25.7229 17.8153 25.9669 18.0187 26.1215C18.2221 26.2679 18.4702 26.3411 18.763 26.3411ZM23.6791 29.5013V21.07H24.5088L24.5943 21.7533H24.6309C24.8993 21.5255 25.1921 21.3303 25.5094 21.1676C25.8348 21.0049 26.1723 20.9236 26.5221 20.9236C27.2868 20.9236 27.8684 21.2001 28.267 21.7533C28.6656 22.2983 28.8648 23.0304 28.8648 23.9496C28.8648 24.6166 28.7428 25.1901 28.4988 25.67C28.2629 26.15 27.9497 26.516 27.5593 26.7682C27.1769 27.0203 26.758 27.1464 26.3025 27.1464C26.0259 27.1464 25.7494 27.0854 25.4728 26.9634C25.2043 26.8414 24.9318 26.6746 24.6553 26.4631L24.6797 27.5003V29.5013H23.6791ZM26.1317 26.3045C26.6197 26.3045 27.0224 26.0971 27.3396 25.6822C27.665 25.2592 27.8277 24.6817 27.8277 23.9496C27.8277 23.2988 27.7057 22.7742 27.4617 22.3756C27.2258 21.9688 26.8272 21.7655 26.2659 21.7655C26.0137 21.7655 25.7575 21.8346 25.4972 21.9729C25.245 22.1112 24.9725 22.3105 24.6797 22.5708V25.6822C24.9481 25.91 25.2084 26.0727 25.4606 26.1703C25.7127 26.2598 25.9364 26.3045 26.1317 26.3045ZM31.9773 27V21.8875H29.9884V21.07H34.9667V21.8875H32.9779V27H31.9773ZM36.7111 27V21.07H37.7116V23.4737H40.5668V21.07H41.5673V27H40.5668V24.3644H37.7116V27H36.7111ZM46.3934 27.1464C45.8647 27.1464 45.3847 27.0244 44.9536 26.7804C44.5225 26.5282 44.1808 26.1703 43.9287 25.7066C43.6765 25.243 43.5504 24.6898 43.5504 24.0472C43.5504 23.3964 43.6765 22.8392 43.9287 22.3756C44.189 21.9119 44.5225 21.554 44.9292 21.3018C45.3359 21.0497 45.763 20.9236 46.2104 20.9236C46.9669 20.9236 47.5485 21.1757 47.9552 21.6801C48.3701 22.1844 48.5775 22.8596 48.5775 23.7056C48.5775 23.8113 48.5734 23.917 48.5653 24.0228C48.5653 24.1204 48.5572 24.2058 48.5409 24.279H44.5387C44.5794 24.9054 44.7746 25.4056 45.1244 25.7798C45.4823 26.154 45.946 26.3411 46.5154 26.3411C46.8001 26.3411 47.0604 26.3004 47.2963 26.2191C47.5403 26.1296 47.7722 26.0157 47.9918 25.8774L48.3457 26.5363C48.0935 26.699 47.8047 26.8414 47.4793 26.9634C47.1621 27.0854 46.8001 27.1464 46.3934 27.1464ZM44.5265 23.5591H47.699C47.699 22.9572 47.5688 22.5017 47.3085 22.1925C47.0563 21.8753 46.6984 21.7167 46.2348 21.7167C45.8199 21.7167 45.4457 21.8794 45.1122 22.2047C44.7868 22.522 44.5916 22.9735 44.5265 23.5591ZM50.4699 29.5013V21.07H51.2996L51.385 21.7533H51.4216C51.6901 21.5255 51.9829 21.3303 52.3001 21.1676C52.6255 21.0049 52.9631 20.9236 53.3129 20.9236C54.0775 20.9236 54.6591 21.2001 55.0577 21.7533C55.4563 22.2983 55.6556 23.0304 55.6556 23.9496C55.6556 24.6166 55.5336 25.1901 55.2896 25.67C55.0537 26.15 54.7405 26.516 54.35 26.7682C53.9677 27.0203 53.5488 27.1464 53.0933 27.1464C52.8167 27.1464 52.5401 27.0854 52.2635 26.9634C51.9951 26.8414 51.7226 26.6746 51.446 26.4631L51.4704 27.5003V29.5013H50.4699ZM52.9224 26.3045C53.4105 26.3045 53.8131 26.0971 54.1304 25.6822C54.4558 25.2592 54.6185 24.6817 54.6185 23.9496C54.6185 23.2988 54.4964 22.7742 54.2524 22.3756C54.0165 21.9688 53.6179 21.7655 53.0566 21.7655C52.8045 21.7655 52.5482 21.8346 52.2879 21.9729C52.0358 22.1112 51.7633 22.3105 51.4704 22.5708V25.6822C51.7389 25.91 51.9992 26.0727 52.2513 26.1703C52.5035 26.2598 52.7272 26.3045 52.9224 26.3045ZM60.0078 27.1464C59.4872 27.1464 59.0154 27.0244 58.5924 26.7804C58.1694 26.5363 57.8359 26.1825 57.5919 25.7188C57.3478 25.2552 57.2258 24.698 57.2258 24.0472C57.2258 23.3802 57.356 22.8148 57.6163 22.3512C57.8847 21.8875 58.2345 21.5337 58.6656 21.2896C59.1049 21.0456 59.5767 20.9236 60.081 20.9236C60.4714 20.9236 60.805 20.9927 61.0815 21.131C61.3662 21.2693 61.6103 21.432 61.8136 21.6191L61.3012 22.278C61.1303 22.1234 60.9473 21.9973 60.7521 21.8997C60.565 21.8021 60.3535 21.7533 60.1176 21.7533C59.7597 21.7533 59.4384 21.8509 59.1537 22.0461C58.8771 22.2332 58.6575 22.5017 58.4948 22.8514C58.3402 23.1931 58.2629 23.5917 58.2629 24.0472C58.2629 24.7224 58.4297 25.2714 58.7632 25.6944C59.1049 26.1093 59.5482 26.3167 60.0932 26.3167C60.3698 26.3167 60.626 26.2598 60.8619 26.1459C61.0978 26.0239 61.3052 25.8815 61.4842 25.7188L61.9234 26.3899C61.655 26.6258 61.3581 26.8129 61.0327 26.9512C60.7073 27.0813 60.3657 27.1464 60.0078 27.1464ZM64.8432 27V21.8875H62.8543V21.07H67.8326V21.8875H65.8437V27H64.8432ZM69.5769 27V21.07H71.8586C72.5094 21.07 73.0341 21.1879 73.4327 21.4238C73.8394 21.6516 74.0427 22.0339 74.0427 22.5708C74.0427 22.8962 73.9533 23.1687 73.7743 23.3883C73.6035 23.5998 73.3635 23.7503 73.0544 23.8398V23.8764C73.3879 23.9577 73.6767 24.1082 73.9207 24.3278C74.1729 24.5475 74.299 24.8728 74.299 25.304C74.299 25.8896 74.0794 26.3208 73.6401 26.5973C73.2008 26.8658 72.6396 27 71.9563 27H69.5769ZM70.5653 23.5591H71.6878C72.184 23.5591 72.5379 23.4819 72.7494 23.3273C72.9609 23.1646 73.0666 22.945 73.0666 22.6684C73.0666 22.3918 72.9609 22.1763 72.7494 22.0217C72.546 21.8672 72.2166 21.7899 71.761 21.7899H70.5653V23.5591ZM70.5653 26.2801H71.8464C72.3345 26.2801 72.6965 26.1906 72.9324 26.0117C73.1764 25.8246 73.2984 25.5683 73.2984 25.243C73.2984 24.942 73.1724 24.7061 72.9202 24.5353C72.668 24.3644 72.2898 24.279 71.7854 24.279H70.5653V26.2801ZM78.6039 27.1464C78.0751 27.1464 77.5952 27.0244 77.1641 26.7804C76.733 26.5282 76.3913 26.1703 76.1391 25.7066C75.887 25.243 75.7609 24.6898 75.7609 24.0472C75.7609 23.3964 75.887 22.8392 76.1391 22.3756C76.3994 21.9119 76.733 21.554 77.1397 21.3018C77.5464 21.0497 77.9735 20.9236 78.4209 20.9236C79.1774 20.9236 79.759 21.1757 80.1657 21.6801C80.5805 22.1844 80.788 22.8596 80.788 23.7056C80.788 23.8113 80.7839 23.917 80.7758 24.0228C80.7758 24.1204 80.7676 24.2058 80.7514 24.279H76.7492C76.7899 24.9054 76.9851 25.4056 77.3349 25.7798C77.6928 26.154 78.1565 26.3411 78.7259 26.3411C79.0106 26.3411 79.2709 26.3004 79.5068 26.2191C79.7508 26.1296 79.9827 26.0157 80.2023 25.8774L80.5561 26.5363C80.304 26.699 80.0152 26.8414 79.6898 26.9634C79.3726 27.0854 79.0106 27.1464 78.6039 27.1464ZM76.737 23.5591H79.9095C79.9095 22.9572 79.7793 22.5017 79.519 22.1925C79.2668 21.8753 78.9089 21.7167 78.4453 21.7167C78.0304 21.7167 77.6562 21.8794 77.3227 22.2047C76.9973 22.522 76.8021 22.9735 76.737 23.5591ZM87.8929 27.1464C87.3723 27.1464 86.9005 27.0244 86.4775 26.7804C86.0545 26.5363 85.721 26.1825 85.4769 25.7188C85.2329 25.2552 85.1109 24.698 85.1109 24.0472C85.1109 23.3802 85.241 22.8148 85.5013 22.3512C85.7698 21.8875 86.1196 21.5337 86.5507 21.2896C86.9899 21.0456 87.4617 20.9236 87.9661 20.9236C88.3565 20.9236 88.69 20.9927 88.9666 21.131C89.2513 21.2693 89.4954 21.432 89.6987 21.6191L89.1862 22.278C89.0154 22.1234 88.8324 21.9973 88.6372 21.8997C88.4501 21.8021 88.2386 21.7533 88.0027 21.7533C87.6448 21.7533 87.3235 21.8509 87.0388 22.0461C86.7622 22.2332 86.5426 22.5017 86.3799 22.8514C86.2253 23.1931 86.148 23.5917 86.148 24.0472C86.148 24.7224 86.3148 25.2714 86.6483 25.6944C86.9899 26.1093 87.4333 26.3167 87.9783 26.3167C88.2549 26.3167 88.5111 26.2598 88.747 26.1459C88.9829 26.0239 89.1903 25.8815 89.3693 25.7188L89.8085 26.3899C89.5401 26.6258 89.2432 26.8129 88.9178 26.9512C88.5924 27.0813 88.2508 27.1464 87.8929 27.1464Z" fill="#1C1C1E"/>
    <defs>
        <linearGradient id="paint0_linear_445_20441" x1="170.177" y1="18.4834" x2="167.738" y2="26.5829" gradientUnits="userSpaceOnUse">
            <stop stop-color="#51C1FF"/>
            <stop offset="1" stop-color="#BBE7FF"/>
        </linearGradient>
        <linearGradient id="paint1_linear_445_20441" x1="160.373" y1="0.246429" x2="160.373" y2="26.3155" gradientUnits="userSpaceOnUse">
            <stop stop-color="#51C1FF"/>
            <stop offset="1" stop-color="#BBE7FF"/>
        </linearGradient>
        <linearGradient id="paint2_linear_445_20441" x1="166.237" y1="0.240234" x2="166.237" y2="26.3851" gradientUnits="userSpaceOnUse">
            <stop stop-color="#1496DF"/>
            <stop offset="1" stop-color="#2295E1"/>
        </linearGradient>
        <linearGradient id="paint3_linear_445_20441" x1="148.499" y1="7.67917" x2="148.499" y2="26.2702" gradientUnits="userSpaceOnUse">
            <stop stop-color="#51C1FF"/>
            <stop offset="1" stop-color="#BBE7FF"/>
        </linearGradient>
        <linearGradient id="paint4_linear_445_20441" x1="143.145" y1="17.6725" x2="143.145" y2="26.2468" gradientUnits="userSpaceOnUse">
            <stop stop-color="#1496DF"/>
            <stop offset="1" stop-color="#2295E1"/>
        </linearGradient>
        <linearGradient id="paint5_linear_445_20441" x1="154.72" y1="7.6257" x2="154.72" y2="26.2878" gradientUnits="userSpaceOnUse">
            <stop stop-color="#1496DF"/>
            <stop offset="1" stop-color="#2295E1"/>
        </linearGradient>
    </defs>
</svg>
