<svg width="280" height="30" viewBox="0 0 280 30" fill="none" xmlns="http://www.w3.org/2000/svg">
    <path d="M165.824 25.1897L168.079 19.4574C168.188 19.2256 168.359 19.0211 168.581 18.8561C168.802 18.6912 169.071 18.5692 169.37 18.4975C169.652 18.4159 169.963 18.3871 170.28 18.4129C170.598 18.4387 170.915 18.5186 171.21 18.6471C171.521 18.7632 171.809 18.9253 172.057 19.1236C172.305 19.322 172.507 19.5526 172.652 19.8017C172.797 20.0508 172.881 20.3134 172.9 20.5737C172.919 20.8341 172.872 21.087 172.762 21.3173L171.448 24.1133C171.041 24.9593 170.238 25.6115 169.187 25.9495C169.121 25.9745 167.538 26.1183 167.459 26.1845C166.869 26.3306 167.693 26.2414 167.043 26.1845C166.393 26.1275 166.435 25.441 165.824 25.1897Z" fill="url(#paint0_linear_2008_16102)"/>
    <path d="M192.76 7.65947V0.980878C192.76 0.711078 192.559 0.509766 192.289 0.509766H188.377C185.679 0.509766 184.315 1.85877 183.79 4.01717L182.912 7.65947H182.171C181.902 7.65947 181.698 7.86078 181.698 8.13058V9.47958C181.698 9.74938 181.902 9.95277 182.171 9.95277H193.638C193.908 9.95277 194.109 9.74938 194.109 9.47958V8.13058C194.109 7.86078 193.908 7.65947 193.638 7.65947H192.76ZM189.792 7.65947H185.949L186.824 4.01717C187.001 3.27418 187.499 2.80307 188.377 2.80307H189.792V7.65947Z" fill="#202020"/>
    <path d="M200.451 7.99595C198.967 7.99595 198.023 7.05165 198.023 5.23154C198.023 3.40935 198.967 2.46505 200.451 2.46505C201.935 2.46505 202.879 3.40935 202.879 5.23154C202.879 7.05165 201.935 7.99595 200.451 7.99595ZM200.451 0.240234C196.877 0.240234 194.92 2.19525 194.92 5.23154C194.92 8.26575 196.877 10.2228 200.451 10.2228C204.027 10.2228 205.982 8.26575 205.982 5.23154C205.982 2.19525 204.027 0.240234 200.451 0.240234Z" fill="#202020"/>
    <path d="M214.48 4.96147C214.48 4.96147 215.37 4.69167 216.098 3.34267L217.381 0.980878C217.489 0.779566 217.381 0.509766 217.043 0.509766H214.953C214.413 0.509766 214.224 0.711078 214.075 0.980878L212.794 3.34267C212.578 3.74737 212.321 4.01717 211.58 4.01717H210.567V0.980878C210.567 0.711078 210.366 0.509766 210.096 0.509766H208.073C207.803 0.509766 207.6 0.711078 207.6 0.980878V9.47958C207.6 9.74938 207.803 9.95277 208.073 9.95277H210.096C210.366 9.95277 210.567 9.74938 210.567 9.47958V6.31047H211.782C212.525 6.31047 212.78 6.58027 212.996 6.98497L214.345 9.47958C214.494 9.74938 214.683 9.95277 215.223 9.95277H217.312C217.651 9.95277 217.759 9.68297 217.651 9.47958L216.302 6.98497C215.424 5.36617 214.48 5.09637 214.48 5.09637V4.96147Z" fill="#202020"/>
    <path d="M227.671 0.980878C227.671 0.711078 227.469 0.509766 227.2 0.509766H218.566C218.296 0.509766 218.093 0.711078 218.093 0.980878V2.32988C218.093 2.59968 218.296 2.80307 218.566 2.80307H221.399V9.47958C221.399 9.74938 221.6 9.95277 221.87 9.95277H223.893C224.163 9.95277 224.367 9.74938 224.367 9.47958V2.80307H227.2C227.469 2.80307 227.671 2.59968 227.671 2.32988V0.980878Z" fill="#202020"/>
    <path d="M234.281 7.99595C232.797 7.99595 231.853 7.05165 231.853 5.23154C231.853 3.40935 232.797 2.46505 234.281 2.46505C235.765 2.46505 236.709 3.40935 236.709 5.23154C236.709 7.05165 235.765 7.99595 234.281 7.99595ZM234.281 0.240234C230.707 0.240234 228.75 2.19525 228.75 5.23154C228.75 8.26575 230.707 10.2228 234.281 10.2228C237.857 10.2228 239.812 8.26575 239.812 5.23154C239.812 2.19525 237.857 0.240234 234.281 0.240234Z" fill="#202020"/>
    <path d="M251.009 3.94868C251.009 1.99367 249.525 0.509766 246.356 0.509766H241.634C241.365 0.509766 241.161 0.711078 241.161 0.980878V9.47958C241.161 9.74938 241.365 9.95277 241.634 9.95277H243.658C243.928 9.95277 244.129 9.74938 244.129 9.47958V7.38967H246.356C249.525 7.38967 251.009 5.90577 251.009 3.94868ZM244.129 5.23127V2.66817H246.356C247.367 2.66817 247.906 3.20777 247.906 3.94868C247.906 4.69167 247.367 5.23127 246.356 5.23127H244.129Z" fill="#202020"/>
    <path d="M192.76 7.65947V0.980878C192.76 0.711078 192.559 0.509766 192.289 0.509766H188.377C185.679 0.509766 184.315 1.85877 183.79 4.01717L182.912 7.65947H182.171C181.902 7.65947 181.698 7.86078 181.698 8.13058V9.47958C181.698 9.74938 181.902 9.95277 182.171 9.95277H193.638C193.908 9.95277 194.109 9.74938 194.109 9.47958V8.13058C194.109 7.86078 193.908 7.65947 193.638 7.65947H192.76ZM189.792 7.65947H185.949L186.824 4.01717C187.001 3.27418 187.499 2.80307 188.377 2.80307H189.792V7.65947Z" fill="#202020"/>
    <path d="M200.451 7.99595C198.967 7.99595 198.023 7.05165 198.023 5.23154C198.023 3.40935 198.967 2.46505 200.451 2.46505C201.935 2.46505 202.879 3.40935 202.879 5.23154C202.879 7.05165 201.935 7.99595 200.451 7.99595ZM200.451 0.240234C196.877 0.240234 194.92 2.19525 194.92 5.23154C194.92 8.26575 196.877 10.2228 200.451 10.2228C204.027 10.2228 205.982 8.26575 205.982 5.23154C205.982 2.19525 204.027 0.240234 200.451 0.240234Z" fill="#202020"/>
    <path d="M214.48 4.96147C214.48 4.96147 215.37 4.69167 216.098 3.34267L217.381 0.980878C217.489 0.779566 217.381 0.509766 217.043 0.509766H214.953C214.413 0.509766 214.224 0.711078 214.075 0.980878L212.794 3.34267C212.578 3.74737 212.321 4.01717 211.58 4.01717H210.567V0.980878C210.567 0.711078 210.366 0.509766 210.096 0.509766H208.073C207.803 0.509766 207.6 0.711078 207.6 0.980878V9.47958C207.6 9.74938 207.803 9.95277 208.073 9.95277H210.096C210.366 9.95277 210.567 9.74938 210.567 9.47958V6.31047H211.782C212.525 6.31047 212.78 6.58027 212.996 6.98497L214.345 9.47958C214.494 9.74938 214.683 9.95277 215.223 9.95277H217.312C217.651 9.95277 217.759 9.68297 217.651 9.47958L216.302 6.98497C215.424 5.36617 214.48 5.09637 214.48 5.09637V4.96147Z" fill="#202020"/>
    <path d="M227.671 0.980878C227.671 0.711078 227.469 0.509766 227.2 0.509766H218.566C218.296 0.509766 218.093 0.711078 218.093 0.980878V2.32988C218.093 2.59968 218.296 2.80307 218.566 2.80307H221.399V9.47958C221.399 9.74938 221.6 9.95277 221.87 9.95277H223.893C224.163 9.95277 224.367 9.74938 224.367 9.47958V2.80307H227.2C227.469 2.80307 227.671 2.59968 227.671 2.32988V0.980878Z" fill="#202020"/>
    <path d="M234.281 7.99595C232.797 7.99595 231.853 7.05165 231.853 5.23154C231.853 3.40935 232.797 2.46505 234.281 2.46505C235.765 2.46505 236.709 3.40935 236.709 5.23154C236.709 7.05165 235.765 7.99595 234.281 7.99595ZM234.281 0.240234C230.707 0.240234 228.75 2.19525 228.75 5.23154C228.75 8.26575 230.707 10.2228 234.281 10.2228C237.857 10.2228 239.812 8.26575 239.812 5.23154C239.812 2.19525 237.857 0.240234 234.281 0.240234Z" fill="#202020"/>
    <path d="M251.009 3.94868C251.009 1.99367 249.525 0.509766 246.356 0.509766H241.634C241.365 0.509766 241.161 0.711078 241.161 0.980878V9.47958C241.161 9.74938 241.365 9.95277 241.634 9.95277H243.658C243.928 9.95277 244.129 9.74938 244.129 9.47958V7.38967H246.356C249.525 7.38967 251.009 5.90577 251.009 3.94868ZM244.129 5.23127V2.66817H246.356C247.367 2.66817 247.906 3.20777 247.906 3.94868C247.906 4.69167 247.367 5.23127 246.356 5.23127H244.129Z" fill="#202020"/>
    <path d="M159.051 26.2924H159.178C159.178 26.2924 162.316 21.6262 164.226 16.1627C165.602 12.2252 167.605 2.22403 167.605 2.22403C167.43 2.01677 167.238 1.82457 167.031 1.64945C166.446 1.1476 165.765 0.769952 165.03 0.539474C164.295 0.308995 163.423 0.191964 162.656 0.270235C162.656 0.270235 162.25 8.07846 160.302 13.6121C158.932 17.502 154.263 24.441 154.263 24.441C154.865 25.0957 155.611 25.6032 156.441 25.9242C157.271 26.2452 158.164 26.3712 159.051 26.2924Z" fill="url(#paint1_linear_2008_16102)"/>
    <path d="M168.433 26.3572C168.803 26.3176 169.162 26.2049 169.488 26.0258C169.813 25.8466 170.101 25.6045 170.332 25.3135C170.564 25.0224 170.735 24.6883 170.837 24.3305C170.938 23.9727 170.968 23.5982 170.923 23.229L168.944 5.35326C168.809 4.10936 168.271 2.94372 167.412 2.03349L166.901 1.52276C166.314 1.05156 165.64 0.701678 164.916 0.493445C164.193 0.285213 163.402 0.18467 162.654 0.271657L165.305 23.8674C165.395 24.6109 165.759 25.2941 166.327 25.7826C166.62 26.0174 166.958 26.1896 167.32 26.2884C167.683 26.3872 168.062 26.4107 168.433 26.3572Z" fill="url(#paint2_linear_2008_16102)"/>
    <path d="M146.793 26.2304C146.793 26.2304 150.138 23.0211 152.258 19.1075C153.703 16.4395 155.923 9.37617 155.923 9.37617L155.604 9.05696C155.037 8.54679 154.368 8.16332 153.641 7.93213C152.915 7.70095 152.147 7.62736 151.39 7.71628L151.262 7.84396C151.262 7.84396 149.861 14.0278 147.745 17.9303C146.309 20.5785 142.197 24.6343 142.197 24.6343L142.516 24.8897C143.092 25.405 143.772 25.7911 144.51 26.0224C145.248 26.2536 146.026 26.3245 146.793 26.2304Z" fill="url(#paint3_linear_2008_16102)"/>
    <path d="M146.732 26.2157L145.717 19.372C145.679 19.1186 145.575 18.8736 145.41 18.6517C145.246 18.4298 145.024 18.2356 144.758 18.0807C144.511 17.9212 144.222 17.804 143.911 17.7372C143.6 17.6703 143.273 17.6554 142.953 17.6933C142.622 17.7147 142.299 17.7867 142.004 17.9052C141.71 18.0236 141.45 18.1861 141.239 18.3829C141.029 18.5796 140.872 18.8067 140.779 19.0506C140.686 19.2945 140.658 19.5501 140.697 19.8024L141.148 22.8584C141.295 23.7861 141.876 24.6422 142.784 25.2688C142.84 25.3118 142.953 25.3549 143.01 25.4409C143.533 25.7511 144.131 25.9792 144.77 26.1122C145.409 26.2451 146.076 26.2803 146.732 26.2157Z" fill="url(#paint4_linear_2008_16102)"/>
    <path d="M159.176 26.23L157.644 12.5041C157.457 11.2034 156.825 10.0077 155.856 9.12045C155.78 9.00264 155.668 8.91291 155.537 8.86508C154.384 7.9459 152.919 7.51093 151.451 7.65209H151.387L152.855 21.4419C153.026 22.6511 153.587 23.7717 154.451 24.634C155.057 25.254 155.801 25.7219 156.622 25.9993C157.443 26.2767 158.318 26.3558 159.176 26.23Z" fill="url(#paint5_linear_2008_16102)"/>
    <path d="M188.626 26.5485C189.011 26.5485 189.255 26.2931 189.332 26.1005L191.048 21.8854H191.176V26.1005C191.176 26.356 191.367 26.5485 191.623 26.5485H193.544C193.8 26.5485 193.993 26.356 193.993 26.1005V18.0535C193.993 17.798 193.8 17.6074 193.544 17.6074H190.855C190.471 17.6074 190.228 17.8629 190.151 18.0535L187.909 23.483H187.781L185.541 18.0535C185.464 17.8629 185.22 17.6074 184.836 17.6074H182.146C181.89 17.6074 181.699 17.798 181.699 18.0535V26.1005C181.699 26.356 181.89 26.5485 182.146 26.5485H184.067C184.324 26.5485 184.517 26.356 184.517 26.1005V21.8854H184.645L186.373 26.1005C186.449 26.2931 186.694 26.5485 187.078 26.5485H188.626Z" fill="#1496DF"/>
    <path d="M203.134 26.1005C203.238 26.356 203.46 26.5485 203.72 26.5485H205.927C206.187 26.5485 206.369 26.356 206.251 26.1005L202.615 18.0417C202.499 17.7862 202.291 17.6074 202.031 17.6074H199.368C199.108 17.6074 198.9 17.798 198.784 18.0535L195.148 26.1005C195.03 26.356 195.212 26.5485 195.472 26.5485H197.55C197.809 26.5485 198.031 26.356 198.135 26.1005L198.589 24.9509H202.681L203.134 26.1005ZM200.603 20.2898H200.732L201.771 22.8444H199.498L200.603 20.2898Z" fill="#1496DF"/>
    <path d="M216.719 20.8636C216.719 19.0125 215.26 17.6074 212.141 17.6074H207.497C207.231 17.6074 207.033 17.798 207.033 18.0535V26.1005C207.033 26.356 207.231 26.5485 207.497 26.5485H209.487C209.752 26.5485 209.952 26.356 209.952 26.1005V24.1217H212.141C215.26 24.1217 216.719 22.7166 216.719 20.8636ZM209.952 22.078V19.6511H212.141C213.137 19.6511 213.668 20.162 213.668 20.8636C213.668 21.5671 213.137 22.078 212.141 22.078H209.952Z" fill="#1496DF"/>
    <path d="M224.442 21.8225C224.442 21.8225 225.297 21.5671 225.996 20.2898L227.225 18.0535C227.329 17.8629 227.225 17.6074 226.903 17.6074H224.894C224.376 17.6074 224.195 17.798 224.053 18.0535L222.822 20.2898C222.615 20.673 222.37 20.9284 221.656 20.9284H220.686V18.0535C220.686 17.798 220.491 17.6074 220.232 17.6074H218.289C218.03 17.6074 217.837 17.798 217.837 18.0535V26.1005C217.837 26.356 218.03 26.5485 218.289 26.5485H220.232C220.491 26.5485 220.686 26.356 220.686 26.1005V23.0998H221.852C222.563 23.0998 222.81 23.3553 223.017 23.7385L224.312 26.1005C224.454 26.356 224.635 26.5485 225.153 26.5485H227.162C227.484 26.5485 227.588 26.2931 227.484 26.1005L226.189 23.7385C225.349 22.2057 224.442 21.9503 224.442 21.9503V21.8225Z" fill="#1496DF"/>
    <path d="M237.582 18.0535C237.582 17.798 237.384 17.6074 237.121 17.6074H229.1C228.837 17.6074 228.641 17.798 228.641 18.0535V26.1005C228.641 26.356 228.837 26.5485 229.1 26.5485H237.121C237.384 26.5485 237.582 26.356 237.582 26.1005V24.8232C237.582 24.5677 237.384 24.3771 237.121 24.3771H231.533V23.0998H235.674C235.937 23.0998 236.135 22.9072 236.135 22.6518V21.3745C236.135 21.119 235.937 20.9284 235.674 20.9284H231.533V19.7788H237.121C237.384 19.7788 237.582 19.5863 237.582 19.3308V18.0535Z" fill="#1496DF"/>
    <path d="M247.268 18.0535C247.268 17.798 247.078 17.6074 246.827 17.6074H238.767C238.515 17.6074 238.327 17.798 238.327 18.0535V19.3308C238.327 19.5863 238.515 19.7788 238.767 19.7788H241.411V26.1005C241.411 26.356 241.601 26.5485 241.853 26.5485H243.742C243.994 26.5485 244.182 26.356 244.182 26.1005V19.7788H246.827C247.078 19.7788 247.268 19.5863 247.268 19.3308V18.0535Z" fill="#1496DF"/>
    <path d="M255.304 21.4393V26.1005C255.304 26.356 255.491 26.5485 255.743 26.5485H257.631C257.883 26.5485 258.072 26.356 258.072 26.1005V18.0535C258.072 17.798 257.883 17.6074 257.631 17.6074H255.491C255.178 17.6074 254.926 17.8629 254.8 18.0535L251.654 22.7166H251.528V18.0535C251.528 17.798 251.338 17.6074 251.086 17.6074H249.198C248.947 17.6074 248.759 17.798 248.759 18.0535V26.1005C248.759 26.356 248.947 26.5485 249.198 26.5485H251.338C251.654 26.5485 251.905 26.2931 252.031 26.1005L255.178 21.4393H255.304Z" fill="#1496DF"/>
    <path d="M269.621 18.0535C269.621 17.798 269.429 17.6074 269.174 17.6074H267.26C267.005 17.6074 266.814 17.798 266.814 18.0535V21.0561H263.114V18.0535C263.114 17.798 262.922 17.6074 262.667 17.6074H260.753C260.498 17.6074 260.308 17.798 260.308 18.0535V26.1005C260.308 26.356 260.498 26.5485 260.753 26.5485H262.667C262.922 26.5485 263.114 26.356 263.114 26.1005V23.2276H266.814V26.1005C266.814 26.356 267.005 26.5485 267.26 26.5485H269.174C269.429 26.5485 269.621 26.356 269.621 26.1005V18.0535Z" fill="#1496DF"/>
    <path d="M279.68 18.0535C279.68 17.798 279.484 17.6074 279.224 17.6074H271.939C271.679 17.6074 271.484 17.798 271.484 18.0535V26.1005C271.484 26.356 271.679 26.5485 271.939 26.5485H273.89C274.15 26.5485 274.346 26.356 274.346 26.1005V19.7788H279.224C279.484 19.7788 279.68 19.5863 279.68 19.3308V18.0535Z" fill="#1496DF"/>
    <path d="M1.00054 12V6.06999H5.74698V12H4.74645V6.8875H2.00107V12H1.00054ZM8.17187 14.5013V6.06999H9.00159L9.087 6.75328H9.1236C9.39204 6.52552 9.68488 6.33029 10.0021 6.1676C10.3275 6.00492 10.6651 5.92357 11.0149 5.92357C11.7795 5.92357 12.3611 6.20014 12.7597 6.75328C13.1583 7.29829 13.3576 8.03039 13.3576 8.94958C13.3576 9.61661 13.2356 10.1901 12.9915 10.67C12.7556 11.15 12.4425 11.516 12.052 11.7682C11.6697 12.0203 11.2508 12.1464 10.7952 12.1464C10.5187 12.1464 10.2421 12.0854 9.96552 11.9634C9.69708 11.8414 9.42458 11.6746 9.14801 11.4631L9.17241 12.5003V14.5013H8.17187ZM10.6244 11.3045C11.1125 11.3045 11.5151 11.0971 11.8324 10.6822C12.1578 10.2592 12.3204 9.68168 12.3204 8.94958C12.3204 8.29883 12.1984 7.77416 11.9544 7.37557C11.7185 6.96885 11.3199 6.76549 10.7586 6.76549C10.5065 6.76549 10.2502 6.83463 9.98992 6.97291C9.73775 7.1112 9.46525 7.31049 9.17241 7.5708V10.6822C9.44085 10.91 9.70115 11.0727 9.95332 11.1703C10.2055 11.2598 10.4292 11.3045 10.6244 11.3045ZM15.367 12V6.06999H16.3432V8.53473C16.3432 8.85197 16.331 9.20175 16.3066 9.58407C16.2903 9.95825 16.27 10.3365 16.2456 10.7188H16.2944C16.4083 10.5317 16.5384 10.3202 16.6848 10.0843C16.8394 9.84031 16.9695 9.62881 17.0753 9.44985L19.3204 6.06999H20.2599V12H19.2838V9.53526C19.2838 9.21802 19.2919 8.86824 19.3082 8.48592C19.3326 8.1036 19.357 7.72128 19.3814 7.33896H19.3326C19.2268 7.51792 19.0967 7.72942 18.9421 7.97345C18.7876 8.21748 18.6574 8.42898 18.5517 8.60794L16.2944 12H15.367ZM22.6933 12V6.06999H24.975C25.6258 6.06999 26.1504 6.18794 26.549 6.42384C26.9557 6.6516 27.1591 7.03392 27.1591 7.5708C27.1591 7.89617 27.0696 8.16868 26.8907 8.38831C26.7198 8.5998 26.4799 8.75029 26.1708 8.83977V8.87637C26.5043 8.95772 26.793 9.10821 27.0371 9.32784C27.2892 9.54747 27.4153 9.87284 27.4153 10.304C27.4153 10.8896 27.1957 11.3208 26.7564 11.5973C26.3172 11.8658 25.7559 12 25.0726 12H22.6933ZM23.6816 8.55913H24.8042C25.3004 8.55913 25.6542 8.48185 25.8657 8.3273C26.0772 8.16461 26.183 7.94498 26.183 7.66841C26.183 7.39184 26.0772 7.17628 25.8657 7.02172C25.6624 6.86717 25.3329 6.78989 24.8774 6.78989H23.6816V8.55913ZM23.6816 11.2801H24.9628C25.4509 11.2801 25.8128 11.1906 26.0487 11.0117C26.2928 10.8246 26.4148 10.5683 26.4148 10.243C26.4148 9.94199 26.2887 9.70609 26.0365 9.53526C25.7844 9.36444 25.4061 9.27903 24.9018 9.27903H23.6816V11.2801ZM28.9749 12.1464C28.8691 12.1464 28.7756 12.1383 28.6942 12.122C28.6129 12.1057 28.5275 12.0813 28.438 12.0488L28.6332 11.1215C28.6739 11.1296 28.7146 11.1418 28.7552 11.1581C28.7959 11.1662 28.8447 11.1703 28.9016 11.1703C29.1131 11.1703 29.284 11.0727 29.4141 10.8774C29.5443 10.6741 29.6378 10.3528 29.6948 9.91352C29.7761 9.27089 29.8534 8.63234 29.9266 7.99785C29.9998 7.35523 30.073 6.71261 30.1462 6.06999H33.7945V12H32.7818V6.8875H30.9393C30.8824 7.43251 30.8173 7.98159 30.7441 8.53473C30.679 9.07973 30.6139 9.62474 30.5489 10.1698C30.378 11.4875 29.8534 12.1464 28.9749 12.1464ZM38.6294 12.1464C38.1007 12.1464 37.6207 12.0244 37.1896 11.7804C36.7585 11.5282 36.4169 11.1703 36.1647 10.7066C35.9125 10.243 35.7864 9.68982 35.7864 9.0472C35.7864 8.39644 35.9125 7.83923 36.1647 7.37557C36.425 6.91191 36.7585 6.55399 37.1652 6.30182C37.5719 6.04965 37.999 5.92357 38.4464 5.92357C39.2029 5.92357 39.7845 6.17574 40.1912 6.68007C40.6061 7.18441 40.8135 7.85957 40.8135 8.70555C40.8135 8.8113 40.8095 8.91705 40.8013 9.02279C40.8013 9.12041 40.7932 9.20582 40.7769 9.27903H36.7748C36.8154 9.90538 37.0107 10.4056 37.3604 10.7798C37.7184 11.154 38.182 11.3411 38.7514 11.3411C39.0361 11.3411 39.2964 11.3004 39.5323 11.2191C39.7764 11.1296 40.0082 11.0157 40.2278 10.8774L40.5817 11.5363C40.3295 11.699 40.0407 11.8414 39.7154 11.9634C39.3981 12.0854 39.0361 12.1464 38.6294 12.1464ZM36.7626 8.55913H39.935C39.935 7.95718 39.8048 7.50165 39.5445 7.19254C39.2924 6.8753 38.9345 6.71668 38.4708 6.71668C38.0559 6.71668 37.6818 6.87937 37.3482 7.20475C37.0229 7.52199 36.8276 7.97345 36.7626 8.55913ZM42.7059 12V6.06999H43.7065V8.51032H44.8534L45.4391 7.19254C45.6018 6.83463 45.7604 6.56619 45.915 6.38723C46.0695 6.20014 46.2363 6.07813 46.4152 6.02118C46.5942 5.95611 46.7894 5.92357 47.0009 5.92357C47.1311 5.92357 47.2449 5.94391 47.3426 5.98458L47.1717 6.92411C47.1229 6.90784 47.0578 6.8997 46.9765 6.8997C46.8219 6.8997 46.6796 6.94444 46.5494 7.03392C46.4193 7.1234 46.2729 7.3471 46.1102 7.70501L45.6099 8.87637L47.6232 12H46.525L44.8778 9.32784H43.7065V12H42.7059ZM50.4574 12.1464C49.9612 12.1464 49.5464 12 49.2128 11.7072C48.8875 11.4062 48.7248 10.9913 48.7248 10.4626C48.7248 9.81183 49.0135 9.31563 49.5911 8.97399C50.1768 8.62421 51.1 8.38017 52.3609 8.24189C52.3609 7.98972 52.3243 7.74975 52.2511 7.52199C52.186 7.29422 52.064 7.1112 51.885 6.97291C51.7142 6.82649 51.4661 6.75328 51.1407 6.75328C50.7991 6.75328 50.4777 6.81836 50.1768 6.94851C49.8758 7.07866 49.6074 7.22508 49.3715 7.38777L48.981 6.69228C49.2576 6.51332 49.5952 6.34249 49.9937 6.17981C50.4005 6.00898 50.8397 5.92357 51.3115 5.92357C52.0355 5.92357 52.5602 6.14727 52.8855 6.59466C53.2109 7.03392 53.3736 7.62367 53.3736 8.3639V12H52.5439L52.4585 11.2923H52.4219C52.1453 11.5201 51.8403 11.7194 51.5068 11.8902C51.1814 12.061 50.8316 12.1464 50.4574 12.1464ZM50.7502 11.3411C51.035 11.3411 51.3034 11.272 51.5556 11.1337C51.8077 10.9954 52.0762 10.8002 52.3609 10.548V8.90078C51.3766 9.02279 50.6852 9.20582 50.2866 9.44985C49.8961 9.69389 49.7009 10.0071 49.7009 10.3894C49.7009 10.7229 49.8026 10.9669 50.0059 11.1215C50.2093 11.2679 50.4574 11.3411 50.7502 11.3411ZM58.0701 12.1464C57.5414 12.1464 57.0614 12.0244 56.6303 11.7804C56.1992 11.5282 55.8575 11.1703 55.6054 10.7066C55.3532 10.243 55.2271 9.68982 55.2271 9.0472C55.2271 8.39644 55.3532 7.83923 55.6054 7.37557C55.8657 6.91191 56.1992 6.55399 56.6059 6.30182C57.0126 6.04965 57.4397 5.92357 57.8871 5.92357C58.6436 5.92357 59.2252 6.17574 59.6319 6.68007C60.0468 7.18441 60.2542 7.85957 60.2542 8.70555C60.2542 8.8113 60.2501 8.91705 60.242 9.02279C60.242 9.12041 60.2339 9.20582 60.2176 9.27903H56.2154C56.2561 9.90538 56.4513 10.4056 56.8011 10.7798C57.159 11.154 57.6227 11.3411 58.1921 11.3411C58.4768 11.3411 58.7371 11.3004 58.973 11.2191C59.2171 11.1296 59.4489 11.0157 59.6685 10.8774L60.0224 11.5363C59.7702 11.699 59.4814 11.8414 59.156 11.9634C58.8388 12.0854 58.4768 12.1464 58.0701 12.1464ZM56.2032 8.55913H59.3757C59.3757 7.95718 59.2455 7.50165 58.9852 7.19254C58.7331 6.8753 58.3751 6.71668 57.9115 6.71668C57.4966 6.71668 57.1224 6.87937 56.7889 7.20475C56.4635 7.52199 56.2683 7.97345 56.2032 8.55913ZM62.1466 12V6.06999H63.3058L64.4649 8.85197C64.5544 9.096 64.6439 9.34004 64.7334 9.58407C64.831 9.81997 64.9204 10.0559 65.0018 10.2918H65.0506C65.1401 10.0559 65.2296 9.81997 65.319 9.58407C65.4166 9.34004 65.5061 9.096 65.5875 8.85197L66.7222 6.06999H67.8692V12H66.9541V9.34004C66.9541 9.16108 66.9581 8.95365 66.9663 8.71775C66.9825 8.47372 66.9988 8.22562 67.0151 7.97345C67.0395 7.72128 67.0598 7.49352 67.0761 7.29016H67.0273C66.9459 7.51792 66.8564 7.75382 66.7588 7.99785C66.6612 8.24189 66.5677 8.47372 66.4782 8.69335L65.3556 11.4387H64.6845L63.5376 8.69335C63.4562 8.47372 63.3668 8.24189 63.2692 7.99785C63.1715 7.75382 63.078 7.51792 62.9885 7.29016H62.9397C62.956 7.49352 62.9722 7.72128 62.9885 7.97345C63.0048 8.22562 63.017 8.47372 63.0251 8.71775C63.0414 8.95365 63.0495 9.16108 63.0495 9.34004V12H62.1466ZM73.1648 12V6.06999H77.9112V12H76.9107V6.8875H74.1653V12H73.1648ZM81.7027 12.1464C81.2065 12.1464 80.7917 12 80.4582 11.7072C80.1328 11.4062 79.9701 10.9913 79.9701 10.4626C79.9701 9.81183 80.2589 9.31563 80.8364 8.97399C81.4221 8.62421 82.3453 8.38017 83.6062 8.24189C83.6062 7.98972 83.5696 7.74975 83.4964 7.52199C83.4313 7.29422 83.3093 7.1112 83.1303 6.97291C82.9595 6.82649 82.7114 6.75328 82.386 6.75328C82.0444 6.75328 81.7231 6.81836 81.4221 6.94851C81.1211 7.07866 80.8527 7.22508 80.6168 7.38777L80.2263 6.69228C80.5029 6.51332 80.8405 6.34249 81.2391 6.17981C81.6458 6.00898 82.085 5.92357 82.5568 5.92357C83.2808 5.92357 83.8055 6.14727 84.1309 6.59466C84.4562 7.03392 84.6189 7.62367 84.6189 8.3639V12H83.7892L83.7038 11.2923H83.6672C83.3906 11.5201 83.0856 11.7194 82.7521 11.8902C82.4267 12.061 82.0769 12.1464 81.7027 12.1464ZM81.9956 11.3411C82.2803 11.3411 82.5487 11.272 82.8009 11.1337C83.053 10.9954 83.3215 10.8002 83.6062 10.548V8.90078C82.6219 9.02279 81.9305 9.20582 81.5319 9.44985C81.1414 9.69389 80.9462 10.0071 80.9462 10.3894C80.9462 10.7229 81.0479 10.9669 81.2513 11.1215C81.4546 11.2679 81.7027 11.3411 81.9956 11.3411ZM91.4751 14.0987V12H86.9117V6.06999H87.9122V11.1825H90.5722V6.06999H91.5727V11.1825H92.439V11.817L92.3414 14.0987H91.4751ZM94.0949 12V6.06999H95.0711V8.53473C95.0711 8.85197 95.0589 9.20175 95.0345 9.58407C95.0182 9.95825 94.9979 10.3365 94.9735 10.7188H95.0223C95.1362 10.5317 95.2663 10.3202 95.4127 10.0843C95.5673 9.84031 95.6974 9.62881 95.8032 9.44985L98.0483 6.06999H98.9878V12H98.0117V9.53526C98.0117 9.21802 98.0198 8.86824 98.0361 8.48592C98.0605 8.1036 98.0849 7.72128 98.1093 7.33896H98.0605C97.9547 7.51792 97.8246 7.72942 97.67 7.97345C97.5155 8.21748 97.3853 8.42898 97.2796 8.60794L95.0223 12H94.0949ZM103.825 12.1464C103.296 12.1464 102.816 12.0244 102.385 11.7804C101.954 11.5282 101.612 11.1703 101.36 10.7066C101.108 10.243 100.982 9.68982 100.982 9.0472C100.982 8.39644 101.108 7.83923 101.36 7.37557C101.62 6.91191 101.954 6.55399 102.361 6.30182C102.767 6.04965 103.194 5.92357 103.642 5.92357C104.398 5.92357 104.98 6.17574 105.387 6.68007C105.802 7.18441 106.009 7.85957 106.009 8.70555C106.009 8.8113 106.005 8.91705 105.997 9.02279C105.997 9.12041 105.989 9.20582 105.972 9.27903H101.97C102.011 9.90538 102.206 10.4056 102.556 10.7798C102.914 11.154 103.378 11.3411 103.947 11.3411C104.232 11.3411 104.492 11.3004 104.728 11.2191C104.972 11.1296 105.204 11.0157 105.423 10.8774L105.777 11.5363C105.525 11.699 105.236 11.8414 104.911 11.9634C104.594 12.0854 104.232 12.1464 103.825 12.1464ZM101.958 8.55913H105.13C105.13 7.95718 105 7.50165 104.74 7.19254C104.488 6.8753 104.13 6.71668 103.666 6.71668C103.251 6.71668 102.877 6.87937 102.544 7.20475C102.218 7.52199 102.023 7.97345 101.958 8.55913ZM107.901 12V6.06999H108.902V8.47372H111.757V6.06999H112.758V12H111.757V9.36444H108.902V12H107.901ZM116.486 12V6.8875H114.497V6.06999H119.475V6.8875H117.486V12H116.486ZM123.359 12.1464C122.879 12.1464 122.427 12.0244 122.004 11.7804C121.589 11.5363 121.252 11.1825 120.992 10.7188C120.739 10.2552 120.613 9.69795 120.613 9.0472C120.613 8.38017 120.739 7.81483 120.992 7.35117C121.252 6.8875 121.589 6.53365 122.004 6.28962C122.427 6.04559 122.879 5.92357 123.359 5.92357C123.847 5.92357 124.298 6.04559 124.713 6.28962C125.128 6.53365 125.461 6.8875 125.714 7.35117C125.974 7.81483 126.104 8.38017 126.104 9.0472C126.104 9.69795 125.974 10.2552 125.714 10.7188C125.461 11.1825 125.128 11.5363 124.713 11.7804C124.298 12.0244 123.847 12.1464 123.359 12.1464ZM123.359 11.3167C123.871 11.3167 124.282 11.1093 124.591 10.6944C124.908 10.2714 125.067 9.72236 125.067 9.0472C125.067 8.3639 124.908 7.81076 124.591 7.38777C124.282 6.96478 123.871 6.75328 123.359 6.75328C122.854 6.75328 122.444 6.96478 122.126 7.38777C121.809 7.81076 121.65 8.3639 121.65 9.0472C121.65 9.72236 121.809 10.2714 122.126 10.6944C122.444 11.1093 122.854 11.3167 123.359 11.3167ZM128.093 12V6.06999H130.374C131.025 6.06999 131.55 6.18794 131.949 6.42384C132.355 6.6516 132.559 7.03392 132.559 7.5708C132.559 7.89617 132.469 8.16868 132.29 8.38831C132.119 8.5998 131.879 8.75029 131.57 8.83977V8.87637C131.904 8.95772 132.193 9.10821 132.437 9.32784C132.689 9.54747 132.815 9.87284 132.815 10.304C132.815 10.8896 132.595 11.3208 132.156 11.5973C131.717 11.8658 131.155 12 130.472 12H128.093ZM129.081 8.55913H130.204C130.7 8.55913 131.054 8.48185 131.265 8.3273C131.477 8.16461 131.582 7.94498 131.582 7.66841C131.582 7.39184 131.477 7.17628 131.265 7.02172C131.062 6.86717 130.732 6.78989 130.277 6.78989H129.081V8.55913ZM129.081 11.2801H130.362C130.85 11.2801 131.212 11.1906 131.448 11.0117C131.692 10.8246 131.814 10.5683 131.814 10.243C131.814 9.94199 131.688 9.70609 131.436 9.53526C131.184 9.36444 130.806 9.27903 130.301 9.27903H129.081V11.2801ZM1.00054 27V21.07H3.28225C3.933 21.07 4.45767 21.1879 4.85626 21.4238C5.26298 21.6516 5.46635 22.0339 5.46635 22.5708C5.46635 22.8962 5.37687 23.1687 5.19791 23.3883C5.02709 23.5998 4.78712 23.7503 4.47801 23.8398V23.8764C4.81152 23.9577 5.1003 24.1082 5.34433 24.3278C5.5965 24.5475 5.72258 24.8728 5.72258 25.304C5.72258 25.8896 5.50295 26.3208 5.06369 26.5973C4.62443 26.8658 4.06315 27 3.37986 27H1.00054ZM1.98887 23.5591H3.11142C3.60763 23.5591 3.96147 23.4819 4.17297 23.3273C4.38446 23.1646 4.49021 22.945 4.49021 22.6684C4.49021 22.3918 4.38446 22.1763 4.17297 22.0217C3.96961 21.8672 3.64016 21.7899 3.18463 21.7899H1.98887V23.5591ZM1.98887 26.2801H3.27005C3.75811 26.2801 4.1201 26.1906 4.35599 26.0117C4.60003 25.8246 4.72204 25.5683 4.72204 25.243C4.72204 24.942 4.59596 24.7061 4.34379 24.5353C4.09162 24.3644 3.71337 24.279 3.20904 24.279H1.98887V26.2801ZM7.62375 27V21.07H8.78291L9.94207 23.852C10.0315 24.096 10.121 24.34 10.2105 24.5841C10.3081 24.82 10.3976 25.0559 10.4789 25.2918H10.5277C10.6172 25.0559 10.7067 24.82 10.7962 24.5841C10.8938 24.34 10.9833 24.096 11.0646 23.852L12.1994 21.07H13.3463V27H12.4312V24.34C12.4312 24.1611 12.4353 23.9537 12.4434 23.7178C12.4597 23.4737 12.4759 23.2256 12.4922 22.9735C12.5166 22.7213 12.537 22.4935 12.5532 22.2902H12.5044C12.4231 22.5179 12.3336 22.7538 12.236 22.9979C12.1384 23.2419 12.0448 23.4737 11.9553 23.6933L10.8328 26.4387H10.1617L9.01474 23.6933C8.9334 23.4737 8.84392 23.2419 8.74631 22.9979C8.64869 22.7538 8.55515 22.5179 8.46567 22.2902H8.41686C8.43313 22.4935 8.4494 22.7213 8.46567 22.9735C8.48194 23.2256 8.49414 23.4737 8.50227 23.7178C8.51854 23.9537 8.52668 24.1611 8.52668 24.34V27H7.62375ZM18.1759 27.1464C17.6472 27.1464 17.1672 27.0244 16.7361 26.7804C16.305 26.5282 15.9633 26.1703 15.7112 25.7066C15.459 25.243 15.3329 24.6898 15.3329 24.0472C15.3329 23.3964 15.459 22.8392 15.7112 22.3756C15.9715 21.9119 16.305 21.554 16.7117 21.3018C17.1184 21.0497 17.5455 20.9236 17.9929 20.9236C18.7494 20.9236 19.331 21.1757 19.7377 21.6801C20.1526 22.1844 20.36 22.8596 20.36 23.7056C20.36 23.8113 20.3559 23.917 20.3478 24.0228C20.3478 24.1204 20.3397 24.2058 20.3234 24.279H16.3213C16.3619 24.9054 16.5572 25.4056 16.9069 25.7798C17.2648 26.154 17.7285 26.3411 18.2979 26.3411C18.5826 26.3411 18.8429 26.3004 19.0788 26.2191C19.3229 26.1296 19.5547 26.0157 19.7743 25.8774L20.1282 26.5363C19.876 26.699 19.5872 26.8414 19.2619 26.9634C18.9446 27.0854 18.5826 27.1464 18.1759 27.1464ZM16.309 23.5591H19.4815C19.4815 22.9572 19.3513 22.5017 19.091 22.1925C18.8389 21.8753 18.4809 21.7167 18.0173 21.7167C17.6024 21.7167 17.2282 21.8794 16.8947 22.2047C16.5694 22.522 16.3741 22.9735 16.309 23.5591ZM24.5951 27.1464C24.0745 27.1464 23.6027 27.0244 23.1797 26.7804C22.7567 26.5363 22.4232 26.1825 22.1792 25.7188C21.9352 25.2552 21.8131 24.698 21.8131 24.0472C21.8131 23.3802 21.9433 22.8148 22.2036 22.3512C22.472 21.8875 22.8218 21.5337 23.2529 21.2896C23.6922 21.0456 24.164 20.9236 24.6683 20.9236C25.0588 20.9236 25.3923 20.9927 25.6689 21.131C25.9536 21.2693 26.1976 21.432 26.401 21.6191L25.8885 22.278C25.7177 22.1234 25.5347 21.9973 25.3394 21.8997C25.1523 21.8021 24.9408 21.7533 24.7049 21.7533C24.347 21.7533 24.0257 21.8509 23.741 22.0461C23.4644 22.2332 23.2448 22.5017 23.0821 22.8514C22.9276 23.1931 22.8503 23.5917 22.8503 24.0472C22.8503 24.7224 23.017 25.2714 23.3506 25.6944C23.6922 26.1093 24.1355 26.3167 24.6805 26.3167C24.9571 26.3167 25.2133 26.2598 25.4492 26.1459C25.6851 26.0239 25.8926 25.8815 26.0715 25.7188L26.5108 26.3899C26.2423 26.6258 25.9454 26.8129 25.6201 26.9512C25.2947 27.0813 24.953 27.1464 24.5951 27.1464ZM29.4305 27V21.8875H27.4416V21.07H32.4199V21.8875H30.431V27H29.4305ZM36.4012 27.1464C35.8724 27.1464 35.3925 27.0244 34.9614 26.7804C34.5303 26.5282 34.1886 26.1703 33.9364 25.7066C33.6843 25.243 33.5582 24.6898 33.5582 24.0472C33.5582 23.3964 33.6843 22.8392 33.9364 22.3756C34.1968 21.9119 34.5303 21.554 34.937 21.3018C35.3437 21.0497 35.7708 20.9236 36.2182 20.9236C36.9747 20.9236 37.5563 21.1757 37.963 21.6801C38.3779 22.1844 38.5853 22.8596 38.5853 23.7056C38.5853 23.8113 38.5812 23.917 38.5731 24.0228C38.5731 24.1204 38.5649 24.2058 38.5487 24.279H34.5465C34.5872 24.9054 34.7824 25.4056 35.1322 25.7798C35.4901 26.154 35.9538 26.3411 36.5232 26.3411C36.8079 26.3411 37.0682 26.3004 37.3041 26.2191C37.5481 26.1296 37.78 26.0157 37.9996 25.8774L38.3535 26.5363C38.1013 26.699 37.8125 26.8414 37.4871 26.9634C37.1699 27.0854 36.8079 27.1464 36.4012 27.1464ZM34.5343 23.5591H37.7068C37.7068 22.9572 37.5766 22.5017 37.3163 22.1925C37.0641 21.8753 36.7062 21.7167 36.2426 21.7167C35.8277 21.7167 35.4535 21.8794 35.12 22.2047C34.7946 22.522 34.5994 22.9735 34.5343 23.5591ZM45.6902 27.1464C45.1696 27.1464 44.6978 27.0244 44.2748 26.7804C43.8518 26.5363 43.5183 26.1825 43.2743 25.7188C43.0302 25.2552 42.9082 24.698 42.9082 24.0472C42.9082 23.3802 43.0384 22.8148 43.2987 22.3512C43.5671 21.8875 43.9169 21.5337 44.348 21.2896C44.7873 21.0456 45.2591 20.9236 45.7634 20.9236C46.1538 20.9236 46.4874 20.9927 46.7639 21.131C47.0486 21.2693 47.2927 21.432 47.496 21.6191L46.9836 22.278C46.8127 22.1234 46.6297 21.9973 46.4345 21.8997C46.2474 21.8021 46.0359 21.7533 45.8 21.7533C45.4421 21.7533 45.1208 21.8509 44.8361 22.0461C44.5595 22.2332 44.3399 22.5017 44.1772 22.8514C44.0226 23.1931 43.9453 23.5917 43.9453 24.0472C43.9453 24.7224 44.1121 25.2714 44.4456 25.6944C44.7873 26.1093 45.2306 26.3167 45.7756 26.3167C46.0522 26.3167 46.3084 26.2598 46.5443 26.1459C46.7802 26.0239 46.9876 25.8815 47.1666 25.7188L47.6058 26.3899C47.3374 26.6258 47.0405 26.8129 46.7151 26.9512C46.3897 27.0813 46.0481 27.1464 45.6902 27.1464ZM52.2089 27V21.07H53.2095V23.5103H54.3564L54.9421 22.1925C55.1048 21.8346 55.2634 21.5662 55.418 21.3872C55.5725 21.2001 55.7393 21.0781 55.9182 21.0212C56.0972 20.9561 56.2924 20.9236 56.5039 20.9236C56.6341 20.9236 56.7479 20.9439 56.8456 20.9846L56.6747 21.9241C56.6259 21.9078 56.5608 21.8997 56.4795 21.8997C56.3249 21.8997 56.1826 21.9444 56.0524 22.0339C55.9223 22.1234 55.7759 22.3471 55.6132 22.705L55.1129 23.8764L57.1262 27H56.028L54.3808 24.3278H53.2095V27H52.2089ZM60.8165 27.1464C60.3366 27.1464 59.8851 27.0244 59.4621 26.7804C59.0473 26.5363 58.7097 26.1825 58.4494 25.7188C58.1972 25.2552 58.0712 24.698 58.0712 24.0472C58.0712 23.3802 58.1972 22.8148 58.4494 22.3512C58.7097 21.8875 59.0473 21.5337 59.4621 21.2896C59.8851 21.0456 60.3366 20.9236 60.8165 20.9236C61.3046 20.9236 61.7561 21.0456 62.1709 21.2896C62.5858 21.5337 62.9193 21.8875 63.1714 22.3512C63.4318 22.8148 63.5619 23.3802 63.5619 24.0472C63.5619 24.698 63.4318 25.2552 63.1714 25.7188C62.9193 26.1825 62.5858 26.5363 62.1709 26.7804C61.7561 27.0244 61.3046 27.1464 60.8165 27.1464ZM60.8165 26.3167C61.329 26.3167 61.7398 26.1093 62.0489 25.6944C62.3661 25.2714 62.5248 24.7224 62.5248 24.0472C62.5248 23.3639 62.3661 22.8108 62.0489 22.3878C61.7398 21.9648 61.329 21.7533 60.8165 21.7533C60.3122 21.7533 59.9014 21.9648 59.5842 22.3878C59.2669 22.8108 59.1083 23.3639 59.1083 24.0472C59.1083 24.7224 59.2669 25.2714 59.5842 25.6944C59.9014 26.1093 60.3122 26.3167 60.8165 26.3167ZM65.5507 27V21.07H66.7098L67.869 23.852C67.9585 24.096 68.048 24.34 68.1374 24.5841C68.235 24.82 68.3245 25.0559 68.4059 25.2918H68.4547C68.5442 25.0559 68.6336 24.82 68.7231 24.5841C68.8207 24.34 68.9102 24.096 68.9915 23.852L70.1263 21.07H71.2733V27H70.3581V24.34C70.3581 24.1611 70.3622 23.9537 70.3703 23.7178C70.3866 23.4737 70.4029 23.2256 70.4191 22.9735C70.4435 22.7213 70.4639 22.4935 70.4801 22.2902H70.4313C70.35 22.5179 70.2605 22.7538 70.1629 22.9979C70.0653 23.2419 69.9717 23.4737 69.8823 23.6933L68.7597 26.4387H68.0886L66.9417 23.6933C66.8603 23.4737 66.7708 23.2419 66.6732 22.9979C66.5756 22.7538 66.4821 22.5179 66.3926 22.2902H66.3438C66.3601 22.4935 66.3763 22.7213 66.3926 22.9735C66.4089 23.2256 66.4211 23.4737 66.4292 23.7178C66.4455 23.9537 66.4536 24.1611 66.4536 24.34V27H65.5507ZM73.6991 27V21.07H78.4455V27H77.445V21.8875H74.6996V27H73.6991ZM82.237 27.1464C81.7408 27.1464 81.326 27 80.9925 26.7072C80.6671 26.4062 80.5044 25.9913 80.5044 25.4626C80.5044 24.8118 80.7932 24.3156 81.3707 23.974C81.9564 23.6242 82.8796 23.3802 84.1405 23.2419C84.1405 22.9897 84.1039 22.7498 84.0307 22.522C83.9656 22.2942 83.8436 22.1112 83.6646 21.9729C83.4938 21.8265 83.2457 21.7533 82.9203 21.7533C82.5787 21.7533 82.2574 21.8184 81.9564 21.9485C81.6554 22.0787 81.387 22.2251 81.1511 22.3878L80.7606 21.6923C81.0372 21.5133 81.3748 21.3425 81.7734 21.1798C82.1801 21.009 82.6193 20.9236 83.0911 20.9236C83.8151 20.9236 84.3398 21.1473 84.6652 21.5947C84.9905 22.0339 85.1532 22.6237 85.1532 23.3639V27H84.3235L84.2381 26.2923H84.2015C83.9249 26.5201 83.6199 26.7194 83.2864 26.8902C82.961 27.061 82.6112 27.1464 82.237 27.1464ZM82.5299 26.3411C82.8146 26.3411 83.083 26.272 83.3352 26.1337C83.5873 25.9954 83.8558 25.8002 84.1405 25.548V23.9008C83.1562 24.0228 82.4648 24.2058 82.0662 24.4499C81.6757 24.6939 81.4805 25.0071 81.4805 25.3894C81.4805 25.7229 81.5822 25.9669 81.7856 26.1215C81.9889 26.2679 82.237 26.3411 82.5299 26.3411ZM87.446 27V21.07H88.4465V23.4737H91.3017V21.07H92.3022V27H91.3017V24.3644H88.4465V27H87.446ZM94.7246 27V21.07H95.7007V23.5347C95.7007 23.852 95.6885 24.2018 95.6641 24.5841C95.6478 24.9583 95.6275 25.3365 95.6031 25.7188H95.6519C95.7658 25.5317 95.8959 25.3202 96.0423 25.0843C96.1969 24.8403 96.3271 24.6288 96.4328 24.4499L98.6779 21.07H99.6174V27H98.6413V24.5353C98.6413 24.218 98.6494 23.8682 98.6657 23.4859C98.6901 23.1036 98.7145 22.7213 98.7389 22.339H98.6901C98.5844 22.5179 98.4542 22.7294 98.2997 22.9735C98.1451 23.2175 98.0149 23.429 97.9092 23.6079L95.6519 27H94.7246ZM104.455 27.1464C103.926 27.1464 103.446 27.0244 103.015 26.7804C102.584 26.5282 102.242 26.1703 101.99 25.7066C101.738 25.243 101.612 24.6898 101.612 24.0472C101.612 23.3964 101.738 22.8392 101.99 22.3756C102.25 21.9119 102.584 21.554 102.99 21.3018C103.397 21.0497 103.824 20.9236 104.272 20.9236C105.028 20.9236 105.61 21.1757 106.016 21.6801C106.431 22.1844 106.639 22.8596 106.639 23.7056C106.639 23.8113 106.635 23.917 106.626 24.0228C106.626 24.1204 106.618 24.2058 106.602 24.279H102.6C102.641 24.9054 102.836 25.4056 103.186 25.7798C103.543 26.154 104.007 26.3411 104.577 26.3411C104.861 26.3411 105.122 26.3004 105.357 26.2191C105.601 26.1296 105.833 26.0157 106.053 25.8774L106.407 26.5363C106.155 26.699 105.866 26.8414 105.54 26.9634C105.223 27.0854 104.861 27.1464 104.455 27.1464ZM102.588 23.5591H105.76C105.76 22.9572 105.63 22.5017 105.37 22.1925C105.117 21.8753 104.76 21.7167 104.296 21.7167C103.881 21.7167 103.507 21.8794 103.173 22.2047C102.848 22.522 102.653 22.9735 102.588 23.5591ZM108.531 27V21.07H109.507V23.5347C109.507 23.852 109.495 24.2018 109.471 24.5841C109.454 24.9583 109.434 25.3365 109.41 25.7188H109.458C109.572 25.5317 109.702 25.3202 109.849 25.0843C110.003 24.8403 110.134 24.6288 110.239 24.4499L112.484 21.07H113.424V27H112.448V24.5353C112.448 24.218 112.456 23.8682 112.472 23.4859C112.497 23.1036 112.521 22.7213 112.545 22.339H112.497C112.391 22.5179 112.261 22.7294 112.106 22.9735C111.952 23.2175 111.821 23.429 111.716 23.6079L109.458 27H108.531ZM111.008 20.0084C110.552 20.0084 110.186 19.919 109.91 19.74C109.641 19.5611 109.442 19.3292 109.312 19.0445C109.182 18.7598 109.109 18.4588 109.092 18.1416H109.922C109.938 18.4914 110.024 18.7923 110.178 19.0445C110.333 19.2967 110.609 19.4228 111.008 19.4228C111.415 19.4228 111.695 19.2967 111.85 19.0445C112.004 18.7923 112.086 18.4914 112.094 18.1416H112.924C112.907 18.4588 112.834 18.7598 112.704 19.0445C112.574 19.3292 112.37 19.5611 112.094 19.74C111.825 19.919 111.464 20.0084 111.008 20.0084Z" fill="#1C1C1E"/>
    <defs>
        <linearGradient id="paint0_linear_2008_16102" x1="170.739" y1="18.4839" x2="168.299" y2="26.5833" gradientUnits="userSpaceOnUse">
            <stop stop-color="#51C1FF"/>
            <stop offset="1" stop-color="#BBE7FF"/>
        </linearGradient>
        <linearGradient id="paint1_linear_2008_16102" x1="160.934" y1="0.246094" x2="160.934" y2="26.3152" gradientUnits="userSpaceOnUse">
            <stop stop-color="#51C1FF"/>
            <stop offset="1" stop-color="#BBE7FF"/>
        </linearGradient>
        <linearGradient id="paint2_linear_2008_16102" x1="166.799" y1="0.240234" x2="166.799" y2="26.3851" gradientUnits="userSpaceOnUse">
            <stop stop-color="#1496DF"/>
            <stop offset="1" stop-color="#2295E1"/>
        </linearGradient>
        <linearGradient id="paint3_linear_2008_16102" x1="149.06" y1="7.67969" x2="149.06" y2="26.2707" gradientUnits="userSpaceOnUse">
            <stop stop-color="#51C1FF"/>
            <stop offset="1" stop-color="#BBE7FF"/>
        </linearGradient>
        <linearGradient id="paint4_linear_2008_16102" x1="143.706" y1="17.6729" x2="143.706" y2="26.2472" gradientUnits="userSpaceOnUse">
            <stop stop-color="#1496DF"/>
            <stop offset="1" stop-color="#2295E1"/>
        </linearGradient>
        <linearGradient id="paint5_linear_2008_16102" x1="155.281" y1="7.62598" x2="155.281" y2="26.2881" gradientUnits="userSpaceOnUse">
            <stop stop-color="#1496DF"/>
            <stop offset="1" stop-color="#2295E1"/>
        </linearGradient>
    </defs>
</svg>
