<svg width="133" height="132" viewBox="0 0 133 132" fill="none" xmlns="http://www.w3.org/2000/svg">
<ellipse cx="66.2715" cy="65.7732" rx="66.2715" ry="65.7732" fill="#3EBEC4" fill-opacity="0.19"/>
<path d="M64.8779 95.8468C65.0896 96.0614 65.3418 96.2317 65.6199 96.3479C65.898 96.4642 66.1964 96.5241 66.4978 96.5241C66.7992 96.5241 67.0976 96.4642 67.3757 96.3479C67.6538 96.2317 67.906 96.0614 68.1177 95.8468L75.7274 88.3178C75.0353 88.5091 74.333 88.6617 73.624 88.7751L67.2967 95.0349C67.1916 95.1416 67.0662 95.2261 66.9279 95.2836C66.7896 95.341 66.6412 95.3701 66.4915 95.3693C66.3418 95.3684 66.1937 95.3376 66.0561 95.2787C65.9184 95.2197 65.794 95.1337 65.6901 95.0259L36.0644 65.7137C34.8028 64.4313 33.7437 62.9645 32.9232 61.3636H42.9946C43.1028 61.3636 43.2088 61.3332 43.3005 61.2759C43.3922 61.2186 43.466 61.1366 43.5134 61.0394L45.9486 56.0544L51.3553 61.6117C51.425 61.6832 51.512 61.7355 51.6079 61.7634C51.7038 61.7912 51.8053 61.7938 51.9025 61.7707C51.9997 61.7476 52.0892 61.6998 52.1623 61.6318C52.2355 61.5638 52.2897 61.478 52.3198 61.3827L55.8746 50.1232L56.1588 56.0459C56.5126 55.6648 56.8794 55.296 57.2623 54.9436L57.0677 50.8926L56.8732 46.8416C56.8667 46.7062 56.8128 46.5774 56.7209 46.4777C56.6291 46.3781 56.505 46.3139 56.3706 46.2965C56.2362 46.2791 56.0999 46.3095 55.9857 46.3825C55.8714 46.4555 55.7865 46.5663 55.7458 46.6956L51.5096 60.1141L46.204 54.6611C46.1394 54.5947 46.0598 54.5448 45.9719 54.5157C45.884 54.4865 45.7904 54.479 45.6989 54.4936C45.6075 54.5083 45.5209 54.5447 45.4465 54.5999C45.3721 54.6551 45.312 54.7273 45.2714 54.8105L42.634 60.2088H32.4337C32.4151 60.2088 32.399 60.2178 32.3807 60.2195C31.2681 57.6458 30.6966 54.8708 30.7016 52.0669C30.6379 46.9922 32.5629 42.0941 36.0646 38.4206C37.7547 36.7078 39.7682 35.3478 41.9882 34.4196C44.2081 33.4913 46.5904 33.0133 48.9966 33.0133C51.4029 33.0133 53.7851 33.4913 56.0051 34.4196C58.2251 35.3478 60.2386 36.7078 61.9287 38.4206L65.6771 42.2018C65.7845 42.31 65.9122 42.396 66.0529 42.4546C66.1937 42.5133 66.3446 42.5435 66.4971 42.5435C66.6496 42.5435 66.8005 42.5133 66.9413 42.4546C67.082 42.396 67.2097 42.31 67.3171 42.2018L71.0746 38.4139C72.7648 36.7022 74.7782 35.3433 76.9978 34.416C79.2175 33.4887 81.5992 33.0116 84.0047 33.0122C86.4103 33.0128 88.7918 33.4912 91.0109 34.4197C93.2301 35.3481 95.2428 36.7081 96.9321 38.4206C100.435 42.0952 102.36 46.9947 102.297 52.0708C102.301 54.8494 101.74 57.5998 100.646 60.1542C100.619 60.1467 100.592 60.1413 100.565 60.1378H87.846C88.0487 60.515 88.2364 60.9012 88.4149 61.2926H100.114C99.2898 62.9182 98.2192 64.4068 96.9403 65.7058L89.8893 72.6823C89.769 73.3891 89.6099 74.0888 89.4126 74.7781L97.7525 66.5268C105.35 58.8663 105.353 45.2781 97.7525 37.6076C95.9558 35.7867 93.8154 34.3408 91.4554 33.3537C89.0955 32.3667 86.5631 31.8581 84.005 31.8574C81.447 31.8568 78.9143 32.3642 76.5539 33.3501C74.1935 34.336 72.0523 35.7808 70.2547 37.6008C70.248 37.6076 66.4972 41.3887 66.4972 41.3887L62.7488 37.6075C60.9513 35.7865 58.81 34.3405 56.4493 33.3536C54.0885 32.3668 51.5553 31.8586 48.9965 31.8586C46.4378 31.8586 43.9045 32.3668 41.5437 33.3536C39.183 34.3405 37.0417 35.7865 35.2442 37.6075C27.6478 45.2713 27.6478 58.8629 35.2442 66.5268L64.8779 95.8468Z" fill="#2D4356"/>
<path d="M70.6957 56.111L70.434 56.1094C66.9217 56.1376 63.5636 57.5562 61.0948 60.0548C58.6261 62.5533 57.2478 65.9282 57.2618 69.4407C57.2758 72.9531 58.6809 76.3169 61.1694 78.7958C63.658 81.2746 67.0273 82.6664 70.5398 82.6666H70.5649C74.0715 82.6611 77.4336 81.2687 79.9174 78.7933C82.4011 76.3178 83.8048 72.9604 83.822 69.4538C83.8393 65.9472 82.4688 62.5761 80.0095 60.0763C77.5503 57.5766 74.2021 56.1511 70.6957 56.111ZM70.5398 81.5119C67.324 81.5144 64.239 80.2393 61.9634 77.9671C59.6878 75.695 58.4079 72.6119 58.4055 69.3962C58.403 66.1804 59.6781 63.0954 61.9502 60.8198C64.2223 58.5442 67.3054 57.2644 70.5212 57.2619H70.5423C73.7581 57.2622 76.842 58.54 79.1156 60.8141C81.3892 63.0882 82.6664 66.1724 82.666 69.3882C82.6657 72.6039 81.3879 75.6878 79.1138 77.9615C76.8397 80.2351 73.7555 81.5122 70.5398 81.5119Z" fill="#2D4356"/>
<path d="M74.5702 64.323C74.4521 64.2256 74.3002 64.179 74.1478 64.1935C73.9955 64.208 73.855 64.2823 73.7574 64.4002L66.1263 73.6383C66.078 73.6968 66.0417 73.7642 66.0195 73.8367C65.9973 73.9092 65.9896 73.9853 65.9968 74.0608C66.004 74.1363 66.0259 74.2096 66.0615 74.2765C66.097 74.3435 66.1454 74.4028 66.2039 74.4511C66.2623 74.4994 66.3297 74.5357 66.4022 74.5579C66.4747 74.5801 66.5508 74.5879 66.6263 74.5807C66.7018 74.5735 66.7751 74.5515 66.8421 74.5159C66.909 74.4804 66.9683 74.432 67.0166 74.3736L74.6478 65.1355C74.696 65.077 74.7323 65.0097 74.7545 64.9372C74.7768 64.8647 74.7845 64.7886 74.7773 64.7132C74.7701 64.6377 74.7481 64.5644 74.7126 64.4975C74.677 64.4305 74.6286 64.3712 74.5702 64.323Z" fill="#2D4356"/>
<path d="M74.7162 68.1052L70.2404 73.5221C70.192 73.5805 70.1555 73.648 70.1331 73.7205C70.1107 73.793 70.1028 73.8693 70.11 73.9449C70.1171 74.0205 70.1391 74.0939 70.1746 74.161C70.2101 74.2281 70.2586 74.2875 70.3171 74.3359C70.3756 74.3842 70.4431 74.4205 70.5157 74.4427C70.5883 74.465 70.6646 74.4726 70.7402 74.4654C70.8157 74.4581 70.8891 74.4359 70.9561 74.4002C71.0232 74.3645 71.0825 74.316 71.1307 74.2573L75.6065 68.8405C75.704 68.7224 75.7506 68.5705 75.7361 68.418C75.7216 68.2656 75.6471 68.1252 75.529 68.0277C75.4109 67.9302 75.259 67.8836 75.1065 67.8981C74.9541 67.9127 74.8137 67.9871 74.7162 68.1052Z" fill="#2D4356"/>
<path d="M70.8407 65.3462C70.8897 65.2879 70.9267 65.2204 70.9495 65.1476C70.9723 65.0749 70.9805 64.9984 70.9736 64.9225C70.9667 64.8465 70.9448 64.7727 70.9092 64.7053C70.8736 64.6379 70.825 64.5782 70.7663 64.5297C70.7075 64.4811 70.6397 64.4447 70.5668 64.4225C70.4938 64.4003 70.4172 64.3927 70.3414 64.4003C70.2655 64.4079 70.1919 64.4304 70.1248 64.4665C70.0577 64.5026 69.9984 64.5517 69.9503 64.6109L65.4779 70.0284C65.4296 70.0868 65.3933 70.1542 65.3711 70.2267C65.3489 70.2992 65.3411 70.3753 65.3483 70.4508C65.3555 70.5263 65.3775 70.5996 65.413 70.6666C65.4486 70.7336 65.4969 70.7929 65.5554 70.8412C65.6139 70.8895 65.6813 70.9257 65.7537 70.948C65.8262 70.9702 65.9024 70.978 65.9779 70.9708C66.0533 70.9636 66.1267 70.9416 66.1936 70.906C66.2606 70.8705 66.3199 70.8221 66.3682 70.7637L70.8407 65.3462Z" fill="#2D4356"/>
<path d="M88.4954 87.4652C88.3897 87.3544 88.2445 87.2901 88.0914 87.2863C87.9384 87.2825 87.7902 87.3395 87.6792 87.4449L86.3101 88.7485C86.2538 88.8022 86.2088 88.8667 86.178 88.9382C86.1472 89.0097 86.1312 89.0866 86.1309 89.1645C86.1306 89.2423 86.146 89.3194 86.1762 89.3911C86.2064 89.4629 86.2508 89.5278 86.3068 89.5819L90.9258 94.0521C90.9803 94.1048 91.0447 94.1463 91.1152 94.1742C91.1857 94.202 91.261 94.2157 91.3369 94.2144C91.4127 94.2132 91.4875 94.197 91.5571 94.1668C91.6266 94.1367 91.6896 94.0931 91.7423 94.0386C91.795 93.9841 91.8365 93.9197 91.8643 93.8492C91.8922 93.7787 91.9059 93.7034 91.9046 93.6276C91.9034 93.5517 91.8872 93.4769 91.857 93.4074C91.8268 93.3378 91.7833 93.2748 91.7288 93.2221L87.5419 89.1703L88.4753 88.2816C88.5862 88.176 88.6506 88.0307 88.6544 87.8776C88.6581 87.7244 88.6009 87.5761 88.4954 87.4652Z" fill="#2D4356"/>
<path d="M108.649 46.5805C108.649 46.3522 108.582 46.1289 108.455 45.939C108.328 45.7491 108.148 45.6011 107.937 45.5137C107.726 45.4263 107.493 45.4034 107.269 45.448C107.045 45.4925 106.84 45.6025 106.678 45.764C106.517 45.9255 106.407 46.1313 106.362 46.3553C106.317 46.5793 106.34 46.8114 106.428 47.0225C106.515 47.2335 106.663 47.4138 106.853 47.5407C107.043 47.6676 107.266 47.7353 107.495 47.7353C107.801 47.735 108.094 47.6132 108.311 47.3967C108.527 47.1802 108.649 46.8867 108.649 46.5805ZM107.495 47.1579C107.38 47.1579 107.269 47.1241 107.174 47.0606C107.079 46.9972 107.005 46.907 106.961 46.8015C106.917 46.696 106.906 46.5799 106.928 46.4679C106.951 46.3559 107.006 46.253 107.086 46.1723C107.167 46.0915 107.27 46.0365 107.382 46.0143C107.494 45.992 107.61 46.0034 107.716 46.0471C107.821 46.0908 107.911 46.1648 107.975 46.2598C108.038 46.3547 108.072 46.4663 108.072 46.5805C108.072 46.7336 108.011 46.8804 107.903 46.9886C107.794 47.0969 107.648 47.1578 107.495 47.1579Z" fill="#2D4356"/>
<path d="M66.4997 32.1459C66.8423 32.1459 67.1772 32.0443 67.462 31.854C67.7469 31.6637 67.9689 31.3932 68.1 31.0766C68.2311 30.7601 68.2654 30.4119 68.1986 30.0759C68.1317 29.7399 67.9668 29.4312 67.7245 29.189C67.4823 28.9467 67.1736 28.7818 66.8376 28.7149C66.5016 28.6481 66.1534 28.6824 65.8369 28.8135C65.5204 28.9446 65.2498 29.1666 65.0595 29.4515C64.8692 29.7363 64.7676 30.0712 64.7676 30.4138C64.7681 30.873 64.9508 31.3133 65.2755 31.638C65.6002 31.9627 66.0405 32.1454 66.4997 32.1459ZM66.4997 29.5477C66.671 29.5477 66.8385 29.5985 66.9809 29.6937C67.1233 29.7888 67.2343 29.9241 67.2999 30.0824C67.3654 30.2406 67.3826 30.4147 67.3492 30.5827C67.3157 30.7507 67.2332 30.9051 67.1121 31.0262C66.991 31.1473 66.8367 31.2298 66.6687 31.2632C66.5007 31.2966 66.3265 31.2795 66.1683 31.2139C66.01 31.1484 65.8748 31.0374 65.7796 30.8949C65.6844 30.7525 65.6336 30.5851 65.6336 30.4138C65.6339 30.1842 65.7252 29.964 65.8876 29.8016C66.0499 29.6393 66.2701 29.5479 66.4997 29.5477Z" fill="#2D4356"/>
<path d="M112.114 27.5269C111.885 27.5269 111.662 27.5946 111.472 27.7215C111.282 27.8484 111.134 28.0287 111.047 28.2397C110.959 28.4507 110.937 28.6829 110.981 28.9069C111.026 29.1309 111.136 29.3367 111.297 29.4982C111.459 29.6597 111.664 29.7696 111.888 29.8142C112.112 29.8587 112.345 29.8359 112.556 29.7485C112.767 29.6611 112.947 29.5131 113.074 29.3232C113.201 29.1333 113.269 28.91 113.269 28.6816C113.268 28.3755 113.146 28.0819 112.93 27.8655C112.713 27.649 112.42 27.5272 112.114 27.5269ZM112.114 29.259C112 29.259 111.888 29.2251 111.793 29.1617C111.698 29.0982 111.624 29.0081 111.58 28.9026C111.537 28.7971 111.525 28.681 111.547 28.569C111.57 28.457 111.625 28.3541 111.705 28.2733C111.786 28.1926 111.889 28.1376 112.001 28.1153C112.113 28.0931 112.229 28.1045 112.335 28.1482C112.44 28.1919 112.53 28.2659 112.594 28.3608C112.657 28.4558 112.691 28.5674 112.691 28.6816C112.691 28.8347 112.63 28.9815 112.522 29.0897C112.414 29.198 112.267 29.2588 112.114 29.259Z" fill="#2D4356"/>
<path d="M46.2915 29.8364C46.5199 29.8364 46.7431 29.7687 46.933 29.6418C47.1229 29.5149 47.2709 29.3345 47.3583 29.1235C47.4457 28.9125 47.4686 28.6803 47.4241 28.4563C47.3795 28.2323 47.2695 28.0266 47.108 27.8651C46.9465 27.7036 46.7408 27.5936 46.5168 27.549C46.2928 27.5045 46.0606 27.5274 45.8496 27.6148C45.6386 27.7022 45.4582 27.8502 45.3313 28.0401C45.2044 28.23 45.1367 28.4532 45.1367 28.6816C45.1371 28.9878 45.2588 29.2813 45.4753 29.4978C45.6918 29.7143 45.9853 29.836 46.2915 29.8364ZM46.2915 28.1042C46.4057 28.1042 46.5173 28.1381 46.6123 28.2015C46.7072 28.265 46.7812 28.3552 46.8249 28.4607C46.8686 28.5662 46.88 28.6823 46.8578 28.7943C46.8355 28.9063 46.7805 29.0091 46.6998 29.0899C46.619 29.1706 46.5161 29.2256 46.4041 29.2479C46.2921 29.2702 46.176 29.2587 46.0705 29.215C45.965 29.1713 45.8748 29.0973 45.8114 29.0024C45.748 28.9074 45.7141 28.7958 45.7141 28.6816C45.7143 28.5285 45.7751 28.3818 45.8834 28.2735C45.9916 28.1653 46.1384 28.1044 46.2915 28.1042Z" fill="#2D4356"/>
<path d="M24.9282 51.7769C24.6998 51.7769 24.4765 51.8446 24.2866 51.9715C24.0967 52.0984 23.9487 52.2787 23.8613 52.4897C23.7739 52.7007 23.7511 52.9329 23.7956 53.1569C23.8402 53.3809 23.9502 53.5867 24.1117 53.7482C24.2732 53.9097 24.4789 54.0196 24.7029 54.0642C24.9269 54.1087 25.1591 54.0859 25.3701 53.9985C25.5811 53.9111 25.7615 53.7631 25.8883 53.5732C26.0152 53.3833 26.083 53.16 26.083 52.9316C26.0826 52.6255 25.9608 52.3319 25.7444 52.1155C25.5279 51.899 25.2344 51.7772 24.9282 51.7769ZM24.9282 53.509C24.814 53.509 24.7024 53.4751 24.6074 53.4117C24.5125 53.3482 24.4385 53.2581 24.3948 53.1526C24.3511 53.0471 24.3396 52.931 24.3619 52.819C24.3842 52.707 24.4392 52.6041 24.5199 52.5233C24.6007 52.4426 24.7036 52.3876 24.8156 52.3653C24.9276 52.3431 25.0437 52.3545 25.1492 52.3982C25.2547 52.4419 25.3448 52.5159 25.4083 52.6108C25.4717 52.7058 25.5056 52.8174 25.5056 52.9316C25.5054 53.0847 25.4445 53.2315 25.3363 53.3397C25.2281 53.448 25.0813 53.5088 24.9282 53.509Z" fill="#2D4356"/>
<path d="M105.761 99.988H94.124L82.9051 88.8983L89.9639 81.7549L102.465 94.3326C102.573 94.4413 102.719 94.5026 102.873 94.503C103.026 94.5035 103.173 94.4431 103.281 94.3351C103.39 94.2272 103.451 94.0805 103.452 93.9273C103.452 93.7741 103.392 93.627 103.284 93.5184L89.9616 80.1141L88.1962 81.9009L85.9166 79.6319C87.7707 76.8493 88.8349 73.6157 88.9958 70.2759C89.1567 66.936 88.4082 63.6151 86.8302 60.6671C85.2521 57.7192 82.9037 55.2548 80.0352 53.5366C77.1666 51.8184 73.8856 50.9108 70.5419 50.9106H70.5094C68.0831 50.9126 65.6809 51.3925 63.44 52.3228C61.1992 53.2531 59.1635 54.6157 57.4492 56.3328C53.987 59.8005 52.0442 64.5016 52.0482 69.4018C52.0522 74.302 54.0026 78.9999 57.4703 82.4621C60.9381 85.9242 65.6392 87.867 70.5393 87.863H70.5726C74.3466 87.8613 78.0288 86.6983 81.1191 84.5318L83.377 86.7782L81.2721 88.9084L92.4816 99.988H27.2375C27.0844 99.988 26.9375 100.049 26.8293 100.157C26.721 100.265 26.6602 100.412 26.6602 100.565C26.6602 100.719 26.721 100.865 26.8293 100.974C26.9375 101.082 27.0844 101.143 27.2375 101.143H105.761C105.914 101.143 106.061 101.082 106.17 100.974C106.278 100.865 106.339 100.719 106.339 100.565C106.339 100.412 106.278 100.265 106.17 100.157C106.061 100.049 105.914 99.988 105.761 99.988ZM70.5709 86.7083H70.5393C68.2647 86.7101 66.0119 86.2639 63.9096 85.3952C61.8074 84.5264 59.8969 83.2521 58.2871 81.6449C55.0361 78.3992 53.2075 73.9949 53.2038 69.401C53.2 64.8071 55.0214 60.3998 58.2671 57.1487C61.5128 53.8977 65.9171 52.0692 70.5111 52.0654H70.5424C75.1363 52.0616 79.5436 53.8829 82.7946 57.1286C86.0457 60.3744 87.8743 64.7786 87.8781 69.3726C87.8818 73.9665 86.0605 78.3738 82.8148 81.6248C79.5691 84.8759 75.1649 86.7045 70.5709 86.7083ZM82.0537 83.8321C83.243 82.8831 84.3113 81.7918 85.2346 80.5826L87.3846 82.7224L84.1887 85.9566L82.0537 83.8321Z" fill="#2D4356"/>
<path d="M24.351 99.9883H21.4641C21.311 99.9883 21.1641 100.049 21.0558 100.157C20.9475 100.266 20.8867 100.413 20.8867 100.566C20.8867 100.719 20.9475 100.866 21.0558 100.974C21.1641 101.082 21.311 101.143 21.4641 101.143H24.351C24.5041 101.143 24.651 101.082 24.7593 100.974C24.8676 100.866 24.9284 100.719 24.9284 100.566C24.9284 100.413 24.8676 100.266 24.7593 100.157C24.651 100.049 24.5041 99.9883 24.351 99.9883Z" fill="#2D4356"/>
<path d="M18.5774 101.143C18.8963 101.143 19.1548 100.885 19.1548 100.566C19.1548 100.247 18.8963 99.9883 18.5774 99.9883C18.2585 99.9883 18 100.247 18 100.566C18 100.885 18.2585 101.143 18.5774 101.143Z" fill="#2D4356"/>
<path d="M111.537 99.9883H108.65C108.497 99.9883 108.35 100.049 108.241 100.157C108.133 100.266 108.072 100.413 108.072 100.566C108.072 100.719 108.133 100.866 108.241 100.974C108.35 101.082 108.497 101.143 108.65 101.143H111.537C111.69 101.143 111.837 101.082 111.945 100.974C112.053 100.866 112.114 100.719 112.114 100.566C112.114 100.413 112.053 100.266 111.945 100.157C111.837 100.049 111.69 99.9883 111.537 99.9883Z" fill="#2D4356"/>
<path d="M114.423 101.143C114.742 101.143 115 100.885 115 100.566C115 100.247 114.742 99.9883 114.423 99.9883C114.104 99.9883 113.846 100.247 113.846 100.566C113.846 100.885 114.104 101.143 114.423 101.143Z" fill="#2D4356"/>
<path d="M93.0598 95.9463C93.3787 95.9463 93.6372 95.6878 93.6372 95.3689C93.6372 95.05 93.3787 94.7915 93.0598 94.7915C92.7409 94.7915 92.4824 95.05 92.4824 95.3689C92.4824 95.6878 92.7409 95.9463 93.0598 95.9463Z" fill="#0BCEB2"/>
<path d="M22.9563 27.5331L23.8148 26.4043L23.2727 26.0972L22.7219 27.3616H22.7034L22.1433 26.1058L21.5919 26.4222L22.4413 27.5245V27.5424L21.1133 27.3709V27.9852L22.4505 27.8137V27.8316L21.5919 28.9333L22.107 29.2589L22.6947 27.9852H22.712L23.2542 29.2497L23.8235 28.9246L22.9563 27.8403V27.8224L24.3201 27.9852V27.3709L22.9563 27.551V27.5331Z" fill="#0BCEB2"/>
<path d="M60.5984 21.2142L60.1035 21.8487L60.4003 22.0358L60.7387 21.3025H60.749L61.0608 22.0306L61.3888 21.8435L60.8893 21.2188V21.2084L61.6746 21.3025V20.9486L60.8893 21.0525V21.0421L61.3836 20.392L61.0718 20.2153L60.7542 20.9434H60.7439L60.4217 20.22L60.1035 20.4024L60.5932 21.0369V21.0473L59.8281 20.9486V21.3025L60.5984 21.2038V21.2142Z" fill="#0BCEB2"/>
<path d="M100.565 23.3194V22.7172L99.2277 22.8945V22.8766L100.07 21.7692L99.5383 21.4678L98.9979 22.708H98.9794L98.4303 21.4764L97.8893 21.7871L98.7225 22.8679V22.8858L97.4199 22.7172V23.3194L98.7312 23.1514V23.1693L97.8893 24.2502L98.3945 24.5695L98.9708 23.3194H98.9881L99.5199 24.5602L100.078 24.2415L99.2277 23.178V23.1601L100.565 23.3194Z" fill="#0BCEB2"/>
<path d="M85.3817 29.2724L84.6553 30.2049L85.0907 30.4803L85.5884 29.4023H85.6028L86.0618 30.4722L86.5434 30.1974L85.8095 29.2799V29.2643L86.9637 29.4023V28.8827L85.8095 29.0351V29.0201L86.5359 28.0645L86.0774 27.8047L85.6109 28.8746H85.5959L85.1218 27.8122L84.6553 28.0801L85.3742 29.0126V29.0276L84.25 28.8827V29.4023L85.3817 29.2568V29.2724Z" fill="#0BCEB2"/>
<path d="M78.6243 103.452H54.3743C54.2211 103.452 54.0743 103.513 53.966 103.621C53.8577 103.73 53.7969 103.876 53.7969 104.03C53.7969 104.183 53.8577 104.33 53.966 104.438C54.0743 104.546 54.2211 104.607 54.3743 104.607H64.7671V105.762H58.9933C58.8402 105.762 58.6933 105.823 58.585 105.931C58.4768 106.039 58.4159 106.186 58.4159 106.339C58.4159 106.492 58.4768 106.639 58.585 106.747C58.6933 106.856 58.8402 106.916 58.9933 106.916H74.5826C74.7357 106.916 74.8826 106.856 74.9909 106.747C75.0991 106.639 75.16 106.492 75.16 106.339C75.16 106.186 75.0991 106.039 74.9909 105.931C74.8826 105.823 74.7357 105.762 74.5826 105.762H68.2314V104.607H78.6243C78.7774 104.607 78.9242 104.546 79.0325 104.438C79.1408 104.33 79.2016 104.183 79.2016 104.03C79.2016 103.876 79.1408 103.73 79.0325 103.621C78.9242 103.513 78.7774 103.452 78.6243 103.452Z" fill="#0BCEB2"/>
<path d="M86.7086 103.452H80.9348C80.7817 103.452 80.6348 103.513 80.5265 103.621C80.4183 103.73 80.3574 103.876 80.3574 104.03C80.3574 104.183 80.4183 104.33 80.5265 104.438C80.6348 104.546 80.7817 104.607 80.9348 104.607H86.7086C86.8617 104.607 87.0086 104.546 87.1169 104.438C87.2252 104.33 87.286 104.183 87.286 104.03C87.286 103.876 87.2252 103.73 87.1169 103.621C87.0086 103.513 86.8617 103.452 86.7086 103.452Z" fill="#0BCEB2"/>
<path d="M52.066 103.452H46.2922C46.1391 103.452 45.9922 103.513 45.884 103.621C45.7757 103.73 45.7148 103.876 45.7148 104.03C45.7148 104.183 45.7757 104.33 45.884 104.438C45.9922 104.546 46.1391 104.607 46.2922 104.607H52.066C52.2192 104.607 52.366 104.546 52.4743 104.438C52.5826 104.33 52.6434 104.183 52.6434 104.03C52.6434 103.876 52.5826 103.73 52.4743 103.621C52.366 103.513 52.2192 103.452 52.066 103.452Z" fill="#0BCEB2"/>
</svg>
