<svg width="133" height="132" viewBox="0 0 133 132" fill="none" xmlns="http://www.w3.org/2000/svg">
<ellipse cx="66.2715" cy="65.7732" rx="66.2715" ry="65.7732" fill="#3EBEC4" fill-opacity="0.19"/>
<g clip-path="url(#clip0_717_67632)">
<path d="M19.1548 107.051C19.7925 107.051 20.3095 106.534 20.3095 105.896C20.3095 105.258 19.7925 104.741 19.1548 104.741C18.517 104.741 18 105.258 18 105.896C18 106.534 18.517 107.051 19.1548 107.051Z" fill="#2D4356"/>
<path d="M24.3517 104.741H22.6196C22.3133 104.741 22.0196 104.863 21.8031 105.079C21.5865 105.296 21.4648 105.59 21.4648 105.896C21.4648 106.202 21.5865 106.496 21.8031 106.713C22.0196 106.929 22.3133 107.051 22.6196 107.051H24.3517C24.658 107.051 24.9517 106.929 25.1683 106.713C25.3848 106.496 25.5065 106.202 25.5065 105.896C25.5065 105.59 25.3848 105.296 25.1683 105.079C24.9517 104.863 24.658 104.741 24.3517 104.741Z" fill="#2D4356"/>
<path d="M110.381 104.741H108.649C108.343 104.741 108.049 104.863 107.832 105.079C107.616 105.296 107.494 105.59 107.494 105.896C107.494 106.202 107.616 106.496 107.832 106.713C108.049 106.929 108.343 107.051 108.649 107.051H110.381C110.687 107.051 110.981 106.929 111.198 106.713C111.414 106.496 111.536 106.202 111.536 105.896C111.536 105.59 111.414 105.296 111.198 105.079C110.981 104.863 110.687 104.741 110.381 104.741Z" fill="#2D4356"/>
<path d="M113.846 107.051C114.484 107.051 115.001 106.534 115.001 105.896C115.001 105.258 114.484 104.741 113.846 104.741C113.208 104.741 112.691 105.258 112.691 105.896C112.691 106.534 113.208 107.051 113.846 107.051Z" fill="#2D4356"/>
<path d="M86.2201 109.36H81.4234C81.1331 109.384 80.8622 109.515 80.6646 109.729C80.4671 109.943 80.3574 110.224 80.3574 110.515C80.3574 110.806 80.4671 111.087 80.6646 111.301C80.8622 111.515 81.1331 111.647 81.4234 111.67H86.2201C86.5104 111.647 86.7813 111.515 86.9788 111.301C87.1763 111.087 87.286 110.806 87.286 110.515C87.286 110.224 87.1763 109.943 86.9788 109.729C86.7813 109.515 86.5104 109.384 86.2201 109.36Z" fill="#3EBEC4"/>
<path d="M51.5775 109.36H46.7808C46.4905 109.384 46.2196 109.515 46.0221 109.729C45.8245 109.943 45.7148 110.224 45.7148 110.515C45.7148 110.806 45.8245 111.087 46.0221 111.301C46.2196 111.515 46.4905 111.647 46.7808 111.67H51.5775C51.8678 111.647 52.1387 111.515 52.3362 111.301C52.5338 111.087 52.6434 110.806 52.6434 110.515C52.6434 110.224 52.5338 109.943 52.3362 109.729C52.1387 109.515 51.8678 109.384 51.5775 109.36Z" fill="#3EBEC4"/>
<path d="M78.0469 109.36H54.9516C54.6454 109.36 54.3517 109.482 54.1351 109.699C53.9185 109.915 53.7969 110.209 53.7969 110.515C53.7969 110.821 53.9185 111.115 54.1351 111.332C54.3517 111.548 54.6454 111.67 54.9516 111.67H64.1551V112.825H59.5707C59.2644 112.825 58.9707 112.946 58.7541 113.163C58.5376 113.379 58.4159 113.673 58.4159 113.979C58.4159 114.286 58.5376 114.579 58.7541 114.796C58.9707 115.013 59.2644 115.134 59.5707 115.134H74.0052C74.3115 115.134 74.6052 115.013 74.8217 114.796C75.0383 114.579 75.16 114.286 75.16 113.979C75.16 113.673 75.0383 113.379 74.8217 113.163C74.6052 112.946 74.3115 112.825 74.0052 112.825H68.8434V111.67H78.0469C78.3531 111.67 78.6469 111.548 78.8634 111.332C79.08 111.115 79.2016 110.821 79.2016 110.515C79.2016 110.209 79.08 109.915 78.8634 109.699C78.6469 109.482 78.3531 109.36 78.0469 109.36Z" fill="#3EBEC4"/>
<path d="M44.56 66.6338C45.4785 66.6328 46.359 66.2675 47.0085 65.618C47.6579 64.9685 48.0232 64.088 48.0243 63.1695V47.0029C48.0243 46.0841 47.6593 45.2029 47.0096 44.5532C46.3599 43.9036 45.4788 43.5386 44.56 43.5386C43.6412 43.5386 42.76 43.9036 42.1104 44.5532C41.4607 45.2029 41.0957 46.0841 41.0957 47.0029V63.1695C41.0967 64.088 41.4621 64.9685 42.1115 65.618C42.761 66.2675 43.6415 66.6328 44.56 66.6338ZM43.4052 47.0029C43.4052 46.6966 43.5269 46.4029 43.7434 46.1863C43.96 45.9698 44.2537 45.8481 44.56 45.8481C44.8663 45.8481 45.16 45.9698 45.3765 46.1863C45.5931 46.4029 45.7148 46.6966 45.7148 47.0029V63.1695C45.7148 63.4758 45.5931 63.7695 45.3765 63.9861C45.16 64.2026 44.8663 64.3243 44.56 64.3243C44.2537 64.3243 43.96 64.2026 43.7434 63.9861C43.5269 63.7695 43.4052 63.4758 43.4052 63.1695V47.0029Z" fill="#3EBEC4"/>
<path d="M88.4408 66.6338C89.3593 66.6328 90.2399 66.2675 90.8893 65.618C91.5388 64.9685 91.9041 64.088 91.9051 63.1695V47.0029C91.9051 46.0841 91.5401 45.2029 90.8905 44.5532C90.2408 43.9036 89.3596 43.5386 88.4408 43.5386C87.5221 43.5386 86.6409 43.9036 85.9912 44.5532C85.3416 45.2029 84.9766 46.0841 84.9766 47.0029V63.1695C84.9776 64.088 85.3429 64.9685 85.9924 65.618C86.6418 66.2675 87.5224 66.6328 88.4408 66.6338ZM87.2861 47.0029C87.2861 46.6966 87.4077 46.4029 87.6243 46.1863C87.8409 45.9698 88.1346 45.8481 88.4408 45.8481C88.7471 45.8481 89.0408 45.9698 89.2574 46.1863C89.4739 46.4029 89.5956 46.6966 89.5956 47.0029V63.1695C89.5956 63.4758 89.4739 63.7695 89.2574 63.9861C89.0408 64.2026 88.7471 64.3243 88.4408 64.3243C88.1346 64.3243 87.8409 64.2026 87.6243 63.9861C87.4077 63.7695 87.2861 63.4758 87.2861 63.1695V47.0029Z" fill="#3EBEC4"/>
<path d="M50.334 56.8184H82.6673V59.1279H50.334V56.8184Z" fill="#2D4356"/>
<path d="M82.6673 63.1696V61.4375H50.3339V63.1696C50.3339 63.3645 50.3236 63.5571 50.3047 63.747H82.6965C82.6776 63.5571 82.6673 63.3645 82.6673 63.1696Z" fill="#2D4356"/>
<path d="M105.023 104.741H97.4334L102.281 63.4388L102.281 63.4351C102.636 63.2353 102.931 62.9452 103.136 62.5943C103.342 62.2433 103.451 61.8441 103.452 61.4374V59.1279C103.452 58.5154 103.208 57.9279 102.775 57.4948C102.342 57.0617 101.755 56.8184 101.142 56.8184H94.2135V59.1279H101.142V61.4374H94.2135V63.1695C94.2135 63.3644 94.2032 63.557 94.1843 63.7469H99.9196L95.6502 100.122H38.3635L33.0948 63.7469H38.8142C38.7952 63.557 38.7849 63.3644 38.7849 63.1695V61.4374H31.8564V59.1279H38.7849V56.8184H31.8564C31.2438 56.8184 30.6564 57.0617 30.2233 57.4948C29.7902 57.9279 29.5468 58.5154 29.5468 59.1279V61.4374C29.5478 61.8449 29.6571 62.2449 29.8635 62.5963C30.0699 62.9477 30.3659 63.238 30.7214 63.4373C30.7238 63.4585 30.7224 63.4795 30.7255 63.5006L36.6989 104.741H27.9756C27.8113 104.72 27.6444 104.733 27.4859 104.782C27.3274 104.83 27.181 104.911 27.0564 105.021C26.9319 105.13 26.8322 105.264 26.7638 105.415C26.6955 105.566 26.6602 105.73 26.6602 105.896C26.6602 106.061 26.6955 106.225 26.7638 106.376C26.8322 106.527 26.9319 106.662 27.0564 106.771C27.181 106.88 27.3274 106.962 27.4859 107.01C27.6444 107.058 27.8113 107.072 27.9756 107.051H105.023C105.187 107.072 105.354 107.058 105.513 107.01C105.671 106.962 105.818 106.88 105.942 106.771C106.067 106.662 106.166 106.527 106.235 106.376C106.303 106.225 106.338 106.061 106.338 105.896C106.338 105.73 106.303 105.566 106.235 105.415C106.166 105.264 106.067 105.13 105.942 105.021C105.818 104.911 105.671 104.83 105.513 104.782C105.354 104.733 105.187 104.72 105.023 104.741ZM39.0325 104.741L38.698 102.431H95.3791L95.1081 104.741H39.0325Z" fill="#2D4356"/>
<path d="M55.7048 47.5805C56.0474 47.5805 56.3823 47.4789 56.6671 47.2886C56.952 47.0982 57.174 46.8277 57.3051 46.5112C57.4362 46.1947 57.4705 45.8464 57.4037 45.5104C57.3368 45.1744 57.1719 44.8658 56.9296 44.6235C56.6874 44.3813 56.3787 44.2163 56.0427 44.1495C55.7067 44.0827 55.3584 44.117 55.0419 44.2481C54.7254 44.3792 54.4549 44.6012 54.2646 44.886C54.0742 45.1709 53.9727 45.5058 53.9727 45.8484C53.9732 46.3076 54.1558 46.7479 54.4806 47.0726C54.8053 47.3973 55.2456 47.58 55.7048 47.5805ZM55.7048 44.9823C55.8761 44.9823 56.0435 45.0331 56.186 45.1282C56.3284 45.2234 56.4394 45.3587 56.5049 45.5169C56.5705 45.6752 56.5876 45.8493 56.5542 46.0173C56.5208 46.1853 56.4383 46.3396 56.3172 46.4608C56.1961 46.5819 56.0418 46.6644 55.8738 46.6978C55.7058 46.7312 55.5316 46.7141 55.3734 46.6485C55.2151 46.5829 55.0799 46.4719 54.9847 46.3295C54.8895 46.1871 54.8387 46.0196 54.8387 45.8484C54.839 45.6187 54.9303 45.3986 55.0926 45.2362C55.255 45.0738 55.4752 44.9825 55.7048 44.9823Z" fill="#2D4356"/>
<path d="M105.184 44.6934C104.956 44.6934 104.732 44.7611 104.543 44.888C104.353 45.0149 104.205 45.1952 104.117 45.4062C104.03 45.6172 104.007 45.8494 104.051 46.0734C104.096 46.2974 104.206 46.5032 104.368 46.6647C104.529 46.8262 104.735 46.9361 104.959 46.9807C105.183 47.0253 105.415 47.0024 105.626 46.915C105.837 46.8276 106.017 46.6796 106.144 46.4897C106.271 46.2998 106.339 46.0765 106.339 45.8481C106.338 45.542 106.217 45.2485 106 45.032C105.784 44.8155 105.49 44.6937 105.184 44.6934ZM105.184 46.4255C105.07 46.4255 104.958 46.3916 104.863 46.3282C104.768 46.2648 104.694 46.1746 104.651 46.0691C104.607 45.9636 104.595 45.8475 104.618 45.7355C104.64 45.6235 104.695 45.5206 104.776 45.4399C104.857 45.3591 104.959 45.3041 105.071 45.2818C105.183 45.2596 105.3 45.271 105.405 45.3147C105.511 45.3584 105.601 45.4324 105.664 45.5273C105.728 45.6223 105.761 45.7339 105.761 45.8481C105.761 46.0012 105.7 46.148 105.592 46.2562C105.484 46.3645 105.337 46.4253 105.184 46.4255Z" fill="#2D4356"/>
<path d="M87.2856 19.8662C87.0572 19.8662 86.834 19.9339 86.6441 20.0608C86.4542 20.1877 86.3062 20.3681 86.2188 20.5791C86.1314 20.7901 86.1085 21.0223 86.153 21.2463C86.1976 21.4703 86.3076 21.676 86.4691 21.8375C86.6306 21.999 86.8363 22.109 87.0603 22.1535C87.2843 22.1981 87.5165 22.1752 87.7275 22.0878C87.9385 22.0004 88.1189 21.8524 88.2458 21.6625C88.3727 21.4726 88.4404 21.2494 88.4404 21.021C88.44 20.7148 88.3183 20.4213 88.1018 20.2048C87.8853 19.9883 87.5918 19.8666 87.2856 19.8662ZM87.2856 21.5984C87.1714 21.5984 87.0598 21.5645 86.9648 21.501C86.8699 21.4376 86.7959 21.3474 86.7522 21.2419C86.7085 21.1364 86.6971 21.0203 86.7193 20.9083C86.7416 20.7963 86.7966 20.6935 86.8774 20.6127C86.9581 20.532 87.061 20.477 87.173 20.4547C87.285 20.4324 87.4011 20.4438 87.5066 20.4875C87.6121 20.5312 87.7023 20.6052 87.7657 20.7002C87.8291 20.7951 87.863 20.9068 87.863 21.021C87.8628 21.1741 87.802 21.3208 87.6937 21.4291C87.5855 21.5373 87.4387 21.5982 87.2856 21.5984Z" fill="#2D4356"/>
<path d="M80.3559 40.4595C80.1275 40.4595 79.9043 40.5272 79.7144 40.6541C79.5245 40.781 79.3765 40.9613 79.2891 41.1723C79.2017 41.3833 79.1788 41.6155 79.2234 41.8395C79.2679 42.0635 79.3779 42.2693 79.5394 42.4308C79.7009 42.5923 79.9066 42.7022 80.1306 42.7468C80.3547 42.7914 80.5868 42.7685 80.7978 42.6811C81.0088 42.5937 81.1892 42.4457 81.3161 42.2558C81.443 42.0659 81.5107 41.8426 81.5107 41.6142C81.5103 41.3081 81.3886 41.0146 81.1721 40.7981C80.9556 40.5816 80.6621 40.4598 80.3559 40.4595ZM80.3559 42.1916C80.2417 42.1916 80.1301 42.1578 80.0352 42.0943C79.9402 42.0309 79.8662 41.9407 79.8225 41.8352C79.7788 41.7297 79.7674 41.6136 79.7896 41.5016C79.8119 41.3896 79.8669 41.2867 79.9477 41.206C80.0284 41.1252 80.1313 41.0702 80.2433 41.0479C80.3553 41.0257 80.4714 41.0371 80.5769 41.0808C80.6824 41.1245 80.7726 41.1985 80.836 41.2935C80.8995 41.3884 80.9333 41.5 80.9333 41.6142C80.9332 41.7673 80.8723 41.9141 80.764 42.0223C80.6558 42.1306 80.509 42.1915 80.3559 42.1916Z" fill="#2D4356"/>
<path d="M27.9912 35.4555C27.9912 35.2272 27.9234 35.0039 27.7966 34.814C27.6697 34.6241 27.4893 34.4761 27.2783 34.3887C27.0673 34.3013 26.8351 34.2784 26.6111 34.323C26.3871 34.3675 26.1814 34.4775 26.0199 34.639C25.8584 34.8005 25.7484 35.0063 25.7038 35.2303C25.6593 35.4543 25.6821 35.6864 25.7695 35.8975C25.8569 36.1085 26.005 36.2888 26.1949 36.4157C26.3848 36.5426 26.608 36.6103 26.8364 36.6103C27.1426 36.61 27.4361 36.4882 27.6526 36.2717C27.869 36.0552 27.9908 35.7617 27.9912 35.4555ZM26.259 35.4555C26.259 35.3413 26.2929 35.2297 26.3563 35.1348C26.4198 35.0398 26.5099 34.9658 26.6154 34.9221C26.721 34.8784 26.837 34.867 26.949 34.8893C27.061 34.9115 27.1639 34.9665 27.2447 35.0473C27.3254 35.128 27.3804 35.2309 27.4027 35.3429C27.425 35.4549 27.4135 35.571 27.3698 35.6765C27.3261 35.782 27.2521 35.8722 27.1572 35.9356C27.0622 35.9991 26.9506 36.0329 26.8364 36.0329C26.6833 36.0328 26.5365 35.9719 26.4283 35.8636C26.3201 35.7554 26.2592 35.6086 26.259 35.4555Z" fill="#2D4356"/>
<path d="M24.2869 59.1342L25.1455 58.0054L24.6033 57.6982L24.0519 58.9627H24.034L23.474 57.7069L22.9226 58.0233L23.7719 59.1255V59.1434L22.4434 58.9719V59.5863L23.7806 59.4148V59.4327L22.9226 60.5343L23.437 60.86L24.0248 59.5863H24.0427L24.5849 60.8507L25.1542 60.5257L24.2869 59.4414V59.4235L25.6507 59.5863V58.9719L24.2869 59.1521V59.1342Z" fill="#3EBEC4"/>
<path d="M49.0255 25.1507L48.5313 25.7853L48.828 25.9729L49.1664 25.2391H49.1768L49.4886 25.9677L49.8165 25.7801L49.3171 25.1559V25.1455L50.1023 25.2391V24.8857L49.3171 24.9896V24.9792L49.8113 24.3291L49.4995 24.1519L49.182 24.8799H49.1716L48.8494 24.1571L48.5313 24.3389L49.0209 24.974V24.9844L48.2559 24.8857V25.2391L49.0255 25.1403V25.1507Z" fill="#3EBEC4"/>
<path d="M113.108 25.3634V24.7612L111.771 24.9384V24.9205L112.613 23.8131L112.081 23.5117L111.541 24.7519H111.522L110.974 23.5204L110.432 23.831L111.266 24.9119V24.9298L109.963 24.7612V25.3634L111.275 25.1954V25.2133L110.432 26.2941L110.938 26.6134L111.514 25.3634H111.531L112.063 26.6042L112.622 26.2855L111.771 25.2219V25.204L113.108 25.3634Z" fill="#3EBEC4"/>
<path d="M66.7021 30.895L67.4284 29.94L66.97 29.6802L66.504 30.7501H66.4885L66.0144 29.6877L65.5479 29.955L66.2667 30.8875V30.9031L65.1426 30.7576V31.2772L66.2742 31.1323V31.1473L65.5479 32.0798L65.9832 32.3552L66.4809 31.2772H66.496L66.9544 32.3471L67.4359 32.0723L66.7021 31.1548V31.1398L67.8563 31.2772V30.7576L66.7021 30.9106V30.895Z" fill="#3EBEC4"/>
<path d="M60.7266 90.0241C60.7266 90.0241 64.0402 87.0832 66.6564 87.138C69.1655 87.1905 72.2742 90.0241 72.2742 90.0241" stroke="#3EBEC4" stroke-width="3.14433" stroke-linecap="round"/>
<rect x="54.6894" y="74.1655" width="3.88287" height="4.9877" rx="1.94143" fill="#3EBEC4" stroke="#3EBEC4" stroke-width="0.628866"/>
<rect x="74.4277" y="74.1655" width="3.88287" height="4.9877" rx="1.94143" fill="#3EBEC4" stroke="#3EBEC4" stroke-width="0.628866"/>
</g>
<defs>
<clipPath id="clip0_717_67632">
<rect width="97" height="97" fill="white" transform="translate(18 19)"/>
</clipPath>
</defs>
</svg>
