<svg width="62" height="46" viewBox="0 0 62 46" fill="none" xmlns="http://www.w3.org/2000/svg">
<path d="M47.7385 46C43.2349 45.8995 39.8822 44.2404 37.6804 41.023C35.5787 37.8055 34.5278 34.035 34.5278 29.7115C34.5278 24.8852 35.5787 20.4612 37.6804 16.4393C39.7821 12.4175 42.4843 8.99891 45.7869 6.18361C49.0896 3.26776 52.5424 1.20656 56.1453 0L62 8.89836C60.699 9.60219 59.1477 10.7082 57.3462 12.2164C55.5448 13.7246 53.8935 15.3333 52.3923 17.0426C50.891 18.6514 49.8902 20.2098 49.3898 21.718C51.3914 21.9191 53.1929 22.5224 54.7942 23.5279C56.4956 24.4328 57.8467 25.7399 58.8475 27.4492C59.8483 29.1585 60.3487 31.2197 60.3487 33.6328C60.3487 37.7552 59.0476 40.8721 56.4455 42.9836C53.9435 44.9945 51.0412 46 47.7385 46ZM13.2107 46C8.70702 45.8995 5.35432 44.2404 3.15254 41.023C1.05085 37.8055 0 34.035 0 29.7115C0 24.8852 1.05085 20.4612 3.15254 16.4393C5.25424 12.4175 7.95642 8.99891 11.2591 6.18361C14.5617 3.26776 18.0646 1.20656 21.7676 0L27.6223 8.89836C26.1211 9.60219 24.4697 10.7082 22.6683 12.2164C20.9669 13.7246 19.3656 15.3333 17.8644 17.0426C16.3632 18.6514 15.3624 20.2098 14.862 21.718C16.9637 21.9191 18.8152 22.5224 20.4165 23.5279C22.0178 24.4328 23.3188 25.7399 24.3196 27.4492C25.3204 29.1585 25.8208 31.2197 25.8208 33.6328C25.8208 37.7552 24.5198 40.8721 21.9177 42.9836C19.4157 44.9945 16.5133 46 13.2107 46Z" fill="#47587B"/>
</svg>
