<svg width="422" height="283" viewBox="0 0 422 283" fill="none" xmlns="http://www.w3.org/2000/svg">
<g clip-path="url(#clip0_45_3947)">
<path d="M259.525 70.5619C233.976 70.5619 207.967 69.5219 183.642 62.7423C159.769 56.1121 137.85 43.2537 118.325 28.3845C105.524 18.7034 93.8957 10.9643 77.288 12.1134C61.0427 12.9924 45.5077 19.0621 32.9663 29.4302C11.8449 47.9363 15.0206 82.2309 23.4737 106.235C36.1707 142.489 74.8186 167.746 107.661 184.086C145.608 203.046 187.305 214.078 229.094 220.398C265.721 225.988 312.793 230.015 344.521 206.103C373.688 184.109 381.688 133.917 374.544 100.019C372.81 90.0038 367.48 80.9671 359.556 74.6067C339.077 59.611 308.521 69.6311 285.476 70.1195C276.954 70.2861 268.254 70.4987 259.525 70.5619Z" fill="#E9E9E9"/>
<path d="M416.945 247.058C415.5 245.661 413.816 244.533 411.973 243.726V243.71L333.428 190.561C332.815 185.153 330.667 180.075 326.708 176.196C324.73 174.292 322.428 172.754 319.91 171.654V171.63L315.417 169.038C308.188 166.106 300.102 167.72 293.559 171.539L283.022 164.411C294.913 153.807 301.851 141.061 301.851 127.345V99.7567C301.851 62.893 251.736 33 189.922 33C128.109 33 78 62.893 78 99.7567V127.351C78 164.226 128.112 194.106 189.928 194.106C216.387 194.106 240.696 188.629 259.854 179.483L279.055 192.473C278.688 194.533 278.498 196.619 278.487 198.711C278.477 202.444 279.325 206.13 280.964 209.487C282.604 212.843 284.993 215.782 287.948 218.078L291.697 220.395C293.008 221.405 294.42 222.277 295.911 222.999C299.672 224.828 303.86 225.607 308.03 225.252C308.989 225.167 309.939 225.002 310.871 224.76L390.244 278.456C391.495 279.59 392.901 280.541 394.421 281.28C397.168 282.618 400.228 283.189 403.276 282.933C406.867 282.637 411.129 280.399 413.831 278.104C422.682 270.58 425.266 255.202 416.945 247.058Z" fill="#295365"/>
<path d="M189.928 33C128.112 33 78 62.893 78 99.7568C78 136.62 128.112 166.526 189.928 166.526C251.744 166.526 301.856 136.633 301.856 99.7568C301.856 62.8801 251.734 33 189.928 33Z" fill="#B7EAE7"/>
<path d="M416.945 247.058C415.5 245.661 413.816 244.533 411.973 243.726V243.71L333.428 190.561L318.823 180.677C314.135 178.776 308.957 179.492 304.506 181.623C304.506 181.619 304.506 181.615 304.506 181.612C304.428 181.649 304.353 181.693 304.277 181.732C303.905 181.917 303.523 182.102 303.162 182.317C303.042 182.385 302.924 182.458 302.804 182.528C302.482 182.713 302.168 182.909 301.858 183.111C301.719 183.202 301.583 183.296 301.446 183.385C301.151 183.587 300.862 183.795 300.58 184.009C300.457 184.099 300.333 184.194 300.208 184.283C299.816 184.588 299.435 184.901 299.069 185.227C294.161 189.619 291.842 195.803 291.803 202.376C291.795 205.107 292.415 207.803 293.614 210.258C294.813 212.714 296.561 214.864 298.722 216.543L310.862 224.754L390.235 278.45C391.485 279.585 392.892 280.536 394.411 281.275C397.159 282.612 400.219 283.183 403.266 282.928C406.858 282.632 411.12 280.394 413.821 278.099C422.682 270.58 425.266 255.202 416.945 247.058Z" fill="#67DDE2"/>
<path d="M416.944 247.058C415.499 245.661 413.815 244.532 411.972 243.726V243.709L333.427 190.561C332.814 185.152 330.666 180.075 326.707 176.195C324.73 174.291 322.428 172.753 319.909 171.653V171.629L315.416 169.038C308.187 166.106 300.101 167.72 293.558 171.538C291.723 172.604 290 173.85 288.415 175.257C283.285 179.846 280.24 185.865 279.049 192.46C278.682 194.519 278.492 196.606 278.481 198.698C278.471 202.431 279.318 206.117 280.958 209.473C282.598 212.83 284.986 215.769 287.941 218.064L291.691 220.382C293.002 221.391 294.414 222.264 295.904 222.986C299.666 224.821 303.856 225.604 308.029 225.252C308.988 225.167 309.939 225.002 310.87 224.759L390.243 278.456C391.494 279.59 392.9 280.541 394.42 281.28C397.168 282.617 400.228 283.189 403.275 282.933C406.866 282.637 411.128 280.399 413.83 278.104C422.681 270.58 425.265 255.202 416.944 247.058Z" fill="#3EBEC4"/>
<path d="M189.928 45.709C138.649 45.709 97.0938 69.9066 97.0938 99.7459C97.0938 100.238 97.1068 100.731 97.1291 101.227C97.1291 101.375 97.1495 101.521 97.1569 101.667C97.1792 102.013 97.2015 102.358 97.2331 102.704C97.248 102.865 97.2684 103.028 97.2851 103.189C97.3223 103.52 97.3594 103.85 97.4059 104.177C97.4282 104.336 97.4542 104.495 97.4783 104.655C97.5304 104.99 97.5842 105.323 97.6474 105.658C97.6753 105.802 97.7032 105.947 97.7329 106.093C97.8035 106.443 97.8797 106.793 97.9614 107.142C97.9911 107.268 98.0209 107.394 98.0524 107.513C98.1453 107.883 98.2444 108.253 98.3497 108.623C98.3776 108.723 98.4055 108.821 98.4352 108.921C98.556 109.332 98.686 109.743 98.8216 110.15C98.8421 110.209 98.8607 110.269 98.8811 110.335C99.0409 110.804 99.2099 111.274 99.392 111.738L99.405 111.711C108.762 135.806 145.724 153.805 189.928 153.805C234.132 153.805 271.09 135.83 280.462 111.755C280.468 111.74 280.474 111.726 280.478 111.711C280.65 111.264 280.814 110.817 280.969 110.369C280.995 110.289 281.019 110.211 281.047 110.132C281.175 109.743 281.3 109.352 281.418 108.96C281.452 108.847 281.483 108.734 281.515 108.621C281.617 108.264 281.714 107.905 281.801 107.544C281.836 107.407 281.87 107.27 281.9 107.133C281.98 106.795 282.054 106.456 282.123 106.117C282.152 105.963 282.184 105.81 282.214 105.658C282.273 105.33 282.327 105.001 282.379 104.671C282.405 104.51 282.431 104.346 282.453 104.185C282.5 103.859 282.537 103.533 282.57 103.205C282.589 103.041 282.609 102.876 282.626 102.711C282.658 102.367 282.68 102.023 282.7 101.678C282.7 101.53 282.723 101.384 282.728 101.236C282.753 100.742 282.765 100.249 282.765 99.7552C282.762 69.914 241.194 45.709 189.928 45.709Z" fill="#E9E9E9"/>
<path d="M189.928 45.709C138.649 45.709 97.0938 69.9066 97.0938 99.7459C97.0938 100.238 97.1068 100.731 97.1291 101.227C97.1291 101.375 97.1495 101.521 97.1569 101.667C97.1792 102.013 97.2015 102.358 97.2331 102.704C97.248 102.865 97.2684 103.028 97.2851 103.189C97.3223 103.52 97.3594 103.85 97.4059 104.177C97.4282 104.336 97.4542 104.495 97.4783 104.655C97.5304 104.99 97.5842 105.323 97.6474 105.658C97.6753 105.802 97.7032 105.947 97.7329 106.093C97.8035 106.443 97.8797 106.793 97.9614 107.142C97.9911 107.268 98.0209 107.394 98.0524 107.513C98.1453 107.883 98.2444 108.253 98.3497 108.623C98.3776 108.723 98.4055 108.821 98.4352 108.921C98.556 109.332 98.686 109.743 98.8216 110.15C98.8421 110.209 98.8607 110.269 98.8811 110.335C99.0409 110.804 99.2099 111.274 99.392 111.738L99.405 111.711C108.793 87.6481 145.755 69.6937 189.928 69.6937C234.1 69.6937 271.088 87.6684 280.462 111.736C280.468 111.722 280.474 111.707 280.478 111.692C280.65 111.245 280.814 110.798 280.969 110.35C280.995 110.27 281.019 110.193 281.047 110.113C281.175 109.724 281.3 109.334 281.418 108.941C281.452 108.829 281.483 108.716 281.515 108.603C281.617 108.246 281.714 107.886 281.801 107.526C281.836 107.389 281.87 107.252 281.9 107.115C281.98 106.776 282.054 106.438 282.123 106.098C282.152 105.945 282.184 105.791 282.214 105.639C282.273 105.312 282.327 104.982 282.379 104.653C282.405 104.492 282.431 104.327 282.453 104.166C282.5 103.84 282.537 103.514 282.57 103.187C282.589 103.022 282.609 102.857 282.626 102.693C282.658 102.348 282.68 102.004 282.7 101.66C282.7 101.512 282.723 101.366 282.728 101.217C282.753 100.724 282.765 100.23 282.765 99.7367C282.762 69.914 241.194 45.709 189.928 45.709Z" fill="#183C4B"/>
<path d="M288.421 175.263C290.006 173.855 291.729 172.61 293.563 171.544L271.255 156.452C267.037 154.738 262.172 156.426 258.98 159.276C255.927 162.006 254.487 165.847 254.463 169.934C254.458 171.631 254.844 173.307 255.589 174.833C256.335 176.359 257.421 177.695 258.764 178.739L279.055 192.466C280.236 185.871 283.291 179.851 288.421 175.263Z" fill="#82CFD0"/>
<path d="M291.804 202.385C291.843 195.812 294.162 189.628 299.071 185.236C299.442 184.91 299.814 184.597 300.21 184.292C300.329 184.197 300.453 184.107 300.581 184.018C300.864 183.803 301.152 183.595 301.447 183.394C301.585 183.301 301.72 183.209 301.86 183.12C302.17 182.918 302.484 182.726 302.805 182.537C302.926 182.467 303.043 182.394 303.164 182.326C303.535 182.12 303.907 181.926 304.279 181.741C304.355 181.702 304.429 181.658 304.507 181.621C304.508 181.624 304.508 181.628 304.507 181.632C308.966 179.501 314.137 178.785 318.824 180.686L333.43 190.57C332.817 185.162 330.669 180.084 326.71 176.205C324.732 174.301 322.43 172.763 319.911 171.663C319.622 171.533 319.354 171.389 319.049 171.266C309.76 167.502 299.071 171.211 292.048 177.484C285.333 183.488 282.165 191.94 282.113 200.928C282.104 204.687 282.963 208.397 284.625 211.772C286.287 215.147 288.707 218.094 291.697 220.387C293.008 221.397 294.42 222.27 295.91 222.992C299.671 224.823 303.859 225.604 308.03 225.252C308.989 225.167 309.939 225.002 310.871 224.759L298.723 216.552C296.562 214.872 294.815 212.723 293.616 210.267C292.417 207.812 291.797 205.115 291.804 202.385Z" fill="#9EE2DE"/>
<path d="M304.5 181.632C304.403 182.545 304.345 183.467 304.34 184.398C304.332 187.128 304.951 189.825 306.15 192.28C307.35 194.735 309.097 196.885 311.259 198.563L388.806 251.023C389.628 249.925 390.557 248.91 391.58 247.993C396.719 243.404 404.544 240.691 411.333 243.445C411.553 243.534 411.751 243.63 411.965 243.736V243.719L333.42 190.571L318.815 180.687C314.137 178.793 308.959 179.502 304.5 181.632Z" fill="#B7EAE7"/>
<path d="M416.944 247.058C415.499 245.661 413.815 244.533 411.972 243.726C411.758 243.63 411.56 243.524 411.34 243.436C404.551 240.681 396.726 243.395 391.587 247.983C390.564 248.9 389.635 249.915 388.813 251.013C385.801 255.023 384.354 259.955 384.318 265.134C384.317 268.496 385.262 271.791 387.047 274.644C388.831 277.497 391.383 279.794 394.413 281.275C397.16 282.612 400.22 283.183 403.268 282.928C406.859 282.632 411.121 280.394 413.823 278.099C422.681 270.58 425.266 255.202 416.944 247.058Z" fill="#9EE2DE"/>
<path d="M46.5938 192V205.163" stroke="#3EBEC4" stroke-width="5.32" stroke-linecap="round" stroke-linejoin="round"/>
<path d="M345.594 11V24.1628" stroke="#3EBEC4" stroke-width="5.32" stroke-linecap="round" stroke-linejoin="round"/>
<path d="M40 198.596H53.1564" stroke="#3EBEC4" stroke-width="5.32" stroke-linecap="round" stroke-linejoin="round"/>
<path d="M339 17.5957H352.156" stroke="#3EBEC4" stroke-width="5.32" stroke-linecap="round" stroke-linejoin="round"/>
</g>
<defs>
<clipPath id="clip0_45_3947">
<rect width="422" height="283" fill="white"/>
</clipPath>
</defs>
</svg>
