<svg width="45" height="22" viewBox="0 0 45 22" fill="none" xmlns="http://www.w3.org/2000/svg">
<path d="M11.6868 6.41663C11.6868 6.23429 11.6144 6.05942 11.4855 5.93049C11.3566 5.80156 11.1817 5.72913 10.9993 5.72913C10.817 5.72913 10.6421 5.80156 10.5132 5.93049C10.3843 6.05942 10.3118 6.23429 10.3118 6.41663V10.3125H6.41602C6.23368 10.3125 6.05881 10.3849 5.92988 10.5138C5.80095 10.6428 5.72852 10.8176 5.72852 11C5.72852 11.1823 5.80095 11.3572 5.92988 11.4861C6.05881 11.615 6.23368 11.6875 6.41602 11.6875H10.3118V15.5833C10.3118 15.7656 10.3843 15.9405 10.5132 16.0694C10.6421 16.1984 10.817 16.2708 10.9993 16.2708C11.1817 16.2708 11.3566 16.1984 11.4855 16.0694C11.6144 15.9405 11.6868 15.7656 11.6868 15.5833V11.6875H15.5827C15.765 11.6875 15.9399 11.615 16.0688 11.4861C16.1978 11.3572 16.2702 11.1823 16.2702 11C16.2702 10.8176 16.1978 10.6428 16.0688 10.5138C15.9399 10.3849 15.765 10.3125 15.5827 10.3125H11.6868V6.41663Z" fill="#1C1C1E"/>
<path d="M40.4883 7.30859C40.2619 7.30859 40.0781 7.49234 40.0781 7.71875C40.0781 7.94516 40.2619 8.12891 40.4883 8.12891C40.7147 8.12891 40.8984 7.94516 40.8984 7.71875C40.8984 7.49234 40.7147 7.30859 40.4883 7.30859Z" fill="#1C1C1E"/>
<path d="M43.7695 5.66797H39.2652L37.9648 3.06704C37.7549 2.64741 37.3332 2.38672 36.8641 2.38672H32.1359C31.6668 2.38672 31.245 2.64741 31.0352 3.06709L29.7348 5.66797H28.9219V5.25781C28.9219 4.57933 28.3699 4.02734 27.6914 4.02734H26.8711C26.1926 4.02734 25.6406 4.57933 25.6406 5.25781V5.66797H25.2305C24.552 5.66797 24 6.21996 24 6.89844C24 8.01304 24 17.9492 24 18.3828C24 19.0613 24.552 19.6133 25.2305 19.6133H43.7695C44.448 19.6133 45 19.0613 45 18.3828C45 17.2682 45 7.33201 45 6.89844C45 6.21996 44.448 5.66797 43.7695 5.66797ZM31.769 3.43393C31.8389 3.29398 31.9795 3.20703 32.1359 3.20703H36.8641C37.0205 3.20703 37.1611 3.29398 37.2311 3.43393L38.3481 5.66797H30.6519L31.769 3.43393ZM26.4609 5.25781C26.4609 5.03165 26.6449 4.84766 26.8711 4.84766H27.6914C27.9176 4.84766 28.1016 5.03165 28.1016 5.25781V5.66797H26.4609V5.25781ZM24.8203 9.76543H30.0068C29.4617 10.617 29.168 11.6149 29.168 12.6406C29.168 13.6664 29.4617 14.6604 30.0067 15.5117H24.8203V9.76543ZM34.5 8.12891C36.9664 8.12891 39.0117 10.1271 39.0117 12.6406C39.0117 15.1513 36.9693 17.1523 34.5 17.1523C32.0285 17.1523 29.9883 15.1491 29.9883 12.6406C29.9883 10.1303 32.0304 8.12891 34.5 8.12891ZM44.1797 18.3828C44.1797 18.609 43.9957 18.793 43.7695 18.793H25.2305C25.0043 18.793 24.8203 18.609 24.8203 18.3828V16.332H30.6538C31.656 17.3768 33.047 17.9727 34.5 17.9727C35.9532 17.9727 37.3444 17.3766 38.3462 16.332H44.1797V18.3828ZM44.1797 15.5117H38.9932C39.5383 14.6602 39.832 13.6664 39.832 12.6406C39.832 11.6149 39.5383 10.6211 38.9932 9.76953H44.1797V15.5117ZM44.1797 8.94922H38.3462C37.344 7.90447 35.953 7.30859 34.5 7.30859C33.0468 7.30859 31.6557 7.90463 30.6538 8.94922H24.8203V6.89844C24.8203 6.67228 25.0043 6.48828 25.2305 6.48828C25.6029 6.48828 43.1929 6.48828 43.7695 6.48828C43.9957 6.48828 44.1797 6.67228 44.1797 6.89844V8.94922Z" fill="#1C1C1E"/>
<path d="M35.7305 4.02734H33.2695C33.043 4.02734 32.8594 4.21097 32.8594 4.4375C32.8594 4.66403 33.043 4.84766 33.2695 4.84766H35.7305C35.957 4.84766 36.1406 4.66403 36.1406 4.4375C36.1406 4.21097 35.957 4.02734 35.7305 4.02734Z" fill="#1C1C1E"/>
<path d="M34.5 8.94922C32.4646 8.94922 30.8086 10.6052 30.8086 12.6406C30.8086 14.6761 32.4646 16.332 34.5 16.332C36.5354 16.332 38.1914 14.6761 38.1914 12.6406C38.1914 10.6052 36.5354 8.94922 34.5 8.94922ZM34.5 15.5117C32.9169 15.5117 31.6289 14.2237 31.6289 12.6406C31.6289 11.0575 32.9169 9.76953 34.5 9.76953C36.0831 9.76953 37.3711 11.0575 37.3711 12.6406C37.3711 14.2237 36.0831 15.5117 34.5 15.5117Z" fill="#1C1C1E"/>
<path d="M34.5 10.5898C33.3692 10.5898 32.4492 11.5098 32.4492 12.6406C32.4492 12.8672 32.6328 13.0508 32.8594 13.0508C33.0859 13.0508 33.2695 12.8672 33.2695 12.6406C33.2695 11.9621 33.8215 11.4102 34.5 11.4102C34.7265 11.4102 34.9102 11.2265 34.9102 11C34.9102 10.7735 34.7265 10.5898 34.5 10.5898Z" fill="#1C1C1E"/>
<path d="M42.9492 7.30859H42.1289C41.9024 7.30859 41.7188 7.49222 41.7188 7.71875C41.7188 7.94528 41.9024 8.12891 42.1289 8.12891H42.9492C43.1757 8.12891 43.3594 7.94528 43.3594 7.71875C43.3594 7.49222 43.1757 7.30859 42.9492 7.30859Z" fill="#1C1C1E"/>
</svg>
