<svg width="15" height="18" viewBox="0 0 15 18" fill="none" xmlns="http://www.w3.org/2000/svg">
<path d="M11.594 18.0011H3.47875C2.52006 18.0011 1.73989 17.244 1.73989 16.3136L1.13477 2.25H13.938L13.3323 16.3372C13.3329 17.244 12.5527 18.0011 11.594 18.0011ZM2.34385 3.375L2.89855 16.29C2.89913 16.6241 3.1588 16.8761 3.47875 16.8761H11.594C11.914 16.8761 12.1736 16.6241 12.1736 16.3136L12.7289 3.375H2.34385Z" fill="#6D6D6D"/>
<path d="M4.63867 5.625H5.79791V14.625H4.63867V5.625Z" fill="#6D6D6D"/>
<path d="M6.95703 5.625H8.11627V14.625H6.95703V5.625Z" fill="#6D6D6D"/>
<path d="M9.27539 5.625H10.4346V14.625H9.27539V5.625Z" fill="#6D6D6D"/>
<path d="M0 2.25H15V3.375H0V2.25Z" fill="#6D6D6D"/>
<path d="M11.014 2.8125H9.8548V1.125H5.21784V2.8125H4.05859V0H11.014V2.8125Z" fill="#6D6D6D"/>
</svg>
