<svg width="21" height="21" viewBox="0 0 21 21" fill="none" xmlns="http://www.w3.org/2000/svg">
<path d="M16.4883 6.80859C16.2619 6.80859 16.0781 6.99234 16.0781 7.21875C16.0781 7.44516 16.2619 7.62891 16.4883 7.62891C16.7147 7.62891 16.8984 7.44516 16.8984 7.21875C16.8984 6.99234 16.7147 6.80859 16.4883 6.80859Z" fill="#1C1C1E"/>
<path d="M19.7695 5.16797H15.2652L13.9648 2.56704C13.7549 2.14741 13.3332 1.88672 12.8641 1.88672H8.13586C7.66676 1.88672 7.24504 2.14741 7.03525 2.56709L5.73481 5.16797H4.92188V4.75781C4.92188 4.07933 4.36989 3.52734 3.69141 3.52734H2.87109C2.19261 3.52734 1.64062 4.07933 1.64062 4.75781V5.16797H1.23047C0.551988 5.16797 0 5.71996 0 6.39844C0 7.51304 0 17.4492 0 17.8828C0 18.5613 0.551988 19.1133 1.23047 19.1133H19.7695C20.448 19.1133 21 18.5613 21 17.8828C21 16.7682 21 6.83201 21 6.39844C21 5.71996 20.448 5.16797 19.7695 5.16797ZM7.76897 2.93393C7.83895 2.79398 7.97951 2.70703 8.13586 2.70703H12.8641C13.0205 2.70703 13.1611 2.79398 13.2311 2.93393L14.3481 5.16797H6.65191L7.76897 2.93393ZM2.46094 4.75781C2.46094 4.53165 2.64493 4.34766 2.87109 4.34766H3.69141C3.91757 4.34766 4.10156 4.53165 4.10156 4.75781V5.16797H2.46094V4.75781ZM0.820312 9.26543H6.00678C5.46168 10.117 5.16797 11.1149 5.16797 12.1406C5.16797 13.1664 5.46172 14.1604 6.00674 15.0117H0.820312V9.26543ZM10.5 7.62891C12.9664 7.62891 15.0117 9.62715 15.0117 12.1406C15.0117 14.6513 12.9693 16.6523 10.5 16.6523C8.02852 16.6523 5.98828 14.6491 5.98828 12.1406C5.98828 9.63026 8.03045 7.62891 10.5 7.62891ZM20.1797 17.8828C20.1797 18.109 19.9957 18.293 19.7695 18.293H1.23047C1.00431 18.293 0.820312 18.109 0.820312 17.8828V15.832H6.6538C7.65602 16.8768 9.04702 17.4727 10.5 17.4727C11.9532 17.4727 13.3444 16.8766 14.3462 15.832H20.1797V17.8828ZM20.1797 15.0117H14.9932C15.5383 14.1602 15.832 13.1664 15.832 12.1406C15.832 11.1149 15.5383 10.1211 14.9932 9.26953H20.1797V15.0117ZM20.1797 8.44922H14.3462C13.344 7.40447 11.953 6.80859 10.5 6.80859C9.04682 6.80859 7.65569 7.40463 6.65376 8.44922H0.820312V6.39844C0.820312 6.17228 1.00431 5.98828 1.23047 5.98828C1.60293 5.98828 19.1929 5.98828 19.7695 5.98828C19.9957 5.98828 20.1797 6.17228 20.1797 6.39844V8.44922Z" fill="#1C1C1E"/>
<path d="M11.7305 3.52734H9.26953C9.043 3.52734 8.85938 3.71097 8.85938 3.9375C8.85938 4.16403 9.043 4.34766 9.26953 4.34766H11.7305C11.957 4.34766 12.1406 4.16403 12.1406 3.9375C12.1406 3.71097 11.957 3.52734 11.7305 3.52734Z" fill="#1C1C1E"/>
<path d="M10.5 8.44922C8.46456 8.44922 6.80859 10.1052 6.80859 12.1406C6.80859 14.1761 8.46456 15.832 10.5 15.832C12.5354 15.832 14.1914 14.1761 14.1914 12.1406C14.1914 10.1052 12.5354 8.44922 10.5 8.44922ZM10.5 15.0117C8.91688 15.0117 7.62891 13.7237 7.62891 12.1406C7.62891 10.5575 8.91688 9.26953 10.5 9.26953C12.0831 9.26953 13.3711 10.5575 13.3711 12.1406C13.3711 13.7237 12.0831 15.0117 10.5 15.0117Z" fill="#1C1C1E"/>
<path d="M10.5 10.0898C9.3692 10.0898 8.44922 11.0098 8.44922 12.1406C8.44922 12.3672 8.63285 12.5508 8.85938 12.5508C9.0859 12.5508 9.26953 12.3672 9.26953 12.1406C9.26953 11.4621 9.82152 10.9102 10.5 10.9102C10.7265 10.9102 10.9102 10.7265 10.9102 10.5C10.9102 10.2735 10.7265 10.0898 10.5 10.0898Z" fill="#1C1C1E"/>
<path d="M18.9492 6.80859H18.1289C17.9024 6.80859 17.7188 6.99222 17.7188 7.21875C17.7188 7.44528 17.9024 7.62891 18.1289 7.62891H18.9492C19.1757 7.62891 19.3594 7.44528 19.3594 7.21875C19.3594 6.99222 19.1757 6.80859 18.9492 6.80859Z" fill="#1C1C1E"/>
</svg>
